<?xml version="1.0" standalone="no"?>
 <!DOCTYPE svg PUBLIC "-//W3C//DTD SVG 1.1//EN" 
 "http://www.w3.org/Graphics/SVG/1.1/DTD/svg11.dtd"> 
<svg
  xmlns:svg="http://www.w3.org/2000/svg"
  xmlns="http://www.w3.org/2000/svg"
  xmlns:xlink="http://www.w3.org/1999/xlink"
  version="1.1"
  width="68.4784mm" height="56.0832mm" viewBox="0.0000 0.0000 68.4784 56.0832">
<title>SVG Image created as ElectriPi-F_Silkscreen.svg date 2023/07/18 11:07:31 </title>
  <desc>Image generated by PCBNEW </desc>
<g style="fill:#000000; fill-opacity:1.0000;stroke:#000000; stroke-opacity:1.0000;
stroke-linecap:round; stroke-linejoin:round;"
 transform="translate(0 0) scale(1 1)">
</g>
<g style="fill:#000000; fill-opacity:0.0; 
stroke:#000000; stroke-width:0.0000; stroke-opacity:1; 
stroke-linecap:round; stroke-linejoin:round;">
</g>
<g style="fill:#F2EDA1; fill-opacity:0.0; 
stroke:#F2EDA1; stroke-width:0.0000; stroke-opacity:1; 
stroke-linecap:round; stroke-linejoin:round;">
</g>
<g style="fill:#F2EDA1; fill-opacity:0.0; 
stroke:#F2EDA1; stroke-width:0.1500; stroke-opacity:1; 
stroke-linecap:round; stroke-linejoin:round;">
<g transform="rotate(-90.000000 64.0500 5.8500)">
<text x="64.0500" y="6.3500"
textLength="1.4131" font-size="1.3333" lengthAdjust="spacingAndGlyphs"
text-anchor="middle" opacity="0">-</text>
</g>
<g class="stroked-text"><desc>-</desc>
<path d="M64.1317 6.2310
L64.1317 5.4690
" />
</g></g>
<g style="fill:#F2EDA1; fill-opacity:0.0; 
stroke:#F2EDA1; stroke-width:0.1530; stroke-opacity:1; 
stroke-linecap:round; stroke-linejoin:round;">
<text x="23.6500" y="1.3500"
textLength="1.4206" font-size="1.3333" lengthAdjust="spacingAndGlyphs"
text-anchor="middle" opacity="0">-</text>
<g class="stroked-text"><desc>-</desc>
<path d="M23.2690 0.9317
L24.0310 0.9317
" />
</g></g>
<g style="fill:#F2EDA1; fill-opacity:0.0; 
stroke:#F2EDA1; stroke-width:0.1500; stroke-opacity:1; 
stroke-linecap:round; stroke-linejoin:round;">
<text x="63.0500" y="18.9500"
textLength="0.5960" font-size="1.0667" lengthAdjust="spacingAndGlyphs"
text-anchor="middle" opacity="0">.</text>
<g class="stroked-text"><desc>.</desc>
<path d="M63.0500 18.8439
L63.0881 18.8820
" />
<path d="M63.0881 18.8820
L63.0500 18.9201
" />
<path d="M63.0500 18.9201
L63.0119 18.8820
" />
<path d="M63.0119 18.8820
L63.0500 18.8439
" />
<path d="M63.0500 18.8439
L63.0500 18.9201
" />
</g><text x="63.0500" y="22.2000"
textLength="0.5960" font-size="1.0667" lengthAdjust="spacingAndGlyphs"
text-anchor="middle" opacity="0">.</text>
<g class="stroked-text"><desc>.</desc>
<path d="M63.0500 22.0939
L63.0881 22.1320
" />
<path d="M63.0881 22.1320
L63.0500 22.1701
" />
<path d="M63.0500 22.1701
L63.0119 22.1320
" />
<path d="M63.0119 22.1320
L63.0500 22.0939
" />
<path d="M63.0500 22.0939
L63.0500 22.1701
" />
</g><text x="46.0500" y="7.4000"
textLength="1.4131" font-size="1.3333" lengthAdjust="spacingAndGlyphs"
text-anchor="middle" opacity="0">+</text>
<g class="stroked-text"><desc>+</desc>
<path d="M45.6690 6.9817
L46.4310 6.9817
" />
<path d="M46.0500 7.3626
L46.0500 6.6007
" />
</g><text x="6.7000" y="5.0000"
textLength="0.5960" font-size="1.0667" lengthAdjust="spacingAndGlyphs"
text-anchor="middle" opacity="0">.</text>
<g class="stroked-text"><desc>.</desc>
<path d="M6.7000 4.8939
L6.7381 4.9320
" />
<path d="M6.7381 4.9320
L6.7000 4.9701
" />
<path d="M6.7000 4.9701
L6.6619 4.9320
" />
<path d="M6.6619 4.9320
L6.7000 4.8939
" />
<path d="M6.7000 4.8939
L6.7000 4.9701
" />
</g><g transform="rotate(-90.000000 62.6000 23.7000)">
<text x="62.6000" y="24.1000"
textLength="2.5007" font-size="1.0667" lengthAdjust="spacingAndGlyphs"
text-anchor="middle" opacity="0">VCC</text>
</g>
<g class="stroked-text"><desc>VCC</desc>
<path d="M62.1701 24.7667
L62.9701 24.5000
" />
<path d="M62.9701 24.5000
L62.1701 24.2333
" />
<path d="M62.8939 23.5095
L62.9320 23.5476
" />
<path d="M62.9320 23.5476
L62.9701 23.6619
" />
<path d="M62.9701 23.6619
L62.9701 23.7381
" />
<path d="M62.9701 23.7381
L62.9320 23.8524
" />
<path d="M62.9320 23.8524
L62.8558 23.9286
" />
<path d="M62.8558 23.9286
L62.7796 23.9667
" />
<path d="M62.7796 23.9667
L62.6272 24.0048
" />
<path d="M62.6272 24.0048
L62.5130 24.0048
" />
<path d="M62.5130 24.0048
L62.3606 23.9667
" />
<path d="M62.3606 23.9667
L62.2844 23.9286
" />
<path d="M62.2844 23.9286
L62.2082 23.8524
" />
<path d="M62.2082 23.8524
L62.1701 23.7381
" />
<path d="M62.1701 23.7381
L62.1701 23.6619
" />
<path d="M62.1701 23.6619
L62.2082 23.5476
" />
<path d="M62.2082 23.5476
L62.2463 23.5095
" />
<path d="M62.8939 22.7095
L62.9320 22.7476
" />
<path d="M62.9320 22.7476
L62.9701 22.8619
" />
<path d="M62.9701 22.8619
L62.9701 22.9381
" />
<path d="M62.9701 22.9381
L62.9320 23.0524
" />
<path d="M62.9320 23.0524
L62.8558 23.1286
" />
<path d="M62.8558 23.1286
L62.7796 23.1667
" />
<path d="M62.7796 23.1667
L62.6272 23.2048
" />
<path d="M62.6272 23.2048
L62.5130 23.2048
" />
<path d="M62.5130 23.2048
L62.3606 23.1667
" />
<path d="M62.3606 23.1667
L62.2844 23.1286
" />
<path d="M62.2844 23.1286
L62.2082 23.0524
" />
<path d="M62.2082 23.0524
L62.1701 22.9381
" />
<path d="M62.1701 22.9381
L62.1701 22.8619
" />
<path d="M62.1701 22.8619
L62.2082 22.7476
" />
<path d="M62.2082 22.7476
L62.2463 22.7095
" />
</g><text x="9.0500" y="49.6000"
textLength="0.6512" font-size="1.3333" lengthAdjust="spacingAndGlyphs"
text-anchor="middle" opacity="0">.</text>
<g class="stroked-text"><desc>.</desc>
<path d="M9.0500 49.4674
L9.0976 49.5150
" />
<path d="M9.0976 49.5150
L9.0500 49.5626
" />
<path d="M9.0500 49.5626
L9.0024 49.5150
" />
<path d="M9.0024 49.5150
L9.0500 49.4674
" />
<path d="M9.0500 49.4674
L9.0500 49.5626
" />
</g></g>
<g style="fill:#F2EDA1; fill-opacity:0.0; 
stroke:#F2EDA1; stroke-width:0.1530; stroke-opacity:1; 
stroke-linecap:round; stroke-linejoin:round;">
<text x="18.5500" y="6.7000"
textLength="1.4206" font-size="1.3333" lengthAdjust="spacingAndGlyphs"
text-anchor="middle" opacity="0">-</text>
<g class="stroked-text"><desc>-</desc>
<path d="M18.1690 6.2817
L18.9310 6.2817
" />
</g></g>
<g style="fill:#F2EDA1; fill-opacity:0.0; 
stroke:#F2EDA1; stroke-width:0.1500; stroke-opacity:1; 
stroke-linecap:round; stroke-linejoin:round;">
<text x="43.5500" y="7.4500"
textLength="1.4131" font-size="1.3333" lengthAdjust="spacingAndGlyphs"
text-anchor="middle" opacity="0">-</text>
<g class="stroked-text"><desc>-</desc>
<path d="M43.1690 7.0317
L43.9310 7.0317
" />
</g><g transform="rotate(-90.000000 62.7000 16.8000)">
<text x="62.7000" y="17.2000"
textLength="1.6626" font-size="1.0667" lengthAdjust="spacingAndGlyphs"
text-anchor="middle" opacity="0">5V</text>
</g>
<g class="stroked-text"><desc>5V</desc>
<path d="M62.2701 16.9524
L62.2701 17.3333
" />
<path d="M62.2701 17.3333
L62.6510 17.3714
" />
<path d="M62.6510 17.3714
L62.6130 17.3333
" />
<path d="M62.6130 17.3333
L62.5749 17.2571
" />
<path d="M62.5749 17.2571
L62.5749 17.0667
" />
<path d="M62.5749 17.0667
L62.6130 16.9905
" />
<path d="M62.6130 16.9905
L62.6510 16.9524
" />
<path d="M62.6510 16.9524
L62.7272 16.9143
" />
<path d="M62.7272 16.9143
L62.9177 16.9143
" />
<path d="M62.9177 16.9143
L62.9939 16.9524
" />
<path d="M62.9939 16.9524
L63.0320 16.9905
" />
<path d="M63.0320 16.9905
L63.0701 17.0667
" />
<path d="M63.0701 17.0667
L63.0701 17.2571
" />
<path d="M63.0701 17.2571
L63.0320 17.3333
" />
<path d="M63.0320 17.3333
L62.9939 17.3714
" />
<path d="M62.2701 16.6857
L63.0701 16.4190
" />
<path d="M63.0701 16.4190
L62.2701 16.1524
" />
</g></g>
<g style="fill:#F2EDA1; fill-opacity:0.0; 
stroke:#F2EDA1; stroke-width:0.1250; stroke-opacity:1; 
stroke-linecap:round; stroke-linejoin:round;">
<g transform="rotate(-180.000000 60.5500 15.1000)">
<text x="60.5500" y="15.5000"
textLength="4.4954" font-size="1.0667" lengthAdjust="spacingAndGlyphs"
text-anchor="middle" opacity="0">AUX 5V</text>
</g>
<g class="stroked-text"><desc>AUX 5V</desc>
<path d="M62.5690 14.9585
L62.1881 14.9585
" />
<path d="M62.6452 14.7299
L62.3786 15.5299
" />
<path d="M62.3786 15.5299
L62.1119 14.7299
" />
<path d="M61.8452 15.5299
L61.8452 14.8823
" />
<path d="M61.8452 14.8823
L61.8071 14.8061
" />
<path d="M61.8071 14.8061
L61.7690 14.7680
" />
<path d="M61.7690 14.7680
L61.6929 14.7299
" />
<path d="M61.6929 14.7299
L61.5405 14.7299
" />
<path d="M61.5405 14.7299
L61.4643 14.7680
" />
<path d="M61.4643 14.7680
L61.4262 14.8061
" />
<path d="M61.4262 14.8061
L61.3881 14.8823
" />
<path d="M61.3881 14.8823
L61.3881 15.5299
" />
<path d="M61.0833 15.5299
L60.5500 14.7299
" />
<path d="M60.5500 15.5299
L61.0833 14.7299
" />
<path d="M59.2548 15.5299
L59.6357 15.5299
" />
<path d="M59.6357 15.5299
L59.6738 15.1490
" />
<path d="M59.6738 15.1490
L59.6357 15.1870
" />
<path d="M59.6357 15.1870
L59.5595 15.2251
" />
<path d="M59.5595 15.2251
L59.3690 15.2251
" />
<path d="M59.3690 15.2251
L59.2929 15.1870
" />
<path d="M59.2929 15.1870
L59.2548 15.1490
" />
<path d="M59.2548 15.1490
L59.2167 15.0728
" />
<path d="M59.2167 15.0728
L59.2167 14.8823
" />
<path d="M59.2167 14.8823
L59.2548 14.8061
" />
<path d="M59.2548 14.8061
L59.2929 14.7680
" />
<path d="M59.2929 14.7680
L59.3690 14.7299
" />
<path d="M59.3690 14.7299
L59.5595 14.7299
" />
<path d="M59.5595 14.7299
L59.6357 14.7680
" />
<path d="M59.6357 14.7680
L59.6738 14.8061
" />
<path d="M58.9881 15.5299
L58.7214 14.7299
" />
<path d="M58.7214 14.7299
L58.4548 15.5299
" />
</g></g>
<g style="fill:#F2EDA1; fill-opacity:0.0; 
stroke:#F2EDA1; stroke-width:0.1500; stroke-opacity:1; 
stroke-linecap:round; stroke-linejoin:round;">
<g transform="rotate(-90.000000 64.0500 14.8000)">
<text x="64.0500" y="15.3000"
textLength="1.4131" font-size="1.3333" lengthAdjust="spacingAndGlyphs"
text-anchor="middle" opacity="0">+</text>
</g>
<g class="stroked-text"><desc>+</desc>
<path d="M64.1317 15.1810
L64.1317 14.4190
" />
<path d="M64.5126 14.8000
L63.7507 14.8000
" />
</g></g>
<g style="fill:#F2EDA1; fill-opacity:0.0; 
stroke:#F2EDA1; stroke-width:0.1530; stroke-opacity:1; 
stroke-linecap:round; stroke-linejoin:round;">
<text x="10.9300" y="1.3000"
textLength="1.4206" font-size="1.3333" lengthAdjust="spacingAndGlyphs"
text-anchor="middle" opacity="0">+</text>
<g class="stroked-text"><desc>+</desc>
<path d="M10.5490 0.8817
L11.3110 0.8817
" />
<path d="M10.9300 1.2626
L10.9300 0.5007
" />
</g></g>
<g style="fill:#F2EDA1; fill-opacity:0.0; 
stroke:#F2EDA1; stroke-width:0.1500; stroke-opacity:1; 
stroke-linecap:round; stroke-linejoin:round;">
<text x="42.5000" y="14.7000"
textLength="2.4245" font-size="1.0667" lengthAdjust="spacingAndGlyphs"
text-anchor="middle" opacity="0">FAN</text>
<g class="stroked-text"><desc>FAN</desc>
<path d="M41.8524 14.2510
L41.5857 14.2510
" />
<path d="M41.5857 14.6701
L41.5857 13.8701
" />
<path d="M41.5857 13.8701
L41.9667 13.8701
" />
<path d="M42.2333 14.4415
L42.6143 14.4415
" />
<path d="M42.1571 14.6701
L42.4238 13.8701
" />
<path d="M42.4238 13.8701
L42.6905 14.6701
" />
<path d="M42.9571 14.6701
L42.9571 13.8701
" />
<path d="M42.9571 13.8701
L43.4143 14.6701
" />
<path d="M43.4143 14.6701
L43.4143 13.8701
" />
</g><g transform="rotate(-90.000000 67.8000 42.8000)">
<text x="67.8000" y="43.3000"
textLength="3.4131" font-size="1.3333" lengthAdjust="spacingAndGlyphs"
text-anchor="middle" opacity="0">V2.0</text>
</g>
<g class="stroked-text"><desc>V2.0</desc>
<path d="M67.2626 44.3238
L68.2626 43.9905
" />
<path d="M68.2626 43.9905
L67.2626 43.6571
" />
<path d="M67.3579 43.3714
L67.3102 43.3238
" />
<path d="M67.3102 43.3238
L67.2626 43.2286
" />
<path d="M67.2626 43.2286
L67.2626 42.9905
" />
<path d="M67.2626 42.9905
L67.3102 42.8952
" />
<path d="M67.3102 42.8952
L67.3579 42.8476
" />
<path d="M67.3579 42.8476
L67.4531 42.8000
" />
<path d="M67.4531 42.8000
L67.5483 42.8000
" />
<path d="M67.5483 42.8000
L67.6912 42.8476
" />
<path d="M67.6912 42.8476
L68.2626 43.4190
" />
<path d="M68.2626 43.4190
L68.2626 42.8000
" />
<path d="M68.1674 42.3714
L68.2150 42.3238
" />
<path d="M68.2150 42.3238
L68.2626 42.3714
" />
<path d="M68.2626 42.3714
L68.2150 42.4190
" />
<path d="M68.2150 42.4190
L68.1674 42.3714
" />
<path d="M68.1674 42.3714
L68.2626 42.3714
" />
<path d="M67.2626 41.7048
L67.2626 41.6095
" />
<path d="M67.2626 41.6095
L67.3102 41.5143
" />
<path d="M67.3102 41.5143
L67.3579 41.4667
" />
<path d="M67.3579 41.4667
L67.4531 41.4190
" />
<path d="M67.4531 41.4190
L67.6436 41.3714
" />
<path d="M67.6436 41.3714
L67.8817 41.3714
" />
<path d="M67.8817 41.3714
L68.0721 41.4190
" />
<path d="M68.0721 41.4190
L68.1674 41.4667
" />
<path d="M68.1674 41.4667
L68.2150 41.5143
" />
<path d="M68.2150 41.5143
L68.2626 41.6095
" />
<path d="M68.2626 41.6095
L68.2626 41.7048
" />
<path d="M68.2626 41.7048
L68.2150 41.8000
" />
<path d="M68.2150 41.8000
L68.1674 41.8476
" />
<path d="M68.1674 41.8476
L68.0721 41.8952
" />
<path d="M68.0721 41.8952
L67.8817 41.9429
" />
<path d="M67.8817 41.9429
L67.6436 41.9429
" />
<path d="M67.6436 41.9429
L67.4531 41.8952
" />
<path d="M67.4531 41.8952
L67.3579 41.8476
" />
<path d="M67.3579 41.8476
L67.3102 41.8000
" />
<path d="M67.3102 41.8000
L67.2626 41.7048
" />
</g></g>
<g style="fill:#F2EDA1; fill-opacity:0.0; 
stroke:#F2EDA1; stroke-width:0.1530; stroke-opacity:1; 
stroke-linecap:round; stroke-linejoin:round;">
<text x="8.4000" y="1.3000"
textLength="1.4206" font-size="1.3333" lengthAdjust="spacingAndGlyphs"
text-anchor="middle" opacity="0">+</text>
<g class="stroked-text"><desc>+</desc>
<path d="M8.0190 0.8817
L8.7810 0.8817
" />
<path d="M8.4000 1.2626
L8.4000 0.5007
" />
</g><text x="13.4500" y="1.3000"
textLength="1.4206" font-size="1.3333" lengthAdjust="spacingAndGlyphs"
text-anchor="middle" opacity="0">-</text>
<g class="stroked-text"><desc>-</desc>
<path d="M13.0690 0.8817
L13.8310 0.8817
" />
</g><text x="31.3000" y="1.3500"
textLength="1.4206" font-size="1.3333" lengthAdjust="spacingAndGlyphs"
text-anchor="middle" opacity="0">-</text>
<g class="stroked-text"><desc>-</desc>
<path d="M30.9190 0.9317
L31.6810 0.9317
" />
</g><text x="58.2500" y="5.2500"
textLength="1.4206" font-size="1.3333" lengthAdjust="spacingAndGlyphs"
text-anchor="middle" opacity="0">-</text>
<g class="stroked-text"><desc>-</desc>
<path d="M57.8690 4.8317
L58.6310 4.8317
" />
</g></g>
<g style="fill:#F2EDA1; fill-opacity:0.0; 
stroke:#F2EDA1; stroke-width:0.1500; stroke-opacity:1; 
stroke-linecap:round; stroke-linejoin:round;">
<text x="24.5500" y="55.0500"
textLength="1.4131" font-size="1.3333" lengthAdjust="spacingAndGlyphs"
text-anchor="middle" opacity="0">+</text>
<g class="stroked-text"><desc>+</desc>
<path d="M24.1690 54.6317
L24.9310 54.6317
" />
<path d="M24.5500 55.0126
L24.5500 54.2507
" />
</g><text x="5.8000" y="55.0500"
textLength="1.4131" font-size="1.3333" lengthAdjust="spacingAndGlyphs"
text-anchor="middle" opacity="0">+</text>
<g class="stroked-text"><desc>+</desc>
<path d="M5.4190 54.6317
L6.1810 54.6317
" />
<path d="M5.8000 55.0126
L5.8000 54.2507
" />
</g></g>
<g style="fill:#F2EDA1; fill-opacity:0.0; 
stroke:#F2EDA1; stroke-width:0.1530; stroke-opacity:1; 
stroke-linecap:round; stroke-linejoin:round;">
<text x="49.0500" y="1.3500"
textLength="1.4206" font-size="1.3333" lengthAdjust="spacingAndGlyphs"
text-anchor="middle" opacity="0">-</text>
<g class="stroked-text"><desc>-</desc>
<path d="M48.6690 0.9317
L49.4310 0.9317
" />
</g></g>
<g style="fill:#F2EDA1; fill-opacity:0.0; 
stroke:#F2EDA1; stroke-width:0.1500; stroke-opacity:1; 
stroke-linecap:round; stroke-linejoin:round;">
<text x="59.4000" y="11.9000"
textLength="0.6512" font-size="1.3333" lengthAdjust="spacingAndGlyphs"
text-anchor="middle" opacity="0">.</text>
<g class="stroked-text"><desc>.</desc>
<path d="M59.4000 11.7674
L59.4476 11.8150
" />
<path d="M59.4476 11.8150
L59.4000 11.8626
" />
<path d="M59.4000 11.8626
L59.3524 11.8150
" />
<path d="M59.3524 11.8150
L59.4000 11.7674
" />
<path d="M59.4000 11.7674
L59.4000 11.8626
" />
</g></g>
<g style="fill:#F2EDA1; fill-opacity:0.0; 
stroke:#F2EDA1; stroke-width:0.1530; stroke-opacity:1; 
stroke-linecap:round; stroke-linejoin:round;">
<text x="38.9000" y="6.6500"
textLength="1.4206" font-size="1.3333" lengthAdjust="spacingAndGlyphs"
text-anchor="middle" opacity="0">-</text>
<g class="stroked-text"><desc>-</desc>
<path d="M38.5190 6.2317
L39.2810 6.2317
" />
</g></g>
<g style="fill:#F2EDA1; fill-opacity:0.0; 
stroke:#F2EDA1; stroke-width:0.1500; stroke-opacity:1; 
stroke-linecap:round; stroke-linejoin:round;">
<text x="15.3000" y="55.1500"
textLength="1.4131" font-size="1.3333" lengthAdjust="spacingAndGlyphs"
text-anchor="middle" opacity="0">-</text>
<g class="stroked-text"><desc>-</desc>
<path d="M14.9190 54.7317
L15.6810 54.7317
" />
</g><text x="3.8000" y="48.2400"
textLength="5.8893" font-size="1.3333" lengthAdjust="spacingAndGlyphs"
text-anchor="middle" opacity="0">12/24V</text>
<g class="stroked-text"><desc>12/24V</desc>
<path d="M1.7048 48.2026
L1.1333 48.2026
" />
<path d="M1.4190 48.2026
L1.4190 47.2026
" />
<path d="M1.4190 47.2026
L1.3238 47.3455
" />
<path d="M1.3238 47.3455
L1.2286 47.4407
" />
<path d="M1.2286 47.4407
L1.1333 47.4883
" />
<path d="M2.0857 47.2979
L2.1333 47.2502
" />
<path d="M2.1333 47.2502
L2.2286 47.2026
" />
<path d="M2.2286 47.2026
L2.4667 47.2026
" />
<path d="M2.4667 47.2026
L2.5619 47.2502
" />
<path d="M2.5619 47.2502
L2.6095 47.2979
" />
<path d="M2.6095 47.2979
L2.6571 47.3931
" />
<path d="M2.6571 47.3931
L2.6571 47.4883
" />
<path d="M2.6571 47.4883
L2.6095 47.6312
" />
<path d="M2.6095 47.6312
L2.0381 48.2026
" />
<path d="M2.0381 48.2026
L2.6571 48.2026
" />
<path d="M3.8000 47.1550
L2.9429 48.4407
" />
<path d="M4.0857 47.2979
L4.1333 47.2502
" />
<path d="M4.1333 47.2502
L4.2286 47.2026
" />
<path d="M4.2286 47.2026
L4.4667 47.2026
" />
<path d="M4.4667 47.2026
L4.5619 47.2502
" />
<path d="M4.5619 47.2502
L4.6095 47.2979
" />
<path d="M4.6095 47.2979
L4.6571 47.3931
" />
<path d="M4.6571 47.3931
L4.6571 47.4883
" />
<path d="M4.6571 47.4883
L4.6095 47.6312
" />
<path d="M4.6095 47.6312
L4.0381 48.2026
" />
<path d="M4.0381 48.2026
L4.6571 48.2026
" />
<path d="M5.5143 47.5360
L5.5143 48.2026
" />
<path d="M5.2762 47.1550
L5.0381 47.8693
" />
<path d="M5.0381 47.8693
L5.6571 47.8693
" />
<path d="M5.8952 47.2026
L6.2286 48.2026
" />
<path d="M6.2286 48.2026
L6.5619 47.2026
" />
</g><text x="3.8000" y="49.8600"
textLength="5.4607" font-size="1.3333" lengthAdjust="spacingAndGlyphs"
text-anchor="middle" opacity="0">INPUTS</text>
<g class="stroked-text"><desc>INPUTS</desc>
<path d="M1.3952 49.8226
L1.3952 48.8226
" />
<path d="M1.8714 49.8226
L1.8714 48.8226
" />
<path d="M1.8714 48.8226
L2.4429 49.8226
" />
<path d="M2.4429 49.8226
L2.4429 48.8226
" />
<path d="M2.9190 49.8226
L2.9190 48.8226
" />
<path d="M2.9190 48.8226
L3.3000 48.8226
" />
<path d="M3.3000 48.8226
L3.3952 48.8702
" />
<path d="M3.3952 48.8702
L3.4429 48.9179
" />
<path d="M3.4429 48.9179
L3.4905 49.0131
" />
<path d="M3.4905 49.0131
L3.4905 49.1560
" />
<path d="M3.4905 49.1560
L3.4429 49.2512
" />
<path d="M3.4429 49.2512
L3.3952 49.2988
" />
<path d="M3.3952 49.2988
L3.3000 49.3464
" />
<path d="M3.3000 49.3464
L2.9190 49.3464
" />
<path d="M3.9190 48.8226
L3.9190 49.6321
" />
<path d="M3.9190 49.6321
L3.9667 49.7274
" />
<path d="M3.9667 49.7274
L4.0143 49.7750
" />
<path d="M4.0143 49.7750
L4.1095 49.8226
" />
<path d="M4.1095 49.8226
L4.3000 49.8226
" />
<path d="M4.3000 49.8226
L4.3952 49.7750
" />
<path d="M4.3952 49.7750
L4.4429 49.7274
" />
<path d="M4.4429 49.7274
L4.4905 49.6321
" />
<path d="M4.4905 49.6321
L4.4905 48.8226
" />
<path d="M4.8238 48.8226
L5.3952 48.8226
" />
<path d="M5.1095 49.8226
L5.1095 48.8226
" />
<path d="M5.6810 49.7750
L5.8238 49.8226
" />
<path d="M5.8238 49.8226
L6.0619 49.8226
" />
<path d="M6.0619 49.8226
L6.1571 49.7750
" />
<path d="M6.1571 49.7750
L6.2048 49.7274
" />
<path d="M6.2048 49.7274
L6.2524 49.6321
" />
<path d="M6.2524 49.6321
L6.2524 49.5369
" />
<path d="M6.2524 49.5369
L6.2048 49.4417
" />
<path d="M6.2048 49.4417
L6.1571 49.3940
" />
<path d="M6.1571 49.3940
L6.0619 49.3464
" />
<path d="M6.0619 49.3464
L5.8714 49.2988
" />
<path d="M5.8714 49.2988
L5.7762 49.2512
" />
<path d="M5.7762 49.2512
L5.7286 49.2036
" />
<path d="M5.7286 49.2036
L5.6810 49.1083
" />
<path d="M5.6810 49.1083
L5.6810 49.0131
" />
<path d="M5.6810 49.0131
L5.7286 48.9179
" />
<path d="M5.7286 48.9179
L5.7762 48.8702
" />
<path d="M5.7762 48.8702
L5.8714 48.8226
" />
<path d="M5.8714 48.8226
L6.1095 48.8226
" />
<path d="M6.1095 48.8226
L6.2524 48.8702
" />
</g><text x="61.0500" y="37.2000"
textLength="0.5960" font-size="1.0667" lengthAdjust="spacingAndGlyphs"
text-anchor="middle" opacity="0">.</text>
<g class="stroked-text"><desc>.</desc>
<path d="M61.0500 37.0939
L61.0881 37.1320
" />
<path d="M61.0881 37.1320
L61.0500 37.1701
" />
<path d="M61.0500 37.1701
L61.0119 37.1320
" />
<path d="M61.0119 37.1320
L61.0500 37.0939
" />
<path d="M61.0500 37.0939
L61.0500 37.1701
" />
</g></g>
<g style="fill:#F2EDA1; fill-opacity:0.0; 
stroke:#F2EDA1; stroke-width:0.1530; stroke-opacity:1; 
stroke-linecap:round; stroke-linejoin:round;">
<text x="43.9500" y="1.3500"
textLength="1.4206" font-size="1.3333" lengthAdjust="spacingAndGlyphs"
text-anchor="middle" opacity="0">-</text>
<g class="stroked-text"><desc>-</desc>
<path d="M43.5690 0.9317
L44.3310 0.9317
" />
</g></g>
<g style="fill:#F2EDA1; fill-opacity:0.0; 
stroke:#F2EDA1; stroke-width:0.1500; stroke-opacity:1; 
stroke-linecap:round; stroke-linejoin:round;">
<g transform="rotate(-90.000000 63.0250 10.4500)">
<text x="63.0250" y="10.9500"
textLength="1.8893" font-size="1.3333" lengthAdjust="spacingAndGlyphs"
text-anchor="middle" opacity="0">J8</text>
</g>
<g class="stroked-text"><desc>J8</desc>
<path d="M62.4876 10.7833
L63.2019 10.7833
" />
<path d="M63.2019 10.7833
L63.3448 10.8310
" />
<path d="M63.3448 10.8310
L63.4400 10.9262
" />
<path d="M63.4400 10.9262
L63.4876 11.0690
" />
<path d="M63.4876 11.0690
L63.4876 11.1643
" />
<path d="M62.9162 10.1643
L62.8686 10.2595
" />
<path d="M62.8686 10.2595
L62.8210 10.3071
" />
<path d="M62.8210 10.3071
L62.7257 10.3548
" />
<path d="M62.7257 10.3548
L62.6781 10.3548
" />
<path d="M62.6781 10.3548
L62.5829 10.3071
" />
<path d="M62.5829 10.3071
L62.5352 10.2595
" />
<path d="M62.5352 10.2595
L62.4876 10.1643
" />
<path d="M62.4876 10.1643
L62.4876 9.9738
" />
<path d="M62.4876 9.9738
L62.5352 9.8786
" />
<path d="M62.5352 9.8786
L62.5829 9.8310
" />
<path d="M62.5829 9.8310
L62.6781 9.7833
" />
<path d="M62.6781 9.7833
L62.7257 9.7833
" />
<path d="M62.7257 9.7833
L62.8210 9.8310
" />
<path d="M62.8210 9.8310
L62.8686 9.8786
" />
<path d="M62.8686 9.8786
L62.9162 9.9738
" />
<path d="M62.9162 9.9738
L62.9162 10.1643
" />
<path d="M62.9162 10.1643
L62.9638 10.2595
" />
<path d="M62.9638 10.2595
L63.0114 10.3071
" />
<path d="M63.0114 10.3071
L63.1067 10.3548
" />
<path d="M63.1067 10.3548
L63.2971 10.3548
" />
<path d="M63.2971 10.3548
L63.3924 10.3071
" />
<path d="M63.3924 10.3071
L63.4400 10.2595
" />
<path d="M63.4400 10.2595
L63.4876 10.1643
" />
<path d="M63.4876 10.1643
L63.4876 9.9738
" />
<path d="M63.4876 9.9738
L63.4400 9.8786
" />
<path d="M63.4400 9.8786
L63.3924 9.8310
" />
<path d="M63.3924 9.8310
L63.2971 9.7833
" />
<path d="M63.2971 9.7833
L63.1067 9.7833
" />
<path d="M63.1067 9.7833
L63.0114 9.8310
" />
<path d="M63.0114 9.8310
L62.9638 9.8786
" />
<path d="M62.9638 9.8786
L62.9162 9.9738
" />
</g><text x="19.5000" y="51.7250"
textLength="1.8893" font-size="1.3333" lengthAdjust="spacingAndGlyphs"
text-anchor="middle" opacity="0">J2</text>
<g class="stroked-text"><desc>J2</desc>
<path d="M19.1667 50.6876
L19.1667 51.4019
" />
<path d="M19.1667 51.4019
L19.1190 51.5448
" />
<path d="M19.1190 51.5448
L19.0238 51.6400
" />
<path d="M19.0238 51.6400
L18.8810 51.6876
" />
<path d="M18.8810 51.6876
L18.7857 51.6876
" />
<path d="M19.5952 50.7829
L19.6429 50.7352
" />
<path d="M19.6429 50.7352
L19.7381 50.6876
" />
<path d="M19.7381 50.6876
L19.9762 50.6876
" />
<path d="M19.9762 50.6876
L20.0714 50.7352
" />
<path d="M20.0714 50.7352
L20.1190 50.7829
" />
<path d="M20.1190 50.7829
L20.1667 50.8781
" />
<path d="M20.1667 50.8781
L20.1667 50.9733
" />
<path d="M20.1667 50.9733
L20.1190 51.1162
" />
<path d="M20.1190 51.1162
L19.5476 51.6876
" />
<path d="M19.5476 51.6876
L20.1667 51.6876
" />
</g><text x="10.8000" y="49.9000"
textLength="1.8893" font-size="1.3333" lengthAdjust="spacingAndGlyphs"
text-anchor="middle" opacity="0">J1</text>
<g class="stroked-text"><desc>J1</desc>
<path d="M10.4667 48.8626
L10.4667 49.5769
" />
<path d="M10.4667 49.5769
L10.4190 49.7198
" />
<path d="M10.4190 49.7198
L10.3238 49.8150
" />
<path d="M10.3238 49.8150
L10.1810 49.8626
" />
<path d="M10.1810 49.8626
L10.0857 49.8626
" />
<path d="M11.4667 49.8626
L10.8952 49.8626
" />
<path d="M11.1810 49.8626
L11.1810 48.8626
" />
<path d="M11.1810 48.8626
L11.0857 49.0055
" />
<path d="M11.0857 49.0055
L10.9905 49.1007
" />
<path d="M10.9905 49.1007
L10.8952 49.1483
" />
</g><text x="30.6500" y="53.8500"
textLength="1.9845" font-size="1.3333" lengthAdjust="spacingAndGlyphs"
text-anchor="middle" opacity="0">F1</text>
<g class="stroked-text"><desc>F1</desc>
<path d="M30.3167 53.2888
L29.9833 53.2888
" />
<path d="M29.9833 53.8126
L29.9833 52.8126
" />
<path d="M29.9833 52.8126
L30.4595 52.8126
" />
<path d="M31.3643 53.8126
L30.7929 53.8126
" />
<path d="M31.0786 53.8126
L31.0786 52.8126
" />
<path d="M31.0786 52.8126
L30.9833 52.9555
" />
<path d="M30.9833 52.9555
L30.8881 53.0507
" />
<path d="M30.8881 53.0507
L30.7929 53.0983
" />
</g><text x="46.8000" y="9.5500"
textLength="1.5864" font-size="1.0667" lengthAdjust="spacingAndGlyphs"
text-anchor="middle" opacity="0">J3</text>
<g class="stroked-text"><desc>J3</desc>
<path d="M46.5333 8.7201
L46.5333 9.2915
" />
<path d="M46.5333 9.2915
L46.4952 9.4058
" />
<path d="M46.4952 9.4058
L46.4190 9.4820
" />
<path d="M46.4190 9.4820
L46.3048 9.5201
" />
<path d="M46.3048 9.5201
L46.2286 9.5201
" />
<path d="M46.8381 8.7201
L47.3333 8.7201
" />
<path d="M47.3333 8.7201
L47.0667 9.0249
" />
<path d="M47.0667 9.0249
L47.1810 9.0249
" />
<path d="M47.1810 9.0249
L47.2571 9.0630
" />
<path d="M47.2571 9.0630
L47.2952 9.1010
" />
<path d="M47.2952 9.1010
L47.3333 9.1772
" />
<path d="M47.3333 9.1772
L47.3333 9.3677
" />
<path d="M47.3333 9.3677
L47.2952 9.4439
" />
<path d="M47.2952 9.4439
L47.2571 9.4820
" />
<path d="M47.2571 9.4820
L47.1810 9.5201
" />
<path d="M47.1810 9.5201
L46.9524 9.5201
" />
<path d="M46.9524 9.5201
L46.8762 9.4820
" />
<path d="M46.8762 9.4820
L46.8381 9.4439
" />
</g></g>
<g style="fill:#F2EDA1; fill-opacity:0.0; 
stroke:#F2EDA1; stroke-width:0.1200; stroke-opacity:1; 
stroke-linecap:round; stroke-linejoin:round;">
<path d="M58.2500 14.5500
L59.5000 14.5500
" />
<path d="M58.5400 14.2600
L64.5100 14.2600
" />
<path d="M64.5100 14.2600
L64.5100 6.6400
" />
<path d="M58.5500 14.2500
L59.3000 14.2500
" />
<path d="M59.3000 14.2500
L59.3000 12.4500
" />
<path d="M60.8000 14.2500
L60.8000 13.5000
" />
<path d="M60.8000 13.5000
L63.7500 13.5000
" />
<path d="M63.7500 13.5000
L63.7500 10.4500
" />
<path d="M58.2500 13.3000
L58.2500 14.5500
" />
<path d="M58.5500 12.4500
L58.5500 14.2500
" />
<path d="M59.3000 12.4500
L58.5500 12.4500
" />
<path d="M58.5500 10.9500
L59.3000 10.9500
" />
<path d="M59.3000 10.9500
L59.3000 9.9500
" />
<path d="M58.5500 9.9500
L58.5500 10.9500
" />
<path d="M59.3000 9.9500
L58.5500 9.9500
" />
<path d="M58.5500 8.4500
L59.3000 8.4500
" />
<path d="M59.3000 8.4500
L59.3000 6.6500
" />
<path d="M60.8000 7.4000
L63.7500 7.4000
" />
<path d="M63.7500 7.4000
L63.7500 10.4500
" />
<path d="M58.5500 6.6500
L58.5500 8.4500
" />
<path d="M59.3000 6.6500
L58.5500 6.6500
" />
<path d="M60.8000 6.6500
L60.8000 7.4000
" />
<path d="M58.5400 6.6400
L58.5400 14.2600
" />
<path d="M64.5100 6.6400
L58.5400 6.6400
" />
<path d="M59.1700 33.2036
L59.1700 32.8964
" />
<path d="M59.9300 33.2036
L59.9300 32.8964
" />
<path d="M56.7400 48.0500
L56.7400 49.7250
" />
<path d="M56.7400 48.0500
L56.7400 47.4000
" />
<path d="M59.8600 48.0500
L59.8600 48.7000
" />
<path d="M59.8600 48.0500
L59.8600 47.4000
" />
<path d="M52.1600 8.6122
L52.1600 8.8278
" />
<path d="M51.4400 8.6122
L51.4400 8.8278
" />
<path d="M56.4078 40.9100
L56.1922 40.9100
" />
<path d="M56.4078 40.1900
L56.1922 40.1900
" />
<path d="M55.1250 11.5000
L55.0250 11.5000
" />
<path d="M55.1250 11.5000
L55.1250 13.4500
" />
<path d="M52.8250 13.4500
L52.8250 11.9500
" />
<path d="M57.6800 32.1464
L57.6800 32.4536
" />
<path d="M56.9200 32.1464
L56.9200 32.4536
" />
<path d="M44.6922 14.4400
L44.9078 14.4400
" />
<path d="M44.6922 15.1600
L44.9078 15.1600
" />
<path d="M54.2100 15.7000
L54.2100 15.9000
" />
<path d="M23.9000 55.8000
L23.9000 54.5500
" />
<path d="M23.6100 55.5100
L23.6100 49.5400
" />
<path d="M23.6100 49.5400
L15.9900 49.5400
" />
<path d="M23.6000 55.5000
L23.6000 54.7500
" />
<path d="M23.6000 54.7500
L21.8000 54.7500
" />
<path d="M23.6000 53.2500
L22.8500 53.2500
" />
<path d="M22.8500 53.2500
L22.8500 50.3000
" />
<path d="M22.8500 50.3000
L19.8000 50.3000
" />
<path d="M22.6500 55.8000
L23.9000 55.8000
" />
<path d="M21.8000 55.5000
L23.6000 55.5000
" />
<path d="M21.8000 54.7500
L21.8000 55.5000
" />
<path d="M20.3000 55.5000
L20.3000 54.7500
" />
<path d="M20.3000 54.7500
L19.3000 54.7500
" />
<path d="M19.3000 55.5000
L20.3000 55.5000
" />
<path d="M19.3000 54.7500
L19.3000 55.5000
" />
<path d="M17.8000 55.5000
L17.8000 54.7500
" />
<path d="M17.8000 54.7500
L16.0000 54.7500
" />
<path d="M16.7500 53.2500
L16.7500 50.3000
" />
<path d="M16.7500 50.3000
L19.8000 50.3000
" />
<path d="M16.0000 55.5000
L17.8000 55.5000
" />
<path d="M16.0000 54.7500
L16.0000 55.5000
" />
<path d="M16.0000 53.2500
L16.7500 53.2500
" />
<path d="M15.9900 55.5100
L23.6100 55.5100
" />
<path d="M15.9900 49.5400
L15.9900 55.5100
" />
<path d="M6.6500 53.9600
L6.6500 55.7000
" />
<path d="M6.6500 55.7000
L8.1500 55.7000
" />
<path d="M6.8900 48.3400
L6.8900 55.4600
" />
<path d="M6.8900 48.3400
L14.7100 48.3400
" />
<path d="M6.8900 53.9000
L14.7100 53.9000
" />
<path d="M6.8900 55.4600
L14.7100 55.4600
" />
<path d="M14.7100 48.3400
L14.7100 55.4600
" />
<path d="M7.6180 51.1920 A1.5557 1.5557 0.0 0 0 7.6179 52.4077" />
<path d="M9.6580 50.3680 A1.5557 1.5557 0.0 0 0 8.4423 50.3679" />
<path d="M8.4420 53.2320 A1.5557 1.5557 0.0 0 0 9.0770 53.3555" />
<path d="M9.0500 53.3550 A1.5550 1.5550 0.0 0 0 9.6576 53.2314" />
<path d="M10.4820 52.4080 A1.5557 1.5557 0.0 0 0 10.4821 51.1923" />
<circle cx="12.5500" cy="51.8000" r="1.5550" /> 
<path d="M54.0400 36.4406
L54.0400 36.1594
" />
<path d="M55.0600 36.4406
L55.0600 36.1594
" />
<path d="M57.6464 33.6700
L57.9536 33.6700
" />
<path d="M57.6464 34.4300
L57.9536 34.4300
" />
<path d="M57.1778 12.4100
L56.9622 12.4100
" />
<path d="M57.1778 11.6900
L56.9622 11.6900
" />
<path d="M10.9078 47.6600
L10.6922 47.6600
" />
<path d="M10.9078 46.9400
L10.6922 46.9400
" />
<path d="M51.8387 28.6400
L53.2613 28.6400
" />
<path d="M51.8387 30.4600
L53.2613 30.4600
" />
<path d="M56.1750 50.3500
L56.1750 50.2500
" />
<path d="M56.1750 50.3500
L54.2250 50.3500
" />
<path d="M54.2250 48.0500
L55.7250 48.0500
" />
<path d="M56.9200 52.2036
L56.9200 51.8964
" />
<path d="M57.6800 52.2036
L57.6800 51.8964
" />
<path d="M53.0500 45.3900
L53.0500 53.9000
" />
<path d="M46.5500 45.3900
L53.0500 45.3900
" />
<path d="M46.5500 45.3900
L46.5500 53.9000
" />
<path d="M63.3964 34.4200
L63.7036 34.4200
" />
<path d="M63.3964 35.1800
L63.7036 35.1800
" />
<path d="M55.0387 9.4650
L55.5613 9.4650
" />
<path d="M55.0387 10.9350
L55.5613 10.9350
" />
<path d="M59.1722 40.1900
L59.3878 40.1900
" />
<path d="M59.1722 40.9100
L59.3878 40.9100
" />
<path d="M55.6700 33.7036
L55.6700 33.3964
" />
<path d="M56.4300 33.7036
L56.4300 33.3964
" />
<path d="M59.3100 39.2600
L58.9850 39.2600
" />
<path d="M56.0900 38.9350
L56.0900 39.2600
" />
<path d="M59.3100 38.9350
L59.3100 39.2600
" />
<path d="M56.0900 36.3650
L56.0900 36.0400
" />
<path d="M59.3100 36.3650
L59.3100 36.0400
" />
<path d="M56.0900 36.0400
L56.4150 36.0400
" />
<path d="M59.3100 36.0400
L58.9850 36.0400
" />
<path d="M55.0387 7.2650
L55.5613 7.2650
" />
<path d="M55.0387 8.7350
L55.5613 8.7350
" />
<path d="M61.2036 37.4300
L60.8964 37.4300
" />
<path d="M61.2036 36.6700
L60.8964 36.6700
" />
<path d="M51.8387 26.1400
L53.2613 26.1400
" />
<path d="M51.8387 27.9600
L53.2613 27.9600
" />
<path d="M52.3600 11.8000
L52.3600 10.0000
" />
<path d="M52.3600 11.8000
L52.3600 12.6000
" />
<path d="M49.2400 11.8000
L49.2400 11.0000
" />
<path d="M49.2400 11.8000
L49.2400 12.6000
" />
<path d="M63.5200 16.4536
L63.5200 16.1464
" />
<path d="M64.2800 16.4536
L64.2800 16.1464
" />
<path d="M29.6500 51.8450
L31.4500 51.8450
" />
<path d="M29.6500 54.7550
L31.4500 54.7550
" />
<path d="M48.9000 13.9000
L48.9000 12.6500
" />
<path d="M48.6100 13.6100
L48.6100 7.6400
" />
<path d="M48.6100 7.6400
L40.9900 7.6400
" />
<path d="M48.6000 13.6000
L48.6000 12.8500
" />
<path d="M48.6000 12.8500
L46.8000 12.8500
" />
<path d="M48.6000 11.3500
L47.8500 11.3500
" />
<path d="M47.8500 11.3500
L47.8500 8.4000
" />
<path d="M47.8500 8.4000
L44.8000 8.4000
" />
<path d="M47.6500 13.9000
L48.9000 13.9000
" />
<path d="M46.8000 13.6000
L48.6000 13.6000
" />
<path d="M46.8000 12.8500
L46.8000 13.6000
" />
<path d="M45.3000 13.6000
L45.3000 12.8500
" />
<path d="M45.3000 12.8500
L44.3000 12.8500
" />
<path d="M44.3000 13.6000
L45.3000 13.6000
" />
<path d="M44.3000 12.8500
L44.3000 13.6000
" />
<path d="M42.8000 13.6000
L42.8000 12.8500
" />
<path d="M42.8000 12.8500
L41.0000 12.8500
" />
<path d="M41.7500 11.3500
L41.7500 8.4000
" />
<path d="M41.7500 8.4000
L44.8000 8.4000
" />
<path d="M41.0000 13.6000
L42.8000 13.6000
" />
<path d="M41.0000 12.8500
L41.0000 13.6000
" />
<path d="M41.0000 11.3500
L41.7500 11.3500
" />
<path d="M40.9900 13.6100
L48.6100 13.6100
" />
<path d="M40.9900 7.6400
L40.9900 13.6100
" />
<path d="M59.0387 43.8150
L59.5613 43.8150
" />
<path d="M59.0387 45.2850
L59.5613 45.2850
" />
<path d="M51.6922 31.1900
L51.9078 31.1900
" />
<path d="M51.6922 31.9100
L51.9078 31.9100
" />
<path d="M54.9300 33.3964
L54.9300 33.7036
" />
<path d="M54.1700 33.3964
L54.1700 33.7036
" />
<path d="M59.0387 41.5650
L59.5613 41.5650
" />
<path d="M59.0387 43.0350
L59.5613 43.0350
" />
<path d="M64.7350 22.1150
L63.2650 22.1150
" />
<path d="M63.2650 22.1150
L63.2650 24.4000
" />
<path d="M64.7350 24.4000
L64.7350 22.1150
" />
<path d="M53.6722 14.4400
L53.8878 14.4400
" />
<path d="M53.6722 15.1600
L53.8878 15.1600
" />
<path d="M63.2650 20.2850
L64.7350 20.2850
" />
<path d="M64.7350 20.2850
L64.7350 18.0000
" />
<path d="M63.2650 18.0000
L63.2650 20.2850
" />
<path d="M47.8500 40.2600
L47.0000 40.2600
" />
<path d="M52.5500 40.2600
L51.7500 40.2600
" />
<path d="M46.3900 39.6500
L46.3900 33.9500
" />
<path d="M53.2100 33.9500
L53.2100 39.6000
" />
<path d="M47.0000 33.3400
L47.8500 33.3400
" />
<path d="M51.7500 33.3400
L52.6000 33.3400
" />
<path d="M46.3900 39.6500 A0.6100 0.6100 0.0 0 0 47.0000 40.2600" />
<path d="M52.5500 40.2600 A0.6600 0.6600 0.0 0 0 53.2100 39.6000" />
<path d="M47.0000 33.3400 A0.6100 0.6100 0.0 0 0 46.3900 33.9500" />
<path d="M53.2100 33.9500 A0.6100 0.6100 0.0 0 0 52.6000 33.3400" />
<path d="M64.6800 26.1464
L64.6800 26.4536
" />
<path d="M63.9200 26.1464
L63.9200 26.4536
" />
<path d="M57.6922 50.1900
L57.9078 50.1900
" />
<path d="M57.6922 50.9100
L57.9078 50.9100
" />
<path d="M19.6922 48.1900
L19.9078 48.1900
" />
<path d="M19.6922 48.9100
L19.9078 48.9100
" />
<path d="M60.2036 35.1800
L59.8964 35.1800
" />
<path d="M60.2036 34.4200
L59.8964 34.4200
" />
<g >
</g>
<g >
</g>
<g >
</g>
<g >
</g>
<g >
</g>
<g >
</g>
<g >
</g>
<g >
</g>
<g >
</g>
<g >
</g>
<g >
</g>
<g >
</g>
<g >
</g>
<g >
</g>
<g >
</g>
<g >
</g>
<g >
</g>
<g >
</g>
<g >
</g>
<g >
</g>
<g >
</g>
<g >
</g>
<g >
</g>
<g >
</g>
<g >
</g>
<g >
</g>
<g >
</g>
<g >
</g>
<g >
</g>
<g >
</g>
<g >
</g>
<g >
</g>
<g >
</g>
<g >
</g>
<g >
</g>
<g >
</g>
<g >
</g>
<g >
</g>
<g >
</g>
<g >
</g>
<g >
</g>
<g >
</g>
<g >
</g>
<g >
</g>
<g >
</g>
<g >
</g>
<g >
</g>
<g >
</g>
<g >
</g>
<g >
</g>
<g >
</g>
<g >
</g>
<g >
</g>
<g >
</g>
<g >
</g>
<g >
</g>
<g >
</g>
<g >
</g>
<g >
</g>
<g >
</g>
<g >
</g>
<g >
</g>
<g >
</g>
<g >
</g>
</g>
<g style="fill:#000000; fill-opacity:0.0; 
stroke:#000000; stroke-width:0.1200; stroke-opacity:1; 
stroke-linecap:round; stroke-linejoin:round;">
</g>
<g style="fill:#D0D2CD; fill-opacity:0.0; 
stroke:#D0D2CD; stroke-width:0.1200; stroke-opacity:1; 
stroke-linecap:round; stroke-linejoin:round;">
</g>
<g style="fill:#D0D2CD; fill-opacity:0.0; 
stroke:#D0D2CD; stroke-width:0.1000; stroke-opacity:1; 
stroke-linecap:round; stroke-linejoin:round;">
<path d="M0.0500 18.5500
L0.0500 53.0500
" />
<path d="M65.0500 3.0500 A3.0000 3.0000 0.0 0 0 62.0500 0.0500" />
<path d="M44.0500 37.0500
L44.0500 52.0500
" />
<path d="M0.0500 53.0500 A3.0000 3.0000 0.0 0 0 3.0500 56.0500" />
<path d="M34.7859 15.3116
L38.8000 15.3000
" />
<path d="M5.0500 16.3000
L5.0500 38.3000
" />
<path d="M3.0500 56.0500
L62.0500 56.0500
" />
<path d="M62.0500 56.0500 A3.0000 3.0000 0.0 0 0 65.0500 53.0500" />
<path d="M46.0500 37.0500 A1.0000 1.0000 0.0 0 0 44.0500 37.0500" />
<path d="M46.0500 37.0500
L46.0500 52.0500
" />
<path d="M5.0500 38.3000 A18.8033 18.8033 0.0 0 0 39.1033 27.3000" />
<path d="M3.0500 0.0500
L62.0500 0.0500
" />
<path d="M34.7859 15.3117 A18.8033 18.8033 0.0 0 0 5.0500 16.3000" />
<path d="M3.0500 0.0500 A3.0000 3.0000 0.0 0 0 0.0500 3.0500" />
<path d="M44.0500 52.0500 A1.0000 1.0000 0.0 0 0 46.0500 52.0500" />
<path d="M0.0500 3.0500
L0.0500 18.5500
" />
<path d="M39.8000 16.3000 A1.0000 1.0000 0.0 0 0 38.8000 15.3000" />
<path d="M39.8000 24.8000
L39.8000 16.3000
" />
<path d="M39.1033 27.3000
L39.8000 24.8000
" />
<path d="M65.0500 3.0500
L65.0500 53.0500
" />
<g >
</g>
<g >
</g>
<g >
</g>
<g >
</g>
<g >
</g>
<g >
</g>
<g >
</g>
<g >
</g>
<g >
</g>
<g >
</g>
<g >
</g>
<g >
</g>
<g >
</g>
<g >
</g>
<g >
</g>
<g >
</g>
<g >
</g>
<g >
</g>
<g >
</g>
<g >
</g>
<g >
</g>
<g >
</g>
<g >
</g>
<g >
</g>
<g >
</g>
<g >
</g>
<g >
</g>
<g >
</g>
<g >
</g>
<g >
</g>
<g >
</g>
<g >
</g>
<g >
</g>
<g >
</g>
<g >
</g>
<g >
</g>
<g >
</g>
<g >
</g>
<g >
</g>
<g >
</g>
<g >
</g>
<g >
</g>
<g >
</g>
<g >
</g>
<g >
</g>
<g >
</g>
<g >
</g>
<g >
</g>
<g >
</g>
<g >
</g>
<g >
</g>
<g >
</g>
<g >
</g>
<g >
</g>
<g >
</g>
<g >
</g>
<g >
</g>
<g >
</g>
<g >
</g>
<g >
</g>
<g >
</g>
<g >
</g>
<g >
</g>
<g >
</g>
</g> 
</svg>
