<?xml version="1.0" standalone="no"?>
 <!DOCTYPE svg PUBLIC "-//W3C//DTD SVG 1.1//EN" 
 "http://www.w3.org/Graphics/SVG/1.1/DTD/svg11.dtd"> 
<svg
  xmlns:svg="http://www.w3.org/2000/svg"
  xmlns="http://www.w3.org/2000/svg"
  xmlns:xlink="http://www.w3.org/1999/xlink"
  version="1.1"
  width="68.4784mm" height="56.0832mm" viewBox="0.0000 0.0000 68.4784 56.0832">
<title>SVG Image created as ElectriPi-F_Mask.svg date 2023/07/18 11:07:31 </title>
  <desc>Image generated by PCBNEW </desc>
<g style="fill:#000000; fill-opacity:1.0000;stroke:#000000; stroke-opacity:1.0000;
stroke-linecap:round; stroke-linejoin:round;"
 transform="translate(0 0) scale(1 1)">
</g>
<g style="fill:#000000; fill-opacity:0.0; 
stroke:#000000; stroke-width:0.0000; stroke-opacity:1; 
stroke-linecap:round; stroke-linejoin:round;">
<g >
</g>
<g style="fill:#D864FF; fill-opacity:0.0; 
stroke:#D864FF; stroke-width:0.0000; stroke-opacity:1; 
stroke-linecap:round; stroke-linejoin:round;">
</g>
<g style="fill:#D864FF; fill-opacity:0.0; 
stroke:#D864FF; stroke-width:0.0000; stroke-opacity:1; 
stroke-linecap:round; stroke-linejoin:round;">
</g>
<g style="fill:#D864FF; fill-opacity:0.4000; 
stroke:#D864FF; stroke-width:0.0000; stroke-opacity:1; 
stroke-linecap:round; stroke-linejoin:round;">
<path style="fill:#D864FF; fill-opacity:0.4000; 
stroke:#D864FF; stroke-width:0.0000; stroke-opacity:1; 
stroke-linecap:round; stroke-linejoin:round;fill-rule:evenodd;"
d="M 60.2500,12.5500
60.1543,12.5310
60.0732,12.4768
60.0190,12.3957
60.0000,12.3000
60.0000,11.1000
60.0190,11.0043
60.0732,10.9232
60.1543,10.8690
60.2500,10.8500
61.7500,10.8500
61.8457,10.8690
61.9268,10.9232
61.9810,11.0043
62.0000,11.1000
62.0000,12.3000
61.9810,12.3957
61.9268,12.4768
61.8457,12.5310
61.7500,12.5500
Z" /> 
</g>
<g style="fill:#D864FF; fill-opacity:0.4000; 
stroke:#D864FF; stroke-width:1.7000; stroke-opacity:1; 
stroke-linecap:round; stroke-linejoin:round;">
</g>
<g style="fill:#D864FF; fill-opacity:0.0; 
stroke:#D864FF; stroke-width:1.7000; stroke-opacity:1; 
stroke-linecap:round; stroke-linejoin:round;">
<path d="M60.8500 9.2000
L61.1500 9.2000
" />
</g>
<g >
</g>
<g style="fill:#D864FF; fill-opacity:0.0; 
stroke:#D864FF; stroke-width:1.7000; stroke-opacity:1; 
stroke-linecap:round; stroke-linejoin:round;">
</g>
<g style="fill:#D864FF; fill-opacity:0.0; 
stroke:#D864FF; stroke-width:0.0000; stroke-opacity:1; 
stroke-linecap:round; stroke-linejoin:round;">
</g>
<g style="fill:#D864FF; fill-opacity:0.4000; 
stroke:#D864FF; stroke-width:0.0000; stroke-opacity:1; 
stroke-linecap:round; stroke-linejoin:round;">
<path style="fill:#D864FF; fill-opacity:0.4000; 
stroke:#D864FF; stroke-width:0.0000; stroke-opacity:1; 
stroke-linecap:round; stroke-linejoin:round;fill-rule:evenodd;"
d="M 59.3650,33.8300
59.3133,33.8197
59.2695,33.7905
59.2403,33.7467
59.2300,33.6950
59.2300,33.4250
59.2403,33.3733
59.2695,33.3295
59.3133,33.3003
59.3650,33.2900
59.7350,33.2900
59.7867,33.3003
59.8305,33.3295
59.8597,33.3733
59.8700,33.4250
59.8700,33.6950
59.8597,33.7467
59.8305,33.7905
59.7867,33.8197
59.7350,33.8300
Z" /> 
<path style="fill:#D864FF; fill-opacity:0.4000; 
stroke:#D864FF; stroke-width:0.0000; stroke-opacity:1; 
stroke-linecap:round; stroke-linejoin:round;fill-rule:evenodd;"
d="M 59.3650,32.8100
59.3133,32.7997
59.2695,32.7705
59.2403,32.7267
59.2300,32.6750
59.2300,32.4050
59.2403,32.3533
59.2695,32.3095
59.3133,32.2803
59.3650,32.2700
59.7350,32.2700
59.7867,32.2803
59.8305,32.3095
59.8597,32.3533
59.8700,32.4050
59.8700,32.6750
59.8597,32.7267
59.8305,32.7705
59.7867,32.7997
59.7350,32.8100
Z" /> 
</g>
<g >
</g>
<g style="fill:#D864FF; fill-opacity:0.4000; 
stroke:#D864FF; stroke-width:0.0000; stroke-opacity:1; 
stroke-linecap:round; stroke-linejoin:round;">
<path style="fill:#D864FF; fill-opacity:0.4000; 
stroke:#D864FF; stroke-width:0.0000; stroke-opacity:1; 
stroke-linecap:round; stroke-linejoin:round;fill-rule:evenodd;"
d="M 57.2000,49.7250
57.1426,49.7136
57.0939,49.6811
57.0614,49.6324
57.0500,49.5750
57.0500,48.4000
57.0614,48.3426
57.0939,48.2939
57.1426,48.2614
57.2000,48.2500
57.5000,48.2500
57.5574,48.2614
57.6061,48.2939
57.6386,48.3426
57.6500,48.4000
57.6500,49.5750
57.6386,49.6324
57.6061,49.6811
57.5574,49.7136
57.5000,49.7250
Z" /> 
<path style="fill:#D864FF; fill-opacity:0.4000; 
stroke:#D864FF; stroke-width:0.0000; stroke-opacity:1; 
stroke-linecap:round; stroke-linejoin:round;fill-rule:evenodd;"
d="M 59.1000,49.7250
59.0426,49.7136
58.9939,49.6811
58.9614,49.6324
58.9500,49.5750
58.9500,48.4000
58.9614,48.3426
58.9939,48.2939
59.0426,48.2614
59.1000,48.2500
59.4000,48.2500
59.4574,48.2614
59.5061,48.2939
59.5386,48.3426
59.5500,48.4000
59.5500,49.5750
59.5386,49.6324
59.5061,49.6811
59.4574,49.7136
59.4000,49.7250
Z" /> 
<path style="fill:#D864FF; fill-opacity:0.4000; 
stroke:#D864FF; stroke-width:0.0000; stroke-opacity:1; 
stroke-linecap:round; stroke-linejoin:round;fill-rule:evenodd;"
d="M 58.1500,47.8500
58.0926,47.8386
58.0439,47.8061
58.0114,47.7574
58.0000,47.7000
58.0000,46.5250
58.0114,46.4676
58.0439,46.4189
58.0926,46.3864
58.1500,46.3750
58.4500,46.3750
58.5074,46.3864
58.5561,46.4189
58.5886,46.4676
58.6000,46.5250
58.6000,47.7000
58.5886,47.7574
58.5561,47.8061
58.5074,47.8386
58.4500,47.8500
Z" /> 
</g>
<g >
</g>
<g style="fill:#D864FF; fill-opacity:0.4000; 
stroke:#D864FF; stroke-width:0.0000; stroke-opacity:1; 
stroke-linecap:round; stroke-linejoin:round;">
<path style="fill:#D864FF; fill-opacity:0.4000; 
stroke:#D864FF; stroke-width:0.0000; stroke-opacity:1; 
stroke-linecap:round; stroke-linejoin:round;fill-rule:evenodd;"
d="M 51.9700,7.9600
52.0236,7.9707
52.0690,8.0010
52.0993,8.0464
52.1100,8.1000
52.1100,8.3800
52.0993,8.4336
52.0690,8.4790
52.0236,8.5093
51.9700,8.5200
51.6300,8.5200
51.5764,8.5093
51.5310,8.4790
51.5007,8.4336
51.4900,8.3800
51.4900,8.1000
51.5007,8.0464
51.5310,8.0010
51.5764,7.9707
51.6300,7.9600
Z" /> 
<path style="fill:#D864FF; fill-opacity:0.4000; 
stroke:#D864FF; stroke-width:0.0000; stroke-opacity:1; 
stroke-linecap:round; stroke-linejoin:round;fill-rule:evenodd;"
d="M 51.9700,8.9200
52.0236,8.9307
52.0690,8.9610
52.0993,9.0064
52.1100,9.0600
52.1100,9.3400
52.0993,9.3936
52.0690,9.4390
52.0236,9.4693
51.9700,9.4800
51.6300,9.4800
51.5764,9.4693
51.5310,9.4390
51.5007,9.3936
51.4900,9.3400
51.4900,9.0600
51.5007,9.0064
51.5310,8.9610
51.5764,8.9307
51.6300,8.9200
Z" /> 
</g>
<g >
</g>
<g style="fill:#D864FF; fill-opacity:0.4000; 
stroke:#D864FF; stroke-width:0.0000; stroke-opacity:1; 
stroke-linecap:round; stroke-linejoin:round;">
<path style="fill:#D864FF; fill-opacity:0.4000; 
stroke:#D864FF; stroke-width:0.0000; stroke-opacity:1; 
stroke-linecap:round; stroke-linejoin:round;fill-rule:evenodd;"
d="M 57.0600,40.7200
57.0493,40.7736
57.0190,40.8190
56.9736,40.8493
56.9200,40.8600
56.6400,40.8600
56.5864,40.8493
56.5410,40.8190
56.5107,40.7736
56.5000,40.7200
56.5000,40.3800
56.5107,40.3264
56.5410,40.2810
56.5864,40.2507
56.6400,40.2400
56.9200,40.2400
56.9736,40.2507
57.0190,40.2810
57.0493,40.3264
57.0600,40.3800
Z" /> 
<path style="fill:#D864FF; fill-opacity:0.4000; 
stroke:#D864FF; stroke-width:0.0000; stroke-opacity:1; 
stroke-linecap:round; stroke-linejoin:round;fill-rule:evenodd;"
d="M 56.1000,40.7200
56.0893,40.7736
56.0590,40.8190
56.0136,40.8493
55.9600,40.8600
55.6800,40.8600
55.6264,40.8493
55.5810,40.8190
55.5507,40.7736
55.5400,40.7200
55.5400,40.3800
55.5507,40.3264
55.5810,40.2810
55.6264,40.2507
55.6800,40.2400
55.9600,40.2400
56.0136,40.2507
56.0590,40.2810
56.0893,40.3264
56.1000,40.3800
Z" /> 
</g>
<g >
</g>
<g style="fill:#D864FF; fill-opacity:0.4000; 
stroke:#D864FF; stroke-width:0.0000; stroke-opacity:1; 
stroke-linecap:round; stroke-linejoin:round;">
<path style="fill:#D864FF; fill-opacity:0.4000; 
stroke:#D864FF; stroke-width:0.0000; stroke-opacity:1; 
stroke-linecap:round; stroke-linejoin:round;fill-rule:evenodd;"
d="M 54.4750,13.8000
54.4750,13.4500
54.1250,13.4500
54.1250,13.8000
53.8250,13.8000
53.8250,13.4500
53.8250,11.9500
53.8250,11.6000
54.1250,11.6000
54.1250,11.9500
54.4750,11.9500
54.4750,11.6000
54.7750,11.6000
54.7750,13.8000
Z" /> 
<path style="fill:#D864FF; fill-opacity:0.4000; 
stroke:#D864FF; stroke-width:0.0000; stroke-opacity:1; 
stroke-linecap:round; stroke-linejoin:round;fill-rule:evenodd;"
d="M 53.1750,11.6000
53.4750,11.6000
53.4750,11.9500
53.1750,11.9500
Z" /> 
<path style="fill:#D864FF; fill-opacity:0.4000; 
stroke:#D864FF; stroke-width:0.0000; stroke-opacity:1; 
stroke-linecap:round; stroke-linejoin:round;fill-rule:evenodd;"
d="M 53.2075,12.3050
53.4425,12.3050
53.4425,13.1750
53.2075,13.1750
Z" /> 
<path style="fill:#D864FF; fill-opacity:0.4000; 
stroke:#D864FF; stroke-width:0.0000; stroke-opacity:1; 
stroke-linecap:round; stroke-linejoin:round;fill-rule:evenodd;"
d="M 53.1750,13.4500
53.4750,13.4500
53.4750,13.8000
53.1750,13.8000
Z" /> 
</g>
<g >
</g>
<g style="fill:#D864FF; fill-opacity:0.4000; 
stroke:#D864FF; stroke-width:0.0000; stroke-opacity:1; 
stroke-linecap:round; stroke-linejoin:round;">
<path style="fill:#D864FF; fill-opacity:0.4000; 
stroke:#D864FF; stroke-width:0.0000; stroke-opacity:1; 
stroke-linecap:round; stroke-linejoin:round;fill-rule:evenodd;"
d="M 57.4850,31.5200
57.5367,31.5303
57.5805,31.5595
57.6097,31.6033
57.6200,31.6550
57.6200,31.9250
57.6097,31.9767
57.5805,32.0205
57.5367,32.0497
57.4850,32.0600
57.1150,32.0600
57.0633,32.0497
57.0195,32.0205
56.9903,31.9767
56.9800,31.9250
56.9800,31.6550
56.9903,31.6033
57.0195,31.5595
57.0633,31.5303
57.1150,31.5200
Z" /> 
<path style="fill:#D864FF; fill-opacity:0.4000; 
stroke:#D864FF; stroke-width:0.0000; stroke-opacity:1; 
stroke-linecap:round; stroke-linejoin:round;fill-rule:evenodd;"
d="M 57.4850,32.5400
57.5367,32.5503
57.5805,32.5795
57.6097,32.6233
57.6200,32.6750
57.6200,32.9450
57.6097,32.9967
57.5805,33.0405
57.5367,33.0697
57.4850,33.0800
57.1150,33.0800
57.0633,33.0697
57.0195,33.0405
56.9903,32.9967
56.9800,32.9450
56.9800,32.6750
56.9903,32.6233
57.0195,32.5795
57.0633,32.5503
57.1150,32.5400
Z" /> 
</g>
<g >
</g>
<g style="fill:#D864FF; fill-opacity:0.4000; 
stroke:#D864FF; stroke-width:0.0000; stroke-opacity:1; 
stroke-linecap:round; stroke-linejoin:round;">
<circle cx="3.5500" cy="3.5500" r="2.3500" /> 
</g>
<g style="fill:#D864FF; fill-opacity:0.4000; 
stroke:#D864FF; stroke-width:0.0212; stroke-opacity:1; 
stroke-linecap:round; stroke-linejoin:round;">
</g>
<g >
</g>
<g style="fill:#D864FF; fill-opacity:0.4000; 
stroke:#D864FF; stroke-width:0.0212; stroke-opacity:1; 
stroke-linecap:round; stroke-linejoin:round;">
</g>
<g style="fill:#D864FF; fill-opacity:0.4000; 
stroke:#D864FF; stroke-width:0.0000; stroke-opacity:1; 
stroke-linecap:round; stroke-linejoin:round;">
<path style="fill:#D864FF; fill-opacity:0.4000; 
stroke:#D864FF; stroke-width:0.0000; stroke-opacity:1; 
stroke-linecap:round; stroke-linejoin:round;fill-rule:evenodd;"
d="M 44.0400,14.6300
44.0507,14.5764
44.0810,14.5310
44.1264,14.5007
44.1800,14.4900
44.4600,14.4900
44.5136,14.5007
44.5590,14.5310
44.5893,14.5764
44.6000,14.6300
44.6000,14.9700
44.5893,15.0236
44.5590,15.0690
44.5136,15.0993
44.4600,15.1100
44.1800,15.1100
44.1264,15.0993
44.0810,15.0690
44.0507,15.0236
44.0400,14.9700
Z" /> 
<path style="fill:#D864FF; fill-opacity:0.4000; 
stroke:#D864FF; stroke-width:0.0000; stroke-opacity:1; 
stroke-linecap:round; stroke-linejoin:round;fill-rule:evenodd;"
d="M 45.0000,14.6300
45.0107,14.5764
45.0410,14.5310
45.0864,14.5007
45.1400,14.4900
45.4200,14.4900
45.4736,14.5007
45.5190,14.5310
45.5493,14.5764
45.5600,14.6300
45.5600,14.9700
45.5493,15.0236
45.5190,15.0690
45.4736,15.0993
45.4200,15.1100
45.1400,15.1100
45.0864,15.0993
45.0410,15.0690
45.0107,15.0236
45.0000,14.9700
Z" /> 
</g>
<g >
</g>
<g style="fill:#D864FF; fill-opacity:0.4000; 
stroke:#D864FF; stroke-width:0.0000; stroke-opacity:1; 
stroke-linecap:round; stroke-linejoin:round;">
<path style="fill:#D864FF; fill-opacity:0.4000; 
stroke:#D864FF; stroke-width:0.0000; stroke-opacity:1; 
stroke-linecap:round; stroke-linejoin:round;fill-rule:evenodd;"
d="M 53.9500,15.6100
53.9691,15.6138
53.9854,15.6246
53.9962,15.6409
54.0000,15.6600
54.0000,15.9400
53.9962,15.9591
53.9854,15.9754
53.9691,15.9862
53.9500,15.9900
53.7500,15.9900
53.7309,15.9862
53.7146,15.9754
53.7038,15.9591
53.7000,15.9400
53.7000,15.6600
53.7038,15.6409
53.7146,15.6246
53.7309,15.6138
53.7500,15.6100
Z" /> 
<path style="fill:#D864FF; fill-opacity:0.4000; 
stroke:#D864FF; stroke-width:0.0000; stroke-opacity:1; 
stroke-linecap:round; stroke-linejoin:round;fill-rule:evenodd;"
d="M 53.5500,15.6100
53.5691,15.6138
53.5854,15.6246
53.5962,15.6409
53.6000,15.6600
53.6000,15.9400
53.5962,15.9591
53.5854,15.9754
53.5691,15.9862
53.5500,15.9900
53.3500,15.9900
53.3309,15.9862
53.3146,15.9754
53.3038,15.9591
53.3000,15.9400
53.3000,15.6600
53.3038,15.6409
53.3146,15.6246
53.3309,15.6138
53.3500,15.6100
Z" /> 
</g>
<g >
</g>
<g style="fill:#D864FF; fill-opacity:0.4000; 
stroke:#D864FF; stroke-width:0.0000; stroke-opacity:1; 
stroke-linecap:round; stroke-linejoin:round;">
<path style="fill:#D864FF; fill-opacity:0.4000; 
stroke:#D864FF; stroke-width:0.0000; stroke-opacity:1; 
stroke-linecap:round; stroke-linejoin:round;fill-rule:evenodd;"
d="M 21.9000,53.8000
21.8810,53.8957
21.8268,53.9768
21.7457,54.0310
21.6500,54.0500
20.4500,54.0500
20.3543,54.0310
20.2732,53.9768
20.2190,53.8957
20.2000,53.8000
20.2000,52.3000
20.2190,52.2043
20.2732,52.1232
20.3543,52.0690
20.4500,52.0500
21.6500,52.0500
21.7457,52.0690
21.8268,52.1232
21.8810,52.2043
21.9000,52.3000
Z" /> 
</g>
<g style="fill:#D864FF; fill-opacity:0.4000; 
stroke:#D864FF; stroke-width:1.7000; stroke-opacity:1; 
stroke-linecap:round; stroke-linejoin:round;">
</g>
<g style="fill:#D864FF; fill-opacity:0.0; 
stroke:#D864FF; stroke-width:1.7000; stroke-opacity:1; 
stroke-linecap:round; stroke-linejoin:round;">
<path d="M18.5500 53.2000
L18.5500 52.9000
" />
</g>
<g >
</g>
<g style="fill:#D864FF; fill-opacity:0.0; 
stroke:#D864FF; stroke-width:1.7000; stroke-opacity:1; 
stroke-linecap:round; stroke-linejoin:round;">
</g>
<g style="fill:#D864FF; fill-opacity:0.0; 
stroke:#D864FF; stroke-width:0.0000; stroke-opacity:1; 
stroke-linecap:round; stroke-linejoin:round;">
</g>
<g style="fill:#D864FF; fill-opacity:0.4000; 
stroke:#D864FF; stroke-width:0.0000; stroke-opacity:1; 
stroke-linecap:round; stroke-linejoin:round;">
<path style="fill:#D864FF; fill-opacity:0.4000; 
stroke:#D864FF; stroke-width:0.0000; stroke-opacity:1; 
stroke-linecap:round; stroke-linejoin:round;fill-rule:evenodd;"
d="M 7.8500,53.0000
7.8500,50.6000
10.2500,50.6000
10.2500,53.0000
Z" /> 
<circle cx="12.5500" cy="51.8000" r="1.2000" /> 
</g>
<g style="fill:#D864FF; fill-opacity:0.4000; 
stroke:#D864FF; stroke-width:0.0212; stroke-opacity:1; 
stroke-linecap:round; stroke-linejoin:round;">
</g>
<g >
</g>
<g style="fill:#D864FF; fill-opacity:0.4000; 
stroke:#D864FF; stroke-width:0.0212; stroke-opacity:1; 
stroke-linecap:round; stroke-linejoin:round;">
</g>
<g style="fill:#D864FF; fill-opacity:0.4000; 
stroke:#D864FF; stroke-width:0.0000; stroke-opacity:1; 
stroke-linecap:round; stroke-linejoin:round;">
<path style="fill:#D864FF; fill-opacity:0.4000; 
stroke:#D864FF; stroke-width:0.0000; stroke-opacity:1; 
stroke-linecap:round; stroke-linejoin:round;fill-rule:evenodd;"
d="M 54.3000,37.5250
54.2139,37.5079
54.1409,37.4591
54.0921,37.3861
54.0750,37.3000
54.0750,36.8500
54.0921,36.7639
54.1409,36.6909
54.2139,36.6421
54.3000,36.6250
54.8000,36.6250
54.8861,36.6421
54.9591,36.6909
55.0079,36.7639
55.0250,36.8500
55.0250,37.3000
55.0079,37.3861
54.9591,37.4591
54.8861,37.5079
54.8000,37.5250
Z" /> 
<path style="fill:#D864FF; fill-opacity:0.4000; 
stroke:#D864FF; stroke-width:0.0000; stroke-opacity:1; 
stroke-linecap:round; stroke-linejoin:round;fill-rule:evenodd;"
d="M 54.3000,35.9750
54.2139,35.9579
54.1409,35.9091
54.0921,35.8361
54.0750,35.7500
54.0750,35.3000
54.0921,35.2139
54.1409,35.1409
54.2139,35.0921
54.3000,35.0750
54.8000,35.0750
54.8861,35.0921
54.9591,35.1409
55.0079,35.2139
55.0250,35.3000
55.0250,35.7500
55.0079,35.8361
54.9591,35.9091
54.8861,35.9579
54.8000,35.9750
Z" /> 
</g>
<g >
</g>
<g style="fill:#D864FF; fill-opacity:0.4000; 
stroke:#D864FF; stroke-width:0.0000; stroke-opacity:1; 
stroke-linecap:round; stroke-linejoin:round;">
<path style="fill:#D864FF; fill-opacity:0.4000; 
stroke:#D864FF; stroke-width:0.0000; stroke-opacity:1; 
stroke-linecap:round; stroke-linejoin:round;fill-rule:evenodd;"
d="M 57.0200,33.8650
57.0303,33.8133
57.0595,33.7695
57.1033,33.7403
57.1550,33.7300
57.4250,33.7300
57.4767,33.7403
57.5205,33.7695
57.5497,33.8133
57.5600,33.8650
57.5600,34.2350
57.5497,34.2867
57.5205,34.3305
57.4767,34.3597
57.4250,34.3700
57.1550,34.3700
57.1033,34.3597
57.0595,34.3305
57.0303,34.2867
57.0200,34.2350
Z" /> 
<path style="fill:#D864FF; fill-opacity:0.4000; 
stroke:#D864FF; stroke-width:0.0000; stroke-opacity:1; 
stroke-linecap:round; stroke-linejoin:round;fill-rule:evenodd;"
d="M 58.0400,33.8650
58.0503,33.8133
58.0795,33.7695
58.1233,33.7403
58.1750,33.7300
58.4450,33.7300
58.4967,33.7403
58.5405,33.7695
58.5697,33.8133
58.5800,33.8650
58.5800,34.2350
58.5697,34.2867
58.5405,34.3305
58.4967,34.3597
58.4450,34.3700
58.1750,34.3700
58.1233,34.3597
58.0795,34.3305
58.0503,34.2867
58.0400,34.2350
Z" /> 
</g>
<g >
</g>
<g style="fill:#D864FF; fill-opacity:0.4000; 
stroke:#D864FF; stroke-width:0.0000; stroke-opacity:1; 
stroke-linecap:round; stroke-linejoin:round;">
<path style="fill:#D864FF; fill-opacity:0.4000; 
stroke:#D864FF; stroke-width:0.0000; stroke-opacity:1; 
stroke-linecap:round; stroke-linejoin:round;fill-rule:evenodd;"
d="M 57.8300,12.2200
57.8193,12.2736
57.7890,12.3190
57.7436,12.3493
57.6900,12.3600
57.4100,12.3600
57.3564,12.3493
57.3110,12.3190
57.2807,12.2736
57.2700,12.2200
57.2700,11.8800
57.2807,11.8264
57.3110,11.7810
57.3564,11.7507
57.4100,11.7400
57.6900,11.7400
57.7436,11.7507
57.7890,11.7810
57.8193,11.8264
57.8300,11.8800
Z" /> 
<path style="fill:#D864FF; fill-opacity:0.4000; 
stroke:#D864FF; stroke-width:0.0000; stroke-opacity:1; 
stroke-linecap:round; stroke-linejoin:round;fill-rule:evenodd;"
d="M 56.8700,12.2200
56.8593,12.2736
56.8290,12.3190
56.7836,12.3493
56.7300,12.3600
56.4500,12.3600
56.3964,12.3493
56.3510,12.3190
56.3207,12.2736
56.3100,12.2200
56.3100,11.8800
56.3207,11.8264
56.3510,11.7810
56.3964,11.7507
56.4500,11.7400
56.7300,11.7400
56.7836,11.7507
56.8290,11.7810
56.8593,11.8264
56.8700,11.8800
Z" /> 
</g>
<g >
</g>
<g style="fill:#D864FF; fill-opacity:0.4000; 
stroke:#D864FF; stroke-width:0.0000; stroke-opacity:1; 
stroke-linecap:round; stroke-linejoin:round;">
<path style="fill:#D864FF; fill-opacity:0.4000; 
stroke:#D864FF; stroke-width:0.0000; stroke-opacity:1; 
stroke-linecap:round; stroke-linejoin:round;fill-rule:evenodd;"
d="M 11.5600,47.4700
11.5493,47.5236
11.5190,47.5690
11.4736,47.5993
11.4200,47.6100
11.1400,47.6100
11.0864,47.5993
11.0410,47.5690
11.0107,47.5236
11.0000,47.4700
11.0000,47.1300
11.0107,47.0764
11.0410,47.0310
11.0864,47.0007
11.1400,46.9900
11.4200,46.9900
11.4736,47.0007
11.5190,47.0310
11.5493,47.0764
11.5600,47.1300
Z" /> 
<path style="fill:#D864FF; fill-opacity:0.4000; 
stroke:#D864FF; stroke-width:0.0000; stroke-opacity:1; 
stroke-linecap:round; stroke-linejoin:round;fill-rule:evenodd;"
d="M 10.6000,47.4700
10.5893,47.5236
10.5590,47.5690
10.5136,47.5993
10.4600,47.6100
10.1800,47.6100
10.1264,47.5993
10.0810,47.5690
10.0507,47.5236
10.0400,47.4700
10.0400,47.1300
10.0507,47.0764
10.0810,47.0310
10.1264,47.0007
10.1800,46.9900
10.4600,46.9900
10.5136,47.0007
10.5590,47.0310
10.5893,47.0764
10.6000,47.1300
Z" /> 
</g>
<g >
</g>
<g style="fill:#D864FF; fill-opacity:0.4000; 
stroke:#D864FF; stroke-width:0.0000; stroke-opacity:1; 
stroke-linecap:round; stroke-linejoin:round;">
<path style="fill:#D864FF; fill-opacity:0.4000; 
stroke:#D864FF; stroke-width:0.0000; stroke-opacity:1; 
stroke-linecap:round; stroke-linejoin:round;fill-rule:evenodd;"
d="M 50.5000,28.9000
50.5190,28.8043
50.5732,28.7232
50.6543,28.6690
50.7500,28.6500
51.4000,28.6500
51.4957,28.6690
51.5768,28.7232
51.6310,28.8043
51.6500,28.9000
51.6500,30.2000
51.6310,30.2957
51.5768,30.3768
51.4957,30.4310
51.4000,30.4500
50.7500,30.4500
50.6543,30.4310
50.5732,30.3768
50.5190,30.2957
50.5000,30.2000
Z" /> 
<path style="fill:#D864FF; fill-opacity:0.4000; 
stroke:#D864FF; stroke-width:0.0000; stroke-opacity:1; 
stroke-linecap:round; stroke-linejoin:round;fill-rule:evenodd;"
d="M 53.4500,28.9000
53.4690,28.8043
53.5232,28.7232
53.6043,28.6690
53.7000,28.6500
54.3500,28.6500
54.4457,28.6690
54.5268,28.7232
54.5810,28.8043
54.6000,28.9000
54.6000,30.2000
54.5810,30.2957
54.5268,30.3768
54.4457,30.4310
54.3500,30.4500
53.7000,30.4500
53.6043,30.4310
53.5232,30.3768
53.4690,30.2957
53.4500,30.2000
Z" /> 
</g>
<g >
</g>
<g style="fill:#D864FF; fill-opacity:0.4000; 
stroke:#D864FF; stroke-width:0.0000; stroke-opacity:1; 
stroke-linecap:round; stroke-linejoin:round;">
<path style="fill:#D864FF; fill-opacity:0.4000; 
stroke:#D864FF; stroke-width:0.0000; stroke-opacity:1; 
stroke-linecap:round; stroke-linejoin:round;fill-rule:evenodd;"
d="M 53.8750,49.7000
54.2250,49.7000
54.2250,49.3500
53.8750,49.3500
53.8750,49.0500
54.2250,49.0500
55.7250,49.0500
56.0750,49.0500
56.0750,49.3500
55.7250,49.3500
55.7250,49.7000
56.0750,49.7000
56.0750,50.0000
53.8750,50.0000
Z" /> 
<path style="fill:#D864FF; fill-opacity:0.4000; 
stroke:#D864FF; stroke-width:0.0000; stroke-opacity:1; 
stroke-linecap:round; stroke-linejoin:round;fill-rule:evenodd;"
d="M 56.0750,48.4000
56.0750,48.7000
55.7250,48.7000
55.7250,48.4000
Z" /> 
<path style="fill:#D864FF; fill-opacity:0.4000; 
stroke:#D864FF; stroke-width:0.0000; stroke-opacity:1; 
stroke-linecap:round; stroke-linejoin:round;fill-rule:evenodd;"
d="M 55.3700,48.4325
55.3700,48.6675
54.5000,48.6675
54.5000,48.4325
Z" /> 
<path style="fill:#D864FF; fill-opacity:0.4000; 
stroke:#D864FF; stroke-width:0.0000; stroke-opacity:1; 
stroke-linecap:round; stroke-linejoin:round;fill-rule:evenodd;"
d="M 54.2250,48.4000
54.2250,48.7000
53.8750,48.7000
53.8750,48.4000
Z" /> 
</g>
<g >
</g>
<g style="fill:#D864FF; fill-opacity:0.4000; 
stroke:#D864FF; stroke-width:0.0000; stroke-opacity:1; 
stroke-linecap:round; stroke-linejoin:round;">
<path style="fill:#D864FF; fill-opacity:0.4000; 
stroke:#D864FF; stroke-width:0.0000; stroke-opacity:1; 
stroke-linecap:round; stroke-linejoin:round;fill-rule:evenodd;"
d="M 57.1150,52.8300
57.0633,52.8197
57.0195,52.7905
56.9903,52.7467
56.9800,52.6950
56.9800,52.4250
56.9903,52.3733
57.0195,52.3295
57.0633,52.3003
57.1150,52.2900
57.4850,52.2900
57.5367,52.3003
57.5805,52.3295
57.6097,52.3733
57.6200,52.4250
57.6200,52.6950
57.6097,52.7467
57.5805,52.7905
57.5367,52.8197
57.4850,52.8300
Z" /> 
<path style="fill:#D864FF; fill-opacity:0.4000; 
stroke:#D864FF; stroke-width:0.0000; stroke-opacity:1; 
stroke-linecap:round; stroke-linejoin:round;fill-rule:evenodd;"
d="M 57.1150,51.8100
57.0633,51.7997
57.0195,51.7705
56.9903,51.7267
56.9800,51.6750
56.9800,51.4050
56.9903,51.3533
57.0195,51.3095
57.0633,51.2803
57.1150,51.2700
57.4850,51.2700
57.5367,51.2803
57.5805,51.3095
57.6097,51.3533
57.6200,51.4050
57.6200,51.6750
57.6097,51.7267
57.5805,51.7705
57.5367,51.7997
57.4850,51.8100
Z" /> 
</g>
<g >
</g>
<g style="fill:#D864FF; fill-opacity:0.4000; 
stroke:#D864FF; stroke-width:0.0000; stroke-opacity:1; 
stroke-linecap:round; stroke-linejoin:round;">
<path style="fill:#D864FF; fill-opacity:0.4000; 
stroke:#D864FF; stroke-width:0.0000; stroke-opacity:1; 
stroke-linecap:round; stroke-linejoin:round;fill-rule:evenodd;"
d="M 48.1500,45.9000
48.1690,45.8043
48.2232,45.7232
48.3043,45.6690
48.4000,45.6500
51.2000,45.6500
51.2957,45.6690
51.3768,45.7232
51.4310,45.8043
51.4500,45.9000
51.4500,47.9000
51.4310,47.9957
51.3768,48.0768
51.2957,48.1310
51.2000,48.1500
48.4000,48.1500
48.3043,48.1310
48.2232,48.0768
48.1690,47.9957
48.1500,47.9000
Z" /> 
<path style="fill:#D864FF; fill-opacity:0.4000; 
stroke:#D864FF; stroke-width:0.0000; stroke-opacity:1; 
stroke-linecap:round; stroke-linejoin:round;fill-rule:evenodd;"
d="M 48.1500,52.7000
48.1690,52.6043
48.2232,52.5232
48.3043,52.4690
48.4000,52.4500
51.2000,52.4500
51.2957,52.4690
51.3768,52.5232
51.4310,52.6043
51.4500,52.7000
51.4500,54.7000
51.4310,54.7957
51.3768,54.8768
51.2957,54.9310
51.2000,54.9500
48.4000,54.9500
48.3043,54.9310
48.2232,54.8768
48.1690,54.7957
48.1500,54.7000
Z" /> 
</g>
<g >
</g>
<g style="fill:#D864FF; fill-opacity:0.4000; 
stroke:#D864FF; stroke-width:0.0000; stroke-opacity:1; 
stroke-linecap:round; stroke-linejoin:round;">
<path style="fill:#D864FF; fill-opacity:0.4000; 
stroke:#D864FF; stroke-width:0.0000; stroke-opacity:1; 
stroke-linecap:round; stroke-linejoin:round;fill-rule:evenodd;"
d="M 62.7700,34.6150
62.7803,34.5633
62.8095,34.5195
62.8533,34.4903
62.9050,34.4800
63.1750,34.4800
63.2267,34.4903
63.2705,34.5195
63.2997,34.5633
63.3100,34.6150
63.3100,34.9850
63.2997,35.0367
63.2705,35.0805
63.2267,35.1097
63.1750,35.1200
62.9050,35.1200
62.8533,35.1097
62.8095,35.0805
62.7803,35.0367
62.7700,34.9850
Z" /> 
<path style="fill:#D864FF; fill-opacity:0.4000; 
stroke:#D864FF; stroke-width:0.0000; stroke-opacity:1; 
stroke-linecap:round; stroke-linejoin:round;fill-rule:evenodd;"
d="M 63.7900,34.6150
63.8003,34.5633
63.8295,34.5195
63.8733,34.4903
63.9250,34.4800
64.1950,34.4800
64.2467,34.4903
64.2905,34.5195
64.3197,34.5633
64.3300,34.6150
64.3300,34.9850
64.3197,35.0367
64.2905,35.0805
64.2467,35.1097
64.1950,35.1200
63.9250,35.1200
63.8733,35.1097
63.8295,35.0805
63.8003,35.0367
63.7900,34.9850
Z" /> 
</g>
<g >
</g>
<g style="fill:#D864FF; fill-opacity:0.4000; 
stroke:#D864FF; stroke-width:0.0000; stroke-opacity:1; 
stroke-linecap:round; stroke-linejoin:round;">
<path style="fill:#D864FF; fill-opacity:0.4000; 
stroke:#D864FF; stroke-width:0.0000; stroke-opacity:1; 
stroke-linecap:round; stroke-linejoin:round;fill-rule:evenodd;"
d="M 53.8500,9.7250
53.8690,9.6293
53.9232,9.5482
54.0043,9.4940
54.1000,9.4750
54.6000,9.4750
54.6957,9.4940
54.7768,9.5482
54.8310,9.6293
54.8500,9.7250
54.8500,10.6750
54.8310,10.7707
54.7768,10.8518
54.6957,10.9060
54.6000,10.9250
54.1000,10.9250
54.0043,10.9060
53.9232,10.8518
53.8690,10.7707
53.8500,10.6750
Z" /> 
<path style="fill:#D864FF; fill-opacity:0.4000; 
stroke:#D864FF; stroke-width:0.0000; stroke-opacity:1; 
stroke-linecap:round; stroke-linejoin:round;fill-rule:evenodd;"
d="M 55.7500,9.7250
55.7690,9.6293
55.8232,9.5482
55.9043,9.4940
56.0000,9.4750
56.5000,9.4750
56.5957,9.4940
56.6768,9.5482
56.7310,9.6293
56.7500,9.7250
56.7500,10.6750
56.7310,10.7707
56.6768,10.8518
56.5957,10.9060
56.5000,10.9250
56.0000,10.9250
55.9043,10.9060
55.8232,10.8518
55.7690,10.7707
55.7500,10.6750
Z" /> 
</g>
<g >
</g>
<g style="fill:#D864FF; fill-opacity:0.4000; 
stroke:#D864FF; stroke-width:0.0000; stroke-opacity:1; 
stroke-linecap:round; stroke-linejoin:round;">
<path style="fill:#D864FF; fill-opacity:0.4000; 
stroke:#D864FF; stroke-width:0.0000; stroke-opacity:1; 
stroke-linecap:round; stroke-linejoin:round;fill-rule:evenodd;"
d="M 58.5200,40.3800
58.5307,40.3264
58.5610,40.2810
58.6064,40.2507
58.6600,40.2400
58.9400,40.2400
58.9936,40.2507
59.0390,40.2810
59.0693,40.3264
59.0800,40.3800
59.0800,40.7200
59.0693,40.7736
59.0390,40.8190
58.9936,40.8493
58.9400,40.8600
58.6600,40.8600
58.6064,40.8493
58.5610,40.8190
58.5307,40.7736
58.5200,40.7200
Z" /> 
<path style="fill:#D864FF; fill-opacity:0.4000; 
stroke:#D864FF; stroke-width:0.0000; stroke-opacity:1; 
stroke-linecap:round; stroke-linejoin:round;fill-rule:evenodd;"
d="M 59.4800,40.3800
59.4907,40.3264
59.5210,40.2810
59.5664,40.2507
59.6200,40.2400
59.9000,40.2400
59.9536,40.2507
59.9990,40.2810
60.0293,40.3264
60.0400,40.3800
60.0400,40.7200
60.0293,40.7736
59.9990,40.8190
59.9536,40.8493
59.9000,40.8600
59.6200,40.8600
59.5664,40.8493
59.5210,40.8190
59.4907,40.7736
59.4800,40.7200
Z" /> 
</g>
<g >
</g>
<g style="fill:#D864FF; fill-opacity:0.4000; 
stroke:#D864FF; stroke-width:0.0000; stroke-opacity:1; 
stroke-linecap:round; stroke-linejoin:round;">
<path style="fill:#D864FF; fill-opacity:0.4000; 
stroke:#D864FF; stroke-width:0.0000; stroke-opacity:1; 
stroke-linecap:round; stroke-linejoin:round;fill-rule:evenodd;"
d="M 55.8650,34.3300
55.8133,34.3197
55.7695,34.2905
55.7403,34.2467
55.7300,34.1950
55.7300,33.9250
55.7403,33.8733
55.7695,33.8295
55.8133,33.8003
55.8650,33.7900
56.2350,33.7900
56.2867,33.8003
56.3305,33.8295
56.3597,33.8733
56.3700,33.9250
56.3700,34.1950
56.3597,34.2467
56.3305,34.2905
56.2867,34.3197
56.2350,34.3300
Z" /> 
<path style="fill:#D864FF; fill-opacity:0.4000; 
stroke:#D864FF; stroke-width:0.0000; stroke-opacity:1; 
stroke-linecap:round; stroke-linejoin:round;fill-rule:evenodd;"
d="M 55.8650,33.3100
55.8133,33.2997
55.7695,33.2705
55.7403,33.2267
55.7300,33.1750
55.7300,32.9050
55.7403,32.8533
55.7695,32.8095
55.8133,32.7803
55.8650,32.7700
56.2350,32.7700
56.2867,32.7803
56.3305,32.8095
56.3597,32.8533
56.3700,32.9050
56.3700,33.1750
56.3597,33.2267
56.3305,33.2705
56.2867,33.2997
56.2350,33.3100
Z" /> 
</g>
<g >
</g>
<g style="fill:#D864FF; fill-opacity:0.4000; 
stroke:#D864FF; stroke-width:0.0000; stroke-opacity:1; 
stroke-linecap:round; stroke-linejoin:round;">
<path style="fill:#D864FF; fill-opacity:0.4000; 
stroke:#D864FF; stroke-width:0.0000; stroke-opacity:1; 
stroke-linecap:round; stroke-linejoin:round;fill-rule:evenodd;"
d="M 56.6896,38.8104
56.8104,38.6896
56.8457,38.6750
56.8750,38.6750
56.9104,38.6896
56.9250,38.7250
56.9250,39.4750
56.9104,39.5104
56.8750,39.5250
56.7250,39.5250
56.6896,39.5104
56.6750,39.4750
56.6750,38.8457
Z" /> 
<path style="fill:#D864FF; fill-opacity:0.4000; 
stroke:#D864FF; stroke-width:0.0000; stroke-opacity:1; 
stroke-linecap:round; stroke-linejoin:round;fill-rule:evenodd;"
d="M 57.1875,39.5250
57.1636,39.5202
57.1433,39.5067
57.1298,39.4864
57.1250,39.4625
57.1250,38.7375
57.1298,38.7136
57.1433,38.6933
57.1636,38.6798
57.1875,38.6750
57.3125,38.6750
57.3364,38.6798
57.3567,38.6933
57.3702,38.7136
57.3750,38.7375
57.3750,39.4625
57.3702,39.4864
57.3567,39.5067
57.3364,39.5202
57.3125,39.5250
Z" /> 
<path style="fill:#D864FF; fill-opacity:0.4000; 
stroke:#D864FF; stroke-width:0.0000; stroke-opacity:1; 
stroke-linecap:round; stroke-linejoin:round;fill-rule:evenodd;"
d="M 57.6375,39.5250
57.6136,39.5202
57.5933,39.5067
57.5798,39.4864
57.5750,39.4625
57.5750,38.7375
57.5798,38.7136
57.5933,38.6933
57.6136,38.6798
57.6375,38.6750
57.7625,38.6750
57.7864,38.6798
57.8067,38.6933
57.8202,38.7136
57.8250,38.7375
57.8250,39.4625
57.8202,39.4864
57.8067,39.5067
57.7864,39.5202
57.7625,39.5250
Z" /> 
<path style="fill:#D864FF; fill-opacity:0.4000; 
stroke:#D864FF; stroke-width:0.0000; stroke-opacity:1; 
stroke-linecap:round; stroke-linejoin:round;fill-rule:evenodd;"
d="M 58.0875,39.5250
58.0636,39.5202
58.0433,39.5067
58.0298,39.4864
58.0250,39.4625
58.0250,38.7375
58.0298,38.7136
58.0433,38.6933
58.0636,38.6798
58.0875,38.6750
58.2125,38.6750
58.2364,38.6798
58.2567,38.6933
58.2702,38.7136
58.2750,38.7375
58.2750,39.4625
58.2702,39.4864
58.2567,39.5067
58.2364,39.5202
58.2125,39.5250
Z" /> 
<path style="fill:#D864FF; fill-opacity:0.4000; 
stroke:#D864FF; stroke-width:0.0000; stroke-opacity:1; 
stroke-linecap:round; stroke-linejoin:round;fill-rule:evenodd;"
d="M 58.4896,38.6896
58.5250,38.6750
58.5543,38.6750
58.5896,38.6896
58.7104,38.8104
58.7250,38.8457
58.7250,39.4750
58.7104,39.5104
58.6750,39.5250
58.5250,39.5250
58.4896,39.5104
58.4750,39.4750
58.4750,38.7250
Z" /> 
<path style="fill:#D864FF; fill-opacity:0.4000; 
stroke:#D864FF; stroke-width:0.0000; stroke-opacity:1; 
stroke-linecap:round; stroke-linejoin:round;fill-rule:evenodd;"
d="M 58.7396,38.4396
58.7750,38.4250
59.5250,38.4250
59.5604,38.4396
59.5750,38.4750
59.5750,38.6250
59.5604,38.6604
59.5250,38.6750
58.8957,38.6750
58.8604,38.6604
58.7396,38.5396
58.7250,38.5043
58.7250,38.4750
Z" /> 
<path style="fill:#D864FF; fill-opacity:0.4000; 
stroke:#D864FF; stroke-width:0.0000; stroke-opacity:1; 
stroke-linecap:round; stroke-linejoin:round;fill-rule:evenodd;"
d="M 58.7875,38.2250
58.7636,38.2202
58.7433,38.2067
58.7298,38.1864
58.7250,38.1625
58.7250,38.0375
58.7298,38.0136
58.7433,37.9933
58.7636,37.9798
58.7875,37.9750
59.5125,37.9750
59.5364,37.9798
59.5567,37.9933
59.5702,38.0136
59.5750,38.0375
59.5750,38.1625
59.5702,38.1864
59.5567,38.2067
59.5364,38.2202
59.5125,38.2250
Z" /> 
<path style="fill:#D864FF; fill-opacity:0.4000; 
stroke:#D864FF; stroke-width:0.0000; stroke-opacity:1; 
stroke-linecap:round; stroke-linejoin:round;fill-rule:evenodd;"
d="M 58.7875,37.7750
58.7636,37.7702
58.7433,37.7567
58.7298,37.7364
58.7250,37.7125
58.7250,37.5875
58.7298,37.5636
58.7433,37.5433
58.7636,37.5298
58.7875,37.5250
59.5125,37.5250
59.5364,37.5298
59.5567,37.5433
59.5702,37.5636
59.5750,37.5875
59.5750,37.7125
59.5702,37.7364
59.5567,37.7567
59.5364,37.7702
59.5125,37.7750
Z" /> 
<path style="fill:#D864FF; fill-opacity:0.4000; 
stroke:#D864FF; stroke-width:0.0000; stroke-opacity:1; 
stroke-linecap:round; stroke-linejoin:round;fill-rule:evenodd;"
d="M 58.7875,37.3250
58.7636,37.3202
58.7433,37.3067
58.7298,37.2864
58.7250,37.2625
58.7250,37.1375
58.7298,37.1136
58.7433,37.0933
58.7636,37.0798
58.7875,37.0750
59.5125,37.0750
59.5364,37.0798
59.5567,37.0933
59.5702,37.1136
59.5750,37.1375
59.5750,37.2625
59.5702,37.2864
59.5567,37.3067
59.5364,37.3202
59.5125,37.3250
Z" /> 
<path style="fill:#D864FF; fill-opacity:0.4000; 
stroke:#D864FF; stroke-width:0.0000; stroke-opacity:1; 
stroke-linecap:round; stroke-linejoin:round;fill-rule:evenodd;"
d="M 58.7396,36.7604
58.8604,36.6396
58.8957,36.6250
59.5250,36.6250
59.5604,36.6396
59.5750,36.6750
59.5750,36.8250
59.5604,36.8604
59.5250,36.8750
58.7750,36.8750
58.7396,36.8604
58.7250,36.8250
58.7250,36.7957
Z" /> 
<path style="fill:#D864FF; fill-opacity:0.4000; 
stroke:#D864FF; stroke-width:0.0000; stroke-opacity:1; 
stroke-linecap:round; stroke-linejoin:round;fill-rule:evenodd;"
d="M 58.4896,35.7896
58.5250,35.7750
58.6750,35.7750
58.7104,35.7896
58.7250,35.8250
58.7250,36.4543
58.7104,36.4896
58.5896,36.6104
58.5543,36.6250
58.5250,36.6250
58.4896,36.6104
58.4750,36.5750
58.4750,35.8250
Z" /> 
<path style="fill:#D864FF; fill-opacity:0.4000; 
stroke:#D864FF; stroke-width:0.0000; stroke-opacity:1; 
stroke-linecap:round; stroke-linejoin:round;fill-rule:evenodd;"
d="M 58.0875,36.6250
58.0636,36.6202
58.0433,36.6067
58.0298,36.5864
58.0250,36.5625
58.0250,35.8375
58.0298,35.8136
58.0433,35.7933
58.0636,35.7798
58.0875,35.7750
58.2125,35.7750
58.2364,35.7798
58.2567,35.7933
58.2702,35.8136
58.2750,35.8375
58.2750,36.5625
58.2702,36.5864
58.2567,36.6067
58.2364,36.6202
58.2125,36.6250
Z" /> 
<path style="fill:#D864FF; fill-opacity:0.4000; 
stroke:#D864FF; stroke-width:0.0000; stroke-opacity:1; 
stroke-linecap:round; stroke-linejoin:round;fill-rule:evenodd;"
d="M 57.6375,36.6250
57.6136,36.6202
57.5933,36.6067
57.5798,36.5864
57.5750,36.5625
57.5750,35.8375
57.5798,35.8136
57.5933,35.7933
57.6136,35.7798
57.6375,35.7750
57.7625,35.7750
57.7864,35.7798
57.8067,35.7933
57.8202,35.8136
57.8250,35.8375
57.8250,36.5625
57.8202,36.5864
57.8067,36.6067
57.7864,36.6202
57.7625,36.6250
Z" /> 
<path style="fill:#D864FF; fill-opacity:0.4000; 
stroke:#D864FF; stroke-width:0.0000; stroke-opacity:1; 
stroke-linecap:round; stroke-linejoin:round;fill-rule:evenodd;"
d="M 57.1875,36.6250
57.1636,36.6202
57.1433,36.6067
57.1298,36.5864
57.1250,36.5625
57.1250,35.8375
57.1298,35.8136
57.1433,35.7933
57.1636,35.7798
57.1875,35.7750
57.3125,35.7750
57.3364,35.7798
57.3567,35.7933
57.3702,35.8136
57.3750,35.8375
57.3750,36.5625
57.3702,36.5864
57.3567,36.6067
57.3364,36.6202
57.3125,36.6250
Z" /> 
<path style="fill:#D864FF; fill-opacity:0.4000; 
stroke:#D864FF; stroke-width:0.0000; stroke-opacity:1; 
stroke-linecap:round; stroke-linejoin:round;fill-rule:evenodd;"
d="M 56.6896,35.7896
56.7250,35.7750
56.8750,35.7750
56.9104,35.7896
56.9250,35.8250
56.9250,36.5750
56.9104,36.6104
56.8750,36.6250
56.8457,36.6250
56.8104,36.6104
56.6896,36.4896
56.6750,36.4543
56.6750,35.8250
Z" /> 
<path style="fill:#D864FF; fill-opacity:0.4000; 
stroke:#D864FF; stroke-width:0.0000; stroke-opacity:1; 
stroke-linecap:round; stroke-linejoin:round;fill-rule:evenodd;"
d="M 55.8396,36.6396
55.8750,36.6250
56.5043,36.6250
56.5396,36.6396
56.6604,36.7604
56.6750,36.7957
56.6750,36.8250
56.6604,36.8604
56.6250,36.8750
55.8750,36.8750
55.8396,36.8604
55.8250,36.8250
55.8250,36.6750
Z" /> 
<path style="fill:#D864FF; fill-opacity:0.4000; 
stroke:#D864FF; stroke-width:0.0000; stroke-opacity:1; 
stroke-linecap:round; stroke-linejoin:round;fill-rule:evenodd;"
d="M 55.8875,37.3250
55.8636,37.3202
55.8433,37.3067
55.8298,37.2864
55.8250,37.2625
55.8250,37.1375
55.8298,37.1136
55.8433,37.0933
55.8636,37.0798
55.8875,37.0750
56.6125,37.0750
56.6364,37.0798
56.6567,37.0933
56.6702,37.1136
56.6750,37.1375
56.6750,37.2625
56.6702,37.2864
56.6567,37.3067
56.6364,37.3202
56.6125,37.3250
Z" /> 
<path style="fill:#D864FF; fill-opacity:0.4000; 
stroke:#D864FF; stroke-width:0.0000; stroke-opacity:1; 
stroke-linecap:round; stroke-linejoin:round;fill-rule:evenodd;"
d="M 55.8875,37.7750
55.8636,37.7702
55.8433,37.7567
55.8298,37.7364
55.8250,37.7125
55.8250,37.5875
55.8298,37.5636
55.8433,37.5433
55.8636,37.5298
55.8875,37.5250
56.6125,37.5250
56.6364,37.5298
56.6567,37.5433
56.6702,37.5636
56.6750,37.5875
56.6750,37.7125
56.6702,37.7364
56.6567,37.7567
56.6364,37.7702
56.6125,37.7750
Z" /> 
<path style="fill:#D864FF; fill-opacity:0.4000; 
stroke:#D864FF; stroke-width:0.0000; stroke-opacity:1; 
stroke-linecap:round; stroke-linejoin:round;fill-rule:evenodd;"
d="M 55.8875,38.2250
55.8636,38.2202
55.8433,38.2067
55.8298,38.1864
55.8250,38.1625
55.8250,38.0375
55.8298,38.0136
55.8433,37.9933
55.8636,37.9798
55.8875,37.9750
56.6125,37.9750
56.6364,37.9798
56.6567,37.9933
56.6702,38.0136
56.6750,38.0375
56.6750,38.1625
56.6702,38.1864
56.6567,38.2067
56.6364,38.2202
56.6125,38.2250
Z" /> 
<path style="fill:#D864FF; fill-opacity:0.4000; 
stroke:#D864FF; stroke-width:0.0000; stroke-opacity:1; 
stroke-linecap:round; stroke-linejoin:round;fill-rule:evenodd;"
d="M 55.8396,38.4396
55.8750,38.4250
56.6250,38.4250
56.6604,38.4396
56.6750,38.4750
56.6750,38.5043
56.6604,38.5396
56.5396,38.6604
56.5043,38.6750
55.8750,38.6750
55.8396,38.6604
55.8250,38.6250
55.8250,38.4750
Z" /> 
<path style="fill:#D864FF; fill-opacity:0.4000; 
stroke:#D864FF; stroke-width:0.0000; stroke-opacity:1; 
stroke-linecap:round; stroke-linejoin:round;fill-rule:evenodd;"
d="M 58.5000,38.4500
56.9000,38.4500
56.9000,36.8500
58.5000,36.8500
Z" /> 
</g>
<g >
</g>
<g style="fill:#D864FF; fill-opacity:0.4000; 
stroke:#D864FF; stroke-width:0.0000; stroke-opacity:1; 
stroke-linecap:round; stroke-linejoin:round;">
<path style="fill:#D864FF; fill-opacity:0.4000; 
stroke:#D864FF; stroke-width:0.0000; stroke-opacity:1; 
stroke-linecap:round; stroke-linejoin:round;fill-rule:evenodd;"
d="M 53.8500,7.5250
53.8690,7.4293
53.9232,7.3482
54.0043,7.2940
54.1000,7.2750
54.6000,7.2750
54.6957,7.2940
54.7768,7.3482
54.8310,7.4293
54.8500,7.5250
54.8500,8.4750
54.8310,8.5707
54.7768,8.6518
54.6957,8.7060
54.6000,8.7250
54.1000,8.7250
54.0043,8.7060
53.9232,8.6518
53.8690,8.5707
53.8500,8.4750
Z" /> 
<path style="fill:#D864FF; fill-opacity:0.4000; 
stroke:#D864FF; stroke-width:0.0000; stroke-opacity:1; 
stroke-linecap:round; stroke-linejoin:round;fill-rule:evenodd;"
d="M 55.7500,7.5250
55.7690,7.4293
55.8232,7.3482
55.9043,7.2940
56.0000,7.2750
56.5000,7.2750
56.5957,7.2940
56.6768,7.3482
56.7310,7.4293
56.7500,7.5250
56.7500,8.4750
56.7310,8.5707
56.6768,8.6518
56.5957,8.7060
56.5000,8.7250
56.0000,8.7250
55.9043,8.7060
55.8232,8.6518
55.7690,8.5707
55.7500,8.4750
Z" /> 
</g>
<g >
</g>
<g style="fill:#D864FF; fill-opacity:0.4000; 
stroke:#D864FF; stroke-width:0.0000; stroke-opacity:1; 
stroke-linecap:round; stroke-linejoin:round;">
<path style="fill:#D864FF; fill-opacity:0.4000; 
stroke:#D864FF; stroke-width:0.0000; stroke-opacity:1; 
stroke-linecap:round; stroke-linejoin:round;fill-rule:evenodd;"
d="M 61.8300,37.2350
61.8197,37.2867
61.7905,37.3305
61.7467,37.3597
61.6950,37.3700
61.4250,37.3700
61.3733,37.3597
61.3295,37.3305
61.3003,37.2867
61.2900,37.2350
61.2900,36.8650
61.3003,36.8133
61.3295,36.7695
61.3733,36.7403
61.4250,36.7300
61.6950,36.7300
61.7467,36.7403
61.7905,36.7695
61.8197,36.8133
61.8300,36.8650
Z" /> 
<path style="fill:#D864FF; fill-opacity:0.4000; 
stroke:#D864FF; stroke-width:0.0000; stroke-opacity:1; 
stroke-linecap:round; stroke-linejoin:round;fill-rule:evenodd;"
d="M 60.8100,37.2350
60.7997,37.2867
60.7705,37.3305
60.7267,37.3597
60.6750,37.3700
60.4050,37.3700
60.3533,37.3597
60.3095,37.3305
60.2803,37.2867
60.2700,37.2350
60.2700,36.8650
60.2803,36.8133
60.3095,36.7695
60.3533,36.7403
60.4050,36.7300
60.6750,36.7300
60.7267,36.7403
60.7705,36.7695
60.7997,36.8133
60.8100,36.8650
Z" /> 
</g>
<g >
</g>
<g style="fill:#D864FF; fill-opacity:0.4000; 
stroke:#D864FF; stroke-width:0.0000; stroke-opacity:1; 
stroke-linecap:round; stroke-linejoin:round;">
<path style="fill:#D864FF; fill-opacity:0.4000; 
stroke:#D864FF; stroke-width:0.0000; stroke-opacity:1; 
stroke-linecap:round; stroke-linejoin:round;fill-rule:evenodd;"
d="M 50.5000,26.4000
50.5190,26.3043
50.5732,26.2232
50.6543,26.1690
50.7500,26.1500
51.4000,26.1500
51.4957,26.1690
51.5768,26.2232
51.6310,26.3043
51.6500,26.4000
51.6500,27.7000
51.6310,27.7957
51.5768,27.8768
51.4957,27.9310
51.4000,27.9500
50.7500,27.9500
50.6543,27.9310
50.5732,27.8768
50.5190,27.7957
50.5000,27.7000
Z" /> 
<path style="fill:#D864FF; fill-opacity:0.4000; 
stroke:#D864FF; stroke-width:0.0000; stroke-opacity:1; 
stroke-linecap:round; stroke-linejoin:round;fill-rule:evenodd;"
d="M 53.4500,26.4000
53.4690,26.3043
53.5232,26.2232
53.6043,26.1690
53.7000,26.1500
54.3500,26.1500
54.4457,26.1690
54.5268,26.2232
54.5810,26.3043
54.6000,26.4000
54.6000,27.7000
54.5810,27.7957
54.5268,27.8768
54.4457,27.9310
54.3500,27.9500
53.7000,27.9500
53.6043,27.9310
53.5232,27.8768
53.4690,27.7957
53.4500,27.7000
Z" /> 
</g>
<g >
</g>
<g style="fill:#D864FF; fill-opacity:0.4000; 
stroke:#D864FF; stroke-width:0.0000; stroke-opacity:1; 
stroke-linecap:round; stroke-linejoin:round;">
<path style="fill:#D864FF; fill-opacity:0.4000; 
stroke:#D864FF; stroke-width:0.0000; stroke-opacity:1; 
stroke-linecap:round; stroke-linejoin:round;fill-rule:evenodd;"
d="M 51.9000,10.0000
51.9574,10.0114
52.0061,10.0439
52.0386,10.0926
52.0500,10.1500
52.0500,11.1750
52.0386,11.2324
52.0061,11.2811
51.9574,11.3136
51.9000,11.3250
51.6000,11.3250
51.5426,11.3136
51.4939,11.2811
51.4614,11.2324
51.4500,11.1750
51.4500,10.1500
51.4614,10.0926
51.4939,10.0439
51.5426,10.0114
51.6000,10.0000
Z" /> 
<path style="fill:#D864FF; fill-opacity:0.4000; 
stroke:#D864FF; stroke-width:0.0000; stroke-opacity:1; 
stroke-linecap:round; stroke-linejoin:round;fill-rule:evenodd;"
d="M 50.9500,10.0000
51.0074,10.0114
51.0561,10.0439
51.0886,10.0926
51.1000,10.1500
51.1000,11.1750
51.0886,11.2324
51.0561,11.2811
51.0074,11.3136
50.9500,11.3250
50.6500,11.3250
50.5926,11.3136
50.5439,11.2811
50.5114,11.2324
50.5000,11.1750
50.5000,10.1500
50.5114,10.0926
50.5439,10.0439
50.5926,10.0114
50.6500,10.0000
Z" /> 
<path style="fill:#D864FF; fill-opacity:0.4000; 
stroke:#D864FF; stroke-width:0.0000; stroke-opacity:1; 
stroke-linecap:round; stroke-linejoin:round;fill-rule:evenodd;"
d="M 50.0000,10.0000
50.0574,10.0114
50.1061,10.0439
50.1386,10.0926
50.1500,10.1500
50.1500,11.1750
50.1386,11.2324
50.1061,11.2811
50.0574,11.3136
50.0000,11.3250
49.7000,11.3250
49.6426,11.3136
49.5939,11.2811
49.5614,11.2324
49.5500,11.1750
49.5500,10.1500
49.5614,10.0926
49.5939,10.0439
49.6426,10.0114
49.7000,10.0000
Z" /> 
<path style="fill:#D864FF; fill-opacity:0.4000; 
stroke:#D864FF; stroke-width:0.0000; stroke-opacity:1; 
stroke-linecap:round; stroke-linejoin:round;fill-rule:evenodd;"
d="M 50.0000,12.2750
50.0574,12.2864
50.1061,12.3189
50.1386,12.3676
50.1500,12.4250
50.1500,13.4500
50.1386,13.5074
50.1061,13.5561
50.0574,13.5886
50.0000,13.6000
49.7000,13.6000
49.6426,13.5886
49.5939,13.5561
49.5614,13.5074
49.5500,13.4500
49.5500,12.4250
49.5614,12.3676
49.5939,12.3189
49.6426,12.2864
49.7000,12.2750
Z" /> 
<path style="fill:#D864FF; fill-opacity:0.4000; 
stroke:#D864FF; stroke-width:0.0000; stroke-opacity:1; 
stroke-linecap:round; stroke-linejoin:round;fill-rule:evenodd;"
d="M 50.9500,12.2750
51.0074,12.2864
51.0561,12.3189
51.0886,12.3676
51.1000,12.4250
51.1000,13.4500
51.0886,13.5074
51.0561,13.5561
51.0074,13.5886
50.9500,13.6000
50.6500,13.6000
50.5926,13.5886
50.5439,13.5561
50.5114,13.5074
50.5000,13.4500
50.5000,12.4250
50.5114,12.3676
50.5439,12.3189
50.5926,12.2864
50.6500,12.2750
Z" /> 
<path style="fill:#D864FF; fill-opacity:0.4000; 
stroke:#D864FF; stroke-width:0.0000; stroke-opacity:1; 
stroke-linecap:round; stroke-linejoin:round;fill-rule:evenodd;"
d="M 51.9000,12.2750
51.9574,12.2864
52.0061,12.3189
52.0386,12.3676
52.0500,12.4250
52.0500,13.4500
52.0386,13.5074
52.0061,13.5561
51.9574,13.5886
51.9000,13.6000
51.6000,13.6000
51.5426,13.5886
51.4939,13.5561
51.4614,13.5074
51.4500,13.4500
51.4500,12.4250
51.4614,12.3676
51.4939,12.3189
51.5426,12.2864
51.6000,12.2750
Z" /> 
</g>
<g >
</g>
<g style="fill:#D864FF; fill-opacity:0.4000; 
stroke:#D864FF; stroke-width:0.0000; stroke-opacity:1; 
stroke-linecap:round; stroke-linejoin:round;">
<circle cx="4.3000" cy="43.3000" r="3.5000" /> 
</g>
<g style="fill:#D864FF; fill-opacity:0.4000; 
stroke:#D864FF; stroke-width:0.0212; stroke-opacity:1; 
stroke-linecap:round; stroke-linejoin:round;">
</g>
<g >
</g>
<g style="fill:#D864FF; fill-opacity:0.4000; 
stroke:#D864FF; stroke-width:0.0212; stroke-opacity:1; 
stroke-linecap:round; stroke-linejoin:round;">
</g>
<g style="fill:#D864FF; fill-opacity:0.4000; 
stroke:#D864FF; stroke-width:0.0000; stroke-opacity:1; 
stroke-linecap:round; stroke-linejoin:round;">
<path style="fill:#D864FF; fill-opacity:0.4000; 
stroke:#D864FF; stroke-width:0.0000; stroke-opacity:1; 
stroke-linecap:round; stroke-linejoin:round;fill-rule:evenodd;"
d="M 63.7150,17.0800
63.6633,17.0697
63.6195,17.0405
63.5903,16.9967
63.5800,16.9450
63.5800,16.6750
63.5903,16.6233
63.6195,16.5795
63.6633,16.5503
63.7150,16.5400
64.0850,16.5400
64.1367,16.5503
64.1805,16.5795
64.2097,16.6233
64.2200,16.6750
64.2200,16.9450
64.2097,16.9967
64.1805,17.0405
64.1367,17.0697
64.0850,17.0800
Z" /> 
<path style="fill:#D864FF; fill-opacity:0.4000; 
stroke:#D864FF; stroke-width:0.0000; stroke-opacity:1; 
stroke-linecap:round; stroke-linejoin:round;fill-rule:evenodd;"
d="M 63.7150,16.0600
63.6633,16.0497
63.6195,16.0205
63.5903,15.9767
63.5800,15.9250
63.5800,15.6550
63.5903,15.6033
63.6195,15.5595
63.6633,15.5303
63.7150,15.5200
64.0850,15.5200
64.1367,15.5303
64.1805,15.5595
64.2097,15.6033
64.2200,15.6550
64.2200,15.9250
64.2097,15.9767
64.1805,16.0205
64.1367,16.0497
64.0850,16.0600
Z" /> 
</g>
<g >
</g>
<g style="fill:#D864FF; fill-opacity:0.4000; 
stroke:#D864FF; stroke-width:0.0000; stroke-opacity:1; 
stroke-linecap:round; stroke-linejoin:round;">
<path style="fill:#D864FF; fill-opacity:0.4000; 
stroke:#D864FF; stroke-width:0.0000; stroke-opacity:1; 
stroke-linecap:round; stroke-linejoin:round;fill-rule:evenodd;"
d="M 25.2450,55.2050
25.2450,51.3950
29.4850,51.3950
29.4850,55.2050
Z" /> 
<path style="fill:#D864FF; fill-opacity:0.4000; 
stroke:#D864FF; stroke-width:0.0000; stroke-opacity:1; 
stroke-linecap:round; stroke-linejoin:round;fill-rule:evenodd;"
d="M 31.6150,55.2050
31.6150,51.3950
35.8550,51.3950
35.8550,55.2050
Z" /> 
</g>
<g >
</g>
<g style="fill:#D864FF; fill-opacity:0.4000; 
stroke:#D864FF; stroke-width:0.0000; stroke-opacity:1; 
stroke-linecap:round; stroke-linejoin:round;">
<path style="fill:#D864FF; fill-opacity:0.4000; 
stroke:#D864FF; stroke-width:0.0000; stroke-opacity:1; 
stroke-linecap:round; stroke-linejoin:round;fill-rule:evenodd;"
d="M 46.9000,11.9000
46.8810,11.9957
46.8268,12.0768
46.7457,12.1310
46.6500,12.1500
45.4500,12.1500
45.3543,12.1310
45.2732,12.0768
45.2190,11.9957
45.2000,11.9000
45.2000,10.4000
45.2190,10.3043
45.2732,10.2232
45.3543,10.1690
45.4500,10.1500
46.6500,10.1500
46.7457,10.1690
46.8268,10.2232
46.8810,10.3043
46.9000,10.4000
Z" /> 
</g>
<g style="fill:#D864FF; fill-opacity:0.4000; 
stroke:#D864FF; stroke-width:1.7000; stroke-opacity:1; 
stroke-linecap:round; stroke-linejoin:round;">
</g>
<g style="fill:#D864FF; fill-opacity:0.0; 
stroke:#D864FF; stroke-width:1.7000; stroke-opacity:1; 
stroke-linecap:round; stroke-linejoin:round;">
<path d="M43.5500 11.3000
L43.5500 11.0000
" />
</g>
<g >
</g>
<g style="fill:#D864FF; fill-opacity:0.0; 
stroke:#D864FF; stroke-width:1.7000; stroke-opacity:1; 
stroke-linecap:round; stroke-linejoin:round;">
</g>
<g style="fill:#D864FF; fill-opacity:0.4000; 
stroke:#D864FF; stroke-width:0.0000; stroke-opacity:1; 
stroke-linecap:round; stroke-linejoin:round;">
<circle cx="36.3000" cy="11.3000" r="3.5000" /> 
</g>
<g style="fill:#D864FF; fill-opacity:0.4000; 
stroke:#D864FF; stroke-width:0.0212; stroke-opacity:1; 
stroke-linecap:round; stroke-linejoin:round;">
</g>
<g >
</g>
<g style="fill:#D864FF; fill-opacity:0.4000; 
stroke:#D864FF; stroke-width:0.0212; stroke-opacity:1; 
stroke-linecap:round; stroke-linejoin:round;">
</g>
<g style="fill:#D864FF; fill-opacity:0.4000; 
stroke:#D864FF; stroke-width:0.0000; stroke-opacity:1; 
stroke-linecap:round; stroke-linejoin:round;">
<path style="fill:#D864FF; fill-opacity:0.4000; 
stroke:#D864FF; stroke-width:0.0000; stroke-opacity:1; 
stroke-linecap:round; stroke-linejoin:round;fill-rule:evenodd;"
d="M 57.8500,44.0750
57.8690,43.9793
57.9232,43.8982
58.0043,43.8440
58.1000,43.8250
58.6000,43.8250
58.6957,43.8440
58.7768,43.8982
58.8310,43.9793
58.8500,44.0750
58.8500,45.0250
58.8310,45.1207
58.7768,45.2018
58.6957,45.2560
58.6000,45.2750
58.1000,45.2750
58.0043,45.2560
57.9232,45.2018
57.8690,45.1207
57.8500,45.0250
Z" /> 
<path style="fill:#D864FF; fill-opacity:0.4000; 
stroke:#D864FF; stroke-width:0.0000; stroke-opacity:1; 
stroke-linecap:round; stroke-linejoin:round;fill-rule:evenodd;"
d="M 59.7500,44.0750
59.7690,43.9793
59.8232,43.8982
59.9043,43.8440
60.0000,43.8250
60.5000,43.8250
60.5957,43.8440
60.6768,43.8982
60.7310,43.9793
60.7500,44.0750
60.7500,45.0250
60.7310,45.1207
60.6768,45.2018
60.5957,45.2560
60.5000,45.2750
60.0000,45.2750
59.9043,45.2560
59.8232,45.2018
59.7690,45.1207
59.7500,45.0250
Z" /> 
</g>
<g >
</g>
<g style="fill:#D864FF; fill-opacity:0.4000; 
stroke:#D864FF; stroke-width:0.0000; stroke-opacity:1; 
stroke-linecap:round; stroke-linejoin:round;">
<circle cx="61.5500" cy="3.5500" r="2.3500" /> 
</g>
<g style="fill:#D864FF; fill-opacity:0.4000; 
stroke:#D864FF; stroke-width:0.0212; stroke-opacity:1; 
stroke-linecap:round; stroke-linejoin:round;">
</g>
<g >
</g>
<g style="fill:#D864FF; fill-opacity:0.4000; 
stroke:#D864FF; stroke-width:0.0212; stroke-opacity:1; 
stroke-linecap:round; stroke-linejoin:round;">
</g>
<g style="fill:#D864FF; fill-opacity:0.4000; 
stroke:#D864FF; stroke-width:0.0000; stroke-opacity:1; 
stroke-linecap:round; stroke-linejoin:round;">
<path style="fill:#D864FF; fill-opacity:0.4000; 
stroke:#D864FF; stroke-width:0.0000; stroke-opacity:1; 
stroke-linecap:round; stroke-linejoin:round;fill-rule:evenodd;"
d="M 51.0400,31.3800
51.0507,31.3264
51.0810,31.2810
51.1264,31.2507
51.1800,31.2400
51.4600,31.2400
51.5136,31.2507
51.5590,31.2810
51.5893,31.3264
51.6000,31.3800
51.6000,31.7200
51.5893,31.7736
51.5590,31.8190
51.5136,31.8493
51.4600,31.8600
51.1800,31.8600
51.1264,31.8493
51.0810,31.8190
51.0507,31.7736
51.0400,31.7200
Z" /> 
<path style="fill:#D864FF; fill-opacity:0.4000; 
stroke:#D864FF; stroke-width:0.0000; stroke-opacity:1; 
stroke-linecap:round; stroke-linejoin:round;fill-rule:evenodd;"
d="M 52.0000,31.3800
52.0107,31.3264
52.0410,31.2810
52.0864,31.2507
52.1400,31.2400
52.4200,31.2400
52.4736,31.2507
52.5190,31.2810
52.5493,31.3264
52.5600,31.3800
52.5600,31.7200
52.5493,31.7736
52.5190,31.8190
52.4736,31.8493
52.4200,31.8600
52.1400,31.8600
52.0864,31.8493
52.0410,31.8190
52.0107,31.7736
52.0000,31.7200
Z" /> 
</g>
<g >
</g>
<g style="fill:#D864FF; fill-opacity:0.4000; 
stroke:#D864FF; stroke-width:0.0000; stroke-opacity:1; 
stroke-linecap:round; stroke-linejoin:round;">
<circle cx="4.3000" cy="11.3000" r="3.5000" /> 
</g>
<g style="fill:#D864FF; fill-opacity:0.4000; 
stroke:#D864FF; stroke-width:0.0212; stroke-opacity:1; 
stroke-linecap:round; stroke-linejoin:round;">
</g>
<g >
</g>
<g style="fill:#D864FF; fill-opacity:0.4000; 
stroke:#D864FF; stroke-width:0.0212; stroke-opacity:1; 
stroke-linecap:round; stroke-linejoin:round;">
</g>
<g style="fill:#D864FF; fill-opacity:0.4000; 
stroke:#D864FF; stroke-width:0.0000; stroke-opacity:1; 
stroke-linecap:round; stroke-linejoin:round;">
<path style="fill:#D864FF; fill-opacity:0.4000; 
stroke:#D864FF; stroke-width:0.0000; stroke-opacity:1; 
stroke-linecap:round; stroke-linejoin:round;fill-rule:evenodd;"
d="M 54.7350,32.7700
54.7867,32.7803
54.8305,32.8095
54.8597,32.8533
54.8700,32.9050
54.8700,33.1750
54.8597,33.2267
54.8305,33.2705
54.7867,33.2997
54.7350,33.3100
54.3650,33.3100
54.3133,33.2997
54.2695,33.2705
54.2403,33.2267
54.2300,33.1750
54.2300,32.9050
54.2403,32.8533
54.2695,32.8095
54.3133,32.7803
54.3650,32.7700
Z" /> 
<path style="fill:#D864FF; fill-opacity:0.4000; 
stroke:#D864FF; stroke-width:0.0000; stroke-opacity:1; 
stroke-linecap:round; stroke-linejoin:round;fill-rule:evenodd;"
d="M 54.7350,33.7900
54.7867,33.8003
54.8305,33.8295
54.8597,33.8733
54.8700,33.9250
54.8700,34.1950
54.8597,34.2467
54.8305,34.2905
54.7867,34.3197
54.7350,34.3300
54.3650,34.3300
54.3133,34.3197
54.2695,34.2905
54.2403,34.2467
54.2300,34.1950
54.2300,33.9250
54.2403,33.8733
54.2695,33.8295
54.3133,33.8003
54.3650,33.7900
Z" /> 
</g>
<g >
</g>
<g style="fill:#D864FF; fill-opacity:0.4000; 
stroke:#D864FF; stroke-width:0.0000; stroke-opacity:1; 
stroke-linecap:round; stroke-linejoin:round;">
<circle cx="36.3000" cy="43.3000" r="3.5000" /> 
</g>
<g style="fill:#D864FF; fill-opacity:0.4000; 
stroke:#D864FF; stroke-width:0.0212; stroke-opacity:1; 
stroke-linecap:round; stroke-linejoin:round;">
</g>
<g >
</g>
<g style="fill:#D864FF; fill-opacity:0.4000; 
stroke:#D864FF; stroke-width:0.0212; stroke-opacity:1; 
stroke-linecap:round; stroke-linejoin:round;">
</g>
<g style="fill:#D864FF; fill-opacity:0.4000; 
stroke:#D864FF; stroke-width:0.0000; stroke-opacity:1; 
stroke-linecap:round; stroke-linejoin:round;">
<path style="fill:#D864FF; fill-opacity:0.4000; 
stroke:#D864FF; stroke-width:0.0000; stroke-opacity:1; 
stroke-linecap:round; stroke-linejoin:round;fill-rule:evenodd;"
d="M 57.8500,41.8250
57.8690,41.7293
57.9232,41.6482
58.0043,41.5940
58.1000,41.5750
58.6000,41.5750
58.6957,41.5940
58.7768,41.6482
58.8310,41.7293
58.8500,41.8250
58.8500,42.7750
58.8310,42.8707
58.7768,42.9518
58.6957,43.0060
58.6000,43.0250
58.1000,43.0250
58.0043,43.0060
57.9232,42.9518
57.8690,42.8707
57.8500,42.7750
Z" /> 
<path style="fill:#D864FF; fill-opacity:0.4000; 
stroke:#D864FF; stroke-width:0.0000; stroke-opacity:1; 
stroke-linecap:round; stroke-linejoin:round;fill-rule:evenodd;"
d="M 59.7500,41.8250
59.7690,41.7293
59.8232,41.6482
59.9043,41.5940
60.0000,41.5750
60.5000,41.5750
60.5957,41.5940
60.6768,41.6482
60.7310,41.7293
60.7500,41.8250
60.7500,42.7750
60.7310,42.8707
60.6768,42.9518
60.5957,43.0060
60.5000,43.0250
60.0000,43.0250
59.9043,43.0060
59.8232,42.9518
59.7690,42.8707
59.7500,42.7750
Z" /> 
</g>
<g >
</g>
<g style="fill:#D864FF; fill-opacity:0.4000; 
stroke:#D864FF; stroke-width:0.0000; stroke-opacity:1; 
stroke-linecap:round; stroke-linejoin:round;">
<path style="fill:#D864FF; fill-opacity:0.4000; 
stroke:#D864FF; stroke-width:0.0000; stroke-opacity:1; 
stroke-linecap:round; stroke-linejoin:round;fill-rule:evenodd;"
d="M 64.2562,22.3750
64.3400,22.3917
64.4109,22.4391
64.4583,22.5100
64.4750,22.5938
64.4750,23.0312
64.4583,23.1150
64.4109,23.1859
64.3400,23.2333
64.2562,23.2500
63.7437,23.2500
63.6600,23.2333
63.5891,23.1859
63.5417,23.1150
63.5250,23.0312
63.5250,22.5938
63.5417,22.5100
63.5891,22.4391
63.6600,22.3917
63.7437,22.3750
Z" /> 
<path style="fill:#D864FF; fill-opacity:0.4000; 
stroke:#D864FF; stroke-width:0.0000; stroke-opacity:1; 
stroke-linecap:round; stroke-linejoin:round;fill-rule:evenodd;"
d="M 64.2562,23.9500
64.3400,23.9667
64.4109,24.0141
64.4583,24.0850
64.4750,24.1687
64.4750,24.6062
64.4583,24.6900
64.4109,24.7609
64.3400,24.8083
64.2562,24.8250
63.7437,24.8250
63.6600,24.8083
63.5891,24.7609
63.5417,24.6900
63.5250,24.6062
63.5250,24.1687
63.5417,24.0850
63.5891,24.0141
63.6600,23.9667
63.7437,23.9500
Z" /> 
</g>
<g >
</g>
<g style="fill:#D864FF; fill-opacity:0.4000; 
stroke:#D864FF; stroke-width:0.0000; stroke-opacity:1; 
stroke-linecap:round; stroke-linejoin:round;">
<path style="fill:#D864FF; fill-opacity:0.4000; 
stroke:#D864FF; stroke-width:0.0000; stroke-opacity:1; 
stroke-linecap:round; stroke-linejoin:round;fill-rule:evenodd;"
d="M 53.0200,14.6300
53.0307,14.5764
53.0610,14.5310
53.1064,14.5007
53.1600,14.4900
53.4400,14.4900
53.4936,14.5007
53.5390,14.5310
53.5693,14.5764
53.5800,14.6300
53.5800,14.9700
53.5693,15.0236
53.5390,15.0690
53.4936,15.0993
53.4400,15.1100
53.1600,15.1100
53.1064,15.0993
53.0610,15.0690
53.0307,15.0236
53.0200,14.9700
Z" /> 
<path style="fill:#D864FF; fill-opacity:0.4000; 
stroke:#D864FF; stroke-width:0.0000; stroke-opacity:1; 
stroke-linecap:round; stroke-linejoin:round;fill-rule:evenodd;"
d="M 53.9800,14.6300
53.9907,14.5764
54.0210,14.5310
54.0664,14.5007
54.1200,14.4900
54.4000,14.4900
54.4536,14.5007
54.4990,14.5310
54.5293,14.5764
54.5400,14.6300
54.5400,14.9700
54.5293,15.0236
54.4990,15.0690
54.4536,15.0993
54.4000,15.1100
54.1200,15.1100
54.0664,15.0993
54.0210,15.0690
53.9907,15.0236
53.9800,14.9700
Z" /> 
</g>
<g >
</g>
<g style="fill:#D864FF; fill-opacity:0.4000; 
stroke:#D864FF; stroke-width:0.0000; stroke-opacity:1; 
stroke-linecap:round; stroke-linejoin:round;">
<path style="fill:#D864FF; fill-opacity:0.4000; 
stroke:#D864FF; stroke-width:0.0000; stroke-opacity:1; 
stroke-linecap:round; stroke-linejoin:round;fill-rule:evenodd;"
d="M 63.7437,20.0250
63.6600,20.0083
63.5891,19.9609
63.5417,19.8900
63.5250,19.8062
63.5250,19.3687
63.5417,19.2850
63.5891,19.2141
63.6600,19.1667
63.7437,19.1500
64.2562,19.1500
64.3400,19.1667
64.4109,19.2141
64.4583,19.2850
64.4750,19.3687
64.4750,19.8062
64.4583,19.8900
64.4109,19.9609
64.3400,20.0083
64.2562,20.0250
Z" /> 
<path style="fill:#D864FF; fill-opacity:0.4000; 
stroke:#D864FF; stroke-width:0.0000; stroke-opacity:1; 
stroke-linecap:round; stroke-linejoin:round;fill-rule:evenodd;"
d="M 63.7437,18.4500
63.6600,18.4333
63.5891,18.3859
63.5417,18.3150
63.5250,18.2312
63.5250,17.7937
63.5417,17.7100
63.5891,17.6391
63.6600,17.5917
63.7437,17.5750
64.2562,17.5750
64.3400,17.5917
64.4109,17.6391
64.4583,17.7100
64.4750,17.7937
64.4750,18.2312
64.4583,18.3150
64.4109,18.3859
64.3400,18.4333
64.2562,18.4500
Z" /> 
</g>
<g >
</g>
<g style="fill:#D864FF; fill-opacity:0.4000; 
stroke:#D864FF; stroke-width:0.0000; stroke-opacity:1; 
stroke-linecap:round; stroke-linejoin:round;">
<path style="fill:#D864FF; fill-opacity:0.4000; 
stroke:#D864FF; stroke-width:0.0000; stroke-opacity:1; 
stroke-linecap:round; stroke-linejoin:round;fill-rule:evenodd;"
d="M 51.5500,41.0000
48.0500,41.0000
48.0500,38.0500
51.5500,38.0500
Z" /> 
<path style="fill:#D864FF; fill-opacity:0.4000; 
stroke:#D864FF; stroke-width:0.0000; stroke-opacity:1; 
stroke-linecap:round; stroke-linejoin:round;fill-rule:evenodd;"
d="M 51.5500,35.5500
48.0500,35.5500
48.0500,32.6000
51.5500,32.6000
Z" /> 
</g>
<g >
</g>
<g style="fill:#D864FF; fill-opacity:0.4000; 
stroke:#D864FF; stroke-width:0.0000; stroke-opacity:1; 
stroke-linecap:round; stroke-linejoin:round;">
<path style="fill:#D864FF; fill-opacity:0.4000; 
stroke:#D864FF; stroke-width:0.0000; stroke-opacity:1; 
stroke-linecap:round; stroke-linejoin:round;fill-rule:evenodd;"
d="M 64.4850,25.5200
64.5367,25.5303
64.5805,25.5595
64.6097,25.6033
64.6200,25.6550
64.6200,25.9250
64.6097,25.9767
64.5805,26.0205
64.5367,26.0497
64.4850,26.0600
64.1150,26.0600
64.0633,26.0497
64.0195,26.0205
63.9903,25.9767
63.9800,25.9250
63.9800,25.6550
63.9903,25.6033
64.0195,25.5595
64.0633,25.5303
64.1150,25.5200
Z" /> 
<path style="fill:#D864FF; fill-opacity:0.4000; 
stroke:#D864FF; stroke-width:0.0000; stroke-opacity:1; 
stroke-linecap:round; stroke-linejoin:round;fill-rule:evenodd;"
d="M 64.4850,26.5400
64.5367,26.5503
64.5805,26.5795
64.6097,26.6233
64.6200,26.6750
64.6200,26.9450
64.6097,26.9967
64.5805,27.0405
64.5367,27.0697
64.4850,27.0800
64.1150,27.0800
64.0633,27.0697
64.0195,27.0405
63.9903,26.9967
63.9800,26.9450
63.9800,26.6750
63.9903,26.6233
64.0195,26.5795
64.0633,26.5503
64.1150,26.5400
Z" /> 
</g>
<g >
</g>
<g style="fill:#D864FF; fill-opacity:0.4000; 
stroke:#D864FF; stroke-width:0.0000; stroke-opacity:1; 
stroke-linecap:round; stroke-linejoin:round;">
<circle cx="61.5500" cy="52.5500" r="2.3500" /> 
</g>
<g style="fill:#D864FF; fill-opacity:0.4000; 
stroke:#D864FF; stroke-width:0.0212; stroke-opacity:1; 
stroke-linecap:round; stroke-linejoin:round;">
</g>
<g >
</g>
<g style="fill:#D864FF; fill-opacity:0.4000; 
stroke:#D864FF; stroke-width:0.0212; stroke-opacity:1; 
stroke-linecap:round; stroke-linejoin:round;">
</g>
<g style="fill:#D864FF; fill-opacity:0.4000; 
stroke:#D864FF; stroke-width:0.0000; stroke-opacity:1; 
stroke-linecap:round; stroke-linejoin:round;">
<circle cx="3.5500" cy="52.5500" r="2.3500" /> 
</g>
<g style="fill:#D864FF; fill-opacity:0.4000; 
stroke:#D864FF; stroke-width:0.0212; stroke-opacity:1; 
stroke-linecap:round; stroke-linejoin:round;">
</g>
<g >
</g>
<g style="fill:#D864FF; fill-opacity:0.4000; 
stroke:#D864FF; stroke-width:0.0212; stroke-opacity:1; 
stroke-linecap:round; stroke-linejoin:round;">
</g>
<g style="fill:#D864FF; fill-opacity:0.4000; 
stroke:#D864FF; stroke-width:0.0000; stroke-opacity:1; 
stroke-linecap:round; stroke-linejoin:round;">
<path style="fill:#D864FF; fill-opacity:0.4000; 
stroke:#D864FF; stroke-width:0.0000; stroke-opacity:1; 
stroke-linecap:round; stroke-linejoin:round;fill-rule:evenodd;"
d="M 57.0400,50.3800
57.0507,50.3264
57.0810,50.2810
57.1264,50.2507
57.1800,50.2400
57.4600,50.2400
57.5136,50.2507
57.5590,50.2810
57.5893,50.3264
57.6000,50.3800
57.6000,50.7200
57.5893,50.7736
57.5590,50.8190
57.5136,50.8493
57.4600,50.8600
57.1800,50.8600
57.1264,50.8493
57.0810,50.8190
57.0507,50.7736
57.0400,50.7200
Z" /> 
<path style="fill:#D864FF; fill-opacity:0.4000; 
stroke:#D864FF; stroke-width:0.0000; stroke-opacity:1; 
stroke-linecap:round; stroke-linejoin:round;fill-rule:evenodd;"
d="M 58.0000,50.3800
58.0107,50.3264
58.0410,50.2810
58.0864,50.2507
58.1400,50.2400
58.4200,50.2400
58.4736,50.2507
58.5190,50.2810
58.5493,50.3264
58.5600,50.3800
58.5600,50.7200
58.5493,50.7736
58.5190,50.8190
58.4736,50.8493
58.4200,50.8600
58.1400,50.8600
58.0864,50.8493
58.0410,50.8190
58.0107,50.7736
58.0000,50.7200
Z" /> 
</g>
<g >
</g>
<g style="fill:#D864FF; fill-opacity:0.4000; 
stroke:#D864FF; stroke-width:0.0000; stroke-opacity:1; 
stroke-linecap:round; stroke-linejoin:round;">
<path style="fill:#D864FF; fill-opacity:0.4000; 
stroke:#D864FF; stroke-width:0.0000; stroke-opacity:1; 
stroke-linecap:round; stroke-linejoin:round;fill-rule:evenodd;"
d="M 19.0400,48.3800
19.0507,48.3264
19.0810,48.2810
19.1264,48.2507
19.1800,48.2400
19.4600,48.2400
19.5136,48.2507
19.5590,48.2810
19.5893,48.3264
19.6000,48.3800
19.6000,48.7200
19.5893,48.7736
19.5590,48.8190
19.5136,48.8493
19.4600,48.8600
19.1800,48.8600
19.1264,48.8493
19.0810,48.8190
19.0507,48.7736
19.0400,48.7200
Z" /> 
<path style="fill:#D864FF; fill-opacity:0.4000; 
stroke:#D864FF; stroke-width:0.0000; stroke-opacity:1; 
stroke-linecap:round; stroke-linejoin:round;fill-rule:evenodd;"
d="M 20.0000,48.3800
20.0107,48.3264
20.0410,48.2810
20.0864,48.2507
20.1400,48.2400
20.4200,48.2400
20.4736,48.2507
20.5190,48.2810
20.5493,48.3264
20.5600,48.3800
20.5600,48.7200
20.5493,48.7736
20.5190,48.8190
20.4736,48.8493
20.4200,48.8600
20.1400,48.8600
20.0864,48.8493
20.0410,48.8190
20.0107,48.7736
20.0000,48.7200
Z" /> 
</g>
<g >
</g>
<g style="fill:#D864FF; fill-opacity:0.4000; 
stroke:#D864FF; stroke-width:0.0000; stroke-opacity:1; 
stroke-linecap:round; stroke-linejoin:round;">
<path style="fill:#D864FF; fill-opacity:0.4000; 
stroke:#D864FF; stroke-width:0.0000; stroke-opacity:1; 
stroke-linecap:round; stroke-linejoin:round;fill-rule:evenodd;"
d="M 60.8300,34.9850
60.8197,35.0367
60.7905,35.0805
60.7467,35.1097
60.6950,35.1200
60.4250,35.1200
60.3733,35.1097
60.3295,35.0805
60.3003,35.0367
60.2900,34.9850
60.2900,34.6150
60.3003,34.5633
60.3295,34.5195
60.3733,34.4903
60.4250,34.4800
60.6950,34.4800
60.7467,34.4903
60.7905,34.5195
60.8197,34.5633
60.8300,34.6150
Z" /> 
<path style="fill:#D864FF; fill-opacity:0.4000; 
stroke:#D864FF; stroke-width:0.0000; stroke-opacity:1; 
stroke-linecap:round; stroke-linejoin:round;fill-rule:evenodd;"
d="M 59.8100,34.9850
59.7997,35.0367
59.7705,35.0805
59.7267,35.1097
59.6750,35.1200
59.4050,35.1200
59.3533,35.1097
59.3095,35.0805
59.2803,35.0367
59.2700,34.9850
59.2700,34.6150
59.2803,34.5633
59.3095,34.5195
59.3533,34.4903
59.4050,34.4800
59.6750,34.4800
59.7267,34.4903
59.7705,34.5195
59.7997,34.5633
59.8100,34.6150
Z" /> 
</g>
<g >
</g>
<g >
</g>
<g style="fill:#D864FF; fill-opacity:0.4000; 
stroke:#D864FF; stroke-width:0.0000; stroke-opacity:1; 
stroke-linecap:round; stroke-linejoin:round;">
<path style="fill:#D864FF; fill-opacity:0.4000; 
stroke:#D864FF; stroke-width:0.0000; stroke-opacity:1; 
stroke-linecap:round; stroke-linejoin:round;fill-rule:evenodd;"
d="M 7.5700,3.9700
9.2700,3.9700
9.2700,5.6700
7.5700,5.6700
Z" /> 
<circle cx="8.4200" cy="2.2800" r="0.8500" /> 
<circle cx="10.9600" cy="4.8200" r="0.8500" /> 
<circle cx="10.9600" cy="2.2800" r="0.8500" /> 
<circle cx="13.5000" cy="4.8200" r="0.8500" /> 
<circle cx="13.5000" cy="2.2800" r="0.8500" /> 
<circle cx="16.0400" cy="4.8200" r="0.8500" /> 
<circle cx="16.0400" cy="2.2800" r="0.8500" /> 
<circle cx="18.5800" cy="4.8200" r="0.8500" /> 
<circle cx="18.5800" cy="2.2800" r="0.8500" /> 
<circle cx="21.1200" cy="4.8200" r="0.8500" /> 
<circle cx="21.1200" cy="2.2800" r="0.8500" /> 
<circle cx="23.6600" cy="4.8200" r="0.8500" /> 
<circle cx="23.6600" cy="2.2800" r="0.8500" /> 
<circle cx="26.2000" cy="4.8200" r="0.8500" /> 
<circle cx="26.2000" cy="2.2800" r="0.8500" /> 
<circle cx="28.7400" cy="4.8200" r="0.8500" /> 
<circle cx="28.7400" cy="2.2800" r="0.8500" /> 
<circle cx="31.2800" cy="4.8200" r="0.8500" /> 
<circle cx="31.2800" cy="2.2800" r="0.8500" /> 
<circle cx="33.8200" cy="4.8200" r="0.8500" /> 
<circle cx="33.8200" cy="2.2800" r="0.8500" /> 
<circle cx="36.3600" cy="4.8200" r="0.8500" /> 
<circle cx="36.3600" cy="2.2800" r="0.8500" /> 
<circle cx="38.9000" cy="4.8200" r="0.8500" /> 
<circle cx="38.9000" cy="2.2800" r="0.8500" /> 
<circle cx="41.4400" cy="4.8200" r="0.8500" /> 
<circle cx="41.4400" cy="2.2800" r="0.8500" /> 
<circle cx="43.9800" cy="4.8200" r="0.8500" /> 
<circle cx="43.9800" cy="2.2800" r="0.8500" /> 
<circle cx="46.5200" cy="4.8200" r="0.8500" /> 
<circle cx="46.5200" cy="2.2800" r="0.8500" /> 
<circle cx="49.0600" cy="4.8200" r="0.8500" /> 
<circle cx="49.0600" cy="2.2800" r="0.8500" /> 
<circle cx="51.6000" cy="4.8200" r="0.8500" /> 
<circle cx="51.6000" cy="2.2800" r="0.8500" /> 
<circle cx="54.1400" cy="4.8200" r="0.8500" /> 
<circle cx="54.1400" cy="2.2800" r="0.8500" /> 
<circle cx="56.6800" cy="4.8200" r="0.8500" /> 
<circle cx="56.6800" cy="2.2800" r="0.8500" /> 
</g>
<g >
</g>
<g >
</g>
<g >
</g>
<g >
</g>
<g >
</g>
<g >
</g>
<g >
</g>
<g >
</g>
<g >
</g>
<g >
</g>
<g >
</g>
</g>
<g style="fill:#000000; fill-opacity:1.0000; 
stroke:#000000; stroke-width:0.0000; stroke-opacity:1; 
stroke-linecap:round; stroke-linejoin:round;">
</g>
<g style="fill:#D0D2CD; fill-opacity:1.0000; 
stroke:#D0D2CD; stroke-width:0.0000; stroke-opacity:1; 
stroke-linecap:round; stroke-linejoin:round;">
</g>
<g style="fill:#D0D2CD; fill-opacity:1.0000; 
stroke:#D0D2CD; stroke-width:0.1000; stroke-opacity:1; 
stroke-linecap:round; stroke-linejoin:round;">
</g>
<g style="fill:#D0D2CD; fill-opacity:0.0; 
stroke:#D0D2CD; stroke-width:0.1000; stroke-opacity:1; 
stroke-linecap:round; stroke-linejoin:round;">
<path d="M0.0500 18.5500
L0.0500 53.0500
" />
<path d="M65.0500 3.0500 A3.0000 3.0000 0.0 0 0 62.0500 0.0500" />
<path d="M44.0500 37.0500
L44.0500 52.0500
" />
<path d="M0.0500 53.0500 A3.0000 3.0000 0.0 0 0 3.0500 56.0500" />
<path d="M34.7859 15.3116
L38.8000 15.3000
" />
<path d="M5.0500 16.3000
L5.0500 38.3000
" />
<path d="M3.0500 56.0500
L62.0500 56.0500
" />
<path d="M62.0500 56.0500 A3.0000 3.0000 0.0 0 0 65.0500 53.0500" />
<path d="M46.0500 37.0500 A1.0000 1.0000 0.0 0 0 44.0500 37.0500" />
<path d="M46.0500 37.0500
L46.0500 52.0500
" />
<path d="M5.0500 38.3000 A18.8033 18.8033 0.0 0 0 39.1033 27.3000" />
<path d="M3.0500 0.0500
L62.0500 0.0500
" />
<path d="M34.7859 15.3117 A18.8033 18.8033 0.0 0 0 5.0500 16.3000" />
<path d="M3.0500 0.0500 A3.0000 3.0000 0.0 0 0 0.0500 3.0500" />
<path d="M44.0500 52.0500 A1.0000 1.0000 0.0 0 0 46.0500 52.0500" />
<path d="M0.0500 3.0500
L0.0500 18.5500
" />
<path d="M39.8000 16.3000 A1.0000 1.0000 0.0 0 0 38.8000 15.3000" />
<path d="M39.8000 24.8000
L39.8000 16.3000
" />
<path d="M39.1033 27.3000
L39.8000 24.8000
" />
<path d="M65.0500 3.0500
L65.0500 53.0500
" />
<g >
</g>
<g >
</g>
<g >
</g>
<g >
</g>
<g >
</g>
<g >
</g>
<g >
</g>
<g >
</g>
<g >
</g>
<g >
</g>
<g >
</g>
<g >
</g>
<g >
</g>
<g >
</g>
<g >
</g>
<g >
</g>
<g >
</g>
<g >
</g>
<g >
</g>
<g >
</g>
<g >
</g>
<g >
</g>
<g >
</g>
<g >
</g>
<g >
</g>
<g >
</g>
<g >
</g>
<g >
</g>
<g >
</g>
<g >
</g>
<g >
</g>
<g >
</g>
<g >
</g>
<g >
</g>
<g >
</g>
<g >
</g>
<g >
</g>
<g >
</g>
<g >
</g>
<g >
</g>
<g >
</g>
<g >
</g>
<g >
</g>
<g >
</g>
<g >
</g>
<g >
</g>
<g >
</g>
<g >
</g>
<g >
</g>
<g >
</g>
<g >
</g>
<g >
</g>
<g >
</g>
<g >
</g>
<g >
</g>
<g >
</g>
<g >
</g>
<g >
</g>
<g >
</g>
<g >
</g>
<g >
</g>
<g >
</g>
<g >
</g>
<g >
</g>
</g> 
</svg>
