<?xml version="1.0" standalone="no"?>
 <!DOCTYPE svg PUBLIC "-//W3C//DTD SVG 1.1//EN" 
 "http://www.w3.org/Graphics/SVG/1.1/DTD/svg11.dtd"> 
<svg
  xmlns:svg="http://www.w3.org/2000/svg"
  xmlns="http://www.w3.org/2000/svg"
  xmlns:xlink="http://www.w3.org/1999/xlink"
  version="1.1"
  width="68.4784mm" height="56.0832mm" viewBox="0.0000 0.0000 68.4784 56.0832">
<title>SVG Image created as ElectriPi-Edge_Cuts.svg date 2023/07/18 11:07:31 </title>
  <desc>Image generated by PCBNEW </desc>
<g style="fill:#000000; fill-opacity:1.0000;stroke:#000000; stroke-opacity:1.0000;
stroke-linecap:round; stroke-linejoin:round;"
 transform="translate(0 0) scale(1 1)">
</g>
<g style="fill:#000000; fill-opacity:0.0; 
stroke:#000000; stroke-width:0.0000; stroke-opacity:1; 
stroke-linecap:round; stroke-linejoin:round;">
</g>
<g style="fill:#D0D2CD; fill-opacity:0.0; 
stroke:#D0D2CD; stroke-width:0.0000; stroke-opacity:1; 
stroke-linecap:round; stroke-linejoin:round;">
</g>
<g style="fill:#D0D2CD; fill-opacity:0.0; 
stroke:#D0D2CD; stroke-width:0.1000; stroke-opacity:1; 
stroke-linecap:round; stroke-linejoin:round;">
<path d="M0.0500 18.5500
L0.0500 53.0500
" />
<path d="M65.0500 3.0500 A3.0000 3.0000 0.0 0 0 62.0500 0.0500" />
<path d="M44.0500 37.0500
L44.0500 52.0500
" />
<path d="M0.0500 53.0500 A3.0000 3.0000 0.0 0 0 3.0500 56.0500" />
<path d="M34.7859 15.3116
L38.8000 15.3000
" />
<path d="M5.0500 16.3000
L5.0500 38.3000
" />
<path d="M3.0500 56.0500
L62.0500 56.0500
" />
<path d="M62.0500 56.0500 A3.0000 3.0000 0.0 0 0 65.0500 53.0500" />
<path d="M46.0500 37.0500 A1.0000 1.0000 0.0 0 0 44.0500 37.0500" />
<path d="M46.0500 37.0500
L46.0500 52.0500
" />
<path d="M5.0500 38.3000 A18.8033 18.8033 0.0 0 0 39.1033 27.3000" />
<path d="M3.0500 0.0500
L62.0500 0.0500
" />
<path d="M34.7859 15.3117 A18.8033 18.8033 0.0 0 0 5.0500 16.3000" />
<path d="M3.0500 0.0500 A3.0000 3.0000 0.0 0 0 0.0500 3.0500" />
<path d="M44.0500 52.0500 A1.0000 1.0000 0.0 0 0 46.0500 52.0500" />
<path d="M0.0500 3.0500
L0.0500 18.5500
" />
<path d="M39.8000 16.3000 A1.0000 1.0000 0.0 0 0 38.8000 15.3000" />
<path d="M39.8000 24.8000
L39.8000 16.3000
" />
<path d="M39.1033 27.3000
L39.8000 24.8000
" />
<path d="M65.0500 3.0500
L65.0500 53.0500
" />
<g >
</g>
<g >
</g>
<g >
</g>
<g >
</g>
<g >
</g>
<g >
</g>
<g >
</g>
<g >
</g>
<g >
</g>
<g >
</g>
<g >
</g>
<g >
</g>
<g >
</g>
<g >
</g>
<g >
</g>
<g >
</g>
<g >
</g>
<g >
</g>
<g >
</g>
<g >
</g>
<g >
</g>
<g >
</g>
<g >
</g>
<g >
</g>
<g >
</g>
<g >
</g>
<g >
</g>
<g >
</g>
<g >
</g>
<g >
</g>
<g >
</g>
<g >
</g>
<g >
</g>
<g >
</g>
<g >
</g>
<g >
</g>
<g >
</g>
<g >
</g>
<g >
</g>
<g >
</g>
<g >
</g>
<g >
</g>
<g >
</g>
<g >
</g>
<g >
</g>
<g >
</g>
<g >
</g>
<g >
</g>
<g >
</g>
<g >
</g>
<g >
</g>
<g >
</g>
<g >
</g>
<g >
</g>
<g >
</g>
<g >
</g>
<g >
</g>
<g >
</g>
<g >
</g>
<g >
</g>
<g >
</g>
<g >
</g>
<g >
</g>
<g >
</g>
</g> 
</svg>
