%TF.GenerationSoftware,KiCad,Pcbnew,(6.0.4)*%
%TF.CreationDate,2022-05-06T21:58:48+01:00*%
%TF.ProjectId,PiPowerHAT,5069506f-7765-4724-9841-542e6b696361,rev?*%
%TF.SameCoordinates,Original*%
%TF.FileFunction,Legend,Bot*%
%TF.FilePolarity,Positive*%
%FSLAX46Y46*%
G04 Gerber Fmt 4.6, Leading zero omitted, Abs format (unit mm)*
G04 Created by KiCad (PCBNEW (6.0.4)) date 2022-05-06 21:58:48*
%MOMM*%
%LPD*%
G01*
G04 APERTURE LIST*
%ADD10C,0.150000*%
%ADD11C,0.120000*%
G04 APERTURE END LIST*
D10*
X86947619Y-100085714D02*
X85947619Y-99752380D01*
X86947619Y-99419047D01*
X85995238Y-98704761D02*
X85947619Y-98800000D01*
X85947619Y-98990476D01*
X85995238Y-99085714D01*
X86090476Y-99133333D01*
X86471428Y-99133333D01*
X86566666Y-99085714D01*
X86614285Y-98990476D01*
X86614285Y-98800000D01*
X86566666Y-98704761D01*
X86471428Y-98657142D01*
X86376190Y-98657142D01*
X86280952Y-99133333D01*
X85995238Y-97800000D02*
X85947619Y-97895238D01*
X85947619Y-98085714D01*
X85995238Y-98180952D01*
X86042857Y-98228571D01*
X86138095Y-98276190D01*
X86423809Y-98276190D01*
X86519047Y-98228571D01*
X86566666Y-98180952D01*
X86614285Y-98085714D01*
X86614285Y-97895238D01*
X86566666Y-97800000D01*
X86614285Y-97514285D02*
X86614285Y-97133333D01*
X86947619Y-97371428D02*
X86090476Y-97371428D01*
X85995238Y-97323809D01*
X85947619Y-97228571D01*
X85947619Y-97133333D01*
X85947619Y-96657142D02*
X85995238Y-96752380D01*
X86042857Y-96800000D01*
X86138095Y-96847619D01*
X86423809Y-96847619D01*
X86519047Y-96800000D01*
X86566666Y-96752380D01*
X86614285Y-96657142D01*
X86614285Y-96514285D01*
X86566666Y-96419047D01*
X86519047Y-96371428D01*
X86423809Y-96323809D01*
X86138095Y-96323809D01*
X86042857Y-96371428D01*
X85995238Y-96419047D01*
X85947619Y-96514285D01*
X85947619Y-96657142D01*
X85947619Y-95895238D02*
X86614285Y-95895238D01*
X86423809Y-95895238D02*
X86519047Y-95847619D01*
X86566666Y-95800000D01*
X86614285Y-95704761D01*
X86614285Y-95609523D01*
X86947619Y-94609523D02*
X86947619Y-93990476D01*
X86566666Y-94323809D01*
X86566666Y-94180952D01*
X86519047Y-94085714D01*
X86471428Y-94038095D01*
X86376190Y-93990476D01*
X86138095Y-93990476D01*
X86042857Y-94038095D01*
X85995238Y-94085714D01*
X85947619Y-94180952D01*
X85947619Y-94466666D01*
X85995238Y-94561904D01*
X86042857Y-94609523D01*
X85947619Y-93561904D02*
X86947619Y-93561904D01*
X86947619Y-93323809D01*
X86900000Y-93180952D01*
X86804761Y-93085714D01*
X86709523Y-93038095D01*
X86519047Y-92990476D01*
X86376190Y-92990476D01*
X86185714Y-93038095D01*
X86090476Y-93085714D01*
X85995238Y-93180952D01*
X85947619Y-93323809D01*
X85947619Y-93561904D01*
X85947619Y-91800000D02*
X86947619Y-91800000D01*
X86947619Y-91419047D01*
X86900000Y-91323809D01*
X86852380Y-91276190D01*
X86757142Y-91228571D01*
X86614285Y-91228571D01*
X86519047Y-91276190D01*
X86471428Y-91323809D01*
X86423809Y-91419047D01*
X86423809Y-91800000D01*
X85947619Y-90657142D02*
X85995238Y-90752380D01*
X86042857Y-90800000D01*
X86138095Y-90847619D01*
X86423809Y-90847619D01*
X86519047Y-90800000D01*
X86566666Y-90752380D01*
X86614285Y-90657142D01*
X86614285Y-90514285D01*
X86566666Y-90419047D01*
X86519047Y-90371428D01*
X86423809Y-90323809D01*
X86138095Y-90323809D01*
X86042857Y-90371428D01*
X85995238Y-90419047D01*
X85947619Y-90514285D01*
X85947619Y-90657142D01*
X86614285Y-89990476D02*
X85947619Y-89800000D01*
X86423809Y-89609523D01*
X85947619Y-89419047D01*
X86614285Y-89228571D01*
X85995238Y-88466666D02*
X85947619Y-88561904D01*
X85947619Y-88752380D01*
X85995238Y-88847619D01*
X86090476Y-88895238D01*
X86471428Y-88895238D01*
X86566666Y-88847619D01*
X86614285Y-88752380D01*
X86614285Y-88561904D01*
X86566666Y-88466666D01*
X86471428Y-88419047D01*
X86376190Y-88419047D01*
X86280952Y-88895238D01*
X85947619Y-87990476D02*
X86614285Y-87990476D01*
X86423809Y-87990476D02*
X86519047Y-87942857D01*
X86566666Y-87895238D01*
X86614285Y-87800000D01*
X86614285Y-87704761D01*
X85947619Y-87371428D02*
X86947619Y-87371428D01*
X86947619Y-86990476D01*
X86900000Y-86895238D01*
X86852380Y-86847619D01*
X86757142Y-86800000D01*
X86614285Y-86800000D01*
X86519047Y-86847619D01*
X86471428Y-86895238D01*
X86423809Y-86990476D01*
X86423809Y-87371428D01*
X85947619Y-86371428D02*
X86614285Y-86371428D01*
X86947619Y-86371428D02*
X86900000Y-86419047D01*
X86852380Y-86371428D01*
X86900000Y-86323809D01*
X86947619Y-86371428D01*
X86852380Y-86371428D01*
X85947619Y-85133333D02*
X86947619Y-85133333D01*
X86947619Y-84895238D01*
X86900000Y-84752380D01*
X86804761Y-84657142D01*
X86709523Y-84609523D01*
X86519047Y-84561904D01*
X86376190Y-84561904D01*
X86185714Y-84609523D01*
X86090476Y-84657142D01*
X85995238Y-84752380D01*
X85947619Y-84895238D01*
X85947619Y-85133333D01*
X85995238Y-83752380D02*
X85947619Y-83847619D01*
X85947619Y-84038095D01*
X85995238Y-84133333D01*
X86090476Y-84180952D01*
X86471428Y-84180952D01*
X86566666Y-84133333D01*
X86614285Y-84038095D01*
X86614285Y-83847619D01*
X86566666Y-83752380D01*
X86471428Y-83704761D01*
X86376190Y-83704761D01*
X86280952Y-84180952D01*
X85995238Y-83323809D02*
X85947619Y-83228571D01*
X85947619Y-83038095D01*
X85995238Y-82942857D01*
X86090476Y-82895238D01*
X86138095Y-82895238D01*
X86233333Y-82942857D01*
X86280952Y-83038095D01*
X86280952Y-83180952D01*
X86328571Y-83276190D01*
X86423809Y-83323809D01*
X86471428Y-83323809D01*
X86566666Y-83276190D01*
X86614285Y-83180952D01*
X86614285Y-83038095D01*
X86566666Y-82942857D01*
X85947619Y-82466666D02*
X86614285Y-82466666D01*
X86947619Y-82466666D02*
X86900000Y-82514285D01*
X86852380Y-82466666D01*
X86900000Y-82419047D01*
X86947619Y-82466666D01*
X86852380Y-82466666D01*
X86614285Y-81561904D02*
X85804761Y-81561904D01*
X85709523Y-81609523D01*
X85661904Y-81657142D01*
X85614285Y-81752380D01*
X85614285Y-81895238D01*
X85661904Y-81990476D01*
X85995238Y-81561904D02*
X85947619Y-81657142D01*
X85947619Y-81847619D01*
X85995238Y-81942857D01*
X86042857Y-81990476D01*
X86138095Y-82038095D01*
X86423809Y-82038095D01*
X86519047Y-81990476D01*
X86566666Y-81942857D01*
X86614285Y-81847619D01*
X86614285Y-81657142D01*
X86566666Y-81561904D01*
X86614285Y-81085714D02*
X85947619Y-81085714D01*
X86519047Y-81085714D02*
X86566666Y-81038095D01*
X86614285Y-80942857D01*
X86614285Y-80800000D01*
X86566666Y-80704761D01*
X86471428Y-80657142D01*
X85947619Y-80657142D01*
X85995238Y-79800000D02*
X85947619Y-79895238D01*
X85947619Y-80085714D01*
X85995238Y-80180952D01*
X86090476Y-80228571D01*
X86471428Y-80228571D01*
X86566666Y-80180952D01*
X86614285Y-80085714D01*
X86614285Y-79895238D01*
X86566666Y-79800000D01*
X86471428Y-79752380D01*
X86376190Y-79752380D01*
X86280952Y-80228571D01*
X85947619Y-78895238D02*
X86947619Y-78895238D01*
X85995238Y-78895238D02*
X85947619Y-78990476D01*
X85947619Y-79180952D01*
X85995238Y-79276190D01*
X86042857Y-79323809D01*
X86138095Y-79371428D01*
X86423809Y-79371428D01*
X86519047Y-79323809D01*
X86566666Y-79276190D01*
X86614285Y-79180952D01*
X86614285Y-78990476D01*
X86566666Y-78895238D01*
X85947619Y-77657142D02*
X86947619Y-77657142D01*
X86566666Y-77657142D02*
X86614285Y-77561904D01*
X86614285Y-77371428D01*
X86566666Y-77276190D01*
X86519047Y-77228571D01*
X86423809Y-77180952D01*
X86138095Y-77180952D01*
X86042857Y-77228571D01*
X85995238Y-77276190D01*
X85947619Y-77371428D01*
X85947619Y-77561904D01*
X85995238Y-77657142D01*
X86614285Y-76847619D02*
X85947619Y-76609523D01*
X86614285Y-76371428D02*
X85947619Y-76609523D01*
X85709523Y-76704761D01*
X85661904Y-76752380D01*
X85614285Y-76847619D01*
X85995238Y-75276190D02*
X85947619Y-75133333D01*
X85947619Y-74895238D01*
X85995238Y-74800000D01*
X86042857Y-74752380D01*
X86138095Y-74704761D01*
X86233333Y-74704761D01*
X86328571Y-74752380D01*
X86376190Y-74800000D01*
X86423809Y-74895238D01*
X86471428Y-75085714D01*
X86519047Y-75180952D01*
X86566666Y-75228571D01*
X86661904Y-75276190D01*
X86757142Y-75276190D01*
X86852380Y-75228571D01*
X86900000Y-75180952D01*
X86947619Y-75085714D01*
X86947619Y-74847619D01*
X86900000Y-74704761D01*
X85947619Y-74276190D02*
X86614285Y-74276190D01*
X86423809Y-74276190D02*
X86519047Y-74228571D01*
X86566666Y-74180952D01*
X86614285Y-74085714D01*
X86614285Y-73990476D01*
X85995238Y-73276190D02*
X85947619Y-73371428D01*
X85947619Y-73561904D01*
X85995238Y-73657142D01*
X86090476Y-73704761D01*
X86471428Y-73704761D01*
X86566666Y-73657142D01*
X86614285Y-73561904D01*
X86614285Y-73371428D01*
X86566666Y-73276190D01*
X86471428Y-73228571D01*
X86376190Y-73228571D01*
X86280952Y-73704761D01*
X85995238Y-72419047D02*
X85947619Y-72514285D01*
X85947619Y-72704761D01*
X85995238Y-72800000D01*
X86090476Y-72847619D01*
X86471428Y-72847619D01*
X86566666Y-72800000D01*
X86614285Y-72704761D01*
X86614285Y-72514285D01*
X86566666Y-72419047D01*
X86471428Y-72371428D01*
X86376190Y-72371428D01*
X86280952Y-72847619D01*
X86614285Y-71942857D02*
X85947619Y-71942857D01*
X86519047Y-71942857D02*
X86566666Y-71895238D01*
X86614285Y-71800000D01*
X86614285Y-71657142D01*
X86566666Y-71561904D01*
X86471428Y-71514285D01*
X85947619Y-71514285D01*
X85947619Y-71038095D02*
X86614285Y-71038095D01*
X86947619Y-71038095D02*
X86900000Y-71085714D01*
X86852380Y-71038095D01*
X86900000Y-70990476D01*
X86947619Y-71038095D01*
X86852380Y-71038095D01*
X86614285Y-70657142D02*
X85947619Y-70419047D01*
X86614285Y-70180952D01*
X85947619Y-69371428D02*
X86471428Y-69371428D01*
X86566666Y-69419047D01*
X86614285Y-69514285D01*
X86614285Y-69704761D01*
X86566666Y-69800000D01*
X85995238Y-69371428D02*
X85947619Y-69466666D01*
X85947619Y-69704761D01*
X85995238Y-69800000D01*
X86090476Y-69847619D01*
X86185714Y-69847619D01*
X86280952Y-69800000D01*
X86328571Y-69704761D01*
X86328571Y-69466666D01*
X86376190Y-69371428D01*
X85995238Y-68942857D02*
X85947619Y-68847619D01*
X85947619Y-68657142D01*
X85995238Y-68561904D01*
X86090476Y-68514285D01*
X86138095Y-68514285D01*
X86233333Y-68561904D01*
X86280952Y-68657142D01*
X86280952Y-68800000D01*
X86328571Y-68895238D01*
X86423809Y-68942857D01*
X86471428Y-68942857D01*
X86566666Y-68895238D01*
X86614285Y-68800000D01*
X86614285Y-68657142D01*
X86566666Y-68561904D01*
X86471428Y-67323809D02*
X86471428Y-66990476D01*
X85947619Y-66847619D02*
X85947619Y-67323809D01*
X86947619Y-67323809D01*
X86947619Y-66847619D01*
X85947619Y-65990476D02*
X86471428Y-65990476D01*
X86566666Y-66038095D01*
X86614285Y-66133333D01*
X86614285Y-66323809D01*
X86566666Y-66419047D01*
X85995238Y-65990476D02*
X85947619Y-66085714D01*
X85947619Y-66323809D01*
X85995238Y-66419047D01*
X86090476Y-66466666D01*
X86185714Y-66466666D01*
X86280952Y-66419047D01*
X86328571Y-66323809D01*
X86328571Y-66085714D01*
X86376190Y-65990476D01*
X85947619Y-65085714D02*
X86947619Y-65085714D01*
X85995238Y-65085714D02*
X85947619Y-65180952D01*
X85947619Y-65371428D01*
X85995238Y-65466666D01*
X86042857Y-65514285D01*
X86138095Y-65561904D01*
X86423809Y-65561904D01*
X86519047Y-65514285D01*
X86566666Y-65466666D01*
X86614285Y-65371428D01*
X86614285Y-65180952D01*
X86566666Y-65085714D01*
X85947619Y-64180952D02*
X86471428Y-64180952D01*
X86566666Y-64228571D01*
X86614285Y-64323809D01*
X86614285Y-64514285D01*
X86566666Y-64609523D01*
X85995238Y-64180952D02*
X85947619Y-64276190D01*
X85947619Y-64514285D01*
X85995238Y-64609523D01*
X86090476Y-64657142D01*
X86185714Y-64657142D01*
X86280952Y-64609523D01*
X86328571Y-64514285D01*
X86328571Y-64276190D01*
X86376190Y-64180952D01*
X85947619Y-63704761D02*
X86614285Y-63704761D01*
X86423809Y-63704761D02*
X86519047Y-63657142D01*
X86566666Y-63609523D01*
X86614285Y-63514285D01*
X86614285Y-63419047D01*
X85947619Y-62657142D02*
X86471428Y-62657142D01*
X86566666Y-62704761D01*
X86614285Y-62800000D01*
X86614285Y-62990476D01*
X86566666Y-63085714D01*
X85995238Y-62657142D02*
X85947619Y-62752380D01*
X85947619Y-62990476D01*
X85995238Y-63085714D01*
X86090476Y-63133333D01*
X86185714Y-63133333D01*
X86280952Y-63085714D01*
X86328571Y-62990476D01*
X86328571Y-62752380D01*
X86376190Y-62657142D01*
X132011904Y-61042857D02*
X130488095Y-61042857D01*
X131250000Y-61804761D02*
X131250000Y-60280952D01*
X131202380Y-65259523D02*
X131202380Y-64783333D01*
X131678571Y-64735714D01*
X131630952Y-64783333D01*
X131583333Y-64878571D01*
X131583333Y-65116666D01*
X131630952Y-65211904D01*
X131678571Y-65259523D01*
X131773809Y-65307142D01*
X132011904Y-65307142D01*
X132107142Y-65259523D01*
X132154761Y-65211904D01*
X132202380Y-65116666D01*
X132202380Y-64878571D01*
X132154761Y-64783333D01*
X132107142Y-64735714D01*
X131202380Y-65592857D02*
X132202380Y-65926190D01*
X131202380Y-66259523D01*
X95261904Y-107642857D02*
X93738095Y-107642857D01*
X94500000Y-108404761D02*
X94500000Y-106880952D01*
X89247619Y-83333333D02*
X88533333Y-83333333D01*
X88390476Y-83380952D01*
X88295238Y-83476190D01*
X88247619Y-83619047D01*
X88247619Y-83714285D01*
X88247619Y-82380952D02*
X88247619Y-82857142D01*
X89247619Y-82857142D01*
X88342857Y-81476190D02*
X88295238Y-81523809D01*
X88247619Y-81666666D01*
X88247619Y-81761904D01*
X88295238Y-81904761D01*
X88390476Y-82000000D01*
X88485714Y-82047619D01*
X88676190Y-82095238D01*
X88819047Y-82095238D01*
X89009523Y-82047619D01*
X89104761Y-82000000D01*
X89200000Y-81904761D01*
X89247619Y-81761904D01*
X89247619Y-81666666D01*
X89200000Y-81523809D01*
X89152380Y-81476190D01*
X89247619Y-80761904D02*
X88533333Y-80761904D01*
X88390476Y-80809523D01*
X88295238Y-80904761D01*
X88247619Y-81047619D01*
X88247619Y-81142857D01*
X88247619Y-79809523D02*
X88247619Y-80285714D01*
X89247619Y-80285714D01*
X88342857Y-78904761D02*
X88295238Y-78952380D01*
X88247619Y-79095238D01*
X88247619Y-79190476D01*
X88295238Y-79333333D01*
X88390476Y-79428571D01*
X88485714Y-79476190D01*
X88676190Y-79523809D01*
X88819047Y-79523809D01*
X89009523Y-79476190D01*
X89104761Y-79428571D01*
X89200000Y-79333333D01*
X89247619Y-79190476D01*
X89247619Y-79095238D01*
X89200000Y-78952380D01*
X89152380Y-78904761D01*
X89247619Y-78190476D02*
X88533333Y-78190476D01*
X88390476Y-78238095D01*
X88295238Y-78333333D01*
X88247619Y-78476190D01*
X88247619Y-78571428D01*
X88247619Y-77238095D02*
X88247619Y-77714285D01*
X89247619Y-77714285D01*
X88342857Y-76333333D02*
X88295238Y-76380952D01*
X88247619Y-76523809D01*
X88247619Y-76619047D01*
X88295238Y-76761904D01*
X88390476Y-76857142D01*
X88485714Y-76904761D01*
X88676190Y-76952380D01*
X88819047Y-76952380D01*
X89009523Y-76904761D01*
X89104761Y-76857142D01*
X89200000Y-76761904D01*
X89247619Y-76619047D01*
X89247619Y-76523809D01*
X89200000Y-76380952D01*
X89152380Y-76333333D01*
X149042857Y-60738095D02*
X149042857Y-62261904D01*
X98761904Y-107642857D02*
X97238095Y-107642857D01*
X131202380Y-67166666D02*
X132202380Y-67500000D01*
X131202380Y-67833333D01*
X132107142Y-68738095D02*
X132154761Y-68690476D01*
X132202380Y-68547619D01*
X132202380Y-68452380D01*
X132154761Y-68309523D01*
X132059523Y-68214285D01*
X131964285Y-68166666D01*
X131773809Y-68119047D01*
X131630952Y-68119047D01*
X131440476Y-68166666D01*
X131345238Y-68214285D01*
X131250000Y-68309523D01*
X131202380Y-68452380D01*
X131202380Y-68547619D01*
X131250000Y-68690476D01*
X131297619Y-68738095D01*
X132107142Y-69738095D02*
X132154761Y-69690476D01*
X132202380Y-69547619D01*
X132202380Y-69452380D01*
X132154761Y-69309523D01*
X132059523Y-69214285D01*
X131964285Y-69166666D01*
X131773809Y-69119047D01*
X131630952Y-69119047D01*
X131440476Y-69166666D01*
X131345238Y-69214285D01*
X131250000Y-69309523D01*
X131202380Y-69452380D01*
X131202380Y-69547619D01*
X131250000Y-69690476D01*
X131297619Y-69738095D01*
X149042857Y-64238095D02*
X149042857Y-65761904D01*
X149804761Y-65000000D02*
X148280952Y-65000000D01*
X129511904Y-61042857D02*
X127988095Y-61042857D01*
%TO.C,J6*%
X93052380Y-59966666D02*
X93766666Y-59966666D01*
X93909523Y-59919047D01*
X94004761Y-59823809D01*
X94052380Y-59680952D01*
X94052380Y-59585714D01*
X93052380Y-60871428D02*
X93052380Y-60680952D01*
X93100000Y-60585714D01*
X93147619Y-60538095D01*
X93290476Y-60442857D01*
X93480952Y-60395238D01*
X93861904Y-60395238D01*
X93957142Y-60442857D01*
X94004761Y-60490476D01*
X94052380Y-60585714D01*
X94052380Y-60776190D01*
X94004761Y-60871428D01*
X93957142Y-60919047D01*
X93861904Y-60966666D01*
X93623809Y-60966666D01*
X93528571Y-60919047D01*
X93480952Y-60871428D01*
X93433333Y-60776190D01*
X93433333Y-60585714D01*
X93480952Y-60490476D01*
X93528571Y-60442857D01*
X93623809Y-60395238D01*
%TO.C,JP1*%
X135252380Y-66416666D02*
X135966666Y-66416666D01*
X136109523Y-66369047D01*
X136204761Y-66273809D01*
X136252380Y-66130952D01*
X136252380Y-66035714D01*
X136252380Y-66892857D02*
X135252380Y-66892857D01*
X135252380Y-67273809D01*
X135300000Y-67369047D01*
X135347619Y-67416666D01*
X135442857Y-67464285D01*
X135585714Y-67464285D01*
X135680952Y-67416666D01*
X135728571Y-67369047D01*
X135776190Y-67273809D01*
X135776190Y-66892857D01*
X136252380Y-68416666D02*
X136252380Y-67845238D01*
X136252380Y-68130952D02*
X135252380Y-68130952D01*
X135395238Y-68035714D01*
X135490476Y-67940476D01*
X135538095Y-67845238D01*
D11*
%TO.C,J6*%
X94890000Y-56750000D02*
X94890000Y-59350000D01*
X94890000Y-59350000D02*
X143210000Y-59350000D01*
X92290000Y-56750000D02*
X94890000Y-56750000D01*
X143210000Y-54150000D02*
X143210000Y-59350000D01*
X92290000Y-54150000D02*
X92290000Y-56750000D01*
X92290000Y-59350000D02*
X93620000Y-59350000D01*
X92290000Y-54150000D02*
X143210000Y-54150000D01*
X92290000Y-58020000D02*
X92290000Y-59350000D01*
%TO.C,JP1*%
X132800000Y-68450000D02*
X132500000Y-68150000D01*
X132800000Y-68450000D02*
X132500000Y-68750000D01*
X134300000Y-65200000D02*
X133700000Y-65200000D01*
X133000000Y-65850000D02*
X133000000Y-68650000D01*
X135000000Y-68650000D02*
X135000000Y-65850000D01*
X133700000Y-69300000D02*
X134300000Y-69300000D01*
X132500000Y-68750000D02*
X132500000Y-68150000D01*
X133000000Y-68600000D02*
G75*
G03*
X133700000Y-69300000I699999J-1D01*
G01*
X134300000Y-69300000D02*
G75*
G03*
X135000000Y-68600000I1J699999D01*
G01*
X135000000Y-65900000D02*
G75*
G03*
X134300000Y-65200000I-700000J0D01*
G01*
X133700000Y-65200000D02*
G75*
G03*
X133000000Y-65900000I0J-700000D01*
G01*
%TD*%
M02*
