M48
; DRILL file {KiCad (6.0.4)} date Fri May  6 21:18:56 2022
; FORMAT={-:-/ absolute / metric / decimal}
; #@! TF.CreationDate,2022-05-06T21:18:56+01:00
; #@! TF.GenerationSoftware,Kicad,Pcbnew,(6.0.4)
; #@! TF.FileFunction,Plated,1,2,PTH
FMAT,2
METRIC
; #@! TA.AperFunction,Plated,PTH,ViaDrill
T1C0.400
; #@! TA.AperFunction,Plated,PTH,ComponentDrill
T2C1.000
; #@! TA.AperFunction,Plated,PTH,ComponentDrill
T3C1.200
; #@! TA.AperFunction,Plated,PTH,ComponentDrill
T4C1.780
; #@! TA.AperFunction,Plated,PTH,ComponentDrill
T5C2.700
%
G90
G05
T1
X123.95Y-106.7
X125.65Y-105.35
X125.65Y-106.7
X126.0Y-62.75
X126.0Y-81.25
X128.6Y-75.6
X128.6Y-77.5
X128.6Y-79.6
X128.6Y-81.4
X129.15Y-72.5
X129.15Y-73.5
X129.25Y-65.25
X129.25Y-70.75
X129.9Y-72.0
X129.9Y-73.0
X129.9Y-74.0
X130.2Y-75.6
X130.2Y-81.4
X131.25Y-67.25
X131.8Y-81.4
X131.9Y-75.6
X132.22Y-92.25
X134.0Y-69.5
X134.0Y-71.5
X135.69Y-62.364
X136.05Y-61.65
X136.05Y-64.35
X136.2Y-78.6
X136.25Y-70.0
X136.25Y-73.25
X136.95Y-65.95
X137.25Y-70.0
X138.25Y-70.0
X139.25Y-70.0
X139.25Y-73.25
X140.0Y-73.75
X140.1Y-61.95
X140.45Y-88.85
X140.5Y-78.75
X141.05Y-91.8
X142.25Y-88.75
X142.25Y-91.9
X143.2Y-92.5
X143.2Y-93.4
X143.2Y-94.4
X143.2Y-95.4
X143.2Y-96.5
X143.25Y-73.5
X143.25Y-74.5
X143.25Y-75.5
X143.75Y-88.75
X143.75Y-91.9
X144.25Y-73.5
X144.25Y-76.0
X145.0Y-88.75
X145.0Y-90.0
X145.0Y-91.25
X145.75Y-77.75
X145.75Y-96.5
X147.0Y-71.5
X147.25Y-100.5
X148.25Y-70.6
X149.3Y-74.6
T2
X93.62Y-55.48
X93.62Y-58.02
X96.16Y-55.48
X96.16Y-58.02
X98.7Y-55.48
X98.7Y-58.02
X101.24Y-55.48
X101.24Y-58.02
X103.78Y-55.48
X103.78Y-58.02
X106.32Y-55.48
X106.32Y-58.02
X108.86Y-55.48
X108.86Y-58.02
X111.4Y-55.48
X111.4Y-58.02
X113.94Y-55.48
X113.94Y-58.02
X116.48Y-55.48
X116.48Y-58.02
X119.02Y-55.48
X119.02Y-58.02
X121.56Y-55.48
X121.56Y-58.02
X124.1Y-55.48
X124.1Y-58.02
X126.64Y-55.48
X126.64Y-58.02
X128.75Y-63.25
X129.18Y-55.48
X129.18Y-58.02
X131.25Y-63.25
X131.72Y-55.48
X131.72Y-58.02
X134.26Y-55.48
X134.26Y-58.02
X136.8Y-55.48
X136.8Y-58.02
X139.34Y-55.48
X139.34Y-58.02
X141.88Y-55.48
X141.88Y-58.02
X146.225Y-62.5
X146.225Y-65.0
T3
X94.5Y-104.65
X98.0Y-104.65
T4
X107.54Y-102.8
X107.54Y-106.2
X117.46Y-102.8
X117.46Y-106.2
T5
X88.75Y-56.75
X88.75Y-105.75
X146.75Y-56.75
X146.75Y-105.75
T0
M30
