%TF.GenerationSoftware,KiCad,Pcbnew,(6.0.4)*%
%TF.CreationDate,2022-05-11T18:11:56+01:00*%
%TF.ProjectId,PiPowerHAT,5069506f-7765-4724-9841-542e6b696361,rev?*%
%TF.SameCoordinates,Original*%
%TF.FileFunction,Paste,Top*%
%TF.FilePolarity,Positive*%
%FSLAX46Y46*%
G04 Gerber Fmt 4.6, Leading zero omitted, Abs format (unit mm)*
G04 Created by KiCad (PCBNEW (6.0.4)) date 2022-05-11 18:11:56*
%MOMM*%
%LPD*%
G01*
G04 APERTURE LIST*
G04 Aperture macros list*
%AMRoundRect*
0 Rectangle with rounded corners*
0 $1 Rounding radius*
0 $2 $3 $4 $5 $6 $7 $8 $9 X,Y pos of 4 corners*
0 Add a 4 corners polygon primitive as box body*
4,1,4,$2,$3,$4,$5,$6,$7,$8,$9,$2,$3,0*
0 Add four circle primitives for the rounded corners*
1,1,$1+$1,$2,$3*
1,1,$1+$1,$4,$5*
1,1,$1+$1,$6,$7*
1,1,$1+$1,$8,$9*
0 Add four rect primitives between the rounded corners*
20,1,$1+$1,$2,$3,$4,$5,0*
20,1,$1+$1,$4,$5,$6,$7,0*
20,1,$1+$1,$6,$7,$8,$9,0*
20,1,$1+$1,$8,$9,$2,$3,0*%
G04 Aperture macros list end*
%ADD10RoundRect,0.135000X-0.135000X-0.185000X0.135000X-0.185000X0.135000X0.185000X-0.135000X0.185000X0*%
%ADD11RoundRect,0.200000X-0.275000X0.200000X-0.275000X-0.200000X0.275000X-0.200000X0.275000X0.200000X0*%
%ADD12R,0.650000X0.400000*%
%ADD13R,1.800000X2.500000*%
%ADD14RoundRect,0.225000X0.225000X0.250000X-0.225000X0.250000X-0.225000X-0.250000X0.225000X-0.250000X0*%
%ADD15RoundRect,0.250000X1.500000X0.550000X-1.500000X0.550000X-1.500000X-0.550000X1.500000X-0.550000X0*%
%ADD16RoundRect,0.150000X0.587500X0.150000X-0.587500X0.150000X-0.587500X-0.150000X0.587500X-0.150000X0*%
%ADD17RoundRect,0.150000X-0.150000X0.587500X-0.150000X-0.587500X0.150000X-0.587500X0.150000X0.587500X0*%
%ADD18R,5.250000X4.550000*%
%ADD19R,1.100000X4.600000*%
%ADD20RoundRect,0.135000X-0.185000X0.135000X-0.185000X-0.135000X0.185000X-0.135000X0.185000X0.135000X0*%
%ADD21R,2.500000X1.800000*%
%ADD22RoundRect,0.250000X1.000000X-1.750000X1.000000X1.750000X-1.000000X1.750000X-1.000000X-1.750000X0*%
%ADD23RoundRect,0.218750X0.256250X-0.218750X0.256250X0.218750X-0.256250X0.218750X-0.256250X-0.218750X0*%
%ADD24R,2.900000X5.400000*%
%ADD25RoundRect,0.135000X0.185000X-0.135000X0.185000X0.135000X-0.185000X0.135000X-0.185000X-0.135000X0*%
%ADD26RoundRect,0.200000X0.275000X-0.200000X0.275000X0.200000X-0.275000X0.200000X-0.275000X-0.200000X0*%
G04 APERTURE END LIST*
D10*
%TO.C,R2*%
X135040000Y-61000000D03*
X136060000Y-61000000D03*
%TD*%
D11*
%TO.C,R9*%
X147250000Y-97925000D03*
X147250000Y-99575000D03*
%TD*%
D12*
%TO.C,Q2*%
X136950000Y-63650000D03*
X136950000Y-63000000D03*
X136950000Y-62350000D03*
X135050000Y-62350000D03*
X135050000Y-63000000D03*
X135050000Y-63650000D03*
%TD*%
D13*
%TO.C,D2*%
X131250000Y-69000000D03*
X131250000Y-73000000D03*
%TD*%
D14*
%TO.C,C3*%
X136775000Y-91250000D03*
X135225000Y-91250000D03*
%TD*%
D15*
%TO.C,C5*%
X142700000Y-71700000D03*
X137300000Y-71700000D03*
%TD*%
D16*
%TO.C,Q1*%
X124437500Y-105700000D03*
X124437500Y-103800000D03*
X122562500Y-104750000D03*
%TD*%
D10*
%TO.C,R1*%
X135040000Y-65000000D03*
X136060000Y-65000000D03*
%TD*%
D17*
%TO.C,Q3*%
X140950000Y-62062500D03*
X139050000Y-62062500D03*
X140000000Y-63937500D03*
%TD*%
D14*
%TO.C,C4*%
X145900000Y-74500000D03*
X144350000Y-74500000D03*
%TD*%
D18*
%TO.C,U1*%
X141275000Y-106375000D03*
X135725000Y-106375000D03*
X141275000Y-101525000D03*
X135725000Y-101525000D03*
D19*
X141900000Y-94800000D03*
X140200000Y-94800000D03*
X138500000Y-94800000D03*
X136800000Y-94800000D03*
X135100000Y-94800000D03*
%TD*%
D20*
%TO.C,R6*%
X147750000Y-68740000D03*
X147750000Y-69760000D03*
%TD*%
D21*
%TO.C,D6*%
X139200000Y-90400000D03*
X143200000Y-90400000D03*
%TD*%
D22*
%TO.C,C1*%
X131000000Y-86500000D03*
X131000000Y-78500000D03*
%TD*%
D14*
%TO.C,C2*%
X133775000Y-91250000D03*
X132225000Y-91250000D03*
%TD*%
D23*
%TO.C,D5*%
X149250000Y-73825000D03*
X149250000Y-72250000D03*
%TD*%
%TO.C,D3*%
X149250000Y-70537500D03*
X149250000Y-68962500D03*
%TD*%
D24*
%TO.C,L1*%
X138350000Y-81950000D03*
X148250000Y-81950000D03*
%TD*%
D25*
%TO.C,R8*%
X147750000Y-72510000D03*
X147750000Y-71490000D03*
%TD*%
D26*
%TO.C,R10*%
X147250000Y-95825000D03*
X147250000Y-94175000D03*
%TD*%
M02*
