%TF.GenerationSoftware,KiCad,Pcbnew,(6.0.4)*%
%TF.CreationDate,2022-05-11T18:11:56+01:00*%
%TF.ProjectId,PiPowerHAT,5069506f-7765-4724-9841-542e6b696361,rev?*%
%TF.SameCoordinates,Original*%
%TF.FileFunction,Copper,L1,Top*%
%TF.FilePolarity,Positive*%
%FSLAX46Y46*%
G04 Gerber Fmt 4.6, Leading zero omitted, Abs format (unit mm)*
G04 Created by KiCad (PCBNEW (6.0.4)) date 2022-05-11 18:11:56*
%MOMM*%
%LPD*%
G01*
G04 APERTURE LIST*
G04 Aperture macros list*
%AMRoundRect*
0 Rectangle with rounded corners*
0 $1 Rounding radius*
0 $2 $3 $4 $5 $6 $7 $8 $9 X,Y pos of 4 corners*
0 Add a 4 corners polygon primitive as box body*
4,1,4,$2,$3,$4,$5,$6,$7,$8,$9,$2,$3,0*
0 Add four circle primitives for the rounded corners*
1,1,$1+$1,$2,$3*
1,1,$1+$1,$4,$5*
1,1,$1+$1,$6,$7*
1,1,$1+$1,$8,$9*
0 Add four rect primitives between the rounded corners*
20,1,$1+$1,$2,$3,$4,$5,0*
20,1,$1+$1,$4,$5,$6,$7,0*
20,1,$1+$1,$6,$7,$8,$9,0*
20,1,$1+$1,$8,$9,$2,$3,0*%
G04 Aperture macros list end*
%TA.AperFunction,ComponentPad*%
%ADD10RoundRect,0.250000X0.750000X-0.600000X0.750000X0.600000X-0.750000X0.600000X-0.750000X-0.600000X0*%
%TD*%
%TA.AperFunction,ComponentPad*%
%ADD11O,2.000000X1.700000*%
%TD*%
%TA.AperFunction,SMDPad,CuDef*%
%ADD12RoundRect,0.135000X-0.135000X-0.185000X0.135000X-0.185000X0.135000X0.185000X-0.135000X0.185000X0*%
%TD*%
%TA.AperFunction,SMDPad,CuDef*%
%ADD13RoundRect,0.200000X-0.275000X0.200000X-0.275000X-0.200000X0.275000X-0.200000X0.275000X0.200000X0*%
%TD*%
%TA.AperFunction,SMDPad,CuDef*%
%ADD14R,0.650000X0.400000*%
%TD*%
%TA.AperFunction,ComponentPad*%
%ADD15C,4.700000*%
%TD*%
%TA.AperFunction,SMDPad,CuDef*%
%ADD16R,1.800000X2.500000*%
%TD*%
%TA.AperFunction,ComponentPad*%
%ADD17R,2.400000X2.400000*%
%TD*%
%TA.AperFunction,ComponentPad*%
%ADD18C,2.400000*%
%TD*%
%TA.AperFunction,SMDPad,CuDef*%
%ADD19RoundRect,0.225000X0.225000X0.250000X-0.225000X0.250000X-0.225000X-0.250000X0.225000X-0.250000X0*%
%TD*%
%TA.AperFunction,SMDPad,CuDef*%
%ADD20RoundRect,0.250000X1.500000X0.550000X-1.500000X0.550000X-1.500000X-0.550000X1.500000X-0.550000X0*%
%TD*%
%TA.AperFunction,SMDPad,CuDef*%
%ADD21RoundRect,0.150000X0.587500X0.150000X-0.587500X0.150000X-0.587500X-0.150000X0.587500X-0.150000X0*%
%TD*%
%TA.AperFunction,SMDPad,CuDef*%
%ADD22RoundRect,0.150000X-0.150000X0.587500X-0.150000X-0.587500X0.150000X-0.587500X0.150000X0.587500X0*%
%TD*%
%TA.AperFunction,SMDPad,CuDef*%
%ADD23R,1.100000X4.600000*%
%TD*%
%TA.AperFunction,SMDPad,CuDef*%
%ADD24R,10.800000X9.400000*%
%TD*%
%TA.AperFunction,SMDPad,CuDef*%
%ADD25RoundRect,0.135000X-0.185000X0.135000X-0.185000X-0.135000X0.185000X-0.135000X0.185000X0.135000X0*%
%TD*%
%TA.AperFunction,ComponentPad*%
%ADD26C,2.780000*%
%TD*%
%TA.AperFunction,SMDPad,CuDef*%
%ADD27R,2.500000X1.800000*%
%TD*%
%TA.AperFunction,ComponentPad*%
%ADD28RoundRect,0.250000X-0.600000X-0.750000X0.600000X-0.750000X0.600000X0.750000X-0.600000X0.750000X0*%
%TD*%
%TA.AperFunction,ComponentPad*%
%ADD29O,1.700000X2.000000*%
%TD*%
%TA.AperFunction,SMDPad,CuDef*%
%ADD30RoundRect,0.250000X1.000000X-1.750000X1.000000X1.750000X-1.000000X1.750000X-1.000000X-1.750000X0*%
%TD*%
%TA.AperFunction,SMDPad,CuDef*%
%ADD31RoundRect,0.218750X0.256250X-0.218750X0.256250X0.218750X-0.256250X0.218750X-0.256250X-0.218750X0*%
%TD*%
%TA.AperFunction,SMDPad,CuDef*%
%ADD32R,2.900000X5.400000*%
%TD*%
%TA.AperFunction,SMDPad,CuDef*%
%ADD33RoundRect,0.135000X0.185000X-0.135000X0.185000X0.135000X-0.185000X0.135000X-0.185000X-0.135000X0*%
%TD*%
%TA.AperFunction,SMDPad,CuDef*%
%ADD34RoundRect,0.200000X0.275000X-0.200000X0.275000X0.200000X-0.275000X0.200000X-0.275000X-0.200000X0*%
%TD*%
%TA.AperFunction,ComponentPad*%
%ADD35R,1.700000X1.700000*%
%TD*%
%TA.AperFunction,ComponentPad*%
%ADD36O,1.700000X1.700000*%
%TD*%
%TA.AperFunction,ViaPad*%
%ADD37C,0.600000*%
%TD*%
%TA.AperFunction,Conductor*%
%ADD38C,2.000000*%
%TD*%
%TA.AperFunction,Conductor*%
%ADD39C,0.500000*%
%TD*%
%TA.AperFunction,Conductor*%
%ADD40C,1.000000*%
%TD*%
%TA.AperFunction,Conductor*%
%ADD41C,0.250000*%
%TD*%
G04 APERTURE END LIST*
D10*
%TO.P,J8,1,Pin_1*%
%TO.N,+5V*%
X146225000Y-65000000D03*
D11*
%TO.P,J8,2,Pin_2*%
%TO.N,GND*%
X146225000Y-62500000D03*
%TD*%
D12*
%TO.P,R2,1*%
%TO.N,Net-(Q2-Pad4)*%
X135040000Y-61000000D03*
%TO.P,R2,2*%
%TO.N,GND*%
X136060000Y-61000000D03*
%TD*%
D13*
%TO.P,R9,1*%
%TO.N,Net-(R10-Pad1)*%
X147250000Y-97925000D03*
%TO.P,R9,2*%
%TO.N,GND*%
X147250000Y-99575000D03*
%TD*%
D14*
%TO.P,Q2,1,E1*%
%TO.N,+5V*%
X136950000Y-63650000D03*
%TO.P,Q2,2,B1*%
%TO.N,Net-(Q2-Pad2)*%
X136950000Y-63000000D03*
%TO.P,Q2,3,C2*%
%TO.N,5V_PI*%
X136950000Y-62350000D03*
%TO.P,Q2,4,E2*%
%TO.N,Net-(Q2-Pad4)*%
X135050000Y-62350000D03*
%TO.P,Q2,5,B2*%
%TO.N,Net-(Q2-Pad2)*%
X135050000Y-63000000D03*
%TO.P,Q2,6,C1*%
X135050000Y-63650000D03*
%TD*%
D15*
%TO.P,H2,1*%
%TO.N,N/C*%
X88750000Y-56750000D03*
%TD*%
D16*
%TO.P,D2,1,K*%
%TO.N,Net-(D2-Pad1)*%
X131250000Y-69000000D03*
%TO.P,D2,2,A*%
%TO.N,GND*%
X131250000Y-73000000D03*
%TD*%
D17*
%TO.P,J1,1,Pin_1*%
%TO.N,Net-(F1-Pad1)*%
X94500000Y-104650000D03*
D18*
%TO.P,J1,2,Pin_2*%
%TO.N,GND*%
X98000000Y-104650000D03*
%TD*%
D19*
%TO.P,C3,1*%
%TO.N,Net-(C3-Pad1)*%
X136775000Y-91250000D03*
%TO.P,C3,2*%
%TO.N,VCC*%
X135225000Y-91250000D03*
%TD*%
D20*
%TO.P,C5,1*%
%TO.N,+5V*%
X142700000Y-71700000D03*
%TO.P,C5,2*%
%TO.N,GND*%
X137300000Y-71700000D03*
%TD*%
D21*
%TO.P,Q1,1,G*%
%TO.N,GND*%
X124437500Y-105700000D03*
%TO.P,Q1,2,S*%
%TO.N,VCC*%
X124437500Y-103800000D03*
%TO.P,Q1,3,D*%
%TO.N,Net-(F1-Pad2)*%
X122562500Y-104750000D03*
%TD*%
D12*
%TO.P,R1,1*%
%TO.N,Net-(Q2-Pad2)*%
X135040000Y-65000000D03*
%TO.P,R1,2*%
%TO.N,GND*%
X136060000Y-65000000D03*
%TD*%
D22*
%TO.P,Q3,1,G*%
%TO.N,Net-(Q2-Pad4)*%
X140950000Y-62062500D03*
%TO.P,Q3,2,S*%
%TO.N,5V_PI*%
X139050000Y-62062500D03*
%TO.P,Q3,3,D*%
%TO.N,+5V*%
X140000000Y-63937500D03*
%TD*%
D19*
%TO.P,C4,1*%
%TO.N,+5V*%
X145900000Y-74500000D03*
%TO.P,C4,2*%
%TO.N,GND*%
X144350000Y-74500000D03*
%TD*%
D23*
%TO.P,U1,1,GND*%
%TO.N,GND*%
X141900000Y-94800000D03*
%TO.P,U1,2,FB*%
%TO.N,Net-(R10-Pad1)*%
X140200000Y-94800000D03*
%TO.P,U1,3,SW*%
%TO.N,Net-(D6-Pad1)*%
X138500000Y-94800000D03*
D24*
X138500000Y-103950000D03*
D23*
%TO.P,U1,4,VC*%
%TO.N,Net-(C3-Pad1)*%
X136800000Y-94800000D03*
%TO.P,U1,5,VIN*%
%TO.N,VCC*%
X135100000Y-94800000D03*
%TD*%
D25*
%TO.P,R6,1*%
%TO.N,Net-(D3-Pad2)*%
X147750000Y-68740000D03*
%TO.P,R6,2*%
%TO.N,+5V*%
X147750000Y-69760000D03*
%TD*%
D26*
%TO.P,F1,1*%
%TO.N,Net-(F1-Pad1)*%
X107540000Y-102800000D03*
X107540000Y-106200000D03*
%TO.P,F1,2*%
%TO.N,Net-(F1-Pad2)*%
X117460000Y-106200000D03*
X117460000Y-102800000D03*
%TD*%
D27*
%TO.P,D6,1,K*%
%TO.N,Net-(D6-Pad1)*%
X139200000Y-90400000D03*
%TO.P,D6,2,A*%
%TO.N,GND*%
X143200000Y-90400000D03*
%TD*%
D28*
%TO.P,J3,1,Pin_1*%
%TO.N,GND*%
X128750000Y-63250000D03*
D29*
%TO.P,J3,2,Pin_2*%
%TO.N,Net-(D2-Pad1)*%
X131250000Y-63250000D03*
%TD*%
D30*
%TO.P,C1,1*%
%TO.N,VCC*%
X131000000Y-86500000D03*
%TO.P,C1,2*%
%TO.N,GND*%
X131000000Y-78500000D03*
%TD*%
D15*
%TO.P,H3,1*%
%TO.N,N/C*%
X146750000Y-56750000D03*
%TD*%
D19*
%TO.P,C2,1*%
%TO.N,unconnected-(C2-Pad1)*%
X133775000Y-91250000D03*
%TO.P,C2,2*%
%TO.N,GND*%
X132225000Y-91250000D03*
%TD*%
D31*
%TO.P,D5,1,K*%
%TO.N,GND*%
X149250000Y-73825000D03*
%TO.P,D5,2,A*%
%TO.N,Net-(D5-Pad2)*%
X149250000Y-72250000D03*
%TD*%
%TO.P,D3,1,K*%
%TO.N,GND*%
X149250000Y-70537500D03*
%TO.P,D3,2,A*%
%TO.N,Net-(D3-Pad2)*%
X149250000Y-68962500D03*
%TD*%
D32*
%TO.P,L1,1,1*%
%TO.N,Net-(D6-Pad1)*%
X138350000Y-81950000D03*
%TO.P,L1,2,2*%
%TO.N,+5V*%
X148250000Y-81950000D03*
%TD*%
D33*
%TO.P,R8,1*%
%TO.N,Net-(D5-Pad2)*%
X147750000Y-72510000D03*
%TO.P,R8,2*%
%TO.N,VCC*%
X147750000Y-71490000D03*
%TD*%
D34*
%TO.P,R10,1*%
%TO.N,Net-(R10-Pad1)*%
X147250000Y-95825000D03*
%TO.P,R10,2*%
%TO.N,+5V*%
X147250000Y-94175000D03*
%TD*%
D15*
%TO.P,H1,1*%
%TO.N,N/C*%
X146750000Y-105750000D03*
%TD*%
%TO.P,H4,1*%
%TO.N,N/C*%
X88750000Y-105750000D03*
%TD*%
D35*
%TO.P,J6,1,3V3*%
%TO.N,unconnected-(J6-Pad1)*%
X93620000Y-58020000D03*
D36*
%TO.P,J6,2,5V*%
%TO.N,5V_PI*%
X93620000Y-55480000D03*
%TO.P,J6,3,SDA/GPIO2*%
%TO.N,unconnected-(J6-Pad3)*%
X96160000Y-58020000D03*
%TO.P,J6,4,5V*%
%TO.N,5V_PI*%
X96160000Y-55480000D03*
%TO.P,J6,5,SCL/GPIO3*%
%TO.N,unconnected-(J6-Pad5)*%
X98700000Y-58020000D03*
%TO.P,J6,6,GND*%
%TO.N,GND*%
X98700000Y-55480000D03*
%TO.P,J6,7,GCLK0/GPIO4*%
%TO.N,unconnected-(J6-Pad7)*%
X101240000Y-58020000D03*
%TO.P,J6,8,GPIO14/TXD*%
%TO.N,unconnected-(J6-Pad8)*%
X101240000Y-55480000D03*
%TO.P,J6,9,GND*%
%TO.N,GND*%
X103780000Y-58020000D03*
%TO.P,J6,10,GPIO15/RXD*%
%TO.N,unconnected-(J6-Pad10)*%
X103780000Y-55480000D03*
%TO.P,J6,11,GPIO17*%
%TO.N,unconnected-(J6-Pad11)*%
X106320000Y-58020000D03*
%TO.P,J6,12,GPIO18/PWM0*%
%TO.N,unconnected-(J6-Pad12)*%
X106320000Y-55480000D03*
%TO.P,J6,13,GPIO27*%
%TO.N,unconnected-(J6-Pad13)*%
X108860000Y-58020000D03*
%TO.P,J6,14,GND*%
%TO.N,GND*%
X108860000Y-55480000D03*
%TO.P,J6,15,GPIO22*%
%TO.N,unconnected-(J6-Pad15)*%
X111400000Y-58020000D03*
%TO.P,J6,16,GPIO23*%
%TO.N,unconnected-(J6-Pad16)*%
X111400000Y-55480000D03*
%TO.P,J6,17,3V3*%
%TO.N,unconnected-(J6-Pad17)*%
X113940000Y-58020000D03*
%TO.P,J6,18,GPIO24*%
%TO.N,unconnected-(J6-Pad18)*%
X113940000Y-55480000D03*
%TO.P,J6,19,MOSI0/GPIO10*%
%TO.N,unconnected-(J6-Pad19)*%
X116480000Y-58020000D03*
%TO.P,J6,20,GND*%
%TO.N,GND*%
X116480000Y-55480000D03*
%TO.P,J6,21,MISO0/GPIO9*%
%TO.N,unconnected-(J6-Pad21)*%
X119020000Y-58020000D03*
%TO.P,J6,22,GPIO25*%
%TO.N,unconnected-(J6-Pad22)*%
X119020000Y-55480000D03*
%TO.P,J6,23,SCLK0/GPIO11*%
%TO.N,unconnected-(J6-Pad23)*%
X121560000Y-58020000D03*
%TO.P,J6,24,~{CE0}/GPIO8*%
%TO.N,unconnected-(J6-Pad24)*%
X121560000Y-55480000D03*
%TO.P,J6,25,GND*%
%TO.N,GND*%
X124100000Y-58020000D03*
%TO.P,J6,26,~{CE1}/GPIO7*%
%TO.N,unconnected-(J6-Pad26)*%
X124100000Y-55480000D03*
%TO.P,J6,27,ID_SD/GPIO0*%
%TO.N,unconnected-(J6-Pad27)*%
X126640000Y-58020000D03*
%TO.P,J6,28,ID_SC/GPIO1*%
%TO.N,unconnected-(J6-Pad28)*%
X126640000Y-55480000D03*
%TO.P,J6,29,GCLK1/GPIO5*%
%TO.N,unconnected-(J6-Pad29)*%
X129180000Y-58020000D03*
%TO.P,J6,30,GND*%
%TO.N,GND*%
X129180000Y-55480000D03*
%TO.P,J6,31,GCLK2/GPIO6*%
%TO.N,unconnected-(J6-Pad31)*%
X131720000Y-58020000D03*
%TO.P,J6,32,PWM0/GPIO12*%
%TO.N,unconnected-(J6-Pad32)*%
X131720000Y-55480000D03*
%TO.P,J6,33,PWM1/GPIO13*%
%TO.N,unconnected-(J6-Pad33)*%
X134260000Y-58020000D03*
%TO.P,J6,34,GND*%
%TO.N,GND*%
X134260000Y-55480000D03*
%TO.P,J6,35,GPIO19/MISO1*%
%TO.N,unconnected-(J6-Pad35)*%
X136800000Y-58020000D03*
%TO.P,J6,36,GPIO16*%
%TO.N,unconnected-(J6-Pad36)*%
X136800000Y-55480000D03*
%TO.P,J6,37,GPIO26*%
%TO.N,unconnected-(J6-Pad37)*%
X139340000Y-58020000D03*
%TO.P,J6,38,GPIO20/MOSI1*%
%TO.N,unconnected-(J6-Pad38)*%
X139340000Y-55480000D03*
%TO.P,J6,39,GND*%
%TO.N,GND*%
X141880000Y-58020000D03*
%TO.P,J6,40,GPIO21/SCLK1*%
%TO.N,unconnected-(J6-Pad40)*%
X141880000Y-55480000D03*
%TD*%
D37*
%TO.N,VCC*%
X147000000Y-71500000D03*
X134000000Y-71500000D03*
X134000000Y-69500000D03*
%TO.N,GND*%
X148250000Y-70600000D03*
X143250000Y-74500000D03*
X126000000Y-62750000D03*
X136050000Y-61650000D03*
X145750000Y-96500000D03*
X136250000Y-70000000D03*
X123950000Y-106700000D03*
X136250000Y-73250000D03*
X143250000Y-73500000D03*
X143200000Y-94400000D03*
X129900000Y-74000000D03*
X142250000Y-88750000D03*
X141050000Y-91800000D03*
X139250000Y-70000000D03*
X138250000Y-70000000D03*
X132220000Y-92250000D03*
X145000000Y-90000000D03*
X128600000Y-77500000D03*
X136200000Y-78600000D03*
X142250000Y-91900000D03*
X129150000Y-72500000D03*
X140500000Y-78750000D03*
X143250000Y-75500000D03*
X143750000Y-91900000D03*
X130200000Y-75600000D03*
X129150000Y-73500000D03*
X131800000Y-81400000D03*
X145000000Y-88750000D03*
X128600000Y-75600000D03*
X129900000Y-72000000D03*
X129900000Y-73000000D03*
X145750000Y-77750000D03*
X144250000Y-73500000D03*
X145000000Y-91250000D03*
X130200000Y-81400000D03*
X128600000Y-79600000D03*
X126000000Y-81250000D03*
X143750000Y-88750000D03*
X140450000Y-88850000D03*
X143200000Y-95400000D03*
X140000000Y-73750000D03*
X129250000Y-65250000D03*
X147250000Y-100500000D03*
X143200000Y-96500000D03*
X136050000Y-64350000D03*
X128600000Y-81400000D03*
X143200000Y-92500000D03*
X129250000Y-70750000D03*
X137250000Y-70000000D03*
X143200000Y-93400000D03*
X125650000Y-106700000D03*
X149300000Y-74600000D03*
X144250000Y-76000000D03*
X125650000Y-105350000D03*
X131900000Y-75600000D03*
X139250000Y-73250000D03*
%TO.N,+5V*%
X136950000Y-65950000D03*
%TO.N,Net-(Q2-Pad4)*%
X140100000Y-61950000D03*
X135690434Y-62364084D03*
%TO.N,Net-(D2-Pad1)*%
X131250000Y-67250000D03*
%TD*%
D38*
%TO.N,VCC*%
X134000000Y-69500000D02*
X134000000Y-71500000D01*
X134000000Y-71500000D02*
X134000000Y-83800000D01*
D39*
X147000000Y-71500000D02*
X147010000Y-71490000D01*
X147010000Y-71490000D02*
X147750000Y-71490000D01*
%TO.N,GND*%
X136060000Y-65000000D02*
X136060000Y-64360000D01*
X136060000Y-64360000D02*
X136050000Y-64350000D01*
X148250000Y-70600000D02*
X149187500Y-70600000D01*
X136060000Y-61640000D02*
X136060000Y-61000000D01*
D40*
X147250000Y-100500000D02*
X147250000Y-99575000D01*
D39*
X136050000Y-61650000D02*
X136060000Y-61640000D01*
D40*
X132225000Y-92245000D02*
X132225000Y-91250000D01*
D39*
X149250000Y-74550000D02*
X149300000Y-74600000D01*
X149187500Y-70600000D02*
X149250000Y-70537500D01*
X149250000Y-73825000D02*
X149250000Y-74550000D01*
D40*
X132220000Y-92250000D02*
X132225000Y-92245000D01*
%TO.N,Net-(C3-Pad1)*%
X136775000Y-91250000D02*
X136775000Y-94400000D01*
D39*
%TO.N,Net-(D3-Pad2)*%
X147750000Y-68740000D02*
X149027500Y-68740000D01*
X149027500Y-68740000D02*
X149250000Y-68962500D01*
%TO.N,Net-(D5-Pad2)*%
X148990000Y-72510000D02*
X149250000Y-72250000D01*
X147750000Y-72510000D02*
X148990000Y-72510000D01*
D40*
%TO.N,Net-(D6-Pad1)*%
X138500000Y-103875000D02*
X138500000Y-94725000D01*
D38*
X138800000Y-81950000D02*
X138800000Y-89850000D01*
D40*
X138500000Y-94725000D02*
X138500000Y-90950000D01*
X138500000Y-90950000D02*
X139200000Y-90250000D01*
D38*
X138800000Y-89850000D02*
X139200000Y-90250000D01*
D41*
%TO.N,Net-(Q2-Pad2)*%
X136950000Y-63000000D02*
X135050000Y-63000000D01*
X135050000Y-63000000D02*
X135050000Y-63650000D01*
D39*
X135040000Y-63660000D02*
X135050000Y-63650000D01*
X135040000Y-65000000D02*
X135040000Y-63660000D01*
%TO.N,Net-(Q2-Pad4)*%
X140100000Y-61950000D02*
X140950000Y-61950000D01*
X135050000Y-62350000D02*
X135050000Y-61010000D01*
X135050000Y-61010000D02*
X135040000Y-61000000D01*
X135676350Y-62350000D02*
X135690434Y-62364084D01*
X135050000Y-62350000D02*
X135676350Y-62350000D01*
D40*
%TO.N,Net-(R10-Pad1)*%
X147250000Y-97925000D02*
X147250000Y-95825000D01*
X140200000Y-94725000D02*
X140200000Y-96974022D01*
X147225000Y-97900000D02*
X147250000Y-97925000D01*
X141125978Y-97900000D02*
X147225000Y-97900000D01*
X140200000Y-96974022D02*
X141125978Y-97900000D01*
D38*
%TO.N,Net-(D2-Pad1)*%
X131250000Y-67050000D02*
X131250000Y-69000000D01*
X131250000Y-66650000D02*
X131250000Y-63250000D01*
%TD*%
%TA.AperFunction,Conductor*%
%TO.N,Net-(F1-Pad1)*%
G36*
X111442121Y-100520002D02*
G01*
X111488614Y-100573658D01*
X111500000Y-100626000D01*
X111500000Y-108374000D01*
X111479998Y-108442121D01*
X111426342Y-108488614D01*
X111374000Y-108500000D01*
X91876000Y-108500000D01*
X91807879Y-108479998D01*
X91761386Y-108426342D01*
X91750000Y-108374000D01*
X91750000Y-107963166D01*
X106843114Y-107963166D01*
X106846396Y-107967551D01*
X106919531Y-107998520D01*
X106927936Y-108001398D01*
X107179140Y-108068002D01*
X107187861Y-108069666D01*
X107445948Y-108100213D01*
X107454813Y-108100631D01*
X107714617Y-108094508D01*
X107723472Y-108093671D01*
X107979821Y-108051003D01*
X107988455Y-108048930D01*
X108232662Y-107971697D01*
X108240089Y-107965006D01*
X108238133Y-107958793D01*
X107552812Y-107273472D01*
X107538868Y-107265858D01*
X107537035Y-107265989D01*
X107530420Y-107270240D01*
X106849874Y-107950786D01*
X106843114Y-107963166D01*
X91750000Y-107963166D01*
X91750000Y-105894669D01*
X92792001Y-105894669D01*
X92792371Y-105901490D01*
X92797895Y-105952352D01*
X92801521Y-105967604D01*
X92846676Y-106088054D01*
X92855214Y-106103649D01*
X92931715Y-106205724D01*
X92944276Y-106218285D01*
X93046351Y-106294786D01*
X93061946Y-106303324D01*
X93182394Y-106348478D01*
X93197649Y-106352105D01*
X93248514Y-106357631D01*
X93255328Y-106358000D01*
X93731885Y-106358000D01*
X93747124Y-106353525D01*
X93748329Y-106352135D01*
X93750000Y-106344452D01*
X93750000Y-106339884D01*
X95250000Y-106339884D01*
X95254475Y-106355123D01*
X95255865Y-106356328D01*
X95263548Y-106357999D01*
X95744669Y-106357999D01*
X95751490Y-106357629D01*
X95802352Y-106352105D01*
X95817604Y-106348479D01*
X95938054Y-106303324D01*
X95953649Y-106294786D01*
X96055724Y-106218285D01*
X96068285Y-106205724D01*
X96144786Y-106103649D01*
X96153324Y-106088054D01*
X96198478Y-105967606D01*
X96202105Y-105952351D01*
X96207631Y-105901486D01*
X96208000Y-105894672D01*
X96208000Y-105425406D01*
X96228002Y-105357285D01*
X96281658Y-105310792D01*
X96351932Y-105300688D01*
X96416512Y-105330182D01*
X96444991Y-105365767D01*
X96470665Y-105413548D01*
X96520620Y-105506519D01*
X96555025Y-105570551D01*
X96557820Y-105574294D01*
X96557822Y-105574297D01*
X96704171Y-105770282D01*
X96704176Y-105770288D01*
X96706963Y-105774020D01*
X96710272Y-105777300D01*
X96710277Y-105777306D01*
X96883990Y-105949509D01*
X96887307Y-105952797D01*
X96891069Y-105955555D01*
X96891072Y-105955558D01*
X96996764Y-106033054D01*
X97092094Y-106102953D01*
X97096229Y-106105129D01*
X97096233Y-106105131D01*
X97214289Y-106167243D01*
X97316827Y-106221191D01*
X97451160Y-106268102D01*
X97552021Y-106303324D01*
X97556568Y-106304912D01*
X97806050Y-106352278D01*
X97926532Y-106357011D01*
X98055125Y-106362064D01*
X98055130Y-106362064D01*
X98059793Y-106362247D01*
X98158774Y-106351407D01*
X98307569Y-106335112D01*
X98307575Y-106335111D01*
X98312222Y-106334602D01*
X98421680Y-106305784D01*
X98553273Y-106271138D01*
X98557793Y-106269948D01*
X98707280Y-106205724D01*
X98786807Y-106171557D01*
X98786810Y-106171555D01*
X98791110Y-106169708D01*
X98795090Y-106167245D01*
X98795094Y-106167243D01*
X98831552Y-106144682D01*
X105638266Y-106144682D01*
X105648468Y-106404359D01*
X105649443Y-106413188D01*
X105696133Y-106668839D01*
X105698342Y-106677442D01*
X105768548Y-106887876D01*
X105776598Y-106899452D01*
X105780191Y-106898801D01*
X105781440Y-106897900D01*
X106466528Y-106212812D01*
X106472906Y-106201132D01*
X108605858Y-106201132D01*
X108605989Y-106202965D01*
X108610240Y-106209580D01*
X109291444Y-106890784D01*
X109303824Y-106897544D01*
X109308469Y-106894067D01*
X109328548Y-106848649D01*
X109331565Y-106840269D01*
X109402101Y-106590166D01*
X109403905Y-106581458D01*
X109438666Y-106322663D01*
X109439194Y-106316270D01*
X109442747Y-106203222D01*
X109442620Y-106196779D01*
X109424180Y-105936335D01*
X109422927Y-105927531D01*
X109368230Y-105673474D01*
X109365751Y-105664941D01*
X109310028Y-105513897D01*
X109301618Y-105502579D01*
X109297119Y-105503541D01*
X108613472Y-106187188D01*
X108605858Y-106201132D01*
X106472906Y-106201132D01*
X106474142Y-106198868D01*
X106474011Y-106197035D01*
X106469760Y-106190420D01*
X105789521Y-105510181D01*
X105777141Y-105503421D01*
X105773003Y-105506519D01*
X105731958Y-105607856D01*
X105729210Y-105616313D01*
X105666562Y-105868518D01*
X105665033Y-105877279D01*
X105638545Y-106135799D01*
X105638266Y-106144682D01*
X98831552Y-106144682D01*
X99003064Y-106038547D01*
X99003066Y-106038545D01*
X99007047Y-106036082D01*
X99010624Y-106033054D01*
X99197289Y-105875031D01*
X99197291Y-105875029D01*
X99200862Y-105872006D01*
X99368295Y-105681084D01*
X99505669Y-105467512D01*
X99609967Y-105235980D01*
X99678896Y-104991575D01*
X99710943Y-104739667D01*
X99713291Y-104650000D01*
X99702856Y-104509580D01*
X99702228Y-104501132D01*
X106905858Y-104501132D01*
X106905989Y-104502965D01*
X106910240Y-104509580D01*
X107527188Y-105126528D01*
X107541132Y-105134142D01*
X107542965Y-105134011D01*
X107549580Y-105129760D01*
X108166528Y-104512812D01*
X108174142Y-104498868D01*
X108174011Y-104497035D01*
X108169760Y-104490420D01*
X107552812Y-103873472D01*
X107538868Y-103865858D01*
X107537035Y-103865989D01*
X107530420Y-103870240D01*
X106913472Y-104487188D01*
X106905858Y-104501132D01*
X99702228Y-104501132D01*
X99694818Y-104401411D01*
X99694817Y-104401407D01*
X99694472Y-104396759D01*
X99638428Y-104149082D01*
X99575391Y-103986983D01*
X99548084Y-103916762D01*
X99548083Y-103916760D01*
X99546391Y-103912409D01*
X99535947Y-103894135D01*
X99422702Y-103695997D01*
X99422700Y-103695995D01*
X99420383Y-103691940D01*
X99263171Y-103492517D01*
X99092957Y-103332396D01*
X99081610Y-103321722D01*
X99081608Y-103321720D01*
X99078209Y-103318523D01*
X98924579Y-103211946D01*
X98873393Y-103176437D01*
X98873390Y-103176435D01*
X98869561Y-103173779D01*
X98865384Y-103171719D01*
X98865377Y-103171715D01*
X98645996Y-103063528D01*
X98645992Y-103063527D01*
X98641810Y-103061464D01*
X98399960Y-102984047D01*
X98395355Y-102983297D01*
X98153935Y-102943980D01*
X98153934Y-102943980D01*
X98149323Y-102943229D01*
X98022365Y-102941567D01*
X97900083Y-102939966D01*
X97900080Y-102939966D01*
X97895406Y-102939905D01*
X97643787Y-102974149D01*
X97399993Y-103045208D01*
X97169380Y-103151522D01*
X97165471Y-103154085D01*
X96960928Y-103288189D01*
X96960923Y-103288193D01*
X96957015Y-103290755D01*
X96910360Y-103332396D01*
X96828647Y-103405328D01*
X96767562Y-103459848D01*
X96605183Y-103655087D01*
X96473447Y-103872182D01*
X96471638Y-103876496D01*
X96471637Y-103876498D01*
X96450196Y-103927629D01*
X96405407Y-103982715D01*
X96337946Y-104004841D01*
X96269233Y-103986983D01*
X96221081Y-103934810D01*
X96207999Y-103878903D01*
X96207999Y-103405331D01*
X96207629Y-103398510D01*
X96202105Y-103347648D01*
X96198479Y-103332396D01*
X96153324Y-103211946D01*
X96144786Y-103196351D01*
X96068285Y-103094276D01*
X96055724Y-103081715D01*
X95953649Y-103005214D01*
X95938054Y-102996676D01*
X95817606Y-102951522D01*
X95802351Y-102947895D01*
X95751486Y-102942369D01*
X95744672Y-102942000D01*
X95268115Y-102942000D01*
X95252876Y-102946475D01*
X95251671Y-102947865D01*
X95250000Y-102955548D01*
X95250000Y-106339884D01*
X93750000Y-106339884D01*
X93750000Y-105418115D01*
X93745525Y-105402876D01*
X93744135Y-105401671D01*
X93736452Y-105400000D01*
X92810116Y-105400000D01*
X92794877Y-105404475D01*
X92793672Y-105405865D01*
X92792001Y-105413548D01*
X92792001Y-105894669D01*
X91750000Y-105894669D01*
X91750000Y-103881885D01*
X92792000Y-103881885D01*
X92796475Y-103897124D01*
X92797865Y-103898329D01*
X92805548Y-103900000D01*
X93731885Y-103900000D01*
X93747124Y-103895525D01*
X93748329Y-103894135D01*
X93750000Y-103886452D01*
X93750000Y-102960116D01*
X93745525Y-102944877D01*
X93744135Y-102943672D01*
X93736452Y-102942001D01*
X93255331Y-102942001D01*
X93248510Y-102942371D01*
X93197648Y-102947895D01*
X93182396Y-102951521D01*
X93061946Y-102996676D01*
X93046351Y-103005214D01*
X92944276Y-103081715D01*
X92931715Y-103094276D01*
X92855214Y-103196351D01*
X92846676Y-103211946D01*
X92801522Y-103332394D01*
X92797895Y-103347649D01*
X92792369Y-103398514D01*
X92792000Y-103405328D01*
X92792000Y-103881885D01*
X91750000Y-103881885D01*
X91750000Y-102744682D01*
X105638266Y-102744682D01*
X105648468Y-103004359D01*
X105649443Y-103013188D01*
X105696133Y-103268839D01*
X105698342Y-103277442D01*
X105768548Y-103487876D01*
X105776598Y-103499452D01*
X105780191Y-103498801D01*
X105781440Y-103497900D01*
X106466528Y-102812812D01*
X106472906Y-102801132D01*
X108605858Y-102801132D01*
X108605989Y-102802965D01*
X108610240Y-102809580D01*
X109291444Y-103490784D01*
X109303824Y-103497544D01*
X109308469Y-103494067D01*
X109328548Y-103448649D01*
X109331565Y-103440269D01*
X109402101Y-103190166D01*
X109403905Y-103181458D01*
X109438666Y-102922663D01*
X109439194Y-102916270D01*
X109442747Y-102803222D01*
X109442620Y-102796779D01*
X109424180Y-102536335D01*
X109422927Y-102527531D01*
X109368230Y-102273474D01*
X109365751Y-102264941D01*
X109310028Y-102113897D01*
X109301618Y-102102579D01*
X109297119Y-102103541D01*
X108613472Y-102787188D01*
X108605858Y-102801132D01*
X106472906Y-102801132D01*
X106474142Y-102798868D01*
X106474011Y-102797035D01*
X106469760Y-102790420D01*
X105789521Y-102110181D01*
X105777141Y-102103421D01*
X105773003Y-102106519D01*
X105731958Y-102207856D01*
X105729210Y-102216313D01*
X105666562Y-102468518D01*
X105665033Y-102477279D01*
X105638545Y-102735799D01*
X105638266Y-102744682D01*
X91750000Y-102744682D01*
X91750000Y-101037682D01*
X106841756Y-101037682D01*
X106842563Y-101041774D01*
X106842920Y-101042260D01*
X107527188Y-101726528D01*
X107541132Y-101734142D01*
X107542965Y-101734011D01*
X107549580Y-101729760D01*
X108229869Y-101049471D01*
X108236629Y-101037091D01*
X108233706Y-101033187D01*
X108103670Y-100982879D01*
X108095175Y-100980265D01*
X107842010Y-100921585D01*
X107833232Y-100920195D01*
X107574321Y-100897771D01*
X107565450Y-100897631D01*
X107305953Y-100911912D01*
X107297143Y-100913026D01*
X107042254Y-100963726D01*
X107033696Y-100966067D01*
X106853204Y-101029451D01*
X106841756Y-101037682D01*
X91750000Y-101037682D01*
X91750000Y-100626000D01*
X91770002Y-100557879D01*
X91823658Y-100511386D01*
X91876000Y-100500000D01*
X111374000Y-100500000D01*
X111442121Y-100520002D01*
G37*
%TD.AperFunction*%
%TD*%
%TA.AperFunction,Conductor*%
%TO.N,VCC*%
G36*
X135018294Y-83270002D02*
G01*
X135036350Y-83284078D01*
X135760177Y-83962666D01*
X135796193Y-84023849D01*
X135800000Y-84054588D01*
X135800000Y-90968621D01*
X135794102Y-91006720D01*
X135783765Y-91039306D01*
X135766500Y-91193227D01*
X135766500Y-92318174D01*
X135758482Y-92362404D01*
X135748255Y-92389684D01*
X135741500Y-92451866D01*
X135741500Y-96974000D01*
X135721498Y-97042121D01*
X135667842Y-97088614D01*
X135615500Y-97100000D01*
X131884500Y-97100000D01*
X131816379Y-97079998D01*
X131769886Y-97026342D01*
X131758500Y-96974000D01*
X131758500Y-93333810D01*
X131778502Y-93265689D01*
X131832158Y-93219196D01*
X131902432Y-93209092D01*
X131922175Y-93213575D01*
X132012768Y-93241965D01*
X132018891Y-93242630D01*
X132018895Y-93242631D01*
X132203263Y-93262659D01*
X132203267Y-93262659D01*
X132209388Y-93263324D01*
X132406413Y-93246087D01*
X132412330Y-93244368D01*
X132412335Y-93244367D01*
X132543064Y-93206386D01*
X132596336Y-93190909D01*
X132771926Y-93099892D01*
X132892973Y-93003262D01*
X132895455Y-93000779D01*
X132898087Y-92998426D01*
X132898138Y-92998483D01*
X132904534Y-92992744D01*
X132929221Y-92972896D01*
X132929230Y-92972887D01*
X132934025Y-92969032D01*
X132937986Y-92964312D01*
X132966310Y-92930558D01*
X132969487Y-92926916D01*
X132971123Y-92925111D01*
X132973309Y-92922925D01*
X133000642Y-92889651D01*
X133001348Y-92888800D01*
X133025580Y-92859922D01*
X133061154Y-92817526D01*
X133063722Y-92812856D01*
X133067103Y-92808739D01*
X133110977Y-92726914D01*
X133111606Y-92725755D01*
X133153462Y-92649619D01*
X133153465Y-92649611D01*
X133156433Y-92644213D01*
X133158045Y-92639131D01*
X133160562Y-92634437D01*
X133187762Y-92545469D01*
X133188108Y-92544358D01*
X133214373Y-92461563D01*
X133216235Y-92455694D01*
X133216829Y-92450398D01*
X133218387Y-92445302D01*
X133227790Y-92352743D01*
X133227911Y-92351607D01*
X133230655Y-92327135D01*
X133258126Y-92261669D01*
X133316630Y-92221447D01*
X133387592Y-92219240D01*
X133392902Y-92220809D01*
X133393712Y-92220983D01*
X133400243Y-92223149D01*
X133407080Y-92223849D01*
X133407082Y-92223850D01*
X133448401Y-92228083D01*
X133501268Y-92233500D01*
X134048732Y-92233500D01*
X134051978Y-92233163D01*
X134051982Y-92233163D01*
X134086083Y-92229625D01*
X134151019Y-92222887D01*
X134228677Y-92196978D01*
X134306324Y-92171073D01*
X134306326Y-92171072D01*
X134313268Y-92168756D01*
X134332599Y-92156794D01*
X134452485Y-92082606D01*
X134458713Y-92078752D01*
X134579552Y-91957702D01*
X134669302Y-91812101D01*
X134723149Y-91649757D01*
X134733500Y-91548732D01*
X134733500Y-90951268D01*
X134722887Y-90848981D01*
X134668756Y-90686732D01*
X134578752Y-90541287D01*
X134457702Y-90420448D01*
X134451471Y-90416607D01*
X134318331Y-90334538D01*
X134318329Y-90334537D01*
X134312101Y-90330698D01*
X134149757Y-90276851D01*
X134142920Y-90276151D01*
X134142918Y-90276150D01*
X134101599Y-90271917D01*
X134048732Y-90266500D01*
X133501268Y-90266500D01*
X133498022Y-90266837D01*
X133498018Y-90266837D01*
X133463917Y-90270375D01*
X133398981Y-90277113D01*
X133392440Y-90279295D01*
X133392441Y-90279295D01*
X133243676Y-90328927D01*
X133243674Y-90328928D01*
X133236732Y-90331244D01*
X133230508Y-90335096D01*
X133230507Y-90335096D01*
X133098787Y-90416607D01*
X133091287Y-90421248D01*
X133086114Y-90426430D01*
X133080380Y-90430975D01*
X133078858Y-90429055D01*
X133026794Y-90457545D01*
X132955974Y-90452544D01*
X132919448Y-90429118D01*
X132918628Y-90430157D01*
X132912882Y-90425619D01*
X132907702Y-90420448D01*
X132901471Y-90416607D01*
X132768331Y-90334538D01*
X132768329Y-90334537D01*
X132762101Y-90330698D01*
X132599757Y-90276851D01*
X132592920Y-90276151D01*
X132592918Y-90276150D01*
X132551599Y-90271917D01*
X132498732Y-90266500D01*
X132477485Y-90266500D01*
X132440233Y-90260867D01*
X132428768Y-90257318D01*
X132345754Y-90248593D01*
X132238204Y-90237289D01*
X132238202Y-90237289D01*
X132232075Y-90236645D01*
X132154290Y-90243724D01*
X132041251Y-90254011D01*
X132041248Y-90254012D01*
X132035112Y-90254570D01*
X132029206Y-90256308D01*
X132029202Y-90256309D01*
X132011994Y-90261374D01*
X131976419Y-90266500D01*
X131951268Y-90266500D01*
X131948025Y-90266836D01*
X131948015Y-90266837D01*
X131894457Y-90272394D01*
X131824635Y-90259529D01*
X131772854Y-90210957D01*
X131755842Y-90156953D01*
X131744923Y-90018223D01*
X131744535Y-90013289D01*
X131689105Y-89782406D01*
X131679203Y-89758500D01*
X131600135Y-89567611D01*
X131600133Y-89567607D01*
X131598240Y-89563037D01*
X131595654Y-89558817D01*
X131476759Y-89364798D01*
X131476755Y-89364792D01*
X131474176Y-89360584D01*
X131319969Y-89180031D01*
X131139416Y-89025824D01*
X131135208Y-89023245D01*
X131135202Y-89023241D01*
X130941183Y-88904346D01*
X130936963Y-88901760D01*
X130932393Y-88899867D01*
X130932389Y-88899865D01*
X130722167Y-88812789D01*
X130722165Y-88812788D01*
X130717594Y-88810895D01*
X130637391Y-88791640D01*
X130491524Y-88756620D01*
X130491518Y-88756619D01*
X130486711Y-88755465D01*
X130250000Y-88736835D01*
X130013289Y-88755465D01*
X130008482Y-88756619D01*
X130008476Y-88756620D01*
X129862609Y-88791640D01*
X129782406Y-88810895D01*
X129777835Y-88812788D01*
X129777833Y-88812789D01*
X129567611Y-88899865D01*
X129567607Y-88899867D01*
X129563037Y-88901760D01*
X129558817Y-88904346D01*
X129364798Y-89023241D01*
X129364792Y-89023245D01*
X129360584Y-89025824D01*
X129180031Y-89180031D01*
X129025824Y-89360584D01*
X129023245Y-89364792D01*
X129023241Y-89364798D01*
X128904346Y-89558817D01*
X128901760Y-89563037D01*
X128899867Y-89567607D01*
X128899865Y-89567611D01*
X128820797Y-89758500D01*
X128810895Y-89782406D01*
X128755465Y-90013289D01*
X128739908Y-90210957D01*
X128738746Y-90225720D01*
X128737785Y-90233921D01*
X128737821Y-90234011D01*
X128736309Y-90243724D01*
X128736946Y-90248593D01*
X128736835Y-90250000D01*
X128737130Y-90250000D01*
X128738380Y-90259560D01*
X128738380Y-90259562D01*
X128740436Y-90275283D01*
X128741500Y-90291620D01*
X128741500Y-104124000D01*
X128721498Y-104192121D01*
X128667842Y-104238614D01*
X128615500Y-104250000D01*
X124126000Y-104250000D01*
X124057879Y-104229998D01*
X124011386Y-104176342D01*
X124000000Y-104124000D01*
X124000000Y-102052190D01*
X124020002Y-101984069D01*
X124036905Y-101963095D01*
X125500000Y-100500000D01*
X125500000Y-85052190D01*
X125520002Y-84984069D01*
X125536905Y-84963095D01*
X127213095Y-83286905D01*
X127275407Y-83252879D01*
X127302190Y-83250000D01*
X134950173Y-83250000D01*
X135018294Y-83270002D01*
G37*
%TD.AperFunction*%
%TD*%
%TA.AperFunction,Conductor*%
%TO.N,Net-(F1-Pad2)*%
G36*
X122942121Y-100520002D02*
G01*
X122988614Y-100573658D01*
X123000000Y-100626000D01*
X123000000Y-108374000D01*
X122979998Y-108442121D01*
X122926342Y-108488614D01*
X122874000Y-108500000D01*
X113626000Y-108500000D01*
X113557879Y-108479998D01*
X113511386Y-108426342D01*
X113500000Y-108374000D01*
X113500000Y-107963166D01*
X116763114Y-107963166D01*
X116766396Y-107967551D01*
X116839531Y-107998520D01*
X116847936Y-108001398D01*
X117099140Y-108068002D01*
X117107861Y-108069666D01*
X117365948Y-108100213D01*
X117374813Y-108100631D01*
X117634617Y-108094508D01*
X117643472Y-108093671D01*
X117899821Y-108051003D01*
X117908455Y-108048930D01*
X118152662Y-107971697D01*
X118160089Y-107965006D01*
X118158133Y-107958793D01*
X117472812Y-107273472D01*
X117458868Y-107265858D01*
X117457035Y-107265989D01*
X117450420Y-107270240D01*
X116769874Y-107950786D01*
X116763114Y-107963166D01*
X113500000Y-107963166D01*
X113500000Y-106144682D01*
X115558266Y-106144682D01*
X115568468Y-106404359D01*
X115569443Y-106413188D01*
X115616133Y-106668839D01*
X115618342Y-106677442D01*
X115688548Y-106887876D01*
X115696598Y-106899452D01*
X115700191Y-106898801D01*
X115701440Y-106897900D01*
X116386528Y-106212812D01*
X116392906Y-106201132D01*
X118525858Y-106201132D01*
X118525989Y-106202965D01*
X118530240Y-106209580D01*
X119211444Y-106890784D01*
X119223824Y-106897544D01*
X119228469Y-106894067D01*
X119248548Y-106848649D01*
X119251565Y-106840269D01*
X119322101Y-106590166D01*
X119323905Y-106581458D01*
X119358666Y-106322663D01*
X119359194Y-106316270D01*
X119362747Y-106203222D01*
X119362620Y-106196779D01*
X119344180Y-105936335D01*
X119342927Y-105927531D01*
X119288230Y-105673474D01*
X119285751Y-105664941D01*
X119230028Y-105513897D01*
X119221618Y-105502579D01*
X119217119Y-105503541D01*
X118533472Y-106187188D01*
X118525858Y-106201132D01*
X116392906Y-106201132D01*
X116394142Y-106198868D01*
X116394011Y-106197035D01*
X116389760Y-106190420D01*
X115709521Y-105510181D01*
X115697141Y-105503421D01*
X115693003Y-105506519D01*
X115651958Y-105607856D01*
X115649210Y-105616313D01*
X115586562Y-105868518D01*
X115585033Y-105877279D01*
X115558545Y-106135799D01*
X115558266Y-106144682D01*
X113500000Y-106144682D01*
X113500000Y-104501132D01*
X116825858Y-104501132D01*
X116825989Y-104502965D01*
X116830240Y-104509580D01*
X117447188Y-105126528D01*
X117461132Y-105134142D01*
X117462965Y-105134011D01*
X117469580Y-105129760D01*
X118086528Y-104512812D01*
X118094142Y-104498868D01*
X118094011Y-104497035D01*
X118089760Y-104490420D01*
X117472812Y-103873472D01*
X117458868Y-103865858D01*
X117457035Y-103865989D01*
X117450420Y-103870240D01*
X116833472Y-104487188D01*
X116825858Y-104501132D01*
X113500000Y-104501132D01*
X113500000Y-102744682D01*
X115558266Y-102744682D01*
X115568468Y-103004359D01*
X115569443Y-103013188D01*
X115616133Y-103268839D01*
X115618342Y-103277442D01*
X115688548Y-103487876D01*
X115696598Y-103499452D01*
X115700191Y-103498801D01*
X115701440Y-103497900D01*
X116386528Y-102812812D01*
X116392906Y-102801132D01*
X118525858Y-102801132D01*
X118525989Y-102802965D01*
X118530240Y-102809580D01*
X119211444Y-103490784D01*
X119223824Y-103497544D01*
X119228469Y-103494067D01*
X119248548Y-103448649D01*
X119251565Y-103440269D01*
X119322101Y-103190166D01*
X119323905Y-103181458D01*
X119358666Y-102922663D01*
X119359194Y-102916270D01*
X119362747Y-102803222D01*
X119362620Y-102796779D01*
X119344180Y-102536335D01*
X119342927Y-102527531D01*
X119288230Y-102273474D01*
X119285751Y-102264941D01*
X119230028Y-102113897D01*
X119221618Y-102102579D01*
X119217119Y-102103541D01*
X118533472Y-102787188D01*
X118525858Y-102801132D01*
X116392906Y-102801132D01*
X116394142Y-102798868D01*
X116394011Y-102797035D01*
X116389760Y-102790420D01*
X115709521Y-102110181D01*
X115697141Y-102103421D01*
X115693003Y-102106519D01*
X115651958Y-102207856D01*
X115649210Y-102216313D01*
X115586562Y-102468518D01*
X115585033Y-102477279D01*
X115558545Y-102735799D01*
X115558266Y-102744682D01*
X113500000Y-102744682D01*
X113500000Y-101037682D01*
X116761756Y-101037682D01*
X116762563Y-101041774D01*
X116762920Y-101042260D01*
X117447188Y-101726528D01*
X117461132Y-101734142D01*
X117462965Y-101734011D01*
X117469580Y-101729760D01*
X118149869Y-101049471D01*
X118156629Y-101037091D01*
X118153706Y-101033187D01*
X118023670Y-100982879D01*
X118015175Y-100980265D01*
X117762010Y-100921585D01*
X117753232Y-100920195D01*
X117494321Y-100897771D01*
X117485450Y-100897631D01*
X117225953Y-100911912D01*
X117217143Y-100913026D01*
X116962254Y-100963726D01*
X116953696Y-100966067D01*
X116773204Y-101029451D01*
X116761756Y-101037682D01*
X113500000Y-101037682D01*
X113500000Y-100626000D01*
X113520002Y-100557879D01*
X113573658Y-100511386D01*
X113626000Y-100500000D01*
X122874000Y-100500000D01*
X122942121Y-100520002D01*
G37*
%TD.AperFunction*%
%TD*%
%TA.AperFunction,Conductor*%
%TO.N,5V_PI*%
G36*
X139459191Y-53569407D02*
G01*
X139495155Y-53618907D01*
X139500000Y-53649500D01*
X139500000Y-54231109D01*
X139481093Y-54289300D01*
X139431593Y-54325264D01*
X139399704Y-54330101D01*
X139253886Y-54328192D01*
X139253881Y-54328192D01*
X139249346Y-54328133D01*
X139244873Y-54328902D01*
X139244868Y-54328902D01*
X139141601Y-54346647D01*
X139040953Y-54363941D01*
X138842575Y-54437127D01*
X138838676Y-54439446D01*
X138838671Y-54439449D01*
X138664762Y-54542914D01*
X138660856Y-54545238D01*
X138657441Y-54548233D01*
X138657438Y-54548235D01*
X138630995Y-54571425D01*
X138501881Y-54684655D01*
X138499073Y-54688217D01*
X138396252Y-54818646D01*
X138370976Y-54850708D01*
X138368862Y-54854726D01*
X138306516Y-54973227D01*
X138272523Y-55037836D01*
X138261336Y-55073863D01*
X138212855Y-55230000D01*
X138209820Y-55239773D01*
X138184967Y-55449754D01*
X138187780Y-55492677D01*
X138198406Y-55654791D01*
X138198796Y-55660749D01*
X138199912Y-55665142D01*
X138199912Y-55665144D01*
X138222455Y-55753907D01*
X138250845Y-55865690D01*
X138252747Y-55869815D01*
X138252747Y-55869816D01*
X138291518Y-55953916D01*
X138339369Y-56057714D01*
X138461405Y-56230391D01*
X138612865Y-56377937D01*
X138616638Y-56380458D01*
X138784899Y-56492887D01*
X138784902Y-56492889D01*
X138788677Y-56495411D01*
X138885472Y-56536997D01*
X138978774Y-56577083D01*
X138978778Y-56577084D01*
X138982953Y-56578878D01*
X138987387Y-56579881D01*
X138987386Y-56579881D01*
X139184760Y-56624543D01*
X139184765Y-56624544D01*
X139189186Y-56625544D01*
X139400470Y-56633846D01*
X139400428Y-56634912D01*
X139454910Y-56649503D01*
X139493420Y-56697049D01*
X139500000Y-56732538D01*
X139500000Y-56771109D01*
X139481093Y-56829300D01*
X139431593Y-56865264D01*
X139399704Y-56870101D01*
X139253886Y-56868192D01*
X139253881Y-56868192D01*
X139249346Y-56868133D01*
X139244873Y-56868902D01*
X139244868Y-56868902D01*
X139141601Y-56886647D01*
X139040953Y-56903941D01*
X138842575Y-56977127D01*
X138838676Y-56979446D01*
X138838671Y-56979449D01*
X138729623Y-57044326D01*
X138660856Y-57085238D01*
X138657441Y-57088233D01*
X138657438Y-57088235D01*
X138615112Y-57125354D01*
X138501881Y-57224655D01*
X138499073Y-57228217D01*
X138398062Y-57356350D01*
X138370976Y-57390708D01*
X138368862Y-57394726D01*
X138344999Y-57440083D01*
X138272523Y-57577836D01*
X138209820Y-57779773D01*
X138184967Y-57989754D01*
X138198796Y-58200749D01*
X138199912Y-58205142D01*
X138199912Y-58205144D01*
X138222487Y-58294032D01*
X138250845Y-58405690D01*
X138252747Y-58409815D01*
X138252747Y-58409816D01*
X138291518Y-58493916D01*
X138339369Y-58597714D01*
X138461405Y-58770391D01*
X138612865Y-58917937D01*
X138616638Y-58920458D01*
X138784899Y-59032887D01*
X138784902Y-59032889D01*
X138788677Y-59035411D01*
X138885472Y-59076997D01*
X138978774Y-59117083D01*
X138978778Y-59117084D01*
X138982953Y-59118878D01*
X139012881Y-59125650D01*
X139184760Y-59164543D01*
X139184765Y-59164544D01*
X139189186Y-59165544D01*
X139400470Y-59173846D01*
X139400428Y-59174912D01*
X139454910Y-59189503D01*
X139493420Y-59237049D01*
X139500000Y-59272538D01*
X139500000Y-61900353D01*
X139499153Y-61913274D01*
X139494318Y-61950000D01*
X139495165Y-61956434D01*
X139499153Y-61986725D01*
X139500000Y-61999647D01*
X139500000Y-62451000D01*
X139481093Y-62509191D01*
X139431593Y-62545155D01*
X139401000Y-62550000D01*
X137473690Y-62550000D01*
X137433660Y-62541546D01*
X137352136Y-62505504D01*
X137352134Y-62505504D01*
X137345327Y-62502494D01*
X137331322Y-62500861D01*
X137322494Y-62499832D01*
X137322493Y-62499832D01*
X137319646Y-62499500D01*
X136699000Y-62499500D01*
X136640809Y-62480593D01*
X136604845Y-62431093D01*
X136600000Y-62400500D01*
X136600000Y-61911058D01*
X136607536Y-61873172D01*
X136632560Y-61812759D01*
X136635044Y-61806762D01*
X136655682Y-61650000D01*
X136635044Y-61493238D01*
X136618036Y-61452177D01*
X136610500Y-61414291D01*
X136610500Y-61333149D01*
X136616092Y-61300346D01*
X136625619Y-61273218D01*
X136627618Y-61267526D01*
X136628186Y-61261518D01*
X136630282Y-61239349D01*
X136630282Y-61239339D01*
X136630500Y-61237038D01*
X136630500Y-60762962D01*
X136627618Y-60732474D01*
X136605592Y-60669753D01*
X136600000Y-60636951D01*
X136600000Y-60500000D01*
X136534177Y-60500000D01*
X136475359Y-60480633D01*
X136407039Y-60430170D01*
X136407036Y-60430168D01*
X136401085Y-60425773D01*
X136277526Y-60382382D01*
X136271524Y-60381815D01*
X136271521Y-60381814D01*
X136249349Y-60379718D01*
X136249339Y-60379718D01*
X136247038Y-60379500D01*
X135872962Y-60379500D01*
X135870661Y-60379718D01*
X135870651Y-60379718D01*
X135848479Y-60381814D01*
X135848476Y-60381815D01*
X135842474Y-60382382D01*
X135718915Y-60425773D01*
X135712964Y-60430168D01*
X135712961Y-60430170D01*
X135644641Y-60480633D01*
X135585823Y-60500000D01*
X135514177Y-60500000D01*
X135455359Y-60480633D01*
X135387039Y-60430170D01*
X135387036Y-60430168D01*
X135381085Y-60425773D01*
X135257526Y-60382382D01*
X135251524Y-60381815D01*
X135251521Y-60381814D01*
X135229349Y-60379718D01*
X135229339Y-60379718D01*
X135227038Y-60379500D01*
X134852962Y-60379500D01*
X134850661Y-60379718D01*
X134850651Y-60379718D01*
X134828479Y-60381814D01*
X134828476Y-60381815D01*
X134822474Y-60382382D01*
X134698915Y-60425773D01*
X134692964Y-60430168D01*
X134692961Y-60430170D01*
X134624641Y-60480633D01*
X134565823Y-60500000D01*
X85649500Y-60500000D01*
X85591309Y-60481093D01*
X85555345Y-60431593D01*
X85550500Y-60401000D01*
X85550500Y-56722194D01*
X86094801Y-56722194D01*
X86094949Y-56725168D01*
X86094949Y-56725173D01*
X86102134Y-56869500D01*
X86110691Y-57041382D01*
X86125120Y-57125354D01*
X86146000Y-57246867D01*
X86164812Y-57356350D01*
X86165666Y-57359204D01*
X86165666Y-57359206D01*
X86229851Y-57573825D01*
X86256381Y-57662535D01*
X86257569Y-57665262D01*
X86257571Y-57665266D01*
X86305588Y-57775434D01*
X86384070Y-57955501D01*
X86428889Y-58031740D01*
X86544522Y-58228440D01*
X86544526Y-58228446D01*
X86546031Y-58231006D01*
X86739917Y-58485057D01*
X86962920Y-58713976D01*
X86965238Y-58715843D01*
X86965239Y-58715844D01*
X87209478Y-58912569D01*
X87209484Y-58912573D01*
X87211809Y-58914446D01*
X87214339Y-58916024D01*
X87214342Y-58916026D01*
X87404785Y-59034797D01*
X87482979Y-59083563D01*
X87565736Y-59122241D01*
X87769799Y-59217614D01*
X87769803Y-59217616D01*
X87772502Y-59218877D01*
X87775334Y-59219805D01*
X87775338Y-59219807D01*
X87916695Y-59266146D01*
X88076185Y-59318430D01*
X88079112Y-59319012D01*
X88079115Y-59319013D01*
X88386710Y-59380197D01*
X88386717Y-59380198D01*
X88389628Y-59380777D01*
X88392590Y-59381002D01*
X88392595Y-59381003D01*
X88705318Y-59404791D01*
X88705322Y-59404791D01*
X88708292Y-59405017D01*
X88819168Y-59400079D01*
X89024583Y-59390932D01*
X89024591Y-59390931D01*
X89027559Y-59390799D01*
X89241413Y-59355204D01*
X89339863Y-59338817D01*
X89339865Y-59338816D01*
X89342806Y-59338327D01*
X89567061Y-59272538D01*
X89646593Y-59249206D01*
X89646595Y-59249205D01*
X89649466Y-59248363D01*
X89715932Y-59219807D01*
X89940358Y-59123386D01*
X89940361Y-59123384D01*
X89943097Y-59122209D01*
X90068084Y-59049611D01*
X90216866Y-58963191D01*
X90219445Y-58961693D01*
X90221817Y-58959902D01*
X90221825Y-58959897D01*
X90281766Y-58914646D01*
X92469500Y-58914646D01*
X92472618Y-58940846D01*
X92518061Y-59043153D01*
X92524529Y-59049610D01*
X92524530Y-59049611D01*
X92551964Y-59076997D01*
X92597287Y-59122241D01*
X92605645Y-59125936D01*
X92692864Y-59164496D01*
X92692866Y-59164496D01*
X92699673Y-59167506D01*
X92707067Y-59168368D01*
X92722378Y-59170153D01*
X92725354Y-59170500D01*
X94514646Y-59170500D01*
X94532561Y-59168368D01*
X94533469Y-59168260D01*
X94533470Y-59168260D01*
X94540846Y-59167382D01*
X94643153Y-59121939D01*
X94722241Y-59042713D01*
X94767506Y-58940327D01*
X94770500Y-58914646D01*
X94770500Y-57989754D01*
X95004967Y-57989754D01*
X95018796Y-58200749D01*
X95019912Y-58205142D01*
X95019912Y-58205144D01*
X95042487Y-58294032D01*
X95070845Y-58405690D01*
X95072747Y-58409815D01*
X95072747Y-58409816D01*
X95111518Y-58493916D01*
X95159369Y-58597714D01*
X95281405Y-58770391D01*
X95432865Y-58917937D01*
X95436638Y-58920458D01*
X95604899Y-59032887D01*
X95604902Y-59032889D01*
X95608677Y-59035411D01*
X95705472Y-59076997D01*
X95798774Y-59117083D01*
X95798778Y-59117084D01*
X95802953Y-59118878D01*
X95832881Y-59125650D01*
X96004760Y-59164543D01*
X96004765Y-59164544D01*
X96009186Y-59165544D01*
X96114828Y-59169695D01*
X96215937Y-59173668D01*
X96215938Y-59173668D01*
X96220470Y-59173846D01*
X96429730Y-59143504D01*
X96434029Y-59142045D01*
X96434032Y-59142044D01*
X96625654Y-59076997D01*
X96629955Y-59075537D01*
X96677021Y-59049179D01*
X96810481Y-58974437D01*
X96814442Y-58972219D01*
X96977012Y-58837012D01*
X97112219Y-58674442D01*
X97215537Y-58489955D01*
X97218004Y-58482688D01*
X97282044Y-58294032D01*
X97282045Y-58294029D01*
X97283504Y-58289730D01*
X97313846Y-58080470D01*
X97315429Y-58020000D01*
X97312650Y-57989754D01*
X97544967Y-57989754D01*
X97558796Y-58200749D01*
X97559912Y-58205142D01*
X97559912Y-58205144D01*
X97582487Y-58294032D01*
X97610845Y-58405690D01*
X97612747Y-58409815D01*
X97612747Y-58409816D01*
X97651518Y-58493916D01*
X97699369Y-58597714D01*
X97821405Y-58770391D01*
X97972865Y-58917937D01*
X97976638Y-58920458D01*
X98144899Y-59032887D01*
X98144902Y-59032889D01*
X98148677Y-59035411D01*
X98245472Y-59076997D01*
X98338774Y-59117083D01*
X98338778Y-59117084D01*
X98342953Y-59118878D01*
X98372881Y-59125650D01*
X98544760Y-59164543D01*
X98544765Y-59164544D01*
X98549186Y-59165544D01*
X98654828Y-59169695D01*
X98755937Y-59173668D01*
X98755938Y-59173668D01*
X98760470Y-59173846D01*
X98969730Y-59143504D01*
X98974029Y-59142045D01*
X98974032Y-59142044D01*
X99165654Y-59076997D01*
X99169955Y-59075537D01*
X99217021Y-59049179D01*
X99350481Y-58974437D01*
X99354442Y-58972219D01*
X99517012Y-58837012D01*
X99652219Y-58674442D01*
X99755537Y-58489955D01*
X99758004Y-58482688D01*
X99822044Y-58294032D01*
X99822045Y-58294029D01*
X99823504Y-58289730D01*
X99853846Y-58080470D01*
X99855429Y-58020000D01*
X99852650Y-57989754D01*
X100084967Y-57989754D01*
X100098796Y-58200749D01*
X100099912Y-58205142D01*
X100099912Y-58205144D01*
X100122487Y-58294032D01*
X100150845Y-58405690D01*
X100152747Y-58409815D01*
X100152747Y-58409816D01*
X100191518Y-58493916D01*
X100239369Y-58597714D01*
X100361405Y-58770391D01*
X100512865Y-58917937D01*
X100516638Y-58920458D01*
X100684899Y-59032887D01*
X100684902Y-59032889D01*
X100688677Y-59035411D01*
X100785472Y-59076997D01*
X100878774Y-59117083D01*
X100878778Y-59117084D01*
X100882953Y-59118878D01*
X100912881Y-59125650D01*
X101084760Y-59164543D01*
X101084765Y-59164544D01*
X101089186Y-59165544D01*
X101194828Y-59169695D01*
X101295937Y-59173668D01*
X101295938Y-59173668D01*
X101300470Y-59173846D01*
X101509730Y-59143504D01*
X101514029Y-59142045D01*
X101514032Y-59142044D01*
X101705654Y-59076997D01*
X101709955Y-59075537D01*
X101757021Y-59049179D01*
X101890481Y-58974437D01*
X101894442Y-58972219D01*
X102057012Y-58837012D01*
X102192219Y-58674442D01*
X102295537Y-58489955D01*
X102298004Y-58482688D01*
X102362044Y-58294032D01*
X102362045Y-58294029D01*
X102363504Y-58289730D01*
X102393846Y-58080470D01*
X102395429Y-58020000D01*
X102392650Y-57989754D01*
X102624967Y-57989754D01*
X102638796Y-58200749D01*
X102639912Y-58205142D01*
X102639912Y-58205144D01*
X102662487Y-58294032D01*
X102690845Y-58405690D01*
X102692747Y-58409815D01*
X102692747Y-58409816D01*
X102731518Y-58493916D01*
X102779369Y-58597714D01*
X102901405Y-58770391D01*
X103052865Y-58917937D01*
X103056638Y-58920458D01*
X103224899Y-59032887D01*
X103224902Y-59032889D01*
X103228677Y-59035411D01*
X103325472Y-59076997D01*
X103418774Y-59117083D01*
X103418778Y-59117084D01*
X103422953Y-59118878D01*
X103452881Y-59125650D01*
X103624760Y-59164543D01*
X103624765Y-59164544D01*
X103629186Y-59165544D01*
X103734828Y-59169695D01*
X103835937Y-59173668D01*
X103835938Y-59173668D01*
X103840470Y-59173846D01*
X104049730Y-59143504D01*
X104054029Y-59142045D01*
X104054032Y-59142044D01*
X104245654Y-59076997D01*
X104249955Y-59075537D01*
X104297021Y-59049179D01*
X104430481Y-58974437D01*
X104434442Y-58972219D01*
X104597012Y-58837012D01*
X104732219Y-58674442D01*
X104835537Y-58489955D01*
X104838004Y-58482688D01*
X104902044Y-58294032D01*
X104902045Y-58294029D01*
X104903504Y-58289730D01*
X104933846Y-58080470D01*
X104935429Y-58020000D01*
X104932650Y-57989754D01*
X105164967Y-57989754D01*
X105178796Y-58200749D01*
X105179912Y-58205142D01*
X105179912Y-58205144D01*
X105202487Y-58294032D01*
X105230845Y-58405690D01*
X105232747Y-58409815D01*
X105232747Y-58409816D01*
X105271518Y-58493916D01*
X105319369Y-58597714D01*
X105441405Y-58770391D01*
X105592865Y-58917937D01*
X105596638Y-58920458D01*
X105764899Y-59032887D01*
X105764902Y-59032889D01*
X105768677Y-59035411D01*
X105865472Y-59076997D01*
X105958774Y-59117083D01*
X105958778Y-59117084D01*
X105962953Y-59118878D01*
X105992881Y-59125650D01*
X106164760Y-59164543D01*
X106164765Y-59164544D01*
X106169186Y-59165544D01*
X106274828Y-59169695D01*
X106375937Y-59173668D01*
X106375938Y-59173668D01*
X106380470Y-59173846D01*
X106589730Y-59143504D01*
X106594029Y-59142045D01*
X106594032Y-59142044D01*
X106785654Y-59076997D01*
X106789955Y-59075537D01*
X106837021Y-59049179D01*
X106970481Y-58974437D01*
X106974442Y-58972219D01*
X107137012Y-58837012D01*
X107272219Y-58674442D01*
X107375537Y-58489955D01*
X107378004Y-58482688D01*
X107442044Y-58294032D01*
X107442045Y-58294029D01*
X107443504Y-58289730D01*
X107473846Y-58080470D01*
X107475429Y-58020000D01*
X107472650Y-57989754D01*
X107704967Y-57989754D01*
X107718796Y-58200749D01*
X107719912Y-58205142D01*
X107719912Y-58205144D01*
X107742487Y-58294032D01*
X107770845Y-58405690D01*
X107772747Y-58409815D01*
X107772747Y-58409816D01*
X107811518Y-58493916D01*
X107859369Y-58597714D01*
X107981405Y-58770391D01*
X108132865Y-58917937D01*
X108136638Y-58920458D01*
X108304899Y-59032887D01*
X108304902Y-59032889D01*
X108308677Y-59035411D01*
X108405472Y-59076997D01*
X108498774Y-59117083D01*
X108498778Y-59117084D01*
X108502953Y-59118878D01*
X108532881Y-59125650D01*
X108704760Y-59164543D01*
X108704765Y-59164544D01*
X108709186Y-59165544D01*
X108814828Y-59169695D01*
X108915937Y-59173668D01*
X108915938Y-59173668D01*
X108920470Y-59173846D01*
X109129730Y-59143504D01*
X109134029Y-59142045D01*
X109134032Y-59142044D01*
X109325654Y-59076997D01*
X109329955Y-59075537D01*
X109377021Y-59049179D01*
X109510481Y-58974437D01*
X109514442Y-58972219D01*
X109677012Y-58837012D01*
X109812219Y-58674442D01*
X109915537Y-58489955D01*
X109918004Y-58482688D01*
X109982044Y-58294032D01*
X109982045Y-58294029D01*
X109983504Y-58289730D01*
X110013846Y-58080470D01*
X110015429Y-58020000D01*
X110012650Y-57989754D01*
X110244967Y-57989754D01*
X110258796Y-58200749D01*
X110259912Y-58205142D01*
X110259912Y-58205144D01*
X110282487Y-58294032D01*
X110310845Y-58405690D01*
X110312747Y-58409815D01*
X110312747Y-58409816D01*
X110351518Y-58493916D01*
X110399369Y-58597714D01*
X110521405Y-58770391D01*
X110672865Y-58917937D01*
X110676638Y-58920458D01*
X110844899Y-59032887D01*
X110844902Y-59032889D01*
X110848677Y-59035411D01*
X110945472Y-59076997D01*
X111038774Y-59117083D01*
X111038778Y-59117084D01*
X111042953Y-59118878D01*
X111072881Y-59125650D01*
X111244760Y-59164543D01*
X111244765Y-59164544D01*
X111249186Y-59165544D01*
X111354828Y-59169695D01*
X111455937Y-59173668D01*
X111455938Y-59173668D01*
X111460470Y-59173846D01*
X111669730Y-59143504D01*
X111674029Y-59142045D01*
X111674032Y-59142044D01*
X111865654Y-59076997D01*
X111869955Y-59075537D01*
X111917021Y-59049179D01*
X112050481Y-58974437D01*
X112054442Y-58972219D01*
X112217012Y-58837012D01*
X112352219Y-58674442D01*
X112455537Y-58489955D01*
X112458004Y-58482688D01*
X112522044Y-58294032D01*
X112522045Y-58294029D01*
X112523504Y-58289730D01*
X112553846Y-58080470D01*
X112555429Y-58020000D01*
X112552650Y-57989754D01*
X112784967Y-57989754D01*
X112798796Y-58200749D01*
X112799912Y-58205142D01*
X112799912Y-58205144D01*
X112822487Y-58294032D01*
X112850845Y-58405690D01*
X112852747Y-58409815D01*
X112852747Y-58409816D01*
X112891518Y-58493916D01*
X112939369Y-58597714D01*
X113061405Y-58770391D01*
X113212865Y-58917937D01*
X113216638Y-58920458D01*
X113384899Y-59032887D01*
X113384902Y-59032889D01*
X113388677Y-59035411D01*
X113485472Y-59076997D01*
X113578774Y-59117083D01*
X113578778Y-59117084D01*
X113582953Y-59118878D01*
X113612881Y-59125650D01*
X113784760Y-59164543D01*
X113784765Y-59164544D01*
X113789186Y-59165544D01*
X113894828Y-59169695D01*
X113995937Y-59173668D01*
X113995938Y-59173668D01*
X114000470Y-59173846D01*
X114209730Y-59143504D01*
X114214029Y-59142045D01*
X114214032Y-59142044D01*
X114405654Y-59076997D01*
X114409955Y-59075537D01*
X114457021Y-59049179D01*
X114590481Y-58974437D01*
X114594442Y-58972219D01*
X114757012Y-58837012D01*
X114892219Y-58674442D01*
X114995537Y-58489955D01*
X114998004Y-58482688D01*
X115062044Y-58294032D01*
X115062045Y-58294029D01*
X115063504Y-58289730D01*
X115093846Y-58080470D01*
X115095429Y-58020000D01*
X115092650Y-57989754D01*
X115324967Y-57989754D01*
X115338796Y-58200749D01*
X115339912Y-58205142D01*
X115339912Y-58205144D01*
X115362487Y-58294032D01*
X115390845Y-58405690D01*
X115392747Y-58409815D01*
X115392747Y-58409816D01*
X115431518Y-58493916D01*
X115479369Y-58597714D01*
X115601405Y-58770391D01*
X115752865Y-58917937D01*
X115756638Y-58920458D01*
X115924899Y-59032887D01*
X115924902Y-59032889D01*
X115928677Y-59035411D01*
X116025472Y-59076997D01*
X116118774Y-59117083D01*
X116118778Y-59117084D01*
X116122953Y-59118878D01*
X116152881Y-59125650D01*
X116324760Y-59164543D01*
X116324765Y-59164544D01*
X116329186Y-59165544D01*
X116434828Y-59169695D01*
X116535937Y-59173668D01*
X116535938Y-59173668D01*
X116540470Y-59173846D01*
X116749730Y-59143504D01*
X116754029Y-59142045D01*
X116754032Y-59142044D01*
X116945654Y-59076997D01*
X116949955Y-59075537D01*
X116997021Y-59049179D01*
X117130481Y-58974437D01*
X117134442Y-58972219D01*
X117297012Y-58837012D01*
X117432219Y-58674442D01*
X117535537Y-58489955D01*
X117538004Y-58482688D01*
X117602044Y-58294032D01*
X117602045Y-58294029D01*
X117603504Y-58289730D01*
X117633846Y-58080470D01*
X117635429Y-58020000D01*
X117632650Y-57989754D01*
X117864967Y-57989754D01*
X117878796Y-58200749D01*
X117879912Y-58205142D01*
X117879912Y-58205144D01*
X117902487Y-58294032D01*
X117930845Y-58405690D01*
X117932747Y-58409815D01*
X117932747Y-58409816D01*
X117971518Y-58493916D01*
X118019369Y-58597714D01*
X118141405Y-58770391D01*
X118292865Y-58917937D01*
X118296638Y-58920458D01*
X118464899Y-59032887D01*
X118464902Y-59032889D01*
X118468677Y-59035411D01*
X118565472Y-59076997D01*
X118658774Y-59117083D01*
X118658778Y-59117084D01*
X118662953Y-59118878D01*
X118692881Y-59125650D01*
X118864760Y-59164543D01*
X118864765Y-59164544D01*
X118869186Y-59165544D01*
X118974828Y-59169695D01*
X119075937Y-59173668D01*
X119075938Y-59173668D01*
X119080470Y-59173846D01*
X119289730Y-59143504D01*
X119294029Y-59142045D01*
X119294032Y-59142044D01*
X119485654Y-59076997D01*
X119489955Y-59075537D01*
X119537021Y-59049179D01*
X119670481Y-58974437D01*
X119674442Y-58972219D01*
X119837012Y-58837012D01*
X119972219Y-58674442D01*
X120075537Y-58489955D01*
X120078004Y-58482688D01*
X120142044Y-58294032D01*
X120142045Y-58294029D01*
X120143504Y-58289730D01*
X120173846Y-58080470D01*
X120175429Y-58020000D01*
X120172650Y-57989754D01*
X120404967Y-57989754D01*
X120418796Y-58200749D01*
X120419912Y-58205142D01*
X120419912Y-58205144D01*
X120442487Y-58294032D01*
X120470845Y-58405690D01*
X120472747Y-58409815D01*
X120472747Y-58409816D01*
X120511518Y-58493916D01*
X120559369Y-58597714D01*
X120681405Y-58770391D01*
X120832865Y-58917937D01*
X120836638Y-58920458D01*
X121004899Y-59032887D01*
X121004902Y-59032889D01*
X121008677Y-59035411D01*
X121105472Y-59076997D01*
X121198774Y-59117083D01*
X121198778Y-59117084D01*
X121202953Y-59118878D01*
X121232881Y-59125650D01*
X121404760Y-59164543D01*
X121404765Y-59164544D01*
X121409186Y-59165544D01*
X121514828Y-59169695D01*
X121615937Y-59173668D01*
X121615938Y-59173668D01*
X121620470Y-59173846D01*
X121829730Y-59143504D01*
X121834029Y-59142045D01*
X121834032Y-59142044D01*
X122025654Y-59076997D01*
X122029955Y-59075537D01*
X122077021Y-59049179D01*
X122210481Y-58974437D01*
X122214442Y-58972219D01*
X122377012Y-58837012D01*
X122512219Y-58674442D01*
X122615537Y-58489955D01*
X122618004Y-58482688D01*
X122682044Y-58294032D01*
X122682045Y-58294029D01*
X122683504Y-58289730D01*
X122713846Y-58080470D01*
X122715429Y-58020000D01*
X122712650Y-57989754D01*
X122944967Y-57989754D01*
X122958796Y-58200749D01*
X122959912Y-58205142D01*
X122959912Y-58205144D01*
X122982487Y-58294032D01*
X123010845Y-58405690D01*
X123012747Y-58409815D01*
X123012747Y-58409816D01*
X123051518Y-58493916D01*
X123099369Y-58597714D01*
X123221405Y-58770391D01*
X123372865Y-58917937D01*
X123376638Y-58920458D01*
X123544899Y-59032887D01*
X123544902Y-59032889D01*
X123548677Y-59035411D01*
X123645472Y-59076997D01*
X123738774Y-59117083D01*
X123738778Y-59117084D01*
X123742953Y-59118878D01*
X123772881Y-59125650D01*
X123944760Y-59164543D01*
X123944765Y-59164544D01*
X123949186Y-59165544D01*
X124054828Y-59169695D01*
X124155937Y-59173668D01*
X124155938Y-59173668D01*
X124160470Y-59173846D01*
X124369730Y-59143504D01*
X124374029Y-59142045D01*
X124374032Y-59142044D01*
X124565654Y-59076997D01*
X124569955Y-59075537D01*
X124617021Y-59049179D01*
X124750481Y-58974437D01*
X124754442Y-58972219D01*
X124917012Y-58837012D01*
X125052219Y-58674442D01*
X125155537Y-58489955D01*
X125158004Y-58482688D01*
X125222044Y-58294032D01*
X125222045Y-58294029D01*
X125223504Y-58289730D01*
X125253846Y-58080470D01*
X125255429Y-58020000D01*
X125252650Y-57989754D01*
X125484967Y-57989754D01*
X125498796Y-58200749D01*
X125499912Y-58205142D01*
X125499912Y-58205144D01*
X125522487Y-58294032D01*
X125550845Y-58405690D01*
X125552747Y-58409815D01*
X125552747Y-58409816D01*
X125591518Y-58493916D01*
X125639369Y-58597714D01*
X125761405Y-58770391D01*
X125912865Y-58917937D01*
X125916638Y-58920458D01*
X126084899Y-59032887D01*
X126084902Y-59032889D01*
X126088677Y-59035411D01*
X126185472Y-59076997D01*
X126278774Y-59117083D01*
X126278778Y-59117084D01*
X126282953Y-59118878D01*
X126312881Y-59125650D01*
X126484760Y-59164543D01*
X126484765Y-59164544D01*
X126489186Y-59165544D01*
X126594828Y-59169695D01*
X126695937Y-59173668D01*
X126695938Y-59173668D01*
X126700470Y-59173846D01*
X126909730Y-59143504D01*
X126914029Y-59142045D01*
X126914032Y-59142044D01*
X127105654Y-59076997D01*
X127109955Y-59075537D01*
X127157021Y-59049179D01*
X127290481Y-58974437D01*
X127294442Y-58972219D01*
X127457012Y-58837012D01*
X127592219Y-58674442D01*
X127695537Y-58489955D01*
X127698004Y-58482688D01*
X127762044Y-58294032D01*
X127762045Y-58294029D01*
X127763504Y-58289730D01*
X127793846Y-58080470D01*
X127795429Y-58020000D01*
X127792650Y-57989754D01*
X128024967Y-57989754D01*
X128038796Y-58200749D01*
X128039912Y-58205142D01*
X128039912Y-58205144D01*
X128062487Y-58294032D01*
X128090845Y-58405690D01*
X128092747Y-58409815D01*
X128092747Y-58409816D01*
X128131518Y-58493916D01*
X128179369Y-58597714D01*
X128301405Y-58770391D01*
X128452865Y-58917937D01*
X128456638Y-58920458D01*
X128624899Y-59032887D01*
X128624902Y-59032889D01*
X128628677Y-59035411D01*
X128725472Y-59076997D01*
X128818774Y-59117083D01*
X128818778Y-59117084D01*
X128822953Y-59118878D01*
X128852881Y-59125650D01*
X129024760Y-59164543D01*
X129024765Y-59164544D01*
X129029186Y-59165544D01*
X129134828Y-59169695D01*
X129235937Y-59173668D01*
X129235938Y-59173668D01*
X129240470Y-59173846D01*
X129449730Y-59143504D01*
X129454029Y-59142045D01*
X129454032Y-59142044D01*
X129645654Y-59076997D01*
X129649955Y-59075537D01*
X129697021Y-59049179D01*
X129830481Y-58974437D01*
X129834442Y-58972219D01*
X129997012Y-58837012D01*
X130132219Y-58674442D01*
X130235537Y-58489955D01*
X130238004Y-58482688D01*
X130302044Y-58294032D01*
X130302045Y-58294029D01*
X130303504Y-58289730D01*
X130333846Y-58080470D01*
X130335429Y-58020000D01*
X130332650Y-57989754D01*
X130564967Y-57989754D01*
X130578796Y-58200749D01*
X130579912Y-58205142D01*
X130579912Y-58205144D01*
X130602487Y-58294032D01*
X130630845Y-58405690D01*
X130632747Y-58409815D01*
X130632747Y-58409816D01*
X130671518Y-58493916D01*
X130719369Y-58597714D01*
X130841405Y-58770391D01*
X130992865Y-58917937D01*
X130996638Y-58920458D01*
X131164899Y-59032887D01*
X131164902Y-59032889D01*
X131168677Y-59035411D01*
X131265472Y-59076997D01*
X131358774Y-59117083D01*
X131358778Y-59117084D01*
X131362953Y-59118878D01*
X131392881Y-59125650D01*
X131564760Y-59164543D01*
X131564765Y-59164544D01*
X131569186Y-59165544D01*
X131674828Y-59169695D01*
X131775937Y-59173668D01*
X131775938Y-59173668D01*
X131780470Y-59173846D01*
X131989730Y-59143504D01*
X131994029Y-59142045D01*
X131994032Y-59142044D01*
X132185654Y-59076997D01*
X132189955Y-59075537D01*
X132237021Y-59049179D01*
X132370481Y-58974437D01*
X132374442Y-58972219D01*
X132537012Y-58837012D01*
X132672219Y-58674442D01*
X132775537Y-58489955D01*
X132778004Y-58482688D01*
X132842044Y-58294032D01*
X132842045Y-58294029D01*
X132843504Y-58289730D01*
X132873846Y-58080470D01*
X132875429Y-58020000D01*
X132872650Y-57989754D01*
X133104967Y-57989754D01*
X133118796Y-58200749D01*
X133119912Y-58205142D01*
X133119912Y-58205144D01*
X133142487Y-58294032D01*
X133170845Y-58405690D01*
X133172747Y-58409815D01*
X133172747Y-58409816D01*
X133211518Y-58493916D01*
X133259369Y-58597714D01*
X133381405Y-58770391D01*
X133532865Y-58917937D01*
X133536638Y-58920458D01*
X133704899Y-59032887D01*
X133704902Y-59032889D01*
X133708677Y-59035411D01*
X133805472Y-59076997D01*
X133898774Y-59117083D01*
X133898778Y-59117084D01*
X133902953Y-59118878D01*
X133932881Y-59125650D01*
X134104760Y-59164543D01*
X134104765Y-59164544D01*
X134109186Y-59165544D01*
X134214828Y-59169695D01*
X134315937Y-59173668D01*
X134315938Y-59173668D01*
X134320470Y-59173846D01*
X134529730Y-59143504D01*
X134534029Y-59142045D01*
X134534032Y-59142044D01*
X134725654Y-59076997D01*
X134729955Y-59075537D01*
X134777021Y-59049179D01*
X134910481Y-58974437D01*
X134914442Y-58972219D01*
X135077012Y-58837012D01*
X135212219Y-58674442D01*
X135315537Y-58489955D01*
X135318004Y-58482688D01*
X135382044Y-58294032D01*
X135382045Y-58294029D01*
X135383504Y-58289730D01*
X135413846Y-58080470D01*
X135415429Y-58020000D01*
X135412650Y-57989754D01*
X135644967Y-57989754D01*
X135658796Y-58200749D01*
X135659912Y-58205142D01*
X135659912Y-58205144D01*
X135682487Y-58294032D01*
X135710845Y-58405690D01*
X135712747Y-58409815D01*
X135712747Y-58409816D01*
X135751518Y-58493916D01*
X135799369Y-58597714D01*
X135921405Y-58770391D01*
X136072865Y-58917937D01*
X136076638Y-58920458D01*
X136244899Y-59032887D01*
X136244902Y-59032889D01*
X136248677Y-59035411D01*
X136345472Y-59076997D01*
X136438774Y-59117083D01*
X136438778Y-59117084D01*
X136442953Y-59118878D01*
X136472881Y-59125650D01*
X136644760Y-59164543D01*
X136644765Y-59164544D01*
X136649186Y-59165544D01*
X136754828Y-59169695D01*
X136855937Y-59173668D01*
X136855938Y-59173668D01*
X136860470Y-59173846D01*
X137069730Y-59143504D01*
X137074029Y-59142045D01*
X137074032Y-59142044D01*
X137265654Y-59076997D01*
X137269955Y-59075537D01*
X137317021Y-59049179D01*
X137450481Y-58974437D01*
X137454442Y-58972219D01*
X137617012Y-58837012D01*
X137752219Y-58674442D01*
X137855537Y-58489955D01*
X137858004Y-58482688D01*
X137922044Y-58294032D01*
X137922045Y-58294029D01*
X137923504Y-58289730D01*
X137953846Y-58080470D01*
X137955429Y-58020000D01*
X137936081Y-57809440D01*
X137878686Y-57605931D01*
X137785165Y-57416290D01*
X137658651Y-57246867D01*
X137503381Y-57103337D01*
X137496752Y-57099154D01*
X137328391Y-56992926D01*
X137324554Y-56990505D01*
X137128160Y-56912152D01*
X136920775Y-56870901D01*
X136816599Y-56869537D01*
X136713886Y-56868192D01*
X136713881Y-56868192D01*
X136709346Y-56868133D01*
X136704873Y-56868902D01*
X136704868Y-56868902D01*
X136601601Y-56886647D01*
X136500953Y-56903941D01*
X136302575Y-56977127D01*
X136298676Y-56979446D01*
X136298671Y-56979449D01*
X136189623Y-57044326D01*
X136120856Y-57085238D01*
X136117441Y-57088233D01*
X136117438Y-57088235D01*
X136075112Y-57125354D01*
X135961881Y-57224655D01*
X135959073Y-57228217D01*
X135858062Y-57356350D01*
X135830976Y-57390708D01*
X135828862Y-57394726D01*
X135804999Y-57440083D01*
X135732523Y-57577836D01*
X135669820Y-57779773D01*
X135644967Y-57989754D01*
X135412650Y-57989754D01*
X135396081Y-57809440D01*
X135338686Y-57605931D01*
X135245165Y-57416290D01*
X135118651Y-57246867D01*
X134963381Y-57103337D01*
X134956752Y-57099154D01*
X134788391Y-56992926D01*
X134784554Y-56990505D01*
X134588160Y-56912152D01*
X134380775Y-56870901D01*
X134276599Y-56869537D01*
X134173886Y-56868192D01*
X134173881Y-56868192D01*
X134169346Y-56868133D01*
X134164873Y-56868902D01*
X134164868Y-56868902D01*
X134061601Y-56886647D01*
X133960953Y-56903941D01*
X133762575Y-56977127D01*
X133758676Y-56979446D01*
X133758671Y-56979449D01*
X133649623Y-57044326D01*
X133580856Y-57085238D01*
X133577441Y-57088233D01*
X133577438Y-57088235D01*
X133535112Y-57125354D01*
X133421881Y-57224655D01*
X133419073Y-57228217D01*
X133318062Y-57356350D01*
X133290976Y-57390708D01*
X133288862Y-57394726D01*
X133264999Y-57440083D01*
X133192523Y-57577836D01*
X133129820Y-57779773D01*
X133104967Y-57989754D01*
X132872650Y-57989754D01*
X132856081Y-57809440D01*
X132798686Y-57605931D01*
X132705165Y-57416290D01*
X132578651Y-57246867D01*
X132423381Y-57103337D01*
X132416752Y-57099154D01*
X132248391Y-56992926D01*
X132244554Y-56990505D01*
X132048160Y-56912152D01*
X131840775Y-56870901D01*
X131736599Y-56869537D01*
X131633886Y-56868192D01*
X131633881Y-56868192D01*
X131629346Y-56868133D01*
X131624873Y-56868902D01*
X131624868Y-56868902D01*
X131521601Y-56886647D01*
X131420953Y-56903941D01*
X131222575Y-56977127D01*
X131218676Y-56979446D01*
X131218671Y-56979449D01*
X131109623Y-57044326D01*
X131040856Y-57085238D01*
X131037441Y-57088233D01*
X131037438Y-57088235D01*
X130995112Y-57125354D01*
X130881881Y-57224655D01*
X130879073Y-57228217D01*
X130778062Y-57356350D01*
X130750976Y-57390708D01*
X130748862Y-57394726D01*
X130724999Y-57440083D01*
X130652523Y-57577836D01*
X130589820Y-57779773D01*
X130564967Y-57989754D01*
X130332650Y-57989754D01*
X130316081Y-57809440D01*
X130258686Y-57605931D01*
X130165165Y-57416290D01*
X130038651Y-57246867D01*
X129883381Y-57103337D01*
X129876752Y-57099154D01*
X129708391Y-56992926D01*
X129704554Y-56990505D01*
X129508160Y-56912152D01*
X129300775Y-56870901D01*
X129196599Y-56869537D01*
X129093886Y-56868192D01*
X129093881Y-56868192D01*
X129089346Y-56868133D01*
X129084873Y-56868902D01*
X129084868Y-56868902D01*
X128981601Y-56886647D01*
X128880953Y-56903941D01*
X128682575Y-56977127D01*
X128678676Y-56979446D01*
X128678671Y-56979449D01*
X128569623Y-57044326D01*
X128500856Y-57085238D01*
X128497441Y-57088233D01*
X128497438Y-57088235D01*
X128455112Y-57125354D01*
X128341881Y-57224655D01*
X128339073Y-57228217D01*
X128238062Y-57356350D01*
X128210976Y-57390708D01*
X128208862Y-57394726D01*
X128184999Y-57440083D01*
X128112523Y-57577836D01*
X128049820Y-57779773D01*
X128024967Y-57989754D01*
X127792650Y-57989754D01*
X127776081Y-57809440D01*
X127718686Y-57605931D01*
X127625165Y-57416290D01*
X127498651Y-57246867D01*
X127343381Y-57103337D01*
X127336752Y-57099154D01*
X127168391Y-56992926D01*
X127164554Y-56990505D01*
X126968160Y-56912152D01*
X126760775Y-56870901D01*
X126656599Y-56869537D01*
X126553886Y-56868192D01*
X126553881Y-56868192D01*
X126549346Y-56868133D01*
X126544873Y-56868902D01*
X126544868Y-56868902D01*
X126441601Y-56886647D01*
X126340953Y-56903941D01*
X126142575Y-56977127D01*
X126138676Y-56979446D01*
X126138671Y-56979449D01*
X126029623Y-57044326D01*
X125960856Y-57085238D01*
X125957441Y-57088233D01*
X125957438Y-57088235D01*
X125915112Y-57125354D01*
X125801881Y-57224655D01*
X125799073Y-57228217D01*
X125698062Y-57356350D01*
X125670976Y-57390708D01*
X125668862Y-57394726D01*
X125644999Y-57440083D01*
X125572523Y-57577836D01*
X125509820Y-57779773D01*
X125484967Y-57989754D01*
X125252650Y-57989754D01*
X125236081Y-57809440D01*
X125178686Y-57605931D01*
X125085165Y-57416290D01*
X124958651Y-57246867D01*
X124803381Y-57103337D01*
X124796752Y-57099154D01*
X124628391Y-56992926D01*
X124624554Y-56990505D01*
X124428160Y-56912152D01*
X124220775Y-56870901D01*
X124116599Y-56869537D01*
X124013886Y-56868192D01*
X124013881Y-56868192D01*
X124009346Y-56868133D01*
X124004873Y-56868902D01*
X124004868Y-56868902D01*
X123901601Y-56886647D01*
X123800953Y-56903941D01*
X123602575Y-56977127D01*
X123598676Y-56979446D01*
X123598671Y-56979449D01*
X123489623Y-57044326D01*
X123420856Y-57085238D01*
X123417441Y-57088233D01*
X123417438Y-57088235D01*
X123375112Y-57125354D01*
X123261881Y-57224655D01*
X123259073Y-57228217D01*
X123158062Y-57356350D01*
X123130976Y-57390708D01*
X123128862Y-57394726D01*
X123104999Y-57440083D01*
X123032523Y-57577836D01*
X122969820Y-57779773D01*
X122944967Y-57989754D01*
X122712650Y-57989754D01*
X122696081Y-57809440D01*
X122638686Y-57605931D01*
X122545165Y-57416290D01*
X122418651Y-57246867D01*
X122263381Y-57103337D01*
X122256752Y-57099154D01*
X122088391Y-56992926D01*
X122084554Y-56990505D01*
X121888160Y-56912152D01*
X121680775Y-56870901D01*
X121576599Y-56869537D01*
X121473886Y-56868192D01*
X121473881Y-56868192D01*
X121469346Y-56868133D01*
X121464873Y-56868902D01*
X121464868Y-56868902D01*
X121361601Y-56886647D01*
X121260953Y-56903941D01*
X121062575Y-56977127D01*
X121058676Y-56979446D01*
X121058671Y-56979449D01*
X120949623Y-57044326D01*
X120880856Y-57085238D01*
X120877441Y-57088233D01*
X120877438Y-57088235D01*
X120835112Y-57125354D01*
X120721881Y-57224655D01*
X120719073Y-57228217D01*
X120618062Y-57356350D01*
X120590976Y-57390708D01*
X120588862Y-57394726D01*
X120564999Y-57440083D01*
X120492523Y-57577836D01*
X120429820Y-57779773D01*
X120404967Y-57989754D01*
X120172650Y-57989754D01*
X120156081Y-57809440D01*
X120098686Y-57605931D01*
X120005165Y-57416290D01*
X119878651Y-57246867D01*
X119723381Y-57103337D01*
X119716752Y-57099154D01*
X119548391Y-56992926D01*
X119544554Y-56990505D01*
X119348160Y-56912152D01*
X119140775Y-56870901D01*
X119036599Y-56869537D01*
X118933886Y-56868192D01*
X118933881Y-56868192D01*
X118929346Y-56868133D01*
X118924873Y-56868902D01*
X118924868Y-56868902D01*
X118821601Y-56886647D01*
X118720953Y-56903941D01*
X118522575Y-56977127D01*
X118518676Y-56979446D01*
X118518671Y-56979449D01*
X118409623Y-57044326D01*
X118340856Y-57085238D01*
X118337441Y-57088233D01*
X118337438Y-57088235D01*
X118295112Y-57125354D01*
X118181881Y-57224655D01*
X118179073Y-57228217D01*
X118078062Y-57356350D01*
X118050976Y-57390708D01*
X118048862Y-57394726D01*
X118024999Y-57440083D01*
X117952523Y-57577836D01*
X117889820Y-57779773D01*
X117864967Y-57989754D01*
X117632650Y-57989754D01*
X117616081Y-57809440D01*
X117558686Y-57605931D01*
X117465165Y-57416290D01*
X117338651Y-57246867D01*
X117183381Y-57103337D01*
X117176752Y-57099154D01*
X117008391Y-56992926D01*
X117004554Y-56990505D01*
X116808160Y-56912152D01*
X116600775Y-56870901D01*
X116496599Y-56869537D01*
X116393886Y-56868192D01*
X116393881Y-56868192D01*
X116389346Y-56868133D01*
X116384873Y-56868902D01*
X116384868Y-56868902D01*
X116281601Y-56886647D01*
X116180953Y-56903941D01*
X115982575Y-56977127D01*
X115978676Y-56979446D01*
X115978671Y-56979449D01*
X115869623Y-57044326D01*
X115800856Y-57085238D01*
X115797441Y-57088233D01*
X115797438Y-57088235D01*
X115755112Y-57125354D01*
X115641881Y-57224655D01*
X115639073Y-57228217D01*
X115538062Y-57356350D01*
X115510976Y-57390708D01*
X115508862Y-57394726D01*
X115484999Y-57440083D01*
X115412523Y-57577836D01*
X115349820Y-57779773D01*
X115324967Y-57989754D01*
X115092650Y-57989754D01*
X115076081Y-57809440D01*
X115018686Y-57605931D01*
X114925165Y-57416290D01*
X114798651Y-57246867D01*
X114643381Y-57103337D01*
X114636752Y-57099154D01*
X114468391Y-56992926D01*
X114464554Y-56990505D01*
X114268160Y-56912152D01*
X114060775Y-56870901D01*
X113956599Y-56869537D01*
X113853886Y-56868192D01*
X113853881Y-56868192D01*
X113849346Y-56868133D01*
X113844873Y-56868902D01*
X113844868Y-56868902D01*
X113741601Y-56886647D01*
X113640953Y-56903941D01*
X113442575Y-56977127D01*
X113438676Y-56979446D01*
X113438671Y-56979449D01*
X113329623Y-57044326D01*
X113260856Y-57085238D01*
X113257441Y-57088233D01*
X113257438Y-57088235D01*
X113215112Y-57125354D01*
X113101881Y-57224655D01*
X113099073Y-57228217D01*
X112998062Y-57356350D01*
X112970976Y-57390708D01*
X112968862Y-57394726D01*
X112944999Y-57440083D01*
X112872523Y-57577836D01*
X112809820Y-57779773D01*
X112784967Y-57989754D01*
X112552650Y-57989754D01*
X112536081Y-57809440D01*
X112478686Y-57605931D01*
X112385165Y-57416290D01*
X112258651Y-57246867D01*
X112103381Y-57103337D01*
X112096752Y-57099154D01*
X111928391Y-56992926D01*
X111924554Y-56990505D01*
X111728160Y-56912152D01*
X111520775Y-56870901D01*
X111416599Y-56869537D01*
X111313886Y-56868192D01*
X111313881Y-56868192D01*
X111309346Y-56868133D01*
X111304873Y-56868902D01*
X111304868Y-56868902D01*
X111201601Y-56886647D01*
X111100953Y-56903941D01*
X110902575Y-56977127D01*
X110898676Y-56979446D01*
X110898671Y-56979449D01*
X110789623Y-57044326D01*
X110720856Y-57085238D01*
X110717441Y-57088233D01*
X110717438Y-57088235D01*
X110675112Y-57125354D01*
X110561881Y-57224655D01*
X110559073Y-57228217D01*
X110458062Y-57356350D01*
X110430976Y-57390708D01*
X110428862Y-57394726D01*
X110404999Y-57440083D01*
X110332523Y-57577836D01*
X110269820Y-57779773D01*
X110244967Y-57989754D01*
X110012650Y-57989754D01*
X109996081Y-57809440D01*
X109938686Y-57605931D01*
X109845165Y-57416290D01*
X109718651Y-57246867D01*
X109563381Y-57103337D01*
X109556752Y-57099154D01*
X109388391Y-56992926D01*
X109384554Y-56990505D01*
X109188160Y-56912152D01*
X108980775Y-56870901D01*
X108876599Y-56869537D01*
X108773886Y-56868192D01*
X108773881Y-56868192D01*
X108769346Y-56868133D01*
X108764873Y-56868902D01*
X108764868Y-56868902D01*
X108661601Y-56886647D01*
X108560953Y-56903941D01*
X108362575Y-56977127D01*
X108358676Y-56979446D01*
X108358671Y-56979449D01*
X108249623Y-57044326D01*
X108180856Y-57085238D01*
X108177441Y-57088233D01*
X108177438Y-57088235D01*
X108135112Y-57125354D01*
X108021881Y-57224655D01*
X108019073Y-57228217D01*
X107918062Y-57356350D01*
X107890976Y-57390708D01*
X107888862Y-57394726D01*
X107864999Y-57440083D01*
X107792523Y-57577836D01*
X107729820Y-57779773D01*
X107704967Y-57989754D01*
X107472650Y-57989754D01*
X107456081Y-57809440D01*
X107398686Y-57605931D01*
X107305165Y-57416290D01*
X107178651Y-57246867D01*
X107023381Y-57103337D01*
X107016752Y-57099154D01*
X106848391Y-56992926D01*
X106844554Y-56990505D01*
X106648160Y-56912152D01*
X106440775Y-56870901D01*
X106336599Y-56869537D01*
X106233886Y-56868192D01*
X106233881Y-56868192D01*
X106229346Y-56868133D01*
X106224873Y-56868902D01*
X106224868Y-56868902D01*
X106121601Y-56886647D01*
X106020953Y-56903941D01*
X105822575Y-56977127D01*
X105818676Y-56979446D01*
X105818671Y-56979449D01*
X105709623Y-57044326D01*
X105640856Y-57085238D01*
X105637441Y-57088233D01*
X105637438Y-57088235D01*
X105595112Y-57125354D01*
X105481881Y-57224655D01*
X105479073Y-57228217D01*
X105378062Y-57356350D01*
X105350976Y-57390708D01*
X105348862Y-57394726D01*
X105324999Y-57440083D01*
X105252523Y-57577836D01*
X105189820Y-57779773D01*
X105164967Y-57989754D01*
X104932650Y-57989754D01*
X104916081Y-57809440D01*
X104858686Y-57605931D01*
X104765165Y-57416290D01*
X104638651Y-57246867D01*
X104483381Y-57103337D01*
X104476752Y-57099154D01*
X104308391Y-56992926D01*
X104304554Y-56990505D01*
X104108160Y-56912152D01*
X103900775Y-56870901D01*
X103796599Y-56869537D01*
X103693886Y-56868192D01*
X103693881Y-56868192D01*
X103689346Y-56868133D01*
X103684873Y-56868902D01*
X103684868Y-56868902D01*
X103581601Y-56886647D01*
X103480953Y-56903941D01*
X103282575Y-56977127D01*
X103278676Y-56979446D01*
X103278671Y-56979449D01*
X103169623Y-57044326D01*
X103100856Y-57085238D01*
X103097441Y-57088233D01*
X103097438Y-57088235D01*
X103055112Y-57125354D01*
X102941881Y-57224655D01*
X102939073Y-57228217D01*
X102838062Y-57356350D01*
X102810976Y-57390708D01*
X102808862Y-57394726D01*
X102784999Y-57440083D01*
X102712523Y-57577836D01*
X102649820Y-57779773D01*
X102624967Y-57989754D01*
X102392650Y-57989754D01*
X102376081Y-57809440D01*
X102318686Y-57605931D01*
X102225165Y-57416290D01*
X102098651Y-57246867D01*
X101943381Y-57103337D01*
X101936752Y-57099154D01*
X101768391Y-56992926D01*
X101764554Y-56990505D01*
X101568160Y-56912152D01*
X101360775Y-56870901D01*
X101256599Y-56869537D01*
X101153886Y-56868192D01*
X101153881Y-56868192D01*
X101149346Y-56868133D01*
X101144873Y-56868902D01*
X101144868Y-56868902D01*
X101041601Y-56886647D01*
X100940953Y-56903941D01*
X100742575Y-56977127D01*
X100738676Y-56979446D01*
X100738671Y-56979449D01*
X100629623Y-57044326D01*
X100560856Y-57085238D01*
X100557441Y-57088233D01*
X100557438Y-57088235D01*
X100515112Y-57125354D01*
X100401881Y-57224655D01*
X100399073Y-57228217D01*
X100298062Y-57356350D01*
X100270976Y-57390708D01*
X100268862Y-57394726D01*
X100244999Y-57440083D01*
X100172523Y-57577836D01*
X100109820Y-57779773D01*
X100084967Y-57989754D01*
X99852650Y-57989754D01*
X99836081Y-57809440D01*
X99778686Y-57605931D01*
X99685165Y-57416290D01*
X99558651Y-57246867D01*
X99403381Y-57103337D01*
X99396752Y-57099154D01*
X99228391Y-56992926D01*
X99224554Y-56990505D01*
X99028160Y-56912152D01*
X98820775Y-56870901D01*
X98716599Y-56869537D01*
X98613886Y-56868192D01*
X98613881Y-56868192D01*
X98609346Y-56868133D01*
X98604873Y-56868902D01*
X98604868Y-56868902D01*
X98501601Y-56886647D01*
X98400953Y-56903941D01*
X98202575Y-56977127D01*
X98198676Y-56979446D01*
X98198671Y-56979449D01*
X98089623Y-57044326D01*
X98020856Y-57085238D01*
X98017441Y-57088233D01*
X98017438Y-57088235D01*
X97975112Y-57125354D01*
X97861881Y-57224655D01*
X97859073Y-57228217D01*
X97758062Y-57356350D01*
X97730976Y-57390708D01*
X97728862Y-57394726D01*
X97704999Y-57440083D01*
X97632523Y-57577836D01*
X97569820Y-57779773D01*
X97544967Y-57989754D01*
X97312650Y-57989754D01*
X97296081Y-57809440D01*
X97238686Y-57605931D01*
X97145165Y-57416290D01*
X97018651Y-57246867D01*
X96863381Y-57103337D01*
X96856752Y-57099154D01*
X96688391Y-56992926D01*
X96684554Y-56990505D01*
X96488160Y-56912152D01*
X96280775Y-56870901D01*
X96176599Y-56869537D01*
X96073886Y-56868192D01*
X96073881Y-56868192D01*
X96069346Y-56868133D01*
X96064873Y-56868902D01*
X96064868Y-56868902D01*
X95961601Y-56886647D01*
X95860953Y-56903941D01*
X95662575Y-56977127D01*
X95658676Y-56979446D01*
X95658671Y-56979449D01*
X95549623Y-57044326D01*
X95480856Y-57085238D01*
X95477441Y-57088233D01*
X95477438Y-57088235D01*
X95435112Y-57125354D01*
X95321881Y-57224655D01*
X95319073Y-57228217D01*
X95218062Y-57356350D01*
X95190976Y-57390708D01*
X95188862Y-57394726D01*
X95164999Y-57440083D01*
X95092523Y-57577836D01*
X95029820Y-57779773D01*
X95004967Y-57989754D01*
X94770500Y-57989754D01*
X94770500Y-57125354D01*
X94767382Y-57099154D01*
X94721939Y-56996847D01*
X94642713Y-56917759D01*
X94609721Y-56903173D01*
X94547136Y-56875504D01*
X94547134Y-56875504D01*
X94540327Y-56872494D01*
X94519801Y-56870101D01*
X94517494Y-56869832D01*
X94517493Y-56869832D01*
X94514646Y-56869500D01*
X92725354Y-56869500D01*
X92708951Y-56871452D01*
X92706531Y-56871740D01*
X92706530Y-56871740D01*
X92699154Y-56872618D01*
X92596847Y-56918061D01*
X92517759Y-56997287D01*
X92514064Y-57005645D01*
X92478876Y-57085238D01*
X92472494Y-57099673D01*
X92469500Y-57125354D01*
X92469500Y-58914646D01*
X90281766Y-58914646D01*
X90472138Y-58770930D01*
X90472139Y-58770929D01*
X90474509Y-58769140D01*
X90704592Y-58547339D01*
X90906362Y-58299503D01*
X90912529Y-58289730D01*
X91075308Y-58031740D01*
X91076897Y-58029222D01*
X91079886Y-58022914D01*
X91178880Y-57813960D01*
X91213725Y-57740411D01*
X91314866Y-57437254D01*
X91318318Y-57420362D01*
X91378257Y-57127065D01*
X91378258Y-57127056D01*
X91378854Y-57124141D01*
X91380243Y-57107067D01*
X91404621Y-56807360D01*
X91404622Y-56807348D01*
X91404763Y-56805609D01*
X91405345Y-56750000D01*
X91395060Y-56579404D01*
X91386292Y-56433961D01*
X91386292Y-56433958D01*
X91386113Y-56430995D01*
X91328697Y-56116611D01*
X91278116Y-55953714D01*
X91234810Y-55814245D01*
X91234809Y-55814242D01*
X91233927Y-55811402D01*
X91203523Y-55743592D01*
X92500352Y-55743592D01*
X92530200Y-55861121D01*
X92533220Y-55869649D01*
X92617904Y-56053341D01*
X92622422Y-56061167D01*
X92739171Y-56226363D01*
X92745035Y-56233229D01*
X92889931Y-56374381D01*
X92896954Y-56380068D01*
X93065138Y-56492446D01*
X93073093Y-56496764D01*
X93258929Y-56576606D01*
X93267540Y-56579404D01*
X93354705Y-56599127D01*
X93367603Y-56597942D01*
X93369737Y-56590180D01*
X93870000Y-56590180D01*
X93874122Y-56602865D01*
X93875292Y-56603716D01*
X93881272Y-56604225D01*
X93885123Y-56603667D01*
X93893907Y-56601558D01*
X94085450Y-56536538D01*
X94093714Y-56532858D01*
X94270194Y-56434026D01*
X94277652Y-56428900D01*
X94433157Y-56299568D01*
X94439568Y-56293157D01*
X94568900Y-56137652D01*
X94574026Y-56130194D01*
X94672858Y-55953714D01*
X94676538Y-55945450D01*
X94741558Y-55753907D01*
X94743594Y-55745428D01*
X94743279Y-55743592D01*
X95040352Y-55743592D01*
X95070200Y-55861121D01*
X95073220Y-55869649D01*
X95157904Y-56053341D01*
X95162422Y-56061167D01*
X95279171Y-56226363D01*
X95285035Y-56233229D01*
X95429931Y-56374381D01*
X95436954Y-56380068D01*
X95605138Y-56492446D01*
X95613093Y-56496764D01*
X95798929Y-56576606D01*
X95807540Y-56579404D01*
X95894705Y-56599127D01*
X95907603Y-56597942D01*
X95909737Y-56590180D01*
X96410000Y-56590180D01*
X96414122Y-56602865D01*
X96415292Y-56603716D01*
X96421272Y-56604225D01*
X96425123Y-56603667D01*
X96433907Y-56601558D01*
X96625450Y-56536538D01*
X96633714Y-56532858D01*
X96810194Y-56434026D01*
X96817652Y-56428900D01*
X96973157Y-56299568D01*
X96979568Y-56293157D01*
X97108900Y-56137652D01*
X97114026Y-56130194D01*
X97212858Y-55953714D01*
X97216538Y-55945450D01*
X97281558Y-55753907D01*
X97283594Y-55745428D01*
X97281351Y-55732372D01*
X97280314Y-55731363D01*
X97274470Y-55730000D01*
X96425680Y-55730000D01*
X96412995Y-55734122D01*
X96410000Y-55738243D01*
X96410000Y-56590180D01*
X95909737Y-56590180D01*
X95910000Y-56589224D01*
X95910000Y-55745680D01*
X95905878Y-55732995D01*
X95901757Y-55730000D01*
X95052580Y-55730000D01*
X95040670Y-55733870D01*
X95040352Y-55743592D01*
X94743279Y-55743592D01*
X94741351Y-55732372D01*
X94740314Y-55731363D01*
X94734470Y-55730000D01*
X93885680Y-55730000D01*
X93872995Y-55734122D01*
X93870000Y-55738243D01*
X93870000Y-56590180D01*
X93369737Y-56590180D01*
X93370000Y-56589224D01*
X93370000Y-55745680D01*
X93365878Y-55732995D01*
X93361757Y-55730000D01*
X92512580Y-55730000D01*
X92500670Y-55733870D01*
X92500352Y-55743592D01*
X91203523Y-55743592D01*
X91103176Y-55519789D01*
X91061012Y-55449754D01*
X97544967Y-55449754D01*
X97547780Y-55492677D01*
X97558406Y-55654791D01*
X97558796Y-55660749D01*
X97559912Y-55665142D01*
X97559912Y-55665144D01*
X97582455Y-55753907D01*
X97610845Y-55865690D01*
X97612747Y-55869815D01*
X97612747Y-55869816D01*
X97651518Y-55953916D01*
X97699369Y-56057714D01*
X97821405Y-56230391D01*
X97972865Y-56377937D01*
X97976638Y-56380458D01*
X98144899Y-56492887D01*
X98144902Y-56492889D01*
X98148677Y-56495411D01*
X98245472Y-56536997D01*
X98338774Y-56577083D01*
X98338778Y-56577084D01*
X98342953Y-56578878D01*
X98347387Y-56579881D01*
X98347386Y-56579881D01*
X98544760Y-56624543D01*
X98544765Y-56624544D01*
X98549186Y-56625544D01*
X98654828Y-56629695D01*
X98755937Y-56633668D01*
X98755938Y-56633668D01*
X98760470Y-56633846D01*
X98969730Y-56603504D01*
X98974029Y-56602045D01*
X98974032Y-56602044D01*
X99165654Y-56536997D01*
X99169955Y-56535537D01*
X99354442Y-56432219D01*
X99517012Y-56297012D01*
X99652219Y-56134442D01*
X99755537Y-55949955D01*
X99770957Y-55904530D01*
X99822044Y-55754032D01*
X99822045Y-55754029D01*
X99823504Y-55749730D01*
X99853846Y-55540470D01*
X99854388Y-55519789D01*
X99855353Y-55482914D01*
X99855353Y-55482909D01*
X99855429Y-55480000D01*
X99852650Y-55449754D01*
X100084967Y-55449754D01*
X100087780Y-55492677D01*
X100098406Y-55654791D01*
X100098796Y-55660749D01*
X100099912Y-55665142D01*
X100099912Y-55665144D01*
X100122455Y-55753907D01*
X100150845Y-55865690D01*
X100152747Y-55869815D01*
X100152747Y-55869816D01*
X100191518Y-55953916D01*
X100239369Y-56057714D01*
X100361405Y-56230391D01*
X100512865Y-56377937D01*
X100516638Y-56380458D01*
X100684899Y-56492887D01*
X100684902Y-56492889D01*
X100688677Y-56495411D01*
X100785472Y-56536997D01*
X100878774Y-56577083D01*
X100878778Y-56577084D01*
X100882953Y-56578878D01*
X100887387Y-56579881D01*
X100887386Y-56579881D01*
X101084760Y-56624543D01*
X101084765Y-56624544D01*
X101089186Y-56625544D01*
X101194828Y-56629695D01*
X101295937Y-56633668D01*
X101295938Y-56633668D01*
X101300470Y-56633846D01*
X101509730Y-56603504D01*
X101514029Y-56602045D01*
X101514032Y-56602044D01*
X101705654Y-56536997D01*
X101709955Y-56535537D01*
X101894442Y-56432219D01*
X102057012Y-56297012D01*
X102192219Y-56134442D01*
X102295537Y-55949955D01*
X102310957Y-55904530D01*
X102362044Y-55754032D01*
X102362045Y-55754029D01*
X102363504Y-55749730D01*
X102393846Y-55540470D01*
X102394388Y-55519789D01*
X102395353Y-55482914D01*
X102395353Y-55482909D01*
X102395429Y-55480000D01*
X102392650Y-55449754D01*
X102624967Y-55449754D01*
X102627780Y-55492677D01*
X102638406Y-55654791D01*
X102638796Y-55660749D01*
X102639912Y-55665142D01*
X102639912Y-55665144D01*
X102662455Y-55753907D01*
X102690845Y-55865690D01*
X102692747Y-55869815D01*
X102692747Y-55869816D01*
X102731518Y-55953916D01*
X102779369Y-56057714D01*
X102901405Y-56230391D01*
X103052865Y-56377937D01*
X103056638Y-56380458D01*
X103224899Y-56492887D01*
X103224902Y-56492889D01*
X103228677Y-56495411D01*
X103325472Y-56536997D01*
X103418774Y-56577083D01*
X103418778Y-56577084D01*
X103422953Y-56578878D01*
X103427387Y-56579881D01*
X103427386Y-56579881D01*
X103624760Y-56624543D01*
X103624765Y-56624544D01*
X103629186Y-56625544D01*
X103734828Y-56629695D01*
X103835937Y-56633668D01*
X103835938Y-56633668D01*
X103840470Y-56633846D01*
X104049730Y-56603504D01*
X104054029Y-56602045D01*
X104054032Y-56602044D01*
X104245654Y-56536997D01*
X104249955Y-56535537D01*
X104434442Y-56432219D01*
X104597012Y-56297012D01*
X104732219Y-56134442D01*
X104835537Y-55949955D01*
X104850957Y-55904530D01*
X104902044Y-55754032D01*
X104902045Y-55754029D01*
X104903504Y-55749730D01*
X104933846Y-55540470D01*
X104934388Y-55519789D01*
X104935353Y-55482914D01*
X104935353Y-55482909D01*
X104935429Y-55480000D01*
X104932650Y-55449754D01*
X105164967Y-55449754D01*
X105167780Y-55492677D01*
X105178406Y-55654791D01*
X105178796Y-55660749D01*
X105179912Y-55665142D01*
X105179912Y-55665144D01*
X105202455Y-55753907D01*
X105230845Y-55865690D01*
X105232747Y-55869815D01*
X105232747Y-55869816D01*
X105271518Y-55953916D01*
X105319369Y-56057714D01*
X105441405Y-56230391D01*
X105592865Y-56377937D01*
X105596638Y-56380458D01*
X105764899Y-56492887D01*
X105764902Y-56492889D01*
X105768677Y-56495411D01*
X105865472Y-56536997D01*
X105958774Y-56577083D01*
X105958778Y-56577084D01*
X105962953Y-56578878D01*
X105967387Y-56579881D01*
X105967386Y-56579881D01*
X106164760Y-56624543D01*
X106164765Y-56624544D01*
X106169186Y-56625544D01*
X106274828Y-56629695D01*
X106375937Y-56633668D01*
X106375938Y-56633668D01*
X106380470Y-56633846D01*
X106589730Y-56603504D01*
X106594029Y-56602045D01*
X106594032Y-56602044D01*
X106785654Y-56536997D01*
X106789955Y-56535537D01*
X106974442Y-56432219D01*
X107137012Y-56297012D01*
X107272219Y-56134442D01*
X107375537Y-55949955D01*
X107390957Y-55904530D01*
X107442044Y-55754032D01*
X107442045Y-55754029D01*
X107443504Y-55749730D01*
X107473846Y-55540470D01*
X107474388Y-55519789D01*
X107475353Y-55482914D01*
X107475353Y-55482909D01*
X107475429Y-55480000D01*
X107472650Y-55449754D01*
X107704967Y-55449754D01*
X107707780Y-55492677D01*
X107718406Y-55654791D01*
X107718796Y-55660749D01*
X107719912Y-55665142D01*
X107719912Y-55665144D01*
X107742455Y-55753907D01*
X107770845Y-55865690D01*
X107772747Y-55869815D01*
X107772747Y-55869816D01*
X107811518Y-55953916D01*
X107859369Y-56057714D01*
X107981405Y-56230391D01*
X108132865Y-56377937D01*
X108136638Y-56380458D01*
X108304899Y-56492887D01*
X108304902Y-56492889D01*
X108308677Y-56495411D01*
X108405472Y-56536997D01*
X108498774Y-56577083D01*
X108498778Y-56577084D01*
X108502953Y-56578878D01*
X108507387Y-56579881D01*
X108507386Y-56579881D01*
X108704760Y-56624543D01*
X108704765Y-56624544D01*
X108709186Y-56625544D01*
X108814828Y-56629695D01*
X108915937Y-56633668D01*
X108915938Y-56633668D01*
X108920470Y-56633846D01*
X109129730Y-56603504D01*
X109134029Y-56602045D01*
X109134032Y-56602044D01*
X109325654Y-56536997D01*
X109329955Y-56535537D01*
X109514442Y-56432219D01*
X109677012Y-56297012D01*
X109812219Y-56134442D01*
X109915537Y-55949955D01*
X109930957Y-55904530D01*
X109982044Y-55754032D01*
X109982045Y-55754029D01*
X109983504Y-55749730D01*
X110013846Y-55540470D01*
X110014388Y-55519789D01*
X110015353Y-55482914D01*
X110015353Y-55482909D01*
X110015429Y-55480000D01*
X110012650Y-55449754D01*
X110244967Y-55449754D01*
X110247780Y-55492677D01*
X110258406Y-55654791D01*
X110258796Y-55660749D01*
X110259912Y-55665142D01*
X110259912Y-55665144D01*
X110282455Y-55753907D01*
X110310845Y-55865690D01*
X110312747Y-55869815D01*
X110312747Y-55869816D01*
X110351518Y-55953916D01*
X110399369Y-56057714D01*
X110521405Y-56230391D01*
X110672865Y-56377937D01*
X110676638Y-56380458D01*
X110844899Y-56492887D01*
X110844902Y-56492889D01*
X110848677Y-56495411D01*
X110945472Y-56536997D01*
X111038774Y-56577083D01*
X111038778Y-56577084D01*
X111042953Y-56578878D01*
X111047387Y-56579881D01*
X111047386Y-56579881D01*
X111244760Y-56624543D01*
X111244765Y-56624544D01*
X111249186Y-56625544D01*
X111354828Y-56629695D01*
X111455937Y-56633668D01*
X111455938Y-56633668D01*
X111460470Y-56633846D01*
X111669730Y-56603504D01*
X111674029Y-56602045D01*
X111674032Y-56602044D01*
X111865654Y-56536997D01*
X111869955Y-56535537D01*
X112054442Y-56432219D01*
X112217012Y-56297012D01*
X112352219Y-56134442D01*
X112455537Y-55949955D01*
X112470957Y-55904530D01*
X112522044Y-55754032D01*
X112522045Y-55754029D01*
X112523504Y-55749730D01*
X112553846Y-55540470D01*
X112554388Y-55519789D01*
X112555353Y-55482914D01*
X112555353Y-55482909D01*
X112555429Y-55480000D01*
X112552650Y-55449754D01*
X112784967Y-55449754D01*
X112787780Y-55492677D01*
X112798406Y-55654791D01*
X112798796Y-55660749D01*
X112799912Y-55665142D01*
X112799912Y-55665144D01*
X112822455Y-55753907D01*
X112850845Y-55865690D01*
X112852747Y-55869815D01*
X112852747Y-55869816D01*
X112891518Y-55953916D01*
X112939369Y-56057714D01*
X113061405Y-56230391D01*
X113212865Y-56377937D01*
X113216638Y-56380458D01*
X113384899Y-56492887D01*
X113384902Y-56492889D01*
X113388677Y-56495411D01*
X113485472Y-56536997D01*
X113578774Y-56577083D01*
X113578778Y-56577084D01*
X113582953Y-56578878D01*
X113587387Y-56579881D01*
X113587386Y-56579881D01*
X113784760Y-56624543D01*
X113784765Y-56624544D01*
X113789186Y-56625544D01*
X113894828Y-56629695D01*
X113995937Y-56633668D01*
X113995938Y-56633668D01*
X114000470Y-56633846D01*
X114209730Y-56603504D01*
X114214029Y-56602045D01*
X114214032Y-56602044D01*
X114405654Y-56536997D01*
X114409955Y-56535537D01*
X114594442Y-56432219D01*
X114757012Y-56297012D01*
X114892219Y-56134442D01*
X114995537Y-55949955D01*
X115010957Y-55904530D01*
X115062044Y-55754032D01*
X115062045Y-55754029D01*
X115063504Y-55749730D01*
X115093846Y-55540470D01*
X115094388Y-55519789D01*
X115095353Y-55482914D01*
X115095353Y-55482909D01*
X115095429Y-55480000D01*
X115092650Y-55449754D01*
X115324967Y-55449754D01*
X115327780Y-55492677D01*
X115338406Y-55654791D01*
X115338796Y-55660749D01*
X115339912Y-55665142D01*
X115339912Y-55665144D01*
X115362455Y-55753907D01*
X115390845Y-55865690D01*
X115392747Y-55869815D01*
X115392747Y-55869816D01*
X115431518Y-55953916D01*
X115479369Y-56057714D01*
X115601405Y-56230391D01*
X115752865Y-56377937D01*
X115756638Y-56380458D01*
X115924899Y-56492887D01*
X115924902Y-56492889D01*
X115928677Y-56495411D01*
X116025472Y-56536997D01*
X116118774Y-56577083D01*
X116118778Y-56577084D01*
X116122953Y-56578878D01*
X116127387Y-56579881D01*
X116127386Y-56579881D01*
X116324760Y-56624543D01*
X116324765Y-56624544D01*
X116329186Y-56625544D01*
X116434828Y-56629695D01*
X116535937Y-56633668D01*
X116535938Y-56633668D01*
X116540470Y-56633846D01*
X116749730Y-56603504D01*
X116754029Y-56602045D01*
X116754032Y-56602044D01*
X116945654Y-56536997D01*
X116949955Y-56535537D01*
X117134442Y-56432219D01*
X117297012Y-56297012D01*
X117432219Y-56134442D01*
X117535537Y-55949955D01*
X117550957Y-55904530D01*
X117602044Y-55754032D01*
X117602045Y-55754029D01*
X117603504Y-55749730D01*
X117633846Y-55540470D01*
X117634388Y-55519789D01*
X117635353Y-55482914D01*
X117635353Y-55482909D01*
X117635429Y-55480000D01*
X117632650Y-55449754D01*
X117864967Y-55449754D01*
X117867780Y-55492677D01*
X117878406Y-55654791D01*
X117878796Y-55660749D01*
X117879912Y-55665142D01*
X117879912Y-55665144D01*
X117902455Y-55753907D01*
X117930845Y-55865690D01*
X117932747Y-55869815D01*
X117932747Y-55869816D01*
X117971518Y-55953916D01*
X118019369Y-56057714D01*
X118141405Y-56230391D01*
X118292865Y-56377937D01*
X118296638Y-56380458D01*
X118464899Y-56492887D01*
X118464902Y-56492889D01*
X118468677Y-56495411D01*
X118565472Y-56536997D01*
X118658774Y-56577083D01*
X118658778Y-56577084D01*
X118662953Y-56578878D01*
X118667387Y-56579881D01*
X118667386Y-56579881D01*
X118864760Y-56624543D01*
X118864765Y-56624544D01*
X118869186Y-56625544D01*
X118974828Y-56629695D01*
X119075937Y-56633668D01*
X119075938Y-56633668D01*
X119080470Y-56633846D01*
X119289730Y-56603504D01*
X119294029Y-56602045D01*
X119294032Y-56602044D01*
X119485654Y-56536997D01*
X119489955Y-56535537D01*
X119674442Y-56432219D01*
X119837012Y-56297012D01*
X119972219Y-56134442D01*
X120075537Y-55949955D01*
X120090957Y-55904530D01*
X120142044Y-55754032D01*
X120142045Y-55754029D01*
X120143504Y-55749730D01*
X120173846Y-55540470D01*
X120174388Y-55519789D01*
X120175353Y-55482914D01*
X120175353Y-55482909D01*
X120175429Y-55480000D01*
X120172650Y-55449754D01*
X120404967Y-55449754D01*
X120407780Y-55492677D01*
X120418406Y-55654791D01*
X120418796Y-55660749D01*
X120419912Y-55665142D01*
X120419912Y-55665144D01*
X120442455Y-55753907D01*
X120470845Y-55865690D01*
X120472747Y-55869815D01*
X120472747Y-55869816D01*
X120511518Y-55953916D01*
X120559369Y-56057714D01*
X120681405Y-56230391D01*
X120832865Y-56377937D01*
X120836638Y-56380458D01*
X121004899Y-56492887D01*
X121004902Y-56492889D01*
X121008677Y-56495411D01*
X121105472Y-56536997D01*
X121198774Y-56577083D01*
X121198778Y-56577084D01*
X121202953Y-56578878D01*
X121207387Y-56579881D01*
X121207386Y-56579881D01*
X121404760Y-56624543D01*
X121404765Y-56624544D01*
X121409186Y-56625544D01*
X121514828Y-56629695D01*
X121615937Y-56633668D01*
X121615938Y-56633668D01*
X121620470Y-56633846D01*
X121829730Y-56603504D01*
X121834029Y-56602045D01*
X121834032Y-56602044D01*
X122025654Y-56536997D01*
X122029955Y-56535537D01*
X122214442Y-56432219D01*
X122377012Y-56297012D01*
X122512219Y-56134442D01*
X122615537Y-55949955D01*
X122630957Y-55904530D01*
X122682044Y-55754032D01*
X122682045Y-55754029D01*
X122683504Y-55749730D01*
X122713846Y-55540470D01*
X122714388Y-55519789D01*
X122715353Y-55482914D01*
X122715353Y-55482909D01*
X122715429Y-55480000D01*
X122712650Y-55449754D01*
X122944967Y-55449754D01*
X122947780Y-55492677D01*
X122958406Y-55654791D01*
X122958796Y-55660749D01*
X122959912Y-55665142D01*
X122959912Y-55665144D01*
X122982455Y-55753907D01*
X123010845Y-55865690D01*
X123012747Y-55869815D01*
X123012747Y-55869816D01*
X123051518Y-55953916D01*
X123099369Y-56057714D01*
X123221405Y-56230391D01*
X123372865Y-56377937D01*
X123376638Y-56380458D01*
X123544899Y-56492887D01*
X123544902Y-56492889D01*
X123548677Y-56495411D01*
X123645472Y-56536997D01*
X123738774Y-56577083D01*
X123738778Y-56577084D01*
X123742953Y-56578878D01*
X123747387Y-56579881D01*
X123747386Y-56579881D01*
X123944760Y-56624543D01*
X123944765Y-56624544D01*
X123949186Y-56625544D01*
X124054828Y-56629695D01*
X124155937Y-56633668D01*
X124155938Y-56633668D01*
X124160470Y-56633846D01*
X124369730Y-56603504D01*
X124374029Y-56602045D01*
X124374032Y-56602044D01*
X124565654Y-56536997D01*
X124569955Y-56535537D01*
X124754442Y-56432219D01*
X124917012Y-56297012D01*
X125052219Y-56134442D01*
X125155537Y-55949955D01*
X125170957Y-55904530D01*
X125222044Y-55754032D01*
X125222045Y-55754029D01*
X125223504Y-55749730D01*
X125253846Y-55540470D01*
X125254388Y-55519789D01*
X125255353Y-55482914D01*
X125255353Y-55482909D01*
X125255429Y-55480000D01*
X125252650Y-55449754D01*
X125484967Y-55449754D01*
X125487780Y-55492677D01*
X125498406Y-55654791D01*
X125498796Y-55660749D01*
X125499912Y-55665142D01*
X125499912Y-55665144D01*
X125522455Y-55753907D01*
X125550845Y-55865690D01*
X125552747Y-55869815D01*
X125552747Y-55869816D01*
X125591518Y-55953916D01*
X125639369Y-56057714D01*
X125761405Y-56230391D01*
X125912865Y-56377937D01*
X125916638Y-56380458D01*
X126084899Y-56492887D01*
X126084902Y-56492889D01*
X126088677Y-56495411D01*
X126185472Y-56536997D01*
X126278774Y-56577083D01*
X126278778Y-56577084D01*
X126282953Y-56578878D01*
X126287387Y-56579881D01*
X126287386Y-56579881D01*
X126484760Y-56624543D01*
X126484765Y-56624544D01*
X126489186Y-56625544D01*
X126594828Y-56629695D01*
X126695937Y-56633668D01*
X126695938Y-56633668D01*
X126700470Y-56633846D01*
X126909730Y-56603504D01*
X126914029Y-56602045D01*
X126914032Y-56602044D01*
X127105654Y-56536997D01*
X127109955Y-56535537D01*
X127294442Y-56432219D01*
X127457012Y-56297012D01*
X127592219Y-56134442D01*
X127695537Y-55949955D01*
X127710957Y-55904530D01*
X127762044Y-55754032D01*
X127762045Y-55754029D01*
X127763504Y-55749730D01*
X127793846Y-55540470D01*
X127794388Y-55519789D01*
X127795353Y-55482914D01*
X127795353Y-55482909D01*
X127795429Y-55480000D01*
X127792650Y-55449754D01*
X128024967Y-55449754D01*
X128027780Y-55492677D01*
X128038406Y-55654791D01*
X128038796Y-55660749D01*
X128039912Y-55665142D01*
X128039912Y-55665144D01*
X128062455Y-55753907D01*
X128090845Y-55865690D01*
X128092747Y-55869815D01*
X128092747Y-55869816D01*
X128131518Y-55953916D01*
X128179369Y-56057714D01*
X128301405Y-56230391D01*
X128452865Y-56377937D01*
X128456638Y-56380458D01*
X128624899Y-56492887D01*
X128624902Y-56492889D01*
X128628677Y-56495411D01*
X128725472Y-56536997D01*
X128818774Y-56577083D01*
X128818778Y-56577084D01*
X128822953Y-56578878D01*
X128827387Y-56579881D01*
X128827386Y-56579881D01*
X129024760Y-56624543D01*
X129024765Y-56624544D01*
X129029186Y-56625544D01*
X129134828Y-56629695D01*
X129235937Y-56633668D01*
X129235938Y-56633668D01*
X129240470Y-56633846D01*
X129449730Y-56603504D01*
X129454029Y-56602045D01*
X129454032Y-56602044D01*
X129645654Y-56536997D01*
X129649955Y-56535537D01*
X129834442Y-56432219D01*
X129997012Y-56297012D01*
X130132219Y-56134442D01*
X130235537Y-55949955D01*
X130250957Y-55904530D01*
X130302044Y-55754032D01*
X130302045Y-55754029D01*
X130303504Y-55749730D01*
X130333846Y-55540470D01*
X130334388Y-55519789D01*
X130335353Y-55482914D01*
X130335353Y-55482909D01*
X130335429Y-55480000D01*
X130332650Y-55449754D01*
X130564967Y-55449754D01*
X130567780Y-55492677D01*
X130578406Y-55654791D01*
X130578796Y-55660749D01*
X130579912Y-55665142D01*
X130579912Y-55665144D01*
X130602455Y-55753907D01*
X130630845Y-55865690D01*
X130632747Y-55869815D01*
X130632747Y-55869816D01*
X130671518Y-55953916D01*
X130719369Y-56057714D01*
X130841405Y-56230391D01*
X130992865Y-56377937D01*
X130996638Y-56380458D01*
X131164899Y-56492887D01*
X131164902Y-56492889D01*
X131168677Y-56495411D01*
X131265472Y-56536997D01*
X131358774Y-56577083D01*
X131358778Y-56577084D01*
X131362953Y-56578878D01*
X131367387Y-56579881D01*
X131367386Y-56579881D01*
X131564760Y-56624543D01*
X131564765Y-56624544D01*
X131569186Y-56625544D01*
X131674828Y-56629695D01*
X131775937Y-56633668D01*
X131775938Y-56633668D01*
X131780470Y-56633846D01*
X131989730Y-56603504D01*
X131994029Y-56602045D01*
X131994032Y-56602044D01*
X132185654Y-56536997D01*
X132189955Y-56535537D01*
X132374442Y-56432219D01*
X132537012Y-56297012D01*
X132672219Y-56134442D01*
X132775537Y-55949955D01*
X132790957Y-55904530D01*
X132842044Y-55754032D01*
X132842045Y-55754029D01*
X132843504Y-55749730D01*
X132873846Y-55540470D01*
X132874388Y-55519789D01*
X132875353Y-55482914D01*
X132875353Y-55482909D01*
X132875429Y-55480000D01*
X132872650Y-55449754D01*
X133104967Y-55449754D01*
X133107780Y-55492677D01*
X133118406Y-55654791D01*
X133118796Y-55660749D01*
X133119912Y-55665142D01*
X133119912Y-55665144D01*
X133142455Y-55753907D01*
X133170845Y-55865690D01*
X133172747Y-55869815D01*
X133172747Y-55869816D01*
X133211518Y-55953916D01*
X133259369Y-56057714D01*
X133381405Y-56230391D01*
X133532865Y-56377937D01*
X133536638Y-56380458D01*
X133704899Y-56492887D01*
X133704902Y-56492889D01*
X133708677Y-56495411D01*
X133805472Y-56536997D01*
X133898774Y-56577083D01*
X133898778Y-56577084D01*
X133902953Y-56578878D01*
X133907387Y-56579881D01*
X133907386Y-56579881D01*
X134104760Y-56624543D01*
X134104765Y-56624544D01*
X134109186Y-56625544D01*
X134214828Y-56629695D01*
X134315937Y-56633668D01*
X134315938Y-56633668D01*
X134320470Y-56633846D01*
X134529730Y-56603504D01*
X134534029Y-56602045D01*
X134534032Y-56602044D01*
X134725654Y-56536997D01*
X134729955Y-56535537D01*
X134914442Y-56432219D01*
X135077012Y-56297012D01*
X135212219Y-56134442D01*
X135315537Y-55949955D01*
X135330957Y-55904530D01*
X135382044Y-55754032D01*
X135382045Y-55754029D01*
X135383504Y-55749730D01*
X135413846Y-55540470D01*
X135414388Y-55519789D01*
X135415353Y-55482914D01*
X135415353Y-55482909D01*
X135415429Y-55480000D01*
X135412650Y-55449754D01*
X135644967Y-55449754D01*
X135647780Y-55492677D01*
X135658406Y-55654791D01*
X135658796Y-55660749D01*
X135659912Y-55665142D01*
X135659912Y-55665144D01*
X135682455Y-55753907D01*
X135710845Y-55865690D01*
X135712747Y-55869815D01*
X135712747Y-55869816D01*
X135751518Y-55953916D01*
X135799369Y-56057714D01*
X135921405Y-56230391D01*
X136072865Y-56377937D01*
X136076638Y-56380458D01*
X136244899Y-56492887D01*
X136244902Y-56492889D01*
X136248677Y-56495411D01*
X136345472Y-56536997D01*
X136438774Y-56577083D01*
X136438778Y-56577084D01*
X136442953Y-56578878D01*
X136447387Y-56579881D01*
X136447386Y-56579881D01*
X136644760Y-56624543D01*
X136644765Y-56624544D01*
X136649186Y-56625544D01*
X136754828Y-56629695D01*
X136855937Y-56633668D01*
X136855938Y-56633668D01*
X136860470Y-56633846D01*
X137069730Y-56603504D01*
X137074029Y-56602045D01*
X137074032Y-56602044D01*
X137265654Y-56536997D01*
X137269955Y-56535537D01*
X137454442Y-56432219D01*
X137617012Y-56297012D01*
X137752219Y-56134442D01*
X137855537Y-55949955D01*
X137870957Y-55904530D01*
X137922044Y-55754032D01*
X137922045Y-55754029D01*
X137923504Y-55749730D01*
X137953846Y-55540470D01*
X137954388Y-55519789D01*
X137955353Y-55482914D01*
X137955353Y-55482909D01*
X137955429Y-55480000D01*
X137936081Y-55269440D01*
X137878686Y-55065931D01*
X137785165Y-54876290D01*
X137658651Y-54706867D01*
X137503381Y-54563337D01*
X137488292Y-54553816D01*
X137328391Y-54452926D01*
X137324554Y-54450505D01*
X137128160Y-54372152D01*
X136920775Y-54330901D01*
X136816599Y-54329537D01*
X136713886Y-54328192D01*
X136713881Y-54328192D01*
X136709346Y-54328133D01*
X136704873Y-54328902D01*
X136704868Y-54328902D01*
X136601601Y-54346647D01*
X136500953Y-54363941D01*
X136302575Y-54437127D01*
X136298676Y-54439446D01*
X136298671Y-54439449D01*
X136124762Y-54542914D01*
X136120856Y-54545238D01*
X136117441Y-54548233D01*
X136117438Y-54548235D01*
X136090995Y-54571425D01*
X135961881Y-54684655D01*
X135959073Y-54688217D01*
X135856252Y-54818646D01*
X135830976Y-54850708D01*
X135828862Y-54854726D01*
X135766516Y-54973227D01*
X135732523Y-55037836D01*
X135721336Y-55073863D01*
X135672855Y-55230000D01*
X135669820Y-55239773D01*
X135644967Y-55449754D01*
X135412650Y-55449754D01*
X135396081Y-55269440D01*
X135338686Y-55065931D01*
X135245165Y-54876290D01*
X135118651Y-54706867D01*
X134963381Y-54563337D01*
X134948292Y-54553816D01*
X134788391Y-54452926D01*
X134784554Y-54450505D01*
X134588160Y-54372152D01*
X134380775Y-54330901D01*
X134276599Y-54329537D01*
X134173886Y-54328192D01*
X134173881Y-54328192D01*
X134169346Y-54328133D01*
X134164873Y-54328902D01*
X134164868Y-54328902D01*
X134061601Y-54346647D01*
X133960953Y-54363941D01*
X133762575Y-54437127D01*
X133758676Y-54439446D01*
X133758671Y-54439449D01*
X133584762Y-54542914D01*
X133580856Y-54545238D01*
X133577441Y-54548233D01*
X133577438Y-54548235D01*
X133550995Y-54571425D01*
X133421881Y-54684655D01*
X133419073Y-54688217D01*
X133316252Y-54818646D01*
X133290976Y-54850708D01*
X133288862Y-54854726D01*
X133226516Y-54973227D01*
X133192523Y-55037836D01*
X133181336Y-55073863D01*
X133132855Y-55230000D01*
X133129820Y-55239773D01*
X133104967Y-55449754D01*
X132872650Y-55449754D01*
X132856081Y-55269440D01*
X132798686Y-55065931D01*
X132705165Y-54876290D01*
X132578651Y-54706867D01*
X132423381Y-54563337D01*
X132408292Y-54553816D01*
X132248391Y-54452926D01*
X132244554Y-54450505D01*
X132048160Y-54372152D01*
X131840775Y-54330901D01*
X131736599Y-54329537D01*
X131633886Y-54328192D01*
X131633881Y-54328192D01*
X131629346Y-54328133D01*
X131624873Y-54328902D01*
X131624868Y-54328902D01*
X131521601Y-54346647D01*
X131420953Y-54363941D01*
X131222575Y-54437127D01*
X131218676Y-54439446D01*
X131218671Y-54439449D01*
X131044762Y-54542914D01*
X131040856Y-54545238D01*
X131037441Y-54548233D01*
X131037438Y-54548235D01*
X131010995Y-54571425D01*
X130881881Y-54684655D01*
X130879073Y-54688217D01*
X130776252Y-54818646D01*
X130750976Y-54850708D01*
X130748862Y-54854726D01*
X130686516Y-54973227D01*
X130652523Y-55037836D01*
X130641336Y-55073863D01*
X130592855Y-55230000D01*
X130589820Y-55239773D01*
X130564967Y-55449754D01*
X130332650Y-55449754D01*
X130316081Y-55269440D01*
X130258686Y-55065931D01*
X130165165Y-54876290D01*
X130038651Y-54706867D01*
X129883381Y-54563337D01*
X129868292Y-54553816D01*
X129708391Y-54452926D01*
X129704554Y-54450505D01*
X129508160Y-54372152D01*
X129300775Y-54330901D01*
X129196599Y-54329537D01*
X129093886Y-54328192D01*
X129093881Y-54328192D01*
X129089346Y-54328133D01*
X129084873Y-54328902D01*
X129084868Y-54328902D01*
X128981601Y-54346647D01*
X128880953Y-54363941D01*
X128682575Y-54437127D01*
X128678676Y-54439446D01*
X128678671Y-54439449D01*
X128504762Y-54542914D01*
X128500856Y-54545238D01*
X128497441Y-54548233D01*
X128497438Y-54548235D01*
X128470995Y-54571425D01*
X128341881Y-54684655D01*
X128339073Y-54688217D01*
X128236252Y-54818646D01*
X128210976Y-54850708D01*
X128208862Y-54854726D01*
X128146516Y-54973227D01*
X128112523Y-55037836D01*
X128101336Y-55073863D01*
X128052855Y-55230000D01*
X128049820Y-55239773D01*
X128024967Y-55449754D01*
X127792650Y-55449754D01*
X127776081Y-55269440D01*
X127718686Y-55065931D01*
X127625165Y-54876290D01*
X127498651Y-54706867D01*
X127343381Y-54563337D01*
X127328292Y-54553816D01*
X127168391Y-54452926D01*
X127164554Y-54450505D01*
X126968160Y-54372152D01*
X126760775Y-54330901D01*
X126656599Y-54329537D01*
X126553886Y-54328192D01*
X126553881Y-54328192D01*
X126549346Y-54328133D01*
X126544873Y-54328902D01*
X126544868Y-54328902D01*
X126441601Y-54346647D01*
X126340953Y-54363941D01*
X126142575Y-54437127D01*
X126138676Y-54439446D01*
X126138671Y-54439449D01*
X125964762Y-54542914D01*
X125960856Y-54545238D01*
X125957441Y-54548233D01*
X125957438Y-54548235D01*
X125930995Y-54571425D01*
X125801881Y-54684655D01*
X125799073Y-54688217D01*
X125696252Y-54818646D01*
X125670976Y-54850708D01*
X125668862Y-54854726D01*
X125606516Y-54973227D01*
X125572523Y-55037836D01*
X125561336Y-55073863D01*
X125512855Y-55230000D01*
X125509820Y-55239773D01*
X125484967Y-55449754D01*
X125252650Y-55449754D01*
X125236081Y-55269440D01*
X125178686Y-55065931D01*
X125085165Y-54876290D01*
X124958651Y-54706867D01*
X124803381Y-54563337D01*
X124788292Y-54553816D01*
X124628391Y-54452926D01*
X124624554Y-54450505D01*
X124428160Y-54372152D01*
X124220775Y-54330901D01*
X124116599Y-54329537D01*
X124013886Y-54328192D01*
X124013881Y-54328192D01*
X124009346Y-54328133D01*
X124004873Y-54328902D01*
X124004868Y-54328902D01*
X123901601Y-54346647D01*
X123800953Y-54363941D01*
X123602575Y-54437127D01*
X123598676Y-54439446D01*
X123598671Y-54439449D01*
X123424762Y-54542914D01*
X123420856Y-54545238D01*
X123417441Y-54548233D01*
X123417438Y-54548235D01*
X123390995Y-54571425D01*
X123261881Y-54684655D01*
X123259073Y-54688217D01*
X123156252Y-54818646D01*
X123130976Y-54850708D01*
X123128862Y-54854726D01*
X123066516Y-54973227D01*
X123032523Y-55037836D01*
X123021336Y-55073863D01*
X122972855Y-55230000D01*
X122969820Y-55239773D01*
X122944967Y-55449754D01*
X122712650Y-55449754D01*
X122696081Y-55269440D01*
X122638686Y-55065931D01*
X122545165Y-54876290D01*
X122418651Y-54706867D01*
X122263381Y-54563337D01*
X122248292Y-54553816D01*
X122088391Y-54452926D01*
X122084554Y-54450505D01*
X121888160Y-54372152D01*
X121680775Y-54330901D01*
X121576599Y-54329537D01*
X121473886Y-54328192D01*
X121473881Y-54328192D01*
X121469346Y-54328133D01*
X121464873Y-54328902D01*
X121464868Y-54328902D01*
X121361601Y-54346647D01*
X121260953Y-54363941D01*
X121062575Y-54437127D01*
X121058676Y-54439446D01*
X121058671Y-54439449D01*
X120884762Y-54542914D01*
X120880856Y-54545238D01*
X120877441Y-54548233D01*
X120877438Y-54548235D01*
X120850995Y-54571425D01*
X120721881Y-54684655D01*
X120719073Y-54688217D01*
X120616252Y-54818646D01*
X120590976Y-54850708D01*
X120588862Y-54854726D01*
X120526516Y-54973227D01*
X120492523Y-55037836D01*
X120481336Y-55073863D01*
X120432855Y-55230000D01*
X120429820Y-55239773D01*
X120404967Y-55449754D01*
X120172650Y-55449754D01*
X120156081Y-55269440D01*
X120098686Y-55065931D01*
X120005165Y-54876290D01*
X119878651Y-54706867D01*
X119723381Y-54563337D01*
X119708292Y-54553816D01*
X119548391Y-54452926D01*
X119544554Y-54450505D01*
X119348160Y-54372152D01*
X119140775Y-54330901D01*
X119036599Y-54329537D01*
X118933886Y-54328192D01*
X118933881Y-54328192D01*
X118929346Y-54328133D01*
X118924873Y-54328902D01*
X118924868Y-54328902D01*
X118821601Y-54346647D01*
X118720953Y-54363941D01*
X118522575Y-54437127D01*
X118518676Y-54439446D01*
X118518671Y-54439449D01*
X118344762Y-54542914D01*
X118340856Y-54545238D01*
X118337441Y-54548233D01*
X118337438Y-54548235D01*
X118310995Y-54571425D01*
X118181881Y-54684655D01*
X118179073Y-54688217D01*
X118076252Y-54818646D01*
X118050976Y-54850708D01*
X118048862Y-54854726D01*
X117986516Y-54973227D01*
X117952523Y-55037836D01*
X117941336Y-55073863D01*
X117892855Y-55230000D01*
X117889820Y-55239773D01*
X117864967Y-55449754D01*
X117632650Y-55449754D01*
X117616081Y-55269440D01*
X117558686Y-55065931D01*
X117465165Y-54876290D01*
X117338651Y-54706867D01*
X117183381Y-54563337D01*
X117168292Y-54553816D01*
X117008391Y-54452926D01*
X117004554Y-54450505D01*
X116808160Y-54372152D01*
X116600775Y-54330901D01*
X116496599Y-54329537D01*
X116393886Y-54328192D01*
X116393881Y-54328192D01*
X116389346Y-54328133D01*
X116384873Y-54328902D01*
X116384868Y-54328902D01*
X116281601Y-54346647D01*
X116180953Y-54363941D01*
X115982575Y-54437127D01*
X115978676Y-54439446D01*
X115978671Y-54439449D01*
X115804762Y-54542914D01*
X115800856Y-54545238D01*
X115797441Y-54548233D01*
X115797438Y-54548235D01*
X115770995Y-54571425D01*
X115641881Y-54684655D01*
X115639073Y-54688217D01*
X115536252Y-54818646D01*
X115510976Y-54850708D01*
X115508862Y-54854726D01*
X115446516Y-54973227D01*
X115412523Y-55037836D01*
X115401336Y-55073863D01*
X115352855Y-55230000D01*
X115349820Y-55239773D01*
X115324967Y-55449754D01*
X115092650Y-55449754D01*
X115076081Y-55269440D01*
X115018686Y-55065931D01*
X114925165Y-54876290D01*
X114798651Y-54706867D01*
X114643381Y-54563337D01*
X114628292Y-54553816D01*
X114468391Y-54452926D01*
X114464554Y-54450505D01*
X114268160Y-54372152D01*
X114060775Y-54330901D01*
X113956599Y-54329537D01*
X113853886Y-54328192D01*
X113853881Y-54328192D01*
X113849346Y-54328133D01*
X113844873Y-54328902D01*
X113844868Y-54328902D01*
X113741601Y-54346647D01*
X113640953Y-54363941D01*
X113442575Y-54437127D01*
X113438676Y-54439446D01*
X113438671Y-54439449D01*
X113264762Y-54542914D01*
X113260856Y-54545238D01*
X113257441Y-54548233D01*
X113257438Y-54548235D01*
X113230995Y-54571425D01*
X113101881Y-54684655D01*
X113099073Y-54688217D01*
X112996252Y-54818646D01*
X112970976Y-54850708D01*
X112968862Y-54854726D01*
X112906516Y-54973227D01*
X112872523Y-55037836D01*
X112861336Y-55073863D01*
X112812855Y-55230000D01*
X112809820Y-55239773D01*
X112784967Y-55449754D01*
X112552650Y-55449754D01*
X112536081Y-55269440D01*
X112478686Y-55065931D01*
X112385165Y-54876290D01*
X112258651Y-54706867D01*
X112103381Y-54563337D01*
X112088292Y-54553816D01*
X111928391Y-54452926D01*
X111924554Y-54450505D01*
X111728160Y-54372152D01*
X111520775Y-54330901D01*
X111416599Y-54329537D01*
X111313886Y-54328192D01*
X111313881Y-54328192D01*
X111309346Y-54328133D01*
X111304873Y-54328902D01*
X111304868Y-54328902D01*
X111201601Y-54346647D01*
X111100953Y-54363941D01*
X110902575Y-54437127D01*
X110898676Y-54439446D01*
X110898671Y-54439449D01*
X110724762Y-54542914D01*
X110720856Y-54545238D01*
X110717441Y-54548233D01*
X110717438Y-54548235D01*
X110690995Y-54571425D01*
X110561881Y-54684655D01*
X110559073Y-54688217D01*
X110456252Y-54818646D01*
X110430976Y-54850708D01*
X110428862Y-54854726D01*
X110366516Y-54973227D01*
X110332523Y-55037836D01*
X110321336Y-55073863D01*
X110272855Y-55230000D01*
X110269820Y-55239773D01*
X110244967Y-55449754D01*
X110012650Y-55449754D01*
X109996081Y-55269440D01*
X109938686Y-55065931D01*
X109845165Y-54876290D01*
X109718651Y-54706867D01*
X109563381Y-54563337D01*
X109548292Y-54553816D01*
X109388391Y-54452926D01*
X109384554Y-54450505D01*
X109188160Y-54372152D01*
X108980775Y-54330901D01*
X108876599Y-54329537D01*
X108773886Y-54328192D01*
X108773881Y-54328192D01*
X108769346Y-54328133D01*
X108764873Y-54328902D01*
X108764868Y-54328902D01*
X108661601Y-54346647D01*
X108560953Y-54363941D01*
X108362575Y-54437127D01*
X108358676Y-54439446D01*
X108358671Y-54439449D01*
X108184762Y-54542914D01*
X108180856Y-54545238D01*
X108177441Y-54548233D01*
X108177438Y-54548235D01*
X108150995Y-54571425D01*
X108021881Y-54684655D01*
X108019073Y-54688217D01*
X107916252Y-54818646D01*
X107890976Y-54850708D01*
X107888862Y-54854726D01*
X107826516Y-54973227D01*
X107792523Y-55037836D01*
X107781336Y-55073863D01*
X107732855Y-55230000D01*
X107729820Y-55239773D01*
X107704967Y-55449754D01*
X107472650Y-55449754D01*
X107456081Y-55269440D01*
X107398686Y-55065931D01*
X107305165Y-54876290D01*
X107178651Y-54706867D01*
X107023381Y-54563337D01*
X107008292Y-54553816D01*
X106848391Y-54452926D01*
X106844554Y-54450505D01*
X106648160Y-54372152D01*
X106440775Y-54330901D01*
X106336599Y-54329537D01*
X106233886Y-54328192D01*
X106233881Y-54328192D01*
X106229346Y-54328133D01*
X106224873Y-54328902D01*
X106224868Y-54328902D01*
X106121601Y-54346647D01*
X106020953Y-54363941D01*
X105822575Y-54437127D01*
X105818676Y-54439446D01*
X105818671Y-54439449D01*
X105644762Y-54542914D01*
X105640856Y-54545238D01*
X105637441Y-54548233D01*
X105637438Y-54548235D01*
X105610995Y-54571425D01*
X105481881Y-54684655D01*
X105479073Y-54688217D01*
X105376252Y-54818646D01*
X105350976Y-54850708D01*
X105348862Y-54854726D01*
X105286516Y-54973227D01*
X105252523Y-55037836D01*
X105241336Y-55073863D01*
X105192855Y-55230000D01*
X105189820Y-55239773D01*
X105164967Y-55449754D01*
X104932650Y-55449754D01*
X104916081Y-55269440D01*
X104858686Y-55065931D01*
X104765165Y-54876290D01*
X104638651Y-54706867D01*
X104483381Y-54563337D01*
X104468292Y-54553816D01*
X104308391Y-54452926D01*
X104304554Y-54450505D01*
X104108160Y-54372152D01*
X103900775Y-54330901D01*
X103796599Y-54329537D01*
X103693886Y-54328192D01*
X103693881Y-54328192D01*
X103689346Y-54328133D01*
X103684873Y-54328902D01*
X103684868Y-54328902D01*
X103581601Y-54346647D01*
X103480953Y-54363941D01*
X103282575Y-54437127D01*
X103278676Y-54439446D01*
X103278671Y-54439449D01*
X103104762Y-54542914D01*
X103100856Y-54545238D01*
X103097441Y-54548233D01*
X103097438Y-54548235D01*
X103070995Y-54571425D01*
X102941881Y-54684655D01*
X102939073Y-54688217D01*
X102836252Y-54818646D01*
X102810976Y-54850708D01*
X102808862Y-54854726D01*
X102746516Y-54973227D01*
X102712523Y-55037836D01*
X102701336Y-55073863D01*
X102652855Y-55230000D01*
X102649820Y-55239773D01*
X102624967Y-55449754D01*
X102392650Y-55449754D01*
X102376081Y-55269440D01*
X102318686Y-55065931D01*
X102225165Y-54876290D01*
X102098651Y-54706867D01*
X101943381Y-54563337D01*
X101928292Y-54553816D01*
X101768391Y-54452926D01*
X101764554Y-54450505D01*
X101568160Y-54372152D01*
X101360775Y-54330901D01*
X101256599Y-54329537D01*
X101153886Y-54328192D01*
X101153881Y-54328192D01*
X101149346Y-54328133D01*
X101144873Y-54328902D01*
X101144868Y-54328902D01*
X101041601Y-54346647D01*
X100940953Y-54363941D01*
X100742575Y-54437127D01*
X100738676Y-54439446D01*
X100738671Y-54439449D01*
X100564762Y-54542914D01*
X100560856Y-54545238D01*
X100557441Y-54548233D01*
X100557438Y-54548235D01*
X100530995Y-54571425D01*
X100401881Y-54684655D01*
X100399073Y-54688217D01*
X100296252Y-54818646D01*
X100270976Y-54850708D01*
X100268862Y-54854726D01*
X100206516Y-54973227D01*
X100172523Y-55037836D01*
X100161336Y-55073863D01*
X100112855Y-55230000D01*
X100109820Y-55239773D01*
X100084967Y-55449754D01*
X99852650Y-55449754D01*
X99836081Y-55269440D01*
X99778686Y-55065931D01*
X99685165Y-54876290D01*
X99558651Y-54706867D01*
X99403381Y-54563337D01*
X99388292Y-54553816D01*
X99228391Y-54452926D01*
X99224554Y-54450505D01*
X99028160Y-54372152D01*
X98820775Y-54330901D01*
X98716599Y-54329537D01*
X98613886Y-54328192D01*
X98613881Y-54328192D01*
X98609346Y-54328133D01*
X98604873Y-54328902D01*
X98604868Y-54328902D01*
X98501601Y-54346647D01*
X98400953Y-54363941D01*
X98202575Y-54437127D01*
X98198676Y-54439446D01*
X98198671Y-54439449D01*
X98024762Y-54542914D01*
X98020856Y-54545238D01*
X98017441Y-54548233D01*
X98017438Y-54548235D01*
X97990995Y-54571425D01*
X97861881Y-54684655D01*
X97859073Y-54688217D01*
X97756252Y-54818646D01*
X97730976Y-54850708D01*
X97728862Y-54854726D01*
X97666516Y-54973227D01*
X97632523Y-55037836D01*
X97621336Y-55073863D01*
X97572855Y-55230000D01*
X97569820Y-55239773D01*
X97544967Y-55449754D01*
X91061012Y-55449754D01*
X90955175Y-55273960D01*
X90939878Y-55248552D01*
X90939877Y-55248550D01*
X90938339Y-55245996D01*
X90925864Y-55230000D01*
X90914185Y-55215024D01*
X92498028Y-55215024D01*
X92498180Y-55226649D01*
X92508727Y-55230000D01*
X93354320Y-55230000D01*
X93367005Y-55225878D01*
X93370000Y-55221757D01*
X93370000Y-55214320D01*
X93870000Y-55214320D01*
X93874122Y-55227005D01*
X93878243Y-55230000D01*
X94728759Y-55230000D01*
X94740249Y-55226267D01*
X94740453Y-55215866D01*
X94740216Y-55215024D01*
X95038028Y-55215024D01*
X95038180Y-55226649D01*
X95048727Y-55230000D01*
X95894320Y-55230000D01*
X95907005Y-55225878D01*
X95910000Y-55221757D01*
X95910000Y-55214320D01*
X96410000Y-55214320D01*
X96414122Y-55227005D01*
X96418243Y-55230000D01*
X97268759Y-55230000D01*
X97280249Y-55226267D01*
X97280453Y-55215866D01*
X97239449Y-55070481D01*
X97236208Y-55062037D01*
X97146745Y-54880624D01*
X97142020Y-54872914D01*
X97020994Y-54710840D01*
X97014945Y-54704122D01*
X96866405Y-54566814D01*
X96859240Y-54561315D01*
X96688163Y-54453374D01*
X96680110Y-54449271D01*
X96492234Y-54374315D01*
X96483565Y-54371747D01*
X96425379Y-54360174D01*
X96412133Y-54361742D01*
X96412100Y-54361772D01*
X96410000Y-54369819D01*
X96410000Y-55214320D01*
X95910000Y-55214320D01*
X95910000Y-54371700D01*
X95905878Y-54359015D01*
X95905274Y-54358576D01*
X95898127Y-54358060D01*
X95865550Y-54363658D01*
X95856831Y-54365995D01*
X95667050Y-54436009D01*
X95658887Y-54439902D01*
X95485047Y-54543326D01*
X95477745Y-54548631D01*
X95325657Y-54682010D01*
X95319434Y-54688568D01*
X95194209Y-54847415D01*
X95189284Y-54854998D01*
X95095097Y-55034018D01*
X95091643Y-55042358D01*
X95038028Y-55215024D01*
X94740216Y-55215024D01*
X94699449Y-55070481D01*
X94696208Y-55062037D01*
X94606745Y-54880624D01*
X94602020Y-54872914D01*
X94480994Y-54710840D01*
X94474945Y-54704122D01*
X94326405Y-54566814D01*
X94319240Y-54561315D01*
X94148163Y-54453374D01*
X94140110Y-54449271D01*
X93952234Y-54374315D01*
X93943565Y-54371747D01*
X93885379Y-54360174D01*
X93872133Y-54361742D01*
X93872100Y-54361772D01*
X93870000Y-54369819D01*
X93870000Y-55214320D01*
X93370000Y-55214320D01*
X93370000Y-54371700D01*
X93365878Y-54359015D01*
X93365274Y-54358576D01*
X93358127Y-54358060D01*
X93325550Y-54363658D01*
X93316831Y-54365995D01*
X93127050Y-54436009D01*
X93118887Y-54439902D01*
X92945047Y-54543326D01*
X92937745Y-54548631D01*
X92785657Y-54682010D01*
X92779434Y-54688568D01*
X92654209Y-54847415D01*
X92649284Y-54854998D01*
X92555097Y-55034018D01*
X92551643Y-55042358D01*
X92498028Y-55215024D01*
X90914185Y-55215024D01*
X90743645Y-54996349D01*
X90743641Y-54996344D01*
X90741804Y-54993989D01*
X90516416Y-54767418D01*
X90383116Y-54662333D01*
X90267787Y-54571415D01*
X90267782Y-54571412D01*
X90265441Y-54569566D01*
X89992515Y-54403297D01*
X89989799Y-54402062D01*
X89989795Y-54402060D01*
X89704310Y-54272258D01*
X89704306Y-54272257D01*
X89701591Y-54271022D01*
X89396882Y-54174655D01*
X89229340Y-54143149D01*
X89085734Y-54116144D01*
X89085731Y-54116144D01*
X89082803Y-54115593D01*
X88763903Y-54094691D01*
X88760922Y-54094855D01*
X88760915Y-54094855D01*
X88447779Y-54112089D01*
X88447776Y-54112089D01*
X88444802Y-54112253D01*
X88130122Y-54168022D01*
X88127264Y-54168893D01*
X88127260Y-54168894D01*
X87997470Y-54208451D01*
X87824421Y-54261193D01*
X87821695Y-54262398D01*
X87821690Y-54262400D01*
X87568544Y-54374315D01*
X87532127Y-54390415D01*
X87257475Y-54553816D01*
X87004442Y-54749029D01*
X86943272Y-54809246D01*
X86878862Y-54872652D01*
X86776694Y-54973227D01*
X86577530Y-55223163D01*
X86575617Y-55226267D01*
X86419214Y-55480000D01*
X86409835Y-55495215D01*
X86408587Y-55497923D01*
X86408585Y-55497926D01*
X86388972Y-55540470D01*
X86276038Y-55785443D01*
X86275122Y-55788287D01*
X86275121Y-55788290D01*
X86266763Y-55814245D01*
X86178078Y-56089643D01*
X86177513Y-56092562D01*
X86177513Y-56092563D01*
X86122913Y-56374771D01*
X86117372Y-56403408D01*
X86094801Y-56722194D01*
X85550500Y-56722194D01*
X85550500Y-56284953D01*
X85552004Y-56267761D01*
X85553632Y-56258528D01*
X85555136Y-56250000D01*
X85553611Y-56241351D01*
X85552263Y-56218609D01*
X85558151Y-56113764D01*
X85567163Y-55953298D01*
X85568405Y-55942271D01*
X85574818Y-55904530D01*
X85617250Y-55654791D01*
X85619720Y-55643967D01*
X85663306Y-55492677D01*
X85700450Y-55363748D01*
X85704115Y-55353274D01*
X85736968Y-55273960D01*
X85815711Y-55083859D01*
X85820525Y-55073863D01*
X85822395Y-55070481D01*
X85961579Y-54818644D01*
X85967484Y-54809246D01*
X86136235Y-54571415D01*
X86143149Y-54562745D01*
X86151129Y-54553816D01*
X86321064Y-54363658D01*
X86337460Y-54345311D01*
X86345311Y-54337460D01*
X86527490Y-54174655D01*
X86562748Y-54143147D01*
X86571419Y-54136232D01*
X86809250Y-53967481D01*
X86818646Y-53961578D01*
X87073869Y-53820522D01*
X87083859Y-53815711D01*
X87353278Y-53704114D01*
X87363748Y-53700450D01*
X87548406Y-53647250D01*
X87643967Y-53619720D01*
X87654791Y-53617250D01*
X87738694Y-53602994D01*
X87942275Y-53568404D01*
X87953298Y-53567163D01*
X88218609Y-53552263D01*
X88241351Y-53553611D01*
X88250000Y-53555136D01*
X88267764Y-53552004D01*
X88284953Y-53550500D01*
X139401000Y-53550500D01*
X139459191Y-53569407D01*
G37*
%TD.AperFunction*%
%TD*%
%TA.AperFunction,Conductor*%
%TO.N,GND*%
G36*
X125942121Y-105020002D02*
G01*
X125988614Y-105073658D01*
X126000000Y-105126000D01*
X126000000Y-106924000D01*
X125979998Y-106992121D01*
X125926342Y-107038614D01*
X125874000Y-107050000D01*
X123726000Y-107050000D01*
X123657879Y-107029998D01*
X123611386Y-106976342D01*
X123600000Y-106924000D01*
X123600000Y-105433450D01*
X123620002Y-105365329D01*
X123636905Y-105344355D01*
X123674453Y-105306807D01*
X123678489Y-105299983D01*
X123678491Y-105299980D01*
X123755108Y-105170427D01*
X123759145Y-105163601D01*
X123780282Y-105090847D01*
X123818495Y-105031012D01*
X123882991Y-105001334D01*
X123901279Y-105000000D01*
X125874000Y-105000000D01*
X125942121Y-105020002D01*
G37*
%TD.AperFunction*%
%TD*%
%TA.AperFunction,Conductor*%
%TO.N,GND*%
G36*
X139692121Y-69620002D02*
G01*
X139738614Y-69673658D01*
X139750000Y-69726000D01*
X139750000Y-73000000D01*
X144699000Y-73000000D01*
X144767121Y-73020002D01*
X144813614Y-73073658D01*
X144825000Y-73126000D01*
X144825000Y-76825000D01*
X144843481Y-76832261D01*
X144843482Y-76832261D01*
X146145072Y-77343600D01*
X146201162Y-77387126D01*
X146225000Y-77460875D01*
X146225000Y-96974000D01*
X146204998Y-97042121D01*
X146151342Y-97088614D01*
X146099000Y-97100000D01*
X141445192Y-97100000D01*
X141377071Y-97079998D01*
X141356097Y-97063095D01*
X141041405Y-96748403D01*
X141007379Y-96686091D01*
X141004500Y-96659308D01*
X141004499Y-92481122D01*
X141004499Y-92474934D01*
X140989734Y-92400699D01*
X140933484Y-92316516D01*
X140849301Y-92260266D01*
X140775067Y-92245500D01*
X140768879Y-92245500D01*
X140763650Y-92244985D01*
X140697818Y-92218403D01*
X140656808Y-92160449D01*
X140650000Y-92119592D01*
X140650000Y-91500000D01*
X140654490Y-91500000D01*
X140654494Y-91462396D01*
X140670620Y-91427907D01*
X140673073Y-91424235D01*
X140689734Y-91399301D01*
X140704500Y-91325067D01*
X140704499Y-89474934D01*
X140689734Y-89400699D01*
X140633484Y-89316516D01*
X140549301Y-89260266D01*
X140475067Y-89245500D01*
X140180500Y-89245500D01*
X140112379Y-89225498D01*
X140065886Y-89171842D01*
X140054500Y-89119500D01*
X140054500Y-81893181D01*
X140054499Y-81893175D01*
X140054499Y-79224934D01*
X140039734Y-79150699D01*
X139983484Y-79066516D01*
X139899301Y-79010266D01*
X139825067Y-78995500D01*
X138350239Y-78995500D01*
X136874934Y-78995501D01*
X136865193Y-78997439D01*
X136864486Y-78997579D01*
X136839907Y-79000000D01*
X135926000Y-79000000D01*
X135857879Y-78979998D01*
X135811386Y-78926342D01*
X135800000Y-78874000D01*
X135800000Y-69726000D01*
X135820002Y-69657879D01*
X135873658Y-69611386D01*
X135926000Y-69600000D01*
X139624000Y-69600000D01*
X139692121Y-69620002D01*
G37*
%TD.AperFunction*%
%TD*%
%TA.AperFunction,Conductor*%
%TO.N,+5V*%
G36*
X145419892Y-63468907D02*
G01*
X145455856Y-63518407D01*
X145455856Y-63579593D01*
X145419892Y-63629093D01*
X145371918Y-63647471D01*
X145324327Y-63652409D01*
X145313800Y-63654682D01*
X145156723Y-63707086D01*
X145146376Y-63711933D01*
X145005855Y-63798891D01*
X144996902Y-63805987D01*
X144880153Y-63922939D01*
X144873073Y-63931904D01*
X144786359Y-64072580D01*
X144781531Y-64082934D01*
X144729785Y-64238944D01*
X144731613Y-64247441D01*
X144733520Y-64249149D01*
X144737551Y-64250000D01*
X147706981Y-64250000D01*
X147719666Y-64245878D01*
X147721152Y-64243834D01*
X147721235Y-64243044D01*
X147720320Y-64238805D01*
X147667914Y-64081723D01*
X147663067Y-64071376D01*
X147576109Y-63930855D01*
X147569013Y-63921902D01*
X147452061Y-63805153D01*
X147443096Y-63798073D01*
X147302420Y-63711359D01*
X147292066Y-63706531D01*
X147134890Y-63654398D01*
X147124379Y-63652145D01*
X147078888Y-63647484D01*
X147022927Y-63622745D01*
X146992196Y-63569837D01*
X146998432Y-63508970D01*
X147039253Y-63463394D01*
X147088978Y-63450000D01*
X149850500Y-63450000D01*
X149908691Y-63468907D01*
X149944655Y-63518407D01*
X149949500Y-63549000D01*
X149949500Y-68133531D01*
X149930593Y-68191722D01*
X149881093Y-68227686D01*
X149851324Y-68232528D01*
X149634635Y-68234330D01*
X149621929Y-68233616D01*
X149546594Y-68224500D01*
X149240531Y-68224500D01*
X149212915Y-68220570D01*
X149210516Y-68219873D01*
X149201690Y-68216852D01*
X149192772Y-68213321D01*
X149160047Y-68200364D01*
X149142694Y-68198540D01*
X149125432Y-68195153D01*
X149108675Y-68190285D01*
X149103502Y-68189905D01*
X149103501Y-68189905D01*
X149099786Y-68189632D01*
X149099779Y-68189632D01*
X149097985Y-68189500D01*
X149061869Y-68189500D01*
X149051521Y-68188958D01*
X149016755Y-68185304D01*
X149016754Y-68185304D01*
X149010046Y-68184599D01*
X148989264Y-68188114D01*
X148972754Y-68189500D01*
X148083149Y-68189500D01*
X148050349Y-68183908D01*
X148017526Y-68172382D01*
X148011519Y-68171814D01*
X148011518Y-68171814D01*
X147989349Y-68169718D01*
X147989339Y-68169718D01*
X147987038Y-68169500D01*
X147512962Y-68169500D01*
X147510661Y-68169718D01*
X147510651Y-68169718D01*
X147488479Y-68171814D01*
X147488476Y-68171815D01*
X147482474Y-68172382D01*
X147358915Y-68215773D01*
X147253577Y-68293577D01*
X147175773Y-68398915D01*
X147132382Y-68522474D01*
X147129500Y-68552962D01*
X147129500Y-68927038D01*
X147132382Y-68957526D01*
X147175773Y-69081085D01*
X147253577Y-69186423D01*
X147358915Y-69264227D01*
X147482474Y-69307618D01*
X147488476Y-69308185D01*
X147488479Y-69308186D01*
X147510651Y-69310282D01*
X147510661Y-69310282D01*
X147512962Y-69310500D01*
X147651000Y-69310500D01*
X147709191Y-69329407D01*
X147745155Y-69378907D01*
X147750000Y-69409500D01*
X147750000Y-70231577D01*
X147731601Y-70285782D01*
X147732658Y-70286393D01*
X147729589Y-70291709D01*
X147729544Y-70291841D01*
X147729417Y-70292007D01*
X147725464Y-70297159D01*
X147664956Y-70443238D01*
X147644318Y-70600000D01*
X147664956Y-70756762D01*
X147667440Y-70762760D01*
X147667441Y-70762762D01*
X147675664Y-70782615D01*
X147680464Y-70843612D01*
X147648495Y-70895781D01*
X147591967Y-70919195D01*
X147584200Y-70919500D01*
X147512962Y-70919500D01*
X147510661Y-70919718D01*
X147510651Y-70919718D01*
X147488482Y-70921814D01*
X147488481Y-70921814D01*
X147482474Y-70922382D01*
X147449651Y-70933908D01*
X147416851Y-70939500D01*
X147235709Y-70939500D01*
X147197823Y-70931964D01*
X147162759Y-70917440D01*
X147156762Y-70914956D01*
X147000000Y-70894318D01*
X146843238Y-70914956D01*
X146837241Y-70917440D01*
X146826681Y-70921814D01*
X146697159Y-70975464D01*
X146571718Y-71071718D01*
X146475464Y-71197159D01*
X146414956Y-71343238D01*
X146394318Y-71500000D01*
X146414956Y-71656762D01*
X146475464Y-71802841D01*
X146571718Y-71928282D01*
X146697159Y-72024536D01*
X146843238Y-72085044D01*
X147000000Y-72105682D01*
X147047874Y-72099379D01*
X147108034Y-72110529D01*
X147150152Y-72154911D01*
X147158138Y-72215573D01*
X147154205Y-72230332D01*
X147132382Y-72292474D01*
X147129500Y-72322962D01*
X147129500Y-72697038D01*
X147132382Y-72727526D01*
X147175773Y-72851085D01*
X147253577Y-72956423D01*
X147358915Y-73034227D01*
X147482474Y-73077618D01*
X147488476Y-73078185D01*
X147488479Y-73078186D01*
X147510651Y-73080282D01*
X147510661Y-73080282D01*
X147512962Y-73080500D01*
X147987038Y-73080500D01*
X147989339Y-73080282D01*
X147989349Y-73080282D01*
X148011518Y-73078186D01*
X148011519Y-73078186D01*
X148017526Y-73077618D01*
X148050349Y-73066092D01*
X148083149Y-73060500D01*
X148560555Y-73060500D01*
X148618746Y-73079407D01*
X148654710Y-73128907D01*
X148654710Y-73190093D01*
X148630559Y-73229504D01*
X148628516Y-73231547D01*
X148623133Y-73235633D01*
X148619047Y-73241016D01*
X148557791Y-73321718D01*
X148537119Y-73348952D01*
X148484747Y-73481227D01*
X148474500Y-73565906D01*
X148474500Y-74084094D01*
X148484747Y-74168773D01*
X148537119Y-74301048D01*
X148541199Y-74306423D01*
X148541200Y-74306425D01*
X148598587Y-74382028D01*
X148623133Y-74414367D01*
X148657453Y-74440417D01*
X148660356Y-74442621D01*
X148695275Y-74492863D01*
X148699500Y-74521477D01*
X148699500Y-74535567D01*
X148699413Y-74539711D01*
X148698271Y-74566972D01*
X148697512Y-74575744D01*
X148694318Y-74600000D01*
X148714956Y-74756762D01*
X148775464Y-74902841D01*
X148871718Y-75028282D01*
X148997159Y-75124536D01*
X149143238Y-75185044D01*
X149300000Y-75205682D01*
X149456762Y-75185044D01*
X149602841Y-75124536D01*
X149728282Y-75028282D01*
X149771958Y-74971362D01*
X149822382Y-74936706D01*
X149883547Y-74938307D01*
X149932088Y-74975555D01*
X149949500Y-75031629D01*
X149949500Y-94901000D01*
X149930593Y-94959191D01*
X149881093Y-94995155D01*
X149850500Y-95000000D01*
X146898726Y-95000000D01*
X146840535Y-94981093D01*
X146804571Y-94931593D01*
X146799726Y-94901275D01*
X146750044Y-77015678D01*
X146750044Y-77015677D01*
X146750000Y-77000000D01*
X145514314Y-76524736D01*
X145466789Y-76486200D01*
X145450861Y-76431098D01*
X145466190Y-75204835D01*
X145500000Y-72500000D01*
X140349000Y-72500000D01*
X140290809Y-72481093D01*
X140254845Y-72431593D01*
X140250000Y-72401000D01*
X140250000Y-69000000D01*
X140195194Y-68963217D01*
X136568830Y-66529416D01*
X136531049Y-66481289D01*
X136525000Y-66447213D01*
X136525000Y-65756956D01*
X144728765Y-65756956D01*
X144729680Y-65761195D01*
X144782086Y-65918277D01*
X144786933Y-65928624D01*
X144873891Y-66069145D01*
X144880987Y-66078098D01*
X144997939Y-66194847D01*
X145006904Y-66201927D01*
X145147580Y-66288641D01*
X145157934Y-66293469D01*
X145315110Y-66345602D01*
X145325621Y-66347855D01*
X145422112Y-66357741D01*
X145427170Y-66358000D01*
X145459320Y-66358000D01*
X145472005Y-66353878D01*
X145475000Y-66349757D01*
X145475000Y-66342319D01*
X146975000Y-66342319D01*
X146979122Y-66355004D01*
X146983243Y-66357999D01*
X147022792Y-66357999D01*
X147027922Y-66357733D01*
X147125673Y-66347591D01*
X147136200Y-66345318D01*
X147293277Y-66292914D01*
X147303624Y-66288067D01*
X147444145Y-66201109D01*
X147453098Y-66194013D01*
X147569847Y-66077061D01*
X147576927Y-66068096D01*
X147663641Y-65927420D01*
X147668469Y-65917066D01*
X147720215Y-65761056D01*
X147718387Y-65752559D01*
X147716480Y-65750851D01*
X147712449Y-65750000D01*
X146990680Y-65750000D01*
X146977995Y-65754122D01*
X146975000Y-65758243D01*
X146975000Y-66342319D01*
X145475000Y-66342319D01*
X145475000Y-65765680D01*
X145470878Y-65752995D01*
X145466757Y-65750000D01*
X144743019Y-65750000D01*
X144730334Y-65754122D01*
X144728848Y-65756166D01*
X144728765Y-65756956D01*
X136525000Y-65756956D01*
X136525000Y-65503869D01*
X136544367Y-65445051D01*
X136579830Y-65397039D01*
X136579832Y-65397036D01*
X136584227Y-65391085D01*
X136627618Y-65267526D01*
X136630500Y-65237038D01*
X136630500Y-64762962D01*
X136627618Y-64732474D01*
X136616092Y-64699651D01*
X136610500Y-64666851D01*
X136610500Y-64585709D01*
X136618036Y-64547823D01*
X136632560Y-64512759D01*
X136635044Y-64506762D01*
X136655682Y-64350000D01*
X136635044Y-64193238D01*
X136574536Y-64047159D01*
X136545457Y-64009263D01*
X136525000Y-63948997D01*
X136525000Y-63599500D01*
X136543907Y-63541309D01*
X136593407Y-63505345D01*
X136624000Y-63500500D01*
X137319646Y-63500500D01*
X137336049Y-63498548D01*
X137338469Y-63498260D01*
X137338470Y-63498260D01*
X137345846Y-63497382D01*
X137433328Y-63458524D01*
X137473516Y-63450000D01*
X145361701Y-63450000D01*
X145419892Y-63468907D01*
G37*
%TD.AperFunction*%
%TD*%
%TA.AperFunction,Conductor*%
%TO.N,GND*%
G36*
X127341006Y-62270002D02*
G01*
X127387499Y-62323658D01*
X127398229Y-62388843D01*
X127392328Y-62446440D01*
X127392000Y-62452855D01*
X127392000Y-62481885D01*
X127396475Y-62497124D01*
X127397865Y-62498329D01*
X127405548Y-62500000D01*
X129374000Y-62500000D01*
X129442121Y-62520002D01*
X129488614Y-62573658D01*
X129500000Y-62626000D01*
X129500000Y-64729546D01*
X129504204Y-64743864D01*
X129511577Y-64745072D01*
X129512599Y-64744852D01*
X129575624Y-64723825D01*
X129646574Y-64721241D01*
X129707658Y-64757425D01*
X129739482Y-64820889D01*
X129741500Y-64843349D01*
X129741500Y-66711001D01*
X129741702Y-66713507D01*
X129741702Y-66713516D01*
X129751721Y-66838047D01*
X129750289Y-66869595D01*
X129745129Y-66899473D01*
X129742821Y-66912836D01*
X129741500Y-66941925D01*
X129741500Y-69061001D01*
X129756060Y-69241965D01*
X129813963Y-69477706D01*
X129815938Y-69482358D01*
X129815939Y-69482362D01*
X129831484Y-69518983D01*
X129841500Y-69568215D01*
X129841500Y-70298134D01*
X129848255Y-70360316D01*
X129899385Y-70496705D01*
X129986739Y-70613261D01*
X130103295Y-70700615D01*
X130239684Y-70751745D01*
X130301866Y-70758500D01*
X132174000Y-70758500D01*
X132242121Y-70778502D01*
X132288614Y-70832158D01*
X132300000Y-70884500D01*
X132300000Y-81624000D01*
X132279998Y-81692121D01*
X132226342Y-81738614D01*
X132174000Y-81750000D01*
X125676000Y-81750000D01*
X125607879Y-81729998D01*
X125561386Y-81676342D01*
X125550000Y-81624000D01*
X125550000Y-64047095D01*
X127392001Y-64047095D01*
X127392338Y-64053614D01*
X127402257Y-64149206D01*
X127405149Y-64162600D01*
X127456588Y-64316784D01*
X127462761Y-64329962D01*
X127548063Y-64467807D01*
X127557099Y-64479208D01*
X127671829Y-64593739D01*
X127683240Y-64602751D01*
X127821243Y-64687816D01*
X127834424Y-64693963D01*
X127987854Y-64744854D01*
X127996675Y-64743218D01*
X128000000Y-64730979D01*
X128000000Y-64018115D01*
X127995525Y-64002876D01*
X127994135Y-64001671D01*
X127986452Y-64000000D01*
X127410116Y-64000000D01*
X127394877Y-64004475D01*
X127393672Y-64005865D01*
X127392001Y-64013548D01*
X127392001Y-64047095D01*
X125550000Y-64047095D01*
X125550000Y-62376000D01*
X125570002Y-62307879D01*
X125623658Y-62261386D01*
X125676000Y-62250000D01*
X127272885Y-62250000D01*
X127341006Y-62270002D01*
G37*
%TD.AperFunction*%
%TD*%
M02*
