%TF.GenerationSoftware,KiCad,Pcbnew,(6.0.4)*%
%TF.CreationDate,2022-07-12T09:01:25+01:00*%
%TF.ProjectId,PowerPi,506f7765-7250-4692-9e6b-696361645f70,rev?*%
%TF.SameCoordinates,Original*%
%TF.FileFunction,Soldermask,Top*%
%TF.FilePolarity,Negative*%
%FSLAX46Y46*%
G04 Gerber Fmt 4.6, Leading zero omitted, Abs format (unit mm)*
G04 Created by KiCad (PCBNEW (6.0.4)) date 2022-07-12 09:01:25*
%MOMM*%
%LPD*%
G01*
G04 APERTURE LIST*
G04 Aperture macros list*
%AMRoundRect*
0 Rectangle with rounded corners*
0 $1 Rounding radius*
0 $2 $3 $4 $5 $6 $7 $8 $9 X,Y pos of 4 corners*
0 Add a 4 corners polygon primitive as box body*
4,1,4,$2,$3,$4,$5,$6,$7,$8,$9,$2,$3,0*
0 Add four circle primitives for the rounded corners*
1,1,$1+$1,$2,$3*
1,1,$1+$1,$4,$5*
1,1,$1+$1,$6,$7*
1,1,$1+$1,$8,$9*
0 Add four rect primitives between the rounded corners*
20,1,$1+$1,$2,$3,$4,$5,0*
20,1,$1+$1,$4,$5,$6,$7,0*
20,1,$1+$1,$6,$7,$8,$9,0*
20,1,$1+$1,$8,$9,$2,$3,0*%
G04 Aperture macros list end*
%ADD10RoundRect,0.250000X0.750000X-0.600000X0.750000X0.600000X-0.750000X0.600000X-0.750000X-0.600000X0*%
%ADD11O,2.000000X1.700000*%
%ADD12RoundRect,0.135000X0.135000X0.185000X-0.135000X0.185000X-0.135000X-0.185000X0.135000X-0.185000X0*%
%ADD13RoundRect,0.200000X-0.200000X-0.275000X0.200000X-0.275000X0.200000X0.275000X-0.200000X0.275000X0*%
%ADD14R,0.650000X0.400000*%
%ADD15C,4.700000*%
%ADD16R,1.800000X2.500000*%
%ADD17R,2.400000X2.400000*%
%ADD18C,2.400000*%
%ADD19RoundRect,0.225000X0.250000X-0.225000X0.250000X0.225000X-0.250000X0.225000X-0.250000X-0.225000X0*%
%ADD20RoundRect,0.250000X1.500000X1.000000X-1.500000X1.000000X-1.500000X-1.000000X1.500000X-1.000000X0*%
%ADD21RoundRect,0.150000X0.587500X0.150000X-0.587500X0.150000X-0.587500X-0.150000X0.587500X-0.150000X0*%
%ADD22RoundRect,0.135000X-0.185000X0.135000X-0.185000X-0.135000X0.185000X-0.135000X0.185000X0.135000X0*%
%ADD23RoundRect,0.150000X-0.150000X0.587500X-0.150000X-0.587500X0.150000X-0.587500X0.150000X0.587500X0*%
%ADD24RoundRect,0.225000X0.225000X0.250000X-0.225000X0.250000X-0.225000X-0.250000X0.225000X-0.250000X0*%
%ADD25R,1.100000X4.600000*%
%ADD26R,10.800000X9.400000*%
%ADD27C,3.500000*%
%ADD28C,2.780000*%
%ADD29R,2.500000X1.800000*%
%ADD30RoundRect,0.250000X0.600000X0.750000X-0.600000X0.750000X-0.600000X-0.750000X0.600000X-0.750000X0*%
%ADD31O,1.700000X2.000000*%
%ADD32RoundRect,0.250000X1.000000X-1.750000X1.000000X1.750000X-1.000000X1.750000X-1.000000X-1.750000X0*%
%ADD33RoundRect,0.218750X0.256250X-0.218750X0.256250X0.218750X-0.256250X0.218750X-0.256250X-0.218750X0*%
%ADD34R,5.400000X2.900000*%
%ADD35RoundRect,0.135000X0.185000X-0.135000X0.185000X0.135000X-0.185000X0.135000X-0.185000X-0.135000X0*%
%ADD36R,1.700000X1.700000*%
%ADD37O,1.700000X1.700000*%
G04 APERTURE END LIST*
D10*
%TO.C,J8*%
X146200000Y-64800000D03*
D11*
X146200000Y-62300000D03*
%TD*%
D12*
%TO.C,R2*%
X142460000Y-60400000D03*
X141440000Y-60400000D03*
%TD*%
D13*
%TO.C,R9*%
X135775000Y-75000000D03*
X137425000Y-75000000D03*
%TD*%
D14*
%TO.C,Q2*%
X138950000Y-63650000D03*
X138950000Y-63000000D03*
X138950000Y-62350000D03*
X137050000Y-62350000D03*
X137050000Y-63000000D03*
X137050000Y-63650000D03*
%TD*%
D15*
%TO.C,H2*%
X88750000Y-56750000D03*
%TD*%
D16*
%TO.C,D2*%
X131250000Y-69000000D03*
X131250000Y-73000000D03*
%TD*%
D17*
%TO.C,J1*%
X94500000Y-104650000D03*
D18*
X98000000Y-104650000D03*
%TD*%
D19*
%TO.C,C3*%
X135500000Y-91375000D03*
X135500000Y-89825000D03*
%TD*%
D20*
%TO.C,C5*%
X146050000Y-72300000D03*
X139550000Y-72300000D03*
%TD*%
D21*
%TO.C,Q1*%
X124437500Y-105700000D03*
X124437500Y-103800000D03*
X122562500Y-104750000D03*
%TD*%
D22*
%TO.C,R1*%
X135750000Y-62990000D03*
X135750000Y-64010000D03*
%TD*%
D23*
%TO.C,Q3*%
X142450000Y-62062500D03*
X140550000Y-62062500D03*
X141500000Y-63937500D03*
%TD*%
D24*
%TO.C,C4*%
X140775000Y-77600000D03*
X139225000Y-77600000D03*
%TD*%
D25*
%TO.C,U1*%
X140600000Y-94825000D03*
X138900000Y-94825000D03*
X137200000Y-94825000D03*
D26*
X137200000Y-103975000D03*
D25*
X135500000Y-94825000D03*
X133800000Y-94825000D03*
%TD*%
D27*
%TO.C,H5*%
X89500000Y-96500000D03*
%TD*%
D12*
%TO.C,R6*%
X149610000Y-68600000D03*
X148590000Y-68600000D03*
%TD*%
D28*
%TO.C,F1*%
X107540000Y-102800000D03*
X107540000Y-106200000D03*
X117460000Y-106200000D03*
X117460000Y-102800000D03*
%TD*%
D29*
%TO.C,D6*%
X144450000Y-100300000D03*
X148450000Y-100300000D03*
%TD*%
D30*
%TO.C,J3*%
X131250000Y-64350000D03*
D31*
X128750000Y-64350000D03*
%TD*%
D27*
%TO.C,H6*%
X121500000Y-64500000D03*
%TD*%
D32*
%TO.C,C1*%
X131000000Y-86500000D03*
X131000000Y-78500000D03*
%TD*%
D15*
%TO.C,H3*%
X146750000Y-56750000D03*
%TD*%
D27*
%TO.C,H7*%
X89500000Y-64500000D03*
%TD*%
%TO.C,H8*%
X121500000Y-96500000D03*
%TD*%
D24*
%TO.C,C2*%
X133875000Y-91400000D03*
X132325000Y-91400000D03*
%TD*%
D33*
%TO.C,D5*%
X149200000Y-77587500D03*
X149200000Y-76012500D03*
%TD*%
%TO.C,D3*%
X149200000Y-71487500D03*
X149200000Y-69912500D03*
%TD*%
D34*
%TO.C,L1*%
X143200000Y-90250000D03*
X143200000Y-80350000D03*
%TD*%
D35*
%TO.C,R8*%
X149200000Y-74710000D03*
X149200000Y-73690000D03*
%TD*%
D13*
%TO.C,R10*%
X135775000Y-68700000D03*
X137425000Y-68700000D03*
%TD*%
D15*
%TO.C,H1*%
X146750000Y-105750000D03*
%TD*%
%TO.C,H4*%
X88750000Y-105750000D03*
%TD*%
D36*
%TO.C,J6*%
X93620000Y-58020000D03*
D37*
X93620000Y-55480000D03*
X96160000Y-58020000D03*
X96160000Y-55480000D03*
X98700000Y-58020000D03*
X98700000Y-55480000D03*
X101240000Y-58020000D03*
X101240000Y-55480000D03*
X103780000Y-58020000D03*
X103780000Y-55480000D03*
X106320000Y-58020000D03*
X106320000Y-55480000D03*
X108860000Y-58020000D03*
X108860000Y-55480000D03*
X111400000Y-58020000D03*
X111400000Y-55480000D03*
X113940000Y-58020000D03*
X113940000Y-55480000D03*
X116480000Y-58020000D03*
X116480000Y-55480000D03*
X119020000Y-58020000D03*
X119020000Y-55480000D03*
X121560000Y-58020000D03*
X121560000Y-55480000D03*
X124100000Y-58020000D03*
X124100000Y-55480000D03*
X126640000Y-58020000D03*
X126640000Y-55480000D03*
X129180000Y-58020000D03*
X129180000Y-55480000D03*
X131720000Y-58020000D03*
X131720000Y-55480000D03*
X134260000Y-58020000D03*
X134260000Y-55480000D03*
X136800000Y-58020000D03*
X136800000Y-55480000D03*
X139340000Y-58020000D03*
X139340000Y-55480000D03*
X141880000Y-58020000D03*
X141880000Y-55480000D03*
%TD*%
M02*
