%TF.GenerationSoftware,KiCad,Pcbnew,(6.0.4)*%
%TF.CreationDate,2022-07-11T14:54:25+01:00*%
%TF.ProjectId,PowerPi,506f7765-7250-4692-9e6b-696361645f70,rev?*%
%TF.SameCoordinates,Original*%
%TF.FileFunction,Legend,Bot*%
%TF.FilePolarity,Positive*%
%FSLAX46Y46*%
G04 Gerber Fmt 4.6, Leading zero omitted, Abs format (unit mm)*
G04 Created by KiCad (PCBNEW (6.0.4)) date 2022-07-11 14:54:25*
%MOMM*%
%LPD*%
G01*
G04 APERTURE LIST*
%ADD10C,0.200000*%
%ADD11C,0.150000*%
%ADD12C,0.120000*%
G04 APERTURE END LIST*
D10*
X88700000Y-92566666D02*
X88700000Y-92100000D01*
X87966666Y-91900000D02*
X87966666Y-92566666D01*
X89366666Y-92566666D01*
X89366666Y-91900000D01*
X87966666Y-91100000D02*
X88033333Y-91233333D01*
X88166666Y-91300000D01*
X89366666Y-91300000D01*
X88033333Y-90033333D02*
X87966666Y-90166666D01*
X87966666Y-90433333D01*
X88033333Y-90566666D01*
X88166666Y-90633333D01*
X88700000Y-90633333D01*
X88833333Y-90566666D01*
X88900000Y-90433333D01*
X88900000Y-90166666D01*
X88833333Y-90033333D01*
X88700000Y-89966666D01*
X88566666Y-89966666D01*
X88433333Y-90633333D01*
X88033333Y-88766666D02*
X87966666Y-88900000D01*
X87966666Y-89166666D01*
X88033333Y-89300000D01*
X88100000Y-89366666D01*
X88233333Y-89433333D01*
X88633333Y-89433333D01*
X88766666Y-89366666D01*
X88833333Y-89300000D01*
X88900000Y-89166666D01*
X88900000Y-88900000D01*
X88833333Y-88766666D01*
X88900000Y-88366666D02*
X88900000Y-87833333D01*
X89366666Y-88166666D02*
X88166666Y-88166666D01*
X88033333Y-88100000D01*
X87966666Y-87966666D01*
X87966666Y-87833333D01*
X87966666Y-87366666D02*
X88900000Y-87366666D01*
X88633333Y-87366666D02*
X88766666Y-87300000D01*
X88833333Y-87233333D01*
X88900000Y-87100000D01*
X88900000Y-86966666D01*
X87966666Y-86500000D02*
X88900000Y-86500000D01*
X89366666Y-86500000D02*
X89300000Y-86566666D01*
X89233333Y-86500000D01*
X89300000Y-86433333D01*
X89366666Y-86500000D01*
X89233333Y-86500000D01*
X87966666Y-85833333D02*
X89366666Y-85833333D01*
X89366666Y-85300000D01*
X89300000Y-85166666D01*
X89233333Y-85100000D01*
X89100000Y-85033333D01*
X88900000Y-85033333D01*
X88766666Y-85100000D01*
X88700000Y-85166666D01*
X88633333Y-85300000D01*
X88633333Y-85833333D01*
X87966666Y-84433333D02*
X88900000Y-84433333D01*
X89366666Y-84433333D02*
X89300000Y-84500000D01*
X89233333Y-84433333D01*
X89300000Y-84366666D01*
X89366666Y-84433333D01*
X89233333Y-84433333D01*
X87966666Y-82700000D02*
X89366666Y-82700000D01*
X88833333Y-82700000D02*
X88900000Y-82566666D01*
X88900000Y-82300000D01*
X88833333Y-82166666D01*
X88766666Y-82100000D01*
X88633333Y-82033333D01*
X88233333Y-82033333D01*
X88100000Y-82100000D01*
X88033333Y-82166666D01*
X87966666Y-82300000D01*
X87966666Y-82566666D01*
X88033333Y-82700000D01*
X88900000Y-81566666D02*
X87966666Y-81233333D01*
X88900000Y-80900000D02*
X87966666Y-81233333D01*
X87633333Y-81366666D01*
X87566666Y-81433333D01*
X87500000Y-81566666D01*
X89366666Y-79500000D02*
X87966666Y-79033333D01*
X89366666Y-78566666D01*
X88033333Y-77566666D02*
X87966666Y-77700000D01*
X87966666Y-77966666D01*
X88033333Y-78100000D01*
X88166666Y-78166666D01*
X88700000Y-78166666D01*
X88833333Y-78100000D01*
X88900000Y-77966666D01*
X88900000Y-77700000D01*
X88833333Y-77566666D01*
X88700000Y-77500000D01*
X88566666Y-77500000D01*
X88433333Y-78166666D01*
X88033333Y-76300000D02*
X87966666Y-76433333D01*
X87966666Y-76700000D01*
X88033333Y-76833333D01*
X88100000Y-76900000D01*
X88233333Y-76966666D01*
X88633333Y-76966666D01*
X88766666Y-76900000D01*
X88833333Y-76833333D01*
X88900000Y-76700000D01*
X88900000Y-76433333D01*
X88833333Y-76300000D01*
X88900000Y-75900000D02*
X88900000Y-75366666D01*
X89366666Y-75700000D02*
X88166666Y-75700000D01*
X88033333Y-75633333D01*
X87966666Y-75500000D01*
X87966666Y-75366666D01*
X87966666Y-74700000D02*
X88033333Y-74833333D01*
X88100000Y-74900000D01*
X88233333Y-74966666D01*
X88633333Y-74966666D01*
X88766666Y-74900000D01*
X88833333Y-74833333D01*
X88900000Y-74700000D01*
X88900000Y-74500000D01*
X88833333Y-74366666D01*
X88766666Y-74300000D01*
X88633333Y-74233333D01*
X88233333Y-74233333D01*
X88100000Y-74300000D01*
X88033333Y-74366666D01*
X87966666Y-74500000D01*
X87966666Y-74700000D01*
X87966666Y-73633333D02*
X88900000Y-73633333D01*
X88633333Y-73633333D02*
X88766666Y-73566666D01*
X88833333Y-73500000D01*
X88900000Y-73366666D01*
X88900000Y-73233333D01*
X89366666Y-71833333D02*
X89366666Y-70966666D01*
X88833333Y-71433333D01*
X88833333Y-71233333D01*
X88766666Y-71100000D01*
X88700000Y-71033333D01*
X88566666Y-70966666D01*
X88233333Y-70966666D01*
X88100000Y-71033333D01*
X88033333Y-71100000D01*
X87966666Y-71233333D01*
X87966666Y-71633333D01*
X88033333Y-71766666D01*
X88100000Y-71833333D01*
X87966666Y-70366666D02*
X89366666Y-70366666D01*
X89366666Y-70033333D01*
X89300000Y-69833333D01*
X89166666Y-69700000D01*
X89033333Y-69633333D01*
X88766666Y-69566666D01*
X88566666Y-69566666D01*
X88300000Y-69633333D01*
X88166666Y-69700000D01*
X88033333Y-69833333D01*
X87966666Y-70033333D01*
X87966666Y-70366666D01*
D11*
X86247619Y-103014285D02*
X87247619Y-103014285D01*
X87247619Y-102776190D01*
X87200000Y-102633333D01*
X87104761Y-102538095D01*
X87009523Y-102490476D01*
X86819047Y-102442857D01*
X86676190Y-102442857D01*
X86485714Y-102490476D01*
X86390476Y-102538095D01*
X86295238Y-102633333D01*
X86247619Y-102776190D01*
X86247619Y-103014285D01*
X86295238Y-101633333D02*
X86247619Y-101728571D01*
X86247619Y-101919047D01*
X86295238Y-102014285D01*
X86390476Y-102061904D01*
X86771428Y-102061904D01*
X86866666Y-102014285D01*
X86914285Y-101919047D01*
X86914285Y-101728571D01*
X86866666Y-101633333D01*
X86771428Y-101585714D01*
X86676190Y-101585714D01*
X86580952Y-102061904D01*
X86295238Y-101204761D02*
X86247619Y-101109523D01*
X86247619Y-100919047D01*
X86295238Y-100823809D01*
X86390476Y-100776190D01*
X86438095Y-100776190D01*
X86533333Y-100823809D01*
X86580952Y-100919047D01*
X86580952Y-101061904D01*
X86628571Y-101157142D01*
X86723809Y-101204761D01*
X86771428Y-101204761D01*
X86866666Y-101157142D01*
X86914285Y-101061904D01*
X86914285Y-100919047D01*
X86866666Y-100823809D01*
X86247619Y-100347619D02*
X86914285Y-100347619D01*
X87247619Y-100347619D02*
X87200000Y-100395238D01*
X87152380Y-100347619D01*
X87200000Y-100300000D01*
X87247619Y-100347619D01*
X87152380Y-100347619D01*
X86914285Y-99442857D02*
X86104761Y-99442857D01*
X86009523Y-99490476D01*
X85961904Y-99538095D01*
X85914285Y-99633333D01*
X85914285Y-99776190D01*
X85961904Y-99871428D01*
X86295238Y-99442857D02*
X86247619Y-99538095D01*
X86247619Y-99728571D01*
X86295238Y-99823809D01*
X86342857Y-99871428D01*
X86438095Y-99919047D01*
X86723809Y-99919047D01*
X86819047Y-99871428D01*
X86866666Y-99823809D01*
X86914285Y-99728571D01*
X86914285Y-99538095D01*
X86866666Y-99442857D01*
X86914285Y-98966666D02*
X86247619Y-98966666D01*
X86819047Y-98966666D02*
X86866666Y-98919047D01*
X86914285Y-98823809D01*
X86914285Y-98680952D01*
X86866666Y-98585714D01*
X86771428Y-98538095D01*
X86247619Y-98538095D01*
X86295238Y-97680952D02*
X86247619Y-97776190D01*
X86247619Y-97966666D01*
X86295238Y-98061904D01*
X86390476Y-98109523D01*
X86771428Y-98109523D01*
X86866666Y-98061904D01*
X86914285Y-97966666D01*
X86914285Y-97776190D01*
X86866666Y-97680952D01*
X86771428Y-97633333D01*
X86676190Y-97633333D01*
X86580952Y-98109523D01*
X86247619Y-96776190D02*
X87247619Y-96776190D01*
X86295238Y-96776190D02*
X86247619Y-96871428D01*
X86247619Y-97061904D01*
X86295238Y-97157142D01*
X86342857Y-97204761D01*
X86438095Y-97252380D01*
X86723809Y-97252380D01*
X86819047Y-97204761D01*
X86866666Y-97157142D01*
X86914285Y-97061904D01*
X86914285Y-96871428D01*
X86866666Y-96776190D01*
X86247619Y-95538095D02*
X87247619Y-95538095D01*
X86866666Y-95538095D02*
X86914285Y-95442857D01*
X86914285Y-95252380D01*
X86866666Y-95157142D01*
X86819047Y-95109523D01*
X86723809Y-95061904D01*
X86438095Y-95061904D01*
X86342857Y-95109523D01*
X86295238Y-95157142D01*
X86247619Y-95252380D01*
X86247619Y-95442857D01*
X86295238Y-95538095D01*
X86914285Y-94728571D02*
X86247619Y-94490476D01*
X86914285Y-94252380D02*
X86247619Y-94490476D01*
X86009523Y-94585714D01*
X85961904Y-94633333D01*
X85914285Y-94728571D01*
X86295238Y-93157142D02*
X86247619Y-93014285D01*
X86247619Y-92776190D01*
X86295238Y-92680952D01*
X86342857Y-92633333D01*
X86438095Y-92585714D01*
X86533333Y-92585714D01*
X86628571Y-92633333D01*
X86676190Y-92680952D01*
X86723809Y-92776190D01*
X86771428Y-92966666D01*
X86819047Y-93061904D01*
X86866666Y-93109523D01*
X86961904Y-93157142D01*
X87057142Y-93157142D01*
X87152380Y-93109523D01*
X87200000Y-93061904D01*
X87247619Y-92966666D01*
X87247619Y-92728571D01*
X87200000Y-92585714D01*
X86247619Y-92157142D02*
X86914285Y-92157142D01*
X86723809Y-92157142D02*
X86819047Y-92109523D01*
X86866666Y-92061904D01*
X86914285Y-91966666D01*
X86914285Y-91871428D01*
X86295238Y-91157142D02*
X86247619Y-91252380D01*
X86247619Y-91442857D01*
X86295238Y-91538095D01*
X86390476Y-91585714D01*
X86771428Y-91585714D01*
X86866666Y-91538095D01*
X86914285Y-91442857D01*
X86914285Y-91252380D01*
X86866666Y-91157142D01*
X86771428Y-91109523D01*
X86676190Y-91109523D01*
X86580952Y-91585714D01*
X86295238Y-90300000D02*
X86247619Y-90395238D01*
X86247619Y-90585714D01*
X86295238Y-90680952D01*
X86390476Y-90728571D01*
X86771428Y-90728571D01*
X86866666Y-90680952D01*
X86914285Y-90585714D01*
X86914285Y-90395238D01*
X86866666Y-90300000D01*
X86771428Y-90252380D01*
X86676190Y-90252380D01*
X86580952Y-90728571D01*
X86914285Y-89823809D02*
X86247619Y-89823809D01*
X86819047Y-89823809D02*
X86866666Y-89776190D01*
X86914285Y-89680952D01*
X86914285Y-89538095D01*
X86866666Y-89442857D01*
X86771428Y-89395238D01*
X86247619Y-89395238D01*
X86247619Y-88919047D02*
X86914285Y-88919047D01*
X87247619Y-88919047D02*
X87200000Y-88966666D01*
X87152380Y-88919047D01*
X87200000Y-88871428D01*
X87247619Y-88919047D01*
X87152380Y-88919047D01*
X86914285Y-88538095D02*
X86247619Y-88300000D01*
X86914285Y-88061904D01*
X86247619Y-87252380D02*
X86771428Y-87252380D01*
X86866666Y-87300000D01*
X86914285Y-87395238D01*
X86914285Y-87585714D01*
X86866666Y-87680952D01*
X86295238Y-87252380D02*
X86247619Y-87347619D01*
X86247619Y-87585714D01*
X86295238Y-87680952D01*
X86390476Y-87728571D01*
X86485714Y-87728571D01*
X86580952Y-87680952D01*
X86628571Y-87585714D01*
X86628571Y-87347619D01*
X86676190Y-87252380D01*
X86295238Y-86823809D02*
X86247619Y-86728571D01*
X86247619Y-86538095D01*
X86295238Y-86442857D01*
X86390476Y-86395238D01*
X86438095Y-86395238D01*
X86533333Y-86442857D01*
X86580952Y-86538095D01*
X86580952Y-86680952D01*
X86628571Y-86776190D01*
X86723809Y-86823809D01*
X86771428Y-86823809D01*
X86866666Y-86776190D01*
X86914285Y-86680952D01*
X86914285Y-86538095D01*
X86866666Y-86442857D01*
X86771428Y-85204761D02*
X86771428Y-84871428D01*
X86247619Y-84728571D02*
X86247619Y-85204761D01*
X87247619Y-85204761D01*
X87247619Y-84728571D01*
X86247619Y-83871428D02*
X86771428Y-83871428D01*
X86866666Y-83919047D01*
X86914285Y-84014285D01*
X86914285Y-84204761D01*
X86866666Y-84300000D01*
X86295238Y-83871428D02*
X86247619Y-83966666D01*
X86247619Y-84204761D01*
X86295238Y-84300000D01*
X86390476Y-84347619D01*
X86485714Y-84347619D01*
X86580952Y-84300000D01*
X86628571Y-84204761D01*
X86628571Y-83966666D01*
X86676190Y-83871428D01*
X86247619Y-82966666D02*
X87247619Y-82966666D01*
X86295238Y-82966666D02*
X86247619Y-83061904D01*
X86247619Y-83252380D01*
X86295238Y-83347619D01*
X86342857Y-83395238D01*
X86438095Y-83442857D01*
X86723809Y-83442857D01*
X86819047Y-83395238D01*
X86866666Y-83347619D01*
X86914285Y-83252380D01*
X86914285Y-83061904D01*
X86866666Y-82966666D01*
X86247619Y-82061904D02*
X86771428Y-82061904D01*
X86866666Y-82109523D01*
X86914285Y-82204761D01*
X86914285Y-82395238D01*
X86866666Y-82490476D01*
X86295238Y-82061904D02*
X86247619Y-82157142D01*
X86247619Y-82395238D01*
X86295238Y-82490476D01*
X86390476Y-82538095D01*
X86485714Y-82538095D01*
X86580952Y-82490476D01*
X86628571Y-82395238D01*
X86628571Y-82157142D01*
X86676190Y-82061904D01*
X86247619Y-81585714D02*
X86914285Y-81585714D01*
X86723809Y-81585714D02*
X86819047Y-81538095D01*
X86866666Y-81490476D01*
X86914285Y-81395238D01*
X86914285Y-81300000D01*
X86247619Y-80538095D02*
X86771428Y-80538095D01*
X86866666Y-80585714D01*
X86914285Y-80680952D01*
X86914285Y-80871428D01*
X86866666Y-80966666D01*
X86295238Y-80538095D02*
X86247619Y-80633333D01*
X86247619Y-80871428D01*
X86295238Y-80966666D01*
X86390476Y-81014285D01*
X86485714Y-81014285D01*
X86580952Y-80966666D01*
X86628571Y-80871428D01*
X86628571Y-80633333D01*
X86676190Y-80538095D01*
X86295238Y-80014285D02*
X86247619Y-80014285D01*
X86152380Y-80061904D01*
X86104761Y-80109523D01*
X86247619Y-78823809D02*
X87247619Y-78823809D01*
X87247619Y-78442857D01*
X87200000Y-78347619D01*
X87152380Y-78300000D01*
X87057142Y-78252380D01*
X86914285Y-78252380D01*
X86819047Y-78300000D01*
X86771428Y-78347619D01*
X86723809Y-78442857D01*
X86723809Y-78823809D01*
X86247619Y-77823809D02*
X86914285Y-77823809D01*
X86723809Y-77823809D02*
X86819047Y-77776190D01*
X86866666Y-77728571D01*
X86914285Y-77633333D01*
X86914285Y-77538095D01*
X86247619Y-77061904D02*
X86295238Y-77157142D01*
X86342857Y-77204761D01*
X86438095Y-77252380D01*
X86723809Y-77252380D01*
X86819047Y-77204761D01*
X86866666Y-77157142D01*
X86914285Y-77061904D01*
X86914285Y-76919047D01*
X86866666Y-76823809D01*
X86819047Y-76776190D01*
X86723809Y-76728571D01*
X86438095Y-76728571D01*
X86342857Y-76776190D01*
X86295238Y-76823809D01*
X86247619Y-76919047D01*
X86247619Y-77061904D01*
X86247619Y-75871428D02*
X87247619Y-75871428D01*
X86295238Y-75871428D02*
X86247619Y-75966666D01*
X86247619Y-76157142D01*
X86295238Y-76252380D01*
X86342857Y-76300000D01*
X86438095Y-76347619D01*
X86723809Y-76347619D01*
X86819047Y-76300000D01*
X86866666Y-76252380D01*
X86914285Y-76157142D01*
X86914285Y-75966666D01*
X86866666Y-75871428D01*
X86914285Y-74966666D02*
X86247619Y-74966666D01*
X86914285Y-75395238D02*
X86390476Y-75395238D01*
X86295238Y-75347619D01*
X86247619Y-75252380D01*
X86247619Y-75109523D01*
X86295238Y-75014285D01*
X86342857Y-74966666D01*
X86295238Y-74061904D02*
X86247619Y-74157142D01*
X86247619Y-74347619D01*
X86295238Y-74442857D01*
X86342857Y-74490476D01*
X86438095Y-74538095D01*
X86723809Y-74538095D01*
X86819047Y-74490476D01*
X86866666Y-74442857D01*
X86914285Y-74347619D01*
X86914285Y-74157142D01*
X86866666Y-74061904D01*
X86295238Y-73252380D02*
X86247619Y-73347619D01*
X86247619Y-73538095D01*
X86295238Y-73633333D01*
X86390476Y-73680952D01*
X86771428Y-73680952D01*
X86866666Y-73633333D01*
X86914285Y-73538095D01*
X86914285Y-73347619D01*
X86866666Y-73252380D01*
X86771428Y-73204761D01*
X86676190Y-73204761D01*
X86580952Y-73680952D01*
X86247619Y-72347619D02*
X87247619Y-72347619D01*
X86295238Y-72347619D02*
X86247619Y-72442857D01*
X86247619Y-72633333D01*
X86295238Y-72728571D01*
X86342857Y-72776190D01*
X86438095Y-72823809D01*
X86723809Y-72823809D01*
X86819047Y-72776190D01*
X86866666Y-72728571D01*
X86914285Y-72633333D01*
X86914285Y-72442857D01*
X86866666Y-72347619D01*
X86247619Y-71109523D02*
X87247619Y-71109523D01*
X86866666Y-71109523D02*
X86914285Y-71014285D01*
X86914285Y-70823809D01*
X86866666Y-70728571D01*
X86819047Y-70680952D01*
X86723809Y-70633333D01*
X86438095Y-70633333D01*
X86342857Y-70680952D01*
X86295238Y-70728571D01*
X86247619Y-70823809D01*
X86247619Y-71014285D01*
X86295238Y-71109523D01*
X86914285Y-70300000D02*
X86247619Y-70061904D01*
X86914285Y-69823809D02*
X86247619Y-70061904D01*
X86009523Y-70157142D01*
X85961904Y-70204761D01*
X85914285Y-70300000D01*
X86247619Y-68204761D02*
X86247619Y-68680952D01*
X87247619Y-68680952D01*
X86247619Y-67871428D02*
X87247619Y-67871428D01*
X87247619Y-67633333D01*
X87200000Y-67490476D01*
X87104761Y-67395238D01*
X87009523Y-67347619D01*
X86819047Y-67300000D01*
X86676190Y-67300000D01*
X86485714Y-67347619D01*
X86390476Y-67395238D01*
X86295238Y-67490476D01*
X86247619Y-67633333D01*
X86247619Y-67871428D01*
X87247619Y-66680952D02*
X87247619Y-66490476D01*
X87200000Y-66395238D01*
X87104761Y-66300000D01*
X86914285Y-66252380D01*
X86580952Y-66252380D01*
X86390476Y-66300000D01*
X86295238Y-66395238D01*
X86247619Y-66490476D01*
X86247619Y-66680952D01*
X86295238Y-66776190D01*
X86390476Y-66871428D01*
X86580952Y-66919047D01*
X86914285Y-66919047D01*
X87104761Y-66871428D01*
X87200000Y-66776190D01*
X87247619Y-66680952D01*
X86247619Y-65061904D02*
X87247619Y-65061904D01*
X86533333Y-64728571D01*
X87247619Y-64395238D01*
X86247619Y-64395238D01*
X86247619Y-63776190D02*
X86295238Y-63871428D01*
X86342857Y-63919047D01*
X86438095Y-63966666D01*
X86723809Y-63966666D01*
X86819047Y-63919047D01*
X86866666Y-63871428D01*
X86914285Y-63776190D01*
X86914285Y-63633333D01*
X86866666Y-63538095D01*
X86819047Y-63490476D01*
X86723809Y-63442857D01*
X86438095Y-63442857D01*
X86342857Y-63490476D01*
X86295238Y-63538095D01*
X86247619Y-63633333D01*
X86247619Y-63776190D01*
X86914285Y-63157142D02*
X86914285Y-62776190D01*
X87247619Y-63014285D02*
X86390476Y-63014285D01*
X86295238Y-62966666D01*
X86247619Y-62871428D01*
X86247619Y-62776190D01*
X86247619Y-62300000D02*
X86295238Y-62395238D01*
X86342857Y-62442857D01*
X86438095Y-62490476D01*
X86723809Y-62490476D01*
X86819047Y-62442857D01*
X86866666Y-62395238D01*
X86914285Y-62300000D01*
X86914285Y-62157142D01*
X86866666Y-62061904D01*
X86819047Y-62014285D01*
X86723809Y-61966666D01*
X86438095Y-61966666D01*
X86342857Y-62014285D01*
X86295238Y-62061904D01*
X86247619Y-62157142D01*
X86247619Y-62300000D01*
X86247619Y-61538095D02*
X86914285Y-61538095D01*
X86723809Y-61538095D02*
X86819047Y-61490476D01*
X86866666Y-61442857D01*
X86914285Y-61347619D01*
X86914285Y-61252380D01*
X86295238Y-60966666D02*
X86247619Y-60871428D01*
X86247619Y-60680952D01*
X86295238Y-60585714D01*
X86390476Y-60538095D01*
X86438095Y-60538095D01*
X86533333Y-60585714D01*
X86580952Y-60680952D01*
X86580952Y-60823809D01*
X86628571Y-60919047D01*
X86723809Y-60966666D01*
X86771428Y-60966666D01*
X86866666Y-60919047D01*
X86914285Y-60823809D01*
X86914285Y-60680952D01*
X86866666Y-60585714D01*
X132011904Y-62042857D02*
X130488095Y-62042857D01*
X131250000Y-62804761D02*
X131250000Y-61280952D01*
X133602380Y-63859523D02*
X133602380Y-63383333D01*
X134078571Y-63335714D01*
X134030952Y-63383333D01*
X133983333Y-63478571D01*
X133983333Y-63716666D01*
X134030952Y-63811904D01*
X134078571Y-63859523D01*
X134173809Y-63907142D01*
X134411904Y-63907142D01*
X134507142Y-63859523D01*
X134554761Y-63811904D01*
X134602380Y-63716666D01*
X134602380Y-63478571D01*
X134554761Y-63383333D01*
X134507142Y-63335714D01*
X133602380Y-64192857D02*
X134602380Y-64526190D01*
X133602380Y-64859523D01*
X95261904Y-107642857D02*
X93738095Y-107642857D01*
X94500000Y-108404761D02*
X94500000Y-106880952D01*
X149497619Y-91333333D02*
X148783333Y-91333333D01*
X148640476Y-91380952D01*
X148545238Y-91476190D01*
X148497619Y-91619047D01*
X148497619Y-91714285D01*
X148497619Y-90380952D02*
X148497619Y-90857142D01*
X149497619Y-90857142D01*
X148592857Y-89476190D02*
X148545238Y-89523809D01*
X148497619Y-89666666D01*
X148497619Y-89761904D01*
X148545238Y-89904761D01*
X148640476Y-90000000D01*
X148735714Y-90047619D01*
X148926190Y-90095238D01*
X149069047Y-90095238D01*
X149259523Y-90047619D01*
X149354761Y-90000000D01*
X149450000Y-89904761D01*
X149497619Y-89761904D01*
X149497619Y-89666666D01*
X149450000Y-89523809D01*
X149402380Y-89476190D01*
X149497619Y-88761904D02*
X148783333Y-88761904D01*
X148640476Y-88809523D01*
X148545238Y-88904761D01*
X148497619Y-89047619D01*
X148497619Y-89142857D01*
X148497619Y-87809523D02*
X148497619Y-88285714D01*
X149497619Y-88285714D01*
X148592857Y-86904761D02*
X148545238Y-86952380D01*
X148497619Y-87095238D01*
X148497619Y-87190476D01*
X148545238Y-87333333D01*
X148640476Y-87428571D01*
X148735714Y-87476190D01*
X148926190Y-87523809D01*
X149069047Y-87523809D01*
X149259523Y-87476190D01*
X149354761Y-87428571D01*
X149450000Y-87333333D01*
X149497619Y-87190476D01*
X149497619Y-87095238D01*
X149450000Y-86952380D01*
X149402380Y-86904761D01*
X149497619Y-86190476D02*
X148783333Y-86190476D01*
X148640476Y-86238095D01*
X148545238Y-86333333D01*
X148497619Y-86476190D01*
X148497619Y-86571428D01*
X148497619Y-85238095D02*
X148497619Y-85714285D01*
X149497619Y-85714285D01*
X148592857Y-84333333D02*
X148545238Y-84380952D01*
X148497619Y-84523809D01*
X148497619Y-84619047D01*
X148545238Y-84761904D01*
X148640476Y-84857142D01*
X148735714Y-84904761D01*
X148926190Y-84952380D01*
X149069047Y-84952380D01*
X149259523Y-84904761D01*
X149354761Y-84857142D01*
X149450000Y-84761904D01*
X149497619Y-84619047D01*
X149497619Y-84523809D01*
X149450000Y-84380952D01*
X149402380Y-84333333D01*
X148842857Y-61438095D02*
X148842857Y-62961904D01*
X98761904Y-107642857D02*
X97238095Y-107642857D01*
X131202380Y-68066666D02*
X132202380Y-68400000D01*
X131202380Y-68733333D01*
X132107142Y-69638095D02*
X132154761Y-69590476D01*
X132202380Y-69447619D01*
X132202380Y-69352380D01*
X132154761Y-69209523D01*
X132059523Y-69114285D01*
X131964285Y-69066666D01*
X131773809Y-69019047D01*
X131630952Y-69019047D01*
X131440476Y-69066666D01*
X131345238Y-69114285D01*
X131250000Y-69209523D01*
X131202380Y-69352380D01*
X131202380Y-69447619D01*
X131250000Y-69590476D01*
X131297619Y-69638095D01*
X132107142Y-70638095D02*
X132154761Y-70590476D01*
X132202380Y-70447619D01*
X132202380Y-70352380D01*
X132154761Y-70209523D01*
X132059523Y-70114285D01*
X131964285Y-70066666D01*
X131773809Y-70019047D01*
X131630952Y-70019047D01*
X131440476Y-70066666D01*
X131345238Y-70114285D01*
X131250000Y-70209523D01*
X131202380Y-70352380D01*
X131202380Y-70447619D01*
X131250000Y-70590476D01*
X131297619Y-70638095D01*
X148742857Y-64038095D02*
X148742857Y-65561904D01*
X149504761Y-64800000D02*
X147980952Y-64800000D01*
X129511904Y-62042857D02*
X127988095Y-62042857D01*
%TO.C,J6*%
X93052380Y-59966666D02*
X93766666Y-59966666D01*
X93909523Y-59919047D01*
X94004761Y-59823809D01*
X94052380Y-59680952D01*
X94052380Y-59585714D01*
X93052380Y-60871428D02*
X93052380Y-60680952D01*
X93100000Y-60585714D01*
X93147619Y-60538095D01*
X93290476Y-60442857D01*
X93480952Y-60395238D01*
X93861904Y-60395238D01*
X93957142Y-60442857D01*
X94004761Y-60490476D01*
X94052380Y-60585714D01*
X94052380Y-60776190D01*
X94004761Y-60871428D01*
X93957142Y-60919047D01*
X93861904Y-60966666D01*
X93623809Y-60966666D01*
X93528571Y-60919047D01*
X93480952Y-60871428D01*
X93433333Y-60776190D01*
X93433333Y-60585714D01*
X93480952Y-60490476D01*
X93528571Y-60442857D01*
X93623809Y-60395238D01*
%TO.C,JP1*%
X135402380Y-66416666D02*
X136116666Y-66416666D01*
X136259523Y-66369047D01*
X136354761Y-66273809D01*
X136402380Y-66130952D01*
X136402380Y-66035714D01*
X136402380Y-66892857D02*
X135402380Y-66892857D01*
X135402380Y-67273809D01*
X135450000Y-67369047D01*
X135497619Y-67416666D01*
X135592857Y-67464285D01*
X135735714Y-67464285D01*
X135830952Y-67416666D01*
X135878571Y-67369047D01*
X135926190Y-67273809D01*
X135926190Y-66892857D01*
X136402380Y-68416666D02*
X136402380Y-67845238D01*
X136402380Y-68130952D02*
X135402380Y-68130952D01*
X135545238Y-68035714D01*
X135640476Y-67940476D01*
X135688095Y-67845238D01*
D12*
%TO.C,J6*%
X94890000Y-56750000D02*
X94890000Y-59350000D01*
X94890000Y-59350000D02*
X143210000Y-59350000D01*
X92290000Y-56750000D02*
X94890000Y-56750000D01*
X143210000Y-54150000D02*
X143210000Y-59350000D01*
X92290000Y-54150000D02*
X92290000Y-56750000D01*
X92290000Y-59350000D02*
X93620000Y-59350000D01*
X92290000Y-54150000D02*
X143210000Y-54150000D01*
X92290000Y-58020000D02*
X92290000Y-59350000D01*
%TO.C,JP1*%
X132800000Y-68450000D02*
X132500000Y-68150000D01*
X132800000Y-68450000D02*
X132500000Y-68750000D01*
X134300000Y-65200000D02*
X133700000Y-65200000D01*
X133000000Y-65850000D02*
X133000000Y-68650000D01*
X135000000Y-68650000D02*
X135000000Y-65850000D01*
X133700000Y-69300000D02*
X134300000Y-69300000D01*
X132500000Y-68750000D02*
X132500000Y-68150000D01*
X133000000Y-68600000D02*
G75*
G03*
X133700000Y-69300000I699999J-1D01*
G01*
X134300000Y-69300000D02*
G75*
G03*
X135000000Y-68600000I1J699999D01*
G01*
X135000000Y-65900000D02*
G75*
G03*
X134300000Y-65200000I-700000J0D01*
G01*
X133700000Y-65200000D02*
G75*
G03*
X133000000Y-65900000I0J-700000D01*
G01*
%TD*%
M02*
