%TF.GenerationSoftware,KiCad,Pcbnew,(6.0.4)*%
%TF.CreationDate,2022-07-12T09:01:25+01:00*%
%TF.ProjectId,PowerPi,506f7765-7250-4692-9e6b-696361645f70,rev?*%
%TF.SameCoordinates,Original*%
%TF.FileFunction,Soldermask,Bot*%
%TF.FilePolarity,Negative*%
%FSLAX46Y46*%
G04 Gerber Fmt 4.6, Leading zero omitted, Abs format (unit mm)*
G04 Created by KiCad (PCBNEW (6.0.4)) date 2022-07-12 09:01:25*
%MOMM*%
%LPD*%
G01*
G04 APERTURE LIST*
G04 Aperture macros list*
%AMRoundRect*
0 Rectangle with rounded corners*
0 $1 Rounding radius*
0 $2 $3 $4 $5 $6 $7 $8 $9 X,Y pos of 4 corners*
0 Add a 4 corners polygon primitive as box body*
4,1,4,$2,$3,$4,$5,$6,$7,$8,$9,$2,$3,0*
0 Add four circle primitives for the rounded corners*
1,1,$1+$1,$2,$3*
1,1,$1+$1,$4,$5*
1,1,$1+$1,$6,$7*
1,1,$1+$1,$8,$9*
0 Add four rect primitives between the rounded corners*
20,1,$1+$1,$2,$3,$4,$5,0*
20,1,$1+$1,$4,$5,$6,$7,0*
20,1,$1+$1,$6,$7,$8,$9,0*
20,1,$1+$1,$8,$9,$2,$3,0*%
%AMFreePoly0*
4,1,22,0.550000,-0.750000,0.000000,-0.750000,0.000000,-0.745033,-0.079941,-0.743568,-0.215256,-0.701293,-0.333266,-0.622738,-0.424486,-0.514219,-0.481581,-0.384460,-0.499164,-0.250000,-0.500000,-0.250000,-0.500000,0.250000,-0.499164,0.250000,-0.499963,0.256109,-0.478152,0.396186,-0.417904,0.524511,-0.324060,0.630769,-0.204165,0.706417,-0.067858,0.745374,0.000000,0.744959,0.000000,0.750000,
0.550000,0.750000,0.550000,-0.750000,0.550000,-0.750000,$1*%
%AMFreePoly1*
4,1,20,0.000000,0.744959,0.073905,0.744508,0.209726,0.703889,0.328688,0.626782,0.421226,0.519385,0.479903,0.390333,0.500000,0.250000,0.500000,-0.250000,0.499851,-0.262216,0.476331,-0.402017,0.414519,-0.529596,0.319384,-0.634700,0.198574,-0.708877,0.061801,-0.746166,0.000000,-0.745033,0.000000,-0.750000,-0.550000,-0.750000,-0.550000,0.750000,0.000000,0.750000,0.000000,0.744959,
0.000000,0.744959,$1*%
G04 Aperture macros list end*
%ADD10RoundRect,0.250000X0.750000X-0.600000X0.750000X0.600000X-0.750000X0.600000X-0.750000X-0.600000X0*%
%ADD11O,2.000000X1.700000*%
%ADD12C,4.700000*%
%ADD13R,2.400000X2.400000*%
%ADD14C,2.400000*%
%ADD15C,3.500000*%
%ADD16C,2.780000*%
%ADD17RoundRect,0.250000X0.600000X0.750000X-0.600000X0.750000X-0.600000X-0.750000X0.600000X-0.750000X0*%
%ADD18O,1.700000X2.000000*%
%ADD19R,1.700000X1.700000*%
%ADD20O,1.700000X1.700000*%
%ADD21FreePoly0,90.000000*%
%ADD22R,1.500000X1.000000*%
%ADD23FreePoly1,90.000000*%
G04 APERTURE END LIST*
%TO.C,G\u002A\u002A\u002A*%
G36*
X137256289Y-98250000D02*
G01*
X137568866Y-98250000D01*
X137568866Y-97000000D01*
X137881443Y-97000000D01*
X137881443Y-96687500D01*
X138194020Y-96687500D01*
X138194020Y-95750000D01*
X139131750Y-95750000D01*
X139131750Y-96062500D01*
X139444327Y-96062500D01*
X139444327Y-98562500D01*
X139131750Y-98562500D01*
X139131750Y-100125000D01*
X138819173Y-100125000D01*
X138819173Y-100437500D01*
X137256289Y-100437500D01*
X137256289Y-99500000D01*
X137568866Y-99500000D01*
X137881443Y-99500000D01*
X137881443Y-99187500D01*
X138506597Y-99187500D01*
X138506597Y-99500000D01*
X138819173Y-99500000D01*
X138819173Y-98562500D01*
X138506597Y-98562500D01*
X138506597Y-98250000D01*
X139131750Y-98250000D01*
X139131750Y-97312500D01*
X138819173Y-97312500D01*
X138819173Y-97625000D01*
X138194020Y-97625000D01*
X138194020Y-97312500D01*
X137881443Y-97312500D01*
X137881443Y-98250000D01*
X138194020Y-98250000D01*
X138194020Y-98562500D01*
X137568866Y-98562500D01*
X137568866Y-99500000D01*
X137256289Y-99500000D01*
X137256289Y-98250000D01*
G37*
G36*
X134755673Y-96687500D02*
G01*
X135380827Y-96687500D01*
X135380827Y-96375000D01*
X135693404Y-96375000D01*
X135693404Y-96062500D01*
X137256289Y-96062500D01*
X137256289Y-96687500D01*
X136943711Y-96687500D01*
X136943711Y-97937500D01*
X136631135Y-97937500D01*
X136631135Y-99812500D01*
X135693404Y-99812500D01*
X135693404Y-99500000D01*
X135380827Y-99500000D01*
X135380827Y-99187500D01*
X135693404Y-99187500D01*
X136318558Y-99187500D01*
X136318558Y-98250000D01*
X135693404Y-98250000D01*
X135693404Y-99187500D01*
X135380827Y-99187500D01*
X134755673Y-99187500D01*
X134755673Y-98250000D01*
X135068250Y-98250000D01*
X135693404Y-98250000D01*
X135693404Y-97625000D01*
X136318558Y-97625000D01*
X136318558Y-96687500D01*
X135693404Y-96687500D01*
X135693404Y-97625000D01*
X135068250Y-97625000D01*
X135068250Y-98250000D01*
X134755673Y-98250000D01*
X134755673Y-96687500D01*
G37*
G36*
X134443096Y-98562500D02*
G01*
X134130519Y-98562500D01*
X134130519Y-97312500D01*
X134443096Y-97312500D01*
X134443096Y-98562500D01*
G37*
%TD*%
D10*
%TO.C,J8*%
X146200000Y-64800000D03*
D11*
X146200000Y-62300000D03*
%TD*%
D12*
%TO.C,H2*%
X88750000Y-56750000D03*
%TD*%
D13*
%TO.C,J1*%
X94500000Y-104650000D03*
D14*
X98000000Y-104650000D03*
%TD*%
D15*
%TO.C,H5*%
X89500000Y-96500000D03*
%TD*%
D16*
%TO.C,F1*%
X107540000Y-102800000D03*
X107540000Y-106200000D03*
X117460000Y-106200000D03*
X117460000Y-102800000D03*
%TD*%
D17*
%TO.C,J3*%
X131250000Y-64350000D03*
D18*
X128750000Y-64350000D03*
%TD*%
D15*
%TO.C,H6*%
X121500000Y-64500000D03*
%TD*%
D12*
%TO.C,H3*%
X146750000Y-56750000D03*
%TD*%
D15*
%TO.C,H7*%
X89500000Y-64500000D03*
%TD*%
%TO.C,H8*%
X121500000Y-96500000D03*
%TD*%
D12*
%TO.C,H1*%
X146750000Y-105750000D03*
%TD*%
%TO.C,H4*%
X88750000Y-105750000D03*
%TD*%
D19*
%TO.C,J6*%
X93620000Y-58020000D03*
D20*
X93620000Y-55480000D03*
X96160000Y-58020000D03*
X96160000Y-55480000D03*
X98700000Y-58020000D03*
X98700000Y-55480000D03*
X101240000Y-58020000D03*
X101240000Y-55480000D03*
X103780000Y-58020000D03*
X103780000Y-55480000D03*
X106320000Y-58020000D03*
X106320000Y-55480000D03*
X108860000Y-58020000D03*
X108860000Y-55480000D03*
X111400000Y-58020000D03*
X111400000Y-55480000D03*
X113940000Y-58020000D03*
X113940000Y-55480000D03*
X116480000Y-58020000D03*
X116480000Y-55480000D03*
X119020000Y-58020000D03*
X119020000Y-55480000D03*
X121560000Y-58020000D03*
X121560000Y-55480000D03*
X124100000Y-58020000D03*
X124100000Y-55480000D03*
X126640000Y-58020000D03*
X126640000Y-55480000D03*
X129180000Y-58020000D03*
X129180000Y-55480000D03*
X131720000Y-58020000D03*
X131720000Y-55480000D03*
X134260000Y-58020000D03*
X134260000Y-55480000D03*
X136800000Y-58020000D03*
X136800000Y-55480000D03*
X139340000Y-58020000D03*
X139340000Y-55480000D03*
X141880000Y-58020000D03*
X141880000Y-55480000D03*
%TD*%
D21*
%TO.C,JP1*%
X134000000Y-68550000D03*
D22*
X134000000Y-67250000D03*
D23*
X134000000Y-65950000D03*
%TD*%
M02*
