M48
; DRILL file {KiCad (6.0.4)} date Mon Jul 11 14:54:27 2022
; FORMAT={-:-/ absolute / metric / decimal}
; #@! TF.CreationDate,2022-07-11T14:54:27+01:00
; #@! TF.GenerationSoftware,Kicad,Pcbnew,(6.0.4)
; #@! TF.FileFunction,Plated,1,2,PTH
FMAT,2
METRIC
; #@! TA.AperFunction,Plated,PTH,ViaDrill
T1C0.400
; #@! TA.AperFunction,Plated,PTH,ComponentDrill
T2C1.000
; #@! TA.AperFunction,Plated,PTH,ComponentDrill
T3C1.200
; #@! TA.AperFunction,Plated,PTH,ComponentDrill
T4C1.780
; #@! TA.AperFunction,Plated,PTH,ComponentDrill
T5C2.700
%
G90
G05
T1
X123.95Y-106.7
X125.65Y-105.35
X125.65Y-106.7
X126.0Y-62.75
X126.0Y-81.25
X128.6Y-75.6
X128.6Y-77.5
X128.6Y-79.6
X128.6Y-81.4
X129.2Y-66.05
X129.25Y-70.75
X129.8Y-72.0
X129.8Y-73.0
X129.8Y-74.0
X130.2Y-75.6
X130.2Y-81.4
X131.25Y-67.25
X131.8Y-81.4
X131.9Y-75.6
X132.3Y-92.3
X134.0Y-69.85
X134.0Y-73.7
X135.75Y-64.6
X137.2Y-70.6
X137.2Y-72.4
X137.3Y-76.5
X137.45Y-65.95
X138.15Y-77.35
X138.9Y-70.6
X138.95Y-61.8
X139.3Y-75.4
X139.3Y-76.5
X140.0Y-74.7
X140.4Y-97.6
X140.5Y-70.6
X141.45Y-59.75
X141.7Y-61.8
X141.8Y-92.8
X141.8Y-94.4
X141.8Y-96.0
X141.8Y-97.6
X147.35Y-98.8
X147.35Y-101.75
X148.45Y-98.8
X148.45Y-101.75
X148.5Y-73.7
X149.2Y-72.5
X149.2Y-78.5
X149.55Y-98.8
X149.55Y-101.75
T2
X93.62Y-55.48
X93.62Y-58.02
X96.16Y-55.48
X96.16Y-58.02
X98.7Y-55.48
X98.7Y-58.02
X101.24Y-55.48
X101.24Y-58.02
X103.78Y-55.48
X103.78Y-58.02
X106.32Y-55.48
X106.32Y-58.02
X108.86Y-55.48
X108.86Y-58.02
X111.4Y-55.48
X111.4Y-58.02
X113.94Y-55.48
X113.94Y-58.02
X116.48Y-55.48
X116.48Y-58.02
X119.02Y-55.48
X119.02Y-58.02
X121.56Y-55.48
X121.56Y-58.02
X124.1Y-55.48
X124.1Y-58.02
X126.64Y-55.48
X126.64Y-58.02
X128.75Y-64.35
X129.18Y-55.48
X129.18Y-58.02
X131.25Y-64.35
X131.72Y-55.48
X131.72Y-58.02
X134.26Y-55.48
X134.26Y-58.02
X136.8Y-55.48
X136.8Y-58.02
X139.34Y-55.48
X139.34Y-58.02
X141.88Y-55.48
X141.88Y-58.02
X146.2Y-62.3
X146.2Y-64.8
T3
X94.5Y-104.65
X98.0Y-104.65
T4
X107.54Y-102.8
X107.54Y-106.2
X117.46Y-102.8
X117.46Y-106.2
T5
X88.75Y-56.75
X88.75Y-105.75
X146.75Y-56.75
X146.75Y-105.75
T0
M30
