%TF.GenerationSoftware,KiCad,Pcbnew,(6.0.4)*%
%TF.CreationDate,2022-07-12T09:01:25+01:00*%
%TF.ProjectId,PowerPi,506f7765-7250-4692-9e6b-696361645f70,rev?*%
%TF.SameCoordinates,Original*%
%TF.FileFunction,Legend,Bot*%
%TF.FilePolarity,Positive*%
%FSLAX46Y46*%
G04 Gerber Fmt 4.6, Leading zero omitted, Abs format (unit mm)*
G04 Created by KiCad (PCBNEW (6.0.4)) date 2022-07-12 09:01:25*
%MOMM*%
%LPD*%
G01*
G04 APERTURE LIST*
%ADD10C,0.200000*%
%ADD11C,0.150000*%
%ADD12C,0.120000*%
G04 APERTURE END LIST*
D10*
X148400000Y-96266666D02*
X148400000Y-95800000D01*
X147666666Y-95600000D02*
X147666666Y-96266666D01*
X149066666Y-96266666D01*
X149066666Y-95600000D01*
X147666666Y-94800000D02*
X147733333Y-94933333D01*
X147866666Y-95000000D01*
X149066666Y-95000000D01*
X147733333Y-93733333D02*
X147666666Y-93866666D01*
X147666666Y-94133333D01*
X147733333Y-94266666D01*
X147866666Y-94333333D01*
X148400000Y-94333333D01*
X148533333Y-94266666D01*
X148600000Y-94133333D01*
X148600000Y-93866666D01*
X148533333Y-93733333D01*
X148400000Y-93666666D01*
X148266666Y-93666666D01*
X148133333Y-94333333D01*
X147733333Y-92466666D02*
X147666666Y-92600000D01*
X147666666Y-92866666D01*
X147733333Y-93000000D01*
X147800000Y-93066666D01*
X147933333Y-93133333D01*
X148333333Y-93133333D01*
X148466666Y-93066666D01*
X148533333Y-93000000D01*
X148600000Y-92866666D01*
X148600000Y-92600000D01*
X148533333Y-92466666D01*
X148600000Y-92066666D02*
X148600000Y-91533333D01*
X149066666Y-91866666D02*
X147866666Y-91866666D01*
X147733333Y-91800000D01*
X147666666Y-91666666D01*
X147666666Y-91533333D01*
X147666666Y-91066666D02*
X148600000Y-91066666D01*
X148333333Y-91066666D02*
X148466666Y-91000000D01*
X148533333Y-90933333D01*
X148600000Y-90800000D01*
X148600000Y-90666666D01*
X147666666Y-90200000D02*
X148600000Y-90200000D01*
X149066666Y-90200000D02*
X149000000Y-90266666D01*
X148933333Y-90200000D01*
X149000000Y-90133333D01*
X149066666Y-90200000D01*
X148933333Y-90200000D01*
X147666666Y-89533333D02*
X149066666Y-89533333D01*
X149066666Y-89000000D01*
X149000000Y-88866666D01*
X148933333Y-88800000D01*
X148800000Y-88733333D01*
X148600000Y-88733333D01*
X148466666Y-88800000D01*
X148400000Y-88866666D01*
X148333333Y-89000000D01*
X148333333Y-89533333D01*
X147666666Y-88133333D02*
X148600000Y-88133333D01*
X149066666Y-88133333D02*
X149000000Y-88200000D01*
X148933333Y-88133333D01*
X149000000Y-88066666D01*
X149066666Y-88133333D01*
X148933333Y-88133333D01*
X147666666Y-86400000D02*
X149066666Y-86400000D01*
X148533333Y-86400000D02*
X148600000Y-86266666D01*
X148600000Y-86000000D01*
X148533333Y-85866666D01*
X148466666Y-85800000D01*
X148333333Y-85733333D01*
X147933333Y-85733333D01*
X147800000Y-85800000D01*
X147733333Y-85866666D01*
X147666666Y-86000000D01*
X147666666Y-86266666D01*
X147733333Y-86400000D01*
X148600000Y-85266666D02*
X147666666Y-84933333D01*
X148600000Y-84600000D02*
X147666666Y-84933333D01*
X147333333Y-85066666D01*
X147266666Y-85133333D01*
X147200000Y-85266666D01*
X149066666Y-83200000D02*
X147666666Y-82733333D01*
X149066666Y-82266666D01*
X147733333Y-81266666D02*
X147666666Y-81400000D01*
X147666666Y-81666666D01*
X147733333Y-81800000D01*
X147866666Y-81866666D01*
X148400000Y-81866666D01*
X148533333Y-81800000D01*
X148600000Y-81666666D01*
X148600000Y-81400000D01*
X148533333Y-81266666D01*
X148400000Y-81200000D01*
X148266666Y-81200000D01*
X148133333Y-81866666D01*
X147733333Y-80000000D02*
X147666666Y-80133333D01*
X147666666Y-80400000D01*
X147733333Y-80533333D01*
X147800000Y-80600000D01*
X147933333Y-80666666D01*
X148333333Y-80666666D01*
X148466666Y-80600000D01*
X148533333Y-80533333D01*
X148600000Y-80400000D01*
X148600000Y-80133333D01*
X148533333Y-80000000D01*
X148600000Y-79600000D02*
X148600000Y-79066666D01*
X149066666Y-79400000D02*
X147866666Y-79400000D01*
X147733333Y-79333333D01*
X147666666Y-79200000D01*
X147666666Y-79066666D01*
X147666666Y-78400000D02*
X147733333Y-78533333D01*
X147800000Y-78600000D01*
X147933333Y-78666666D01*
X148333333Y-78666666D01*
X148466666Y-78600000D01*
X148533333Y-78533333D01*
X148600000Y-78400000D01*
X148600000Y-78200000D01*
X148533333Y-78066666D01*
X148466666Y-78000000D01*
X148333333Y-77933333D01*
X147933333Y-77933333D01*
X147800000Y-78000000D01*
X147733333Y-78066666D01*
X147666666Y-78200000D01*
X147666666Y-78400000D01*
X147666666Y-77333333D02*
X148600000Y-77333333D01*
X148333333Y-77333333D02*
X148466666Y-77266666D01*
X148533333Y-77200000D01*
X148600000Y-77066666D01*
X148600000Y-76933333D01*
X149066666Y-75533333D02*
X149066666Y-74666666D01*
X148533333Y-75133333D01*
X148533333Y-74933333D01*
X148466666Y-74800000D01*
X148400000Y-74733333D01*
X148266666Y-74666666D01*
X147933333Y-74666666D01*
X147800000Y-74733333D01*
X147733333Y-74800000D01*
X147666666Y-74933333D01*
X147666666Y-75333333D01*
X147733333Y-75466666D01*
X147800000Y-75533333D01*
X147666666Y-74066666D02*
X149066666Y-74066666D01*
X149066666Y-73733333D01*
X149000000Y-73533333D01*
X148866666Y-73400000D01*
X148733333Y-73333333D01*
X148466666Y-73266666D01*
X148266666Y-73266666D01*
X148000000Y-73333333D01*
X147866666Y-73400000D01*
X147733333Y-73533333D01*
X147666666Y-73733333D01*
X147666666Y-74066666D01*
D11*
X132592857Y-108592857D02*
X133492857Y-108592857D01*
X133492857Y-108378571D01*
X133450000Y-108250000D01*
X133364285Y-108164285D01*
X133278571Y-108121428D01*
X133107142Y-108078571D01*
X132978571Y-108078571D01*
X132807142Y-108121428D01*
X132721428Y-108164285D01*
X132635714Y-108250000D01*
X132592857Y-108378571D01*
X132592857Y-108592857D01*
X132635714Y-107350000D02*
X132592857Y-107435714D01*
X132592857Y-107607142D01*
X132635714Y-107692857D01*
X132721428Y-107735714D01*
X133064285Y-107735714D01*
X133150000Y-107692857D01*
X133192857Y-107607142D01*
X133192857Y-107435714D01*
X133150000Y-107350000D01*
X133064285Y-107307142D01*
X132978571Y-107307142D01*
X132892857Y-107735714D01*
X132635714Y-106964285D02*
X132592857Y-106878571D01*
X132592857Y-106707142D01*
X132635714Y-106621428D01*
X132721428Y-106578571D01*
X132764285Y-106578571D01*
X132850000Y-106621428D01*
X132892857Y-106707142D01*
X132892857Y-106835714D01*
X132935714Y-106921428D01*
X133021428Y-106964285D01*
X133064285Y-106964285D01*
X133150000Y-106921428D01*
X133192857Y-106835714D01*
X133192857Y-106707142D01*
X133150000Y-106621428D01*
X132592857Y-106192857D02*
X133192857Y-106192857D01*
X133492857Y-106192857D02*
X133450000Y-106235714D01*
X133407142Y-106192857D01*
X133450000Y-106150000D01*
X133492857Y-106192857D01*
X133407142Y-106192857D01*
X133192857Y-105378571D02*
X132464285Y-105378571D01*
X132378571Y-105421428D01*
X132335714Y-105464285D01*
X132292857Y-105550000D01*
X132292857Y-105678571D01*
X132335714Y-105764285D01*
X132635714Y-105378571D02*
X132592857Y-105464285D01*
X132592857Y-105635714D01*
X132635714Y-105721428D01*
X132678571Y-105764285D01*
X132764285Y-105807142D01*
X133021428Y-105807142D01*
X133107142Y-105764285D01*
X133150000Y-105721428D01*
X133192857Y-105635714D01*
X133192857Y-105464285D01*
X133150000Y-105378571D01*
X133192857Y-104950000D02*
X132592857Y-104950000D01*
X133107142Y-104950000D02*
X133150000Y-104907142D01*
X133192857Y-104821428D01*
X133192857Y-104692857D01*
X133150000Y-104607142D01*
X133064285Y-104564285D01*
X132592857Y-104564285D01*
X132635714Y-103792857D02*
X132592857Y-103878571D01*
X132592857Y-104050000D01*
X132635714Y-104135714D01*
X132721428Y-104178571D01*
X133064285Y-104178571D01*
X133150000Y-104135714D01*
X133192857Y-104050000D01*
X133192857Y-103878571D01*
X133150000Y-103792857D01*
X133064285Y-103750000D01*
X132978571Y-103750000D01*
X132892857Y-104178571D01*
X132592857Y-102978571D02*
X133492857Y-102978571D01*
X132635714Y-102978571D02*
X132592857Y-103064285D01*
X132592857Y-103235714D01*
X132635714Y-103321428D01*
X132678571Y-103364285D01*
X132764285Y-103407142D01*
X133021428Y-103407142D01*
X133107142Y-103364285D01*
X133150000Y-103321428D01*
X133192857Y-103235714D01*
X133192857Y-103064285D01*
X133150000Y-102978571D01*
X132592857Y-101864285D02*
X133492857Y-101864285D01*
X133150000Y-101864285D02*
X133192857Y-101778571D01*
X133192857Y-101607142D01*
X133150000Y-101521428D01*
X133107142Y-101478571D01*
X133021428Y-101435714D01*
X132764285Y-101435714D01*
X132678571Y-101478571D01*
X132635714Y-101521428D01*
X132592857Y-101607142D01*
X132592857Y-101778571D01*
X132635714Y-101864285D01*
X133192857Y-101135714D02*
X132592857Y-100921428D01*
X133192857Y-100707142D02*
X132592857Y-100921428D01*
X132378571Y-101007142D01*
X132335714Y-101050000D01*
X132292857Y-101135714D01*
X132635714Y-99721428D02*
X132592857Y-99592857D01*
X132592857Y-99378571D01*
X132635714Y-99292857D01*
X132678571Y-99250000D01*
X132764285Y-99207142D01*
X132850000Y-99207142D01*
X132935714Y-99250000D01*
X132978571Y-99292857D01*
X133021428Y-99378571D01*
X133064285Y-99550000D01*
X133107142Y-99635714D01*
X133150000Y-99678571D01*
X133235714Y-99721428D01*
X133321428Y-99721428D01*
X133407142Y-99678571D01*
X133450000Y-99635714D01*
X133492857Y-99550000D01*
X133492857Y-99335714D01*
X133450000Y-99207142D01*
X132592857Y-98821428D02*
X133192857Y-98821428D01*
X133021428Y-98821428D02*
X133107142Y-98778571D01*
X133150000Y-98735714D01*
X133192857Y-98650000D01*
X133192857Y-98564285D01*
X132635714Y-97921428D02*
X132592857Y-98007142D01*
X132592857Y-98178571D01*
X132635714Y-98264285D01*
X132721428Y-98307142D01*
X133064285Y-98307142D01*
X133150000Y-98264285D01*
X133192857Y-98178571D01*
X133192857Y-98007142D01*
X133150000Y-97921428D01*
X133064285Y-97878571D01*
X132978571Y-97878571D01*
X132892857Y-98307142D01*
X132635714Y-97150000D02*
X132592857Y-97235714D01*
X132592857Y-97407142D01*
X132635714Y-97492857D01*
X132721428Y-97535714D01*
X133064285Y-97535714D01*
X133150000Y-97492857D01*
X133192857Y-97407142D01*
X133192857Y-97235714D01*
X133150000Y-97150000D01*
X133064285Y-97107142D01*
X132978571Y-97107142D01*
X132892857Y-97535714D01*
X133192857Y-96721428D02*
X132592857Y-96721428D01*
X133107142Y-96721428D02*
X133150000Y-96678571D01*
X133192857Y-96592857D01*
X133192857Y-96464285D01*
X133150000Y-96378571D01*
X133064285Y-96335714D01*
X132592857Y-96335714D01*
X132592857Y-95907142D02*
X133192857Y-95907142D01*
X133492857Y-95907142D02*
X133450000Y-95950000D01*
X133407142Y-95907142D01*
X133450000Y-95864285D01*
X133492857Y-95907142D01*
X133407142Y-95907142D01*
X133192857Y-95564285D02*
X132592857Y-95350000D01*
X133192857Y-95135714D01*
X132592857Y-94407142D02*
X133064285Y-94407142D01*
X133150000Y-94450000D01*
X133192857Y-94535714D01*
X133192857Y-94707142D01*
X133150000Y-94792857D01*
X132635714Y-94407142D02*
X132592857Y-94492857D01*
X132592857Y-94707142D01*
X132635714Y-94792857D01*
X132721428Y-94835714D01*
X132807142Y-94835714D01*
X132892857Y-94792857D01*
X132935714Y-94707142D01*
X132935714Y-94492857D01*
X132978571Y-94407142D01*
X132635714Y-94021428D02*
X132592857Y-93935714D01*
X132592857Y-93764285D01*
X132635714Y-93678571D01*
X132721428Y-93635714D01*
X132764285Y-93635714D01*
X132850000Y-93678571D01*
X132892857Y-93764285D01*
X132892857Y-93892857D01*
X132935714Y-93978571D01*
X133021428Y-94021428D01*
X133064285Y-94021428D01*
X133150000Y-93978571D01*
X133192857Y-93892857D01*
X133192857Y-93764285D01*
X133150000Y-93678571D01*
X133064285Y-92564285D02*
X133064285Y-92264285D01*
X132592857Y-92135714D02*
X132592857Y-92564285D01*
X133492857Y-92564285D01*
X133492857Y-92135714D01*
X132592857Y-91364285D02*
X133064285Y-91364285D01*
X133150000Y-91407142D01*
X133192857Y-91492857D01*
X133192857Y-91664285D01*
X133150000Y-91750000D01*
X132635714Y-91364285D02*
X132592857Y-91450000D01*
X132592857Y-91664285D01*
X132635714Y-91750000D01*
X132721428Y-91792857D01*
X132807142Y-91792857D01*
X132892857Y-91750000D01*
X132935714Y-91664285D01*
X132935714Y-91450000D01*
X132978571Y-91364285D01*
X132592857Y-90550000D02*
X133492857Y-90550000D01*
X132635714Y-90550000D02*
X132592857Y-90635714D01*
X132592857Y-90807142D01*
X132635714Y-90892857D01*
X132678571Y-90935714D01*
X132764285Y-90978571D01*
X133021428Y-90978571D01*
X133107142Y-90935714D01*
X133150000Y-90892857D01*
X133192857Y-90807142D01*
X133192857Y-90635714D01*
X133150000Y-90550000D01*
X132592857Y-89735714D02*
X133064285Y-89735714D01*
X133150000Y-89778571D01*
X133192857Y-89864285D01*
X133192857Y-90035714D01*
X133150000Y-90121428D01*
X132635714Y-89735714D02*
X132592857Y-89821428D01*
X132592857Y-90035714D01*
X132635714Y-90121428D01*
X132721428Y-90164285D01*
X132807142Y-90164285D01*
X132892857Y-90121428D01*
X132935714Y-90035714D01*
X132935714Y-89821428D01*
X132978571Y-89735714D01*
X132592857Y-89307142D02*
X133192857Y-89307142D01*
X133021428Y-89307142D02*
X133107142Y-89264285D01*
X133150000Y-89221428D01*
X133192857Y-89135714D01*
X133192857Y-89050000D01*
X132592857Y-88364285D02*
X133064285Y-88364285D01*
X133150000Y-88407142D01*
X133192857Y-88492857D01*
X133192857Y-88664285D01*
X133150000Y-88750000D01*
X132635714Y-88364285D02*
X132592857Y-88450000D01*
X132592857Y-88664285D01*
X132635714Y-88750000D01*
X132721428Y-88792857D01*
X132807142Y-88792857D01*
X132892857Y-88750000D01*
X132935714Y-88664285D01*
X132935714Y-88450000D01*
X132978571Y-88364285D01*
X132635714Y-87892857D02*
X132592857Y-87892857D01*
X132507142Y-87935714D01*
X132464285Y-87978571D01*
X132592857Y-86821428D02*
X133492857Y-86821428D01*
X133492857Y-86478571D01*
X133450000Y-86392857D01*
X133407142Y-86350000D01*
X133321428Y-86307142D01*
X133192857Y-86307142D01*
X133107142Y-86350000D01*
X133064285Y-86392857D01*
X133021428Y-86478571D01*
X133021428Y-86821428D01*
X132592857Y-85921428D02*
X133192857Y-85921428D01*
X133021428Y-85921428D02*
X133107142Y-85878571D01*
X133150000Y-85835714D01*
X133192857Y-85750000D01*
X133192857Y-85664285D01*
X132592857Y-85235714D02*
X132635714Y-85321428D01*
X132678571Y-85364285D01*
X132764285Y-85407142D01*
X133021428Y-85407142D01*
X133107142Y-85364285D01*
X133150000Y-85321428D01*
X133192857Y-85235714D01*
X133192857Y-85107142D01*
X133150000Y-85021428D01*
X133107142Y-84978571D01*
X133021428Y-84935714D01*
X132764285Y-84935714D01*
X132678571Y-84978571D01*
X132635714Y-85021428D01*
X132592857Y-85107142D01*
X132592857Y-85235714D01*
X132592857Y-84164285D02*
X133492857Y-84164285D01*
X132635714Y-84164285D02*
X132592857Y-84250000D01*
X132592857Y-84421428D01*
X132635714Y-84507142D01*
X132678571Y-84550000D01*
X132764285Y-84592857D01*
X133021428Y-84592857D01*
X133107142Y-84550000D01*
X133150000Y-84507142D01*
X133192857Y-84421428D01*
X133192857Y-84250000D01*
X133150000Y-84164285D01*
X133192857Y-83350000D02*
X132592857Y-83350000D01*
X133192857Y-83735714D02*
X132721428Y-83735714D01*
X132635714Y-83692857D01*
X132592857Y-83607142D01*
X132592857Y-83478571D01*
X132635714Y-83392857D01*
X132678571Y-83350000D01*
X132635714Y-82535714D02*
X132592857Y-82621428D01*
X132592857Y-82792857D01*
X132635714Y-82878571D01*
X132678571Y-82921428D01*
X132764285Y-82964285D01*
X133021428Y-82964285D01*
X133107142Y-82921428D01*
X133150000Y-82878571D01*
X133192857Y-82792857D01*
X133192857Y-82621428D01*
X133150000Y-82535714D01*
X132635714Y-81807142D02*
X132592857Y-81892857D01*
X132592857Y-82064285D01*
X132635714Y-82150000D01*
X132721428Y-82192857D01*
X133064285Y-82192857D01*
X133150000Y-82150000D01*
X133192857Y-82064285D01*
X133192857Y-81892857D01*
X133150000Y-81807142D01*
X133064285Y-81764285D01*
X132978571Y-81764285D01*
X132892857Y-82192857D01*
X132592857Y-80992857D02*
X133492857Y-80992857D01*
X132635714Y-80992857D02*
X132592857Y-81078571D01*
X132592857Y-81250000D01*
X132635714Y-81335714D01*
X132678571Y-81378571D01*
X132764285Y-81421428D01*
X133021428Y-81421428D01*
X133107142Y-81378571D01*
X133150000Y-81335714D01*
X133192857Y-81250000D01*
X133192857Y-81078571D01*
X133150000Y-80992857D01*
X132592857Y-79878571D02*
X133492857Y-79878571D01*
X133150000Y-79878571D02*
X133192857Y-79792857D01*
X133192857Y-79621428D01*
X133150000Y-79535714D01*
X133107142Y-79492857D01*
X133021428Y-79450000D01*
X132764285Y-79450000D01*
X132678571Y-79492857D01*
X132635714Y-79535714D01*
X132592857Y-79621428D01*
X132592857Y-79792857D01*
X132635714Y-79878571D01*
X133192857Y-79150000D02*
X132592857Y-78935714D01*
X133192857Y-78721428D02*
X132592857Y-78935714D01*
X132378571Y-79021428D01*
X132335714Y-79064285D01*
X132292857Y-79150000D01*
X132592857Y-77264285D02*
X132592857Y-77692857D01*
X133492857Y-77692857D01*
X132592857Y-76964285D02*
X133492857Y-76964285D01*
X133492857Y-76750000D01*
X133450000Y-76621428D01*
X133364285Y-76535714D01*
X133278571Y-76492857D01*
X133107142Y-76450000D01*
X132978571Y-76450000D01*
X132807142Y-76492857D01*
X132721428Y-76535714D01*
X132635714Y-76621428D01*
X132592857Y-76750000D01*
X132592857Y-76964285D01*
X133492857Y-75892857D02*
X133492857Y-75721428D01*
X133450000Y-75635714D01*
X133364285Y-75550000D01*
X133192857Y-75507142D01*
X132892857Y-75507142D01*
X132721428Y-75550000D01*
X132635714Y-75635714D01*
X132592857Y-75721428D01*
X132592857Y-75892857D01*
X132635714Y-75978571D01*
X132721428Y-76064285D01*
X132892857Y-76107142D01*
X133192857Y-76107142D01*
X133364285Y-76064285D01*
X133450000Y-75978571D01*
X133492857Y-75892857D01*
X132592857Y-74435714D02*
X133492857Y-74435714D01*
X132850000Y-74135714D01*
X133492857Y-73835714D01*
X132592857Y-73835714D01*
X132592857Y-73278571D02*
X132635714Y-73364285D01*
X132678571Y-73407142D01*
X132764285Y-73450000D01*
X133021428Y-73450000D01*
X133107142Y-73407142D01*
X133150000Y-73364285D01*
X133192857Y-73278571D01*
X133192857Y-73150000D01*
X133150000Y-73064285D01*
X133107142Y-73021428D01*
X133021428Y-72978571D01*
X132764285Y-72978571D01*
X132678571Y-73021428D01*
X132635714Y-73064285D01*
X132592857Y-73150000D01*
X132592857Y-73278571D01*
X133192857Y-72721428D02*
X133192857Y-72378571D01*
X133492857Y-72592857D02*
X132721428Y-72592857D01*
X132635714Y-72550000D01*
X132592857Y-72464285D01*
X132592857Y-72378571D01*
X132592857Y-71950000D02*
X132635714Y-72035714D01*
X132678571Y-72078571D01*
X132764285Y-72121428D01*
X133021428Y-72121428D01*
X133107142Y-72078571D01*
X133150000Y-72035714D01*
X133192857Y-71950000D01*
X133192857Y-71821428D01*
X133150000Y-71735714D01*
X133107142Y-71692857D01*
X133021428Y-71650000D01*
X132764285Y-71650000D01*
X132678571Y-71692857D01*
X132635714Y-71735714D01*
X132592857Y-71821428D01*
X132592857Y-71950000D01*
X132592857Y-71264285D02*
X133192857Y-71264285D01*
X133021428Y-71264285D02*
X133107142Y-71221428D01*
X133150000Y-71178571D01*
X133192857Y-71092857D01*
X133192857Y-71007142D01*
X132635714Y-70750000D02*
X132592857Y-70664285D01*
X132592857Y-70492857D01*
X132635714Y-70407142D01*
X132721428Y-70364285D01*
X132764285Y-70364285D01*
X132850000Y-70407142D01*
X132892857Y-70492857D01*
X132892857Y-70621428D01*
X132935714Y-70707142D01*
X133021428Y-70750000D01*
X133064285Y-70750000D01*
X133150000Y-70707142D01*
X133192857Y-70621428D01*
X133192857Y-70492857D01*
X133150000Y-70407142D01*
X132011904Y-62042857D02*
X130488095Y-62042857D01*
X131250000Y-62804761D02*
X131250000Y-61280952D01*
X134697619Y-64240476D02*
X134697619Y-64716666D01*
X134221428Y-64764285D01*
X134269047Y-64716666D01*
X134316666Y-64621428D01*
X134316666Y-64383333D01*
X134269047Y-64288095D01*
X134221428Y-64240476D01*
X134126190Y-64192857D01*
X133888095Y-64192857D01*
X133792857Y-64240476D01*
X133745238Y-64288095D01*
X133697619Y-64383333D01*
X133697619Y-64621428D01*
X133745238Y-64716666D01*
X133792857Y-64764285D01*
X134697619Y-63907142D02*
X133697619Y-63573809D01*
X134697619Y-63240476D01*
X95261904Y-107642857D02*
X93738095Y-107642857D01*
X94500000Y-108404761D02*
X94500000Y-106880952D01*
X88247619Y-84833333D02*
X87533333Y-84833333D01*
X87390476Y-84880952D01*
X87295238Y-84976190D01*
X87247619Y-85119047D01*
X87247619Y-85214285D01*
X87247619Y-83880952D02*
X87247619Y-84357142D01*
X88247619Y-84357142D01*
X87342857Y-82976190D02*
X87295238Y-83023809D01*
X87247619Y-83166666D01*
X87247619Y-83261904D01*
X87295238Y-83404761D01*
X87390476Y-83500000D01*
X87485714Y-83547619D01*
X87676190Y-83595238D01*
X87819047Y-83595238D01*
X88009523Y-83547619D01*
X88104761Y-83500000D01*
X88200000Y-83404761D01*
X88247619Y-83261904D01*
X88247619Y-83166666D01*
X88200000Y-83023809D01*
X88152380Y-82976190D01*
X88247619Y-82261904D02*
X87533333Y-82261904D01*
X87390476Y-82309523D01*
X87295238Y-82404761D01*
X87247619Y-82547619D01*
X87247619Y-82642857D01*
X87247619Y-81309523D02*
X87247619Y-81785714D01*
X88247619Y-81785714D01*
X87342857Y-80404761D02*
X87295238Y-80452380D01*
X87247619Y-80595238D01*
X87247619Y-80690476D01*
X87295238Y-80833333D01*
X87390476Y-80928571D01*
X87485714Y-80976190D01*
X87676190Y-81023809D01*
X87819047Y-81023809D01*
X88009523Y-80976190D01*
X88104761Y-80928571D01*
X88200000Y-80833333D01*
X88247619Y-80690476D01*
X88247619Y-80595238D01*
X88200000Y-80452380D01*
X88152380Y-80404761D01*
X88247619Y-79690476D02*
X87533333Y-79690476D01*
X87390476Y-79738095D01*
X87295238Y-79833333D01*
X87247619Y-79976190D01*
X87247619Y-80071428D01*
X87247619Y-78738095D02*
X87247619Y-79214285D01*
X88247619Y-79214285D01*
X87342857Y-77833333D02*
X87295238Y-77880952D01*
X87247619Y-78023809D01*
X87247619Y-78119047D01*
X87295238Y-78261904D01*
X87390476Y-78357142D01*
X87485714Y-78404761D01*
X87676190Y-78452380D01*
X87819047Y-78452380D01*
X88009523Y-78404761D01*
X88104761Y-78357142D01*
X88200000Y-78261904D01*
X88247619Y-78119047D01*
X88247619Y-78023809D01*
X88200000Y-77880952D01*
X88152380Y-77833333D01*
X148842857Y-61438095D02*
X148842857Y-62961904D01*
X98761904Y-107642857D02*
X97238095Y-107642857D01*
X136947619Y-69833333D02*
X135947619Y-69500000D01*
X136947619Y-69166666D01*
X136042857Y-68261904D02*
X135995238Y-68309523D01*
X135947619Y-68452380D01*
X135947619Y-68547619D01*
X135995238Y-68690476D01*
X136090476Y-68785714D01*
X136185714Y-68833333D01*
X136376190Y-68880952D01*
X136519047Y-68880952D01*
X136709523Y-68833333D01*
X136804761Y-68785714D01*
X136900000Y-68690476D01*
X136947619Y-68547619D01*
X136947619Y-68452380D01*
X136900000Y-68309523D01*
X136852380Y-68261904D01*
X136042857Y-67261904D02*
X135995238Y-67309523D01*
X135947619Y-67452380D01*
X135947619Y-67547619D01*
X135995238Y-67690476D01*
X136090476Y-67785714D01*
X136185714Y-67833333D01*
X136376190Y-67880952D01*
X136519047Y-67880952D01*
X136709523Y-67833333D01*
X136804761Y-67785714D01*
X136900000Y-67690476D01*
X136947619Y-67547619D01*
X136947619Y-67452380D01*
X136900000Y-67309523D01*
X136852380Y-67261904D01*
X148742857Y-64038095D02*
X148742857Y-65561904D01*
X149504761Y-64800000D02*
X147980952Y-64800000D01*
X129511904Y-62042857D02*
X127988095Y-62042857D01*
%TO.C,J6*%
X94147619Y-60633333D02*
X93433333Y-60633333D01*
X93290476Y-60680952D01*
X93195238Y-60776190D01*
X93147619Y-60919047D01*
X93147619Y-61014285D01*
X94147619Y-59728571D02*
X94147619Y-59919047D01*
X94100000Y-60014285D01*
X94052380Y-60061904D01*
X93909523Y-60157142D01*
X93719047Y-60204761D01*
X93338095Y-60204761D01*
X93242857Y-60157142D01*
X93195238Y-60109523D01*
X93147619Y-60014285D01*
X93147619Y-59823809D01*
X93195238Y-59728571D01*
X93242857Y-59680952D01*
X93338095Y-59633333D01*
X93576190Y-59633333D01*
X93671428Y-59680952D01*
X93719047Y-59728571D01*
X93766666Y-59823809D01*
X93766666Y-60014285D01*
X93719047Y-60109523D01*
X93671428Y-60157142D01*
X93576190Y-60204761D01*
%TO.C,JP1*%
X136747619Y-65633333D02*
X136033333Y-65633333D01*
X135890476Y-65680952D01*
X135795238Y-65776190D01*
X135747619Y-65919047D01*
X135747619Y-66014285D01*
X135747619Y-65157142D02*
X136747619Y-65157142D01*
X136747619Y-64776190D01*
X136700000Y-64680952D01*
X136652380Y-64633333D01*
X136557142Y-64585714D01*
X136414285Y-64585714D01*
X136319047Y-64633333D01*
X136271428Y-64680952D01*
X136223809Y-64776190D01*
X136223809Y-65157142D01*
X135747619Y-63633333D02*
X135747619Y-64204761D01*
X135747619Y-63919047D02*
X136747619Y-63919047D01*
X136604761Y-64014285D01*
X136509523Y-64109523D01*
X136461904Y-64204761D01*
%TO.C,G\u002A\u002A\u002A*%
G36*
X137090888Y-80222888D02*
G01*
X137184834Y-80246419D01*
X137273418Y-80282734D01*
X137355297Y-80330958D01*
X137429127Y-80390216D01*
X137493568Y-80459633D01*
X137547275Y-80538334D01*
X137588907Y-80625443D01*
X137617121Y-80720086D01*
X137630574Y-80821388D01*
X137631500Y-80878830D01*
X137621279Y-80985120D01*
X137595908Y-81085672D01*
X137556096Y-81179242D01*
X137502552Y-81264589D01*
X137435986Y-81340470D01*
X137357107Y-81405642D01*
X137266624Y-81458863D01*
X137224363Y-81477632D01*
X137150968Y-81501111D01*
X137072377Y-81514380D01*
X136983660Y-81518477D01*
X136964727Y-81518277D01*
X136856872Y-81509651D01*
X136759122Y-81487926D01*
X136670116Y-81452583D01*
X136588495Y-81403103D01*
X136512899Y-81338969D01*
X136498264Y-81324075D01*
X136436487Y-81247496D01*
X136385530Y-81160803D01*
X136347437Y-81067962D01*
X136324254Y-80972943D01*
X136323495Y-80967707D01*
X136320481Y-80930279D01*
X136319552Y-80883647D01*
X136320530Y-80833067D01*
X136323237Y-80783791D01*
X136327497Y-80741074D01*
X136333131Y-80710172D01*
X136340066Y-80687096D01*
X136351322Y-80653347D01*
X136363783Y-80618619D01*
X136390204Y-80559214D01*
X136441185Y-80477727D01*
X136505096Y-80403924D01*
X136579773Y-80339860D01*
X136663051Y-80287591D01*
X136752766Y-80249174D01*
X136790297Y-80237756D01*
X136892277Y-80217682D01*
X136992921Y-80213018D01*
X137090888Y-80222888D01*
G37*
G36*
X133903065Y-82635852D02*
G01*
X133903065Y-82233027D01*
X134570361Y-82233027D01*
X135085830Y-82748444D01*
X135601299Y-83263860D01*
X137083438Y-83263860D01*
X137130164Y-83263858D01*
X137286747Y-83263819D01*
X137438403Y-83263735D01*
X137584260Y-83263606D01*
X137723450Y-83263436D01*
X137855101Y-83263228D01*
X137978344Y-83262983D01*
X138092309Y-83262704D01*
X138196125Y-83262394D01*
X138288922Y-83262056D01*
X138369830Y-83261691D01*
X138437979Y-83261303D01*
X138492498Y-83260894D01*
X138532518Y-83260466D01*
X138557168Y-83260022D01*
X138565578Y-83259564D01*
X138562284Y-83255548D01*
X138548248Y-83240454D01*
X138524294Y-83215369D01*
X138491632Y-83181538D01*
X138451467Y-83140208D01*
X138405007Y-83092621D01*
X138353460Y-83040025D01*
X138298032Y-82983663D01*
X138266086Y-82951218D01*
X138208351Y-82892510D01*
X138152935Y-82836074D01*
X138101454Y-82783560D01*
X138055525Y-82736620D01*
X138016765Y-82696905D01*
X137986790Y-82666067D01*
X137967216Y-82645756D01*
X137903946Y-82579454D01*
X136968710Y-82579260D01*
X135977670Y-82579054D01*
X135611940Y-82219145D01*
X135246211Y-81859236D01*
X135246211Y-80906190D01*
X135674529Y-80906190D01*
X135675787Y-80967938D01*
X135679855Y-81018154D01*
X135684593Y-81051462D01*
X135715651Y-81197578D01*
X135762231Y-81337544D01*
X135823650Y-81470334D01*
X135899223Y-81594924D01*
X135988264Y-81710287D01*
X136090090Y-81815399D01*
X136204015Y-81909233D01*
X136329355Y-81990766D01*
X136354676Y-82005016D01*
X136426419Y-82041962D01*
X136498167Y-82073148D01*
X136574193Y-82100150D01*
X136658773Y-82124540D01*
X136756181Y-82147891D01*
X136773717Y-82150647D01*
X136810085Y-82153799D01*
X136857172Y-82156157D01*
X136911280Y-82157686D01*
X136968710Y-82158351D01*
X137025763Y-82158117D01*
X137078740Y-82156949D01*
X137123943Y-82154813D01*
X137157674Y-82151674D01*
X137274325Y-82129746D01*
X137410705Y-82088635D01*
X137542587Y-82032053D01*
X137668272Y-81960860D01*
X137786063Y-81875919D01*
X137894261Y-81778091D01*
X137917886Y-81753649D01*
X138014482Y-81639757D01*
X138095679Y-81518728D01*
X138161854Y-81389846D01*
X138213389Y-81252393D01*
X138250662Y-81105654D01*
X138258390Y-81061446D01*
X138269874Y-80941850D01*
X138269718Y-80816484D01*
X138258253Y-80689896D01*
X138235814Y-80566634D01*
X138202733Y-80451243D01*
X138187579Y-80409244D01*
X138142791Y-80301883D01*
X138092228Y-80205661D01*
X138033270Y-80116457D01*
X137963300Y-80030145D01*
X137879698Y-79942603D01*
X137847330Y-79911837D01*
X137732015Y-79816810D01*
X137608998Y-79737058D01*
X137478155Y-79672515D01*
X137339361Y-79623117D01*
X137192489Y-79588799D01*
X137171536Y-79585684D01*
X137119803Y-79580909D01*
X137057844Y-79577912D01*
X136990158Y-79576689D01*
X136921246Y-79577232D01*
X136855607Y-79579536D01*
X136797743Y-79583595D01*
X136752152Y-79589402D01*
X136749164Y-79589932D01*
X136616316Y-79621560D01*
X136483998Y-79668238D01*
X136356230Y-79728322D01*
X136237028Y-79800168D01*
X136227007Y-79807120D01*
X136169579Y-79851467D01*
X136108222Y-79905291D01*
X136046627Y-79964888D01*
X135988483Y-80026551D01*
X135937482Y-80086577D01*
X135897312Y-80141260D01*
X135831025Y-80251836D01*
X135769851Y-80381997D01*
X135723815Y-80517852D01*
X135691872Y-80662052D01*
X135685813Y-80704926D01*
X135679721Y-80769368D01*
X135675900Y-80838228D01*
X135674529Y-80906190D01*
X135246211Y-80906190D01*
X135246211Y-79929689D01*
X134913201Y-79599954D01*
X134875392Y-79562579D01*
X134814990Y-79503144D01*
X134758897Y-79448279D01*
X134708226Y-79399057D01*
X134664094Y-79356551D01*
X134627617Y-79321833D01*
X134599911Y-79295975D01*
X134582092Y-79280052D01*
X134575276Y-79275134D01*
X134575139Y-79275840D01*
X134574618Y-79289060D01*
X134574113Y-79318288D01*
X134573628Y-79362649D01*
X134573165Y-79421266D01*
X134572726Y-79493264D01*
X134572316Y-79577767D01*
X134571937Y-79673900D01*
X134571591Y-79780786D01*
X134571282Y-79897551D01*
X134571013Y-80023318D01*
X134570786Y-80157211D01*
X134570604Y-80298356D01*
X134570471Y-80445876D01*
X134570389Y-80598895D01*
X134570361Y-80756538D01*
X134570361Y-82233027D01*
X133903065Y-82233027D01*
X133903065Y-78938644D01*
X134570074Y-78938644D01*
X135102771Y-79471340D01*
X135173970Y-79542492D01*
X135250155Y-79618519D01*
X135322115Y-79690218D01*
X135388976Y-79756723D01*
X135449866Y-79817171D01*
X135503910Y-79870696D01*
X135550236Y-79916433D01*
X135587970Y-79953517D01*
X135616238Y-79981084D01*
X135634168Y-79998269D01*
X135640885Y-80004207D01*
X135645770Y-79999997D01*
X135658969Y-79984390D01*
X135677944Y-79959948D01*
X135700423Y-79929522D01*
X135710037Y-79916573D01*
X135752738Y-79864290D01*
X135804551Y-79806952D01*
X135861671Y-79748360D01*
X135920298Y-79692316D01*
X135976629Y-79642624D01*
X136026861Y-79603084D01*
X136051687Y-79584814D01*
X136077576Y-79564910D01*
X136095206Y-79550309D01*
X136101718Y-79543295D01*
X136100178Y-79541040D01*
X136088714Y-79528285D01*
X136067282Y-79505743D01*
X136037334Y-79474904D01*
X136000325Y-79437261D01*
X135957706Y-79394305D01*
X135910932Y-79347525D01*
X135720147Y-79157427D01*
X137971001Y-79157827D01*
X138702459Y-79877645D01*
X138702459Y-81001840D01*
X138702454Y-81046087D01*
X138702375Y-81181863D01*
X138702206Y-81312519D01*
X138701950Y-81437055D01*
X138701616Y-81554473D01*
X138701207Y-81663773D01*
X138700730Y-81763956D01*
X138700192Y-81854023D01*
X138699596Y-81932975D01*
X138698950Y-81999812D01*
X138698259Y-82053536D01*
X138697528Y-82093148D01*
X138696765Y-82117647D01*
X138695973Y-82126036D01*
X138692904Y-82123917D01*
X138679008Y-82111506D01*
X138655425Y-82089235D01*
X138623633Y-82058537D01*
X138585110Y-82020842D01*
X138541334Y-81977585D01*
X138493785Y-81930195D01*
X138298084Y-81734355D01*
X138236205Y-81816841D01*
X138214763Y-81844252D01*
X138162359Y-81904993D01*
X138101929Y-81968623D01*
X138037765Y-82030896D01*
X137974156Y-82087566D01*
X137915393Y-82134386D01*
X137892268Y-82151755D01*
X137866633Y-82171933D01*
X137849143Y-82186854D01*
X137842675Y-82194157D01*
X137847062Y-82199378D01*
X137862648Y-82215992D01*
X137888686Y-82243102D01*
X137924312Y-82279827D01*
X137968662Y-82325286D01*
X138020873Y-82378598D01*
X138080081Y-82438881D01*
X138145423Y-82505253D01*
X138216035Y-82576833D01*
X138291054Y-82652739D01*
X138369616Y-82732090D01*
X138896558Y-83263860D01*
X139369754Y-83263860D01*
X139369754Y-79503854D01*
X138854266Y-78988419D01*
X138338778Y-78472983D01*
X134574638Y-78477299D01*
X134572356Y-78707971D01*
X134570074Y-78938644D01*
X133903065Y-78938644D01*
X133903065Y-77797171D01*
X138737526Y-77797171D01*
X139391566Y-78449454D01*
X140045605Y-79101736D01*
X140045605Y-83939710D01*
X135210509Y-83939710D01*
X133903065Y-82635852D01*
G37*
D12*
%TO.C,J6*%
X94890000Y-56750000D02*
X94890000Y-59350000D01*
X94890000Y-59350000D02*
X143210000Y-59350000D01*
X92290000Y-56750000D02*
X94890000Y-56750000D01*
X143210000Y-54150000D02*
X143210000Y-59350000D01*
X92290000Y-54150000D02*
X92290000Y-56750000D01*
X92290000Y-59350000D02*
X93620000Y-59350000D01*
X92290000Y-54150000D02*
X143210000Y-54150000D01*
X92290000Y-58020000D02*
X92290000Y-59350000D01*
%TO.C,JP1*%
X135300000Y-68450000D02*
X135600000Y-68750000D01*
X135300000Y-68450000D02*
X135600000Y-68150000D01*
X134300000Y-65200000D02*
X133700000Y-65200000D01*
X133000000Y-65850000D02*
X133000000Y-68650000D01*
X135000000Y-68650000D02*
X135000000Y-65850000D01*
X133700000Y-69300000D02*
X134300000Y-69300000D01*
X135600000Y-68150000D02*
X135600000Y-68750000D01*
X133000000Y-68600000D02*
G75*
G03*
X133700000Y-69300000I699999J-1D01*
G01*
X134300000Y-69300000D02*
G75*
G03*
X135000000Y-68600000I1J699999D01*
G01*
X135000000Y-65900000D02*
G75*
G03*
X134300000Y-65200000I-700000J0D01*
G01*
X133700000Y-65200000D02*
G75*
G03*
X133000000Y-65900000I0J-700000D01*
G01*
%TO.C,G\u002A\u002A\u002A*%
G36*
X145707501Y-92717574D02*
G01*
X145542406Y-92614166D01*
X145416834Y-92535496D01*
X145248890Y-92430326D01*
X145059594Y-92311829D01*
X144851825Y-92181805D01*
X144628460Y-92042052D01*
X144392379Y-91894372D01*
X144146459Y-91740565D01*
X143893579Y-91582430D01*
X143636615Y-91421767D01*
X143378447Y-91260377D01*
X143121953Y-91100060D01*
X142870011Y-90942616D01*
X142625498Y-90789844D01*
X140755770Y-89621760D01*
X140755729Y-88611923D01*
X141416677Y-88611923D01*
X141416677Y-89215090D01*
X143675571Y-90627012D01*
X143701276Y-90643078D01*
X143944241Y-90794880D01*
X144179906Y-90942018D01*
X144406887Y-91083633D01*
X144623796Y-91218863D01*
X144829250Y-91346848D01*
X145021863Y-91466728D01*
X145200248Y-91577643D01*
X145363022Y-91678731D01*
X145508797Y-91769132D01*
X145636190Y-91847986D01*
X145743814Y-91914432D01*
X145830284Y-91967611D01*
X145894214Y-92006661D01*
X145934220Y-92030722D01*
X145948916Y-92038933D01*
X145950943Y-92034496D01*
X145954459Y-92004254D01*
X145957611Y-91948947D01*
X145960363Y-91872756D01*
X145962683Y-91779863D01*
X145964535Y-91674450D01*
X145965886Y-91560697D01*
X145966700Y-91442786D01*
X145966945Y-91324898D01*
X145966584Y-91211215D01*
X145965585Y-91105918D01*
X145963912Y-91013188D01*
X145961532Y-90937207D01*
X145958410Y-90882156D01*
X145947458Y-90747188D01*
X145835478Y-90677984D01*
X145832229Y-90675977D01*
X145790584Y-90650233D01*
X145726316Y-90610500D01*
X145643150Y-90559078D01*
X145544808Y-90498271D01*
X145435015Y-90430381D01*
X145317494Y-90357711D01*
X145195970Y-90282563D01*
X145101012Y-90223843D01*
X144979726Y-90148849D01*
X144861438Y-90075716D01*
X144743169Y-90002602D01*
X144621939Y-89927667D01*
X144494769Y-89849069D01*
X144358680Y-89764967D01*
X144210692Y-89673520D01*
X144047827Y-89572886D01*
X143867105Y-89461226D01*
X143665547Y-89336696D01*
X143440174Y-89197457D01*
X143384981Y-89163319D01*
X143284549Y-89100989D01*
X143194353Y-89044740D01*
X143117709Y-88996657D01*
X143057936Y-88958825D01*
X143018350Y-88933328D01*
X143002269Y-88922252D01*
X143010666Y-88913735D01*
X143043464Y-88889941D01*
X143098751Y-88852506D01*
X143174226Y-88802916D01*
X143267588Y-88742653D01*
X143376535Y-88673203D01*
X143498766Y-88596050D01*
X143631980Y-88512678D01*
X143773875Y-88424571D01*
X143865705Y-88367770D01*
X144015712Y-88274981D01*
X144162078Y-88184443D01*
X144301498Y-88098200D01*
X144430665Y-88018298D01*
X144546272Y-87946781D01*
X144645013Y-87885696D01*
X144723582Y-87837088D01*
X144778673Y-87803001D01*
X144803848Y-87787432D01*
X144882484Y-87738858D01*
X144980343Y-87678474D01*
X145092014Y-87609616D01*
X145212087Y-87535617D01*
X145335151Y-87459815D01*
X145455797Y-87385545D01*
X145535893Y-87336150D01*
X145639926Y-87271673D01*
X145733845Y-87213100D01*
X145814301Y-87162539D01*
X145877944Y-87122097D01*
X145921425Y-87093882D01*
X145941393Y-87080001D01*
X145944139Y-87077528D01*
X145950854Y-87068979D01*
X145956262Y-87055671D01*
X145960471Y-87034633D01*
X145963591Y-87002895D01*
X145965729Y-86957486D01*
X145966995Y-86895437D01*
X145967498Y-86813776D01*
X145967346Y-86709534D01*
X145966649Y-86579740D01*
X145965514Y-86421424D01*
X145965073Y-86369027D01*
X145963529Y-86234639D01*
X145961531Y-86111811D01*
X145959172Y-86003866D01*
X145956543Y-85914125D01*
X145953736Y-85845911D01*
X145950844Y-85802546D01*
X145947958Y-85787352D01*
X145947030Y-85787710D01*
X145926930Y-85799227D01*
X145882216Y-85826179D01*
X145814607Y-85867500D01*
X145725820Y-85922124D01*
X145617575Y-85988988D01*
X145491589Y-86067024D01*
X145349582Y-86155169D01*
X145193271Y-86252356D01*
X145024375Y-86357520D01*
X144844613Y-86469596D01*
X144655702Y-86587518D01*
X144459361Y-86710221D01*
X144357997Y-86773605D01*
X144138273Y-86910992D01*
X143913833Y-87051320D01*
X143687821Y-87192623D01*
X143463377Y-87332937D01*
X143243644Y-87470300D01*
X143031762Y-87602747D01*
X142830874Y-87728315D01*
X142644121Y-87845038D01*
X142474646Y-87950954D01*
X142325589Y-88044098D01*
X142200093Y-88122507D01*
X141416677Y-88611923D01*
X140755729Y-88611923D01*
X140755704Y-87995562D01*
X141416677Y-87995562D01*
X141452108Y-87972663D01*
X141452563Y-87972369D01*
X141474954Y-87958223D01*
X141520701Y-87929523D01*
X141586596Y-87888275D01*
X141669432Y-87836486D01*
X141766001Y-87776160D01*
X141873096Y-87709302D01*
X141987508Y-87637920D01*
X142487477Y-87326076D01*
X142487477Y-83614259D01*
X143179341Y-83614259D01*
X143175908Y-84787415D01*
X143175891Y-84792967D01*
X143175502Y-84981839D01*
X143175432Y-85161199D01*
X143175665Y-85328605D01*
X143176182Y-85481614D01*
X143176967Y-85617785D01*
X143178002Y-85734675D01*
X143179269Y-85829841D01*
X143180751Y-85900840D01*
X143182431Y-85945231D01*
X143184291Y-85960571D01*
X143184553Y-85960529D01*
X143201905Y-85951321D01*
X143242671Y-85927299D01*
X143303835Y-85890312D01*
X143382379Y-85842206D01*
X143475289Y-85784828D01*
X143579545Y-85720025D01*
X143692133Y-85649643D01*
X144188159Y-85338716D01*
X144188159Y-83614259D01*
X144534594Y-83614259D01*
X144590270Y-83614288D01*
X144690396Y-83614665D01*
X144764623Y-83615719D01*
X144816788Y-83617755D01*
X144850726Y-83621078D01*
X144870272Y-83625993D01*
X144879260Y-83632804D01*
X144881527Y-83641816D01*
X144881569Y-83648715D01*
X144881622Y-83684425D01*
X144881645Y-83747570D01*
X144881638Y-83835498D01*
X144881603Y-83945557D01*
X144881541Y-84075096D01*
X144881453Y-84221463D01*
X144881340Y-84382005D01*
X144881204Y-84554071D01*
X144881045Y-84735009D01*
X144881007Y-84835261D01*
X144881213Y-85010704D01*
X144881748Y-85175353D01*
X144882586Y-85326618D01*
X144883699Y-85461914D01*
X144885060Y-85578652D01*
X144886640Y-85674246D01*
X144888414Y-85746107D01*
X144890352Y-85791650D01*
X144892428Y-85808286D01*
X144893982Y-85808194D01*
X144915896Y-85797868D01*
X144960776Y-85772948D01*
X145025679Y-85735182D01*
X145107665Y-85686320D01*
X145203792Y-85628109D01*
X145311121Y-85562298D01*
X145426709Y-85490636D01*
X145500600Y-85444535D01*
X145620652Y-85369295D01*
X145717634Y-85307845D01*
X145794020Y-85258450D01*
X145852288Y-85219375D01*
X145894913Y-85188886D01*
X145924371Y-85165249D01*
X145943138Y-85146729D01*
X145953691Y-85131592D01*
X145958504Y-85118103D01*
X145958765Y-85116285D01*
X145960067Y-85088610D01*
X145961258Y-85031791D01*
X145962341Y-84947611D01*
X145963318Y-84837854D01*
X145964190Y-84704303D01*
X145964959Y-84548742D01*
X145965628Y-84372955D01*
X145966198Y-84178724D01*
X145966671Y-83967833D01*
X145967049Y-83742065D01*
X145967334Y-83503205D01*
X145967528Y-83253036D01*
X145967633Y-82993341D01*
X145967651Y-82725903D01*
X145967584Y-82452506D01*
X145967433Y-82174934D01*
X145967201Y-81894970D01*
X145966889Y-81614397D01*
X145966500Y-81334999D01*
X145966035Y-81058560D01*
X145965497Y-80786862D01*
X145964887Y-80521690D01*
X145964207Y-80264827D01*
X145963459Y-80018056D01*
X145962646Y-79783161D01*
X145961768Y-79561926D01*
X145960828Y-79356133D01*
X145959829Y-79167566D01*
X145958771Y-78998009D01*
X145957656Y-78849246D01*
X145956488Y-78723059D01*
X145955267Y-78621232D01*
X145953995Y-78545549D01*
X145952675Y-78497793D01*
X145951309Y-78479747D01*
X145930095Y-78457385D01*
X145893110Y-78437025D01*
X145879650Y-78431497D01*
X145838314Y-78413334D01*
X145773732Y-78384358D01*
X145689037Y-78345991D01*
X145587357Y-78299659D01*
X145471824Y-78246784D01*
X145345567Y-78188791D01*
X145211717Y-78127103D01*
X145194344Y-78119083D01*
X144952321Y-78007371D01*
X144737189Y-77908105D01*
X144547363Y-77820562D01*
X144381255Y-77744020D01*
X144237277Y-77677755D01*
X144113843Y-77621045D01*
X144009366Y-77573167D01*
X143922259Y-77533398D01*
X143850935Y-77501014D01*
X143793807Y-77475294D01*
X143749287Y-77455514D01*
X143715790Y-77440952D01*
X143691728Y-77430883D01*
X143675513Y-77424587D01*
X143665559Y-77421339D01*
X143660280Y-77420417D01*
X143659468Y-77420456D01*
X143650972Y-77422495D01*
X143635020Y-77428208D01*
X143609850Y-77438391D01*
X143573702Y-77453839D01*
X143524816Y-77475349D01*
X143461430Y-77503716D01*
X143381784Y-77539735D01*
X143284118Y-77584202D01*
X143166670Y-77637913D01*
X143027681Y-77701663D01*
X142865389Y-77776248D01*
X142678034Y-77862464D01*
X142463856Y-77961107D01*
X142349744Y-78013657D01*
X142212080Y-78077003D01*
X142076834Y-78139186D01*
X141949242Y-78197801D01*
X141834541Y-78250443D01*
X141737966Y-78294706D01*
X141664754Y-78328186D01*
X141416799Y-78441351D01*
X141416738Y-80238767D01*
X141416749Y-80476367D01*
X141416825Y-80728213D01*
X141416993Y-80951685D01*
X141417275Y-81148472D01*
X141417697Y-81320260D01*
X141418281Y-81468737D01*
X141419051Y-81595591D01*
X141420032Y-81702507D01*
X141421247Y-81791174D01*
X141422720Y-81863279D01*
X141424475Y-81920509D01*
X141426535Y-81964551D01*
X141428924Y-81997092D01*
X141431667Y-82019821D01*
X141434787Y-82034423D01*
X141438307Y-82042586D01*
X141442253Y-82045998D01*
X141446233Y-82046798D01*
X141477483Y-82048888D01*
X141535912Y-82050663D01*
X141618726Y-82052134D01*
X141723131Y-82053312D01*
X141846334Y-82054206D01*
X141985540Y-82054827D01*
X142137956Y-82055185D01*
X142300787Y-82055292D01*
X142471239Y-82055156D01*
X142646519Y-82054789D01*
X142823832Y-82054201D01*
X143000386Y-82053402D01*
X143173384Y-82052402D01*
X143340035Y-82051213D01*
X143497543Y-82049844D01*
X143643115Y-82048305D01*
X143773957Y-82046608D01*
X143887274Y-82044762D01*
X143980274Y-82042778D01*
X144050161Y-82040666D01*
X144094142Y-82038437D01*
X144109424Y-82036100D01*
X144108016Y-82030808D01*
X144095328Y-82001206D01*
X144071569Y-81951511D01*
X144039333Y-81887064D01*
X144001212Y-81813205D01*
X143993922Y-81799271D01*
X143950654Y-81716327D01*
X143897933Y-81614954D01*
X143839884Y-81503102D01*
X143780634Y-81388720D01*
X143724309Y-81279758D01*
X143555618Y-80953006D01*
X142487223Y-80953006D01*
X142491287Y-80038000D01*
X142495350Y-79122994D01*
X143051954Y-78865423D01*
X143078315Y-78853230D01*
X143201385Y-78796441D01*
X143315688Y-78743916D01*
X143417925Y-78697158D01*
X143504797Y-78657666D01*
X143573005Y-78626942D01*
X143619250Y-78606486D01*
X143640232Y-78597800D01*
X143659385Y-78600063D01*
X143700990Y-78613612D01*
X143765738Y-78638991D01*
X143854644Y-78676629D01*
X143968724Y-78726958D01*
X144108993Y-78790408D01*
X144276467Y-78867410D01*
X144881029Y-79147073D01*
X144881029Y-80805898D01*
X144881060Y-81013150D01*
X144881161Y-81231079D01*
X144881327Y-81438249D01*
X144881554Y-81632589D01*
X144881837Y-81812023D01*
X144882171Y-81974478D01*
X144882550Y-82117881D01*
X144882971Y-82240158D01*
X144883427Y-82339236D01*
X144883916Y-82413040D01*
X144884430Y-82459497D01*
X144884966Y-82476534D01*
X144882769Y-82477286D01*
X144856216Y-82479262D01*
X144801447Y-82481317D01*
X144720807Y-82483416D01*
X144616645Y-82485520D01*
X144491307Y-82487594D01*
X144347141Y-82489601D01*
X144186494Y-82491503D01*
X144011713Y-82493265D01*
X143825145Y-82494849D01*
X143629138Y-82496218D01*
X142369374Y-82504091D01*
X141893026Y-82723842D01*
X141416677Y-82943592D01*
X141416677Y-87995562D01*
X140755704Y-87995562D01*
X140755536Y-83815034D01*
X140755534Y-83681523D01*
X140755574Y-83258191D01*
X140755682Y-82843298D01*
X140755857Y-82437942D01*
X140756096Y-82043220D01*
X140756395Y-81660231D01*
X140756754Y-81290072D01*
X140757169Y-80933841D01*
X140757638Y-80592636D01*
X140758158Y-80267555D01*
X140758728Y-79959696D01*
X140759344Y-79670156D01*
X140760004Y-79400034D01*
X140760705Y-79150427D01*
X140761446Y-78922433D01*
X140762224Y-78717151D01*
X140763036Y-78535678D01*
X140763880Y-78379111D01*
X140764753Y-78248549D01*
X140765654Y-78145090D01*
X140766578Y-78069832D01*
X140767525Y-78023871D01*
X140768492Y-78008307D01*
X140784242Y-78002114D01*
X140826137Y-77983817D01*
X140891615Y-77954559D01*
X140978154Y-77915487D01*
X141083234Y-77867746D01*
X141204331Y-77812482D01*
X141338926Y-77750841D01*
X141484495Y-77683968D01*
X141638517Y-77613010D01*
X141688539Y-77589935D01*
X141869333Y-77506572D01*
X142058639Y-77419336D01*
X142251159Y-77330666D01*
X142441589Y-77243002D01*
X142624630Y-77158784D01*
X142794982Y-77080450D01*
X142947342Y-77010442D01*
X143076411Y-76951199D01*
X143657472Y-76684685D01*
X143950760Y-76818044D01*
X144048562Y-76862579D01*
X144148451Y-76908184D01*
X144241405Y-76950732D01*
X144320174Y-76986906D01*
X144377511Y-77013388D01*
X144427377Y-77036500D01*
X144504549Y-77072190D01*
X144600125Y-77116340D01*
X144708883Y-77166542D01*
X144825602Y-77220389D01*
X144945060Y-77275473D01*
X145062035Y-77329387D01*
X145171307Y-77379722D01*
X145267653Y-77424071D01*
X145345852Y-77460026D01*
X145400682Y-77485180D01*
X145426774Y-77497149D01*
X145483923Y-77523424D01*
X145562435Y-77559560D01*
X145658150Y-77603641D01*
X145766913Y-77653752D01*
X145884563Y-77707978D01*
X146006944Y-77764404D01*
X146105603Y-77809866D01*
X146219341Y-77862189D01*
X146322794Y-77909685D01*
X146412300Y-77950678D01*
X146484198Y-77983491D01*
X146534827Y-78006449D01*
X146560527Y-78017876D01*
X146567293Y-78020769D01*
X146588287Y-78031679D01*
X146601657Y-78046745D01*
X146609846Y-78072784D01*
X146615297Y-78116613D01*
X146620455Y-78185046D01*
X146621069Y-78202329D01*
X146621864Y-78252302D01*
X146622608Y-78331535D01*
X146623299Y-78438738D01*
X146623934Y-78572620D01*
X146624514Y-78731891D01*
X146625036Y-78915261D01*
X146625498Y-79121440D01*
X146625900Y-79349137D01*
X146626240Y-79597062D01*
X146626516Y-79863926D01*
X146626727Y-80148437D01*
X146626872Y-80449305D01*
X146626948Y-80765241D01*
X146626955Y-81094954D01*
X146626890Y-81437154D01*
X146626753Y-81790550D01*
X146626543Y-82153853D01*
X146626256Y-82525772D01*
X146625893Y-82905017D01*
X146621079Y-87478912D01*
X146361252Y-87640575D01*
X146284870Y-87688077D01*
X146192443Y-87745504D01*
X146105297Y-87799598D01*
X146030582Y-87845920D01*
X145975450Y-87880031D01*
X145972523Y-87881839D01*
X145928112Y-87909275D01*
X145861123Y-87950672D01*
X145775397Y-88003655D01*
X145674775Y-88065850D01*
X145563099Y-88134883D01*
X145444209Y-88208380D01*
X145321947Y-88283966D01*
X145209812Y-88353279D01*
X145075956Y-88435991D01*
X144942922Y-88518165D01*
X144815904Y-88596597D01*
X144700093Y-88668079D01*
X144600681Y-88729406D01*
X144522861Y-88777372D01*
X144504004Y-88789006D01*
X144423714Y-88838988D01*
X144354295Y-88882913D01*
X144299751Y-88918197D01*
X144264089Y-88942258D01*
X144251314Y-88952511D01*
X144257502Y-88957638D01*
X144287067Y-88977662D01*
X144338208Y-89010807D01*
X144407803Y-89055088D01*
X144492730Y-89108525D01*
X144589867Y-89169134D01*
X144696090Y-89234933D01*
X144732972Y-89257702D01*
X144853833Y-89332341D01*
X144975639Y-89407597D01*
X145092840Y-89480041D01*
X145199886Y-89546240D01*
X145291227Y-89602766D01*
X145361314Y-89646185D01*
X145410141Y-89676432D01*
X145493741Y-89728146D01*
X145595478Y-89791023D01*
X145710447Y-89862033D01*
X145833741Y-89938145D01*
X145960454Y-90016328D01*
X146085679Y-90093554D01*
X146095486Y-90099603D01*
X146209307Y-90170168D01*
X146314811Y-90236224D01*
X146408905Y-90295787D01*
X146488496Y-90346872D01*
X146550489Y-90387494D01*
X146591791Y-90415670D01*
X146609309Y-90429416D01*
X146610187Y-90431453D01*
X146613606Y-90458264D01*
X146616703Y-90512699D01*
X146619480Y-90592071D01*
X146621937Y-90693692D01*
X146624074Y-90814877D01*
X146625893Y-90952938D01*
X146627393Y-91105187D01*
X146628576Y-91268937D01*
X146629442Y-91441502D01*
X146629992Y-91620194D01*
X146630226Y-91802326D01*
X146630145Y-91985211D01*
X146629750Y-92166162D01*
X146629040Y-92342492D01*
X146628018Y-92511513D01*
X146626683Y-92670538D01*
X146625037Y-92816881D01*
X146623079Y-92947854D01*
X146620811Y-93060770D01*
X146618232Y-93152942D01*
X146615344Y-93221683D01*
X146612148Y-93264305D01*
X146608643Y-93278122D01*
X146606807Y-93277157D01*
X146583797Y-93263394D01*
X146536741Y-93234528D01*
X146467704Y-93191845D01*
X146378751Y-93136630D01*
X146271946Y-93070169D01*
X146149355Y-92993747D01*
X146013040Y-92908650D01*
X145948916Y-92868571D01*
X145865067Y-92816164D01*
X145707501Y-92717574D01*
G37*
G36*
X134755673Y-92937500D02*
G01*
X135068250Y-92937500D01*
X135068250Y-92625000D01*
X135380827Y-92625000D01*
X135380827Y-92937500D01*
X135693404Y-92937500D01*
X135693404Y-92312500D01*
X136005981Y-92312500D01*
X136005981Y-93250000D01*
X134443096Y-93250000D01*
X134443096Y-92312500D01*
X134755673Y-92312500D01*
X134755673Y-92937500D01*
G37*
G36*
X135380827Y-95437500D02*
G01*
X135693404Y-95437500D01*
X135693404Y-94812500D01*
X136005981Y-94812500D01*
X136005981Y-95750000D01*
X135068250Y-95750000D01*
X135068250Y-95125000D01*
X134755673Y-95125000D01*
X134755673Y-95750000D01*
X134443096Y-95750000D01*
X134443096Y-94812500D01*
X135380827Y-94812500D01*
X135380827Y-95437500D01*
G37*
G36*
X134755673Y-93875000D02*
G01*
X134443096Y-93875000D01*
X134443096Y-93562500D01*
X134755673Y-93562500D01*
X134755673Y-93875000D01*
G37*
G36*
X136005981Y-89187500D02*
G01*
X135068250Y-89187500D01*
X135068250Y-88875000D01*
X136005981Y-88875000D01*
X136005981Y-89187500D01*
G37*
G36*
X135693404Y-90437500D02*
G01*
X136005981Y-90437500D01*
X136005981Y-90750000D01*
X134443096Y-90750000D01*
X134443096Y-90437500D01*
X135380827Y-90437500D01*
X135380827Y-90125000D01*
X135693404Y-90125000D01*
X135693404Y-90437500D01*
G37*
G36*
X136005981Y-89812500D02*
G01*
X135380827Y-89812500D01*
X135380827Y-90125000D01*
X135068250Y-90125000D01*
X135068250Y-89812500D01*
X134443096Y-89812500D01*
X134443096Y-89500000D01*
X136005981Y-89500000D01*
X136005981Y-89812500D01*
G37*
G36*
X134755673Y-89187500D02*
G01*
X134443096Y-89187500D01*
X134443096Y-88875000D01*
X134755673Y-88875000D01*
X134755673Y-89187500D01*
G37*
G36*
X138194020Y-96687500D02*
G01*
X137881443Y-96687500D01*
X137881443Y-97000000D01*
X137568866Y-97000000D01*
X137568866Y-98250000D01*
X137256289Y-98250000D01*
X137256289Y-100437500D01*
X136943711Y-100437500D01*
X136943711Y-100125000D01*
X136631135Y-100125000D01*
X136631135Y-97937500D01*
X136943711Y-97937500D01*
X136943711Y-96687500D01*
X137256289Y-96687500D01*
X137256289Y-96062500D01*
X137568866Y-96062500D01*
X137568866Y-95750000D01*
X138194020Y-95750000D01*
X138194020Y-96687500D01*
G37*
G36*
X139756904Y-97000000D02*
G01*
X140069481Y-97000000D01*
X140069481Y-98875000D01*
X139756904Y-98875000D01*
X139756904Y-99812500D01*
X139444327Y-99812500D01*
X139444327Y-100125000D01*
X139131750Y-100125000D01*
X139131750Y-98562500D01*
X139444327Y-98562500D01*
X139444327Y-96375000D01*
X139756904Y-96375000D01*
X139756904Y-97000000D01*
G37*
G36*
X134755673Y-91687500D02*
G01*
X135068250Y-91687500D01*
X135068250Y-91375000D01*
X135380827Y-91375000D01*
X135380827Y-91687500D01*
X135693404Y-91687500D01*
X135693404Y-91062500D01*
X136005981Y-91062500D01*
X136005981Y-92000000D01*
X134443096Y-92000000D01*
X134443096Y-91062500D01*
X134755673Y-91062500D01*
X134755673Y-91687500D01*
G37*
G36*
X136005981Y-94500000D02*
G01*
X134443096Y-94500000D01*
X134443096Y-94187500D01*
X134755673Y-94187500D01*
X134755673Y-93875000D01*
X135068250Y-93875000D01*
X135068250Y-93562500D01*
X135693404Y-93562500D01*
X135693404Y-93875000D01*
X135068250Y-93875000D01*
X135068250Y-94187500D01*
X135693404Y-94187500D01*
X135693404Y-93875000D01*
X136005981Y-93875000D01*
X136005981Y-94500000D01*
G37*
%TD*%
M02*
