%TF.GenerationSoftware,KiCad,Pcbnew,7.0.10*%
%TF.CreationDate,2024-02-20T17:27:16-06:00*%
%TF.ProjectId,ElectriPi,456c6563-7472-4695-9069-2e6b69636164,rev?*%
%TF.SameCoordinates,PX514cfd0PY32c87d0*%
%TF.FileFunction,Legend,Bot*%
%TF.FilePolarity,Positive*%
%FSLAX46Y46*%
G04 Gerber Fmt 4.6, Leading zero omitted, Abs format (unit mm)*
G04 Created by KiCad (PCBNEW 7.0.10) date 2024-02-20 17:27:16*
%MOMM*%
%LPD*%
G01*
G04 APERTURE LIST*
%ADD10C,0.150000*%
%ADD11C,0.120000*%
G04 APERTURE END LIST*
D10*
X59123990Y-39804761D02*
X59123990Y-39471428D01*
X58600180Y-39328571D02*
X58600180Y-39804761D01*
X58600180Y-39804761D02*
X59600180Y-39804761D01*
X59600180Y-39804761D02*
X59600180Y-39328571D01*
X58600180Y-38757142D02*
X58647800Y-38852380D01*
X58647800Y-38852380D02*
X58743038Y-38899999D01*
X58743038Y-38899999D02*
X59600180Y-38899999D01*
X58647800Y-37995237D02*
X58600180Y-38090475D01*
X58600180Y-38090475D02*
X58600180Y-38280951D01*
X58600180Y-38280951D02*
X58647800Y-38376189D01*
X58647800Y-38376189D02*
X58743038Y-38423808D01*
X58743038Y-38423808D02*
X59123990Y-38423808D01*
X59123990Y-38423808D02*
X59219228Y-38376189D01*
X59219228Y-38376189D02*
X59266847Y-38280951D01*
X59266847Y-38280951D02*
X59266847Y-38090475D01*
X59266847Y-38090475D02*
X59219228Y-37995237D01*
X59219228Y-37995237D02*
X59123990Y-37947618D01*
X59123990Y-37947618D02*
X59028752Y-37947618D01*
X59028752Y-37947618D02*
X58933514Y-38423808D01*
X58647800Y-37090475D02*
X58600180Y-37185713D01*
X58600180Y-37185713D02*
X58600180Y-37376189D01*
X58600180Y-37376189D02*
X58647800Y-37471427D01*
X58647800Y-37471427D02*
X58695419Y-37519046D01*
X58695419Y-37519046D02*
X58790657Y-37566665D01*
X58790657Y-37566665D02*
X59076371Y-37566665D01*
X59076371Y-37566665D02*
X59171609Y-37519046D01*
X59171609Y-37519046D02*
X59219228Y-37471427D01*
X59219228Y-37471427D02*
X59266847Y-37376189D01*
X59266847Y-37376189D02*
X59266847Y-37185713D01*
X59266847Y-37185713D02*
X59219228Y-37090475D01*
X59266847Y-36804760D02*
X59266847Y-36423808D01*
X59600180Y-36661903D02*
X58743038Y-36661903D01*
X58743038Y-36661903D02*
X58647800Y-36614284D01*
X58647800Y-36614284D02*
X58600180Y-36519046D01*
X58600180Y-36519046D02*
X58600180Y-36423808D01*
X58600180Y-36090474D02*
X59266847Y-36090474D01*
X59076371Y-36090474D02*
X59171609Y-36042855D01*
X59171609Y-36042855D02*
X59219228Y-35995236D01*
X59219228Y-35995236D02*
X59266847Y-35899998D01*
X59266847Y-35899998D02*
X59266847Y-35804760D01*
X58600180Y-35471426D02*
X59266847Y-35471426D01*
X59600180Y-35471426D02*
X59552561Y-35519045D01*
X59552561Y-35519045D02*
X59504942Y-35471426D01*
X59504942Y-35471426D02*
X59552561Y-35423807D01*
X59552561Y-35423807D02*
X59600180Y-35471426D01*
X59600180Y-35471426D02*
X59504942Y-35471426D01*
X58600180Y-34995236D02*
X59600180Y-34995236D01*
X59600180Y-34995236D02*
X59600180Y-34614284D01*
X59600180Y-34614284D02*
X59552561Y-34519046D01*
X59552561Y-34519046D02*
X59504942Y-34471427D01*
X59504942Y-34471427D02*
X59409704Y-34423808D01*
X59409704Y-34423808D02*
X59266847Y-34423808D01*
X59266847Y-34423808D02*
X59171609Y-34471427D01*
X59171609Y-34471427D02*
X59123990Y-34519046D01*
X59123990Y-34519046D02*
X59076371Y-34614284D01*
X59076371Y-34614284D02*
X59076371Y-34995236D01*
X58600180Y-33995236D02*
X59266847Y-33995236D01*
X59600180Y-33995236D02*
X59552561Y-34042855D01*
X59552561Y-34042855D02*
X59504942Y-33995236D01*
X59504942Y-33995236D02*
X59552561Y-33947617D01*
X59552561Y-33947617D02*
X59600180Y-33995236D01*
X59600180Y-33995236D02*
X59504942Y-33995236D01*
X56990180Y-41566667D02*
X57990180Y-41566667D01*
X57609228Y-41566667D02*
X57656847Y-41471429D01*
X57656847Y-41471429D02*
X57656847Y-41280953D01*
X57656847Y-41280953D02*
X57609228Y-41185715D01*
X57609228Y-41185715D02*
X57561609Y-41138096D01*
X57561609Y-41138096D02*
X57466371Y-41090477D01*
X57466371Y-41090477D02*
X57180657Y-41090477D01*
X57180657Y-41090477D02*
X57085419Y-41138096D01*
X57085419Y-41138096D02*
X57037800Y-41185715D01*
X57037800Y-41185715D02*
X56990180Y-41280953D01*
X56990180Y-41280953D02*
X56990180Y-41471429D01*
X56990180Y-41471429D02*
X57037800Y-41566667D01*
X57656847Y-40757143D02*
X56990180Y-40519048D01*
X57656847Y-40280953D02*
X56990180Y-40519048D01*
X56990180Y-40519048D02*
X56752085Y-40614286D01*
X56752085Y-40614286D02*
X56704466Y-40661905D01*
X56704466Y-40661905D02*
X56656847Y-40757143D01*
X57990180Y-39280952D02*
X56990180Y-38947619D01*
X56990180Y-38947619D02*
X57990180Y-38614286D01*
X57037800Y-37900000D02*
X56990180Y-37995238D01*
X56990180Y-37995238D02*
X56990180Y-38185714D01*
X56990180Y-38185714D02*
X57037800Y-38280952D01*
X57037800Y-38280952D02*
X57133038Y-38328571D01*
X57133038Y-38328571D02*
X57513990Y-38328571D01*
X57513990Y-38328571D02*
X57609228Y-38280952D01*
X57609228Y-38280952D02*
X57656847Y-38185714D01*
X57656847Y-38185714D02*
X57656847Y-37995238D01*
X57656847Y-37995238D02*
X57609228Y-37900000D01*
X57609228Y-37900000D02*
X57513990Y-37852381D01*
X57513990Y-37852381D02*
X57418752Y-37852381D01*
X57418752Y-37852381D02*
X57323514Y-38328571D01*
X57037800Y-36995238D02*
X56990180Y-37090476D01*
X56990180Y-37090476D02*
X56990180Y-37280952D01*
X56990180Y-37280952D02*
X57037800Y-37376190D01*
X57037800Y-37376190D02*
X57085419Y-37423809D01*
X57085419Y-37423809D02*
X57180657Y-37471428D01*
X57180657Y-37471428D02*
X57466371Y-37471428D01*
X57466371Y-37471428D02*
X57561609Y-37423809D01*
X57561609Y-37423809D02*
X57609228Y-37376190D01*
X57609228Y-37376190D02*
X57656847Y-37280952D01*
X57656847Y-37280952D02*
X57656847Y-37090476D01*
X57656847Y-37090476D02*
X57609228Y-36995238D01*
X57656847Y-36709523D02*
X57656847Y-36328571D01*
X57990180Y-36566666D02*
X57133038Y-36566666D01*
X57133038Y-36566666D02*
X57037800Y-36519047D01*
X57037800Y-36519047D02*
X56990180Y-36423809D01*
X56990180Y-36423809D02*
X56990180Y-36328571D01*
X56990180Y-35852380D02*
X57037800Y-35947618D01*
X57037800Y-35947618D02*
X57085419Y-35995237D01*
X57085419Y-35995237D02*
X57180657Y-36042856D01*
X57180657Y-36042856D02*
X57466371Y-36042856D01*
X57466371Y-36042856D02*
X57561609Y-35995237D01*
X57561609Y-35995237D02*
X57609228Y-35947618D01*
X57609228Y-35947618D02*
X57656847Y-35852380D01*
X57656847Y-35852380D02*
X57656847Y-35709523D01*
X57656847Y-35709523D02*
X57609228Y-35614285D01*
X57609228Y-35614285D02*
X57561609Y-35566666D01*
X57561609Y-35566666D02*
X57466371Y-35519047D01*
X57466371Y-35519047D02*
X57180657Y-35519047D01*
X57180657Y-35519047D02*
X57085419Y-35566666D01*
X57085419Y-35566666D02*
X57037800Y-35614285D01*
X57037800Y-35614285D02*
X56990180Y-35709523D01*
X56990180Y-35709523D02*
X56990180Y-35852380D01*
X56990180Y-35090475D02*
X57656847Y-35090475D01*
X57466371Y-35090475D02*
X57561609Y-35042856D01*
X57561609Y-35042856D02*
X57609228Y-34995237D01*
X57609228Y-34995237D02*
X57656847Y-34899999D01*
X57656847Y-34899999D02*
X57656847Y-34804761D01*
X57990180Y-33804760D02*
X57990180Y-33185713D01*
X57990180Y-33185713D02*
X57609228Y-33519046D01*
X57609228Y-33519046D02*
X57609228Y-33376189D01*
X57609228Y-33376189D02*
X57561609Y-33280951D01*
X57561609Y-33280951D02*
X57513990Y-33233332D01*
X57513990Y-33233332D02*
X57418752Y-33185713D01*
X57418752Y-33185713D02*
X57180657Y-33185713D01*
X57180657Y-33185713D02*
X57085419Y-33233332D01*
X57085419Y-33233332D02*
X57037800Y-33280951D01*
X57037800Y-33280951D02*
X56990180Y-33376189D01*
X56990180Y-33376189D02*
X56990180Y-33661903D01*
X56990180Y-33661903D02*
X57037800Y-33757141D01*
X57037800Y-33757141D02*
X57085419Y-33804760D01*
X56990180Y-32757141D02*
X57990180Y-32757141D01*
X57990180Y-32757141D02*
X57990180Y-32519046D01*
X57990180Y-32519046D02*
X57942561Y-32376189D01*
X57942561Y-32376189D02*
X57847323Y-32280951D01*
X57847323Y-32280951D02*
X57752085Y-32233332D01*
X57752085Y-32233332D02*
X57561609Y-32185713D01*
X57561609Y-32185713D02*
X57418752Y-32185713D01*
X57418752Y-32185713D02*
X57228276Y-32233332D01*
X57228276Y-32233332D02*
X57133038Y-32280951D01*
X57133038Y-32280951D02*
X57037800Y-32376189D01*
X57037800Y-32376189D02*
X56990180Y-32519046D01*
X56990180Y-32519046D02*
X56990180Y-32757141D01*
X63755533Y-8598095D02*
X63755533Y-10121905D01*
X43295180Y-45773808D02*
X42295180Y-45440475D01*
X42295180Y-45440475D02*
X43295180Y-45107142D01*
X43199942Y-44821427D02*
X43247561Y-44773808D01*
X43247561Y-44773808D02*
X43295180Y-44678570D01*
X43295180Y-44678570D02*
X43295180Y-44440475D01*
X43295180Y-44440475D02*
X43247561Y-44345237D01*
X43247561Y-44345237D02*
X43199942Y-44297618D01*
X43199942Y-44297618D02*
X43104704Y-44249999D01*
X43104704Y-44249999D02*
X43009466Y-44249999D01*
X43009466Y-44249999D02*
X42866609Y-44297618D01*
X42866609Y-44297618D02*
X42295180Y-44869046D01*
X42295180Y-44869046D02*
X42295180Y-44249999D01*
X42390419Y-43821427D02*
X42342800Y-43773808D01*
X42342800Y-43773808D02*
X42295180Y-43821427D01*
X42295180Y-43821427D02*
X42342800Y-43869046D01*
X42342800Y-43869046D02*
X42390419Y-43821427D01*
X42390419Y-43821427D02*
X42295180Y-43821427D01*
X43295180Y-43154761D02*
X43295180Y-43059523D01*
X43295180Y-43059523D02*
X43247561Y-42964285D01*
X43247561Y-42964285D02*
X43199942Y-42916666D01*
X43199942Y-42916666D02*
X43104704Y-42869047D01*
X43104704Y-42869047D02*
X42914228Y-42821428D01*
X42914228Y-42821428D02*
X42676133Y-42821428D01*
X42676133Y-42821428D02*
X42485657Y-42869047D01*
X42485657Y-42869047D02*
X42390419Y-42916666D01*
X42390419Y-42916666D02*
X42342800Y-42964285D01*
X42342800Y-42964285D02*
X42295180Y-43059523D01*
X42295180Y-43059523D02*
X42295180Y-43154761D01*
X42295180Y-43154761D02*
X42342800Y-43249999D01*
X42342800Y-43249999D02*
X42390419Y-43297618D01*
X42390419Y-43297618D02*
X42485657Y-43345237D01*
X42485657Y-43345237D02*
X42676133Y-43392856D01*
X42676133Y-43392856D02*
X42914228Y-43392856D01*
X42914228Y-43392856D02*
X43104704Y-43345237D01*
X43104704Y-43345237D02*
X43199942Y-43297618D01*
X43199942Y-43297618D02*
X43247561Y-43249999D01*
X43247561Y-43249999D02*
X43295180Y-43154761D01*
X46761904Y-13405533D02*
X45238095Y-13405533D01*
X45999999Y-14167438D02*
X45999999Y-12643628D01*
X48045180Y-15940476D02*
X48045180Y-16416666D01*
X48045180Y-16416666D02*
X47568990Y-16464285D01*
X47568990Y-16464285D02*
X47616609Y-16416666D01*
X47616609Y-16416666D02*
X47664228Y-16321428D01*
X47664228Y-16321428D02*
X47664228Y-16083333D01*
X47664228Y-16083333D02*
X47616609Y-15988095D01*
X47616609Y-15988095D02*
X47568990Y-15940476D01*
X47568990Y-15940476D02*
X47473752Y-15892857D01*
X47473752Y-15892857D02*
X47235657Y-15892857D01*
X47235657Y-15892857D02*
X47140419Y-15940476D01*
X47140419Y-15940476D02*
X47092800Y-15988095D01*
X47092800Y-15988095D02*
X47045180Y-16083333D01*
X47045180Y-16083333D02*
X47045180Y-16321428D01*
X47045180Y-16321428D02*
X47092800Y-16416666D01*
X47092800Y-16416666D02*
X47140419Y-16464285D01*
X48045180Y-15607142D02*
X47045180Y-15273809D01*
X47045180Y-15273809D02*
X48045180Y-14940476D01*
X12801904Y-54255533D02*
X11278095Y-54255533D01*
X12039999Y-55017438D02*
X12039999Y-53493628D01*
X17801904Y-54255533D02*
X16278095Y-54255533D01*
X63755533Y-13598095D02*
X63755533Y-15121905D01*
X64517438Y-14360000D02*
X62993628Y-14360000D01*
X50545180Y-16583332D02*
X49545180Y-16249999D01*
X49545180Y-16249999D02*
X50545180Y-15916666D01*
X49640419Y-15011904D02*
X49592800Y-15059523D01*
X49592800Y-15059523D02*
X49545180Y-15202380D01*
X49545180Y-15202380D02*
X49545180Y-15297618D01*
X49545180Y-15297618D02*
X49592800Y-15440475D01*
X49592800Y-15440475D02*
X49688038Y-15535713D01*
X49688038Y-15535713D02*
X49783276Y-15583332D01*
X49783276Y-15583332D02*
X49973752Y-15630951D01*
X49973752Y-15630951D02*
X50116609Y-15630951D01*
X50116609Y-15630951D02*
X50307085Y-15583332D01*
X50307085Y-15583332D02*
X50402323Y-15535713D01*
X50402323Y-15535713D02*
X50497561Y-15440475D01*
X50497561Y-15440475D02*
X50545180Y-15297618D01*
X50545180Y-15297618D02*
X50545180Y-15202380D01*
X50545180Y-15202380D02*
X50497561Y-15059523D01*
X50497561Y-15059523D02*
X50449942Y-15011904D01*
X49640419Y-14011904D02*
X49592800Y-14059523D01*
X49592800Y-14059523D02*
X49545180Y-14202380D01*
X49545180Y-14202380D02*
X49545180Y-14297618D01*
X49545180Y-14297618D02*
X49592800Y-14440475D01*
X49592800Y-14440475D02*
X49688038Y-14535713D01*
X49688038Y-14535713D02*
X49783276Y-14583332D01*
X49783276Y-14583332D02*
X49973752Y-14630951D01*
X49973752Y-14630951D02*
X50116609Y-14630951D01*
X50116609Y-14630951D02*
X50307085Y-14583332D01*
X50307085Y-14583332D02*
X50402323Y-14535713D01*
X50402323Y-14535713D02*
X50497561Y-14440475D01*
X50497561Y-14440475D02*
X50545180Y-14297618D01*
X50545180Y-14297618D02*
X50545180Y-14202380D01*
X50545180Y-14202380D02*
X50497561Y-14059523D01*
X50497561Y-14059523D02*
X50449942Y-14011904D01*
X44261904Y-13405533D02*
X42738095Y-13405533D01*
X44100180Y-32083333D02*
X45100180Y-32083333D01*
X45100180Y-32083333D02*
X45100180Y-31845238D01*
X45100180Y-31845238D02*
X45052561Y-31702381D01*
X45052561Y-31702381D02*
X44957323Y-31607143D01*
X44957323Y-31607143D02*
X44862085Y-31559524D01*
X44862085Y-31559524D02*
X44671609Y-31511905D01*
X44671609Y-31511905D02*
X44528752Y-31511905D01*
X44528752Y-31511905D02*
X44338276Y-31559524D01*
X44338276Y-31559524D02*
X44243038Y-31607143D01*
X44243038Y-31607143D02*
X44147800Y-31702381D01*
X44147800Y-31702381D02*
X44100180Y-31845238D01*
X44100180Y-31845238D02*
X44100180Y-32083333D01*
X44147800Y-30702381D02*
X44100180Y-30797619D01*
X44100180Y-30797619D02*
X44100180Y-30988095D01*
X44100180Y-30988095D02*
X44147800Y-31083333D01*
X44147800Y-31083333D02*
X44243038Y-31130952D01*
X44243038Y-31130952D02*
X44623990Y-31130952D01*
X44623990Y-31130952D02*
X44719228Y-31083333D01*
X44719228Y-31083333D02*
X44766847Y-30988095D01*
X44766847Y-30988095D02*
X44766847Y-30797619D01*
X44766847Y-30797619D02*
X44719228Y-30702381D01*
X44719228Y-30702381D02*
X44623990Y-30654762D01*
X44623990Y-30654762D02*
X44528752Y-30654762D01*
X44528752Y-30654762D02*
X44433514Y-31130952D01*
X44147800Y-30273809D02*
X44100180Y-30178571D01*
X44100180Y-30178571D02*
X44100180Y-29988095D01*
X44100180Y-29988095D02*
X44147800Y-29892857D01*
X44147800Y-29892857D02*
X44243038Y-29845238D01*
X44243038Y-29845238D02*
X44290657Y-29845238D01*
X44290657Y-29845238D02*
X44385895Y-29892857D01*
X44385895Y-29892857D02*
X44433514Y-29988095D01*
X44433514Y-29988095D02*
X44433514Y-30130952D01*
X44433514Y-30130952D02*
X44481133Y-30226190D01*
X44481133Y-30226190D02*
X44576371Y-30273809D01*
X44576371Y-30273809D02*
X44623990Y-30273809D01*
X44623990Y-30273809D02*
X44719228Y-30226190D01*
X44719228Y-30226190D02*
X44766847Y-30130952D01*
X44766847Y-30130952D02*
X44766847Y-29988095D01*
X44766847Y-29988095D02*
X44719228Y-29892857D01*
X44100180Y-29416666D02*
X44766847Y-29416666D01*
X45100180Y-29416666D02*
X45052561Y-29464285D01*
X45052561Y-29464285D02*
X45004942Y-29416666D01*
X45004942Y-29416666D02*
X45052561Y-29369047D01*
X45052561Y-29369047D02*
X45100180Y-29416666D01*
X45100180Y-29416666D02*
X45004942Y-29416666D01*
X44766847Y-28511905D02*
X43957323Y-28511905D01*
X43957323Y-28511905D02*
X43862085Y-28559524D01*
X43862085Y-28559524D02*
X43814466Y-28607143D01*
X43814466Y-28607143D02*
X43766847Y-28702381D01*
X43766847Y-28702381D02*
X43766847Y-28845238D01*
X43766847Y-28845238D02*
X43814466Y-28940476D01*
X44147800Y-28511905D02*
X44100180Y-28607143D01*
X44100180Y-28607143D02*
X44100180Y-28797619D01*
X44100180Y-28797619D02*
X44147800Y-28892857D01*
X44147800Y-28892857D02*
X44195419Y-28940476D01*
X44195419Y-28940476D02*
X44290657Y-28988095D01*
X44290657Y-28988095D02*
X44576371Y-28988095D01*
X44576371Y-28988095D02*
X44671609Y-28940476D01*
X44671609Y-28940476D02*
X44719228Y-28892857D01*
X44719228Y-28892857D02*
X44766847Y-28797619D01*
X44766847Y-28797619D02*
X44766847Y-28607143D01*
X44766847Y-28607143D02*
X44719228Y-28511905D01*
X44766847Y-28035714D02*
X44100180Y-28035714D01*
X44671609Y-28035714D02*
X44719228Y-27988095D01*
X44719228Y-27988095D02*
X44766847Y-27892857D01*
X44766847Y-27892857D02*
X44766847Y-27750000D01*
X44766847Y-27750000D02*
X44719228Y-27654762D01*
X44719228Y-27654762D02*
X44623990Y-27607143D01*
X44623990Y-27607143D02*
X44100180Y-27607143D01*
X44147800Y-26750000D02*
X44100180Y-26845238D01*
X44100180Y-26845238D02*
X44100180Y-27035714D01*
X44100180Y-27035714D02*
X44147800Y-27130952D01*
X44147800Y-27130952D02*
X44243038Y-27178571D01*
X44243038Y-27178571D02*
X44623990Y-27178571D01*
X44623990Y-27178571D02*
X44719228Y-27130952D01*
X44719228Y-27130952D02*
X44766847Y-27035714D01*
X44766847Y-27035714D02*
X44766847Y-26845238D01*
X44766847Y-26845238D02*
X44719228Y-26750000D01*
X44719228Y-26750000D02*
X44623990Y-26702381D01*
X44623990Y-26702381D02*
X44528752Y-26702381D01*
X44528752Y-26702381D02*
X44433514Y-27178571D01*
X44100180Y-25845238D02*
X45100180Y-25845238D01*
X44147800Y-25845238D02*
X44100180Y-25940476D01*
X44100180Y-25940476D02*
X44100180Y-26130952D01*
X44100180Y-26130952D02*
X44147800Y-26226190D01*
X44147800Y-26226190D02*
X44195419Y-26273809D01*
X44195419Y-26273809D02*
X44290657Y-26321428D01*
X44290657Y-26321428D02*
X44576371Y-26321428D01*
X44576371Y-26321428D02*
X44671609Y-26273809D01*
X44671609Y-26273809D02*
X44719228Y-26226190D01*
X44719228Y-26226190D02*
X44766847Y-26130952D01*
X44766847Y-26130952D02*
X44766847Y-25940476D01*
X44766847Y-25940476D02*
X44719228Y-25845238D01*
X44100180Y-24607142D02*
X45100180Y-24607142D01*
X44719228Y-24607142D02*
X44766847Y-24511904D01*
X44766847Y-24511904D02*
X44766847Y-24321428D01*
X44766847Y-24321428D02*
X44719228Y-24226190D01*
X44719228Y-24226190D02*
X44671609Y-24178571D01*
X44671609Y-24178571D02*
X44576371Y-24130952D01*
X44576371Y-24130952D02*
X44290657Y-24130952D01*
X44290657Y-24130952D02*
X44195419Y-24178571D01*
X44195419Y-24178571D02*
X44147800Y-24226190D01*
X44147800Y-24226190D02*
X44100180Y-24321428D01*
X44100180Y-24321428D02*
X44100180Y-24511904D01*
X44100180Y-24511904D02*
X44147800Y-24607142D01*
X44766847Y-23797618D02*
X44100180Y-23559523D01*
X44766847Y-23321428D02*
X44100180Y-23559523D01*
X44100180Y-23559523D02*
X43862085Y-23654761D01*
X43862085Y-23654761D02*
X43814466Y-23702380D01*
X43814466Y-23702380D02*
X43766847Y-23797618D01*
X42537800Y-34083333D02*
X42490180Y-33940476D01*
X42490180Y-33940476D02*
X42490180Y-33702381D01*
X42490180Y-33702381D02*
X42537800Y-33607143D01*
X42537800Y-33607143D02*
X42585419Y-33559524D01*
X42585419Y-33559524D02*
X42680657Y-33511905D01*
X42680657Y-33511905D02*
X42775895Y-33511905D01*
X42775895Y-33511905D02*
X42871133Y-33559524D01*
X42871133Y-33559524D02*
X42918752Y-33607143D01*
X42918752Y-33607143D02*
X42966371Y-33702381D01*
X42966371Y-33702381D02*
X43013990Y-33892857D01*
X43013990Y-33892857D02*
X43061609Y-33988095D01*
X43061609Y-33988095D02*
X43109228Y-34035714D01*
X43109228Y-34035714D02*
X43204466Y-34083333D01*
X43204466Y-34083333D02*
X43299704Y-34083333D01*
X43299704Y-34083333D02*
X43394942Y-34035714D01*
X43394942Y-34035714D02*
X43442561Y-33988095D01*
X43442561Y-33988095D02*
X43490180Y-33892857D01*
X43490180Y-33892857D02*
X43490180Y-33654762D01*
X43490180Y-33654762D02*
X43442561Y-33511905D01*
X42490180Y-33083333D02*
X43156847Y-33083333D01*
X42966371Y-33083333D02*
X43061609Y-33035714D01*
X43061609Y-33035714D02*
X43109228Y-32988095D01*
X43109228Y-32988095D02*
X43156847Y-32892857D01*
X43156847Y-32892857D02*
X43156847Y-32797619D01*
X42537800Y-32083333D02*
X42490180Y-32178571D01*
X42490180Y-32178571D02*
X42490180Y-32369047D01*
X42490180Y-32369047D02*
X42537800Y-32464285D01*
X42537800Y-32464285D02*
X42633038Y-32511904D01*
X42633038Y-32511904D02*
X43013990Y-32511904D01*
X43013990Y-32511904D02*
X43109228Y-32464285D01*
X43109228Y-32464285D02*
X43156847Y-32369047D01*
X43156847Y-32369047D02*
X43156847Y-32178571D01*
X43156847Y-32178571D02*
X43109228Y-32083333D01*
X43109228Y-32083333D02*
X43013990Y-32035714D01*
X43013990Y-32035714D02*
X42918752Y-32035714D01*
X42918752Y-32035714D02*
X42823514Y-32511904D01*
X42537800Y-31226190D02*
X42490180Y-31321428D01*
X42490180Y-31321428D02*
X42490180Y-31511904D01*
X42490180Y-31511904D02*
X42537800Y-31607142D01*
X42537800Y-31607142D02*
X42633038Y-31654761D01*
X42633038Y-31654761D02*
X43013990Y-31654761D01*
X43013990Y-31654761D02*
X43109228Y-31607142D01*
X43109228Y-31607142D02*
X43156847Y-31511904D01*
X43156847Y-31511904D02*
X43156847Y-31321428D01*
X43156847Y-31321428D02*
X43109228Y-31226190D01*
X43109228Y-31226190D02*
X43013990Y-31178571D01*
X43013990Y-31178571D02*
X42918752Y-31178571D01*
X42918752Y-31178571D02*
X42823514Y-31654761D01*
X43156847Y-30749999D02*
X42490180Y-30749999D01*
X43061609Y-30749999D02*
X43109228Y-30702380D01*
X43109228Y-30702380D02*
X43156847Y-30607142D01*
X43156847Y-30607142D02*
X43156847Y-30464285D01*
X43156847Y-30464285D02*
X43109228Y-30369047D01*
X43109228Y-30369047D02*
X43013990Y-30321428D01*
X43013990Y-30321428D02*
X42490180Y-30321428D01*
X42490180Y-29845237D02*
X43156847Y-29845237D01*
X43490180Y-29845237D02*
X43442561Y-29892856D01*
X43442561Y-29892856D02*
X43394942Y-29845237D01*
X43394942Y-29845237D02*
X43442561Y-29797618D01*
X43442561Y-29797618D02*
X43490180Y-29845237D01*
X43490180Y-29845237D02*
X43394942Y-29845237D01*
X43156847Y-29464285D02*
X42490180Y-29226190D01*
X42490180Y-29226190D02*
X43156847Y-28988095D01*
X42490180Y-28178571D02*
X43013990Y-28178571D01*
X43013990Y-28178571D02*
X43109228Y-28226190D01*
X43109228Y-28226190D02*
X43156847Y-28321428D01*
X43156847Y-28321428D02*
X43156847Y-28511904D01*
X43156847Y-28511904D02*
X43109228Y-28607142D01*
X42537800Y-28178571D02*
X42490180Y-28273809D01*
X42490180Y-28273809D02*
X42490180Y-28511904D01*
X42490180Y-28511904D02*
X42537800Y-28607142D01*
X42537800Y-28607142D02*
X42633038Y-28654761D01*
X42633038Y-28654761D02*
X42728276Y-28654761D01*
X42728276Y-28654761D02*
X42823514Y-28607142D01*
X42823514Y-28607142D02*
X42871133Y-28511904D01*
X42871133Y-28511904D02*
X42871133Y-28273809D01*
X42871133Y-28273809D02*
X42918752Y-28178571D01*
X42537800Y-27749999D02*
X42490180Y-27654761D01*
X42490180Y-27654761D02*
X42490180Y-27464285D01*
X42490180Y-27464285D02*
X42537800Y-27369047D01*
X42537800Y-27369047D02*
X42633038Y-27321428D01*
X42633038Y-27321428D02*
X42680657Y-27321428D01*
X42680657Y-27321428D02*
X42775895Y-27369047D01*
X42775895Y-27369047D02*
X42823514Y-27464285D01*
X42823514Y-27464285D02*
X42823514Y-27607142D01*
X42823514Y-27607142D02*
X42871133Y-27702380D01*
X42871133Y-27702380D02*
X42966371Y-27749999D01*
X42966371Y-27749999D02*
X43013990Y-27749999D01*
X43013990Y-27749999D02*
X43109228Y-27702380D01*
X43109228Y-27702380D02*
X43156847Y-27607142D01*
X43156847Y-27607142D02*
X43156847Y-27464285D01*
X43156847Y-27464285D02*
X43109228Y-27369047D01*
X43013990Y-26130951D02*
X43013990Y-25797618D01*
X42490180Y-25654761D02*
X42490180Y-26130951D01*
X42490180Y-26130951D02*
X43490180Y-26130951D01*
X43490180Y-26130951D02*
X43490180Y-25654761D01*
X42490180Y-24797618D02*
X43013990Y-24797618D01*
X43013990Y-24797618D02*
X43109228Y-24845237D01*
X43109228Y-24845237D02*
X43156847Y-24940475D01*
X43156847Y-24940475D02*
X43156847Y-25130951D01*
X43156847Y-25130951D02*
X43109228Y-25226189D01*
X42537800Y-24797618D02*
X42490180Y-24892856D01*
X42490180Y-24892856D02*
X42490180Y-25130951D01*
X42490180Y-25130951D02*
X42537800Y-25226189D01*
X42537800Y-25226189D02*
X42633038Y-25273808D01*
X42633038Y-25273808D02*
X42728276Y-25273808D01*
X42728276Y-25273808D02*
X42823514Y-25226189D01*
X42823514Y-25226189D02*
X42871133Y-25130951D01*
X42871133Y-25130951D02*
X42871133Y-24892856D01*
X42871133Y-24892856D02*
X42918752Y-24797618D01*
X42490180Y-23892856D02*
X43490180Y-23892856D01*
X42537800Y-23892856D02*
X42490180Y-23988094D01*
X42490180Y-23988094D02*
X42490180Y-24178570D01*
X42490180Y-24178570D02*
X42537800Y-24273808D01*
X42537800Y-24273808D02*
X42585419Y-24321427D01*
X42585419Y-24321427D02*
X42680657Y-24369046D01*
X42680657Y-24369046D02*
X42966371Y-24369046D01*
X42966371Y-24369046D02*
X43061609Y-24321427D01*
X43061609Y-24321427D02*
X43109228Y-24273808D01*
X43109228Y-24273808D02*
X43156847Y-24178570D01*
X43156847Y-24178570D02*
X43156847Y-23988094D01*
X43156847Y-23988094D02*
X43109228Y-23892856D01*
X42490180Y-22988094D02*
X43013990Y-22988094D01*
X43013990Y-22988094D02*
X43109228Y-23035713D01*
X43109228Y-23035713D02*
X43156847Y-23130951D01*
X43156847Y-23130951D02*
X43156847Y-23321427D01*
X43156847Y-23321427D02*
X43109228Y-23416665D01*
X42537800Y-22988094D02*
X42490180Y-23083332D01*
X42490180Y-23083332D02*
X42490180Y-23321427D01*
X42490180Y-23321427D02*
X42537800Y-23416665D01*
X42537800Y-23416665D02*
X42633038Y-23464284D01*
X42633038Y-23464284D02*
X42728276Y-23464284D01*
X42728276Y-23464284D02*
X42823514Y-23416665D01*
X42823514Y-23416665D02*
X42871133Y-23321427D01*
X42871133Y-23321427D02*
X42871133Y-23083332D01*
X42871133Y-23083332D02*
X42918752Y-22988094D01*
X42490180Y-22511903D02*
X43156847Y-22511903D01*
X42966371Y-22511903D02*
X43061609Y-22464284D01*
X43061609Y-22464284D02*
X43109228Y-22416665D01*
X43109228Y-22416665D02*
X43156847Y-22321427D01*
X43156847Y-22321427D02*
X43156847Y-22226189D01*
X42490180Y-21464284D02*
X43013990Y-21464284D01*
X43013990Y-21464284D02*
X43109228Y-21511903D01*
X43109228Y-21511903D02*
X43156847Y-21607141D01*
X43156847Y-21607141D02*
X43156847Y-21797617D01*
X43156847Y-21797617D02*
X43109228Y-21892855D01*
X42537800Y-21464284D02*
X42490180Y-21559522D01*
X42490180Y-21559522D02*
X42490180Y-21797617D01*
X42490180Y-21797617D02*
X42537800Y-21892855D01*
X42537800Y-21892855D02*
X42633038Y-21940474D01*
X42633038Y-21940474D02*
X42728276Y-21940474D01*
X42728276Y-21940474D02*
X42823514Y-21892855D01*
X42823514Y-21892855D02*
X42871133Y-21797617D01*
X42871133Y-21797617D02*
X42871133Y-21559522D01*
X42871133Y-21559522D02*
X42918752Y-21464284D01*
D11*
%TO.C,TP5*%
X45700000Y-8250000D02*
G75*
G03*
X43800000Y-8250000I-950000J0D01*
G01*
X43800000Y-8250000D02*
G75*
G03*
X45700000Y-8250000I950000J0D01*
G01*
%TO.C,J6*%
X57960000Y-900000D02*
X57960000Y-6100000D01*
X7040000Y-900000D02*
X57960000Y-900000D01*
X7040000Y-900000D02*
X7040000Y-3500000D01*
X9640000Y-3500000D02*
X9640000Y-6100000D01*
X7040000Y-3500000D02*
X9640000Y-3500000D01*
X7040000Y-4770000D02*
X7040000Y-6100000D01*
X9640000Y-6100000D02*
X57960000Y-6100000D01*
X7040000Y-6100000D02*
X8370000Y-6100000D01*
%TO.C,JP1*%
X49050000Y-19050000D02*
X49050000Y-18450000D01*
X48500000Y-20250000D02*
X47900000Y-20250000D01*
X48400000Y-17750000D02*
X45600000Y-17750000D01*
X48200000Y-19950000D02*
X48500000Y-20250000D01*
X48200000Y-19950000D02*
X47900000Y-20250000D01*
X45600000Y-19750000D02*
X48400000Y-19750000D01*
X44950000Y-18450000D02*
X44950000Y-19050000D01*
X48350000Y-19750000D02*
G75*
G03*
X49050000Y-19050000I1J699999D01*
G01*
X49050000Y-18450000D02*
G75*
G03*
X48350000Y-17750000I-699999J1D01*
G01*
X44950000Y-19050000D02*
G75*
G03*
X45650000Y-19750000I700000J0D01*
G01*
X45650000Y-17750000D02*
G75*
G03*
X44950000Y-18450000I0J-700000D01*
G01*
%TO.C,TP4*%
X56450000Y-44750000D02*
G75*
G03*
X54550000Y-44750000I-950000J0D01*
G01*
X54550000Y-44750000D02*
G75*
G03*
X56450000Y-44750000I950000J0D01*
G01*
%TO.C,TP1*%
X58200000Y-17000000D02*
G75*
G03*
X56300000Y-17000000I-950000J0D01*
G01*
X56300000Y-17000000D02*
G75*
G03*
X58200000Y-17000000I950000J0D01*
G01*
%TO.C,G\u002A\u002A\u002A*%
G36*
X46405673Y-25375000D02*
G01*
X46093096Y-25375000D01*
X46093096Y-25062500D01*
X46405673Y-25062500D01*
X46405673Y-25375000D01*
G37*
G36*
X46405673Y-20687500D02*
G01*
X46093096Y-20687500D01*
X46093096Y-20375000D01*
X46405673Y-20375000D01*
X46405673Y-20687500D01*
G37*
G36*
X47655981Y-20687500D02*
G01*
X46718250Y-20687500D01*
X46718250Y-20375000D01*
X47655981Y-20375000D01*
X47655981Y-20687500D01*
G37*
G36*
X47343404Y-21937500D02*
G01*
X47655981Y-21937500D01*
X47655981Y-22250000D01*
X46093096Y-22250000D01*
X46093096Y-21937500D01*
X47030827Y-21937500D01*
X47030827Y-21625000D01*
X47343404Y-21625000D01*
X47343404Y-21937500D01*
G37*
G36*
X47655981Y-21312500D02*
G01*
X47030827Y-21312500D01*
X47030827Y-21625000D01*
X46718250Y-21625000D01*
X46718250Y-21312500D01*
X46093096Y-21312500D01*
X46093096Y-21000000D01*
X47655981Y-21000000D01*
X47655981Y-21312500D01*
G37*
G36*
X51406904Y-28500000D02*
G01*
X51719481Y-28500000D01*
X51719481Y-30375000D01*
X51406904Y-30375000D01*
X51406904Y-31312500D01*
X51094327Y-31312500D01*
X51094327Y-31625000D01*
X50881750Y-31625000D01*
X50881750Y-30162500D01*
X51194327Y-30162500D01*
X51194327Y-27875000D01*
X51406904Y-27875000D01*
X51406904Y-28500000D01*
G37*
G36*
X47030827Y-26937500D02*
G01*
X47343404Y-26937500D01*
X47343404Y-26312500D01*
X47655981Y-26312500D01*
X47655981Y-27250000D01*
X46718250Y-27250000D01*
X46718250Y-26625000D01*
X46405673Y-26625000D01*
X46405673Y-27250000D01*
X46093096Y-27250000D01*
X46093096Y-26312500D01*
X47030827Y-26312500D01*
X47030827Y-26937500D01*
G37*
G36*
X46405673Y-24437500D02*
G01*
X46718250Y-24437500D01*
X46718250Y-24125000D01*
X47030827Y-24125000D01*
X47030827Y-24437500D01*
X47343404Y-24437500D01*
X47343404Y-23812500D01*
X47655981Y-23812500D01*
X47655981Y-24750000D01*
X46093096Y-24750000D01*
X46093096Y-23812500D01*
X46405673Y-23812500D01*
X46405673Y-24437500D01*
G37*
G36*
X46405673Y-23187500D02*
G01*
X46718250Y-23187500D01*
X46718250Y-22875000D01*
X47030827Y-22875000D01*
X47030827Y-23187500D01*
X47343404Y-23187500D01*
X47343404Y-22562500D01*
X47655981Y-22562500D01*
X47655981Y-23500000D01*
X46093096Y-23500000D01*
X46093096Y-22562500D01*
X46405673Y-22562500D01*
X46405673Y-23187500D01*
G37*
G36*
X47343404Y-25375000D02*
G01*
X46718250Y-25375000D01*
X46718250Y-25687500D01*
X47343404Y-25687500D01*
X47343404Y-25375000D01*
X47655981Y-25375000D01*
X47655981Y-26000000D01*
X46718250Y-26000000D01*
X46093096Y-26000000D01*
X46093096Y-25687500D01*
X46405673Y-25687500D01*
X46405673Y-25375000D01*
X46718250Y-25375000D01*
X46718250Y-25062500D01*
X47343404Y-25062500D01*
X47343404Y-25375000D01*
G37*
G36*
X49744020Y-28087500D02*
G01*
X49431443Y-28087500D01*
X49431443Y-28400000D01*
X49118866Y-28400000D01*
X49118866Y-29650000D01*
X48806289Y-29650000D01*
X48806289Y-31937500D01*
X48593711Y-31937500D01*
X48593711Y-31625000D01*
X48381135Y-31625000D01*
X48381135Y-29537500D01*
X48693711Y-29537500D01*
X48693711Y-28287500D01*
X49006289Y-28287500D01*
X49006289Y-27562500D01*
X49218866Y-27562500D01*
X49218866Y-27250000D01*
X49744020Y-27250000D01*
X49744020Y-28087500D01*
G37*
G36*
X53746213Y-30346270D02*
G01*
X53774656Y-30357015D01*
X53818214Y-30375248D01*
X53872800Y-30399239D01*
X53934323Y-30427260D01*
X53955349Y-30436988D01*
X54019643Y-30466685D01*
X54099694Y-30503610D01*
X54191089Y-30545729D01*
X54289415Y-30591010D01*
X54390258Y-30637418D01*
X54489206Y-30682920D01*
X54544589Y-30708382D01*
X54637285Y-30751012D01*
X54725309Y-30791513D01*
X54805196Y-30828287D01*
X54873479Y-30859739D01*
X54926692Y-30884274D01*
X54961370Y-30900296D01*
X54975118Y-30906657D01*
X55017080Y-30926047D01*
X55076699Y-30953577D01*
X55151113Y-30987925D01*
X55237460Y-31027770D01*
X55332876Y-31071792D01*
X55434499Y-31118669D01*
X55539468Y-31167080D01*
X56020712Y-31389009D01*
X56020712Y-38645137D01*
X55932938Y-38699896D01*
X55903228Y-38718380D01*
X55853816Y-38749039D01*
X55791033Y-38787939D01*
X55718698Y-38832716D01*
X55640632Y-38881003D01*
X55560655Y-38930436D01*
X55559639Y-38931064D01*
X55472047Y-38985188D01*
X55369963Y-39048278D01*
X55259410Y-39116610D01*
X55146409Y-39186463D01*
X55036984Y-39254113D01*
X54937156Y-39315837D01*
X54902247Y-39337422D01*
X54813741Y-39392128D01*
X54727374Y-39445489D01*
X54646835Y-39495226D01*
X54575816Y-39539061D01*
X54518007Y-39574714D01*
X54477099Y-39599907D01*
X54473094Y-39602370D01*
X54389450Y-39653931D01*
X54324361Y-39694359D01*
X54275754Y-39724997D01*
X54241557Y-39747190D01*
X54219697Y-39762282D01*
X54208102Y-39771616D01*
X54204697Y-39776537D01*
X54214543Y-39784549D01*
X54242386Y-39803453D01*
X54285547Y-39831523D01*
X54341345Y-39867036D01*
X54407098Y-39908270D01*
X54480126Y-39953502D01*
X54534578Y-39987045D01*
X54633932Y-40048298D01*
X54742785Y-40115455D01*
X54854326Y-40184313D01*
X54961743Y-40250668D01*
X55058224Y-40310314D01*
X55139043Y-40360295D01*
X55245907Y-40426367D01*
X55361094Y-40497570D01*
X55478024Y-40569837D01*
X55590120Y-40639102D01*
X55690803Y-40701300D01*
X56020712Y-40905072D01*
X56020712Y-42004863D01*
X56020605Y-42191160D01*
X56020246Y-42376988D01*
X56019639Y-42543024D01*
X56018790Y-42688713D01*
X56017706Y-42813504D01*
X56016392Y-42916845D01*
X56014854Y-42998183D01*
X56013098Y-43056965D01*
X56011130Y-43092640D01*
X56008955Y-43104654D01*
X56008023Y-43104335D01*
X55991776Y-43095318D01*
X55956967Y-43074623D01*
X55905183Y-43043229D01*
X55838013Y-43002116D01*
X55757045Y-42952263D01*
X55663867Y-42894650D01*
X55560069Y-42830257D01*
X55487040Y-42784825D01*
X55447237Y-42760063D01*
X55326961Y-42685049D01*
X55200828Y-42606193D01*
X55082872Y-42532369D01*
X54949692Y-42449032D01*
X54818967Y-42367247D01*
X54692954Y-42288424D01*
X54573912Y-42213977D01*
X54464100Y-42145318D01*
X54365777Y-42083859D01*
X54281200Y-42031013D01*
X54212630Y-41988191D01*
X54162323Y-41956807D01*
X54137386Y-41941256D01*
X54059384Y-41892537D01*
X53982031Y-41844119D01*
X53910306Y-41799124D01*
X53849187Y-41760673D01*
X53803651Y-41731888D01*
X53782208Y-41718359D01*
X53739492Y-41691544D01*
X53679071Y-41653694D01*
X53602472Y-41605764D01*
X53511220Y-41548706D01*
X53406843Y-41483475D01*
X53290867Y-41411025D01*
X53164819Y-41332309D01*
X53030224Y-41248281D01*
X52888609Y-41159895D01*
X52741501Y-41068104D01*
X52590426Y-40973863D01*
X51493739Y-40289831D01*
X51493741Y-39968818D01*
X52012838Y-39968818D01*
X52094826Y-40021092D01*
X52099169Y-40023857D01*
X52134715Y-40046315D01*
X52187503Y-40079493D01*
X52254721Y-40121633D01*
X52333559Y-40170977D01*
X52421205Y-40225767D01*
X52514849Y-40284246D01*
X52611679Y-40344657D01*
X52708883Y-40405242D01*
X52803651Y-40464244D01*
X52836541Y-40484792D01*
X52892358Y-40519902D01*
X52942879Y-40551920D01*
X52949311Y-40555985D01*
X52976274Y-40572915D01*
X53021201Y-40601065D01*
X53082550Y-40639470D01*
X53158784Y-40687171D01*
X53248361Y-40743203D01*
X53349742Y-40806605D01*
X53461388Y-40876415D01*
X53581758Y-40951670D01*
X53709312Y-41031409D01*
X53842512Y-41114668D01*
X53979817Y-41200487D01*
X54119688Y-41287902D01*
X54260584Y-41375951D01*
X54400966Y-41463673D01*
X54539295Y-41550104D01*
X54674030Y-41634283D01*
X54803631Y-41715248D01*
X54926560Y-41792036D01*
X55041276Y-41863685D01*
X55146239Y-41929233D01*
X55239910Y-41987718D01*
X55320748Y-42038177D01*
X55387215Y-42079649D01*
X55437771Y-42111170D01*
X55470875Y-42131780D01*
X55484988Y-42140515D01*
X55487040Y-42140628D01*
X55490560Y-42133239D01*
X55493424Y-42114237D01*
X55495686Y-42081825D01*
X55497401Y-42034200D01*
X55498626Y-41969564D01*
X55499415Y-41886115D01*
X55499824Y-41782055D01*
X55499909Y-41655583D01*
X55499697Y-41161518D01*
X55333441Y-41059631D01*
X55307801Y-41043903D01*
X55233828Y-40998423D01*
X55142796Y-40942339D01*
X55037168Y-40877177D01*
X54919412Y-40804458D01*
X54791991Y-40725706D01*
X54657371Y-40642445D01*
X54518016Y-40556197D01*
X54376392Y-40468485D01*
X54234964Y-40380834D01*
X54200601Y-40359536D01*
X54115230Y-40306659D01*
X54016615Y-40245617D01*
X53909752Y-40179501D01*
X53799637Y-40111402D01*
X53691266Y-40044409D01*
X53589633Y-39981615D01*
X53584813Y-39978636D01*
X53499429Y-39925475D01*
X53421471Y-39876202D01*
X53353147Y-39832269D01*
X53296667Y-39795126D01*
X53254240Y-39766226D01*
X53228073Y-39747020D01*
X53220377Y-39738960D01*
X53221678Y-39737968D01*
X53238946Y-39726574D01*
X53272849Y-39705040D01*
X53320147Y-39675396D01*
X53377600Y-39639676D01*
X53441970Y-39599913D01*
X53476924Y-39578374D01*
X53557753Y-39528497D01*
X53649857Y-39471594D01*
X53747084Y-39411468D01*
X53843280Y-39351924D01*
X53932295Y-39296765D01*
X53939927Y-39292032D01*
X54011629Y-39247608D01*
X54099247Y-39193370D01*
X54199972Y-39131053D01*
X54310997Y-39062392D01*
X54429514Y-38989121D01*
X54552714Y-38912977D01*
X54677789Y-38835694D01*
X54801931Y-38759007D01*
X54922332Y-38684650D01*
X55036183Y-38614360D01*
X55140677Y-38549870D01*
X55233004Y-38492917D01*
X55310358Y-38445234D01*
X55369929Y-38408557D01*
X55500032Y-38328534D01*
X55500077Y-37833791D01*
X55500121Y-37339048D01*
X55472881Y-37356628D01*
X55469914Y-37358506D01*
X55448831Y-37371744D01*
X55409110Y-37396633D01*
X55352088Y-37432336D01*
X55279102Y-37478018D01*
X55191490Y-37532842D01*
X55090588Y-37595973D01*
X54977732Y-37666574D01*
X54854261Y-37743810D01*
X54721511Y-37826845D01*
X54580819Y-37914841D01*
X54433521Y-38006964D01*
X54280956Y-38102378D01*
X54124459Y-38200245D01*
X53965368Y-38299732D01*
X53805020Y-38400000D01*
X53644751Y-38500215D01*
X53485899Y-38599540D01*
X53329800Y-38697139D01*
X53177792Y-38792176D01*
X53031211Y-38883816D01*
X52891394Y-38971222D01*
X52759679Y-39053558D01*
X52637402Y-39129988D01*
X52525901Y-39199676D01*
X52426511Y-39261787D01*
X52340570Y-39315483D01*
X52269416Y-39359930D01*
X52214385Y-39394290D01*
X52176813Y-39417729D01*
X52024909Y-39512409D01*
X52019425Y-39515827D01*
X52016132Y-39742322D01*
X52012838Y-39968818D01*
X51493741Y-39968818D01*
X51493766Y-35828486D01*
X51493774Y-34460422D01*
X52013269Y-34460422D01*
X54084588Y-34460422D01*
X53954753Y-34209206D01*
X53946013Y-34192301D01*
X53902030Y-34107388D01*
X53856524Y-34019761D01*
X53812649Y-33935479D01*
X53773558Y-33860603D01*
X53742405Y-33801190D01*
X53729688Y-33776908D01*
X53702160Y-33723476D01*
X53680015Y-33679271D01*
X53665257Y-33648338D01*
X53659892Y-33634722D01*
X53652836Y-33632941D01*
X53624340Y-33630803D01*
X53576564Y-33628908D01*
X53512289Y-33627320D01*
X53434293Y-33626105D01*
X53345358Y-33625328D01*
X53248262Y-33625055D01*
X52836632Y-33625055D01*
X52836632Y-32212651D01*
X52906246Y-32181499D01*
X52908755Y-32180373D01*
X52940395Y-32166021D01*
X52990000Y-32143350D01*
X53054000Y-32114000D01*
X53128828Y-32079608D01*
X53210914Y-32041814D01*
X53296689Y-32002254D01*
X53308928Y-31996605D01*
X53393818Y-31957458D01*
X53474065Y-31920505D01*
X53546202Y-31887339D01*
X53606762Y-31859554D01*
X53652277Y-31838742D01*
X53679281Y-31826495D01*
X53741043Y-31798829D01*
X54193818Y-32007448D01*
X54235566Y-32026676D01*
X54331567Y-32070832D01*
X54420213Y-32111526D01*
X54499066Y-32147641D01*
X54565687Y-32178065D01*
X54617639Y-32201682D01*
X54652483Y-32217379D01*
X54667781Y-32224041D01*
X54670590Y-32225748D01*
X54673647Y-32230174D01*
X54676347Y-32238462D01*
X54678710Y-32251969D01*
X54680760Y-32272051D01*
X54682518Y-32300065D01*
X54684007Y-32337368D01*
X54685249Y-32385317D01*
X54686266Y-32445268D01*
X54687081Y-32518579D01*
X54687714Y-32606606D01*
X54688190Y-32710705D01*
X54688529Y-32832235D01*
X54688754Y-32972550D01*
X54688888Y-33133009D01*
X54688951Y-33314968D01*
X54688968Y-33519783D01*
X54688968Y-34807550D01*
X53981622Y-34815555D01*
X53909648Y-34816321D01*
X53770933Y-34817543D01*
X53633645Y-34818440D01*
X53501040Y-34819009D01*
X53376371Y-34819245D01*
X53262894Y-34819143D01*
X53163863Y-34818701D01*
X53082534Y-34817913D01*
X53022160Y-34816776D01*
X52770045Y-34809993D01*
X52019425Y-35157861D01*
X52016361Y-37092288D01*
X52016270Y-37152212D01*
X52015951Y-37418438D01*
X52015804Y-37665955D01*
X52015826Y-37894305D01*
X52016015Y-38103028D01*
X52016369Y-38291666D01*
X52016887Y-38459760D01*
X52017566Y-38606852D01*
X52018404Y-38732483D01*
X52019399Y-38836194D01*
X52020549Y-38917527D01*
X52021852Y-38976022D01*
X52023306Y-39011222D01*
X52024909Y-39022668D01*
X52026058Y-39022120D01*
X52043019Y-39012303D01*
X52077732Y-38991438D01*
X52127905Y-38960925D01*
X52191246Y-38922166D01*
X52265463Y-38876563D01*
X52348265Y-38825518D01*
X52437360Y-38770431D01*
X52838200Y-38522242D01*
X52823744Y-35671098D01*
X53369176Y-35671098D01*
X53372279Y-36571699D01*
X53375383Y-37472299D01*
X53756746Y-37234211D01*
X54138110Y-36996123D01*
X54141240Y-36333611D01*
X54144370Y-35671098D01*
X54688968Y-35671098D01*
X54688968Y-36512519D01*
X54689004Y-36609519D01*
X54689183Y-36745017D01*
X54689499Y-36871855D01*
X54689940Y-36988089D01*
X54690493Y-37091776D01*
X54691144Y-37180970D01*
X54691882Y-37253728D01*
X54692694Y-37308104D01*
X54693566Y-37342156D01*
X54694486Y-37353939D01*
X54695396Y-37353562D01*
X54711199Y-37344448D01*
X54744740Y-37324201D01*
X54793777Y-37294201D01*
X54856069Y-37255828D01*
X54929374Y-37210461D01*
X55011453Y-37159480D01*
X55100063Y-37104264D01*
X55500121Y-36854588D01*
X55500000Y-34286413D01*
X55499879Y-31718239D01*
X55000596Y-31488877D01*
X54983848Y-31481183D01*
X54860797Y-31424623D01*
X54729547Y-31364249D01*
X54595133Y-31302380D01*
X54462590Y-31241335D01*
X54336950Y-31183432D01*
X54223250Y-31130990D01*
X54126523Y-31086327D01*
X54058220Y-31054872D01*
X53974145Y-31016466D01*
X53898817Y-30982405D01*
X53834876Y-30953865D01*
X53784961Y-30932023D01*
X53751713Y-30918056D01*
X53737772Y-30913138D01*
X53730312Y-30914895D01*
X53703524Y-30924847D01*
X53663647Y-30941626D01*
X53616185Y-30962977D01*
X53597986Y-30971399D01*
X53537661Y-30999260D01*
X53478084Y-31026705D01*
X53429864Y-31048847D01*
X53405727Y-31059917D01*
X53368322Y-31077104D01*
X53317767Y-31100357D01*
X53253081Y-31130128D01*
X53173282Y-31166869D01*
X53077387Y-31211033D01*
X52964414Y-31263071D01*
X52833380Y-31323437D01*
X52683304Y-31392583D01*
X52513203Y-31470961D01*
X52322094Y-31559023D01*
X52019425Y-31698496D01*
X52013269Y-34460422D01*
X51493774Y-34460422D01*
X51493793Y-31367142D01*
X51738449Y-31255555D01*
X51789383Y-31232276D01*
X51860002Y-31199927D01*
X51947938Y-31159597D01*
X52050851Y-31112359D01*
X52166405Y-31059289D01*
X52292258Y-31001459D01*
X52426074Y-30939946D01*
X52565513Y-30875823D01*
X52708236Y-30810164D01*
X52851905Y-30744044D01*
X52894591Y-30724405D01*
X53029409Y-30662501D01*
X53157533Y-30603858D01*
X53277264Y-30549243D01*
X53386904Y-30499423D01*
X53484754Y-30455164D01*
X53569116Y-30417232D01*
X53638293Y-30386396D01*
X53690586Y-30363421D01*
X53724297Y-30349073D01*
X53737727Y-30344120D01*
X53746213Y-30346270D01*
G37*
%TO.C,TP6*%
X45700000Y-21750000D02*
G75*
G03*
X43800000Y-21750000I-950000J0D01*
G01*
X43800000Y-21750000D02*
G75*
G03*
X45700000Y-21750000I950000J0D01*
G01*
%TO.C,TP2*%
X19700000Y-48250000D02*
G75*
G03*
X17800000Y-48250000I-950000J0D01*
G01*
X17800000Y-48250000D02*
G75*
G03*
X19700000Y-48250000I950000J0D01*
G01*
%TO.C,TP3*%
X50700000Y-50750000D02*
G75*
G03*
X48800000Y-50750000I-950000J0D01*
G01*
X48800000Y-50750000D02*
G75*
G03*
X50700000Y-50750000I950000J0D01*
G01*
%TD*%
M02*
