%TF.GenerationSoftware,KiCad,Pcbnew,7.0.10*%
%TF.CreationDate,2024-02-01T11:40:01-06:00*%
%TF.ProjectId,ElectriPi,456c6563-7472-4695-9069-2e6b69636164,rev?*%
%TF.SameCoordinates,Original*%
%TF.FileFunction,Drillmap*%
%TF.FilePolarity,Positive*%
%FSLAX45Y45*%
G04 Gerber Fmt 4.5, Leading zero omitted, Abs format (unit mm)*
G04 Created by KiCad (PCBNEW 7.0.10) date 2024-02-01 11:40:01*
%MOMM*%
%LPD*%
G01*
G04 APERTURE LIST*
%ADD10C,0.100000*%
%ADD11C,0.200000*%
G04 APERTURE END LIST*
D10*
X8525000Y-7175000D02*
X8525000Y-10625000D01*
X15025000Y-5625000D02*
G75*
G03*
X14725000Y-5325000I-300000J0D01*
G01*
X12925000Y-9025000D02*
X12925000Y-10525000D01*
X8525000Y-10625000D02*
G75*
G03*
X8825000Y-10925000I300000J0D01*
G01*
X8825000Y-10925000D02*
X14725000Y-10925000D01*
X14725000Y-10925000D02*
G75*
G03*
X15025000Y-10625000I0J300000D01*
G01*
X13125000Y-9025000D02*
G75*
G03*
X12925000Y-9025000I-100000J0D01*
G01*
X13125000Y-9025000D02*
X13125000Y-10525000D01*
X8825000Y-5325000D02*
X14725000Y-5325000D01*
X8825000Y-5325000D02*
G75*
G03*
X8525000Y-5625000I0J-300000D01*
G01*
X12925000Y-10525000D02*
G75*
G03*
X13125000Y-10525000I100000J0D01*
G01*
X8525000Y-5625000D02*
X8525000Y-7175000D01*
X15025000Y-5625000D02*
X15025000Y-10625000D01*
X9025000Y-6920000D02*
X9025000Y-9120000D01*
X11998592Y-6821165D02*
X12400000Y-6820000D01*
X12430326Y-8020000D02*
X12500000Y-7770000D01*
X12500000Y-7770000D02*
X12500000Y-6920000D01*
X11998592Y-6821165D02*
G75*
G03*
X9025000Y-6920000I-1448592J-1198835D01*
G01*
X12500000Y-6920000D02*
G75*
G03*
X12400000Y-6820000I-99990J10D01*
G01*
X9025000Y-9120000D02*
G75*
G03*
X12430326Y-8020000I1525000J1100000D01*
G01*
D11*
X8780777Y-11241484D02*
X8780777Y-11041484D01*
X8780777Y-11041484D02*
X8828396Y-11041484D01*
X8828396Y-11041484D02*
X8856967Y-11051008D01*
X8856967Y-11051008D02*
X8876015Y-11070055D01*
X8876015Y-11070055D02*
X8885539Y-11089103D01*
X8885539Y-11089103D02*
X8895063Y-11127198D01*
X8895063Y-11127198D02*
X8895063Y-11155770D01*
X8895063Y-11155770D02*
X8885539Y-11193865D01*
X8885539Y-11193865D02*
X8876015Y-11212912D01*
X8876015Y-11212912D02*
X8856967Y-11231960D01*
X8856967Y-11231960D02*
X8828396Y-11241484D01*
X8828396Y-11241484D02*
X8780777Y-11241484D01*
X8980777Y-11241484D02*
X8980777Y-11108150D01*
X8980777Y-11146246D02*
X8990301Y-11127198D01*
X8990301Y-11127198D02*
X8999824Y-11117674D01*
X8999824Y-11117674D02*
X9018872Y-11108150D01*
X9018872Y-11108150D02*
X9037920Y-11108150D01*
X9104586Y-11241484D02*
X9104586Y-11108150D01*
X9104586Y-11041484D02*
X9095063Y-11051008D01*
X9095063Y-11051008D02*
X9104586Y-11060531D01*
X9104586Y-11060531D02*
X9114110Y-11051008D01*
X9114110Y-11051008D02*
X9104586Y-11041484D01*
X9104586Y-11041484D02*
X9104586Y-11060531D01*
X9228396Y-11241484D02*
X9209348Y-11231960D01*
X9209348Y-11231960D02*
X9199824Y-11212912D01*
X9199824Y-11212912D02*
X9199824Y-11041484D01*
X9333158Y-11241484D02*
X9314110Y-11231960D01*
X9314110Y-11231960D02*
X9304586Y-11212912D01*
X9304586Y-11212912D02*
X9304586Y-11041484D01*
X9561729Y-11241484D02*
X9561729Y-11041484D01*
X9561729Y-11041484D02*
X9628396Y-11184341D01*
X9628396Y-11184341D02*
X9695063Y-11041484D01*
X9695063Y-11041484D02*
X9695063Y-11241484D01*
X9876015Y-11241484D02*
X9876015Y-11136722D01*
X9876015Y-11136722D02*
X9866491Y-11117674D01*
X9866491Y-11117674D02*
X9847444Y-11108150D01*
X9847444Y-11108150D02*
X9809348Y-11108150D01*
X9809348Y-11108150D02*
X9790301Y-11117674D01*
X9876015Y-11231960D02*
X9856967Y-11241484D01*
X9856967Y-11241484D02*
X9809348Y-11241484D01*
X9809348Y-11241484D02*
X9790301Y-11231960D01*
X9790301Y-11231960D02*
X9780777Y-11212912D01*
X9780777Y-11212912D02*
X9780777Y-11193865D01*
X9780777Y-11193865D02*
X9790301Y-11174817D01*
X9790301Y-11174817D02*
X9809348Y-11165293D01*
X9809348Y-11165293D02*
X9856967Y-11165293D01*
X9856967Y-11165293D02*
X9876015Y-11155770D01*
X9971253Y-11108150D02*
X9971253Y-11308150D01*
X9971253Y-11117674D02*
X9990301Y-11108150D01*
X9990301Y-11108150D02*
X10028396Y-11108150D01*
X10028396Y-11108150D02*
X10047444Y-11117674D01*
X10047444Y-11117674D02*
X10056967Y-11127198D01*
X10056967Y-11127198D02*
X10066491Y-11146246D01*
X10066491Y-11146246D02*
X10066491Y-11203388D01*
X10066491Y-11203388D02*
X10056967Y-11222436D01*
X10056967Y-11222436D02*
X10047444Y-11231960D01*
X10047444Y-11231960D02*
X10028396Y-11241484D01*
X10028396Y-11241484D02*
X9990301Y-11241484D01*
X9990301Y-11241484D02*
X9971253Y-11231960D01*
X10152205Y-11222436D02*
X10161729Y-11231960D01*
X10161729Y-11231960D02*
X10152205Y-11241484D01*
X10152205Y-11241484D02*
X10142682Y-11231960D01*
X10142682Y-11231960D02*
X10152205Y-11222436D01*
X10152205Y-11222436D02*
X10152205Y-11241484D01*
X10152205Y-11117674D02*
X10161729Y-11127198D01*
X10161729Y-11127198D02*
X10152205Y-11136722D01*
X10152205Y-11136722D02*
X10142682Y-11127198D01*
X10142682Y-11127198D02*
X10152205Y-11117674D01*
X10152205Y-11117674D02*
X10152205Y-11136722D01*
M02*
