%TF.GenerationSoftware,KiCad,Pcbnew,7.0.10*%
%TF.CreationDate,2024-02-13T22:46:19-06:00*%
%TF.ProjectId,ElectriPi,456c6563-7472-4695-9069-2e6b69636164,rev?*%
%TF.SameCoordinates,PX514cfd0PY32c87d0*%
%TF.FileFunction,Legend,Top*%
%TF.FilePolarity,Positive*%
%FSLAX46Y46*%
G04 Gerber Fmt 4.6, Leading zero omitted, Abs format (unit mm)*
G04 Created by KiCad (PCBNEW 7.0.10) date 2024-02-13 22:46:19*
%MOMM*%
%LPD*%
G01*
G04 APERTURE LIST*
%ADD10C,0.153000*%
%ADD11C,0.150000*%
%ADD12C,0.200000*%
%ADD13C,0.125000*%
%ADD14C,0.100000*%
%ADD15C,0.120000*%
G04 APERTURE END LIST*
D10*
X23219048Y-873710D02*
X23980953Y-873710D01*
D11*
X45619048Y-6923866D02*
X46380953Y-6923866D01*
X46000000Y-7304819D02*
X46000000Y-6542914D01*
X42890419Y-15500000D02*
X42842800Y-15547619D01*
X42842800Y-15547619D02*
X42795180Y-15500000D01*
X42795180Y-15500000D02*
X42842800Y-15452381D01*
X42842800Y-15452381D02*
X42890419Y-15500000D01*
X42890419Y-15500000D02*
X42795180Y-15500000D01*
D12*
X8602857Y-53734600D02*
X6317143Y-53734600D01*
X7460000Y-54877457D02*
X7460000Y-52591742D01*
D11*
X6650000Y-4836104D02*
X6688095Y-4874200D01*
X6688095Y-4874200D02*
X6650000Y-4912295D01*
X6650000Y-4912295D02*
X6611904Y-4874200D01*
X6611904Y-4874200D02*
X6650000Y-4836104D01*
X6650000Y-4836104D02*
X6650000Y-4912295D01*
D12*
X22602857Y-53734600D02*
X20317143Y-53734600D01*
D11*
X62162295Y-26066666D02*
X62962295Y-25799999D01*
X62962295Y-25799999D02*
X62162295Y-25533333D01*
X62886104Y-24809523D02*
X62924200Y-24847619D01*
X62924200Y-24847619D02*
X62962295Y-24961904D01*
X62962295Y-24961904D02*
X62962295Y-25038095D01*
X62962295Y-25038095D02*
X62924200Y-25152381D01*
X62924200Y-25152381D02*
X62848009Y-25228571D01*
X62848009Y-25228571D02*
X62771819Y-25266666D01*
X62771819Y-25266666D02*
X62619438Y-25304762D01*
X62619438Y-25304762D02*
X62505152Y-25304762D01*
X62505152Y-25304762D02*
X62352771Y-25266666D01*
X62352771Y-25266666D02*
X62276580Y-25228571D01*
X62276580Y-25228571D02*
X62200390Y-25152381D01*
X62200390Y-25152381D02*
X62162295Y-25038095D01*
X62162295Y-25038095D02*
X62162295Y-24961904D01*
X62162295Y-24961904D02*
X62200390Y-24847619D01*
X62200390Y-24847619D02*
X62238485Y-24809523D01*
X62886104Y-24009523D02*
X62924200Y-24047619D01*
X62924200Y-24047619D02*
X62962295Y-24161904D01*
X62962295Y-24161904D02*
X62962295Y-24238095D01*
X62962295Y-24238095D02*
X62924200Y-24352381D01*
X62924200Y-24352381D02*
X62848009Y-24428571D01*
X62848009Y-24428571D02*
X62771819Y-24466666D01*
X62771819Y-24466666D02*
X62619438Y-24504762D01*
X62619438Y-24504762D02*
X62505152Y-24504762D01*
X62505152Y-24504762D02*
X62352771Y-24466666D01*
X62352771Y-24466666D02*
X62276580Y-24428571D01*
X62276580Y-24428571D02*
X62200390Y-24352381D01*
X62200390Y-24352381D02*
X62162295Y-24238095D01*
X62162295Y-24238095D02*
X62162295Y-24161904D01*
X62162295Y-24161904D02*
X62200390Y-24047619D01*
X62200390Y-24047619D02*
X62238485Y-24009523D01*
D10*
X18119048Y-6223710D02*
X18880953Y-6223710D01*
D11*
X43119048Y-6973866D02*
X43880953Y-6973866D01*
X62162295Y-21152380D02*
X62162295Y-21533332D01*
X62162295Y-21533332D02*
X62543247Y-21571428D01*
X62543247Y-21571428D02*
X62505152Y-21533332D01*
X62505152Y-21533332D02*
X62467057Y-21457142D01*
X62467057Y-21457142D02*
X62467057Y-21266666D01*
X62467057Y-21266666D02*
X62505152Y-21190475D01*
X62505152Y-21190475D02*
X62543247Y-21152380D01*
X62543247Y-21152380D02*
X62619438Y-21114285D01*
X62619438Y-21114285D02*
X62809914Y-21114285D01*
X62809914Y-21114285D02*
X62886104Y-21152380D01*
X62886104Y-21152380D02*
X62924200Y-21190475D01*
X62924200Y-21190475D02*
X62962295Y-21266666D01*
X62962295Y-21266666D02*
X62962295Y-21457142D01*
X62962295Y-21457142D02*
X62924200Y-21533332D01*
X62924200Y-21533332D02*
X62886104Y-21571428D01*
X62162295Y-20885713D02*
X62962295Y-20619046D01*
X62962295Y-20619046D02*
X62162295Y-20352380D01*
D13*
X61019047Y-17864976D02*
X60638094Y-17864976D01*
X61095237Y-17636404D02*
X60828570Y-18436404D01*
X60828570Y-18436404D02*
X60561904Y-17636404D01*
X60295237Y-18436404D02*
X60295237Y-17788785D01*
X60295237Y-17788785D02*
X60257142Y-17712595D01*
X60257142Y-17712595D02*
X60219047Y-17674500D01*
X60219047Y-17674500D02*
X60142856Y-17636404D01*
X60142856Y-17636404D02*
X59990475Y-17636404D01*
X59990475Y-17636404D02*
X59914285Y-17674500D01*
X59914285Y-17674500D02*
X59876190Y-17712595D01*
X59876190Y-17712595D02*
X59838094Y-17788785D01*
X59838094Y-17788785D02*
X59838094Y-18436404D01*
X59533333Y-18436404D02*
X58999999Y-17636404D01*
X58999999Y-18436404D02*
X59533333Y-17636404D01*
X57704761Y-18436404D02*
X58085713Y-18436404D01*
X58085713Y-18436404D02*
X58123809Y-18055452D01*
X58123809Y-18055452D02*
X58085713Y-18093547D01*
X58085713Y-18093547D02*
X58009523Y-18131642D01*
X58009523Y-18131642D02*
X57819047Y-18131642D01*
X57819047Y-18131642D02*
X57742856Y-18093547D01*
X57742856Y-18093547D02*
X57704761Y-18055452D01*
X57704761Y-18055452D02*
X57666666Y-17979261D01*
X57666666Y-17979261D02*
X57666666Y-17788785D01*
X57666666Y-17788785D02*
X57704761Y-17712595D01*
X57704761Y-17712595D02*
X57742856Y-17674500D01*
X57742856Y-17674500D02*
X57819047Y-17636404D01*
X57819047Y-17636404D02*
X58009523Y-17636404D01*
X58009523Y-17636404D02*
X58085713Y-17674500D01*
X58085713Y-17674500D02*
X58123809Y-17712595D01*
X57438094Y-18436404D02*
X57171427Y-17636404D01*
X57171427Y-17636404D02*
X56904761Y-18436404D01*
D10*
X10499048Y-823710D02*
X11260953Y-823710D01*
X10880000Y-1204663D02*
X10880000Y-442758D01*
D11*
X56600000Y-32709580D02*
X56647619Y-32757200D01*
X56647619Y-32757200D02*
X56600000Y-32804819D01*
X56600000Y-32804819D02*
X56552381Y-32757200D01*
X56552381Y-32757200D02*
X56600000Y-32709580D01*
X56600000Y-32709580D02*
X56600000Y-32804819D01*
X11595238Y-55507533D02*
X12204762Y-55507533D01*
X11900000Y-55812295D02*
X11900000Y-55202771D01*
X64073866Y-18380951D02*
X64073866Y-17619047D01*
X64454819Y-17999999D02*
X63692914Y-17999999D01*
X56140419Y-50750000D02*
X56092800Y-50797619D01*
X56092800Y-50797619D02*
X56045180Y-50750000D01*
X56045180Y-50750000D02*
X56092800Y-50702381D01*
X56092800Y-50702381D02*
X56140419Y-50750000D01*
X56140419Y-50750000D02*
X56045180Y-50750000D01*
X64073866Y-6380951D02*
X64073866Y-5619047D01*
X41102381Y-14443247D02*
X40835715Y-14443247D01*
X40835715Y-14862295D02*
X40835715Y-14062295D01*
X40835715Y-14062295D02*
X41216667Y-14062295D01*
X41483333Y-14633723D02*
X41864286Y-14633723D01*
X41407143Y-14862295D02*
X41673810Y-14062295D01*
X41673810Y-14062295D02*
X41940476Y-14862295D01*
X42207143Y-14862295D02*
X42207143Y-14062295D01*
X42207143Y-14062295D02*
X42664286Y-14862295D01*
X42664286Y-14862295D02*
X42664286Y-14062295D01*
D10*
X7969048Y-823710D02*
X8730953Y-823710D01*
X8350000Y-1204663D02*
X8350000Y-442758D01*
X13019048Y-823710D02*
X13780953Y-823710D01*
X30869048Y-873710D02*
X31630953Y-873710D01*
X57819048Y-4773710D02*
X58580953Y-4773710D01*
X48619048Y-873710D02*
X49380953Y-873710D01*
D11*
X56690000Y-50034580D02*
X56737619Y-50082200D01*
X56737619Y-50082200D02*
X56690000Y-50129819D01*
X56690000Y-50129819D02*
X56642381Y-50082200D01*
X56642381Y-50082200D02*
X56690000Y-50034580D01*
X56690000Y-50034580D02*
X56690000Y-50129819D01*
D10*
X38469048Y-6173710D02*
X39230953Y-6173710D01*
D14*
X1073809Y-48470895D02*
X616666Y-48470895D01*
X845238Y-48470895D02*
X845238Y-47670895D01*
X845238Y-47670895D02*
X769047Y-47785180D01*
X769047Y-47785180D02*
X692857Y-47861371D01*
X692857Y-47861371D02*
X616666Y-47899466D01*
X1378571Y-47747085D02*
X1416667Y-47708990D01*
X1416667Y-47708990D02*
X1492857Y-47670895D01*
X1492857Y-47670895D02*
X1683333Y-47670895D01*
X1683333Y-47670895D02*
X1759524Y-47708990D01*
X1759524Y-47708990D02*
X1797619Y-47747085D01*
X1797619Y-47747085D02*
X1835714Y-47823276D01*
X1835714Y-47823276D02*
X1835714Y-47899466D01*
X1835714Y-47899466D02*
X1797619Y-48013752D01*
X1797619Y-48013752D02*
X1340476Y-48470895D01*
X1340476Y-48470895D02*
X1835714Y-48470895D01*
X2750000Y-47632800D02*
X2064286Y-48661371D01*
X2978571Y-47747085D02*
X3016667Y-47708990D01*
X3016667Y-47708990D02*
X3092857Y-47670895D01*
X3092857Y-47670895D02*
X3283333Y-47670895D01*
X3283333Y-47670895D02*
X3359524Y-47708990D01*
X3359524Y-47708990D02*
X3397619Y-47747085D01*
X3397619Y-47747085D02*
X3435714Y-47823276D01*
X3435714Y-47823276D02*
X3435714Y-47899466D01*
X3435714Y-47899466D02*
X3397619Y-48013752D01*
X3397619Y-48013752D02*
X2940476Y-48470895D01*
X2940476Y-48470895D02*
X3435714Y-48470895D01*
X4121429Y-47937561D02*
X4121429Y-48470895D01*
X3930953Y-47632800D02*
X3740476Y-48204228D01*
X3740476Y-48204228D02*
X4235715Y-48204228D01*
X4426191Y-47670895D02*
X4692858Y-48470895D01*
X4692858Y-48470895D02*
X4959524Y-47670895D01*
X826191Y-49758895D02*
X826191Y-48958895D01*
X1207143Y-49758895D02*
X1207143Y-48958895D01*
X1207143Y-48958895D02*
X1664286Y-49758895D01*
X1664286Y-49758895D02*
X1664286Y-48958895D01*
X2045238Y-49758895D02*
X2045238Y-48958895D01*
X2045238Y-48958895D02*
X2350000Y-48958895D01*
X2350000Y-48958895D02*
X2426190Y-48996990D01*
X2426190Y-48996990D02*
X2464285Y-49035085D01*
X2464285Y-49035085D02*
X2502381Y-49111276D01*
X2502381Y-49111276D02*
X2502381Y-49225561D01*
X2502381Y-49225561D02*
X2464285Y-49301752D01*
X2464285Y-49301752D02*
X2426190Y-49339847D01*
X2426190Y-49339847D02*
X2350000Y-49377942D01*
X2350000Y-49377942D02*
X2045238Y-49377942D01*
X2845238Y-48958895D02*
X2845238Y-49606514D01*
X2845238Y-49606514D02*
X2883333Y-49682704D01*
X2883333Y-49682704D02*
X2921428Y-49720800D01*
X2921428Y-49720800D02*
X2997619Y-49758895D01*
X2997619Y-49758895D02*
X3150000Y-49758895D01*
X3150000Y-49758895D02*
X3226190Y-49720800D01*
X3226190Y-49720800D02*
X3264285Y-49682704D01*
X3264285Y-49682704D02*
X3302381Y-49606514D01*
X3302381Y-49606514D02*
X3302381Y-48958895D01*
X3569047Y-48958895D02*
X4026190Y-48958895D01*
X3797618Y-49758895D02*
X3797618Y-48958895D01*
X4254761Y-49720800D02*
X4369047Y-49758895D01*
X4369047Y-49758895D02*
X4559523Y-49758895D01*
X4559523Y-49758895D02*
X4635714Y-49720800D01*
X4635714Y-49720800D02*
X4673809Y-49682704D01*
X4673809Y-49682704D02*
X4711904Y-49606514D01*
X4711904Y-49606514D02*
X4711904Y-49530323D01*
X4711904Y-49530323D02*
X4673809Y-49454133D01*
X4673809Y-49454133D02*
X4635714Y-49416038D01*
X4635714Y-49416038D02*
X4559523Y-49377942D01*
X4559523Y-49377942D02*
X4407142Y-49339847D01*
X4407142Y-49339847D02*
X4330952Y-49301752D01*
X4330952Y-49301752D02*
X4292857Y-49263657D01*
X4292857Y-49263657D02*
X4254761Y-49187466D01*
X4254761Y-49187466D02*
X4254761Y-49111276D01*
X4254761Y-49111276D02*
X4292857Y-49035085D01*
X4292857Y-49035085D02*
X4330952Y-48996990D01*
X4330952Y-48996990D02*
X4407142Y-48958895D01*
X4407142Y-48958895D02*
X4597619Y-48958895D01*
X4597619Y-48958895D02*
X4711904Y-48996990D01*
D10*
X43519048Y-873710D02*
X44280953Y-873710D01*
D11*
X16845238Y-55557533D02*
X17454762Y-55557533D01*
X14166666Y-47954819D02*
X14166666Y-48669104D01*
X14166666Y-48669104D02*
X14119047Y-48811961D01*
X14119047Y-48811961D02*
X14023809Y-48907200D01*
X14023809Y-48907200D02*
X13880952Y-48954819D01*
X13880952Y-48954819D02*
X13785714Y-48954819D01*
X15166666Y-48954819D02*
X14595238Y-48954819D01*
X14880952Y-48954819D02*
X14880952Y-47954819D01*
X14880952Y-47954819D02*
X14785714Y-48097676D01*
X14785714Y-48097676D02*
X14690476Y-48192914D01*
X14690476Y-48192914D02*
X14595238Y-48240533D01*
X50807142Y-38359580D02*
X50759523Y-38407200D01*
X50759523Y-38407200D02*
X50616666Y-38454819D01*
X50616666Y-38454819D02*
X50521428Y-38454819D01*
X50521428Y-38454819D02*
X50378571Y-38407200D01*
X50378571Y-38407200D02*
X50283333Y-38311961D01*
X50283333Y-38311961D02*
X50235714Y-38216723D01*
X50235714Y-38216723D02*
X50188095Y-38026247D01*
X50188095Y-38026247D02*
X50188095Y-37883390D01*
X50188095Y-37883390D02*
X50235714Y-37692914D01*
X50235714Y-37692914D02*
X50283333Y-37597676D01*
X50283333Y-37597676D02*
X50378571Y-37502438D01*
X50378571Y-37502438D02*
X50521428Y-37454819D01*
X50521428Y-37454819D02*
X50616666Y-37454819D01*
X50616666Y-37454819D02*
X50759523Y-37502438D01*
X50759523Y-37502438D02*
X50807142Y-37550057D01*
X51759523Y-38454819D02*
X51188095Y-38454819D01*
X51473809Y-38454819D02*
X51473809Y-37454819D01*
X51473809Y-37454819D02*
X51378571Y-37597676D01*
X51378571Y-37597676D02*
X51283333Y-37692914D01*
X51283333Y-37692914D02*
X51188095Y-37740533D01*
X52330952Y-37883390D02*
X52235714Y-37835771D01*
X52235714Y-37835771D02*
X52188095Y-37788152D01*
X52188095Y-37788152D02*
X52140476Y-37692914D01*
X52140476Y-37692914D02*
X52140476Y-37645295D01*
X52140476Y-37645295D02*
X52188095Y-37550057D01*
X52188095Y-37550057D02*
X52235714Y-37502438D01*
X52235714Y-37502438D02*
X52330952Y-37454819D01*
X52330952Y-37454819D02*
X52521428Y-37454819D01*
X52521428Y-37454819D02*
X52616666Y-37502438D01*
X52616666Y-37502438D02*
X52664285Y-37550057D01*
X52664285Y-37550057D02*
X52711904Y-37645295D01*
X52711904Y-37645295D02*
X52711904Y-37692914D01*
X52711904Y-37692914D02*
X52664285Y-37788152D01*
X52664285Y-37788152D02*
X52616666Y-37835771D01*
X52616666Y-37835771D02*
X52521428Y-37883390D01*
X52521428Y-37883390D02*
X52330952Y-37883390D01*
X52330952Y-37883390D02*
X52235714Y-37931009D01*
X52235714Y-37931009D02*
X52188095Y-37978628D01*
X52188095Y-37978628D02*
X52140476Y-38073866D01*
X52140476Y-38073866D02*
X52140476Y-38264342D01*
X52140476Y-38264342D02*
X52188095Y-38359580D01*
X52188095Y-38359580D02*
X52235714Y-38407200D01*
X52235714Y-38407200D02*
X52330952Y-38454819D01*
X52330952Y-38454819D02*
X52521428Y-38454819D01*
X52521428Y-38454819D02*
X52616666Y-38407200D01*
X52616666Y-38407200D02*
X52664285Y-38359580D01*
X52664285Y-38359580D02*
X52711904Y-38264342D01*
X52711904Y-38264342D02*
X52711904Y-38073866D01*
X52711904Y-38073866D02*
X52664285Y-37978628D01*
X52664285Y-37978628D02*
X52616666Y-37931009D01*
X52616666Y-37931009D02*
X52521428Y-37883390D01*
X47733333Y-6312295D02*
X47733333Y-6883723D01*
X47733333Y-6883723D02*
X47695238Y-6998009D01*
X47695238Y-6998009D02*
X47619047Y-7074200D01*
X47619047Y-7074200D02*
X47504762Y-7112295D01*
X47504762Y-7112295D02*
X47428571Y-7112295D01*
X48038095Y-6312295D02*
X48533333Y-6312295D01*
X48533333Y-6312295D02*
X48266667Y-6617057D01*
X48266667Y-6617057D02*
X48380952Y-6617057D01*
X48380952Y-6617057D02*
X48457143Y-6655152D01*
X48457143Y-6655152D02*
X48495238Y-6693247D01*
X48495238Y-6693247D02*
X48533333Y-6769438D01*
X48533333Y-6769438D02*
X48533333Y-6959914D01*
X48533333Y-6959914D02*
X48495238Y-7036104D01*
X48495238Y-7036104D02*
X48457143Y-7074200D01*
X48457143Y-7074200D02*
X48380952Y-7112295D01*
X48380952Y-7112295D02*
X48152381Y-7112295D01*
X48152381Y-7112295D02*
X48076190Y-7074200D01*
X48076190Y-7074200D02*
X48038095Y-7036104D01*
X46833333Y-34954819D02*
X46357143Y-34954819D01*
X46357143Y-34954819D02*
X46357143Y-33954819D01*
X47690476Y-34954819D02*
X47119048Y-34954819D01*
X47404762Y-34954819D02*
X47404762Y-33954819D01*
X47404762Y-33954819D02*
X47309524Y-34097676D01*
X47309524Y-34097676D02*
X47214286Y-34192914D01*
X47214286Y-34192914D02*
X47119048Y-34240533D01*
X57454819Y-12583333D02*
X58169104Y-12583333D01*
X58169104Y-12583333D02*
X58311961Y-12630952D01*
X58311961Y-12630952D02*
X58407200Y-12726190D01*
X58407200Y-12726190D02*
X58454819Y-12869047D01*
X58454819Y-12869047D02*
X58454819Y-12964285D01*
X57788152Y-11678571D02*
X58454819Y-11678571D01*
X57407200Y-11916666D02*
X58121485Y-12154761D01*
X58121485Y-12154761D02*
X58121485Y-11535714D01*
D15*
%TO.C,R11*%
X59696359Y-25970000D02*
X60003641Y-25970000D01*
X59696359Y-26730000D02*
X60003641Y-26730000D01*
%TO.C,D4*%
X56690000Y-48000000D02*
X56690000Y-49675000D01*
X56690000Y-48000000D02*
X56690000Y-47350000D01*
X59810000Y-48000000D02*
X59810000Y-48650000D01*
X59810000Y-48000000D02*
X59810000Y-47350000D01*
%TO.C,C9*%
X52990000Y-12937836D02*
X52990000Y-12722164D01*
X53710000Y-12937836D02*
X53710000Y-12722164D01*
%TO.C,C8*%
X56107836Y-33760000D02*
X55892164Y-33760000D01*
X56107836Y-33040000D02*
X55892164Y-33040000D01*
D14*
%TO.C,U4*%
X56600000Y-10700000D02*
X56600000Y-10900000D01*
X56400000Y-10700000D02*
X56600000Y-10700000D01*
X54200000Y-13300000D02*
X54000000Y-13300000D01*
X54200000Y-10700000D02*
X54000000Y-10700000D01*
X54000000Y-13300000D02*
X54000000Y-13100000D01*
X54000000Y-10700000D02*
X54000000Y-10900000D01*
D12*
X56500001Y-13200000D02*
G75*
G03*
X56499999Y-13200000I-1J0D01*
G01*
X56499999Y-13200000D02*
G75*
G03*
X56500001Y-13200000I1J0D01*
G01*
D15*
%TO.C,R13*%
X57480000Y-19846359D02*
X57480000Y-20153641D01*
X56720000Y-19846359D02*
X56720000Y-20153641D01*
%TO.C,U3*%
X43250000Y-17260000D02*
X45250000Y-17260000D01*
X44250000Y-15040000D02*
X45250000Y-15040000D01*
%TO.C,R10*%
X48153641Y-14880000D02*
X47846359Y-14880000D01*
X48153641Y-14120000D02*
X47846359Y-14120000D01*
%TO.C,J1*%
X9420000Y-47440000D02*
X9420000Y-55060000D01*
X9420000Y-55060000D02*
X19580000Y-55060000D01*
X19580000Y-47440000D02*
X9420000Y-47440000D01*
X19580000Y-53790000D02*
X9420000Y-53790000D01*
X19580000Y-55060000D02*
X19580000Y-47440000D01*
D14*
%TO.C,U1*%
X50100000Y-13300000D02*
X50100000Y-13100000D01*
X50300000Y-13300000D02*
X50100000Y-13300000D01*
X52500000Y-10700000D02*
X52700000Y-10700000D01*
X52500000Y-13300000D02*
X52700000Y-13300000D01*
X52700000Y-10700000D02*
X52700000Y-10900000D01*
X52700000Y-13300000D02*
X52700000Y-13100000D01*
D12*
X50200001Y-10800000D02*
G75*
G03*
X50199999Y-10800000I-1J0D01*
G01*
X50199999Y-10800000D02*
G75*
G03*
X50200001Y-10800000I1J0D01*
G01*
D15*
%TO.C,C3*%
X53840000Y-29290580D02*
X53840000Y-29009420D01*
X54860000Y-29290580D02*
X54860000Y-29009420D01*
%TO.C,R14*%
X57446359Y-26720000D02*
X57753641Y-26720000D01*
X57446359Y-27480000D02*
X57753641Y-27480000D01*
%TO.C,C5*%
X44461252Y-21160000D02*
X43038748Y-21160000D01*
X44461252Y-19340000D02*
X43038748Y-19340000D01*
%TO.C,Q1*%
X56125000Y-50300000D02*
X56125000Y-50200000D01*
X56125000Y-50300000D02*
X54175000Y-50300000D01*
X54175000Y-48000000D02*
X55675000Y-48000000D01*
%TO.C,R3*%
X56870000Y-52153641D02*
X56870000Y-51846359D01*
X57630000Y-52153641D02*
X57630000Y-51846359D01*
%TO.C,D1*%
X53000000Y-45340000D02*
X53000000Y-53850000D01*
X46500000Y-45340000D02*
X53000000Y-45340000D01*
X46500000Y-45340000D02*
X46500000Y-53850000D01*
%TO.C,R1*%
X61746359Y-27270000D02*
X62053641Y-27270000D01*
X61746359Y-28030000D02*
X62053641Y-28030000D01*
%TO.C,C6*%
X58972164Y-33040000D02*
X59187836Y-33040000D01*
X58972164Y-33760000D02*
X59187836Y-33760000D01*
%TO.C,C12*%
X52111252Y-8710000D02*
X50688748Y-8710000D01*
X52111252Y-6890000D02*
X50688748Y-6890000D01*
%TO.C,R5*%
X55470000Y-26553641D02*
X55470000Y-26246359D01*
X56230000Y-26553641D02*
X56230000Y-26246359D01*
%TO.C,IC2*%
X59110000Y-32110000D02*
X58785000Y-32110000D01*
X55890000Y-31785000D02*
X55890000Y-32110000D01*
X59110000Y-31785000D02*
X59110000Y-32110000D01*
X55890000Y-29215000D02*
X55890000Y-28890000D01*
X59110000Y-29215000D02*
X59110000Y-28890000D01*
X55890000Y-28890000D02*
X56215000Y-28890000D01*
X59110000Y-28890000D02*
X58785000Y-28890000D01*
%TO.C,R12*%
X61003641Y-30280000D02*
X60696359Y-30280000D01*
X61003641Y-29520000D02*
X60696359Y-29520000D01*
%TO.C,C4*%
X44461252Y-23660000D02*
X43038748Y-23660000D01*
X44461252Y-21840000D02*
X43038748Y-21840000D01*
%TO.C,C11*%
X54907836Y-14310000D02*
X54692164Y-14310000D01*
X54907836Y-13590000D02*
X54692164Y-13590000D01*
%TO.C,R6*%
X63903641Y-19630000D02*
X63596359Y-19630000D01*
X63903641Y-18870000D02*
X63596359Y-18870000D01*
%TO.C,F1*%
X23600000Y-47780000D02*
X23600000Y-54720000D01*
X23600000Y-54720000D02*
X43400000Y-54720000D01*
X30100000Y-49250000D02*
X36900000Y-49250000D01*
X30950000Y-51250000D02*
X36050000Y-51250000D01*
X36900000Y-53250000D02*
X30100000Y-53250000D01*
X43400000Y-47780000D02*
X23600000Y-47780000D01*
X43400000Y-54720000D02*
X43400000Y-47780000D01*
%TO.C,C18*%
X57200000Y-43010000D02*
X56200000Y-43010000D01*
X56700000Y-43510000D02*
X56700000Y-42510000D01*
X55960000Y-43695563D02*
X55960000Y-42010000D01*
X55960000Y-43695563D02*
X54895563Y-44760000D01*
X55960000Y-37304437D02*
X55960000Y-38990000D01*
X55960000Y-37304437D02*
X54895563Y-36240000D01*
X54895563Y-44760000D02*
X47440000Y-44760000D01*
X54895563Y-36240000D02*
X47440000Y-36240000D01*
X47440000Y-44760000D02*
X47440000Y-42010000D01*
X47440000Y-36240000D02*
X47440000Y-38990000D01*
%TO.C,J3*%
X48850000Y-13850000D02*
X48850000Y-12600000D01*
X48560000Y-13560000D02*
X48560000Y-7590000D01*
X48560000Y-7590000D02*
X40940000Y-7590000D01*
X48550000Y-13550000D02*
X48550000Y-12800000D01*
X48550000Y-12800000D02*
X46750000Y-12800000D01*
X48550000Y-11300000D02*
X47800000Y-11300000D01*
X47800000Y-11300000D02*
X47800000Y-8350000D01*
X47800000Y-8350000D02*
X44750000Y-8350000D01*
X47600000Y-13850000D02*
X48850000Y-13850000D01*
X46750000Y-13550000D02*
X48550000Y-13550000D01*
X46750000Y-12800000D02*
X46750000Y-13550000D01*
X45250000Y-13550000D02*
X45250000Y-12800000D01*
X45250000Y-12800000D02*
X44250000Y-12800000D01*
X44250000Y-13550000D02*
X45250000Y-13550000D01*
X44250000Y-12800000D02*
X44250000Y-13550000D01*
X42750000Y-13550000D02*
X42750000Y-12800000D01*
X42750000Y-12800000D02*
X40950000Y-12800000D01*
X41700000Y-11300000D02*
X41700000Y-8350000D01*
X41700000Y-8350000D02*
X44750000Y-8350000D01*
X40950000Y-13550000D02*
X42750000Y-13550000D01*
X40950000Y-12800000D02*
X40950000Y-13550000D01*
X40950000Y-11300000D02*
X41700000Y-11300000D01*
X40940000Y-13560000D02*
X48560000Y-13560000D01*
X40940000Y-7590000D02*
X40940000Y-13560000D01*
%TO.C,R9*%
X49830000Y-12896359D02*
X49830000Y-13203641D01*
X49070000Y-12896359D02*
X49070000Y-13203641D01*
%TO.C,C1*%
X59038748Y-34365000D02*
X59561252Y-34365000D01*
X59038748Y-35835000D02*
X59561252Y-35835000D01*
%TO.C,R2*%
X49830000Y-10946359D02*
X49830000Y-11253641D01*
X49070000Y-10946359D02*
X49070000Y-11253641D01*
%TO.C,C7*%
X42857836Y-24860000D02*
X42642164Y-24860000D01*
X42857836Y-24140000D02*
X42642164Y-24140000D01*
%TO.C,R4*%
X54730000Y-26246359D02*
X54730000Y-26553641D01*
X53970000Y-26246359D02*
X53970000Y-26553641D01*
%TO.C,C2*%
X59038748Y-36615000D02*
X59561252Y-36615000D01*
X59038748Y-38085000D02*
X59561252Y-38085000D01*
%TO.C,D5*%
X64735000Y-23175000D02*
X63265000Y-23175000D01*
X63265000Y-23175000D02*
X63265000Y-25460000D01*
X64735000Y-25460000D02*
X64735000Y-23175000D01*
D14*
%TO.C,U2*%
X250000Y-42950000D02*
X250000Y-10950000D01*
X4250000Y-6950000D02*
X36250000Y-6950000D01*
X36250000Y-46950000D02*
X4250000Y-46950000D01*
X40250000Y-10950000D02*
X40250000Y-42950000D01*
X4250000Y-6950000D02*
G75*
G03*
X250000Y-10950000I0J-4000000D01*
G01*
X250000Y-42950000D02*
G75*
G03*
X4250000Y-46950000I4000000J0D01*
G01*
X40250000Y-10950000D02*
G75*
G03*
X36250000Y-6950000I-4000000J0D01*
G01*
X36250000Y-46950000D02*
G75*
G03*
X40250000Y-42950000I0J4000000D01*
G01*
D15*
%TO.C,C10*%
X51792164Y-13590000D02*
X52007836Y-13590000D01*
X51792164Y-14310000D02*
X52007836Y-14310000D01*
%TO.C,D3*%
X63265000Y-22945000D02*
X64735000Y-22945000D01*
X64735000Y-22945000D02*
X64735000Y-20660000D01*
X63265000Y-20660000D02*
X63265000Y-22945000D01*
%TO.C,L1*%
X52180000Y-35680000D02*
X41820000Y-35680000D01*
X52180000Y-33275000D02*
X52180000Y-35680000D01*
X52180000Y-27725000D02*
X52180000Y-25320000D01*
X52180000Y-25320000D02*
X41820000Y-25320000D01*
X41820000Y-35680000D02*
X41820000Y-33275000D01*
X41820000Y-25320000D02*
X41820000Y-27725000D01*
%TO.C,R8*%
X64630000Y-27106359D02*
X64630000Y-27413641D01*
X63870000Y-27106359D02*
X63870000Y-27413641D01*
%TO.C,J4*%
X57090000Y-17040000D02*
X64710000Y-17040000D01*
X64710000Y-17040000D02*
X64710000Y-6880000D01*
X57090000Y-6880000D02*
X57090000Y-17040000D01*
X63440000Y-6880000D02*
X63440000Y-17040000D01*
X64710000Y-6880000D02*
X57090000Y-6880000D01*
%TO.C,D2*%
X53660000Y-24400000D02*
X53660000Y-20100000D01*
X53660000Y-24400000D02*
X47850000Y-24400000D01*
X53660000Y-20100000D02*
X47850000Y-20100000D01*
%TO.C,R15*%
X50253641Y-9930000D02*
X49946359Y-9930000D01*
X50253641Y-9170000D02*
X49946359Y-9170000D01*
%TO.C,C17*%
X57642164Y-50140000D02*
X57857836Y-50140000D01*
X57642164Y-50860000D02*
X57857836Y-50860000D01*
%TO.C,R7*%
X60003641Y-28030000D02*
X59696359Y-28030000D01*
X60003641Y-27270000D02*
X59696359Y-27270000D01*
%TD*%
M02*
