%TF.GenerationSoftware,KiCad,Pcbnew,7.0.10*%
%TF.CreationDate,2024-02-01T11:39:14-06:00*%
%TF.ProjectId,ElectriPi,456c6563-7472-4695-9069-2e6b69636164,rev?*%
%TF.SameCoordinates,Original*%
%TF.FileFunction,Copper,L2,Bot*%
%TF.FilePolarity,Positive*%
%FSLAX46Y46*%
G04 Gerber Fmt 4.6, Leading zero omitted, Abs format (unit mm)*
G04 Created by KiCad (PCBNEW 7.0.10) date 2024-02-01 11:39:14*
%MOMM*%
%LPD*%
G01*
G04 APERTURE LIST*
G04 Aperture macros list*
%AMRoundRect*
0 Rectangle with rounded corners*
0 $1 Rounding radius*
0 $2 $3 $4 $5 $6 $7 $8 $9 X,Y pos of 4 corners*
0 Add a 4 corners polygon primitive as box body*
4,1,4,$2,$3,$4,$5,$6,$7,$8,$9,$2,$3,0*
0 Add four circle primitives for the rounded corners*
1,1,$1+$1,$2,$3*
1,1,$1+$1,$4,$5*
1,1,$1+$1,$6,$7*
1,1,$1+$1,$8,$9*
0 Add four rect primitives between the rounded corners*
20,1,$1+$1,$2,$3,$4,$5,0*
20,1,$1+$1,$4,$5,$6,$7,0*
20,1,$1+$1,$6,$7,$8,$9,0*
20,1,$1+$1,$8,$9,$2,$3,0*%
%AMFreePoly0*
4,1,19,0.550000,-0.750000,0.000000,-0.750000,0.000000,-0.744911,-0.071157,-0.744911,-0.207708,-0.704816,-0.327430,-0.627875,-0.420627,-0.520320,-0.479746,-0.390866,-0.500000,-0.250000,-0.500000,0.250000,-0.479746,0.390866,-0.420627,0.520320,-0.327430,0.627875,-0.207708,0.704816,-0.071157,0.744911,0.000000,0.744911,0.000000,0.750000,0.550000,0.750000,0.550000,-0.750000,0.550000,-0.750000,
$1*%
%AMFreePoly1*
4,1,19,0.000000,0.744911,0.071157,0.744911,0.207708,0.704816,0.327430,0.627875,0.420627,0.520320,0.479746,0.390866,0.500000,0.250000,0.500000,-0.250000,0.479746,-0.390866,0.420627,-0.520320,0.327430,-0.627875,0.207708,-0.704816,0.071157,-0.744911,0.000000,-0.744911,0.000000,-0.750000,-0.550000,-0.750000,-0.550000,0.750000,0.000000,0.750000,0.000000,0.744911,0.000000,0.744911,
$1*%
G04 Aperture macros list end*
%TA.AperFunction,ComponentPad*%
%ADD10RoundRect,0.250000X0.750000X-0.600000X0.750000X0.600000X-0.750000X0.600000X-0.750000X-0.600000X0*%
%TD*%
%TA.AperFunction,ComponentPad*%
%ADD11O,2.000000X1.700000*%
%TD*%
%TA.AperFunction,ComponentPad*%
%ADD12C,4.700000*%
%TD*%
%TA.AperFunction,ComponentPad*%
%ADD13RoundRect,0.250000X-0.750000X0.600000X-0.750000X-0.600000X0.750000X-0.600000X0.750000X0.600000X0*%
%TD*%
%TA.AperFunction,ComponentPad*%
%ADD14R,3.000000X3.000000*%
%TD*%
%TA.AperFunction,ComponentPad*%
%ADD15C,3.000000*%
%TD*%
%TA.AperFunction,ComponentPad*%
%ADD16C,0.500000*%
%TD*%
%TA.AperFunction,SMDPad,CuDef*%
%ADD17R,1.600000X1.600000*%
%TD*%
%TA.AperFunction,ComponentPad*%
%ADD18C,2.780000*%
%TD*%
%TA.AperFunction,ComponentPad*%
%ADD19RoundRect,0.250000X0.600000X0.750000X-0.600000X0.750000X-0.600000X-0.750000X0.600000X-0.750000X0*%
%TD*%
%TA.AperFunction,ComponentPad*%
%ADD20O,1.700000X2.000000*%
%TD*%
%TA.AperFunction,ComponentPad*%
%ADD21C,7.000000*%
%TD*%
%TA.AperFunction,SMDPad,CuDef*%
%ADD22C,1.500000*%
%TD*%
%TA.AperFunction,ComponentPad*%
%ADD23R,1.700000X1.700000*%
%TD*%
%TA.AperFunction,ComponentPad*%
%ADD24O,1.700000X1.700000*%
%TD*%
%TA.AperFunction,SMDPad,CuDef*%
%ADD25FreePoly0,90.000000*%
%TD*%
%TA.AperFunction,SMDPad,CuDef*%
%ADD26R,1.500000X1.000000*%
%TD*%
%TA.AperFunction,SMDPad,CuDef*%
%ADD27FreePoly1,90.000000*%
%TD*%
%TA.AperFunction,ViaPad*%
%ADD28C,0.600000*%
%TD*%
%TA.AperFunction,Conductor*%
%ADD29C,0.500000*%
%TD*%
%TA.AperFunction,Conductor*%
%ADD30C,0.250000*%
%TD*%
%TA.AperFunction,Conductor*%
%ADD31C,1.000000*%
%TD*%
G04 APERTURE END LIST*
%TA.AperFunction,EtchedComponent*%
%TO.C,JP1*%
G36*
X133800000Y-69900000D02*
G01*
X133400000Y-69900000D01*
X133400000Y-69400000D01*
X133800000Y-69400000D01*
X133800000Y-69900000D01*
G37*
%TD.AperFunction*%
%TA.AperFunction,EtchedComponent*%
G36*
X134600000Y-69900000D02*
G01*
X134200000Y-69900000D01*
X134200000Y-69400000D01*
X134600000Y-69400000D01*
X134600000Y-69900000D01*
G37*
%TD.AperFunction*%
%TD*%
D10*
%TO.P,J8,1,Pin_1*%
%TO.N,+5V*%
X146200000Y-64900000D03*
D11*
%TO.P,J8,2,Pin_2*%
%TO.N,GND*%
X146200000Y-62400000D03*
%TD*%
D12*
%TO.P,H2,1*%
%TO.N,N/C*%
X88750000Y-56750000D03*
%TD*%
D13*
%TO.P,J2,1,Pin_1*%
%TO.N,Net-(J1-Pin_1)*%
X95400000Y-103500000D03*
D11*
%TO.P,J2,2,Pin_2*%
%TO.N,GND*%
X95400000Y-106000000D03*
%TD*%
D14*
%TO.P,J1,1,Pin_1*%
%TO.N,Net-(J1-Pin_1)*%
X101060000Y-104500000D03*
D15*
%TO.P,J1,2,Pin_2*%
%TO.N,GND*%
X106140000Y-104500000D03*
%TD*%
D16*
%TO.P,IC2,21,PGND_4*%
%TO.N,GND*%
X142100000Y-82950000D03*
X143200000Y-82950000D03*
D17*
X142650000Y-82400000D03*
D16*
X142100000Y-81850000D03*
X143200000Y-81850000D03*
%TD*%
D18*
%TO.P,F1,1*%
%TO.N,Net-(J1-Pin_1)*%
X112240000Y-102800000D03*
X112240000Y-106200000D03*
%TO.P,F1,2*%
%TO.N,Net-(D1-A2)*%
X125740000Y-102800000D03*
X125740000Y-106200000D03*
%TD*%
D19*
%TO.P,J3,1,Pin_1*%
%TO.N,Net-(J3-Pin_1)*%
X131250000Y-64350000D03*
D20*
%TO.P,J3,2,Pin_2*%
%TO.N,GND*%
X128750000Y-64350000D03*
%TD*%
D12*
%TO.P,H3,1*%
%TO.N,N/C*%
X146750000Y-56750000D03*
%TD*%
D21*
%TO.P,U2,1*%
%TO.N,N/C*%
X89500000Y-64200000D03*
%TO.P,U2,2*%
X121500000Y-64200000D03*
%TO.P,U2,3*%
X89500000Y-96200000D03*
%TO.P,U2,4*%
X121500000Y-96200000D03*
%TD*%
D12*
%TO.P,H1,1*%
%TO.N,N/C*%
X146750000Y-105750000D03*
%TD*%
%TO.P,H4,1*%
%TO.N,N/C*%
X88750000Y-105750000D03*
%TD*%
D22*
%TO.P,TP5,1,1*%
%TO.N,5V_PI*%
X130000000Y-61500000D03*
%TD*%
D23*
%TO.P,J6,1,3V3*%
%TO.N,unconnected-(J6-3V3-Pad1)*%
X93620000Y-58020000D03*
D24*
%TO.P,J6,2,5V*%
%TO.N,5V_PI*%
X93620000Y-55480000D03*
%TO.P,J6,3,SDA/GPIO2*%
%TO.N,unconnected-(J6-SDA{slash}GPIO2-Pad3)*%
X96160000Y-58020000D03*
%TO.P,J6,4,5V*%
%TO.N,5V_PI*%
X96160000Y-55480000D03*
%TO.P,J6,5,SCL/GPIO3*%
%TO.N,unconnected-(J6-SCL{slash}GPIO3-Pad5)*%
X98700000Y-58020000D03*
%TO.P,J6,6,GND*%
%TO.N,GND*%
X98700000Y-55480000D03*
%TO.P,J6,7,GCLK0/GPIO4*%
%TO.N,unconnected-(J6-GCLK0{slash}GPIO4-Pad7)*%
X101240000Y-58020000D03*
%TO.P,J6,8,GPIO14/TXD*%
%TO.N,unconnected-(J6-GPIO14{slash}TXD-Pad8)*%
X101240000Y-55480000D03*
%TO.P,J6,9,GND*%
%TO.N,GND*%
X103780000Y-58020000D03*
%TO.P,J6,10,GPIO15/RXD*%
%TO.N,unconnected-(J6-GPIO15{slash}RXD-Pad10)*%
X103780000Y-55480000D03*
%TO.P,J6,11,GPIO17*%
%TO.N,unconnected-(J6-GPIO17-Pad11)*%
X106320000Y-58020000D03*
%TO.P,J6,12,GPIO18/PWM0*%
%TO.N,unconnected-(J6-GPIO18{slash}PWM0-Pad12)*%
X106320000Y-55480000D03*
%TO.P,J6,13,GPIO27*%
%TO.N,unconnected-(J6-GPIO27-Pad13)*%
X108860000Y-58020000D03*
%TO.P,J6,14,GND*%
%TO.N,GND*%
X108860000Y-55480000D03*
%TO.P,J6,15,GPIO22*%
%TO.N,unconnected-(J6-GPIO22-Pad15)*%
X111400000Y-58020000D03*
%TO.P,J6,16,GPIO23*%
%TO.N,unconnected-(J6-GPIO23-Pad16)*%
X111400000Y-55480000D03*
%TO.P,J6,17,3V3*%
%TO.N,unconnected-(J6-3V3-Pad17)*%
X113940000Y-58020000D03*
%TO.P,J6,18,GPIO24*%
%TO.N,unconnected-(J6-GPIO24-Pad18)*%
X113940000Y-55480000D03*
%TO.P,J6,19,MOSI0/GPIO10*%
%TO.N,unconnected-(J6-MOSI0{slash}GPIO10-Pad19)*%
X116480000Y-58020000D03*
%TO.P,J6,20,GND*%
%TO.N,GND*%
X116480000Y-55480000D03*
%TO.P,J6,21,MISO0/GPIO9*%
%TO.N,unconnected-(J6-MISO0{slash}GPIO9-Pad21)*%
X119020000Y-58020000D03*
%TO.P,J6,22,GPIO25*%
%TO.N,unconnected-(J6-GPIO25-Pad22)*%
X119020000Y-55480000D03*
%TO.P,J6,23,SCLK0/GPIO11*%
%TO.N,unconnected-(J6-SCLK0{slash}GPIO11-Pad23)*%
X121560000Y-58020000D03*
%TO.P,J6,24,~{CE0}/GPIO8*%
%TO.N,unconnected-(J6-~{CE0}{slash}GPIO8-Pad24)*%
X121560000Y-55480000D03*
%TO.P,J6,25,GND*%
%TO.N,GND*%
X124100000Y-58020000D03*
%TO.P,J6,26,~{CE1}/GPIO7*%
%TO.N,unconnected-(J6-~{CE1}{slash}GPIO7-Pad26)*%
X124100000Y-55480000D03*
%TO.P,J6,27,ID_SD/GPIO0*%
%TO.N,unconnected-(J6-ID_SD{slash}GPIO0-Pad27)*%
X126640000Y-58020000D03*
%TO.P,J6,28,ID_SC/GPIO1*%
%TO.N,unconnected-(J6-ID_SC{slash}GPIO1-Pad28)*%
X126640000Y-55480000D03*
%TO.P,J6,29,GCLK1/GPIO5*%
%TO.N,unconnected-(J6-GCLK1{slash}GPIO5-Pad29)*%
X129180000Y-58020000D03*
%TO.P,J6,30,GND*%
%TO.N,GND*%
X129180000Y-55480000D03*
%TO.P,J6,31,GCLK2/GPIO6*%
%TO.N,unconnected-(J6-GCLK2{slash}GPIO6-Pad31)*%
X131720000Y-58020000D03*
%TO.P,J6,32,PWM0/GPIO12*%
%TO.N,unconnected-(J6-PWM0{slash}GPIO12-Pad32)*%
X131720000Y-55480000D03*
%TO.P,J6,33,PWM1/GPIO13*%
%TO.N,unconnected-(J6-PWM1{slash}GPIO13-Pad33)*%
X134260000Y-58020000D03*
%TO.P,J6,34,GND*%
%TO.N,GND*%
X134260000Y-55480000D03*
%TO.P,J6,35,GPIO19/MISO1*%
%TO.N,unconnected-(J6-GPIO19{slash}MISO1-Pad35)*%
X136800000Y-58020000D03*
%TO.P,J6,36,GPIO16*%
%TO.N,unconnected-(J6-GPIO16-Pad36)*%
X136800000Y-55480000D03*
%TO.P,J6,37,GPIO26*%
%TO.N,unconnected-(J6-GPIO26-Pad37)*%
X139340000Y-58020000D03*
%TO.P,J6,38,GPIO20/MOSI1*%
%TO.N,unconnected-(J6-GPIO20{slash}MOSI1-Pad38)*%
X139340000Y-55480000D03*
%TO.P,J6,39,GND*%
%TO.N,GND*%
X141880000Y-58020000D03*
%TO.P,J6,40,GPIO21/SCLK1*%
%TO.N,unconnected-(J6-GPIO21{slash}SCLK1-Pad40)*%
X141880000Y-55480000D03*
%TD*%
D25*
%TO.P,JP1,1,A*%
%TO.N,Vin*%
X134000000Y-70300000D03*
D26*
%TO.P,JP1,2,C*%
%TO.N,Net-(J3-Pin_1)*%
X134000000Y-69000000D03*
D27*
%TO.P,JP1,3,B*%
%TO.N,+5V*%
X134000000Y-67700000D03*
%TD*%
D22*
%TO.P,TP4,1,1*%
%TO.N,Vin*%
X140750000Y-98000000D03*
%TD*%
%TO.P,TP1,1,1*%
%TO.N,+5V*%
X137500000Y-72500000D03*
%TD*%
%TO.P,TP6,1,1*%
%TO.N,GND*%
X130000000Y-75000000D03*
%TD*%
%TO.P,TP2,1,1*%
%TO.N,Net-(J1-Pin_1)*%
X104000000Y-101500000D03*
%TD*%
%TO.P,TP3,1,1*%
%TO.N,Net-(D1-A2)*%
X135000000Y-104000000D03*
%TD*%
D28*
%TO.N,VCC*%
X139500000Y-82800000D03*
X146500000Y-77000000D03*
X146500000Y-80800000D03*
X139500000Y-77000000D03*
%TO.N,GND*%
X141500000Y-65450000D03*
X147500000Y-84500000D03*
X136000000Y-62050000D03*
X126250000Y-73750000D03*
X146250000Y-83750000D03*
X126250000Y-73000000D03*
X133750000Y-97000000D03*
X147500000Y-87500000D03*
X146500000Y-85000000D03*
X135000000Y-95750000D03*
X145750000Y-83250000D03*
X144250000Y-81050000D03*
X146500000Y-89500000D03*
X143500000Y-60350000D03*
X126250000Y-70000000D03*
X136250000Y-95750000D03*
X132250000Y-99500000D03*
X142500000Y-61350000D03*
X145750000Y-84250000D03*
X133750000Y-98000000D03*
X135000000Y-97000000D03*
X142500000Y-63350000D03*
X141500000Y-67450000D03*
X140750000Y-80000000D03*
X145750000Y-85000000D03*
X148250000Y-72750000D03*
X145250000Y-83750000D03*
X141500000Y-68450000D03*
X142500000Y-60350000D03*
X132250000Y-98000000D03*
X132250000Y-97000000D03*
X141500000Y-66450000D03*
X146750000Y-83250000D03*
X136250000Y-91500000D03*
X127000000Y-70750000D03*
X142500000Y-62350000D03*
X147500000Y-88500000D03*
X146500000Y-85750000D03*
X126250000Y-76750000D03*
X128750000Y-68000000D03*
X140000000Y-68450000D03*
X135000000Y-91500000D03*
X146750000Y-84250000D03*
X136250000Y-94250000D03*
X145250000Y-82750000D03*
X143500000Y-62350000D03*
X145750000Y-85750000D03*
X126250000Y-77500000D03*
X146250000Y-82750000D03*
X133750000Y-91500000D03*
X132250000Y-91500000D03*
X136250000Y-98000000D03*
X147500000Y-78250000D03*
X147500000Y-89500000D03*
X140750000Y-80750000D03*
X126250000Y-72250000D03*
X146500000Y-88500000D03*
X133750000Y-95750000D03*
X126250000Y-76000000D03*
X136250000Y-92750000D03*
X143500000Y-63350000D03*
X143500000Y-61350000D03*
X127000000Y-70000000D03*
X136250000Y-97000000D03*
X135000000Y-98000000D03*
X147500000Y-83500000D03*
X140500000Y-67450000D03*
X132250000Y-95750000D03*
X142500000Y-106750000D03*
X126250000Y-75250000D03*
X126250000Y-70750000D03*
X132250000Y-101000000D03*
X148250000Y-74500000D03*
X147500000Y-85500000D03*
X143500000Y-104750000D03*
X146500000Y-86500000D03*
X127000000Y-71500000D03*
X147500000Y-86500000D03*
X126250000Y-71500000D03*
X126250000Y-74500000D03*
X146500000Y-87500000D03*
%TO.N,+5V*%
X144000000Y-76750000D03*
X136000000Y-72500000D03*
X135050000Y-64450000D03*
X135050000Y-67650000D03*
X144000000Y-74000000D03*
X139000000Y-72500000D03*
%TO.N,Vin*%
X149500000Y-80500000D03*
X149500000Y-79750000D03*
X140750000Y-96750000D03*
X149500000Y-81250000D03*
X149500000Y-79000000D03*
X140750000Y-99250000D03*
%TO.N,5V_PI*%
X128500000Y-61500000D03*
X131500000Y-61500000D03*
%TO.N,Net-(J1-Pin_1)*%
X102750000Y-101500000D03*
X105250000Y-101500000D03*
%TO.N,SW*%
X144250000Y-84050000D03*
X141125500Y-84050000D03*
%TO.N,Net-(J3-Pin_1)*%
X130750000Y-69000000D03*
X131750000Y-69000000D03*
%TO.N,Net-(D1-A2)*%
X133500000Y-104000000D03*
X136500000Y-104000000D03*
%TD*%
D29*
%TO.N,VCC*%
X139500000Y-77000000D02*
X139500000Y-82800000D01*
D30*
X146500000Y-80800000D02*
X146500000Y-77000000D01*
D29*
%TO.N,+5V*%
X135050000Y-67650000D02*
X135050000Y-64450000D01*
D31*
X135000000Y-67700000D02*
X135050000Y-67650000D01*
X134000000Y-67700000D02*
X135000000Y-67700000D01*
D30*
X144000000Y-74000000D02*
X144000000Y-76750000D01*
D31*
X139000000Y-72500000D02*
X137500000Y-72500000D01*
X136000000Y-72500000D02*
X137500000Y-72500000D01*
%TO.N,Vin*%
X149200000Y-70300000D02*
X134000000Y-70300000D01*
X140750000Y-96750000D02*
X140750000Y-99250000D01*
%TO.N,5V_PI*%
X130000000Y-61500000D02*
X131500000Y-61500000D01*
X130000000Y-61500000D02*
X128500000Y-61500000D01*
%TO.N,Net-(J1-Pin_1)*%
X104000000Y-101500000D02*
X105250000Y-101500000D01*
X102750000Y-101500000D02*
X104000000Y-101500000D01*
D30*
%TO.N,SW*%
X141125500Y-84050000D02*
X144250000Y-84050000D01*
D31*
%TO.N,Net-(J3-Pin_1)*%
X130750000Y-69000000D02*
X134000000Y-69000000D01*
%TO.N,Net-(D1-A2)*%
X135000000Y-104000000D02*
X133500000Y-104000000D01*
X135000000Y-104000000D02*
X136500000Y-104000000D01*
%TD*%
%TA.AperFunction,Conductor*%
%TO.N,Net-(J3-Pin_1)*%
G36*
X132012040Y-68502408D02*
G01*
X132400319Y-68580063D01*
X132462195Y-68612513D01*
X132496706Y-68673264D01*
X132500000Y-68701655D01*
X132500000Y-69298344D01*
X132480315Y-69365383D01*
X132427511Y-69411138D01*
X132400319Y-69419936D01*
X132206180Y-69458764D01*
X132012039Y-69497592D01*
X131987722Y-69500000D01*
X130374000Y-69500000D01*
X130306961Y-69480315D01*
X130261206Y-69427511D01*
X130250000Y-69376000D01*
X130250000Y-68624000D01*
X130269685Y-68556961D01*
X130322489Y-68511206D01*
X130374000Y-68500000D01*
X131987722Y-68500000D01*
X132012040Y-68502408D01*
G37*
%TD.AperFunction*%
%TD*%
%TA.AperFunction,Conductor*%
%TO.N,Vin*%
G36*
X149992539Y-69769685D02*
G01*
X150038294Y-69822489D01*
X150049500Y-69874000D01*
X150049500Y-81876000D01*
X150029815Y-81943039D01*
X149977011Y-81988794D01*
X149925500Y-82000000D01*
X148874000Y-82000000D01*
X148806961Y-81980315D01*
X148761206Y-81927511D01*
X148750000Y-81876000D01*
X148750000Y-74876908D01*
X148769685Y-74809869D01*
X148774119Y-74803561D01*
X148774530Y-74802847D01*
X148774536Y-74802841D01*
X148835044Y-74656762D01*
X148855682Y-74500000D01*
X148835044Y-74343238D01*
X148774536Y-74197159D01*
X148774534Y-74197156D01*
X148770474Y-74190123D01*
X148772011Y-74189235D01*
X148750429Y-74133402D01*
X148750000Y-74123091D01*
X148750000Y-73126908D01*
X148769685Y-73059869D01*
X148774119Y-73053561D01*
X148774530Y-73052847D01*
X148774536Y-73052841D01*
X148835044Y-72906762D01*
X148855682Y-72750000D01*
X148835044Y-72593238D01*
X148774536Y-72447159D01*
X148774534Y-72447156D01*
X148770474Y-72440123D01*
X148772011Y-72439235D01*
X148750429Y-72383402D01*
X148750000Y-72373091D01*
X148750000Y-69874000D01*
X148769685Y-69806961D01*
X148822489Y-69761206D01*
X148874000Y-69750000D01*
X149925500Y-69750000D01*
X149992539Y-69769685D01*
G37*
%TD.AperFunction*%
%TD*%
%TA.AperFunction,Conductor*%
%TO.N,GND*%
G36*
X147252777Y-53450655D02*
G01*
X147557898Y-53467791D01*
X147568921Y-53469033D01*
X147867476Y-53519759D01*
X147878270Y-53522222D01*
X148169279Y-53606061D01*
X148179750Y-53609725D01*
X148459523Y-53725611D01*
X148469525Y-53730428D01*
X148734555Y-53876905D01*
X148743955Y-53882811D01*
X148990930Y-54058049D01*
X148999610Y-54064972D01*
X149225399Y-54266750D01*
X149233249Y-54274600D01*
X149435027Y-54500389D01*
X149441950Y-54509069D01*
X149617188Y-54756044D01*
X149623094Y-54765444D01*
X149769571Y-55030474D01*
X149774388Y-55040476D01*
X149890272Y-55320245D01*
X149893939Y-55330724D01*
X149977773Y-55621714D01*
X149980243Y-55632538D01*
X150030965Y-55931073D01*
X150032208Y-55942105D01*
X150049344Y-56247222D01*
X150049500Y-56252773D01*
X150049500Y-69348076D01*
X150030593Y-69406267D01*
X149981093Y-69442231D01*
X149936416Y-69446069D01*
X149927684Y-69444814D01*
X149925500Y-69444500D01*
X148874000Y-69444500D01*
X148828411Y-69449401D01*
X148809048Y-69451483D01*
X148757574Y-69462681D01*
X148757554Y-69462686D01*
X148757548Y-69462688D01*
X148740617Y-69467544D01*
X148719340Y-69473646D01*
X148698290Y-69485958D01*
X148648311Y-69499500D01*
X135149500Y-69499500D01*
X135091309Y-69480593D01*
X135055345Y-69431093D01*
X135050500Y-69400500D01*
X135050499Y-68588510D01*
X135069406Y-68530319D01*
X135118906Y-68494355D01*
X135127428Y-68492002D01*
X135128536Y-68491748D01*
X135128838Y-68491679D01*
X135139810Y-68489812D01*
X135179255Y-68485368D01*
X135216718Y-68472258D01*
X135227373Y-68469190D01*
X135266054Y-68460362D01*
X135266055Y-68460361D01*
X135266061Y-68460360D01*
X135301819Y-68443139D01*
X135312051Y-68438900D01*
X135349522Y-68425789D01*
X135383125Y-68404673D01*
X135392826Y-68399311D01*
X135428587Y-68382091D01*
X135459607Y-68357351D01*
X135468660Y-68350929D01*
X135479332Y-68344223D01*
X135502262Y-68329816D01*
X135629816Y-68202262D01*
X135629816Y-68202260D01*
X135637966Y-68194111D01*
X135637967Y-68194109D01*
X135647826Y-68184251D01*
X135732092Y-68078586D01*
X135810360Y-67916061D01*
X135850500Y-67740194D01*
X135850500Y-67559805D01*
X135810360Y-67383939D01*
X135770517Y-67301204D01*
X135732093Y-67221413D01*
X135622099Y-67083486D01*
X135600600Y-67026202D01*
X135600500Y-67021760D01*
X135600500Y-65543106D01*
X144899500Y-65543106D01*
X144910123Y-65631565D01*
X144965637Y-65772339D01*
X144965638Y-65772341D01*
X144965639Y-65772342D01*
X145057078Y-65892922D01*
X145177658Y-65984361D01*
X145177659Y-65984361D01*
X145177660Y-65984362D01*
X145248047Y-66012119D01*
X145318436Y-66039877D01*
X145406898Y-66050500D01*
X145406900Y-66050500D01*
X146993100Y-66050500D01*
X146993102Y-66050500D01*
X147081564Y-66039877D01*
X147222342Y-65984361D01*
X147342922Y-65892922D01*
X147434361Y-65772342D01*
X147489877Y-65631564D01*
X147500500Y-65543102D01*
X147500500Y-64256898D01*
X147489877Y-64168436D01*
X147434361Y-64027658D01*
X147342922Y-63907078D01*
X147222342Y-63815639D01*
X147222341Y-63815638D01*
X147222339Y-63815637D01*
X147081565Y-63760123D01*
X146993106Y-63749500D01*
X146993102Y-63749500D01*
X145406898Y-63749500D01*
X145406893Y-63749500D01*
X145318434Y-63760123D01*
X145177660Y-63815637D01*
X145177656Y-63815640D01*
X145057081Y-63907075D01*
X145057075Y-63907081D01*
X144965640Y-64027656D01*
X144965637Y-64027660D01*
X144910123Y-64168434D01*
X144899500Y-64256893D01*
X144899500Y-65543106D01*
X135600500Y-65543106D01*
X135600500Y-64709850D01*
X135608036Y-64671964D01*
X135635044Y-64606762D01*
X135655682Y-64450000D01*
X135635044Y-64293238D01*
X135619992Y-64256899D01*
X135574537Y-64147161D01*
X135574537Y-64147160D01*
X135478286Y-64021723D01*
X135478285Y-64021722D01*
X135478282Y-64021718D01*
X135478277Y-64021714D01*
X135478276Y-64021713D01*
X135385806Y-63950759D01*
X135352841Y-63925464D01*
X135352840Y-63925463D01*
X135352838Y-63925462D01*
X135206766Y-63864957D01*
X135206758Y-63864955D01*
X135050001Y-63844318D01*
X135049999Y-63844318D01*
X134893241Y-63864955D01*
X134893233Y-63864957D01*
X134747161Y-63925462D01*
X134747160Y-63925462D01*
X134621723Y-64021713D01*
X134621713Y-64021723D01*
X134525462Y-64147160D01*
X134525462Y-64147161D01*
X134464957Y-64293233D01*
X134464955Y-64293241D01*
X134444318Y-64449999D01*
X134444318Y-64450000D01*
X134464955Y-64606758D01*
X134464956Y-64606763D01*
X134491964Y-64671964D01*
X134499500Y-64709850D01*
X134499500Y-66800500D01*
X134480593Y-66858691D01*
X134431093Y-66894655D01*
X134400500Y-66899500D01*
X134350906Y-66899500D01*
X134336817Y-66898492D01*
X134323864Y-66896629D01*
X134293510Y-66892265D01*
X134293507Y-66892265D01*
X134206494Y-66892265D01*
X134199382Y-66893287D01*
X134185295Y-66894295D01*
X133814705Y-66894295D01*
X133800617Y-66893287D01*
X133793506Y-66892265D01*
X133706493Y-66892265D01*
X133706489Y-66892265D01*
X133564180Y-66912726D01*
X133564176Y-66912727D01*
X133480695Y-66937239D01*
X133480691Y-66937240D01*
X133480690Y-66937241D01*
X133349905Y-66996969D01*
X133349903Y-66996970D01*
X133349895Y-66996974D01*
X133276714Y-67044004D01*
X133276701Y-67044013D01*
X133168055Y-67138155D01*
X133168037Y-67138173D01*
X133111066Y-67203921D01*
X133111057Y-67203933D01*
X133033336Y-67324870D01*
X133033332Y-67324877D01*
X133033331Y-67324880D01*
X133006358Y-67383944D01*
X132997183Y-67404034D01*
X132956678Y-67541982D01*
X132956677Y-67541986D01*
X132944295Y-67628106D01*
X132944295Y-68100500D01*
X132925388Y-68158691D01*
X132875888Y-68194655D01*
X132845295Y-68199500D01*
X132056893Y-68199500D01*
X132043358Y-68198496D01*
X132043357Y-68198515D01*
X132043341Y-68198513D01*
X132043338Y-68198543D01*
X132042383Y-68198424D01*
X132042300Y-68198418D01*
X132042231Y-68198408D01*
X132042134Y-68198393D01*
X132017845Y-68195988D01*
X132017818Y-68195986D01*
X131987736Y-68194500D01*
X131987722Y-68194500D01*
X130374000Y-68194500D01*
X130328411Y-68199401D01*
X130309048Y-68201483D01*
X130257574Y-68212681D01*
X130257554Y-68212686D01*
X130257548Y-68212688D01*
X130219342Y-68223646D01*
X130122426Y-68280327D01*
X130069625Y-68326079D01*
X130069624Y-68326080D01*
X130027446Y-68370814D01*
X129976562Y-68470885D01*
X129976559Y-68470892D01*
X129956877Y-68537921D01*
X129956875Y-68537931D01*
X129944500Y-68624000D01*
X129944500Y-68993860D01*
X129944434Y-68995033D01*
X129944435Y-69005001D01*
X129944500Y-69006140D01*
X129944500Y-69375996D01*
X129951483Y-69440951D01*
X129962681Y-69492425D01*
X129962685Y-69492441D01*
X129962688Y-69492452D01*
X129973646Y-69530658D01*
X130030325Y-69627571D01*
X130076080Y-69680375D01*
X130120813Y-69722553D01*
X130220889Y-69773439D01*
X130287928Y-69793124D01*
X130374000Y-69805500D01*
X130374001Y-69805500D01*
X131987733Y-69805500D01*
X131987736Y-69805499D01*
X132017827Y-69804013D01*
X132017842Y-69804011D01*
X132017850Y-69804011D01*
X132042134Y-69801606D01*
X132042134Y-69801605D01*
X132042144Y-69801605D01*
X132042272Y-69801585D01*
X132042299Y-69801582D01*
X132042378Y-69801576D01*
X132043346Y-69801456D01*
X132043349Y-69801486D01*
X132043360Y-69801485D01*
X132043361Y-69801503D01*
X132056896Y-69800500D01*
X132845295Y-69800500D01*
X132903486Y-69819407D01*
X132939450Y-69868907D01*
X132944295Y-69899500D01*
X132944295Y-70371893D01*
X132956677Y-70458013D01*
X132956678Y-70458016D01*
X132997185Y-70595971D01*
X133033331Y-70675120D01*
X133033332Y-70675122D01*
X133033336Y-70675129D01*
X133111057Y-70796066D01*
X133111063Y-70796074D01*
X133168046Y-70861836D01*
X133168053Y-70861842D01*
X133168055Y-70861844D01*
X133276701Y-70955986D01*
X133276714Y-70955995D01*
X133349895Y-71003025D01*
X133349897Y-71003026D01*
X133349905Y-71003031D01*
X133480690Y-71062759D01*
X133564178Y-71087273D01*
X133611616Y-71094093D01*
X133706489Y-71107735D01*
X133706493Y-71107735D01*
X133793505Y-71107735D01*
X133793506Y-71107735D01*
X133800617Y-71106712D01*
X133814705Y-71105705D01*
X134185295Y-71105705D01*
X134199382Y-71106712D01*
X134206494Y-71107735D01*
X134206495Y-71107735D01*
X134293510Y-71107735D01*
X134323864Y-71103370D01*
X134336817Y-71101507D01*
X134350906Y-71100500D01*
X148345500Y-71100500D01*
X148403691Y-71119407D01*
X148439655Y-71168907D01*
X148444500Y-71199500D01*
X148444500Y-72373070D01*
X148444765Y-72385834D01*
X148445191Y-72396088D01*
X148445193Y-72396101D01*
X148465476Y-72493547D01*
X148478234Y-72526552D01*
X148478460Y-72530683D01*
X148498520Y-72579111D01*
X148499397Y-72581301D01*
X148500513Y-72584188D01*
X148501181Y-72585534D01*
X148532420Y-72660949D01*
X148539109Y-72685915D01*
X148545844Y-72737077D01*
X148545844Y-72762919D01*
X148539108Y-72814087D01*
X148532419Y-72839052D01*
X148477953Y-72970544D01*
X148476950Y-72972785D01*
X148476564Y-72973788D01*
X148456874Y-73040840D01*
X148444500Y-73126908D01*
X148444500Y-74123070D01*
X148444765Y-74135834D01*
X148445191Y-74146088D01*
X148445193Y-74146101D01*
X148465476Y-74243547D01*
X148478234Y-74276552D01*
X148478460Y-74280683D01*
X148498520Y-74329111D01*
X148499397Y-74331301D01*
X148500513Y-74334188D01*
X148501181Y-74335534D01*
X148530917Y-74407322D01*
X148532420Y-74410949D01*
X148539109Y-74435915D01*
X148545844Y-74487077D01*
X148545844Y-74512919D01*
X148539108Y-74564087D01*
X148532419Y-74589052D01*
X148477953Y-74720544D01*
X148476950Y-74722785D01*
X148476564Y-74723788D01*
X148456874Y-74790840D01*
X148444500Y-74876908D01*
X148444500Y-81876000D01*
X148450444Y-81931291D01*
X148451483Y-81940951D01*
X148462681Y-81992425D01*
X148462685Y-81992441D01*
X148462688Y-81992452D01*
X148473646Y-82030658D01*
X148530325Y-82127571D01*
X148576080Y-82180375D01*
X148620813Y-82222553D01*
X148720889Y-82273439D01*
X148720891Y-82273439D01*
X148720892Y-82273440D01*
X148787921Y-82293122D01*
X148787928Y-82293124D01*
X148874000Y-82305500D01*
X148874001Y-82305500D01*
X149925498Y-82305500D01*
X149925500Y-82305500D01*
X149939914Y-82303950D01*
X149999793Y-82316526D01*
X150040843Y-82361897D01*
X150049500Y-82402382D01*
X150049500Y-106247226D01*
X150049344Y-106252777D01*
X150032208Y-106557894D01*
X150030965Y-106568926D01*
X149980243Y-106867461D01*
X149977773Y-106878285D01*
X149893939Y-107169275D01*
X149890272Y-107179754D01*
X149774388Y-107459523D01*
X149769571Y-107469525D01*
X149623094Y-107734555D01*
X149617188Y-107743955D01*
X149441950Y-107990930D01*
X149435027Y-107999610D01*
X149233249Y-108225399D01*
X149225399Y-108233249D01*
X148999610Y-108435027D01*
X148990930Y-108441950D01*
X148743955Y-108617188D01*
X148734555Y-108623094D01*
X148469525Y-108769571D01*
X148459523Y-108774388D01*
X148179754Y-108890272D01*
X148169275Y-108893939D01*
X147878285Y-108977773D01*
X147867461Y-108980243D01*
X147568926Y-109030965D01*
X147557894Y-109032208D01*
X147252778Y-109049344D01*
X147247227Y-109049500D01*
X88252773Y-109049500D01*
X88247222Y-109049344D01*
X87942105Y-109032208D01*
X87931073Y-109030965D01*
X87632538Y-108980243D01*
X87621716Y-108977773D01*
X87547239Y-108956317D01*
X87330724Y-108893939D01*
X87320245Y-108890272D01*
X87040476Y-108774388D01*
X87030474Y-108769571D01*
X86765444Y-108623094D01*
X86756044Y-108617188D01*
X86509069Y-108441950D01*
X86500389Y-108435027D01*
X86274600Y-108233249D01*
X86266750Y-108225399D01*
X86064972Y-107999610D01*
X86058049Y-107990930D01*
X85882811Y-107743955D01*
X85876905Y-107734555D01*
X85730428Y-107469525D01*
X85725611Y-107459523D01*
X85609727Y-107179754D01*
X85606060Y-107169275D01*
X85601937Y-107154963D01*
X85522222Y-106878270D01*
X85519759Y-106867476D01*
X85469033Y-106568921D01*
X85467791Y-106557894D01*
X85463679Y-106484680D01*
X85450656Y-106252777D01*
X85450500Y-106247226D01*
X85450500Y-105750006D01*
X86094655Y-105750006D01*
X86114013Y-106070055D01*
X86114016Y-106070080D01*
X86171813Y-106385462D01*
X86171813Y-106385464D01*
X86267209Y-106691599D01*
X86270848Y-106699684D01*
X86398809Y-106984000D01*
X86398813Y-106984008D01*
X86398817Y-106984014D01*
X86564685Y-107258394D01*
X86564689Y-107258400D01*
X86564694Y-107258408D01*
X86762446Y-107510819D01*
X86989181Y-107737554D01*
X87241592Y-107935306D01*
X87241603Y-107935312D01*
X87241605Y-107935314D01*
X87341099Y-107995460D01*
X87516000Y-108101191D01*
X87808402Y-108232791D01*
X88114534Y-108328186D01*
X88218172Y-108347178D01*
X88429919Y-108385983D01*
X88429930Y-108385984D01*
X88429934Y-108385985D01*
X88429937Y-108385985D01*
X88429944Y-108385986D01*
X88749994Y-108405345D01*
X88750000Y-108405345D01*
X88750006Y-108405345D01*
X89070055Y-108385986D01*
X89070060Y-108385985D01*
X89070066Y-108385985D01*
X89070071Y-108385984D01*
X89070080Y-108385983D01*
X89207438Y-108360810D01*
X89385466Y-108328186D01*
X89691598Y-108232791D01*
X89984000Y-108101191D01*
X90258408Y-107935306D01*
X90510819Y-107737554D01*
X90737554Y-107510819D01*
X90935306Y-107258408D01*
X91101191Y-106984000D01*
X91232791Y-106691598D01*
X91292496Y-106500000D01*
X94326672Y-106500000D01*
X94372730Y-106586169D01*
X94503940Y-106746050D01*
X94503949Y-106746059D01*
X94663829Y-106877268D01*
X94663839Y-106877275D01*
X94846235Y-106974767D01*
X94900000Y-106991075D01*
X95900000Y-106991075D01*
X95953764Y-106974767D01*
X96136160Y-106877275D01*
X96136170Y-106877268D01*
X96296050Y-106746059D01*
X96296059Y-106746050D01*
X96427269Y-106586169D01*
X96473328Y-106500000D01*
X95900001Y-106500000D01*
X95900000Y-106500001D01*
X95900000Y-106991075D01*
X94900000Y-106991075D01*
X94900000Y-106500001D01*
X94899999Y-106500000D01*
X94326672Y-106500000D01*
X91292496Y-106500000D01*
X91328186Y-106385466D01*
X91380109Y-106102131D01*
X91385651Y-106071889D01*
X94900000Y-106071889D01*
X94940507Y-106209844D01*
X95018239Y-106330798D01*
X95126900Y-106424952D01*
X95257685Y-106484680D01*
X95364237Y-106500000D01*
X95435763Y-106500000D01*
X95542315Y-106484680D01*
X95673100Y-106424952D01*
X95781761Y-106330798D01*
X95859493Y-106209844D01*
X95900000Y-106071889D01*
X95900000Y-106044860D01*
X99259500Y-106044860D01*
X99259501Y-106044863D01*
X99262414Y-106069990D01*
X99269891Y-106086923D01*
X99307794Y-106172765D01*
X99387235Y-106252206D01*
X99490009Y-106297585D01*
X99515135Y-106300500D01*
X102604864Y-106300499D01*
X102629991Y-106297585D01*
X102732765Y-106252206D01*
X102812206Y-106172765D01*
X102857585Y-106069991D01*
X102860500Y-106044865D01*
X102860500Y-104500002D01*
X104435233Y-104500002D01*
X104454273Y-104754076D01*
X104454275Y-104754086D01*
X104510970Y-105002487D01*
X104510970Y-105002489D01*
X104604055Y-105239664D01*
X104604059Y-105239673D01*
X104636693Y-105296197D01*
X105377961Y-104554928D01*
X105406971Y-104719454D01*
X105477340Y-104882587D01*
X105583433Y-105025094D01*
X105719530Y-105139294D01*
X105878295Y-105219028D01*
X106051169Y-105260000D01*
X106087106Y-105260000D01*
X105343718Y-106003388D01*
X105517181Y-106086923D01*
X105760649Y-106162023D01*
X105760659Y-106162025D01*
X106012599Y-106199999D01*
X106012608Y-106200000D01*
X106267392Y-106200000D01*
X110544760Y-106200000D01*
X110563693Y-106452657D01*
X110563694Y-106452663D01*
X110620075Y-106699684D01*
X110712639Y-106935530D01*
X110712643Y-106935539D01*
X110839329Y-107154966D01*
X110839333Y-107154971D01*
X110997296Y-107353052D01*
X110997302Y-107353058D01*
X111183028Y-107525386D01*
X111183030Y-107525387D01*
X111183035Y-107525392D01*
X111392380Y-107668121D01*
X111620659Y-107778054D01*
X111862774Y-107852737D01*
X112113315Y-107890500D01*
X112113320Y-107890500D01*
X112366680Y-107890500D01*
X112366685Y-107890500D01*
X112617226Y-107852737D01*
X112859341Y-107778054D01*
X113087620Y-107668121D01*
X113296965Y-107525392D01*
X113482699Y-107353056D01*
X113482703Y-107353052D01*
X113572170Y-107240862D01*
X113640673Y-107154963D01*
X113767358Y-106935537D01*
X113859925Y-106699681D01*
X113916306Y-106452662D01*
X113935240Y-106200000D01*
X124044760Y-106200000D01*
X124063693Y-106452657D01*
X124063694Y-106452663D01*
X124120075Y-106699684D01*
X124212639Y-106935530D01*
X124212643Y-106935539D01*
X124339329Y-107154966D01*
X124339333Y-107154971D01*
X124497296Y-107353052D01*
X124497302Y-107353058D01*
X124683028Y-107525386D01*
X124683030Y-107525387D01*
X124683035Y-107525392D01*
X124892380Y-107668121D01*
X125120659Y-107778054D01*
X125362774Y-107852737D01*
X125613315Y-107890500D01*
X125613320Y-107890500D01*
X125866680Y-107890500D01*
X125866685Y-107890500D01*
X126117226Y-107852737D01*
X126359341Y-107778054D01*
X126587620Y-107668121D01*
X126796965Y-107525392D01*
X126982699Y-107353056D01*
X126982703Y-107353052D01*
X127072170Y-107240862D01*
X127140673Y-107154963D01*
X127267358Y-106935537D01*
X127359925Y-106699681D01*
X127416306Y-106452662D01*
X127435240Y-106200000D01*
X127416306Y-105947338D01*
X127359925Y-105700319D01*
X127359924Y-105700318D01*
X127359924Y-105700315D01*
X127267360Y-105464469D01*
X127267358Y-105464463D01*
X127204179Y-105355034D01*
X129049500Y-105355034D01*
X129075062Y-105500000D01*
X129085976Y-105561899D01*
X129154442Y-105750006D01*
X129157823Y-105759296D01*
X129157824Y-105759299D01*
X129262850Y-105941207D01*
X129262855Y-105941214D01*
X129385120Y-106086923D01*
X129397876Y-106102124D01*
X129397882Y-106102129D01*
X129397884Y-106102131D01*
X129482062Y-106172765D01*
X129558791Y-106237149D01*
X129581050Y-106250000D01*
X129740700Y-106342175D01*
X129740703Y-106342176D01*
X129740705Y-106342176D01*
X129740709Y-106342179D01*
X129938101Y-106414024D01*
X130144970Y-106450500D01*
X130144971Y-106450500D01*
X130355029Y-106450500D01*
X130355030Y-106450500D01*
X130561899Y-106414024D01*
X130759291Y-106342179D01*
X130759296Y-106342175D01*
X130759299Y-106342175D01*
X130836530Y-106297585D01*
X130941209Y-106237149D01*
X131102124Y-106102124D01*
X131237149Y-105941209D01*
X131324359Y-105790156D01*
X131342175Y-105759299D01*
X131342176Y-105759296D01*
X131342175Y-105759296D01*
X131342179Y-105759291D01*
X131345558Y-105750006D01*
X144094655Y-105750006D01*
X144114013Y-106070055D01*
X144114016Y-106070080D01*
X144171813Y-106385462D01*
X144171813Y-106385464D01*
X144267209Y-106691599D01*
X144270848Y-106699684D01*
X144398809Y-106984000D01*
X144398813Y-106984008D01*
X144398817Y-106984014D01*
X144564685Y-107258394D01*
X144564689Y-107258400D01*
X144564694Y-107258408D01*
X144762446Y-107510819D01*
X144989181Y-107737554D01*
X145241592Y-107935306D01*
X145241603Y-107935312D01*
X145241605Y-107935314D01*
X145341099Y-107995460D01*
X145516000Y-108101191D01*
X145808402Y-108232791D01*
X146114534Y-108328186D01*
X146218172Y-108347178D01*
X146429919Y-108385983D01*
X146429930Y-108385984D01*
X146429934Y-108385985D01*
X146429937Y-108385985D01*
X146429944Y-108385986D01*
X146749994Y-108405345D01*
X146750000Y-108405345D01*
X146750006Y-108405345D01*
X147070055Y-108385986D01*
X147070060Y-108385985D01*
X147070066Y-108385985D01*
X147070071Y-108385984D01*
X147070080Y-108385983D01*
X147207438Y-108360810D01*
X147385466Y-108328186D01*
X147691598Y-108232791D01*
X147984000Y-108101191D01*
X148258408Y-107935306D01*
X148510819Y-107737554D01*
X148737554Y-107510819D01*
X148935306Y-107258408D01*
X149101191Y-106984000D01*
X149232791Y-106691598D01*
X149328186Y-106385466D01*
X149380109Y-106102131D01*
X149385983Y-106070080D01*
X149385986Y-106070055D01*
X149405345Y-105750006D01*
X149405345Y-105749993D01*
X149385986Y-105429944D01*
X149385983Y-105429919D01*
X149345702Y-105210118D01*
X149328186Y-105114534D01*
X149232791Y-104808402D01*
X149101191Y-104516000D01*
X149087240Y-104492922D01*
X148935314Y-104241605D01*
X148935312Y-104241603D01*
X148935306Y-104241592D01*
X148737554Y-103989181D01*
X148510819Y-103762446D01*
X148258408Y-103564694D01*
X148258400Y-103564689D01*
X148258394Y-103564685D01*
X147984014Y-103398817D01*
X147984008Y-103398813D01*
X147984000Y-103398809D01*
X147910735Y-103365835D01*
X147691599Y-103267209D01*
X147385463Y-103171813D01*
X147070080Y-103114016D01*
X147070055Y-103114013D01*
X146750006Y-103094655D01*
X146749994Y-103094655D01*
X146429944Y-103114013D01*
X146429919Y-103114016D01*
X146114537Y-103171813D01*
X146114535Y-103171813D01*
X145808400Y-103267209D01*
X145516006Y-103398806D01*
X145515985Y-103398817D01*
X145241605Y-103564685D01*
X145241586Y-103564698D01*
X144989187Y-103762441D01*
X144989184Y-103762443D01*
X144762443Y-103989184D01*
X144762441Y-103989187D01*
X144564698Y-104241586D01*
X144564685Y-104241605D01*
X144398817Y-104515985D01*
X144398806Y-104516006D01*
X144267209Y-104808400D01*
X144171813Y-105114535D01*
X144171813Y-105114537D01*
X144114016Y-105429919D01*
X144114013Y-105429944D01*
X144094655Y-105749993D01*
X144094655Y-105750006D01*
X131345558Y-105750006D01*
X131414024Y-105561899D01*
X131450500Y-105355030D01*
X131450500Y-105250000D01*
X131450500Y-105210118D01*
X131450500Y-104000000D01*
X132694435Y-104000000D01*
X132714632Y-104179257D01*
X132714633Y-104179261D01*
X132774211Y-104349522D01*
X132774211Y-104349523D01*
X132869693Y-104501481D01*
X132870184Y-104502262D01*
X132997738Y-104629816D01*
X133150478Y-104725789D01*
X133218657Y-104749646D01*
X133320738Y-104785366D01*
X133320742Y-104785367D01*
X133320745Y-104785368D01*
X133320746Y-104785368D01*
X133320750Y-104785369D01*
X133455029Y-104800499D01*
X133455045Y-104800499D01*
X133455046Y-104800500D01*
X134284076Y-104800500D01*
X134342267Y-104819407D01*
X134346881Y-104822972D01*
X134413547Y-104877682D01*
X134413547Y-104877683D01*
X134413548Y-104877683D01*
X134413550Y-104877685D01*
X134596046Y-104975232D01*
X134707112Y-105008923D01*
X134794065Y-105035300D01*
X134794070Y-105035301D01*
X134999997Y-105055583D01*
X135000000Y-105055583D01*
X135000003Y-105055583D01*
X135205929Y-105035301D01*
X135205934Y-105035300D01*
X135403954Y-104975232D01*
X135586450Y-104877685D01*
X135653119Y-104822972D01*
X135710096Y-104800672D01*
X135715924Y-104800500D01*
X136544953Y-104800500D01*
X136544954Y-104800500D01*
X136544955Y-104800499D01*
X136544970Y-104800499D01*
X136679249Y-104785369D01*
X136679251Y-104785368D01*
X136679255Y-104785368D01*
X136849522Y-104725789D01*
X137002262Y-104629816D01*
X137129816Y-104502262D01*
X137225789Y-104349522D01*
X137285368Y-104179255D01*
X137305565Y-104000000D01*
X137285368Y-103820745D01*
X137283783Y-103816216D01*
X137244448Y-103703802D01*
X137225789Y-103650478D01*
X137129816Y-103497738D01*
X137002262Y-103370184D01*
X137002259Y-103370182D01*
X137002258Y-103370181D01*
X136849523Y-103274211D01*
X136679261Y-103214633D01*
X136679249Y-103214630D01*
X136544970Y-103199500D01*
X136544954Y-103199500D01*
X135715924Y-103199500D01*
X135657733Y-103180593D01*
X135653119Y-103177028D01*
X135586452Y-103122317D01*
X135586452Y-103122316D01*
X135403954Y-103024768D01*
X135205934Y-102964699D01*
X135205929Y-102964698D01*
X135000003Y-102944417D01*
X134999997Y-102944417D01*
X134794070Y-102964698D01*
X134794065Y-102964699D01*
X134596045Y-103024768D01*
X134413547Y-103122316D01*
X134413547Y-103122317D01*
X134346881Y-103177028D01*
X134289904Y-103199328D01*
X134284076Y-103199500D01*
X133455029Y-103199500D01*
X133320750Y-103214630D01*
X133320738Y-103214633D01*
X133150477Y-103274211D01*
X133150476Y-103274211D01*
X132997741Y-103370181D01*
X132870181Y-103497741D01*
X132774211Y-103650476D01*
X132774211Y-103650477D01*
X132714633Y-103820738D01*
X132714632Y-103820742D01*
X132694435Y-104000000D01*
X131450500Y-104000000D01*
X131450500Y-98000003D01*
X139694417Y-98000003D01*
X139714698Y-98205929D01*
X139714699Y-98205934D01*
X139765647Y-98373885D01*
X139774768Y-98403954D01*
X139872315Y-98586450D01*
X139927028Y-98653118D01*
X139949328Y-98710094D01*
X139949500Y-98715922D01*
X139949500Y-99294970D01*
X139964630Y-99429249D01*
X139964633Y-99429261D01*
X140024211Y-99599522D01*
X140024211Y-99599523D01*
X140034871Y-99616488D01*
X140120184Y-99752262D01*
X140247738Y-99879816D01*
X140247740Y-99879817D01*
X140247741Y-99879818D01*
X140377738Y-99961501D01*
X140400478Y-99975789D01*
X140468657Y-99999646D01*
X140570738Y-100035366D01*
X140570742Y-100035367D01*
X140570745Y-100035368D01*
X140750000Y-100055565D01*
X140929255Y-100035368D01*
X141099522Y-99975789D01*
X141252262Y-99879816D01*
X141379816Y-99752262D01*
X141475789Y-99599522D01*
X141535311Y-99429417D01*
X141535366Y-99429261D01*
X141535369Y-99429249D01*
X141550499Y-99294970D01*
X141550500Y-99294953D01*
X141550500Y-98715922D01*
X141569407Y-98657731D01*
X141572960Y-98653131D01*
X141627685Y-98586450D01*
X141725232Y-98403954D01*
X141785300Y-98205934D01*
X141785301Y-98205929D01*
X141805583Y-98000003D01*
X141805583Y-97999996D01*
X141785301Y-97794070D01*
X141785300Y-97794065D01*
X141747119Y-97668200D01*
X141725232Y-97596046D01*
X141627685Y-97413550D01*
X141572972Y-97346881D01*
X141550672Y-97289904D01*
X141550500Y-97284076D01*
X141550500Y-96705046D01*
X141550499Y-96705029D01*
X141535369Y-96570750D01*
X141535366Y-96570738D01*
X141511014Y-96501145D01*
X141475789Y-96400478D01*
X141418260Y-96308922D01*
X141379818Y-96247741D01*
X141379817Y-96247740D01*
X141379816Y-96247738D01*
X141252262Y-96120184D01*
X141252259Y-96120182D01*
X141252258Y-96120181D01*
X141099523Y-96024211D01*
X140929261Y-95964633D01*
X140929257Y-95964632D01*
X140750000Y-95944435D01*
X140570742Y-95964632D01*
X140570738Y-95964633D01*
X140400477Y-96024211D01*
X140400476Y-96024211D01*
X140247741Y-96120181D01*
X140120181Y-96247741D01*
X140024211Y-96400476D01*
X140024211Y-96400477D01*
X139964633Y-96570738D01*
X139964630Y-96570750D01*
X139949500Y-96705029D01*
X139949500Y-97284076D01*
X139930593Y-97342267D01*
X139927028Y-97346881D01*
X139872317Y-97413547D01*
X139872316Y-97413547D01*
X139774768Y-97596045D01*
X139714699Y-97794065D01*
X139714698Y-97794070D01*
X139694417Y-97999996D01*
X139694417Y-98000003D01*
X131450500Y-98000003D01*
X131450500Y-90227410D01*
X131450500Y-90144970D01*
X131414024Y-89938101D01*
X131342179Y-89740709D01*
X131342176Y-89740703D01*
X131342175Y-89740700D01*
X131271339Y-89618011D01*
X131237149Y-89558791D01*
X131236161Y-89557613D01*
X131102131Y-89397884D01*
X131102129Y-89397882D01*
X131102124Y-89397876D01*
X131102117Y-89397870D01*
X131102115Y-89397868D01*
X130941214Y-89262855D01*
X130941212Y-89262853D01*
X130941209Y-89262851D01*
X130925339Y-89253688D01*
X130759299Y-89157824D01*
X130759296Y-89157823D01*
X130759291Y-89157821D01*
X130561899Y-89085976D01*
X130520525Y-89078680D01*
X130355034Y-89049500D01*
X130355030Y-89049500D01*
X130144970Y-89049500D01*
X130144965Y-89049500D01*
X129938101Y-89085976D01*
X129740703Y-89157823D01*
X129740700Y-89157824D01*
X129558792Y-89262850D01*
X129558785Y-89262855D01*
X129397884Y-89397868D01*
X129397868Y-89397884D01*
X129262855Y-89558785D01*
X129262850Y-89558792D01*
X129157824Y-89740700D01*
X129157823Y-89740703D01*
X129085976Y-89938101D01*
X129049500Y-90144965D01*
X129049500Y-105355034D01*
X127204179Y-105355034D01*
X127140673Y-105245037D01*
X127136396Y-105239674D01*
X126982703Y-105046947D01*
X126982697Y-105046941D01*
X126796971Y-104874613D01*
X126796968Y-104874611D01*
X126796965Y-104874608D01*
X126587620Y-104731879D01*
X126359341Y-104621946D01*
X126270693Y-104594601D01*
X126220662Y-104559382D01*
X126200886Y-104501481D01*
X126218921Y-104443014D01*
X126267877Y-104406314D01*
X126270694Y-104405398D01*
X126359341Y-104378054D01*
X126587620Y-104268121D01*
X126796965Y-104125392D01*
X126982699Y-103953056D01*
X126982703Y-103953052D01*
X127072170Y-103840862D01*
X127140673Y-103754963D01*
X127267358Y-103535537D01*
X127359925Y-103299681D01*
X127416306Y-103052662D01*
X127435240Y-102800000D01*
X127416306Y-102547338D01*
X127359925Y-102300319D01*
X127359924Y-102300318D01*
X127359924Y-102300315D01*
X127267360Y-102064469D01*
X127267358Y-102064463D01*
X127140673Y-101845037D01*
X127140666Y-101845028D01*
X126982703Y-101646947D01*
X126982697Y-101646941D01*
X126796971Y-101474613D01*
X126796968Y-101474611D01*
X126796965Y-101474608D01*
X126587620Y-101331879D01*
X126564485Y-101320738D01*
X126359341Y-101221946D01*
X126117230Y-101147264D01*
X126117227Y-101147263D01*
X126117226Y-101147263D01*
X126117221Y-101147262D01*
X126117220Y-101147262D01*
X125866688Y-101109500D01*
X125866685Y-101109500D01*
X125613315Y-101109500D01*
X125613311Y-101109500D01*
X125362779Y-101147262D01*
X125362769Y-101147264D01*
X125120658Y-101221946D01*
X124892387Y-101331875D01*
X124892383Y-101331877D01*
X124892380Y-101331879D01*
X124683035Y-101474608D01*
X124683028Y-101474613D01*
X124497302Y-101646941D01*
X124497296Y-101646947D01*
X124339333Y-101845028D01*
X124339329Y-101845033D01*
X124212643Y-102064460D01*
X124212639Y-102064469D01*
X124120075Y-102300315D01*
X124063694Y-102547336D01*
X124063693Y-102547342D01*
X124044760Y-102799997D01*
X124044760Y-102800000D01*
X124063693Y-103052657D01*
X124063694Y-103052663D01*
X124120075Y-103299684D01*
X124212639Y-103535530D01*
X124212643Y-103535539D01*
X124229476Y-103564694D01*
X124309789Y-103703802D01*
X124339329Y-103754966D01*
X124339333Y-103754971D01*
X124497296Y-103953052D01*
X124497302Y-103953058D01*
X124683028Y-104125386D01*
X124683030Y-104125387D01*
X124683035Y-104125392D01*
X124892380Y-104268121D01*
X125120659Y-104378054D01*
X125191076Y-104399774D01*
X125209305Y-104405398D01*
X125259337Y-104440618D01*
X125279113Y-104498519D01*
X125261078Y-104556986D01*
X125212121Y-104593687D01*
X125209305Y-104594602D01*
X125120658Y-104621946D01*
X124892387Y-104731875D01*
X124892383Y-104731877D01*
X124892380Y-104731879D01*
X124683035Y-104874608D01*
X124683028Y-104874613D01*
X124497302Y-105046941D01*
X124497296Y-105046947D01*
X124339333Y-105245028D01*
X124339329Y-105245033D01*
X124212643Y-105464460D01*
X124212639Y-105464469D01*
X124120075Y-105700315D01*
X124063694Y-105947336D01*
X124063693Y-105947342D01*
X124044760Y-106199997D01*
X124044760Y-106200000D01*
X113935240Y-106200000D01*
X113916306Y-105947338D01*
X113859925Y-105700319D01*
X113859924Y-105700318D01*
X113859924Y-105700315D01*
X113767360Y-105464469D01*
X113767358Y-105464463D01*
X113640673Y-105245037D01*
X113636396Y-105239674D01*
X113482703Y-105046947D01*
X113482697Y-105046941D01*
X113296971Y-104874613D01*
X113296968Y-104874611D01*
X113296965Y-104874608D01*
X113087620Y-104731879D01*
X112859341Y-104621946D01*
X112770693Y-104594601D01*
X112720662Y-104559382D01*
X112700886Y-104501481D01*
X112718921Y-104443014D01*
X112767877Y-104406314D01*
X112770694Y-104405398D01*
X112859341Y-104378054D01*
X113087620Y-104268121D01*
X113296965Y-104125392D01*
X113482699Y-103953056D01*
X113482703Y-103953052D01*
X113572170Y-103840862D01*
X113640673Y-103754963D01*
X113767358Y-103535537D01*
X113859925Y-103299681D01*
X113916306Y-103052662D01*
X113935240Y-102800000D01*
X113916306Y-102547338D01*
X113859925Y-102300319D01*
X113859924Y-102300318D01*
X113859924Y-102300315D01*
X113767360Y-102064469D01*
X113767358Y-102064463D01*
X113640673Y-101845037D01*
X113640666Y-101845028D01*
X113482703Y-101646947D01*
X113482697Y-101646941D01*
X113296971Y-101474613D01*
X113296968Y-101474611D01*
X113296965Y-101474608D01*
X113087620Y-101331879D01*
X113064485Y-101320738D01*
X112859341Y-101221946D01*
X112617230Y-101147264D01*
X112617227Y-101147263D01*
X112617226Y-101147263D01*
X112617221Y-101147262D01*
X112617220Y-101147262D01*
X112366688Y-101109500D01*
X112366685Y-101109500D01*
X112113315Y-101109500D01*
X112113311Y-101109500D01*
X111862779Y-101147262D01*
X111862769Y-101147264D01*
X111620658Y-101221946D01*
X111392387Y-101331875D01*
X111392383Y-101331877D01*
X111392380Y-101331879D01*
X111183035Y-101474608D01*
X111183028Y-101474613D01*
X110997302Y-101646941D01*
X110997296Y-101646947D01*
X110839333Y-101845028D01*
X110839329Y-101845033D01*
X110712643Y-102064460D01*
X110712639Y-102064469D01*
X110620075Y-102300315D01*
X110563694Y-102547336D01*
X110563693Y-102547342D01*
X110544760Y-102799997D01*
X110544760Y-102800000D01*
X110563693Y-103052657D01*
X110563694Y-103052663D01*
X110620075Y-103299684D01*
X110712639Y-103535530D01*
X110712643Y-103535539D01*
X110729476Y-103564694D01*
X110809789Y-103703802D01*
X110839329Y-103754966D01*
X110839333Y-103754971D01*
X110997296Y-103953052D01*
X110997302Y-103953058D01*
X111183028Y-104125386D01*
X111183030Y-104125387D01*
X111183035Y-104125392D01*
X111392380Y-104268121D01*
X111620659Y-104378054D01*
X111691076Y-104399774D01*
X111709305Y-104405398D01*
X111759337Y-104440618D01*
X111779113Y-104498519D01*
X111761078Y-104556986D01*
X111712121Y-104593687D01*
X111709305Y-104594602D01*
X111620658Y-104621946D01*
X111392387Y-104731875D01*
X111392383Y-104731877D01*
X111392380Y-104731879D01*
X111183035Y-104874608D01*
X111183028Y-104874613D01*
X110997302Y-105046941D01*
X110997296Y-105046947D01*
X110839333Y-105245028D01*
X110839329Y-105245033D01*
X110712643Y-105464460D01*
X110712639Y-105464469D01*
X110620075Y-105700315D01*
X110563694Y-105947336D01*
X110563693Y-105947342D01*
X110544760Y-106199997D01*
X110544760Y-106200000D01*
X106267392Y-106200000D01*
X106267400Y-106199999D01*
X106519340Y-106162025D01*
X106519350Y-106162023D01*
X106762823Y-106086922D01*
X106936281Y-106003389D01*
X106191989Y-105259097D01*
X106316461Y-105244549D01*
X106483409Y-105183784D01*
X106631844Y-105086157D01*
X106753764Y-104956930D01*
X106842595Y-104803070D01*
X106893549Y-104632871D01*
X106898305Y-104551197D01*
X107643305Y-105296197D01*
X107675939Y-105239674D01*
X107675945Y-105239662D01*
X107769029Y-105002489D01*
X107769029Y-105002487D01*
X107825724Y-104754086D01*
X107825726Y-104754076D01*
X107844767Y-104500002D01*
X107844767Y-104499997D01*
X107825726Y-104245923D01*
X107825724Y-104245913D01*
X107769029Y-103997512D01*
X107769029Y-103997510D01*
X107675943Y-103760331D01*
X107675941Y-103760329D01*
X107643305Y-103703801D01*
X106902038Y-104445067D01*
X106873029Y-104280546D01*
X106802660Y-104117413D01*
X106696567Y-103974906D01*
X106560470Y-103860706D01*
X106401705Y-103780972D01*
X106228831Y-103740000D01*
X106192890Y-103740000D01*
X106936281Y-102996609D01*
X106936282Y-102996609D01*
X106762823Y-102913078D01*
X106519350Y-102837976D01*
X106519340Y-102837974D01*
X106267400Y-102800000D01*
X106012599Y-102800000D01*
X105760659Y-102837974D01*
X105760649Y-102837976D01*
X105517176Y-102913077D01*
X105343718Y-102996610D01*
X106088010Y-103740902D01*
X105963539Y-103755451D01*
X105796591Y-103816216D01*
X105648156Y-103913843D01*
X105526236Y-104043070D01*
X105437405Y-104196930D01*
X105386451Y-104367129D01*
X105381694Y-104448802D01*
X104636694Y-103703802D01*
X104604059Y-103760326D01*
X104604057Y-103760331D01*
X104510970Y-103997510D01*
X104510970Y-103997512D01*
X104454275Y-104245913D01*
X104454273Y-104245923D01*
X104435233Y-104499997D01*
X104435233Y-104500002D01*
X102860500Y-104500002D01*
X102860499Y-102955136D01*
X102857585Y-102930009D01*
X102812206Y-102827235D01*
X102732765Y-102747794D01*
X102629991Y-102702415D01*
X102629990Y-102702414D01*
X102629988Y-102702414D01*
X102604868Y-102699500D01*
X99515139Y-102699500D01*
X99515136Y-102699501D01*
X99490009Y-102702414D01*
X99387235Y-102747794D01*
X99307794Y-102827235D01*
X99262414Y-102930011D01*
X99259500Y-102955130D01*
X99259500Y-106044860D01*
X95900000Y-106044860D01*
X95900000Y-105928111D01*
X95859493Y-105790156D01*
X95781761Y-105669202D01*
X95673100Y-105575048D01*
X95542315Y-105515320D01*
X95435763Y-105500000D01*
X95364237Y-105500000D01*
X95257685Y-105515320D01*
X95126900Y-105575048D01*
X95018239Y-105669202D01*
X94940507Y-105790156D01*
X94900000Y-105928111D01*
X94900000Y-106071889D01*
X91385651Y-106071889D01*
X91385983Y-106070080D01*
X91385986Y-106070055D01*
X91405345Y-105750006D01*
X91405345Y-105749993D01*
X91390223Y-105499999D01*
X94326671Y-105499999D01*
X94326672Y-105500000D01*
X94899999Y-105500000D01*
X94900000Y-105499999D01*
X94900000Y-105008923D01*
X95900000Y-105008923D01*
X95900000Y-105499999D01*
X95900001Y-105500000D01*
X96473328Y-105500000D01*
X96473328Y-105499999D01*
X96427269Y-105413830D01*
X96296059Y-105253949D01*
X96296050Y-105253940D01*
X96136170Y-105122731D01*
X96136160Y-105122724D01*
X95953771Y-105025236D01*
X95953758Y-105025231D01*
X95900000Y-105008923D01*
X94900000Y-105008923D01*
X94846241Y-105025231D01*
X94846228Y-105025236D01*
X94663839Y-105122724D01*
X94663829Y-105122731D01*
X94503949Y-105253940D01*
X94503940Y-105253949D01*
X94372730Y-105413830D01*
X94326671Y-105499999D01*
X91390223Y-105499999D01*
X91385986Y-105429944D01*
X91385983Y-105429919D01*
X91345702Y-105210118D01*
X91328186Y-105114534D01*
X91232791Y-104808402D01*
X91101191Y-104516000D01*
X91087240Y-104492922D01*
X90935314Y-104241605D01*
X90935312Y-104241603D01*
X90935306Y-104241592D01*
X90858147Y-104143106D01*
X94099500Y-104143106D01*
X94110123Y-104231565D01*
X94165637Y-104372339D01*
X94165638Y-104372341D01*
X94165639Y-104372342D01*
X94257078Y-104492922D01*
X94377658Y-104584361D01*
X94377659Y-104584361D01*
X94377660Y-104584362D01*
X94401307Y-104593687D01*
X94518436Y-104639877D01*
X94606898Y-104650500D01*
X94606900Y-104650500D01*
X96193100Y-104650500D01*
X96193102Y-104650500D01*
X96281564Y-104639877D01*
X96422342Y-104584361D01*
X96542922Y-104492922D01*
X96634361Y-104372342D01*
X96689877Y-104231564D01*
X96700500Y-104143102D01*
X96700500Y-102856898D01*
X96689877Y-102768436D01*
X96634361Y-102627658D01*
X96542922Y-102507078D01*
X96422342Y-102415639D01*
X96422341Y-102415638D01*
X96422339Y-102415637D01*
X96281565Y-102360123D01*
X96193106Y-102349500D01*
X96193102Y-102349500D01*
X94606898Y-102349500D01*
X94606893Y-102349500D01*
X94518434Y-102360123D01*
X94377660Y-102415637D01*
X94377656Y-102415640D01*
X94257081Y-102507075D01*
X94257075Y-102507081D01*
X94165640Y-102627656D01*
X94165637Y-102627660D01*
X94110123Y-102768434D01*
X94099500Y-102856893D01*
X94099500Y-104143106D01*
X90858147Y-104143106D01*
X90737554Y-103989181D01*
X90510819Y-103762446D01*
X90258408Y-103564694D01*
X90258400Y-103564689D01*
X90258394Y-103564685D01*
X89984014Y-103398817D01*
X89984008Y-103398813D01*
X89984000Y-103398809D01*
X89910735Y-103365835D01*
X89691599Y-103267209D01*
X89385463Y-103171813D01*
X89070080Y-103114016D01*
X89070055Y-103114013D01*
X88750006Y-103094655D01*
X88749994Y-103094655D01*
X88429944Y-103114013D01*
X88429919Y-103114016D01*
X88114537Y-103171813D01*
X88114535Y-103171813D01*
X87808400Y-103267209D01*
X87516006Y-103398806D01*
X87515985Y-103398817D01*
X87241605Y-103564685D01*
X87241586Y-103564698D01*
X86989187Y-103762441D01*
X86989184Y-103762443D01*
X86762443Y-103989184D01*
X86762441Y-103989187D01*
X86564698Y-104241586D01*
X86564685Y-104241605D01*
X86398817Y-104515985D01*
X86398806Y-104516006D01*
X86267209Y-104808400D01*
X86171813Y-105114535D01*
X86171813Y-105114537D01*
X86114016Y-105429919D01*
X86114013Y-105429944D01*
X86094655Y-105749993D01*
X86094655Y-105750006D01*
X85450500Y-105750006D01*
X85450500Y-101500000D01*
X101944435Y-101500000D01*
X101964632Y-101679257D01*
X101964633Y-101679261D01*
X102024211Y-101849522D01*
X102024211Y-101849523D01*
X102120181Y-102002258D01*
X102120184Y-102002262D01*
X102247738Y-102129816D01*
X102400478Y-102225789D01*
X102468657Y-102249646D01*
X102570738Y-102285366D01*
X102570742Y-102285367D01*
X102570745Y-102285368D01*
X102570746Y-102285368D01*
X102570750Y-102285369D01*
X102705029Y-102300499D01*
X102705045Y-102300499D01*
X102705046Y-102300500D01*
X103284076Y-102300500D01*
X103342267Y-102319407D01*
X103346881Y-102322972D01*
X103413547Y-102377682D01*
X103413547Y-102377683D01*
X103413548Y-102377683D01*
X103413550Y-102377685D01*
X103596046Y-102475232D01*
X103733997Y-102517078D01*
X103794065Y-102535300D01*
X103794070Y-102535301D01*
X103999997Y-102555583D01*
X104000000Y-102555583D01*
X104000003Y-102555583D01*
X104205929Y-102535301D01*
X104205934Y-102535300D01*
X104403954Y-102475232D01*
X104586450Y-102377685D01*
X104653119Y-102322972D01*
X104710096Y-102300672D01*
X104715924Y-102300500D01*
X105294953Y-102300500D01*
X105294954Y-102300500D01*
X105294955Y-102300499D01*
X105294970Y-102300499D01*
X105429249Y-102285369D01*
X105429251Y-102285368D01*
X105429255Y-102285368D01*
X105599522Y-102225789D01*
X105752262Y-102129816D01*
X105879816Y-102002262D01*
X105975789Y-101849522D01*
X106035368Y-101679255D01*
X106055565Y-101500000D01*
X106035368Y-101320745D01*
X105975789Y-101150478D01*
X105973768Y-101147262D01*
X105879818Y-100997741D01*
X105879817Y-100997740D01*
X105879816Y-100997738D01*
X105752262Y-100870184D01*
X105752259Y-100870182D01*
X105752258Y-100870181D01*
X105599523Y-100774211D01*
X105429261Y-100714633D01*
X105429249Y-100714630D01*
X105294970Y-100699500D01*
X105294954Y-100699500D01*
X104715924Y-100699500D01*
X104657733Y-100680593D01*
X104653119Y-100677028D01*
X104586452Y-100622317D01*
X104586452Y-100622316D01*
X104403954Y-100524768D01*
X104205934Y-100464699D01*
X104205929Y-100464698D01*
X104000003Y-100444417D01*
X103999997Y-100444417D01*
X103794070Y-100464698D01*
X103794065Y-100464699D01*
X103596045Y-100524768D01*
X103413547Y-100622316D01*
X103413547Y-100622317D01*
X103346881Y-100677028D01*
X103289904Y-100699328D01*
X103284076Y-100699500D01*
X102705029Y-100699500D01*
X102570750Y-100714630D01*
X102570738Y-100714633D01*
X102400477Y-100774211D01*
X102400476Y-100774211D01*
X102247741Y-100870181D01*
X102120181Y-100997741D01*
X102024211Y-101150476D01*
X102024211Y-101150477D01*
X101964633Y-101320738D01*
X101964632Y-101320742D01*
X101944435Y-101500000D01*
X85450500Y-101500000D01*
X85450500Y-96200000D01*
X85694616Y-96200000D01*
X85714139Y-96584982D01*
X85714140Y-96584984D01*
X85738805Y-96745993D01*
X85772512Y-96966018D01*
X85864035Y-97319499D01*
X85869137Y-97339202D01*
X85869137Y-97339203D01*
X86003011Y-97700673D01*
X86003012Y-97700674D01*
X86172776Y-98046762D01*
X86376673Y-98373885D01*
X86376676Y-98373890D01*
X86376680Y-98373895D01*
X86612634Y-98678722D01*
X86740194Y-98812915D01*
X86878218Y-98958117D01*
X86974659Y-99040909D01*
X87170702Y-99209205D01*
X87170705Y-99209207D01*
X87487075Y-99429408D01*
X87487083Y-99429413D01*
X87487089Y-99429417D01*
X87487093Y-99429419D01*
X87824126Y-99616488D01*
X87824125Y-99616488D01*
X87824127Y-99616489D01*
X87824131Y-99616491D01*
X88178370Y-99768507D01*
X88546171Y-99883905D01*
X88923759Y-99961502D01*
X89236461Y-99993300D01*
X89307258Y-100000500D01*
X89307260Y-100000500D01*
X89692742Y-100000500D01*
X89757555Y-99993908D01*
X90076241Y-99961502D01*
X90453829Y-99883905D01*
X90821630Y-99768507D01*
X91175869Y-99616491D01*
X91512911Y-99429417D01*
X91829298Y-99209205D01*
X92121784Y-98958115D01*
X92387366Y-98678722D01*
X92623320Y-98373895D01*
X92827225Y-98046760D01*
X92996987Y-97700675D01*
X93009015Y-97668200D01*
X93130862Y-97339203D01*
X93130862Y-97339202D01*
X93130866Y-97339192D01*
X93227488Y-96966018D01*
X93285860Y-96584984D01*
X93305384Y-96200000D01*
X93285860Y-95815016D01*
X93227488Y-95433982D01*
X93130866Y-95060808D01*
X93029967Y-94788375D01*
X93027488Y-94727241D01*
X93061416Y-94676325D01*
X93118793Y-94655074D01*
X93177702Y-94671608D01*
X93188174Y-94679643D01*
X93272788Y-94754035D01*
X93272792Y-94754039D01*
X93655045Y-95060796D01*
X93938984Y-95288657D01*
X94628531Y-95792813D01*
X95340031Y-96265482D01*
X96072048Y-96705708D01*
X96823104Y-97112603D01*
X97591682Y-97485345D01*
X98376229Y-97823182D01*
X98376235Y-97823184D01*
X98376246Y-97823189D01*
X99175121Y-98125416D01*
X99175139Y-98125422D01*
X99175162Y-98125431D01*
X99986867Y-98391482D01*
X100809705Y-98620798D01*
X101642015Y-98812915D01*
X102120684Y-98900963D01*
X102482096Y-98967443D01*
X102482106Y-98967444D01*
X102482115Y-98967446D01*
X103328309Y-99084079D01*
X104178889Y-99162577D01*
X105032137Y-99202783D01*
X105886330Y-99204616D01*
X105886353Y-99204615D01*
X105886362Y-99204615D01*
X106739706Y-99168073D01*
X106739720Y-99168071D01*
X106739742Y-99168071D01*
X107590651Y-99093222D01*
X108437338Y-98980221D01*
X108437339Y-98980220D01*
X108437345Y-98980220D01*
X108819240Y-98911665D01*
X109278094Y-98829296D01*
X109350478Y-98812915D01*
X109635795Y-98748345D01*
X110111220Y-98640752D01*
X110935034Y-98414968D01*
X111747874Y-98152402D01*
X112548096Y-97853584D01*
X113334085Y-97519116D01*
X114104255Y-97149674D01*
X114857050Y-96746005D01*
X115590949Y-96308924D01*
X116304471Y-95839312D01*
X116996174Y-95338119D01*
X117664663Y-94806357D01*
X117701972Y-94773838D01*
X117812996Y-94677066D01*
X117869285Y-94653084D01*
X117928921Y-94666769D01*
X117969123Y-94712892D01*
X117974537Y-94773838D01*
X117970882Y-94786079D01*
X117869137Y-95060796D01*
X117869137Y-95060797D01*
X117869134Y-95060806D01*
X117869134Y-95060808D01*
X117797333Y-95338119D01*
X117772511Y-95433986D01*
X117772510Y-95433993D01*
X117714140Y-95815015D01*
X117714139Y-95815017D01*
X117694616Y-96200000D01*
X117714139Y-96584982D01*
X117714140Y-96584984D01*
X117738805Y-96745993D01*
X117772512Y-96966018D01*
X117864035Y-97319499D01*
X117869137Y-97339202D01*
X117869137Y-97339203D01*
X118003011Y-97700673D01*
X118003012Y-97700674D01*
X118172776Y-98046762D01*
X118376673Y-98373885D01*
X118376676Y-98373890D01*
X118376680Y-98373895D01*
X118612634Y-98678722D01*
X118740194Y-98812915D01*
X118878218Y-98958117D01*
X118974659Y-99040909D01*
X119170702Y-99209205D01*
X119170705Y-99209207D01*
X119487075Y-99429408D01*
X119487083Y-99429413D01*
X119487089Y-99429417D01*
X119487093Y-99429419D01*
X119824126Y-99616488D01*
X119824125Y-99616488D01*
X119824127Y-99616489D01*
X119824131Y-99616491D01*
X120178370Y-99768507D01*
X120546171Y-99883905D01*
X120923759Y-99961502D01*
X121236461Y-99993300D01*
X121307258Y-100000500D01*
X121307260Y-100000500D01*
X121692742Y-100000500D01*
X121757555Y-99993908D01*
X122076241Y-99961502D01*
X122453829Y-99883905D01*
X122821630Y-99768507D01*
X123175869Y-99616491D01*
X123512911Y-99429417D01*
X123829298Y-99209205D01*
X124121784Y-98958115D01*
X124387366Y-98678722D01*
X124623320Y-98373895D01*
X124827225Y-98046760D01*
X124996987Y-97700675D01*
X125009015Y-97668200D01*
X125130862Y-97339203D01*
X125130862Y-97339202D01*
X125130866Y-97339192D01*
X125227488Y-96966018D01*
X125285860Y-96584984D01*
X125305384Y-96200000D01*
X125285860Y-95815016D01*
X125227488Y-95433982D01*
X125130866Y-95060808D01*
X125130862Y-95060796D01*
X124996988Y-94699326D01*
X124996987Y-94699325D01*
X124835036Y-94369164D01*
X124827225Y-94353240D01*
X124623320Y-94026105D01*
X124387366Y-93721278D01*
X124121784Y-93441885D01*
X123829298Y-93190795D01*
X123829294Y-93190792D01*
X123512924Y-92970591D01*
X123512906Y-92970580D01*
X123175873Y-92783511D01*
X123175874Y-92783511D01*
X122923060Y-92675020D01*
X122821630Y-92631493D01*
X122821627Y-92631492D01*
X122821622Y-92631490D01*
X122453828Y-92516094D01*
X122076241Y-92438498D01*
X121692742Y-92399500D01*
X121692740Y-92399500D01*
X121307260Y-92399500D01*
X121307258Y-92399500D01*
X120923758Y-92438498D01*
X120546171Y-92516094D01*
X120178377Y-92631490D01*
X120178360Y-92631496D01*
X120091772Y-92668654D01*
X120030841Y-92674226D01*
X119978272Y-92642920D01*
X119954143Y-92586693D01*
X119967673Y-92527022D01*
X119978232Y-92512480D01*
X120080228Y-92395968D01*
X120613423Y-91728622D01*
X121116099Y-91037995D01*
X121587240Y-90325482D01*
X122025895Y-89592522D01*
X122431178Y-88840595D01*
X122802270Y-88071220D01*
X123138424Y-87285950D01*
X123438958Y-86486370D01*
X123578593Y-86057245D01*
X123703253Y-85674141D01*
X123703257Y-85674126D01*
X123703267Y-85674096D01*
X123930817Y-84850768D01*
X124113846Y-84050000D01*
X140519818Y-84050000D01*
X140540455Y-84206758D01*
X140540457Y-84206766D01*
X140600962Y-84352838D01*
X140600962Y-84352839D01*
X140600964Y-84352841D01*
X140697218Y-84478282D01*
X140822659Y-84574536D01*
X140968738Y-84635044D01*
X141086309Y-84650522D01*
X141125499Y-84655682D01*
X141125500Y-84655682D01*
X141125501Y-84655682D01*
X141156852Y-84651554D01*
X141282262Y-84635044D01*
X141428341Y-84574536D01*
X141473735Y-84539703D01*
X141530747Y-84495958D01*
X141588423Y-84475534D01*
X141591014Y-84475500D01*
X143784486Y-84475500D01*
X143842677Y-84494407D01*
X143844753Y-84495958D01*
X143901764Y-84539703D01*
X143947159Y-84574536D01*
X144093238Y-84635044D01*
X144210809Y-84650522D01*
X144249999Y-84655682D01*
X144250000Y-84655682D01*
X144250001Y-84655682D01*
X144281352Y-84651554D01*
X144406762Y-84635044D01*
X144552841Y-84574536D01*
X144678282Y-84478282D01*
X144774536Y-84352841D01*
X144835044Y-84206762D01*
X144855682Y-84050000D01*
X144835044Y-83893238D01*
X144774537Y-83747161D01*
X144774537Y-83747160D01*
X144678286Y-83621723D01*
X144678285Y-83621722D01*
X144678282Y-83621718D01*
X144678277Y-83621714D01*
X144678276Y-83621713D01*
X144552838Y-83525462D01*
X144406766Y-83464957D01*
X144406758Y-83464955D01*
X144250001Y-83444318D01*
X144249999Y-83444318D01*
X144093241Y-83464955D01*
X144093233Y-83464957D01*
X143947161Y-83525462D01*
X143947160Y-83525462D01*
X143844753Y-83604042D01*
X143787077Y-83624466D01*
X143784486Y-83624500D01*
X141591014Y-83624500D01*
X141532823Y-83605593D01*
X141530747Y-83604042D01*
X141428338Y-83525462D01*
X141282266Y-83464957D01*
X141282258Y-83464955D01*
X141125501Y-83444318D01*
X141125499Y-83444318D01*
X140968741Y-83464955D01*
X140968733Y-83464957D01*
X140822661Y-83525462D01*
X140822660Y-83525462D01*
X140697223Y-83621713D01*
X140697213Y-83621723D01*
X140600962Y-83747160D01*
X140600962Y-83747161D01*
X140540457Y-83893233D01*
X140540455Y-83893241D01*
X140519818Y-84049999D01*
X140519818Y-84050000D01*
X124113846Y-84050000D01*
X124121149Y-84018048D01*
X124273877Y-83177619D01*
X124325100Y-82800000D01*
X138894318Y-82800000D01*
X138914955Y-82956758D01*
X138914957Y-82956766D01*
X138975462Y-83102838D01*
X138975462Y-83102839D01*
X139071713Y-83228276D01*
X139071718Y-83228282D01*
X139197159Y-83324536D01*
X139343238Y-83385044D01*
X139460809Y-83400522D01*
X139499999Y-83405682D01*
X139500000Y-83405682D01*
X139500001Y-83405682D01*
X139531352Y-83401554D01*
X139656762Y-83385044D01*
X139802841Y-83324536D01*
X139928282Y-83228282D01*
X140024536Y-83102841D01*
X140085044Y-82956762D01*
X140105682Y-82800000D01*
X140085044Y-82643238D01*
X140085042Y-82643232D01*
X140058036Y-82578033D01*
X140050500Y-82540148D01*
X140050500Y-80800000D01*
X145894318Y-80800000D01*
X145914955Y-80956758D01*
X145914957Y-80956766D01*
X145975462Y-81102838D01*
X145975462Y-81102839D01*
X145975464Y-81102841D01*
X146071718Y-81228282D01*
X146197159Y-81324536D01*
X146343238Y-81385044D01*
X146460809Y-81400522D01*
X146499999Y-81405682D01*
X146500000Y-81405682D01*
X146500001Y-81405682D01*
X146531352Y-81401554D01*
X146656762Y-81385044D01*
X146802841Y-81324536D01*
X146928282Y-81228282D01*
X147024536Y-81102841D01*
X147085044Y-80956762D01*
X147105682Y-80800000D01*
X147085044Y-80643238D01*
X147024537Y-80497161D01*
X147024537Y-80497160D01*
X146945958Y-80394753D01*
X146925534Y-80337077D01*
X146925500Y-80334486D01*
X146925500Y-77465513D01*
X146944407Y-77407322D01*
X146945958Y-77405246D01*
X147024536Y-77302841D01*
X147085044Y-77156762D01*
X147105682Y-77000000D01*
X147085044Y-76843238D01*
X147085042Y-76843233D01*
X147024537Y-76697161D01*
X147024537Y-76697160D01*
X146928286Y-76571723D01*
X146928285Y-76571722D01*
X146928282Y-76571718D01*
X146928277Y-76571714D01*
X146928276Y-76571713D01*
X146802838Y-76475462D01*
X146656766Y-76414957D01*
X146656758Y-76414955D01*
X146500001Y-76394318D01*
X146499999Y-76394318D01*
X146343241Y-76414955D01*
X146343233Y-76414957D01*
X146197161Y-76475462D01*
X146197160Y-76475462D01*
X146071723Y-76571713D01*
X146071713Y-76571723D01*
X145975462Y-76697160D01*
X145975462Y-76697161D01*
X145914957Y-76843233D01*
X145914955Y-76843241D01*
X145894318Y-76999999D01*
X145894318Y-77000000D01*
X145914955Y-77156758D01*
X145914957Y-77156766D01*
X145975462Y-77302838D01*
X145975462Y-77302839D01*
X146054042Y-77405246D01*
X146074466Y-77462922D01*
X146074500Y-77465513D01*
X146074500Y-80334486D01*
X146055593Y-80392677D01*
X146054042Y-80394753D01*
X145975462Y-80497160D01*
X145975462Y-80497161D01*
X145914957Y-80643233D01*
X145914955Y-80643241D01*
X145894318Y-80799999D01*
X145894318Y-80800000D01*
X140050500Y-80800000D01*
X140050500Y-77259850D01*
X140058036Y-77221964D01*
X140076130Y-77178282D01*
X140085044Y-77156762D01*
X140105682Y-77000000D01*
X140085044Y-76843238D01*
X140085042Y-76843233D01*
X140046424Y-76750000D01*
X143394318Y-76750000D01*
X143414955Y-76906758D01*
X143414957Y-76906766D01*
X143475462Y-77052838D01*
X143475462Y-77052839D01*
X143475464Y-77052841D01*
X143571718Y-77178282D01*
X143697159Y-77274536D01*
X143843238Y-77335044D01*
X143960809Y-77350522D01*
X143999999Y-77355682D01*
X144000000Y-77355682D01*
X144000001Y-77355682D01*
X144031352Y-77351554D01*
X144156762Y-77335044D01*
X144302841Y-77274536D01*
X144428282Y-77178282D01*
X144524536Y-77052841D01*
X144585044Y-76906762D01*
X144605682Y-76750000D01*
X144585044Y-76593238D01*
X144524537Y-76447161D01*
X144524537Y-76447160D01*
X144445958Y-76344753D01*
X144425534Y-76287077D01*
X144425500Y-76284486D01*
X144425500Y-74465513D01*
X144444407Y-74407322D01*
X144445958Y-74405246D01*
X144524536Y-74302841D01*
X144585044Y-74156762D01*
X144605682Y-74000000D01*
X144585044Y-73843238D01*
X144524537Y-73697161D01*
X144524537Y-73697160D01*
X144428286Y-73571723D01*
X144428285Y-73571722D01*
X144428282Y-73571718D01*
X144428277Y-73571714D01*
X144428276Y-73571713D01*
X144302838Y-73475462D01*
X144156766Y-73414957D01*
X144156758Y-73414955D01*
X144000001Y-73394318D01*
X143999999Y-73394318D01*
X143843241Y-73414955D01*
X143843233Y-73414957D01*
X143697161Y-73475462D01*
X143697160Y-73475462D01*
X143571723Y-73571713D01*
X143571713Y-73571723D01*
X143475462Y-73697160D01*
X143475462Y-73697161D01*
X143414957Y-73843233D01*
X143414955Y-73843241D01*
X143394318Y-73999999D01*
X143394318Y-74000000D01*
X143414955Y-74156758D01*
X143414957Y-74156766D01*
X143475462Y-74302838D01*
X143475462Y-74302839D01*
X143554042Y-74405246D01*
X143574466Y-74462922D01*
X143574500Y-74465513D01*
X143574500Y-76284486D01*
X143555593Y-76342677D01*
X143554042Y-76344753D01*
X143475462Y-76447160D01*
X143475462Y-76447161D01*
X143414957Y-76593233D01*
X143414955Y-76593241D01*
X143394318Y-76749999D01*
X143394318Y-76750000D01*
X140046424Y-76750000D01*
X140024537Y-76697161D01*
X140024537Y-76697160D01*
X139928286Y-76571723D01*
X139928285Y-76571722D01*
X139928282Y-76571718D01*
X139928277Y-76571714D01*
X139928276Y-76571713D01*
X139802838Y-76475462D01*
X139656766Y-76414957D01*
X139656758Y-76414955D01*
X139500001Y-76394318D01*
X139499999Y-76394318D01*
X139343241Y-76414955D01*
X139343233Y-76414957D01*
X139197161Y-76475462D01*
X139197160Y-76475462D01*
X139071723Y-76571713D01*
X139071713Y-76571723D01*
X138975462Y-76697160D01*
X138975462Y-76697161D01*
X138914957Y-76843233D01*
X138914955Y-76843241D01*
X138894318Y-76999999D01*
X138894318Y-77000000D01*
X138914955Y-77156758D01*
X138914956Y-77156763D01*
X138941964Y-77221964D01*
X138949500Y-77259850D01*
X138949500Y-82540148D01*
X138941964Y-82578033D01*
X138914957Y-82643232D01*
X138914955Y-82643241D01*
X138894318Y-82799999D01*
X138894318Y-82800000D01*
X124325100Y-82800000D01*
X124388694Y-82331176D01*
X124390015Y-82316526D01*
X124429717Y-81875996D01*
X124465368Y-81480429D01*
X124503743Y-80627097D01*
X124503754Y-80240952D01*
X124507387Y-80214386D01*
X125178143Y-77807629D01*
X125184315Y-77791252D01*
X125185285Y-77789235D01*
X125185289Y-77789231D01*
X125193902Y-77751488D01*
X125195039Y-77747002D01*
X125199203Y-77732066D01*
X125199203Y-77732055D01*
X125199964Y-77727332D01*
X125200499Y-77722592D01*
X125200499Y-77707096D01*
X125200610Y-77702406D01*
X125202442Y-77663789D01*
X125202440Y-77663786D01*
X125202441Y-77663785D01*
X125202045Y-77661567D01*
X125200499Y-77644141D01*
X125200499Y-72500000D01*
X135194435Y-72500000D01*
X135214632Y-72679257D01*
X135214633Y-72679261D01*
X135274211Y-72849522D01*
X135274211Y-72849523D01*
X135352298Y-72973797D01*
X135370184Y-73002262D01*
X135497738Y-73129816D01*
X135650478Y-73225789D01*
X135718657Y-73249646D01*
X135820738Y-73285366D01*
X135820742Y-73285367D01*
X135820745Y-73285368D01*
X135820746Y-73285368D01*
X135820750Y-73285369D01*
X135955029Y-73300499D01*
X135955045Y-73300499D01*
X135955046Y-73300500D01*
X136784076Y-73300500D01*
X136842267Y-73319407D01*
X136846881Y-73322972D01*
X136913547Y-73377682D01*
X136913547Y-73377683D01*
X136913548Y-73377683D01*
X136913550Y-73377685D01*
X137096046Y-73475232D01*
X137233997Y-73517078D01*
X137294065Y-73535300D01*
X137294070Y-73535301D01*
X137499997Y-73555583D01*
X137500000Y-73555583D01*
X137500003Y-73555583D01*
X137705929Y-73535301D01*
X137705934Y-73535300D01*
X137903954Y-73475232D01*
X138086450Y-73377685D01*
X138153119Y-73322972D01*
X138210096Y-73300672D01*
X138215924Y-73300500D01*
X139044953Y-73300500D01*
X139044954Y-73300500D01*
X139044955Y-73300499D01*
X139044970Y-73300499D01*
X139179249Y-73285369D01*
X139179251Y-73285368D01*
X139179255Y-73285368D01*
X139349522Y-73225789D01*
X139502262Y-73129816D01*
X139629816Y-73002262D01*
X139725789Y-72849522D01*
X139785368Y-72679255D01*
X139805565Y-72500000D01*
X139785368Y-72320745D01*
X139725789Y-72150478D01*
X139629816Y-71997738D01*
X139502262Y-71870184D01*
X139502259Y-71870182D01*
X139502258Y-71870181D01*
X139349523Y-71774211D01*
X139179261Y-71714633D01*
X139179249Y-71714630D01*
X139044970Y-71699500D01*
X139044954Y-71699500D01*
X138215924Y-71699500D01*
X138157733Y-71680593D01*
X138153119Y-71677028D01*
X138086452Y-71622317D01*
X138086452Y-71622316D01*
X137903954Y-71524768D01*
X137705934Y-71464699D01*
X137705929Y-71464698D01*
X137500003Y-71444417D01*
X137499997Y-71444417D01*
X137294070Y-71464698D01*
X137294065Y-71464699D01*
X137096045Y-71524768D01*
X136913547Y-71622316D01*
X136913547Y-71622317D01*
X136846881Y-71677028D01*
X136789904Y-71699328D01*
X136784076Y-71699500D01*
X135955029Y-71699500D01*
X135820750Y-71714630D01*
X135820738Y-71714633D01*
X135650477Y-71774211D01*
X135650476Y-71774211D01*
X135497741Y-71870181D01*
X135370181Y-71997741D01*
X135274211Y-72150476D01*
X135274211Y-72150477D01*
X135214633Y-72320738D01*
X135214632Y-72320742D01*
X135194435Y-72500000D01*
X125200499Y-72500000D01*
X125200499Y-69208860D01*
X125200500Y-69200020D01*
X125200509Y-69105534D01*
X125170962Y-68918887D01*
X125112577Y-68739162D01*
X125026793Y-68570784D01*
X124915721Y-68417901D01*
X124782099Y-68284278D01*
X124629215Y-68173206D01*
X124629210Y-68173203D01*
X124629206Y-68173201D01*
X124460837Y-68087422D01*
X124460835Y-68087421D01*
X124396231Y-68066435D01*
X124281111Y-68029038D01*
X124281107Y-68029037D01*
X124281106Y-68029037D01*
X124094469Y-67999491D01*
X124094464Y-67999491D01*
X124094416Y-67999491D01*
X124027931Y-67999496D01*
X124026546Y-67999421D01*
X123999597Y-67999500D01*
X123999320Y-67999500D01*
X123951387Y-67999504D01*
X123949990Y-67999643D01*
X122720093Y-68003212D01*
X122661848Y-67984473D01*
X122625741Y-67935078D01*
X122625563Y-67873893D01*
X122661383Y-67824289D01*
X122690166Y-67809753D01*
X122821630Y-67768507D01*
X123175869Y-67616491D01*
X123512911Y-67429417D01*
X123829298Y-67209205D01*
X124121784Y-66958115D01*
X124387366Y-66678722D01*
X124623320Y-66373895D01*
X124827225Y-66046760D01*
X124996987Y-65700675D01*
X125006756Y-65674300D01*
X125130862Y-65339203D01*
X125130862Y-65339202D01*
X125130863Y-65339199D01*
X125130866Y-65339192D01*
X125227488Y-64966018D01*
X125245261Y-64850000D01*
X127758924Y-64850000D01*
X127775232Y-64903764D01*
X127872724Y-65086160D01*
X127872731Y-65086170D01*
X128003940Y-65246050D01*
X128003949Y-65246059D01*
X128163824Y-65377265D01*
X128163830Y-65377269D01*
X128250000Y-65423326D01*
X129250000Y-65423326D01*
X129336169Y-65377269D01*
X129336175Y-65377265D01*
X129496050Y-65246059D01*
X129496059Y-65246050D01*
X129580542Y-65143106D01*
X130099500Y-65143106D01*
X130110123Y-65231565D01*
X130165637Y-65372339D01*
X130165638Y-65372341D01*
X130165639Y-65372342D01*
X130257078Y-65492922D01*
X130377658Y-65584361D01*
X130377659Y-65584361D01*
X130377660Y-65584362D01*
X130443143Y-65610185D01*
X130518436Y-65639877D01*
X130606898Y-65650500D01*
X130606900Y-65650500D01*
X131893100Y-65650500D01*
X131893102Y-65650500D01*
X131981564Y-65639877D01*
X132122342Y-65584361D01*
X132242922Y-65492922D01*
X132334361Y-65372342D01*
X132389877Y-65231564D01*
X132400500Y-65143102D01*
X132400500Y-63556898D01*
X132389877Y-63468436D01*
X132359370Y-63391075D01*
X132334362Y-63327660D01*
X132334361Y-63327659D01*
X132334361Y-63327658D01*
X132242922Y-63207078D01*
X132122342Y-63115639D01*
X132122341Y-63115638D01*
X132122339Y-63115637D01*
X131981565Y-63060123D01*
X131893106Y-63049500D01*
X131893102Y-63049500D01*
X130606898Y-63049500D01*
X130606893Y-63049500D01*
X130518434Y-63060123D01*
X130377660Y-63115637D01*
X130377656Y-63115640D01*
X130257081Y-63207075D01*
X130257075Y-63207081D01*
X130165640Y-63327656D01*
X130165637Y-63327660D01*
X130110123Y-63468434D01*
X130099500Y-63556893D01*
X130099500Y-65143106D01*
X129580542Y-65143106D01*
X129627268Y-65086170D01*
X129627275Y-65086160D01*
X129724767Y-64903764D01*
X129741076Y-64850000D01*
X129250001Y-64850000D01*
X129250000Y-64850001D01*
X129250000Y-65423326D01*
X128250000Y-65423326D01*
X128250000Y-64850001D01*
X128249999Y-64850000D01*
X127758924Y-64850000D01*
X125245261Y-64850000D01*
X125285860Y-64584984D01*
X125294131Y-64421889D01*
X128250000Y-64421889D01*
X128290507Y-64559844D01*
X128368239Y-64680798D01*
X128476900Y-64774952D01*
X128607685Y-64834680D01*
X128714237Y-64850000D01*
X128785763Y-64850000D01*
X128892315Y-64834680D01*
X129023100Y-64774952D01*
X129131761Y-64680798D01*
X129209493Y-64559844D01*
X129250000Y-64421889D01*
X129250000Y-64278111D01*
X129209493Y-64140156D01*
X129131761Y-64019202D01*
X129023100Y-63925048D01*
X128892315Y-63865320D01*
X128785763Y-63850000D01*
X128714237Y-63850000D01*
X128607685Y-63865320D01*
X128476900Y-63925048D01*
X128368239Y-64019202D01*
X128290507Y-64140156D01*
X128250000Y-64278111D01*
X128250000Y-64421889D01*
X125294131Y-64421889D01*
X125305384Y-64200000D01*
X125287634Y-63850000D01*
X127758924Y-63850000D01*
X128249999Y-63850000D01*
X128250000Y-63849999D01*
X128250000Y-63276672D01*
X128249999Y-63276671D01*
X129250000Y-63276671D01*
X129250000Y-63849999D01*
X129250001Y-63850000D01*
X129741075Y-63850000D01*
X129724767Y-63796235D01*
X129627275Y-63613839D01*
X129627268Y-63613829D01*
X129496059Y-63453949D01*
X129496050Y-63453940D01*
X129336169Y-63322730D01*
X129250000Y-63276671D01*
X128249999Y-63276671D01*
X128163830Y-63322730D01*
X128003949Y-63453940D01*
X128003940Y-63453949D01*
X127872731Y-63613829D01*
X127872724Y-63613839D01*
X127775232Y-63796235D01*
X127758924Y-63850000D01*
X125287634Y-63850000D01*
X125285860Y-63815016D01*
X125227488Y-63433982D01*
X125130866Y-63060808D01*
X125130862Y-63060796D01*
X125071310Y-62900000D01*
X145126672Y-62900000D01*
X145172730Y-62986169D01*
X145303940Y-63146050D01*
X145303949Y-63146059D01*
X145463829Y-63277268D01*
X145463839Y-63277275D01*
X145646235Y-63374767D01*
X145700000Y-63391075D01*
X146700000Y-63391075D01*
X146753764Y-63374767D01*
X146936160Y-63277275D01*
X146936170Y-63277268D01*
X147096050Y-63146059D01*
X147096059Y-63146050D01*
X147227269Y-62986169D01*
X147273328Y-62900000D01*
X146700001Y-62900000D01*
X146700000Y-62900001D01*
X146700000Y-63391075D01*
X145700000Y-63391075D01*
X145700000Y-62900001D01*
X145699999Y-62900000D01*
X145126672Y-62900000D01*
X125071310Y-62900000D01*
X124996988Y-62699326D01*
X124996987Y-62699325D01*
X124953095Y-62609844D01*
X124827225Y-62353240D01*
X124776248Y-62271456D01*
X124623326Y-62026114D01*
X124623323Y-62026111D01*
X124623320Y-62026105D01*
X124387366Y-61721278D01*
X124177026Y-61500000D01*
X127694435Y-61500000D01*
X127714632Y-61679257D01*
X127714633Y-61679261D01*
X127774211Y-61849522D01*
X127774211Y-61849523D01*
X127820720Y-61923541D01*
X127870184Y-62002262D01*
X127997738Y-62129816D01*
X127997740Y-62129817D01*
X127997741Y-62129818D01*
X128068312Y-62174161D01*
X128150478Y-62225789D01*
X128218657Y-62249646D01*
X128320738Y-62285366D01*
X128320742Y-62285367D01*
X128320745Y-62285368D01*
X128320746Y-62285368D01*
X128320750Y-62285369D01*
X128455029Y-62300499D01*
X128455045Y-62300499D01*
X128455046Y-62300500D01*
X129284076Y-62300500D01*
X129342267Y-62319407D01*
X129346881Y-62322972D01*
X129413547Y-62377682D01*
X129413547Y-62377683D01*
X129413548Y-62377683D01*
X129413550Y-62377685D01*
X129596046Y-62475232D01*
X129733997Y-62517078D01*
X129794065Y-62535300D01*
X129794070Y-62535301D01*
X129999997Y-62555583D01*
X130000000Y-62555583D01*
X130000003Y-62555583D01*
X130205929Y-62535301D01*
X130205934Y-62535300D01*
X130403954Y-62475232D01*
X130410208Y-62471889D01*
X145700000Y-62471889D01*
X145740507Y-62609844D01*
X145818239Y-62730798D01*
X145926900Y-62824952D01*
X146057685Y-62884680D01*
X146164237Y-62900000D01*
X146235763Y-62900000D01*
X146342315Y-62884680D01*
X146473100Y-62824952D01*
X146581761Y-62730798D01*
X146659493Y-62609844D01*
X146700000Y-62471889D01*
X146700000Y-62328111D01*
X146659493Y-62190156D01*
X146581761Y-62069202D01*
X146473100Y-61975048D01*
X146342315Y-61915320D01*
X146235763Y-61900000D01*
X146164237Y-61900000D01*
X146057685Y-61915320D01*
X145926900Y-61975048D01*
X145818239Y-62069202D01*
X145740507Y-62190156D01*
X145700000Y-62328111D01*
X145700000Y-62471889D01*
X130410208Y-62471889D01*
X130586450Y-62377685D01*
X130653119Y-62322972D01*
X130710096Y-62300672D01*
X130715924Y-62300500D01*
X131544953Y-62300500D01*
X131544954Y-62300500D01*
X131544955Y-62300499D01*
X131544970Y-62300499D01*
X131679249Y-62285369D01*
X131679251Y-62285368D01*
X131679255Y-62285368D01*
X131849522Y-62225789D01*
X132002262Y-62129816D01*
X132129816Y-62002262D01*
X132194072Y-61899999D01*
X145126671Y-61899999D01*
X145126672Y-61900000D01*
X145699999Y-61900000D01*
X145700000Y-61899999D01*
X145700000Y-61408923D01*
X146700000Y-61408923D01*
X146700000Y-61899999D01*
X146700001Y-61900000D01*
X147273328Y-61900000D01*
X147273328Y-61899999D01*
X147227269Y-61813830D01*
X147096059Y-61653949D01*
X147096050Y-61653940D01*
X146936170Y-61522731D01*
X146936160Y-61522724D01*
X146753771Y-61425236D01*
X146753758Y-61425231D01*
X146700000Y-61408923D01*
X145700000Y-61408923D01*
X145646241Y-61425231D01*
X145646228Y-61425236D01*
X145463839Y-61522724D01*
X145463829Y-61522731D01*
X145303949Y-61653940D01*
X145303940Y-61653949D01*
X145172730Y-61813830D01*
X145126671Y-61899999D01*
X132194072Y-61899999D01*
X132225789Y-61849522D01*
X132285368Y-61679255D01*
X132305565Y-61500000D01*
X132285368Y-61320745D01*
X132225789Y-61150478D01*
X132129816Y-60997738D01*
X132002262Y-60870184D01*
X132002259Y-60870182D01*
X132002258Y-60870181D01*
X131849523Y-60774211D01*
X131679261Y-60714633D01*
X131679249Y-60714630D01*
X131544970Y-60699500D01*
X131544954Y-60699500D01*
X130715924Y-60699500D01*
X130657733Y-60680593D01*
X130653119Y-60677028D01*
X130619457Y-60649403D01*
X130586452Y-60622316D01*
X130403954Y-60524768D01*
X130205934Y-60464699D01*
X130205929Y-60464698D01*
X130000003Y-60444417D01*
X129999997Y-60444417D01*
X129794070Y-60464698D01*
X129794065Y-60464699D01*
X129596045Y-60524768D01*
X129413547Y-60622316D01*
X129413547Y-60622317D01*
X129346881Y-60677028D01*
X129289904Y-60699328D01*
X129284076Y-60699500D01*
X128455029Y-60699500D01*
X128320750Y-60714630D01*
X128320738Y-60714633D01*
X128150477Y-60774211D01*
X128150476Y-60774211D01*
X127997741Y-60870181D01*
X127870181Y-60997741D01*
X127774211Y-61150476D01*
X127774211Y-61150477D01*
X127714633Y-61320738D01*
X127714632Y-61320742D01*
X127694435Y-61500000D01*
X124177026Y-61500000D01*
X124121784Y-61441885D01*
X124102390Y-61425236D01*
X123897035Y-61248945D01*
X123829298Y-61190795D01*
X123829294Y-61190792D01*
X123512924Y-60970591D01*
X123512906Y-60970580D01*
X123175873Y-60783511D01*
X123175874Y-60783511D01*
X122821632Y-60631494D01*
X122821622Y-60631490D01*
X122453828Y-60516094D01*
X122076241Y-60438498D01*
X121692742Y-60399500D01*
X121692740Y-60399500D01*
X121307260Y-60399500D01*
X121307258Y-60399500D01*
X120923758Y-60438498D01*
X120546171Y-60516094D01*
X120178377Y-60631490D01*
X120178367Y-60631494D01*
X119824125Y-60783511D01*
X119487093Y-60970580D01*
X119487075Y-60970591D01*
X119170706Y-61190792D01*
X119170705Y-61190792D01*
X118878218Y-61441882D01*
X118612634Y-61721278D01*
X118376673Y-62026114D01*
X118172776Y-62353237D01*
X118003012Y-62699325D01*
X118003011Y-62699326D01*
X117869137Y-63060796D01*
X117869137Y-63060797D01*
X117869134Y-63060806D01*
X117869134Y-63060808D01*
X117781201Y-63400422D01*
X117772511Y-63433986D01*
X117772510Y-63433993D01*
X117714140Y-63815015D01*
X117714139Y-63815017D01*
X117694616Y-64200000D01*
X117714139Y-64584982D01*
X117714140Y-64584984D01*
X117772512Y-64966018D01*
X117841267Y-65231565D01*
X117869137Y-65339202D01*
X117869137Y-65339203D01*
X117971764Y-65616303D01*
X117974244Y-65677438D01*
X117940316Y-65728355D01*
X117882939Y-65749605D01*
X117824030Y-65733071D01*
X117815054Y-65726325D01*
X117439295Y-65408943D01*
X117439285Y-65408935D01*
X116769171Y-64892227D01*
X116076699Y-64405837D01*
X115363278Y-63950757D01*
X115095446Y-63796235D01*
X114630310Y-63527881D01*
X113879245Y-63138043D01*
X113111574Y-62782019D01*
X113111562Y-62782014D01*
X112328825Y-62460516D01*
X111960628Y-62328111D01*
X111532530Y-62174165D01*
X111532523Y-62174163D01*
X111532518Y-62174161D01*
X110724302Y-61923546D01*
X110724296Y-61923544D01*
X110724285Y-61923541D01*
X109905687Y-61709136D01*
X109905688Y-61709136D01*
X109905672Y-61709132D01*
X109078366Y-61531378D01*
X108243933Y-61390615D01*
X107750121Y-61329769D01*
X107404078Y-61287131D01*
X107404070Y-61287130D01*
X107404067Y-61287130D01*
X106560447Y-61221128D01*
X105714717Y-61192738D01*
X105714713Y-61192738D01*
X105714712Y-61192738D01*
X105666749Y-61193263D01*
X104868560Y-61202015D01*
X104164635Y-61241113D01*
X104023644Y-61248945D01*
X104023641Y-61248945D01*
X104023628Y-61248946D01*
X103181675Y-61333429D01*
X102344266Y-61455308D01*
X101513147Y-61614329D01*
X100689893Y-61810192D01*
X99876228Y-62042486D01*
X99876216Y-62042489D01*
X99876209Y-62042492D01*
X99434488Y-62190156D01*
X99073648Y-62310782D01*
X98283843Y-62614517D01*
X97508309Y-62953115D01*
X96748627Y-63325889D01*
X96006303Y-63732096D01*
X95282774Y-64170949D01*
X94579515Y-64641556D01*
X93897878Y-65143012D01*
X93239241Y-65674300D01*
X93188860Y-65718783D01*
X93132725Y-65743123D01*
X93073003Y-65729819D01*
X93032508Y-65683952D01*
X93026706Y-65623042D01*
X93030496Y-65610197D01*
X93130866Y-65339192D01*
X93227488Y-64966018D01*
X93285860Y-64584984D01*
X93305384Y-64200000D01*
X93285860Y-63815016D01*
X93227488Y-63433982D01*
X93130866Y-63060808D01*
X93130862Y-63060796D01*
X92996988Y-62699326D01*
X92996987Y-62699325D01*
X92953095Y-62609844D01*
X92827225Y-62353240D01*
X92776248Y-62271456D01*
X92623326Y-62026114D01*
X92623323Y-62026111D01*
X92623320Y-62026105D01*
X92387366Y-61721278D01*
X92121784Y-61441885D01*
X92102390Y-61425236D01*
X91897035Y-61248945D01*
X91829298Y-61190795D01*
X91829294Y-61190792D01*
X91512924Y-60970591D01*
X91512906Y-60970580D01*
X91175873Y-60783511D01*
X91175874Y-60783511D01*
X90821632Y-60631494D01*
X90821622Y-60631490D01*
X90453828Y-60516094D01*
X90076241Y-60438498D01*
X89692742Y-60399500D01*
X89692740Y-60399500D01*
X89307260Y-60399500D01*
X89307258Y-60399500D01*
X88923758Y-60438498D01*
X88546171Y-60516094D01*
X88178377Y-60631490D01*
X88178367Y-60631494D01*
X87824125Y-60783511D01*
X87487093Y-60970580D01*
X87487075Y-60970591D01*
X87170706Y-61190792D01*
X87170705Y-61190792D01*
X86878218Y-61441882D01*
X86612634Y-61721278D01*
X86376673Y-62026114D01*
X86172776Y-62353237D01*
X86003012Y-62699325D01*
X86003011Y-62699326D01*
X85869137Y-63060796D01*
X85869137Y-63060797D01*
X85869134Y-63060806D01*
X85869134Y-63060808D01*
X85781201Y-63400422D01*
X85772511Y-63433986D01*
X85772510Y-63433993D01*
X85714140Y-63815015D01*
X85714139Y-63815017D01*
X85694616Y-64200000D01*
X85714139Y-64584982D01*
X85714140Y-64584984D01*
X85772512Y-64966018D01*
X85841267Y-65231565D01*
X85869137Y-65339202D01*
X85869137Y-65339203D01*
X86003011Y-65700673D01*
X86003012Y-65700674D01*
X86172776Y-66046762D01*
X86376673Y-66373885D01*
X86376676Y-66373890D01*
X86376680Y-66373895D01*
X86612634Y-66678722D01*
X86835071Y-66912726D01*
X86878218Y-66958117D01*
X86923477Y-66996970D01*
X87170702Y-67209205D01*
X87170705Y-67209207D01*
X87487075Y-67429408D01*
X87487083Y-67429413D01*
X87487089Y-67429417D01*
X87689895Y-67541984D01*
X87824126Y-67616488D01*
X87824125Y-67616488D01*
X87824127Y-67616489D01*
X87824131Y-67616491D01*
X88178370Y-67768507D01*
X88546171Y-67883905D01*
X88923759Y-67961502D01*
X89236461Y-67993300D01*
X89307258Y-68000500D01*
X89307260Y-68000500D01*
X89692742Y-68000500D01*
X89757555Y-67993908D01*
X90076241Y-67961502D01*
X90453829Y-67883905D01*
X90821630Y-67768507D01*
X90910593Y-67730329D01*
X90971521Y-67724757D01*
X91024091Y-67756063D01*
X91048220Y-67812289D01*
X91034692Y-67871960D01*
X91024456Y-67886133D01*
X90859995Y-68075958D01*
X90760052Y-68202262D01*
X90426336Y-68624000D01*
X90334895Y-68739559D01*
X90091620Y-69076837D01*
X90088731Y-69080646D01*
X90064709Y-69110769D01*
X90054812Y-69154135D01*
X90054638Y-69154883D01*
X90045702Y-69192675D01*
X90048227Y-69208264D01*
X90049500Y-69224088D01*
X90049500Y-91175907D01*
X90048228Y-91191728D01*
X90045702Y-91207325D01*
X90054616Y-91245020D01*
X90054791Y-91245772D01*
X90064709Y-91289231D01*
X90088751Y-91319377D01*
X90091640Y-91323185D01*
X90337250Y-91663669D01*
X90337262Y-91663685D01*
X90867580Y-92333299D01*
X90867592Y-92333313D01*
X91024131Y-92513687D01*
X91047992Y-92570028D01*
X91034180Y-92629634D01*
X90987970Y-92669738D01*
X90927013Y-92675020D01*
X90910321Y-92669553D01*
X90821632Y-92631494D01*
X90821622Y-92631490D01*
X90453828Y-92516094D01*
X90076241Y-92438498D01*
X89692742Y-92399500D01*
X89692740Y-92399500D01*
X89307260Y-92399500D01*
X89307258Y-92399500D01*
X88923758Y-92438498D01*
X88546171Y-92516094D01*
X88178377Y-92631490D01*
X88178367Y-92631494D01*
X87824125Y-92783511D01*
X87487093Y-92970580D01*
X87487075Y-92970591D01*
X87170706Y-93190792D01*
X87170705Y-93190792D01*
X86878218Y-93441882D01*
X86612634Y-93721278D01*
X86376673Y-94026114D01*
X86172776Y-94353237D01*
X86003012Y-94699325D01*
X86003011Y-94699326D01*
X85869137Y-95060796D01*
X85869137Y-95060797D01*
X85869134Y-95060806D01*
X85869134Y-95060808D01*
X85797333Y-95338119D01*
X85772511Y-95433986D01*
X85772510Y-95433993D01*
X85714140Y-95815015D01*
X85714139Y-95815017D01*
X85694616Y-96200000D01*
X85450500Y-96200000D01*
X85450500Y-56750006D01*
X86094655Y-56750006D01*
X86114013Y-57070055D01*
X86114016Y-57070080D01*
X86171813Y-57385462D01*
X86171813Y-57385464D01*
X86239478Y-57602608D01*
X86267209Y-57691598D01*
X86398809Y-57984000D01*
X86398813Y-57984008D01*
X86398817Y-57984014D01*
X86564685Y-58258394D01*
X86564689Y-58258400D01*
X86564694Y-58258408D01*
X86762446Y-58510819D01*
X86989181Y-58737554D01*
X87241592Y-58935306D01*
X87516000Y-59101191D01*
X87808402Y-59232791D01*
X88114534Y-59328186D01*
X88218172Y-59347178D01*
X88429919Y-59385983D01*
X88429930Y-59385984D01*
X88429934Y-59385985D01*
X88429937Y-59385985D01*
X88429944Y-59385986D01*
X88749994Y-59405345D01*
X88750000Y-59405345D01*
X88750006Y-59405345D01*
X89070055Y-59385986D01*
X89070060Y-59385985D01*
X89070066Y-59385985D01*
X89070071Y-59385984D01*
X89070080Y-59385983D01*
X89207438Y-59360810D01*
X89385466Y-59328186D01*
X89691598Y-59232791D01*
X89984000Y-59101191D01*
X90258408Y-58935306D01*
X90284505Y-58914860D01*
X92469500Y-58914860D01*
X92469501Y-58914863D01*
X92472414Y-58939990D01*
X92497756Y-58997385D01*
X92517794Y-59042765D01*
X92597235Y-59122206D01*
X92700009Y-59167585D01*
X92725135Y-59170500D01*
X94514864Y-59170499D01*
X94539991Y-59167585D01*
X94642765Y-59122206D01*
X94722206Y-59042765D01*
X94767585Y-58939991D01*
X94770500Y-58914865D01*
X94770499Y-58020000D01*
X95004571Y-58020000D01*
X95024244Y-58232311D01*
X95031671Y-58258413D01*
X95082595Y-58437389D01*
X95177634Y-58628255D01*
X95306128Y-58798407D01*
X95306135Y-58798413D01*
X95463692Y-58942047D01*
X95463699Y-58942053D01*
X95567389Y-59006255D01*
X95644981Y-59054298D01*
X95843802Y-59131321D01*
X96053390Y-59170500D01*
X96266610Y-59170500D01*
X96476198Y-59131321D01*
X96675019Y-59054298D01*
X96856302Y-58942052D01*
X97013872Y-58798407D01*
X97142366Y-58628255D01*
X97237405Y-58437389D01*
X97295756Y-58232310D01*
X97315429Y-58020000D01*
X97544571Y-58020000D01*
X97564244Y-58232311D01*
X97571671Y-58258413D01*
X97622595Y-58437389D01*
X97717634Y-58628255D01*
X97846128Y-58798407D01*
X97846135Y-58798413D01*
X98003692Y-58942047D01*
X98003699Y-58942053D01*
X98107389Y-59006255D01*
X98184981Y-59054298D01*
X98383802Y-59131321D01*
X98593390Y-59170500D01*
X98806610Y-59170500D01*
X99016198Y-59131321D01*
X99215019Y-59054298D01*
X99396302Y-58942052D01*
X99553872Y-58798407D01*
X99682366Y-58628255D01*
X99777405Y-58437389D01*
X99835756Y-58232310D01*
X99855429Y-58020000D01*
X100084571Y-58020000D01*
X100104244Y-58232311D01*
X100111671Y-58258413D01*
X100162595Y-58437389D01*
X100257634Y-58628255D01*
X100386128Y-58798407D01*
X100386135Y-58798413D01*
X100543692Y-58942047D01*
X100543699Y-58942053D01*
X100647389Y-59006255D01*
X100724981Y-59054298D01*
X100923802Y-59131321D01*
X101133390Y-59170500D01*
X101346610Y-59170500D01*
X101556198Y-59131321D01*
X101755019Y-59054298D01*
X101936302Y-58942052D01*
X102093872Y-58798407D01*
X102222366Y-58628255D01*
X102276270Y-58520000D01*
X102856672Y-58520000D01*
X102902730Y-58606169D01*
X103033940Y-58766050D01*
X103033949Y-58766059D01*
X103193824Y-58897265D01*
X103193830Y-58897269D01*
X103280000Y-58943326D01*
X104280000Y-58943326D01*
X104366169Y-58897269D01*
X104366175Y-58897265D01*
X104526050Y-58766059D01*
X104526059Y-58766050D01*
X104657269Y-58606169D01*
X104703328Y-58520000D01*
X104280001Y-58520000D01*
X104280000Y-58520001D01*
X104280000Y-58943326D01*
X103280000Y-58943326D01*
X103280000Y-58520001D01*
X103279999Y-58520000D01*
X102856672Y-58520000D01*
X102276270Y-58520000D01*
X102317405Y-58437389D01*
X102375756Y-58232310D01*
X102388768Y-58091889D01*
X103280000Y-58091889D01*
X103320507Y-58229844D01*
X103398239Y-58350798D01*
X103506900Y-58444952D01*
X103637685Y-58504680D01*
X103744237Y-58520000D01*
X103815763Y-58520000D01*
X103922315Y-58504680D01*
X104053100Y-58444952D01*
X104161761Y-58350798D01*
X104239493Y-58229844D01*
X104280000Y-58091889D01*
X104280000Y-58020000D01*
X105164571Y-58020000D01*
X105184244Y-58232311D01*
X105191671Y-58258413D01*
X105242595Y-58437389D01*
X105337634Y-58628255D01*
X105466128Y-58798407D01*
X105466135Y-58798413D01*
X105623692Y-58942047D01*
X105623699Y-58942053D01*
X105727389Y-59006255D01*
X105804981Y-59054298D01*
X106003802Y-59131321D01*
X106213390Y-59170500D01*
X106426610Y-59170500D01*
X106636198Y-59131321D01*
X106835019Y-59054298D01*
X107016302Y-58942052D01*
X107173872Y-58798407D01*
X107302366Y-58628255D01*
X107397405Y-58437389D01*
X107455756Y-58232310D01*
X107475429Y-58020000D01*
X107704571Y-58020000D01*
X107724244Y-58232311D01*
X107731671Y-58258413D01*
X107782595Y-58437389D01*
X107877634Y-58628255D01*
X108006128Y-58798407D01*
X108006135Y-58798413D01*
X108163692Y-58942047D01*
X108163699Y-58942053D01*
X108267389Y-59006255D01*
X108344981Y-59054298D01*
X108543802Y-59131321D01*
X108753390Y-59170500D01*
X108966610Y-59170500D01*
X109176198Y-59131321D01*
X109375019Y-59054298D01*
X109556302Y-58942052D01*
X109713872Y-58798407D01*
X109842366Y-58628255D01*
X109937405Y-58437389D01*
X109995756Y-58232310D01*
X110015429Y-58020000D01*
X110244571Y-58020000D01*
X110264244Y-58232311D01*
X110271671Y-58258413D01*
X110322595Y-58437389D01*
X110417634Y-58628255D01*
X110546128Y-58798407D01*
X110546135Y-58798413D01*
X110703692Y-58942047D01*
X110703699Y-58942053D01*
X110807389Y-59006255D01*
X110884981Y-59054298D01*
X111083802Y-59131321D01*
X111293390Y-59170500D01*
X111506610Y-59170500D01*
X111716198Y-59131321D01*
X111915019Y-59054298D01*
X112096302Y-58942052D01*
X112253872Y-58798407D01*
X112382366Y-58628255D01*
X112477405Y-58437389D01*
X112535756Y-58232310D01*
X112555429Y-58020000D01*
X112784571Y-58020000D01*
X112804244Y-58232311D01*
X112811671Y-58258413D01*
X112862595Y-58437389D01*
X112957634Y-58628255D01*
X113086128Y-58798407D01*
X113086135Y-58798413D01*
X113243692Y-58942047D01*
X113243699Y-58942053D01*
X113347389Y-59006255D01*
X113424981Y-59054298D01*
X113623802Y-59131321D01*
X113833390Y-59170500D01*
X114046610Y-59170500D01*
X114256198Y-59131321D01*
X114455019Y-59054298D01*
X114636302Y-58942052D01*
X114793872Y-58798407D01*
X114922366Y-58628255D01*
X115017405Y-58437389D01*
X115075756Y-58232310D01*
X115095429Y-58020000D01*
X115324571Y-58020000D01*
X115344244Y-58232311D01*
X115351671Y-58258413D01*
X115402595Y-58437389D01*
X115497634Y-58628255D01*
X115626128Y-58798407D01*
X115626135Y-58798413D01*
X115783692Y-58942047D01*
X115783699Y-58942053D01*
X115887389Y-59006255D01*
X115964981Y-59054298D01*
X116163802Y-59131321D01*
X116373390Y-59170500D01*
X116586610Y-59170500D01*
X116796198Y-59131321D01*
X116995019Y-59054298D01*
X117176302Y-58942052D01*
X117333872Y-58798407D01*
X117462366Y-58628255D01*
X117557405Y-58437389D01*
X117615756Y-58232310D01*
X117635429Y-58020000D01*
X117864571Y-58020000D01*
X117884244Y-58232311D01*
X117891671Y-58258413D01*
X117942595Y-58437389D01*
X118037634Y-58628255D01*
X118166128Y-58798407D01*
X118166135Y-58798413D01*
X118323692Y-58942047D01*
X118323699Y-58942053D01*
X118427389Y-59006255D01*
X118504981Y-59054298D01*
X118703802Y-59131321D01*
X118913390Y-59170500D01*
X119126610Y-59170500D01*
X119336198Y-59131321D01*
X119535019Y-59054298D01*
X119716302Y-58942052D01*
X119873872Y-58798407D01*
X120002366Y-58628255D01*
X120097405Y-58437389D01*
X120155756Y-58232310D01*
X120175429Y-58020000D01*
X120404571Y-58020000D01*
X120424244Y-58232311D01*
X120431671Y-58258413D01*
X120482595Y-58437389D01*
X120577634Y-58628255D01*
X120706128Y-58798407D01*
X120706135Y-58798413D01*
X120863692Y-58942047D01*
X120863699Y-58942053D01*
X120967389Y-59006255D01*
X121044981Y-59054298D01*
X121243802Y-59131321D01*
X121453390Y-59170500D01*
X121666610Y-59170500D01*
X121876198Y-59131321D01*
X122075019Y-59054298D01*
X122256302Y-58942052D01*
X122413872Y-58798407D01*
X122542366Y-58628255D01*
X122596270Y-58520000D01*
X123176672Y-58520000D01*
X123222730Y-58606169D01*
X123353940Y-58766050D01*
X123353949Y-58766059D01*
X123513824Y-58897265D01*
X123513830Y-58897269D01*
X123600000Y-58943326D01*
X124600000Y-58943326D01*
X124686169Y-58897269D01*
X124686175Y-58897265D01*
X124846050Y-58766059D01*
X124846059Y-58766050D01*
X124977269Y-58606169D01*
X125023328Y-58520000D01*
X124600001Y-58520000D01*
X124600000Y-58520001D01*
X124600000Y-58943326D01*
X123600000Y-58943326D01*
X123600000Y-58520001D01*
X123599999Y-58520000D01*
X123176672Y-58520000D01*
X122596270Y-58520000D01*
X122637405Y-58437389D01*
X122695756Y-58232310D01*
X122708768Y-58091889D01*
X123600000Y-58091889D01*
X123640507Y-58229844D01*
X123718239Y-58350798D01*
X123826900Y-58444952D01*
X123957685Y-58504680D01*
X124064237Y-58520000D01*
X124135763Y-58520000D01*
X124242315Y-58504680D01*
X124373100Y-58444952D01*
X124481761Y-58350798D01*
X124559493Y-58229844D01*
X124600000Y-58091889D01*
X124600000Y-58020000D01*
X125484571Y-58020000D01*
X125504244Y-58232311D01*
X125511671Y-58258413D01*
X125562595Y-58437389D01*
X125657634Y-58628255D01*
X125786128Y-58798407D01*
X125786135Y-58798413D01*
X125943692Y-58942047D01*
X125943699Y-58942053D01*
X126047389Y-59006255D01*
X126124981Y-59054298D01*
X126323802Y-59131321D01*
X126533390Y-59170500D01*
X126746610Y-59170500D01*
X126956198Y-59131321D01*
X127155019Y-59054298D01*
X127336302Y-58942052D01*
X127493872Y-58798407D01*
X127622366Y-58628255D01*
X127717405Y-58437389D01*
X127775756Y-58232310D01*
X127795429Y-58020000D01*
X128024571Y-58020000D01*
X128044244Y-58232311D01*
X128051671Y-58258413D01*
X128102595Y-58437389D01*
X128197634Y-58628255D01*
X128326128Y-58798407D01*
X128326135Y-58798413D01*
X128483692Y-58942047D01*
X128483699Y-58942053D01*
X128587389Y-59006255D01*
X128664981Y-59054298D01*
X128863802Y-59131321D01*
X129073390Y-59170500D01*
X129286610Y-59170500D01*
X129496198Y-59131321D01*
X129695019Y-59054298D01*
X129876302Y-58942052D01*
X130033872Y-58798407D01*
X130162366Y-58628255D01*
X130257405Y-58437389D01*
X130315756Y-58232310D01*
X130335429Y-58020000D01*
X130564571Y-58020000D01*
X130584244Y-58232311D01*
X130591671Y-58258413D01*
X130642595Y-58437389D01*
X130737634Y-58628255D01*
X130866128Y-58798407D01*
X130866135Y-58798413D01*
X131023692Y-58942047D01*
X131023699Y-58942053D01*
X131127389Y-59006255D01*
X131204981Y-59054298D01*
X131403802Y-59131321D01*
X131613390Y-59170500D01*
X131826610Y-59170500D01*
X132036198Y-59131321D01*
X132235019Y-59054298D01*
X132416302Y-58942052D01*
X132573872Y-58798407D01*
X132702366Y-58628255D01*
X132797405Y-58437389D01*
X132855756Y-58232310D01*
X132875429Y-58020000D01*
X133104571Y-58020000D01*
X133124244Y-58232311D01*
X133131671Y-58258413D01*
X133182595Y-58437389D01*
X133277634Y-58628255D01*
X133406128Y-58798407D01*
X133406135Y-58798413D01*
X133563692Y-58942047D01*
X133563699Y-58942053D01*
X133667389Y-59006255D01*
X133744981Y-59054298D01*
X133943802Y-59131321D01*
X134153390Y-59170500D01*
X134366610Y-59170500D01*
X134576198Y-59131321D01*
X134775019Y-59054298D01*
X134956302Y-58942052D01*
X135113872Y-58798407D01*
X135242366Y-58628255D01*
X135337405Y-58437389D01*
X135395756Y-58232310D01*
X135415429Y-58020000D01*
X135644571Y-58020000D01*
X135664244Y-58232311D01*
X135671671Y-58258413D01*
X135722595Y-58437389D01*
X135817634Y-58628255D01*
X135946128Y-58798407D01*
X135946135Y-58798413D01*
X136103692Y-58942047D01*
X136103699Y-58942053D01*
X136207389Y-59006255D01*
X136284981Y-59054298D01*
X136483802Y-59131321D01*
X136693390Y-59170500D01*
X136906610Y-59170500D01*
X137116198Y-59131321D01*
X137315019Y-59054298D01*
X137496302Y-58942052D01*
X137653872Y-58798407D01*
X137782366Y-58628255D01*
X137877405Y-58437389D01*
X137935756Y-58232310D01*
X137955429Y-58020000D01*
X138184571Y-58020000D01*
X138204244Y-58232311D01*
X138211671Y-58258413D01*
X138262595Y-58437389D01*
X138357634Y-58628255D01*
X138486128Y-58798407D01*
X138486135Y-58798413D01*
X138643692Y-58942047D01*
X138643699Y-58942053D01*
X138747389Y-59006255D01*
X138824981Y-59054298D01*
X139023802Y-59131321D01*
X139233390Y-59170500D01*
X139446610Y-59170500D01*
X139656198Y-59131321D01*
X139855019Y-59054298D01*
X140036302Y-58942052D01*
X140193872Y-58798407D01*
X140322366Y-58628255D01*
X140376270Y-58520000D01*
X140956672Y-58520000D01*
X141002730Y-58606169D01*
X141133940Y-58766050D01*
X141133949Y-58766059D01*
X141293824Y-58897265D01*
X141293830Y-58897269D01*
X141380000Y-58943326D01*
X142380000Y-58943326D01*
X142466169Y-58897269D01*
X142466175Y-58897265D01*
X142626050Y-58766059D01*
X142626059Y-58766050D01*
X142757269Y-58606169D01*
X142803328Y-58520000D01*
X142380001Y-58520000D01*
X142380000Y-58520001D01*
X142380000Y-58943326D01*
X141380000Y-58943326D01*
X141380000Y-58520001D01*
X141379999Y-58520000D01*
X140956672Y-58520000D01*
X140376270Y-58520000D01*
X140417405Y-58437389D01*
X140475756Y-58232310D01*
X140488768Y-58091889D01*
X141380000Y-58091889D01*
X141420507Y-58229844D01*
X141498239Y-58350798D01*
X141606900Y-58444952D01*
X141737685Y-58504680D01*
X141844237Y-58520000D01*
X141915763Y-58520000D01*
X142022315Y-58504680D01*
X142153100Y-58444952D01*
X142261761Y-58350798D01*
X142339493Y-58229844D01*
X142380000Y-58091889D01*
X142380000Y-57948111D01*
X142339493Y-57810156D01*
X142261761Y-57689202D01*
X142153100Y-57595048D01*
X142022315Y-57535320D01*
X141915763Y-57520000D01*
X141844237Y-57520000D01*
X141737685Y-57535320D01*
X141606900Y-57595048D01*
X141498239Y-57689202D01*
X141420507Y-57810156D01*
X141380000Y-57948111D01*
X141380000Y-58091889D01*
X140488768Y-58091889D01*
X140495429Y-58020000D01*
X140475756Y-57807690D01*
X140417405Y-57602611D01*
X140376270Y-57519999D01*
X140956671Y-57519999D01*
X140956672Y-57520000D01*
X141379999Y-57520000D01*
X141380000Y-57519999D01*
X141380000Y-57096672D01*
X141379999Y-57096671D01*
X142380000Y-57096671D01*
X142380000Y-57519999D01*
X142380001Y-57520000D01*
X142803328Y-57520000D01*
X142803328Y-57519999D01*
X142757269Y-57433830D01*
X142626059Y-57273949D01*
X142626050Y-57273940D01*
X142466169Y-57142730D01*
X142380000Y-57096671D01*
X141379999Y-57096671D01*
X141293830Y-57142730D01*
X141133949Y-57273940D01*
X141133940Y-57273949D01*
X141002730Y-57433830D01*
X140956671Y-57519999D01*
X140376270Y-57519999D01*
X140322366Y-57411745D01*
X140193872Y-57241593D01*
X140139623Y-57192139D01*
X140036307Y-57097952D01*
X140036300Y-57097946D01*
X139855024Y-56985705D01*
X139855019Y-56985702D01*
X139656198Y-56908679D01*
X139656197Y-56908678D01*
X139656195Y-56908678D01*
X139446610Y-56869500D01*
X139233390Y-56869500D01*
X139023804Y-56908678D01*
X138824980Y-56985702D01*
X138824975Y-56985705D01*
X138643699Y-57097946D01*
X138643692Y-57097952D01*
X138486135Y-57241586D01*
X138486131Y-57241589D01*
X138486128Y-57241593D01*
X138486125Y-57241597D01*
X138357635Y-57411743D01*
X138357630Y-57411752D01*
X138262596Y-57602608D01*
X138204244Y-57807688D01*
X138184571Y-58020000D01*
X137955429Y-58020000D01*
X137935756Y-57807690D01*
X137877405Y-57602611D01*
X137782366Y-57411745D01*
X137653872Y-57241593D01*
X137599623Y-57192139D01*
X137496307Y-57097952D01*
X137496300Y-57097946D01*
X137315024Y-56985705D01*
X137315019Y-56985702D01*
X137116198Y-56908679D01*
X137116197Y-56908678D01*
X137116195Y-56908678D01*
X136906610Y-56869500D01*
X136693390Y-56869500D01*
X136483804Y-56908678D01*
X136284980Y-56985702D01*
X136284975Y-56985705D01*
X136103699Y-57097946D01*
X136103692Y-57097952D01*
X135946135Y-57241586D01*
X135946131Y-57241589D01*
X135946128Y-57241593D01*
X135946125Y-57241597D01*
X135817635Y-57411743D01*
X135817630Y-57411752D01*
X135722596Y-57602608D01*
X135664244Y-57807688D01*
X135644571Y-58020000D01*
X135415429Y-58020000D01*
X135395756Y-57807690D01*
X135337405Y-57602611D01*
X135242366Y-57411745D01*
X135113872Y-57241593D01*
X135059623Y-57192139D01*
X134956307Y-57097952D01*
X134956300Y-57097946D01*
X134775024Y-56985705D01*
X134775019Y-56985702D01*
X134576198Y-56908679D01*
X134576197Y-56908678D01*
X134576195Y-56908678D01*
X134366610Y-56869500D01*
X134153390Y-56869500D01*
X133943804Y-56908678D01*
X133744980Y-56985702D01*
X133744975Y-56985705D01*
X133563699Y-57097946D01*
X133563692Y-57097952D01*
X133406135Y-57241586D01*
X133406131Y-57241589D01*
X133406128Y-57241593D01*
X133406125Y-57241597D01*
X133277635Y-57411743D01*
X133277630Y-57411752D01*
X133182596Y-57602608D01*
X133124244Y-57807688D01*
X133104571Y-58020000D01*
X132875429Y-58020000D01*
X132855756Y-57807690D01*
X132797405Y-57602611D01*
X132702366Y-57411745D01*
X132573872Y-57241593D01*
X132519623Y-57192139D01*
X132416307Y-57097952D01*
X132416300Y-57097946D01*
X132235024Y-56985705D01*
X132235019Y-56985702D01*
X132036198Y-56908679D01*
X132036197Y-56908678D01*
X132036195Y-56908678D01*
X131826610Y-56869500D01*
X131613390Y-56869500D01*
X131403804Y-56908678D01*
X131204980Y-56985702D01*
X131204975Y-56985705D01*
X131023699Y-57097946D01*
X131023692Y-57097952D01*
X130866135Y-57241586D01*
X130866131Y-57241589D01*
X130866128Y-57241593D01*
X130866125Y-57241597D01*
X130737635Y-57411743D01*
X130737630Y-57411752D01*
X130642596Y-57602608D01*
X130584244Y-57807688D01*
X130564571Y-58020000D01*
X130335429Y-58020000D01*
X130315756Y-57807690D01*
X130257405Y-57602611D01*
X130162366Y-57411745D01*
X130033872Y-57241593D01*
X129979623Y-57192139D01*
X129876307Y-57097952D01*
X129876300Y-57097946D01*
X129695024Y-56985705D01*
X129695019Y-56985702D01*
X129496198Y-56908679D01*
X129496197Y-56908678D01*
X129496195Y-56908678D01*
X129286610Y-56869500D01*
X129073390Y-56869500D01*
X128863804Y-56908678D01*
X128664980Y-56985702D01*
X128664975Y-56985705D01*
X128483699Y-57097946D01*
X128483692Y-57097952D01*
X128326135Y-57241586D01*
X128326131Y-57241589D01*
X128326128Y-57241593D01*
X128326125Y-57241597D01*
X128197635Y-57411743D01*
X128197630Y-57411752D01*
X128102596Y-57602608D01*
X128044244Y-57807688D01*
X128024571Y-58020000D01*
X127795429Y-58020000D01*
X127775756Y-57807690D01*
X127717405Y-57602611D01*
X127622366Y-57411745D01*
X127493872Y-57241593D01*
X127439623Y-57192139D01*
X127336307Y-57097952D01*
X127336300Y-57097946D01*
X127155024Y-56985705D01*
X127155019Y-56985702D01*
X126956198Y-56908679D01*
X126956197Y-56908678D01*
X126956195Y-56908678D01*
X126746610Y-56869500D01*
X126533390Y-56869500D01*
X126323804Y-56908678D01*
X126124980Y-56985702D01*
X126124975Y-56985705D01*
X125943699Y-57097946D01*
X125943692Y-57097952D01*
X125786135Y-57241586D01*
X125786131Y-57241589D01*
X125786128Y-57241593D01*
X125786125Y-57241597D01*
X125657635Y-57411743D01*
X125657630Y-57411752D01*
X125562596Y-57602608D01*
X125504244Y-57807688D01*
X125484571Y-58020000D01*
X124600000Y-58020000D01*
X124600000Y-57948111D01*
X124559493Y-57810156D01*
X124481761Y-57689202D01*
X124373100Y-57595048D01*
X124242315Y-57535320D01*
X124135763Y-57520000D01*
X124064237Y-57520000D01*
X123957685Y-57535320D01*
X123826900Y-57595048D01*
X123718239Y-57689202D01*
X123640507Y-57810156D01*
X123600000Y-57948111D01*
X123600000Y-58091889D01*
X122708768Y-58091889D01*
X122715429Y-58020000D01*
X122695756Y-57807690D01*
X122637405Y-57602611D01*
X122596270Y-57519999D01*
X123176671Y-57519999D01*
X123176672Y-57520000D01*
X123599999Y-57520000D01*
X123600000Y-57519999D01*
X123600000Y-57096672D01*
X123599999Y-57096671D01*
X124600000Y-57096671D01*
X124600000Y-57519999D01*
X124600001Y-57520000D01*
X125023328Y-57520000D01*
X125023328Y-57519999D01*
X124977269Y-57433830D01*
X124846059Y-57273949D01*
X124846050Y-57273940D01*
X124686169Y-57142730D01*
X124600000Y-57096671D01*
X123599999Y-57096671D01*
X123513830Y-57142730D01*
X123353949Y-57273940D01*
X123353940Y-57273949D01*
X123222730Y-57433830D01*
X123176671Y-57519999D01*
X122596270Y-57519999D01*
X122542366Y-57411745D01*
X122413872Y-57241593D01*
X122359623Y-57192139D01*
X122256307Y-57097952D01*
X122256300Y-57097946D01*
X122075024Y-56985705D01*
X122075019Y-56985702D01*
X121876198Y-56908679D01*
X121876197Y-56908678D01*
X121876195Y-56908678D01*
X121666610Y-56869500D01*
X121453390Y-56869500D01*
X121243804Y-56908678D01*
X121044980Y-56985702D01*
X121044975Y-56985705D01*
X120863699Y-57097946D01*
X120863692Y-57097952D01*
X120706135Y-57241586D01*
X120706131Y-57241589D01*
X120706128Y-57241593D01*
X120706125Y-57241597D01*
X120577635Y-57411743D01*
X120577630Y-57411752D01*
X120482596Y-57602608D01*
X120424244Y-57807688D01*
X120404571Y-58020000D01*
X120175429Y-58020000D01*
X120155756Y-57807690D01*
X120097405Y-57602611D01*
X120002366Y-57411745D01*
X119873872Y-57241593D01*
X119819623Y-57192139D01*
X119716307Y-57097952D01*
X119716300Y-57097946D01*
X119535024Y-56985705D01*
X119535019Y-56985702D01*
X119336198Y-56908679D01*
X119336197Y-56908678D01*
X119336195Y-56908678D01*
X119126610Y-56869500D01*
X118913390Y-56869500D01*
X118703804Y-56908678D01*
X118504980Y-56985702D01*
X118504975Y-56985705D01*
X118323699Y-57097946D01*
X118323692Y-57097952D01*
X118166135Y-57241586D01*
X118166131Y-57241589D01*
X118166128Y-57241593D01*
X118166125Y-57241597D01*
X118037635Y-57411743D01*
X118037630Y-57411752D01*
X117942596Y-57602608D01*
X117884244Y-57807688D01*
X117864571Y-58020000D01*
X117635429Y-58020000D01*
X117615756Y-57807690D01*
X117557405Y-57602611D01*
X117462366Y-57411745D01*
X117333872Y-57241593D01*
X117279623Y-57192139D01*
X117176307Y-57097952D01*
X117176300Y-57097946D01*
X116995024Y-56985705D01*
X116995019Y-56985702D01*
X116796198Y-56908679D01*
X116796197Y-56908678D01*
X116796195Y-56908678D01*
X116586610Y-56869500D01*
X116373390Y-56869500D01*
X116163804Y-56908678D01*
X115964980Y-56985702D01*
X115964975Y-56985705D01*
X115783699Y-57097946D01*
X115783692Y-57097952D01*
X115626135Y-57241586D01*
X115626131Y-57241589D01*
X115626128Y-57241593D01*
X115626125Y-57241597D01*
X115497635Y-57411743D01*
X115497630Y-57411752D01*
X115402596Y-57602608D01*
X115344244Y-57807688D01*
X115324571Y-58020000D01*
X115095429Y-58020000D01*
X115075756Y-57807690D01*
X115017405Y-57602611D01*
X114922366Y-57411745D01*
X114793872Y-57241593D01*
X114739623Y-57192139D01*
X114636307Y-57097952D01*
X114636300Y-57097946D01*
X114455024Y-56985705D01*
X114455019Y-56985702D01*
X114256198Y-56908679D01*
X114256197Y-56908678D01*
X114256195Y-56908678D01*
X114046610Y-56869500D01*
X113833390Y-56869500D01*
X113623804Y-56908678D01*
X113424980Y-56985702D01*
X113424975Y-56985705D01*
X113243699Y-57097946D01*
X113243692Y-57097952D01*
X113086135Y-57241586D01*
X113086131Y-57241589D01*
X113086128Y-57241593D01*
X113086125Y-57241597D01*
X112957635Y-57411743D01*
X112957630Y-57411752D01*
X112862596Y-57602608D01*
X112804244Y-57807688D01*
X112784571Y-58020000D01*
X112555429Y-58020000D01*
X112535756Y-57807690D01*
X112477405Y-57602611D01*
X112382366Y-57411745D01*
X112253872Y-57241593D01*
X112199623Y-57192139D01*
X112096307Y-57097952D01*
X112096300Y-57097946D01*
X111915024Y-56985705D01*
X111915019Y-56985702D01*
X111716198Y-56908679D01*
X111716197Y-56908678D01*
X111716195Y-56908678D01*
X111506610Y-56869500D01*
X111293390Y-56869500D01*
X111083804Y-56908678D01*
X110884980Y-56985702D01*
X110884975Y-56985705D01*
X110703699Y-57097946D01*
X110703692Y-57097952D01*
X110546135Y-57241586D01*
X110546131Y-57241589D01*
X110546128Y-57241593D01*
X110546125Y-57241597D01*
X110417635Y-57411743D01*
X110417630Y-57411752D01*
X110322596Y-57602608D01*
X110264244Y-57807688D01*
X110244571Y-58020000D01*
X110015429Y-58020000D01*
X109995756Y-57807690D01*
X109937405Y-57602611D01*
X109842366Y-57411745D01*
X109713872Y-57241593D01*
X109659623Y-57192139D01*
X109556307Y-57097952D01*
X109556300Y-57097946D01*
X109375024Y-56985705D01*
X109375019Y-56985702D01*
X109176198Y-56908679D01*
X109176197Y-56908678D01*
X109176195Y-56908678D01*
X108966610Y-56869500D01*
X108753390Y-56869500D01*
X108543804Y-56908678D01*
X108344980Y-56985702D01*
X108344975Y-56985705D01*
X108163699Y-57097946D01*
X108163692Y-57097952D01*
X108006135Y-57241586D01*
X108006131Y-57241589D01*
X108006128Y-57241593D01*
X108006125Y-57241597D01*
X107877635Y-57411743D01*
X107877630Y-57411752D01*
X107782596Y-57602608D01*
X107724244Y-57807688D01*
X107704571Y-58020000D01*
X107475429Y-58020000D01*
X107455756Y-57807690D01*
X107397405Y-57602611D01*
X107302366Y-57411745D01*
X107173872Y-57241593D01*
X107119623Y-57192139D01*
X107016307Y-57097952D01*
X107016300Y-57097946D01*
X106835024Y-56985705D01*
X106835019Y-56985702D01*
X106636198Y-56908679D01*
X106636197Y-56908678D01*
X106636195Y-56908678D01*
X106426610Y-56869500D01*
X106213390Y-56869500D01*
X106003804Y-56908678D01*
X105804980Y-56985702D01*
X105804975Y-56985705D01*
X105623699Y-57097946D01*
X105623692Y-57097952D01*
X105466135Y-57241586D01*
X105466131Y-57241589D01*
X105466128Y-57241593D01*
X105466125Y-57241597D01*
X105337635Y-57411743D01*
X105337630Y-57411752D01*
X105242596Y-57602608D01*
X105184244Y-57807688D01*
X105164571Y-58020000D01*
X104280000Y-58020000D01*
X104280000Y-57948111D01*
X104239493Y-57810156D01*
X104161761Y-57689202D01*
X104053100Y-57595048D01*
X103922315Y-57535320D01*
X103815763Y-57520000D01*
X103744237Y-57520000D01*
X103637685Y-57535320D01*
X103506900Y-57595048D01*
X103398239Y-57689202D01*
X103320507Y-57810156D01*
X103280000Y-57948111D01*
X103280000Y-58091889D01*
X102388768Y-58091889D01*
X102395429Y-58020000D01*
X102375756Y-57807690D01*
X102317405Y-57602611D01*
X102276270Y-57519999D01*
X102856671Y-57519999D01*
X102856672Y-57520000D01*
X103279999Y-57520000D01*
X103280000Y-57519999D01*
X103280000Y-57096672D01*
X103279999Y-57096671D01*
X104280000Y-57096671D01*
X104280000Y-57519999D01*
X104280001Y-57520000D01*
X104703328Y-57520000D01*
X104703328Y-57519999D01*
X104657269Y-57433830D01*
X104526059Y-57273949D01*
X104526050Y-57273940D01*
X104366169Y-57142730D01*
X104280000Y-57096671D01*
X103279999Y-57096671D01*
X103193830Y-57142730D01*
X103033949Y-57273940D01*
X103033940Y-57273949D01*
X102902730Y-57433830D01*
X102856671Y-57519999D01*
X102276270Y-57519999D01*
X102222366Y-57411745D01*
X102093872Y-57241593D01*
X102039623Y-57192139D01*
X101936307Y-57097952D01*
X101936300Y-57097946D01*
X101755024Y-56985705D01*
X101755019Y-56985702D01*
X101556198Y-56908679D01*
X101556197Y-56908678D01*
X101556195Y-56908678D01*
X101346610Y-56869500D01*
X101133390Y-56869500D01*
X100923804Y-56908678D01*
X100724980Y-56985702D01*
X100724975Y-56985705D01*
X100543699Y-57097946D01*
X100543692Y-57097952D01*
X100386135Y-57241586D01*
X100386131Y-57241589D01*
X100386128Y-57241593D01*
X100386125Y-57241597D01*
X100257635Y-57411743D01*
X100257630Y-57411752D01*
X100162596Y-57602608D01*
X100104244Y-57807688D01*
X100084571Y-58020000D01*
X99855429Y-58020000D01*
X99835756Y-57807690D01*
X99777405Y-57602611D01*
X99682366Y-57411745D01*
X99553872Y-57241593D01*
X99499623Y-57192139D01*
X99396307Y-57097952D01*
X99396300Y-57097946D01*
X99215024Y-56985705D01*
X99215019Y-56985702D01*
X99016198Y-56908679D01*
X99016197Y-56908678D01*
X99016195Y-56908678D01*
X98806610Y-56869500D01*
X98593390Y-56869500D01*
X98383804Y-56908678D01*
X98184980Y-56985702D01*
X98184975Y-56985705D01*
X98003699Y-57097946D01*
X98003692Y-57097952D01*
X97846135Y-57241586D01*
X97846131Y-57241589D01*
X97846128Y-57241593D01*
X97846125Y-57241597D01*
X97717635Y-57411743D01*
X97717630Y-57411752D01*
X97622596Y-57602608D01*
X97564244Y-57807688D01*
X97544571Y-58020000D01*
X97315429Y-58020000D01*
X97295756Y-57807690D01*
X97237405Y-57602611D01*
X97142366Y-57411745D01*
X97013872Y-57241593D01*
X96959623Y-57192139D01*
X96856307Y-57097952D01*
X96856300Y-57097946D01*
X96675024Y-56985705D01*
X96675019Y-56985702D01*
X96476198Y-56908679D01*
X96476197Y-56908678D01*
X96476195Y-56908678D01*
X96266610Y-56869500D01*
X96053390Y-56869500D01*
X95843804Y-56908678D01*
X95644980Y-56985702D01*
X95644975Y-56985705D01*
X95463699Y-57097946D01*
X95463692Y-57097952D01*
X95306135Y-57241586D01*
X95306131Y-57241589D01*
X95306128Y-57241593D01*
X95306125Y-57241597D01*
X95177635Y-57411743D01*
X95177630Y-57411752D01*
X95082596Y-57602608D01*
X95024244Y-57807688D01*
X95004571Y-58020000D01*
X94770499Y-58020000D01*
X94770499Y-57125136D01*
X94767585Y-57100009D01*
X94722206Y-56997235D01*
X94642765Y-56917794D01*
X94539991Y-56872415D01*
X94539990Y-56872414D01*
X94539988Y-56872414D01*
X94514868Y-56869500D01*
X92725139Y-56869500D01*
X92725136Y-56869501D01*
X92700009Y-56872414D01*
X92597235Y-56917794D01*
X92517794Y-56997235D01*
X92472414Y-57100011D01*
X92469500Y-57125130D01*
X92469500Y-58914860D01*
X90284505Y-58914860D01*
X90510819Y-58737554D01*
X90737554Y-58510819D01*
X90935306Y-58258408D01*
X91101191Y-57984000D01*
X91232791Y-57691598D01*
X91328186Y-57385466D01*
X91375893Y-57125136D01*
X91385983Y-57070080D01*
X91385986Y-57070055D01*
X91405345Y-56750006D01*
X144094655Y-56750006D01*
X144114013Y-57070055D01*
X144114016Y-57070080D01*
X144171813Y-57385462D01*
X144171813Y-57385464D01*
X144239478Y-57602608D01*
X144267209Y-57691598D01*
X144398809Y-57984000D01*
X144398813Y-57984008D01*
X144398817Y-57984014D01*
X144564685Y-58258394D01*
X144564689Y-58258400D01*
X144564694Y-58258408D01*
X144762446Y-58510819D01*
X144989181Y-58737554D01*
X145241592Y-58935306D01*
X145516000Y-59101191D01*
X145808402Y-59232791D01*
X146114534Y-59328186D01*
X146218172Y-59347178D01*
X146429919Y-59385983D01*
X146429930Y-59385984D01*
X146429934Y-59385985D01*
X146429937Y-59385985D01*
X146429944Y-59385986D01*
X146749994Y-59405345D01*
X146750000Y-59405345D01*
X146750006Y-59405345D01*
X147070055Y-59385986D01*
X147070060Y-59385985D01*
X147070066Y-59385985D01*
X147070071Y-59385984D01*
X147070080Y-59385983D01*
X147207438Y-59360810D01*
X147385466Y-59328186D01*
X147691598Y-59232791D01*
X147984000Y-59101191D01*
X148258408Y-58935306D01*
X148510819Y-58737554D01*
X148737554Y-58510819D01*
X148935306Y-58258408D01*
X149101191Y-57984000D01*
X149232791Y-57691598D01*
X149328186Y-57385466D01*
X149375893Y-57125136D01*
X149385983Y-57070080D01*
X149385986Y-57070055D01*
X149405345Y-56750006D01*
X149405345Y-56749993D01*
X149385986Y-56429944D01*
X149385983Y-56429919D01*
X149348622Y-56226050D01*
X149328186Y-56114534D01*
X149232791Y-55808402D01*
X149101191Y-55516000D01*
X148982853Y-55320245D01*
X148935314Y-55241605D01*
X148935312Y-55241603D01*
X148935306Y-55241592D01*
X148737554Y-54989181D01*
X148510819Y-54762446D01*
X148258408Y-54564694D01*
X148258400Y-54564689D01*
X148258394Y-54564685D01*
X147984014Y-54398817D01*
X147984008Y-54398813D01*
X147984000Y-54398809D01*
X147910735Y-54365835D01*
X147691599Y-54267209D01*
X147385463Y-54171813D01*
X147070080Y-54114016D01*
X147070055Y-54114013D01*
X146750006Y-54094655D01*
X146749994Y-54094655D01*
X146429944Y-54114013D01*
X146429919Y-54114016D01*
X146114537Y-54171813D01*
X146114535Y-54171813D01*
X145808400Y-54267209D01*
X145516006Y-54398806D01*
X145515985Y-54398817D01*
X145241605Y-54564685D01*
X145241586Y-54564698D01*
X144989187Y-54762441D01*
X144989184Y-54762443D01*
X144762443Y-54989184D01*
X144762441Y-54989187D01*
X144564698Y-55241586D01*
X144564685Y-55241605D01*
X144398817Y-55515985D01*
X144398806Y-55516006D01*
X144267209Y-55808400D01*
X144171813Y-56114535D01*
X144171813Y-56114537D01*
X144114016Y-56429919D01*
X144114013Y-56429944D01*
X144094655Y-56749993D01*
X144094655Y-56750006D01*
X91405345Y-56750006D01*
X91405345Y-56749993D01*
X91385986Y-56429944D01*
X91385983Y-56429919D01*
X91348622Y-56226050D01*
X91328186Y-56114534D01*
X91232791Y-55808402D01*
X91101191Y-55516000D01*
X91079428Y-55480000D01*
X92464571Y-55480000D01*
X92484244Y-55692310D01*
X92542595Y-55897389D01*
X92637634Y-56088255D01*
X92766128Y-56258407D01*
X92766135Y-56258413D01*
X92923692Y-56402047D01*
X92923699Y-56402053D01*
X92968729Y-56429934D01*
X93104981Y-56514298D01*
X93303802Y-56591321D01*
X93513390Y-56630500D01*
X93726610Y-56630500D01*
X93936198Y-56591321D01*
X94135019Y-56514298D01*
X94316302Y-56402052D01*
X94473872Y-56258407D01*
X94602366Y-56088255D01*
X94697405Y-55897389D01*
X94755756Y-55692310D01*
X94775429Y-55480000D01*
X95004571Y-55480000D01*
X95024244Y-55692310D01*
X95082595Y-55897389D01*
X95177634Y-56088255D01*
X95306128Y-56258407D01*
X95306135Y-56258413D01*
X95463692Y-56402047D01*
X95463699Y-56402053D01*
X95508729Y-56429934D01*
X95644981Y-56514298D01*
X95843802Y-56591321D01*
X96053390Y-56630500D01*
X96266610Y-56630500D01*
X96476198Y-56591321D01*
X96675019Y-56514298D01*
X96856302Y-56402052D01*
X97013872Y-56258407D01*
X97142366Y-56088255D01*
X97196270Y-55980000D01*
X97776672Y-55980000D01*
X97822730Y-56066169D01*
X97953940Y-56226050D01*
X97953949Y-56226059D01*
X98113824Y-56357265D01*
X98113830Y-56357269D01*
X98200000Y-56403326D01*
X99200000Y-56403326D01*
X99286169Y-56357269D01*
X99286175Y-56357265D01*
X99446050Y-56226059D01*
X99446059Y-56226050D01*
X99577269Y-56066169D01*
X99623328Y-55980000D01*
X99200001Y-55980000D01*
X99200000Y-55980001D01*
X99200000Y-56403326D01*
X98200000Y-56403326D01*
X98200000Y-55980001D01*
X98199999Y-55980000D01*
X97776672Y-55980000D01*
X97196270Y-55980000D01*
X97237405Y-55897389D01*
X97295756Y-55692310D01*
X97308768Y-55551889D01*
X98200000Y-55551889D01*
X98240507Y-55689844D01*
X98318239Y-55810798D01*
X98426900Y-55904952D01*
X98557685Y-55964680D01*
X98664237Y-55980000D01*
X98735763Y-55980000D01*
X98842315Y-55964680D01*
X98973100Y-55904952D01*
X99081761Y-55810798D01*
X99159493Y-55689844D01*
X99200000Y-55551889D01*
X99200000Y-55480000D01*
X100084571Y-55480000D01*
X100104244Y-55692310D01*
X100162595Y-55897389D01*
X100257634Y-56088255D01*
X100386128Y-56258407D01*
X100386135Y-56258413D01*
X100543692Y-56402047D01*
X100543699Y-56402053D01*
X100588729Y-56429934D01*
X100724981Y-56514298D01*
X100923802Y-56591321D01*
X101133390Y-56630500D01*
X101346610Y-56630500D01*
X101556198Y-56591321D01*
X101755019Y-56514298D01*
X101936302Y-56402052D01*
X102093872Y-56258407D01*
X102222366Y-56088255D01*
X102317405Y-55897389D01*
X102375756Y-55692310D01*
X102395429Y-55480000D01*
X102624571Y-55480000D01*
X102644244Y-55692310D01*
X102702595Y-55897389D01*
X102797634Y-56088255D01*
X102926128Y-56258407D01*
X102926135Y-56258413D01*
X103083692Y-56402047D01*
X103083699Y-56402053D01*
X103128729Y-56429934D01*
X103264981Y-56514298D01*
X103463802Y-56591321D01*
X103673390Y-56630500D01*
X103886610Y-56630500D01*
X104096198Y-56591321D01*
X104295019Y-56514298D01*
X104476302Y-56402052D01*
X104633872Y-56258407D01*
X104762366Y-56088255D01*
X104857405Y-55897389D01*
X104915756Y-55692310D01*
X104935429Y-55480000D01*
X105164571Y-55480000D01*
X105184244Y-55692310D01*
X105242595Y-55897389D01*
X105337634Y-56088255D01*
X105466128Y-56258407D01*
X105466135Y-56258413D01*
X105623692Y-56402047D01*
X105623699Y-56402053D01*
X105668729Y-56429934D01*
X105804981Y-56514298D01*
X106003802Y-56591321D01*
X106213390Y-56630500D01*
X106426610Y-56630500D01*
X106636198Y-56591321D01*
X106835019Y-56514298D01*
X107016302Y-56402052D01*
X107173872Y-56258407D01*
X107302366Y-56088255D01*
X107356270Y-55980000D01*
X107936672Y-55980000D01*
X107982730Y-56066169D01*
X108113940Y-56226050D01*
X108113949Y-56226059D01*
X108273824Y-56357265D01*
X108273830Y-56357269D01*
X108360000Y-56403326D01*
X109360000Y-56403326D01*
X109446169Y-56357269D01*
X109446175Y-56357265D01*
X109606050Y-56226059D01*
X109606059Y-56226050D01*
X109737269Y-56066169D01*
X109783328Y-55980000D01*
X109360001Y-55980000D01*
X109360000Y-55980001D01*
X109360000Y-56403326D01*
X108360000Y-56403326D01*
X108360000Y-55980001D01*
X108359999Y-55980000D01*
X107936672Y-55980000D01*
X107356270Y-55980000D01*
X107397405Y-55897389D01*
X107455756Y-55692310D01*
X107468768Y-55551889D01*
X108360000Y-55551889D01*
X108400507Y-55689844D01*
X108478239Y-55810798D01*
X108586900Y-55904952D01*
X108717685Y-55964680D01*
X108824237Y-55980000D01*
X108895763Y-55980000D01*
X109002315Y-55964680D01*
X109133100Y-55904952D01*
X109241761Y-55810798D01*
X109319493Y-55689844D01*
X109360000Y-55551889D01*
X109360000Y-55480000D01*
X110244571Y-55480000D01*
X110264244Y-55692310D01*
X110322595Y-55897389D01*
X110417634Y-56088255D01*
X110546128Y-56258407D01*
X110546135Y-56258413D01*
X110703692Y-56402047D01*
X110703699Y-56402053D01*
X110748729Y-56429934D01*
X110884981Y-56514298D01*
X111083802Y-56591321D01*
X111293390Y-56630500D01*
X111506610Y-56630500D01*
X111716198Y-56591321D01*
X111915019Y-56514298D01*
X112096302Y-56402052D01*
X112253872Y-56258407D01*
X112382366Y-56088255D01*
X112477405Y-55897389D01*
X112535756Y-55692310D01*
X112555429Y-55480000D01*
X112784571Y-55480000D01*
X112804244Y-55692310D01*
X112862595Y-55897389D01*
X112957634Y-56088255D01*
X113086128Y-56258407D01*
X113086135Y-56258413D01*
X113243692Y-56402047D01*
X113243699Y-56402053D01*
X113288729Y-56429934D01*
X113424981Y-56514298D01*
X113623802Y-56591321D01*
X113833390Y-56630500D01*
X114046610Y-56630500D01*
X114256198Y-56591321D01*
X114455019Y-56514298D01*
X114636302Y-56402052D01*
X114793872Y-56258407D01*
X114922366Y-56088255D01*
X114976270Y-55980000D01*
X115556672Y-55980000D01*
X115602730Y-56066169D01*
X115733940Y-56226050D01*
X115733949Y-56226059D01*
X115893824Y-56357265D01*
X115893830Y-56357269D01*
X115980000Y-56403326D01*
X116980000Y-56403326D01*
X117066169Y-56357269D01*
X117066175Y-56357265D01*
X117226050Y-56226059D01*
X117226059Y-56226050D01*
X117357269Y-56066169D01*
X117403328Y-55980000D01*
X116980001Y-55980000D01*
X116980000Y-55980001D01*
X116980000Y-56403326D01*
X115980000Y-56403326D01*
X115980000Y-55980001D01*
X115979999Y-55980000D01*
X115556672Y-55980000D01*
X114976270Y-55980000D01*
X115017405Y-55897389D01*
X115075756Y-55692310D01*
X115088768Y-55551889D01*
X115980000Y-55551889D01*
X116020507Y-55689844D01*
X116098239Y-55810798D01*
X116206900Y-55904952D01*
X116337685Y-55964680D01*
X116444237Y-55980000D01*
X116515763Y-55980000D01*
X116622315Y-55964680D01*
X116753100Y-55904952D01*
X116861761Y-55810798D01*
X116939493Y-55689844D01*
X116980000Y-55551889D01*
X116980000Y-55480000D01*
X117864571Y-55480000D01*
X117884244Y-55692310D01*
X117942595Y-55897389D01*
X118037634Y-56088255D01*
X118166128Y-56258407D01*
X118166135Y-56258413D01*
X118323692Y-56402047D01*
X118323699Y-56402053D01*
X118368729Y-56429934D01*
X118504981Y-56514298D01*
X118703802Y-56591321D01*
X118913390Y-56630500D01*
X119126610Y-56630500D01*
X119336198Y-56591321D01*
X119535019Y-56514298D01*
X119716302Y-56402052D01*
X119873872Y-56258407D01*
X120002366Y-56088255D01*
X120097405Y-55897389D01*
X120155756Y-55692310D01*
X120175429Y-55480000D01*
X120404571Y-55480000D01*
X120424244Y-55692310D01*
X120482595Y-55897389D01*
X120577634Y-56088255D01*
X120706128Y-56258407D01*
X120706135Y-56258413D01*
X120863692Y-56402047D01*
X120863699Y-56402053D01*
X120908729Y-56429934D01*
X121044981Y-56514298D01*
X121243802Y-56591321D01*
X121453390Y-56630500D01*
X121666610Y-56630500D01*
X121876198Y-56591321D01*
X122075019Y-56514298D01*
X122256302Y-56402052D01*
X122413872Y-56258407D01*
X122542366Y-56088255D01*
X122637405Y-55897389D01*
X122695756Y-55692310D01*
X122715429Y-55480000D01*
X122944571Y-55480000D01*
X122964244Y-55692310D01*
X123022595Y-55897389D01*
X123117634Y-56088255D01*
X123246128Y-56258407D01*
X123246135Y-56258413D01*
X123403692Y-56402047D01*
X123403699Y-56402053D01*
X123448729Y-56429934D01*
X123584981Y-56514298D01*
X123783802Y-56591321D01*
X123993390Y-56630500D01*
X124206610Y-56630500D01*
X124416198Y-56591321D01*
X124615019Y-56514298D01*
X124796302Y-56402052D01*
X124953872Y-56258407D01*
X125082366Y-56088255D01*
X125177405Y-55897389D01*
X125235756Y-55692310D01*
X125255429Y-55480000D01*
X125484571Y-55480000D01*
X125504244Y-55692310D01*
X125562595Y-55897389D01*
X125657634Y-56088255D01*
X125786128Y-56258407D01*
X125786135Y-56258413D01*
X125943692Y-56402047D01*
X125943699Y-56402053D01*
X125988729Y-56429934D01*
X126124981Y-56514298D01*
X126323802Y-56591321D01*
X126533390Y-56630500D01*
X126746610Y-56630500D01*
X126956198Y-56591321D01*
X127155019Y-56514298D01*
X127336302Y-56402052D01*
X127493872Y-56258407D01*
X127622366Y-56088255D01*
X127676270Y-55980000D01*
X128256672Y-55980000D01*
X128302730Y-56066169D01*
X128433940Y-56226050D01*
X128433949Y-56226059D01*
X128593824Y-56357265D01*
X128593830Y-56357269D01*
X128680000Y-56403326D01*
X129680000Y-56403326D01*
X129766169Y-56357269D01*
X129766175Y-56357265D01*
X129926050Y-56226059D01*
X129926059Y-56226050D01*
X130057269Y-56066169D01*
X130103328Y-55980000D01*
X129680001Y-55980000D01*
X129680000Y-55980001D01*
X129680000Y-56403326D01*
X128680000Y-56403326D01*
X128680000Y-55980001D01*
X128679999Y-55980000D01*
X128256672Y-55980000D01*
X127676270Y-55980000D01*
X127717405Y-55897389D01*
X127775756Y-55692310D01*
X127788768Y-55551889D01*
X128680000Y-55551889D01*
X128720507Y-55689844D01*
X128798239Y-55810798D01*
X128906900Y-55904952D01*
X129037685Y-55964680D01*
X129144237Y-55980000D01*
X129215763Y-55980000D01*
X129322315Y-55964680D01*
X129453100Y-55904952D01*
X129561761Y-55810798D01*
X129639493Y-55689844D01*
X129680000Y-55551889D01*
X129680000Y-55480000D01*
X130564571Y-55480000D01*
X130584244Y-55692310D01*
X130642595Y-55897389D01*
X130737634Y-56088255D01*
X130866128Y-56258407D01*
X130866135Y-56258413D01*
X131023692Y-56402047D01*
X131023699Y-56402053D01*
X131068729Y-56429934D01*
X131204981Y-56514298D01*
X131403802Y-56591321D01*
X131613390Y-56630500D01*
X131826610Y-56630500D01*
X132036198Y-56591321D01*
X132235019Y-56514298D01*
X132416302Y-56402052D01*
X132573872Y-56258407D01*
X132702366Y-56088255D01*
X132756270Y-55980000D01*
X133336672Y-55980000D01*
X133382730Y-56066169D01*
X133513940Y-56226050D01*
X133513949Y-56226059D01*
X133673824Y-56357265D01*
X133673830Y-56357269D01*
X133760000Y-56403326D01*
X134760000Y-56403326D01*
X134846169Y-56357269D01*
X134846175Y-56357265D01*
X135006050Y-56226059D01*
X135006059Y-56226050D01*
X135137269Y-56066169D01*
X135183328Y-55980000D01*
X134760001Y-55980000D01*
X134760000Y-55980001D01*
X134760000Y-56403326D01*
X133760000Y-56403326D01*
X133760000Y-55980001D01*
X133759999Y-55980000D01*
X133336672Y-55980000D01*
X132756270Y-55980000D01*
X132797405Y-55897389D01*
X132855756Y-55692310D01*
X132868768Y-55551889D01*
X133760000Y-55551889D01*
X133800507Y-55689844D01*
X133878239Y-55810798D01*
X133986900Y-55904952D01*
X134117685Y-55964680D01*
X134224237Y-55980000D01*
X134295763Y-55980000D01*
X134402315Y-55964680D01*
X134533100Y-55904952D01*
X134641761Y-55810798D01*
X134719493Y-55689844D01*
X134760000Y-55551889D01*
X134760000Y-55480000D01*
X135644571Y-55480000D01*
X135664244Y-55692310D01*
X135722595Y-55897389D01*
X135817634Y-56088255D01*
X135946128Y-56258407D01*
X135946135Y-56258413D01*
X136103692Y-56402047D01*
X136103699Y-56402053D01*
X136148729Y-56429934D01*
X136284981Y-56514298D01*
X136483802Y-56591321D01*
X136693390Y-56630500D01*
X136906610Y-56630500D01*
X137116198Y-56591321D01*
X137315019Y-56514298D01*
X137496302Y-56402052D01*
X137653872Y-56258407D01*
X137782366Y-56088255D01*
X137877405Y-55897389D01*
X137935756Y-55692310D01*
X137955429Y-55480000D01*
X138184571Y-55480000D01*
X138204244Y-55692310D01*
X138262595Y-55897389D01*
X138357634Y-56088255D01*
X138486128Y-56258407D01*
X138486135Y-56258413D01*
X138643692Y-56402047D01*
X138643699Y-56402053D01*
X138688729Y-56429934D01*
X138824981Y-56514298D01*
X139023802Y-56591321D01*
X139233390Y-56630500D01*
X139446610Y-56630500D01*
X139656198Y-56591321D01*
X139855019Y-56514298D01*
X140036302Y-56402052D01*
X140193872Y-56258407D01*
X140322366Y-56088255D01*
X140417405Y-55897389D01*
X140475756Y-55692310D01*
X140495429Y-55480000D01*
X140724571Y-55480000D01*
X140744244Y-55692310D01*
X140802595Y-55897389D01*
X140897634Y-56088255D01*
X141026128Y-56258407D01*
X141026135Y-56258413D01*
X141183692Y-56402047D01*
X141183699Y-56402053D01*
X141228729Y-56429934D01*
X141364981Y-56514298D01*
X141563802Y-56591321D01*
X141773390Y-56630500D01*
X141986610Y-56630500D01*
X142196198Y-56591321D01*
X142395019Y-56514298D01*
X142576302Y-56402052D01*
X142733872Y-56258407D01*
X142862366Y-56088255D01*
X142957405Y-55897389D01*
X143015756Y-55692310D01*
X143035429Y-55480000D01*
X143015756Y-55267690D01*
X142957405Y-55062611D01*
X142862366Y-54871745D01*
X142733872Y-54701593D01*
X142679623Y-54652139D01*
X142576307Y-54557952D01*
X142576300Y-54557946D01*
X142395024Y-54445705D01*
X142395019Y-54445702D01*
X142196195Y-54368678D01*
X141986610Y-54329500D01*
X141773390Y-54329500D01*
X141563804Y-54368678D01*
X141364980Y-54445702D01*
X141364975Y-54445705D01*
X141183699Y-54557946D01*
X141183692Y-54557952D01*
X141026135Y-54701586D01*
X141026131Y-54701589D01*
X141026128Y-54701593D01*
X141026125Y-54701597D01*
X140897635Y-54871743D01*
X140897630Y-54871752D01*
X140802596Y-55062608D01*
X140744244Y-55267688D01*
X140744244Y-55267690D01*
X140724571Y-55480000D01*
X140495429Y-55480000D01*
X140475756Y-55267690D01*
X140417405Y-55062611D01*
X140322366Y-54871745D01*
X140193872Y-54701593D01*
X140139623Y-54652139D01*
X140036307Y-54557952D01*
X140036300Y-54557946D01*
X139855024Y-54445705D01*
X139855019Y-54445702D01*
X139656195Y-54368678D01*
X139446610Y-54329500D01*
X139233390Y-54329500D01*
X139023804Y-54368678D01*
X138824980Y-54445702D01*
X138824975Y-54445705D01*
X138643699Y-54557946D01*
X138643692Y-54557952D01*
X138486135Y-54701586D01*
X138486131Y-54701589D01*
X138486128Y-54701593D01*
X138486125Y-54701597D01*
X138357635Y-54871743D01*
X138357630Y-54871752D01*
X138262596Y-55062608D01*
X138204244Y-55267688D01*
X138204244Y-55267690D01*
X138184571Y-55480000D01*
X137955429Y-55480000D01*
X137935756Y-55267690D01*
X137877405Y-55062611D01*
X137782366Y-54871745D01*
X137653872Y-54701593D01*
X137599623Y-54652139D01*
X137496307Y-54557952D01*
X137496300Y-54557946D01*
X137315024Y-54445705D01*
X137315019Y-54445702D01*
X137116195Y-54368678D01*
X136906610Y-54329500D01*
X136693390Y-54329500D01*
X136483804Y-54368678D01*
X136284980Y-54445702D01*
X136284975Y-54445705D01*
X136103699Y-54557946D01*
X136103692Y-54557952D01*
X135946135Y-54701586D01*
X135946131Y-54701589D01*
X135946128Y-54701593D01*
X135946125Y-54701597D01*
X135817635Y-54871743D01*
X135817630Y-54871752D01*
X135722596Y-55062608D01*
X135664244Y-55267688D01*
X135664244Y-55267690D01*
X135644571Y-55480000D01*
X134760000Y-55480000D01*
X134760000Y-55408111D01*
X134719493Y-55270156D01*
X134641761Y-55149202D01*
X134533100Y-55055048D01*
X134402315Y-54995320D01*
X134295763Y-54980000D01*
X134224237Y-54980000D01*
X134117685Y-54995320D01*
X133986900Y-55055048D01*
X133878239Y-55149202D01*
X133800507Y-55270156D01*
X133760000Y-55408111D01*
X133760000Y-55551889D01*
X132868768Y-55551889D01*
X132875429Y-55480000D01*
X132855756Y-55267690D01*
X132797405Y-55062611D01*
X132756270Y-54979999D01*
X133336671Y-54979999D01*
X133336672Y-54980000D01*
X133759999Y-54980000D01*
X133760000Y-54979999D01*
X133760000Y-54556672D01*
X133759999Y-54556671D01*
X134760000Y-54556671D01*
X134760000Y-54979999D01*
X134760001Y-54980000D01*
X135183328Y-54980000D01*
X135183328Y-54979999D01*
X135137269Y-54893830D01*
X135006059Y-54733949D01*
X135006050Y-54733940D01*
X134846169Y-54602730D01*
X134760000Y-54556671D01*
X133759999Y-54556671D01*
X133673830Y-54602730D01*
X133513949Y-54733940D01*
X133513940Y-54733949D01*
X133382730Y-54893830D01*
X133336671Y-54979999D01*
X132756270Y-54979999D01*
X132702366Y-54871745D01*
X132573872Y-54701593D01*
X132519623Y-54652139D01*
X132416307Y-54557952D01*
X132416300Y-54557946D01*
X132235024Y-54445705D01*
X132235019Y-54445702D01*
X132036195Y-54368678D01*
X131826610Y-54329500D01*
X131613390Y-54329500D01*
X131403804Y-54368678D01*
X131204980Y-54445702D01*
X131204975Y-54445705D01*
X131023699Y-54557946D01*
X131023692Y-54557952D01*
X130866135Y-54701586D01*
X130866131Y-54701589D01*
X130866128Y-54701593D01*
X130866125Y-54701597D01*
X130737635Y-54871743D01*
X130737630Y-54871752D01*
X130642596Y-55062608D01*
X130584244Y-55267688D01*
X130584244Y-55267690D01*
X130564571Y-55480000D01*
X129680000Y-55480000D01*
X129680000Y-55408111D01*
X129639493Y-55270156D01*
X129561761Y-55149202D01*
X129453100Y-55055048D01*
X129322315Y-54995320D01*
X129215763Y-54980000D01*
X129144237Y-54980000D01*
X129037685Y-54995320D01*
X128906900Y-55055048D01*
X128798239Y-55149202D01*
X128720507Y-55270156D01*
X128680000Y-55408111D01*
X128680000Y-55551889D01*
X127788768Y-55551889D01*
X127795429Y-55480000D01*
X127775756Y-55267690D01*
X127717405Y-55062611D01*
X127676270Y-54979999D01*
X128256671Y-54979999D01*
X128256672Y-54980000D01*
X128679999Y-54980000D01*
X128680000Y-54979999D01*
X128680000Y-54556672D01*
X128679999Y-54556671D01*
X129680000Y-54556671D01*
X129680000Y-54979999D01*
X129680001Y-54980000D01*
X130103328Y-54980000D01*
X130103328Y-54979999D01*
X130057269Y-54893830D01*
X129926059Y-54733949D01*
X129926050Y-54733940D01*
X129766169Y-54602730D01*
X129680000Y-54556671D01*
X128679999Y-54556671D01*
X128593830Y-54602730D01*
X128433949Y-54733940D01*
X128433940Y-54733949D01*
X128302730Y-54893830D01*
X128256671Y-54979999D01*
X127676270Y-54979999D01*
X127622366Y-54871745D01*
X127493872Y-54701593D01*
X127439623Y-54652139D01*
X127336307Y-54557952D01*
X127336300Y-54557946D01*
X127155024Y-54445705D01*
X127155019Y-54445702D01*
X126956195Y-54368678D01*
X126746610Y-54329500D01*
X126533390Y-54329500D01*
X126323804Y-54368678D01*
X126124980Y-54445702D01*
X126124975Y-54445705D01*
X125943699Y-54557946D01*
X125943692Y-54557952D01*
X125786135Y-54701586D01*
X125786131Y-54701589D01*
X125786128Y-54701593D01*
X125786125Y-54701597D01*
X125657635Y-54871743D01*
X125657630Y-54871752D01*
X125562596Y-55062608D01*
X125504244Y-55267688D01*
X125504244Y-55267690D01*
X125484571Y-55480000D01*
X125255429Y-55480000D01*
X125235756Y-55267690D01*
X125177405Y-55062611D01*
X125082366Y-54871745D01*
X124953872Y-54701593D01*
X124899623Y-54652139D01*
X124796307Y-54557952D01*
X124796300Y-54557946D01*
X124615024Y-54445705D01*
X124615019Y-54445702D01*
X124416195Y-54368678D01*
X124206610Y-54329500D01*
X123993390Y-54329500D01*
X123783804Y-54368678D01*
X123584980Y-54445702D01*
X123584975Y-54445705D01*
X123403699Y-54557946D01*
X123403692Y-54557952D01*
X123246135Y-54701586D01*
X123246131Y-54701589D01*
X123246128Y-54701593D01*
X123246125Y-54701597D01*
X123117635Y-54871743D01*
X123117630Y-54871752D01*
X123022596Y-55062608D01*
X122964244Y-55267688D01*
X122964244Y-55267690D01*
X122944571Y-55480000D01*
X122715429Y-55480000D01*
X122695756Y-55267690D01*
X122637405Y-55062611D01*
X122542366Y-54871745D01*
X122413872Y-54701593D01*
X122359623Y-54652139D01*
X122256307Y-54557952D01*
X122256300Y-54557946D01*
X122075024Y-54445705D01*
X122075019Y-54445702D01*
X121876195Y-54368678D01*
X121666610Y-54329500D01*
X121453390Y-54329500D01*
X121243804Y-54368678D01*
X121044980Y-54445702D01*
X121044975Y-54445705D01*
X120863699Y-54557946D01*
X120863692Y-54557952D01*
X120706135Y-54701586D01*
X120706131Y-54701589D01*
X120706128Y-54701593D01*
X120706125Y-54701597D01*
X120577635Y-54871743D01*
X120577630Y-54871752D01*
X120482596Y-55062608D01*
X120424244Y-55267688D01*
X120424244Y-55267690D01*
X120404571Y-55480000D01*
X120175429Y-55480000D01*
X120155756Y-55267690D01*
X120097405Y-55062611D01*
X120002366Y-54871745D01*
X119873872Y-54701593D01*
X119819623Y-54652139D01*
X119716307Y-54557952D01*
X119716300Y-54557946D01*
X119535024Y-54445705D01*
X119535019Y-54445702D01*
X119336195Y-54368678D01*
X119126610Y-54329500D01*
X118913390Y-54329500D01*
X118703804Y-54368678D01*
X118504980Y-54445702D01*
X118504975Y-54445705D01*
X118323699Y-54557946D01*
X118323692Y-54557952D01*
X118166135Y-54701586D01*
X118166131Y-54701589D01*
X118166128Y-54701593D01*
X118166125Y-54701597D01*
X118037635Y-54871743D01*
X118037630Y-54871752D01*
X117942596Y-55062608D01*
X117884244Y-55267688D01*
X117884244Y-55267690D01*
X117864571Y-55480000D01*
X116980000Y-55480000D01*
X116980000Y-55408111D01*
X116939493Y-55270156D01*
X116861761Y-55149202D01*
X116753100Y-55055048D01*
X116622315Y-54995320D01*
X116515763Y-54980000D01*
X116444237Y-54980000D01*
X116337685Y-54995320D01*
X116206900Y-55055048D01*
X116098239Y-55149202D01*
X116020507Y-55270156D01*
X115980000Y-55408111D01*
X115980000Y-55551889D01*
X115088768Y-55551889D01*
X115095429Y-55480000D01*
X115075756Y-55267690D01*
X115017405Y-55062611D01*
X114976270Y-54979999D01*
X115556671Y-54979999D01*
X115556672Y-54980000D01*
X115979999Y-54980000D01*
X115980000Y-54979999D01*
X115980000Y-54556672D01*
X115979999Y-54556671D01*
X116980000Y-54556671D01*
X116980000Y-54979999D01*
X116980001Y-54980000D01*
X117403328Y-54980000D01*
X117403328Y-54979999D01*
X117357269Y-54893830D01*
X117226059Y-54733949D01*
X117226050Y-54733940D01*
X117066169Y-54602730D01*
X116980000Y-54556671D01*
X115979999Y-54556671D01*
X115893830Y-54602730D01*
X115733949Y-54733940D01*
X115733940Y-54733949D01*
X115602730Y-54893830D01*
X115556671Y-54979999D01*
X114976270Y-54979999D01*
X114922366Y-54871745D01*
X114793872Y-54701593D01*
X114739623Y-54652139D01*
X114636307Y-54557952D01*
X114636300Y-54557946D01*
X114455024Y-54445705D01*
X114455019Y-54445702D01*
X114256195Y-54368678D01*
X114046610Y-54329500D01*
X113833390Y-54329500D01*
X113623804Y-54368678D01*
X113424980Y-54445702D01*
X113424975Y-54445705D01*
X113243699Y-54557946D01*
X113243692Y-54557952D01*
X113086135Y-54701586D01*
X113086131Y-54701589D01*
X113086128Y-54701593D01*
X113086125Y-54701597D01*
X112957635Y-54871743D01*
X112957630Y-54871752D01*
X112862596Y-55062608D01*
X112804244Y-55267688D01*
X112804244Y-55267690D01*
X112784571Y-55480000D01*
X112555429Y-55480000D01*
X112535756Y-55267690D01*
X112477405Y-55062611D01*
X112382366Y-54871745D01*
X112253872Y-54701593D01*
X112199623Y-54652139D01*
X112096307Y-54557952D01*
X112096300Y-54557946D01*
X111915024Y-54445705D01*
X111915019Y-54445702D01*
X111716195Y-54368678D01*
X111506610Y-54329500D01*
X111293390Y-54329500D01*
X111083804Y-54368678D01*
X110884980Y-54445702D01*
X110884975Y-54445705D01*
X110703699Y-54557946D01*
X110703692Y-54557952D01*
X110546135Y-54701586D01*
X110546131Y-54701589D01*
X110546128Y-54701593D01*
X110546125Y-54701597D01*
X110417635Y-54871743D01*
X110417630Y-54871752D01*
X110322596Y-55062608D01*
X110264244Y-55267688D01*
X110264244Y-55267690D01*
X110244571Y-55480000D01*
X109360000Y-55480000D01*
X109360000Y-55408111D01*
X109319493Y-55270156D01*
X109241761Y-55149202D01*
X109133100Y-55055048D01*
X109002315Y-54995320D01*
X108895763Y-54980000D01*
X108824237Y-54980000D01*
X108717685Y-54995320D01*
X108586900Y-55055048D01*
X108478239Y-55149202D01*
X108400507Y-55270156D01*
X108360000Y-55408111D01*
X108360000Y-55551889D01*
X107468768Y-55551889D01*
X107475429Y-55480000D01*
X107455756Y-55267690D01*
X107397405Y-55062611D01*
X107356270Y-54979999D01*
X107936671Y-54979999D01*
X107936672Y-54980000D01*
X108359999Y-54980000D01*
X108360000Y-54979999D01*
X108360000Y-54556672D01*
X108359999Y-54556671D01*
X109360000Y-54556671D01*
X109360000Y-54979999D01*
X109360001Y-54980000D01*
X109783328Y-54980000D01*
X109783328Y-54979999D01*
X109737269Y-54893830D01*
X109606059Y-54733949D01*
X109606050Y-54733940D01*
X109446169Y-54602730D01*
X109360000Y-54556671D01*
X108359999Y-54556671D01*
X108273830Y-54602730D01*
X108113949Y-54733940D01*
X108113940Y-54733949D01*
X107982730Y-54893830D01*
X107936671Y-54979999D01*
X107356270Y-54979999D01*
X107302366Y-54871745D01*
X107173872Y-54701593D01*
X107119623Y-54652139D01*
X107016307Y-54557952D01*
X107016300Y-54557946D01*
X106835024Y-54445705D01*
X106835019Y-54445702D01*
X106636195Y-54368678D01*
X106426610Y-54329500D01*
X106213390Y-54329500D01*
X106003804Y-54368678D01*
X105804980Y-54445702D01*
X105804975Y-54445705D01*
X105623699Y-54557946D01*
X105623692Y-54557952D01*
X105466135Y-54701586D01*
X105466131Y-54701589D01*
X105466128Y-54701593D01*
X105466125Y-54701597D01*
X105337635Y-54871743D01*
X105337630Y-54871752D01*
X105242596Y-55062608D01*
X105184244Y-55267688D01*
X105184244Y-55267690D01*
X105164571Y-55480000D01*
X104935429Y-55480000D01*
X104915756Y-55267690D01*
X104857405Y-55062611D01*
X104762366Y-54871745D01*
X104633872Y-54701593D01*
X104579623Y-54652139D01*
X104476307Y-54557952D01*
X104476300Y-54557946D01*
X104295024Y-54445705D01*
X104295019Y-54445702D01*
X104096195Y-54368678D01*
X103886610Y-54329500D01*
X103673390Y-54329500D01*
X103463804Y-54368678D01*
X103264980Y-54445702D01*
X103264975Y-54445705D01*
X103083699Y-54557946D01*
X103083692Y-54557952D01*
X102926135Y-54701586D01*
X102926131Y-54701589D01*
X102926128Y-54701593D01*
X102926125Y-54701597D01*
X102797635Y-54871743D01*
X102797630Y-54871752D01*
X102702596Y-55062608D01*
X102644244Y-55267688D01*
X102644244Y-55267690D01*
X102624571Y-55480000D01*
X102395429Y-55480000D01*
X102375756Y-55267690D01*
X102317405Y-55062611D01*
X102222366Y-54871745D01*
X102093872Y-54701593D01*
X102039623Y-54652139D01*
X101936307Y-54557952D01*
X101936300Y-54557946D01*
X101755024Y-54445705D01*
X101755019Y-54445702D01*
X101556195Y-54368678D01*
X101346610Y-54329500D01*
X101133390Y-54329500D01*
X100923804Y-54368678D01*
X100724980Y-54445702D01*
X100724975Y-54445705D01*
X100543699Y-54557946D01*
X100543692Y-54557952D01*
X100386135Y-54701586D01*
X100386131Y-54701589D01*
X100386128Y-54701593D01*
X100386125Y-54701597D01*
X100257635Y-54871743D01*
X100257630Y-54871752D01*
X100162596Y-55062608D01*
X100104244Y-55267688D01*
X100104244Y-55267690D01*
X100084571Y-55480000D01*
X99200000Y-55480000D01*
X99200000Y-55408111D01*
X99159493Y-55270156D01*
X99081761Y-55149202D01*
X98973100Y-55055048D01*
X98842315Y-54995320D01*
X98735763Y-54980000D01*
X98664237Y-54980000D01*
X98557685Y-54995320D01*
X98426900Y-55055048D01*
X98318239Y-55149202D01*
X98240507Y-55270156D01*
X98200000Y-55408111D01*
X98200000Y-55551889D01*
X97308768Y-55551889D01*
X97315429Y-55480000D01*
X97295756Y-55267690D01*
X97237405Y-55062611D01*
X97196270Y-54979999D01*
X97776671Y-54979999D01*
X97776672Y-54980000D01*
X98199999Y-54980000D01*
X98200000Y-54979999D01*
X98200000Y-54556672D01*
X98199999Y-54556671D01*
X99200000Y-54556671D01*
X99200000Y-54979999D01*
X99200001Y-54980000D01*
X99623328Y-54980000D01*
X99623328Y-54979999D01*
X99577269Y-54893830D01*
X99446059Y-54733949D01*
X99446050Y-54733940D01*
X99286169Y-54602730D01*
X99200000Y-54556671D01*
X98199999Y-54556671D01*
X98113830Y-54602730D01*
X97953949Y-54733940D01*
X97953940Y-54733949D01*
X97822730Y-54893830D01*
X97776671Y-54979999D01*
X97196270Y-54979999D01*
X97142366Y-54871745D01*
X97013872Y-54701593D01*
X96959623Y-54652139D01*
X96856307Y-54557952D01*
X96856300Y-54557946D01*
X96675024Y-54445705D01*
X96675019Y-54445702D01*
X96476195Y-54368678D01*
X96266610Y-54329500D01*
X96053390Y-54329500D01*
X95843804Y-54368678D01*
X95644980Y-54445702D01*
X95644975Y-54445705D01*
X95463699Y-54557946D01*
X95463692Y-54557952D01*
X95306135Y-54701586D01*
X95306131Y-54701589D01*
X95306128Y-54701593D01*
X95306125Y-54701597D01*
X95177635Y-54871743D01*
X95177630Y-54871752D01*
X95082596Y-55062608D01*
X95024244Y-55267688D01*
X95024244Y-55267690D01*
X95004571Y-55480000D01*
X94775429Y-55480000D01*
X94755756Y-55267690D01*
X94697405Y-55062611D01*
X94602366Y-54871745D01*
X94473872Y-54701593D01*
X94419623Y-54652139D01*
X94316307Y-54557952D01*
X94316300Y-54557946D01*
X94135024Y-54445705D01*
X94135019Y-54445702D01*
X93936195Y-54368678D01*
X93726610Y-54329500D01*
X93513390Y-54329500D01*
X93303804Y-54368678D01*
X93104980Y-54445702D01*
X93104975Y-54445705D01*
X92923699Y-54557946D01*
X92923692Y-54557952D01*
X92766135Y-54701586D01*
X92766131Y-54701589D01*
X92766128Y-54701593D01*
X92766125Y-54701597D01*
X92637635Y-54871743D01*
X92637630Y-54871752D01*
X92542596Y-55062608D01*
X92484244Y-55267688D01*
X92484244Y-55267690D01*
X92464571Y-55480000D01*
X91079428Y-55480000D01*
X90982853Y-55320245D01*
X90935314Y-55241605D01*
X90935312Y-55241603D01*
X90935306Y-55241592D01*
X90737554Y-54989181D01*
X90510819Y-54762446D01*
X90258408Y-54564694D01*
X90258400Y-54564689D01*
X90258394Y-54564685D01*
X89984014Y-54398817D01*
X89984008Y-54398813D01*
X89984000Y-54398809D01*
X89910735Y-54365835D01*
X89691599Y-54267209D01*
X89385463Y-54171813D01*
X89070080Y-54114016D01*
X89070055Y-54114013D01*
X88750006Y-54094655D01*
X88749994Y-54094655D01*
X88429944Y-54114013D01*
X88429919Y-54114016D01*
X88114537Y-54171813D01*
X88114535Y-54171813D01*
X87808400Y-54267209D01*
X87516006Y-54398806D01*
X87515985Y-54398817D01*
X87241605Y-54564685D01*
X87241586Y-54564698D01*
X86989187Y-54762441D01*
X86989184Y-54762443D01*
X86762443Y-54989184D01*
X86762441Y-54989187D01*
X86564698Y-55241586D01*
X86564685Y-55241605D01*
X86398817Y-55515985D01*
X86398806Y-55516006D01*
X86267209Y-55808400D01*
X86171813Y-56114535D01*
X86171813Y-56114537D01*
X86114016Y-56429919D01*
X86114013Y-56429944D01*
X86094655Y-56749993D01*
X86094655Y-56750006D01*
X85450500Y-56750006D01*
X85450500Y-56252773D01*
X85450656Y-56247222D01*
X85451769Y-56227410D01*
X85467791Y-55942099D01*
X85469034Y-55931073D01*
X85519760Y-55632519D01*
X85522221Y-55621733D01*
X85606063Y-55330714D01*
X85609723Y-55320254D01*
X85725614Y-55040469D01*
X85730428Y-55030474D01*
X85753247Y-54989187D01*
X85876909Y-54765436D01*
X85882806Y-54756051D01*
X86058053Y-54509063D01*
X86064967Y-54500394D01*
X86266757Y-54274592D01*
X86274592Y-54266757D01*
X86500394Y-54064967D01*
X86509063Y-54058053D01*
X86756051Y-53882806D01*
X86765436Y-53876909D01*
X87030480Y-53730424D01*
X87040469Y-53725614D01*
X87320254Y-53609723D01*
X87330714Y-53606063D01*
X87621733Y-53522221D01*
X87632519Y-53519760D01*
X87931080Y-53469033D01*
X87942099Y-53467791D01*
X88247222Y-53450655D01*
X88252773Y-53450500D01*
X88289882Y-53450500D01*
X147210118Y-53450500D01*
X147247227Y-53450500D01*
X147252777Y-53450655D01*
G37*
%TD.AperFunction*%
%TD*%
M02*
