%TF.GenerationSoftware,KiCad,Pcbnew,7.0.10*%
%TF.CreationDate,2024-02-08T21:46:58-06:00*%
%TF.ProjectId,ElectriPi,456c6563-7472-4695-9069-2e6b69636164,rev?*%
%TF.SameCoordinates,PX514cfd0PY32c87d0*%
%TF.FileFunction,Legend,Top*%
%TF.FilePolarity,Positive*%
%FSLAX46Y46*%
G04 Gerber Fmt 4.6, Leading zero omitted, Abs format (unit mm)*
G04 Created by KiCad (PCBNEW 7.0.10) date 2024-02-08 21:46:58*
%MOMM*%
%LPD*%
G01*
G04 APERTURE LIST*
%ADD10C,0.150000*%
%ADD11C,0.153000*%
%ADD12C,0.125000*%
%ADD13C,0.100000*%
%ADD14C,0.120000*%
G04 APERTURE END LIST*
D10*
X64073866Y-6630951D02*
X64073866Y-5869047D01*
D11*
X23219048Y-873710D02*
X23980953Y-873710D01*
D10*
X55500000Y-11109580D02*
X55547619Y-11157200D01*
X55547619Y-11157200D02*
X55500000Y-11204819D01*
X55500000Y-11204819D02*
X55452381Y-11157200D01*
X55452381Y-11157200D02*
X55500000Y-11109580D01*
X55500000Y-11109580D02*
X55500000Y-11204819D01*
X45619048Y-6923866D02*
X46380953Y-6923866D01*
X46000000Y-7304819D02*
X46000000Y-6542914D01*
X47300000Y-14659580D02*
X47347619Y-14707200D01*
X47347619Y-14707200D02*
X47300000Y-14754819D01*
X47300000Y-14754819D02*
X47252381Y-14707200D01*
X47252381Y-14707200D02*
X47300000Y-14659580D01*
X47300000Y-14659580D02*
X47300000Y-14754819D01*
X6650000Y-4836104D02*
X6688095Y-4874200D01*
X6688095Y-4874200D02*
X6650000Y-4912295D01*
X6650000Y-4912295D02*
X6611904Y-4874200D01*
X6611904Y-4874200D02*
X6650000Y-4836104D01*
X6650000Y-4836104D02*
X6650000Y-4912295D01*
X62112295Y-24566666D02*
X62912295Y-24299999D01*
X62912295Y-24299999D02*
X62112295Y-24033333D01*
X62836104Y-23309523D02*
X62874200Y-23347619D01*
X62874200Y-23347619D02*
X62912295Y-23461904D01*
X62912295Y-23461904D02*
X62912295Y-23538095D01*
X62912295Y-23538095D02*
X62874200Y-23652381D01*
X62874200Y-23652381D02*
X62798009Y-23728571D01*
X62798009Y-23728571D02*
X62721819Y-23766666D01*
X62721819Y-23766666D02*
X62569438Y-23804762D01*
X62569438Y-23804762D02*
X62455152Y-23804762D01*
X62455152Y-23804762D02*
X62302771Y-23766666D01*
X62302771Y-23766666D02*
X62226580Y-23728571D01*
X62226580Y-23728571D02*
X62150390Y-23652381D01*
X62150390Y-23652381D02*
X62112295Y-23538095D01*
X62112295Y-23538095D02*
X62112295Y-23461904D01*
X62112295Y-23461904D02*
X62150390Y-23347619D01*
X62150390Y-23347619D02*
X62188485Y-23309523D01*
X62836104Y-22509523D02*
X62874200Y-22547619D01*
X62874200Y-22547619D02*
X62912295Y-22661904D01*
X62912295Y-22661904D02*
X62912295Y-22738095D01*
X62912295Y-22738095D02*
X62874200Y-22852381D01*
X62874200Y-22852381D02*
X62798009Y-22928571D01*
X62798009Y-22928571D02*
X62721819Y-22966666D01*
X62721819Y-22966666D02*
X62569438Y-23004762D01*
X62569438Y-23004762D02*
X62455152Y-23004762D01*
X62455152Y-23004762D02*
X62302771Y-22966666D01*
X62302771Y-22966666D02*
X62226580Y-22928571D01*
X62226580Y-22928571D02*
X62150390Y-22852381D01*
X62150390Y-22852381D02*
X62112295Y-22738095D01*
X62112295Y-22738095D02*
X62112295Y-22661904D01*
X62112295Y-22661904D02*
X62150390Y-22547619D01*
X62150390Y-22547619D02*
X62188485Y-22509523D01*
X20619048Y-46323866D02*
X21380953Y-46323866D01*
D11*
X18119048Y-6223710D02*
X18880953Y-6223710D01*
D10*
X43119048Y-6973866D02*
X43880953Y-6973866D01*
X62062295Y-19652380D02*
X62062295Y-20033332D01*
X62062295Y-20033332D02*
X62443247Y-20071428D01*
X62443247Y-20071428D02*
X62405152Y-20033332D01*
X62405152Y-20033332D02*
X62367057Y-19957142D01*
X62367057Y-19957142D02*
X62367057Y-19766666D01*
X62367057Y-19766666D02*
X62405152Y-19690475D01*
X62405152Y-19690475D02*
X62443247Y-19652380D01*
X62443247Y-19652380D02*
X62519438Y-19614285D01*
X62519438Y-19614285D02*
X62709914Y-19614285D01*
X62709914Y-19614285D02*
X62786104Y-19652380D01*
X62786104Y-19652380D02*
X62824200Y-19690475D01*
X62824200Y-19690475D02*
X62862295Y-19766666D01*
X62862295Y-19766666D02*
X62862295Y-19957142D01*
X62862295Y-19957142D02*
X62824200Y-20033332D01*
X62824200Y-20033332D02*
X62786104Y-20071428D01*
X62062295Y-19385713D02*
X62862295Y-19119046D01*
X62862295Y-19119046D02*
X62062295Y-18852380D01*
D12*
X62519047Y-15364976D02*
X62138094Y-15364976D01*
X62595237Y-15136404D02*
X62328570Y-15936404D01*
X62328570Y-15936404D02*
X62061904Y-15136404D01*
X61795237Y-15936404D02*
X61795237Y-15288785D01*
X61795237Y-15288785D02*
X61757142Y-15212595D01*
X61757142Y-15212595D02*
X61719047Y-15174500D01*
X61719047Y-15174500D02*
X61642856Y-15136404D01*
X61642856Y-15136404D02*
X61490475Y-15136404D01*
X61490475Y-15136404D02*
X61414285Y-15174500D01*
X61414285Y-15174500D02*
X61376190Y-15212595D01*
X61376190Y-15212595D02*
X61338094Y-15288785D01*
X61338094Y-15288785D02*
X61338094Y-15936404D01*
X61033333Y-15936404D02*
X60499999Y-15136404D01*
X60499999Y-15936404D02*
X61033333Y-15136404D01*
X59204761Y-15936404D02*
X59585713Y-15936404D01*
X59585713Y-15936404D02*
X59623809Y-15555452D01*
X59623809Y-15555452D02*
X59585713Y-15593547D01*
X59585713Y-15593547D02*
X59509523Y-15631642D01*
X59509523Y-15631642D02*
X59319047Y-15631642D01*
X59319047Y-15631642D02*
X59242856Y-15593547D01*
X59242856Y-15593547D02*
X59204761Y-15555452D01*
X59204761Y-15555452D02*
X59166666Y-15479261D01*
X59166666Y-15479261D02*
X59166666Y-15288785D01*
X59166666Y-15288785D02*
X59204761Y-15212595D01*
X59204761Y-15212595D02*
X59242856Y-15174500D01*
X59242856Y-15174500D02*
X59319047Y-15136404D01*
X59319047Y-15136404D02*
X59509523Y-15136404D01*
X59509523Y-15136404D02*
X59585713Y-15174500D01*
X59585713Y-15174500D02*
X59623809Y-15212595D01*
X58938094Y-15936404D02*
X58671427Y-15136404D01*
X58671427Y-15136404D02*
X58404761Y-15936404D01*
D10*
X64073866Y-15880951D02*
X64073866Y-15119047D01*
X64454819Y-15499999D02*
X63692914Y-15499999D01*
D11*
X10499048Y-823710D02*
X11260953Y-823710D01*
X10880000Y-1204663D02*
X10880000Y-442758D01*
D10*
X56500000Y-31359580D02*
X56547619Y-31407200D01*
X56547619Y-31407200D02*
X56500000Y-31454819D01*
X56500000Y-31454819D02*
X56452381Y-31407200D01*
X56452381Y-31407200D02*
X56500000Y-31359580D01*
X56500000Y-31359580D02*
X56500000Y-31454819D01*
X15445238Y-55507533D02*
X16054762Y-55507533D01*
X15750000Y-55812295D02*
X15750000Y-55202771D01*
X56140419Y-50750000D02*
X56092800Y-50797619D01*
X56092800Y-50797619D02*
X56045180Y-50750000D01*
X56045180Y-50750000D02*
X56092800Y-50702381D01*
X56092800Y-50702381D02*
X56140419Y-50750000D01*
X56140419Y-50750000D02*
X56045180Y-50750000D01*
X41802381Y-14443247D02*
X41535715Y-14443247D01*
X41535715Y-14862295D02*
X41535715Y-14062295D01*
X41535715Y-14062295D02*
X41916667Y-14062295D01*
X42183333Y-14633723D02*
X42564286Y-14633723D01*
X42107143Y-14862295D02*
X42373810Y-14062295D01*
X42373810Y-14062295D02*
X42640476Y-14862295D01*
X42907143Y-14862295D02*
X42907143Y-14062295D01*
X42907143Y-14062295D02*
X43364286Y-14862295D01*
X43364286Y-14862295D02*
X43364286Y-14062295D01*
D11*
X7969048Y-823710D02*
X8730953Y-823710D01*
X8350000Y-1204663D02*
X8350000Y-442758D01*
X13019048Y-823710D02*
X13780953Y-823710D01*
D10*
X6130951Y-54823866D02*
X5369047Y-54823866D01*
D11*
X30869048Y-873710D02*
X31630953Y-873710D01*
X57819048Y-4773710D02*
X58580953Y-4773710D01*
D10*
X15369048Y-46323866D02*
X16130953Y-46323866D01*
X15750000Y-46704819D02*
X15750000Y-45942914D01*
X5369048Y-48323866D02*
X6130953Y-48323866D01*
X5750000Y-48704819D02*
X5750000Y-47942914D01*
X52500000Y-8959580D02*
X52547619Y-9007200D01*
X52547619Y-9007200D02*
X52500000Y-9054819D01*
X52500000Y-9054819D02*
X52452381Y-9007200D01*
X52452381Y-9007200D02*
X52500000Y-8959580D01*
X52500000Y-8959580D02*
X52500000Y-9054819D01*
D11*
X48619048Y-873710D02*
X49380953Y-873710D01*
D10*
X56690000Y-50034580D02*
X56737619Y-50082200D01*
X56737619Y-50082200D02*
X56690000Y-50129819D01*
X56690000Y-50129819D02*
X56642381Y-50082200D01*
X56642381Y-50082200D02*
X56690000Y-50034580D01*
X56690000Y-50034580D02*
X56690000Y-50129819D01*
D11*
X38469048Y-6173710D02*
X39230953Y-6173710D01*
D13*
X1073809Y-48470895D02*
X616666Y-48470895D01*
X845238Y-48470895D02*
X845238Y-47670895D01*
X845238Y-47670895D02*
X769047Y-47785180D01*
X769047Y-47785180D02*
X692857Y-47861371D01*
X692857Y-47861371D02*
X616666Y-47899466D01*
X1378571Y-47747085D02*
X1416667Y-47708990D01*
X1416667Y-47708990D02*
X1492857Y-47670895D01*
X1492857Y-47670895D02*
X1683333Y-47670895D01*
X1683333Y-47670895D02*
X1759524Y-47708990D01*
X1759524Y-47708990D02*
X1797619Y-47747085D01*
X1797619Y-47747085D02*
X1835714Y-47823276D01*
X1835714Y-47823276D02*
X1835714Y-47899466D01*
X1835714Y-47899466D02*
X1797619Y-48013752D01*
X1797619Y-48013752D02*
X1340476Y-48470895D01*
X1340476Y-48470895D02*
X1835714Y-48470895D01*
X2750000Y-47632800D02*
X2064286Y-48661371D01*
X2978571Y-47747085D02*
X3016667Y-47708990D01*
X3016667Y-47708990D02*
X3092857Y-47670895D01*
X3092857Y-47670895D02*
X3283333Y-47670895D01*
X3283333Y-47670895D02*
X3359524Y-47708990D01*
X3359524Y-47708990D02*
X3397619Y-47747085D01*
X3397619Y-47747085D02*
X3435714Y-47823276D01*
X3435714Y-47823276D02*
X3435714Y-47899466D01*
X3435714Y-47899466D02*
X3397619Y-48013752D01*
X3397619Y-48013752D02*
X2940476Y-48470895D01*
X2940476Y-48470895D02*
X3435714Y-48470895D01*
X4121429Y-47937561D02*
X4121429Y-48470895D01*
X3930953Y-47632800D02*
X3740476Y-48204228D01*
X3740476Y-48204228D02*
X4235715Y-48204228D01*
X4426191Y-47670895D02*
X4692858Y-48470895D01*
X4692858Y-48470895D02*
X4959524Y-47670895D01*
X826191Y-49758895D02*
X826191Y-48958895D01*
X1207143Y-49758895D02*
X1207143Y-48958895D01*
X1207143Y-48958895D02*
X1664286Y-49758895D01*
X1664286Y-49758895D02*
X1664286Y-48958895D01*
X2045238Y-49758895D02*
X2045238Y-48958895D01*
X2045238Y-48958895D02*
X2350000Y-48958895D01*
X2350000Y-48958895D02*
X2426190Y-48996990D01*
X2426190Y-48996990D02*
X2464285Y-49035085D01*
X2464285Y-49035085D02*
X2502381Y-49111276D01*
X2502381Y-49111276D02*
X2502381Y-49225561D01*
X2502381Y-49225561D02*
X2464285Y-49301752D01*
X2464285Y-49301752D02*
X2426190Y-49339847D01*
X2426190Y-49339847D02*
X2350000Y-49377942D01*
X2350000Y-49377942D02*
X2045238Y-49377942D01*
X2845238Y-48958895D02*
X2845238Y-49606514D01*
X2845238Y-49606514D02*
X2883333Y-49682704D01*
X2883333Y-49682704D02*
X2921428Y-49720800D01*
X2921428Y-49720800D02*
X2997619Y-49758895D01*
X2997619Y-49758895D02*
X3150000Y-49758895D01*
X3150000Y-49758895D02*
X3226190Y-49720800D01*
X3226190Y-49720800D02*
X3264285Y-49682704D01*
X3264285Y-49682704D02*
X3302381Y-49606514D01*
X3302381Y-49606514D02*
X3302381Y-48958895D01*
X3569047Y-48958895D02*
X4026190Y-48958895D01*
X3797618Y-49758895D02*
X3797618Y-48958895D01*
X4254761Y-49720800D02*
X4369047Y-49758895D01*
X4369047Y-49758895D02*
X4559523Y-49758895D01*
X4559523Y-49758895D02*
X4635714Y-49720800D01*
X4635714Y-49720800D02*
X4673809Y-49682704D01*
X4673809Y-49682704D02*
X4711904Y-49606514D01*
X4711904Y-49606514D02*
X4711904Y-49530323D01*
X4711904Y-49530323D02*
X4673809Y-49454133D01*
X4673809Y-49454133D02*
X4635714Y-49416038D01*
X4635714Y-49416038D02*
X4559523Y-49377942D01*
X4559523Y-49377942D02*
X4407142Y-49339847D01*
X4407142Y-49339847D02*
X4330952Y-49301752D01*
X4330952Y-49301752D02*
X4292857Y-49263657D01*
X4292857Y-49263657D02*
X4254761Y-49187466D01*
X4254761Y-49187466D02*
X4254761Y-49111276D01*
X4254761Y-49111276D02*
X4292857Y-49035085D01*
X4292857Y-49035085D02*
X4330952Y-48996990D01*
X4330952Y-48996990D02*
X4407142Y-48958895D01*
X4407142Y-48958895D02*
X4597619Y-48958895D01*
X4597619Y-48958895D02*
X4711904Y-48996990D01*
D11*
X43519048Y-873710D02*
X44280953Y-873710D01*
D10*
X20695238Y-55557533D02*
X21304762Y-55557533D01*
X62429819Y-11183333D02*
X63144104Y-11183333D01*
X63144104Y-11183333D02*
X63286961Y-11230952D01*
X63286961Y-11230952D02*
X63382200Y-11326190D01*
X63382200Y-11326190D02*
X63429819Y-11469047D01*
X63429819Y-11469047D02*
X63429819Y-11564285D01*
X62858390Y-10564285D02*
X62810771Y-10659523D01*
X62810771Y-10659523D02*
X62763152Y-10707142D01*
X62763152Y-10707142D02*
X62667914Y-10754761D01*
X62667914Y-10754761D02*
X62620295Y-10754761D01*
X62620295Y-10754761D02*
X62525057Y-10707142D01*
X62525057Y-10707142D02*
X62477438Y-10659523D01*
X62477438Y-10659523D02*
X62429819Y-10564285D01*
X62429819Y-10564285D02*
X62429819Y-10373809D01*
X62429819Y-10373809D02*
X62477438Y-10278571D01*
X62477438Y-10278571D02*
X62525057Y-10230952D01*
X62525057Y-10230952D02*
X62620295Y-10183333D01*
X62620295Y-10183333D02*
X62667914Y-10183333D01*
X62667914Y-10183333D02*
X62763152Y-10230952D01*
X62763152Y-10230952D02*
X62810771Y-10278571D01*
X62810771Y-10278571D02*
X62858390Y-10373809D01*
X62858390Y-10373809D02*
X62858390Y-10564285D01*
X62858390Y-10564285D02*
X62906009Y-10659523D01*
X62906009Y-10659523D02*
X62953628Y-10707142D01*
X62953628Y-10707142D02*
X63048866Y-10754761D01*
X63048866Y-10754761D02*
X63239342Y-10754761D01*
X63239342Y-10754761D02*
X63334580Y-10707142D01*
X63334580Y-10707142D02*
X63382200Y-10659523D01*
X63382200Y-10659523D02*
X63429819Y-10564285D01*
X63429819Y-10564285D02*
X63429819Y-10373809D01*
X63429819Y-10373809D02*
X63382200Y-10278571D01*
X63382200Y-10278571D02*
X63334580Y-10230952D01*
X63334580Y-10230952D02*
X63239342Y-10183333D01*
X63239342Y-10183333D02*
X63048866Y-10183333D01*
X63048866Y-10183333D02*
X62953628Y-10230952D01*
X62953628Y-10230952D02*
X62906009Y-10278571D01*
X62906009Y-10278571D02*
X62858390Y-10373809D01*
X7779819Y-52133333D02*
X8494104Y-52133333D01*
X8494104Y-52133333D02*
X8636961Y-52180952D01*
X8636961Y-52180952D02*
X8732200Y-52276190D01*
X8732200Y-52276190D02*
X8779819Y-52419047D01*
X8779819Y-52419047D02*
X8779819Y-52514285D01*
X7875057Y-51704761D02*
X7827438Y-51657142D01*
X7827438Y-51657142D02*
X7779819Y-51561904D01*
X7779819Y-51561904D02*
X7779819Y-51323809D01*
X7779819Y-51323809D02*
X7827438Y-51228571D01*
X7827438Y-51228571D02*
X7875057Y-51180952D01*
X7875057Y-51180952D02*
X7970295Y-51133333D01*
X7970295Y-51133333D02*
X8065533Y-51133333D01*
X8065533Y-51133333D02*
X8208390Y-51180952D01*
X8208390Y-51180952D02*
X8779819Y-51752380D01*
X8779819Y-51752380D02*
X8779819Y-51133333D01*
X18016666Y-47954819D02*
X18016666Y-48669104D01*
X18016666Y-48669104D02*
X17969047Y-48811961D01*
X17969047Y-48811961D02*
X17873809Y-48907200D01*
X17873809Y-48907200D02*
X17730952Y-48954819D01*
X17730952Y-48954819D02*
X17635714Y-48954819D01*
X19016666Y-48954819D02*
X18445238Y-48954819D01*
X18730952Y-48954819D02*
X18730952Y-47954819D01*
X18730952Y-47954819D02*
X18635714Y-48097676D01*
X18635714Y-48097676D02*
X18540476Y-48192914D01*
X18540476Y-48192914D02*
X18445238Y-48240533D01*
X50607142Y-38359580D02*
X50559523Y-38407200D01*
X50559523Y-38407200D02*
X50416666Y-38454819D01*
X50416666Y-38454819D02*
X50321428Y-38454819D01*
X50321428Y-38454819D02*
X50178571Y-38407200D01*
X50178571Y-38407200D02*
X50083333Y-38311961D01*
X50083333Y-38311961D02*
X50035714Y-38216723D01*
X50035714Y-38216723D02*
X49988095Y-38026247D01*
X49988095Y-38026247D02*
X49988095Y-37883390D01*
X49988095Y-37883390D02*
X50035714Y-37692914D01*
X50035714Y-37692914D02*
X50083333Y-37597676D01*
X50083333Y-37597676D02*
X50178571Y-37502438D01*
X50178571Y-37502438D02*
X50321428Y-37454819D01*
X50321428Y-37454819D02*
X50416666Y-37454819D01*
X50416666Y-37454819D02*
X50559523Y-37502438D01*
X50559523Y-37502438D02*
X50607142Y-37550057D01*
X51559523Y-38454819D02*
X50988095Y-38454819D01*
X51273809Y-38454819D02*
X51273809Y-37454819D01*
X51273809Y-37454819D02*
X51178571Y-37597676D01*
X51178571Y-37597676D02*
X51083333Y-37692914D01*
X51083333Y-37692914D02*
X50988095Y-37740533D01*
X52130952Y-37883390D02*
X52035714Y-37835771D01*
X52035714Y-37835771D02*
X51988095Y-37788152D01*
X51988095Y-37788152D02*
X51940476Y-37692914D01*
X51940476Y-37692914D02*
X51940476Y-37645295D01*
X51940476Y-37645295D02*
X51988095Y-37550057D01*
X51988095Y-37550057D02*
X52035714Y-37502438D01*
X52035714Y-37502438D02*
X52130952Y-37454819D01*
X52130952Y-37454819D02*
X52321428Y-37454819D01*
X52321428Y-37454819D02*
X52416666Y-37502438D01*
X52416666Y-37502438D02*
X52464285Y-37550057D01*
X52464285Y-37550057D02*
X52511904Y-37645295D01*
X52511904Y-37645295D02*
X52511904Y-37692914D01*
X52511904Y-37692914D02*
X52464285Y-37788152D01*
X52464285Y-37788152D02*
X52416666Y-37835771D01*
X52416666Y-37835771D02*
X52321428Y-37883390D01*
X52321428Y-37883390D02*
X52130952Y-37883390D01*
X52130952Y-37883390D02*
X52035714Y-37931009D01*
X52035714Y-37931009D02*
X51988095Y-37978628D01*
X51988095Y-37978628D02*
X51940476Y-38073866D01*
X51940476Y-38073866D02*
X51940476Y-38264342D01*
X51940476Y-38264342D02*
X51988095Y-38359580D01*
X51988095Y-38359580D02*
X52035714Y-38407200D01*
X52035714Y-38407200D02*
X52130952Y-38454819D01*
X52130952Y-38454819D02*
X52321428Y-38454819D01*
X52321428Y-38454819D02*
X52416666Y-38407200D01*
X52416666Y-38407200D02*
X52464285Y-38359580D01*
X52464285Y-38359580D02*
X52511904Y-38264342D01*
X52511904Y-38264342D02*
X52511904Y-38073866D01*
X52511904Y-38073866D02*
X52464285Y-37978628D01*
X52464285Y-37978628D02*
X52416666Y-37931009D01*
X52416666Y-37931009D02*
X52321428Y-37883390D01*
X47733333Y-6312295D02*
X47733333Y-6883723D01*
X47733333Y-6883723D02*
X47695238Y-6998009D01*
X47695238Y-6998009D02*
X47619047Y-7074200D01*
X47619047Y-7074200D02*
X47504762Y-7112295D01*
X47504762Y-7112295D02*
X47428571Y-7112295D01*
X48038095Y-6312295D02*
X48533333Y-6312295D01*
X48533333Y-6312295D02*
X48266667Y-6617057D01*
X48266667Y-6617057D02*
X48380952Y-6617057D01*
X48380952Y-6617057D02*
X48457143Y-6655152D01*
X48457143Y-6655152D02*
X48495238Y-6693247D01*
X48495238Y-6693247D02*
X48533333Y-6769438D01*
X48533333Y-6769438D02*
X48533333Y-6959914D01*
X48533333Y-6959914D02*
X48495238Y-7036104D01*
X48495238Y-7036104D02*
X48457143Y-7074200D01*
X48457143Y-7074200D02*
X48380952Y-7112295D01*
X48380952Y-7112295D02*
X48152381Y-7112295D01*
X48152381Y-7112295D02*
X48076190Y-7074200D01*
X48076190Y-7074200D02*
X48038095Y-7036104D01*
X46833333Y-34954819D02*
X46357143Y-34954819D01*
X46357143Y-34954819D02*
X46357143Y-33954819D01*
X47690476Y-34954819D02*
X47119048Y-34954819D01*
X47404762Y-34954819D02*
X47404762Y-33954819D01*
X47404762Y-33954819D02*
X47309524Y-34097676D01*
X47309524Y-34097676D02*
X47214286Y-34192914D01*
X47214286Y-34192914D02*
X47119048Y-34240533D01*
X48704819Y-21988094D02*
X47704819Y-21988094D01*
X47704819Y-21988094D02*
X47704819Y-21749999D01*
X47704819Y-21749999D02*
X47752438Y-21607142D01*
X47752438Y-21607142D02*
X47847676Y-21511904D01*
X47847676Y-21511904D02*
X47942914Y-21464285D01*
X47942914Y-21464285D02*
X48133390Y-21416666D01*
X48133390Y-21416666D02*
X48276247Y-21416666D01*
X48276247Y-21416666D02*
X48466723Y-21464285D01*
X48466723Y-21464285D02*
X48561961Y-21511904D01*
X48561961Y-21511904D02*
X48657200Y-21607142D01*
X48657200Y-21607142D02*
X48704819Y-21749999D01*
X48704819Y-21749999D02*
X48704819Y-21988094D01*
X47800057Y-21035713D02*
X47752438Y-20988094D01*
X47752438Y-20988094D02*
X47704819Y-20892856D01*
X47704819Y-20892856D02*
X47704819Y-20654761D01*
X47704819Y-20654761D02*
X47752438Y-20559523D01*
X47752438Y-20559523D02*
X47800057Y-20511904D01*
X47800057Y-20511904D02*
X47895295Y-20464285D01*
X47895295Y-20464285D02*
X47990533Y-20464285D01*
X47990533Y-20464285D02*
X48133390Y-20511904D01*
X48133390Y-20511904D02*
X48704819Y-21083332D01*
X48704819Y-21083332D02*
X48704819Y-20464285D01*
D14*
%TO.C,J8*%
X58200000Y-14950000D02*
X59450000Y-14950000D01*
X58490000Y-14660000D02*
X64460000Y-14660000D01*
X64460000Y-14660000D02*
X64460000Y-7040000D01*
X58500000Y-14650000D02*
X59250000Y-14650000D01*
X59250000Y-14650000D02*
X59250000Y-12850000D01*
X60750000Y-14650000D02*
X60750000Y-13900000D01*
X60750000Y-13900000D02*
X63700000Y-13900000D01*
X63700000Y-13900000D02*
X63700000Y-10850000D01*
X58200000Y-13700000D02*
X58200000Y-14950000D01*
X58500000Y-12850000D02*
X58500000Y-14650000D01*
X59250000Y-12850000D02*
X58500000Y-12850000D01*
X58500000Y-11350000D02*
X59250000Y-11350000D01*
X59250000Y-11350000D02*
X59250000Y-10350000D01*
X58500000Y-10350000D02*
X58500000Y-11350000D01*
X59250000Y-10350000D02*
X58500000Y-10350000D01*
X58500000Y-8850000D02*
X59250000Y-8850000D01*
X59250000Y-8850000D02*
X59250000Y-7050000D01*
X60750000Y-7800000D02*
X63700000Y-7800000D01*
X63700000Y-7800000D02*
X63700000Y-10850000D01*
X58500000Y-7050000D02*
X58500000Y-8850000D01*
X59250000Y-7050000D02*
X58500000Y-7050000D01*
X60750000Y-7050000D02*
X60750000Y-7800000D01*
X58490000Y-7040000D02*
X58490000Y-14660000D01*
X64460000Y-7040000D02*
X58490000Y-7040000D01*
%TO.C,R11*%
X59596359Y-24620000D02*
X59903641Y-24620000D01*
X59596359Y-25380000D02*
X59903641Y-25380000D01*
%TO.C,C12*%
X54988748Y-6915000D02*
X55511252Y-6915000D01*
X54988748Y-8385000D02*
X55511252Y-8385000D01*
%TO.C,D4*%
X56690000Y-48000000D02*
X56690000Y-49675000D01*
X56690000Y-48000000D02*
X56690000Y-47350000D01*
X59810000Y-48000000D02*
X59810000Y-48650000D01*
X59810000Y-48000000D02*
X59810000Y-47350000D01*
%TO.C,C9*%
X52110000Y-8142164D02*
X52110000Y-8357836D01*
X51390000Y-8142164D02*
X51390000Y-8357836D01*
%TO.C,C8*%
X56007836Y-32410000D02*
X55792164Y-32410000D01*
X56007836Y-31690000D02*
X55792164Y-31690000D01*
%TO.C,Q2*%
X55075000Y-11000000D02*
X54975000Y-11000000D01*
X55075000Y-11000000D02*
X55075000Y-12950000D01*
X52775000Y-12950000D02*
X52775000Y-11450000D01*
%TO.C,R13*%
X57380000Y-21246359D02*
X57380000Y-21553641D01*
X56620000Y-21246359D02*
X56620000Y-21553641D01*
%TO.C,U3*%
X44740000Y-14637500D02*
X44740000Y-16637500D01*
X46960000Y-15637500D02*
X46960000Y-16637500D01*
%TO.C,J2*%
X12900000Y-47400000D02*
X11650000Y-47400000D01*
X12610000Y-47690000D02*
X6640000Y-47690000D01*
X6640000Y-47690000D02*
X6640000Y-55310000D01*
X12600000Y-47700000D02*
X11850000Y-47700000D01*
X11850000Y-47700000D02*
X11850000Y-49500000D01*
X10350000Y-47700000D02*
X10350000Y-48450000D01*
X10350000Y-48450000D02*
X7400000Y-48450000D01*
X7400000Y-48450000D02*
X7400000Y-51500000D01*
X12900000Y-48650000D02*
X12900000Y-47400000D01*
X12600000Y-49500000D02*
X12600000Y-47700000D01*
X11850000Y-49500000D02*
X12600000Y-49500000D01*
X12600000Y-51000000D02*
X11850000Y-51000000D01*
X11850000Y-51000000D02*
X11850000Y-52000000D01*
X12600000Y-52000000D02*
X12600000Y-51000000D01*
X11850000Y-52000000D02*
X12600000Y-52000000D01*
X12600000Y-53500000D02*
X11850000Y-53500000D01*
X11850000Y-53500000D02*
X11850000Y-55300000D01*
X10350000Y-54550000D02*
X7400000Y-54550000D01*
X7400000Y-54550000D02*
X7400000Y-51500000D01*
X12600000Y-55300000D02*
X12600000Y-53500000D01*
X11850000Y-55300000D02*
X12600000Y-55300000D01*
X10350000Y-55300000D02*
X10350000Y-54550000D01*
X12610000Y-55310000D02*
X12610000Y-47690000D01*
X6640000Y-55310000D02*
X12610000Y-55310000D01*
%TO.C,J1*%
X13270000Y-47440000D02*
X13270000Y-55060000D01*
X13270000Y-55060000D02*
X23430000Y-55060000D01*
X23430000Y-47440000D02*
X13270000Y-47440000D01*
X23430000Y-53790000D02*
X13270000Y-53790000D01*
X23430000Y-55060000D02*
X23430000Y-47440000D01*
%TO.C,C3*%
X53740000Y-27940580D02*
X53740000Y-27659420D01*
X54760000Y-27940580D02*
X54760000Y-27659420D01*
%TO.C,R14*%
X57346359Y-25370000D02*
X57653641Y-25370000D01*
X57346359Y-26130000D02*
X57653641Y-26130000D01*
%TO.C,C15*%
X57127836Y-11660000D02*
X56912164Y-11660000D01*
X57127836Y-10940000D02*
X56912164Y-10940000D01*
%TO.C,C5*%
X44461252Y-21160000D02*
X43038748Y-21160000D01*
X44461252Y-19340000D02*
X43038748Y-19340000D01*
%TO.C,Q1*%
X56125000Y-50300000D02*
X56125000Y-50200000D01*
X56125000Y-50300000D02*
X54175000Y-50300000D01*
X54175000Y-48000000D02*
X55675000Y-48000000D01*
%TO.C,R3*%
X56870000Y-52153641D02*
X56870000Y-51846359D01*
X57630000Y-52153641D02*
X57630000Y-51846359D01*
%TO.C,D1*%
X53000000Y-45340000D02*
X53000000Y-53850000D01*
X46500000Y-45340000D02*
X53000000Y-45340000D01*
X46500000Y-45340000D02*
X46500000Y-53850000D01*
%TO.C,R1*%
X61846359Y-25920000D02*
X62153641Y-25920000D01*
X61846359Y-26680000D02*
X62153641Y-26680000D01*
%TO.C,C11*%
X54988748Y-9015000D02*
X55511252Y-9015000D01*
X54988748Y-10485000D02*
X55511252Y-10485000D01*
%TO.C,C6*%
X58872164Y-31690000D02*
X59087836Y-31690000D01*
X58872164Y-32410000D02*
X59087836Y-32410000D01*
%TO.C,R5*%
X55370000Y-25203641D02*
X55370000Y-24896359D01*
X56130000Y-25203641D02*
X56130000Y-24896359D01*
%TO.C,IC2*%
X59010000Y-30760000D02*
X58685000Y-30760000D01*
X55790000Y-30435000D02*
X55790000Y-30760000D01*
X59010000Y-30435000D02*
X59010000Y-30760000D01*
X55790000Y-27865000D02*
X55790000Y-27540000D01*
X59010000Y-27865000D02*
X59010000Y-27540000D01*
X55790000Y-27540000D02*
X56115000Y-27540000D01*
X59010000Y-27540000D02*
X58685000Y-27540000D01*
%TO.C,R12*%
X60903641Y-28930000D02*
X60596359Y-28930000D01*
X60903641Y-28170000D02*
X60596359Y-28170000D01*
%TO.C,C4*%
X44461252Y-23660000D02*
X43038748Y-23660000D01*
X44461252Y-21840000D02*
X43038748Y-21840000D01*
%TO.C,U1*%
X52310000Y-11350000D02*
X52310000Y-9550000D01*
X52310000Y-11350000D02*
X52310000Y-12150000D01*
X49190000Y-11350000D02*
X49190000Y-10550000D01*
X49190000Y-11350000D02*
X49190000Y-12150000D01*
%TO.C,R6*%
X63470000Y-17403641D02*
X63470000Y-17096359D01*
X64230000Y-17403641D02*
X64230000Y-17096359D01*
%TO.C,F1*%
X23850000Y-47780000D02*
X23850000Y-54720000D01*
X23850000Y-54720000D02*
X43650000Y-54720000D01*
X30350000Y-49250000D02*
X37150000Y-49250000D01*
X31200000Y-51250000D02*
X36300000Y-51250000D01*
X37150000Y-53250000D02*
X30350000Y-53250000D01*
X43650000Y-47780000D02*
X23850000Y-47780000D01*
X43650000Y-54720000D02*
X43650000Y-47780000D01*
%TO.C,C18*%
X57000000Y-43010000D02*
X56000000Y-43010000D01*
X56500000Y-43510000D02*
X56500000Y-42510000D01*
X55760000Y-43695563D02*
X55760000Y-42010000D01*
X55760000Y-43695563D02*
X54695563Y-44760000D01*
X55760000Y-37304437D02*
X55760000Y-38990000D01*
X55760000Y-37304437D02*
X54695563Y-36240000D01*
X54695563Y-44760000D02*
X47240000Y-44760000D01*
X54695563Y-36240000D02*
X47240000Y-36240000D01*
X47240000Y-44760000D02*
X47240000Y-42010000D01*
X47240000Y-36240000D02*
X47240000Y-38990000D01*
%TO.C,J3*%
X48850000Y-13850000D02*
X48850000Y-12600000D01*
X48560000Y-13560000D02*
X48560000Y-7590000D01*
X48560000Y-7590000D02*
X40940000Y-7590000D01*
X48550000Y-13550000D02*
X48550000Y-12800000D01*
X48550000Y-12800000D02*
X46750000Y-12800000D01*
X48550000Y-11300000D02*
X47800000Y-11300000D01*
X47800000Y-11300000D02*
X47800000Y-8350000D01*
X47800000Y-8350000D02*
X44750000Y-8350000D01*
X47600000Y-13850000D02*
X48850000Y-13850000D01*
X46750000Y-13550000D02*
X48550000Y-13550000D01*
X46750000Y-12800000D02*
X46750000Y-13550000D01*
X45250000Y-13550000D02*
X45250000Y-12800000D01*
X45250000Y-12800000D02*
X44250000Y-12800000D01*
X44250000Y-13550000D02*
X45250000Y-13550000D01*
X44250000Y-12800000D02*
X44250000Y-13550000D01*
X42750000Y-13550000D02*
X42750000Y-12800000D01*
X42750000Y-12800000D02*
X40950000Y-12800000D01*
X41700000Y-11300000D02*
X41700000Y-8350000D01*
X41700000Y-8350000D02*
X44750000Y-8350000D01*
X40950000Y-13550000D02*
X42750000Y-13550000D01*
X40950000Y-12800000D02*
X40950000Y-13550000D01*
X40950000Y-11300000D02*
X41700000Y-11300000D01*
X40940000Y-13560000D02*
X48560000Y-13560000D01*
X40940000Y-7590000D02*
X40940000Y-13560000D01*
%TO.C,C1*%
X58938748Y-33015000D02*
X59461252Y-33015000D01*
X58938748Y-34485000D02*
X59461252Y-34485000D01*
%TO.C,C7*%
X42857836Y-24860000D02*
X42642164Y-24860000D01*
X42857836Y-24140000D02*
X42642164Y-24140000D01*
%TO.C,R4*%
X54630000Y-24896359D02*
X54630000Y-25203641D01*
X53870000Y-24896359D02*
X53870000Y-25203641D01*
%TO.C,C2*%
X58938748Y-35265000D02*
X59461252Y-35265000D01*
X58938748Y-36735000D02*
X59461252Y-36735000D01*
%TO.C,D5*%
X64685000Y-21515000D02*
X63215000Y-21515000D01*
X63215000Y-21515000D02*
X63215000Y-23800000D01*
X64685000Y-23800000D02*
X64685000Y-21515000D01*
D13*
%TO.C,U2*%
X250000Y-42950000D02*
X250000Y-10950000D01*
X4250000Y-6950000D02*
X36250000Y-6950000D01*
X36250000Y-46950000D02*
X4250000Y-46950000D01*
X40250000Y-10950000D02*
X40250000Y-42950000D01*
X4250000Y-6950000D02*
G75*
G03*
X250000Y-10950000I0J-4000000D01*
G01*
X250000Y-42950000D02*
G75*
G03*
X4250000Y-46950000I4000000J0D01*
G01*
X40250000Y-10950000D02*
G75*
G03*
X36250000Y-6950000I-4000000J0D01*
G01*
X36250000Y-46950000D02*
G75*
G03*
X40250000Y-42950000I0J4000000D01*
G01*
D14*
%TO.C,C10*%
X53492164Y-13840000D02*
X53707836Y-13840000D01*
X53492164Y-14560000D02*
X53707836Y-14560000D01*
%TO.C,D3*%
X63215000Y-21235000D02*
X64685000Y-21235000D01*
X64685000Y-21235000D02*
X64685000Y-18950000D01*
X63215000Y-18950000D02*
X63215000Y-21235000D01*
%TO.C,L1*%
X52180000Y-35680000D02*
X41820000Y-35680000D01*
X52180000Y-33275000D02*
X52180000Y-35680000D01*
X52180000Y-27725000D02*
X52180000Y-25320000D01*
X52180000Y-25320000D02*
X41820000Y-25320000D01*
X41820000Y-35680000D02*
X41820000Y-33275000D01*
X41820000Y-25320000D02*
X41820000Y-27725000D01*
%TO.C,R8*%
X64380000Y-25346359D02*
X64380000Y-25653641D01*
X63620000Y-25346359D02*
X63620000Y-25653641D01*
%TO.C,D2*%
X49100000Y-24910000D02*
X53400000Y-24910000D01*
X49100000Y-24910000D02*
X49100000Y-19100000D01*
X53400000Y-24910000D02*
X53400000Y-19100000D01*
%TO.C,C17*%
X57642164Y-50140000D02*
X57857836Y-50140000D01*
X57642164Y-50860000D02*
X57857836Y-50860000D01*
%TO.C,R7*%
X59903641Y-26680000D02*
X59596359Y-26680000D01*
X59903641Y-25920000D02*
X59596359Y-25920000D01*
%TD*%
M02*
