%TF.GenerationSoftware,KiCad,Pcbnew,7.0.10*%
%TF.CreationDate,2024-02-11T14:11:40-06:00*%
%TF.ProjectId,ElectriPi,456c6563-7472-4695-9069-2e6b69636164,rev?*%
%TF.SameCoordinates,PX514cfd0PY32c87d0*%
%TF.FileFunction,Copper,L1,Top*%
%TF.FilePolarity,Positive*%
%FSLAX46Y46*%
G04 Gerber Fmt 4.6, Leading zero omitted, Abs format (unit mm)*
G04 Created by KiCad (PCBNEW 7.0.10) date 2024-02-11 14:11:40*
%MOMM*%
%LPD*%
G01*
G04 APERTURE LIST*
G04 Aperture macros list*
%AMRoundRect*
0 Rectangle with rounded corners*
0 $1 Rounding radius*
0 $2 $3 $4 $5 $6 $7 $8 $9 X,Y pos of 4 corners*
0 Add a 4 corners polygon primitive as box body*
4,1,4,$2,$3,$4,$5,$6,$7,$8,$9,$2,$3,0*
0 Add four circle primitives for the rounded corners*
1,1,$1+$1,$2,$3*
1,1,$1+$1,$4,$5*
1,1,$1+$1,$6,$7*
1,1,$1+$1,$8,$9*
0 Add four rect primitives between the rounded corners*
20,1,$1+$1,$2,$3,$4,$5,0*
20,1,$1+$1,$4,$5,$6,$7,0*
20,1,$1+$1,$6,$7,$8,$9,0*
20,1,$1+$1,$8,$9,$2,$3,0*%
%AMFreePoly0*
4,1,15,1.100000,0.175000,0.750000,0.175000,0.750000,-0.175000,1.100000,-0.175000,1.100000,-0.475000,0.750000,-0.475000,-0.750000,-0.475000,-1.100000,-0.475000,-1.100000,-0.175000,-0.750000,-0.175000,-0.750000,0.175000,-1.100000,0.175000,-1.100000,0.475000,1.100000,0.475000,1.100000,0.175000,1.100000,0.175000,$1*%
%AMFreePoly1*
4,1,14,0.289644,0.110355,0.410355,-0.010356,0.425000,-0.045711,0.425000,-0.075000,0.410355,-0.110355,0.375000,-0.125000,-0.375000,-0.125000,-0.410355,-0.110355,-0.425000,-0.075000,-0.425000,0.075000,-0.410355,0.110355,-0.375000,0.125000,0.254289,0.125000,0.289644,0.110355,0.289644,0.110355,$1*%
%AMFreePoly2*
4,1,14,0.410355,0.110355,0.425000,0.075000,0.425000,0.045711,0.410355,0.010356,0.289644,-0.110355,0.254289,-0.125000,-0.375000,-0.125000,-0.410355,-0.110355,-0.425000,-0.075000,-0.425000,0.075000,-0.410355,0.110355,-0.375000,0.125000,0.375000,0.125000,0.410355,0.110355,0.410355,0.110355,$1*%
%AMFreePoly3*
4,1,14,0.110355,0.410355,0.125000,0.375000,0.125000,-0.375000,0.110355,-0.410355,0.075000,-0.425000,-0.075000,-0.425000,-0.110355,-0.410355,-0.125000,-0.375000,-0.125000,0.254289,-0.110355,0.289644,0.010356,0.410355,0.045711,0.425000,0.075000,0.425000,0.110355,0.410355,0.110355,0.410355,$1*%
%AMFreePoly4*
4,1,14,-0.010356,0.410355,0.110355,0.289644,0.125000,0.254289,0.125000,-0.375000,0.110355,-0.410355,0.075000,-0.425000,-0.075000,-0.425000,-0.110355,-0.410355,-0.125000,-0.375000,-0.125000,0.375000,-0.110355,0.410355,-0.075000,0.425000,-0.045711,0.425000,-0.010356,0.410355,-0.010356,0.410355,$1*%
%AMFreePoly5*
4,1,14,0.410355,0.110355,0.425000,0.075000,0.425000,-0.075000,0.410355,-0.110355,0.375000,-0.125000,-0.254289,-0.125000,-0.289644,-0.110355,-0.410355,0.010356,-0.425000,0.045711,-0.425000,0.075000,-0.410355,0.110355,-0.375000,0.125000,0.375000,0.125000,0.410355,0.110355,0.410355,0.110355,$1*%
%AMFreePoly6*
4,1,14,0.410355,0.110355,0.425000,0.075000,0.425000,-0.075000,0.410355,-0.110355,0.375000,-0.125000,-0.375000,-0.125000,-0.410355,-0.110355,-0.425000,-0.075000,-0.425000,-0.045711,-0.410355,-0.010356,-0.289644,0.110355,-0.254289,0.125000,0.375000,0.125000,0.410355,0.110355,0.410355,0.110355,$1*%
%AMFreePoly7*
4,1,14,0.110355,0.410355,0.125000,0.375000,0.125000,-0.254289,0.110355,-0.289644,-0.010356,-0.410355,-0.045711,-0.425000,-0.075000,-0.425000,-0.110355,-0.410355,-0.125000,-0.375000,-0.125000,0.375000,-0.110355,0.410355,-0.075000,0.425000,0.075000,0.425000,0.110355,0.410355,0.110355,0.410355,$1*%
%AMFreePoly8*
4,1,14,0.110355,0.410355,0.125000,0.375000,0.125000,-0.375000,0.110355,-0.410355,0.075000,-0.425000,0.045711,-0.425000,0.010356,-0.410355,-0.110355,-0.289644,-0.125000,-0.254289,-0.125000,0.375000,-0.110355,0.410355,-0.075000,0.425000,0.075000,0.425000,0.110355,0.410355,0.110355,0.410355,$1*%
G04 Aperture macros list end*
%TA.AperFunction,SMDPad,CuDef*%
%ADD10RoundRect,0.135000X-0.135000X-0.185000X0.135000X-0.185000X0.135000X0.185000X-0.135000X0.185000X0*%
%TD*%
%TA.AperFunction,SMDPad,CuDef*%
%ADD11RoundRect,0.150000X0.150000X-0.587500X0.150000X0.587500X-0.150000X0.587500X-0.150000X-0.587500X0*%
%TD*%
%TA.AperFunction,SMDPad,CuDef*%
%ADD12RoundRect,0.140000X0.140000X0.170000X-0.140000X0.170000X-0.140000X-0.170000X0.140000X-0.170000X0*%
%TD*%
%TA.AperFunction,SMDPad,CuDef*%
%ADD13FreePoly0,0.000000*%
%TD*%
%TA.AperFunction,SMDPad,CuDef*%
%ADD14R,0.350000X0.300000*%
%TD*%
%TA.AperFunction,SMDPad,CuDef*%
%ADD15R,0.870000X0.235000*%
%TD*%
%TA.AperFunction,SMDPad,CuDef*%
%ADD16RoundRect,0.135000X-0.185000X0.135000X-0.185000X-0.135000X0.185000X-0.135000X0.185000X0.135000X0*%
%TD*%
%TA.AperFunction,SMDPad,CuDef*%
%ADD17RoundRect,0.100000X0.100000X-0.637500X0.100000X0.637500X-0.100000X0.637500X-0.100000X-0.637500X0*%
%TD*%
%TA.AperFunction,ComponentPad*%
%ADD18C,4.700000*%
%TD*%
%TA.AperFunction,SMDPad,CuDef*%
%ADD19RoundRect,0.093750X-0.106250X0.093750X-0.106250X-0.093750X0.106250X-0.093750X0.106250X0.093750X0*%
%TD*%
%TA.AperFunction,SMDPad,CuDef*%
%ADD20R,1.600000X1.000000*%
%TD*%
%TA.AperFunction,ComponentPad*%
%ADD21R,3.000000X3.000000*%
%TD*%
%TA.AperFunction,ComponentPad*%
%ADD22C,3.000000*%
%TD*%
%TA.AperFunction,SMDPad,CuDef*%
%ADD23RoundRect,0.225000X0.250000X-0.225000X0.250000X0.225000X-0.250000X0.225000X-0.250000X-0.225000X0*%
%TD*%
%TA.AperFunction,SMDPad,CuDef*%
%ADD24RoundRect,0.250000X0.325000X0.650000X-0.325000X0.650000X-0.325000X-0.650000X0.325000X-0.650000X0*%
%TD*%
%TA.AperFunction,SMDPad,CuDef*%
%ADD25FreePoly0,180.000000*%
%TD*%
%TA.AperFunction,SMDPad,CuDef*%
%ADD26RoundRect,0.135000X0.185000X-0.135000X0.185000X0.135000X-0.185000X0.135000X-0.185000X-0.135000X0*%
%TD*%
%TA.AperFunction,SMDPad,CuDef*%
%ADD27RoundRect,0.250000X-1.400000X-1.000000X1.400000X-1.000000X1.400000X1.000000X-1.400000X1.000000X0*%
%TD*%
%TA.AperFunction,SMDPad,CuDef*%
%ADD28RoundRect,0.140000X-0.170000X0.140000X-0.170000X-0.140000X0.170000X-0.140000X0.170000X0.140000X0*%
%TD*%
%TA.AperFunction,SMDPad,CuDef*%
%ADD29RoundRect,0.140000X-0.140000X-0.170000X0.140000X-0.170000X0.140000X0.170000X-0.140000X0.170000X0*%
%TD*%
%TA.AperFunction,SMDPad,CuDef*%
%ADD30FreePoly1,90.000000*%
%TD*%
%TA.AperFunction,SMDPad,CuDef*%
%ADD31RoundRect,0.062500X0.062500X-0.362500X0.062500X0.362500X-0.062500X0.362500X-0.062500X-0.362500X0*%
%TD*%
%TA.AperFunction,SMDPad,CuDef*%
%ADD32FreePoly2,90.000000*%
%TD*%
%TA.AperFunction,SMDPad,CuDef*%
%ADD33FreePoly3,90.000000*%
%TD*%
%TA.AperFunction,SMDPad,CuDef*%
%ADD34RoundRect,0.062500X0.362500X-0.062500X0.362500X0.062500X-0.362500X0.062500X-0.362500X-0.062500X0*%
%TD*%
%TA.AperFunction,SMDPad,CuDef*%
%ADD35FreePoly4,90.000000*%
%TD*%
%TA.AperFunction,SMDPad,CuDef*%
%ADD36FreePoly5,90.000000*%
%TD*%
%TA.AperFunction,SMDPad,CuDef*%
%ADD37FreePoly6,90.000000*%
%TD*%
%TA.AperFunction,SMDPad,CuDef*%
%ADD38FreePoly7,90.000000*%
%TD*%
%TA.AperFunction,SMDPad,CuDef*%
%ADD39FreePoly8,90.000000*%
%TD*%
%TA.AperFunction,ComponentPad*%
%ADD40C,0.600000*%
%TD*%
%TA.AperFunction,SMDPad,CuDef*%
%ADD41R,1.600000X1.600000*%
%TD*%
%TA.AperFunction,SMDPad,CuDef*%
%ADD42RoundRect,0.135000X0.135000X0.185000X-0.135000X0.185000X-0.135000X-0.185000X0.135000X-0.185000X0*%
%TD*%
%TA.AperFunction,ComponentPad*%
%ADD43C,2.780000*%
%TD*%
%TA.AperFunction,SMDPad,CuDef*%
%ADD44RoundRect,0.250000X1.500000X1.000000X-1.500000X1.000000X-1.500000X-1.000000X1.500000X-1.000000X0*%
%TD*%
%TA.AperFunction,ComponentPad*%
%ADD45RoundRect,0.250000X0.600000X0.750000X-0.600000X0.750000X-0.600000X-0.750000X0.600000X-0.750000X0*%
%TD*%
%TA.AperFunction,ComponentPad*%
%ADD46O,1.700000X2.000000*%
%TD*%
%TA.AperFunction,SMDPad,CuDef*%
%ADD47RoundRect,0.250000X-0.250000X-0.475000X0.250000X-0.475000X0.250000X0.475000X-0.250000X0.475000X0*%
%TD*%
%TA.AperFunction,SMDPad,CuDef*%
%ADD48RoundRect,0.218750X-0.256250X0.218750X-0.256250X-0.218750X0.256250X-0.218750X0.256250X0.218750X0*%
%TD*%
%TA.AperFunction,ComponentPad*%
%ADD49C,7.000000*%
%TD*%
%TA.AperFunction,SMDPad,CuDef*%
%ADD50RoundRect,0.218750X0.256250X-0.218750X0.256250X0.218750X-0.256250X0.218750X-0.256250X-0.218750X0*%
%TD*%
%TA.AperFunction,SMDPad,CuDef*%
%ADD51R,3.175000X4.950000*%
%TD*%
%TA.AperFunction,SMDPad,CuDef*%
%ADD52RoundRect,0.250000X0.900000X-1.000000X0.900000X1.000000X-0.900000X1.000000X-0.900000X-1.000000X0*%
%TD*%
%TA.AperFunction,ComponentPad*%
%ADD53R,1.700000X1.700000*%
%TD*%
%TA.AperFunction,ComponentPad*%
%ADD54O,1.700000X1.700000*%
%TD*%
%TA.AperFunction,ViaPad*%
%ADD55C,0.600000*%
%TD*%
%TA.AperFunction,Conductor*%
%ADD56C,0.250000*%
%TD*%
%TA.AperFunction,Conductor*%
%ADD57C,0.500000*%
%TD*%
G04 APERTURE END LIST*
D10*
%TO.P,R11,1*%
%TO.N,Net-(IC2-EN)*%
X59340000Y-26350000D03*
%TO.P,R11,2*%
%TO.N,GND*%
X60360000Y-26350000D03*
%TD*%
D11*
%TO.P,D4,1,A*%
%TO.N,Net-(D4-A)*%
X57300000Y-48937500D03*
%TO.P,D4,2,NC*%
%TO.N,unconnected-(D4-NC-Pad2)*%
X59200000Y-48937500D03*
%TO.P,D4,3,K*%
%TO.N,Vin*%
X58250000Y-47062500D03*
%TD*%
D12*
%TO.P,C9,1*%
%TO.N,+5V*%
X54280000Y-11600000D03*
%TO.P,C9,2*%
%TO.N,Net-(U5-BYP)*%
X53320000Y-11600000D03*
%TD*%
%TO.P,C8,1*%
%TO.N,BST*%
X56480000Y-33400000D03*
%TO.P,C8,2*%
%TO.N,SW*%
X55520000Y-33400000D03*
%TD*%
D13*
%TO.P,Q2,1,D*%
%TO.N,5V_PI*%
X54325000Y-8925000D03*
D14*
%TO.P,Q2,3,G*%
%TO.N,Net-(Q2-G)*%
X53400000Y-9900000D03*
D15*
%TO.P,Q2,4,S*%
%TO.N,+5V*%
X54365000Y-9900000D03*
D14*
X55250000Y-9900000D03*
%TD*%
D16*
%TO.P,R13,1*%
%TO.N,+5V*%
X57100000Y-20990000D03*
%TO.P,R13,2*%
%TO.N,FB*%
X57100000Y-22010000D03*
%TD*%
D17*
%TO.P,U5,1,VDD*%
%TO.N,+5V*%
X50025000Y-14862500D03*
%TO.P,U5,2,RSET*%
%TO.N,Net-(U5-RSET)*%
X50675000Y-14862500D03*
%TO.P,U5,3,GND*%
%TO.N,GND*%
X51325000Y-14862500D03*
%TO.P,U5,4,GND*%
X51975000Y-14862500D03*
%TO.P,U5,5,GATE*%
%TO.N,Net-(Q2-G)*%
X51975000Y-9137500D03*
%TO.P,U5,6,C*%
%TO.N,5V_PI*%
X51325000Y-9137500D03*
%TO.P,U5,7,A*%
%TO.N,+5V*%
X50675000Y-9137500D03*
%TO.P,U5,8,BYP*%
%TO.N,Net-(U5-BYP)*%
X50025000Y-9137500D03*
%TD*%
D18*
%TO.P,H2,1*%
%TO.N,N/C*%
X3500000Y-3500000D03*
%TD*%
D19*
%TO.P,U3,1,GND*%
%TO.N,GND*%
X46500000Y-14750000D03*
%TO.P,U3,2,GND*%
X45850000Y-14750000D03*
%TO.P,U3,3,GND*%
X45200000Y-14750000D03*
%TO.P,U3,4,IN*%
%TO.N,+5V*%
X45200000Y-16525000D03*
%TO.P,U3,5,IN*%
X45850000Y-16525000D03*
%TO.P,U3,6,IN*%
X46500000Y-16525000D03*
D20*
%TO.P,U3,7,GND*%
%TO.N,GND*%
X45850000Y-15637500D03*
%TD*%
D21*
%TO.P,J1,1,Pin_1*%
%TO.N,Net-(J1-Pin_1)*%
X11960000Y-51250000D03*
D22*
%TO.P,J1,2,Pin_2*%
%TO.N,GND*%
X17040000Y-51250000D03*
%TD*%
D23*
%TO.P,C3,1*%
%TO.N,VCC*%
X54350000Y-29925000D03*
%TO.P,C3,2*%
%TO.N,GND*%
X54350000Y-28375000D03*
%TD*%
D10*
%TO.P,R14,1*%
%TO.N,FB*%
X57090000Y-27100000D03*
%TO.P,R14,2*%
%TO.N,GND*%
X58110000Y-27100000D03*
%TD*%
D24*
%TO.P,C5,1*%
%TO.N,+5V*%
X45225000Y-20250000D03*
%TO.P,C5,2*%
%TO.N,GND*%
X42275000Y-20250000D03*
%TD*%
D25*
%TO.P,Q1,1,D*%
%TO.N,Net-(D1-A2)*%
X54925000Y-49475000D03*
D14*
%TO.P,Q1,3,G*%
%TO.N,Net-(D4-A)*%
X55850000Y-48500000D03*
D15*
%TO.P,Q1,4,S*%
%TO.N,Vin*%
X54885000Y-48500000D03*
D14*
X54000000Y-48500000D03*
%TD*%
D26*
%TO.P,R3,1*%
%TO.N,GND*%
X57250000Y-52510000D03*
%TO.P,R3,2*%
%TO.N,Net-(D4-A)*%
X57250000Y-51490000D03*
%TD*%
D27*
%TO.P,D1,1,A1*%
%TO.N,GND*%
X49750000Y-46850000D03*
%TO.P,D1,2,A2*%
%TO.N,Net-(D1-A2)*%
X49750000Y-53650000D03*
%TD*%
D10*
%TO.P,R1,1*%
%TO.N,Net-(R1-Pad1)*%
X61390000Y-27650000D03*
%TO.P,R1,2*%
%TO.N,Vin*%
X62410000Y-27650000D03*
%TD*%
D28*
%TO.P,C11,1*%
%TO.N,5V_PI*%
X56250000Y-8020000D03*
%TO.P,C11,2*%
%TO.N,GND*%
X56250000Y-8980000D03*
%TD*%
D29*
%TO.P,C6,1*%
%TO.N,Vin*%
X58600000Y-33400000D03*
%TO.P,C6,2*%
%TO.N,GND*%
X59560000Y-33400000D03*
%TD*%
D26*
%TO.P,R5,1*%
%TO.N,Net-(IC2-MODE)*%
X55850000Y-26910000D03*
%TO.P,R5,2*%
%TO.N,GND*%
X55850000Y-25890000D03*
%TD*%
D30*
%TO.P,IC2,1,BST*%
%TO.N,BST*%
X56600000Y-31950000D03*
D31*
%TO.P,IC2,2,VIN_1*%
%TO.N,Vin*%
X57050000Y-31950000D03*
%TO.P,IC2,3,VIN_2*%
X57500000Y-31950000D03*
%TO.P,IC2,4,VIN_3*%
X57950000Y-31950000D03*
D32*
%TO.P,IC2,5,VIN_4*%
X58400000Y-31950000D03*
D33*
%TO.P,IC2,6,SW_1*%
%TO.N,SW*%
X58950000Y-31400000D03*
D34*
%TO.P,IC2,7,PGND_1*%
%TO.N,GND*%
X58950000Y-30950000D03*
%TO.P,IC2,8,PGND_2*%
X58950000Y-30500000D03*
%TO.P,IC2,9,PGOOD*%
%TO.N,Net-(IC2-PGOOD)*%
X58950000Y-30050000D03*
D35*
%TO.P,IC2,10,NC_1*%
%TO.N,GND*%
X58950000Y-29600000D03*
D36*
%TO.P,IC2,11,SS*%
%TO.N,unconnected-(IC2-SS-Pad11)*%
X58400000Y-29050000D03*
D31*
%TO.P,IC2,12,EN*%
%TO.N,Net-(IC2-EN)*%
X57950000Y-29050000D03*
%TO.P,IC2,13,AGND*%
%TO.N,GND*%
X57500000Y-29050000D03*
%TO.P,IC2,14,FB*%
%TO.N,FB*%
X57050000Y-29050000D03*
D37*
%TO.P,IC2,15,MODE*%
%TO.N,Net-(IC2-MODE)*%
X56600000Y-29050000D03*
D38*
%TO.P,IC2,16,NC_2*%
%TO.N,GND*%
X56050000Y-29600000D03*
D34*
%TO.P,IC2,17,VCC*%
%TO.N,VCC*%
X56050000Y-30050000D03*
%TO.P,IC2,18,PGND_3*%
%TO.N,GND*%
X56050000Y-30500000D03*
%TO.P,IC2,19,SW_2*%
%TO.N,SW*%
X56050000Y-30950000D03*
D39*
%TO.P,IC2,20,SW_3*%
X56050000Y-31400000D03*
D40*
%TO.P,IC2,21,PGND_4*%
%TO.N,GND*%
X57000000Y-31000000D03*
X58000000Y-31000000D03*
D41*
X57500000Y-30500000D03*
D40*
X57000000Y-30000000D03*
X58000000Y-30000000D03*
%TD*%
D42*
%TO.P,R12,1*%
%TO.N,VCC*%
X61360000Y-29900000D03*
%TO.P,R12,2*%
%TO.N,Net-(IC2-PGOOD)*%
X60340000Y-29900000D03*
%TD*%
D24*
%TO.P,C4,1*%
%TO.N,+5V*%
X45225000Y-22750000D03*
%TO.P,C4,2*%
%TO.N,GND*%
X42275000Y-22750000D03*
%TD*%
D42*
%TO.P,R6,1*%
%TO.N,Net-(D3-A)*%
X64260000Y-19250000D03*
%TO.P,R6,2*%
%TO.N,+5V*%
X63240000Y-19250000D03*
%TD*%
D43*
%TO.P,F1,1*%
%TO.N,Net-(J1-Pin_1)*%
X26740000Y-49550000D03*
X26740000Y-52950000D03*
%TO.P,F1,2*%
%TO.N,Net-(D1-A2)*%
X40240000Y-49550000D03*
X40240000Y-52950000D03*
%TD*%
D44*
%TO.P,C18,1*%
%TO.N,Vin*%
X54950000Y-40500000D03*
%TO.P,C18,2*%
%TO.N,GND*%
X48450000Y-40500000D03*
%TD*%
D45*
%TO.P,J3,1,Pin_1*%
%TO.N,Net-(J3-Pin_1)*%
X46000000Y-11100000D03*
D46*
%TO.P,J3,2,Pin_2*%
%TO.N,GND*%
X43500000Y-11100000D03*
%TD*%
D47*
%TO.P,C1,1*%
%TO.N,Vin*%
X58350000Y-35100000D03*
%TO.P,C1,2*%
%TO.N,GND*%
X60250000Y-35100000D03*
%TD*%
D10*
%TO.P,R2,1*%
%TO.N,Net-(U5-RSET)*%
X50590000Y-16400000D03*
%TO.P,R2,2*%
%TO.N,GND*%
X51610000Y-16400000D03*
%TD*%
D18*
%TO.P,H3,1*%
%TO.N,N/C*%
X61500000Y-3500000D03*
%TD*%
D12*
%TO.P,C7,1*%
%TO.N,+5V*%
X43230000Y-24500000D03*
%TO.P,C7,2*%
%TO.N,GND*%
X42270000Y-24500000D03*
%TD*%
D16*
%TO.P,R4,1*%
%TO.N,VCC*%
X54350000Y-25890000D03*
%TO.P,R4,2*%
%TO.N,Net-(IC2-MODE)*%
X54350000Y-26910000D03*
%TD*%
D47*
%TO.P,C2,1*%
%TO.N,Vin*%
X58350000Y-37350000D03*
%TO.P,C2,2*%
%TO.N,GND*%
X60250000Y-37350000D03*
%TD*%
D48*
%TO.P,D5,1,K*%
%TO.N,GND*%
X64000000Y-23872500D03*
%TO.P,D5,2,A*%
%TO.N,Net-(D5-A)*%
X64000000Y-25447500D03*
%TD*%
D49*
%TO.P,U2,1*%
%TO.N,N/C*%
X4250000Y-10950000D03*
%TO.P,U2,2*%
X36250000Y-10950000D03*
%TO.P,U2,3*%
X4250000Y-42950000D03*
%TO.P,U2,4*%
X36250000Y-42950000D03*
%TD*%
D12*
%TO.P,C10,1*%
%TO.N,+5V*%
X48580000Y-14600000D03*
%TO.P,C10,2*%
%TO.N,GND*%
X47620000Y-14600000D03*
%TD*%
D50*
%TO.P,D3,1,K*%
%TO.N,GND*%
X64000000Y-22247500D03*
%TO.P,D3,2,A*%
%TO.N,Net-(D3-A)*%
X64000000Y-20672500D03*
%TD*%
D51*
%TO.P,L1,1,1*%
%TO.N,SW*%
X51507500Y-30500000D03*
%TO.P,L1,2,2*%
%TO.N,+5V*%
X42492500Y-30500000D03*
%TD*%
D16*
%TO.P,R8,1*%
%TO.N,Net-(D5-A)*%
X64250000Y-26750000D03*
%TO.P,R8,2*%
%TO.N,Vin*%
X64250000Y-27770000D03*
%TD*%
D21*
%TO.P,J4,1,Pin_1*%
%TO.N,+5V*%
X60900000Y-14500000D03*
D22*
%TO.P,J4,2,Pin_2*%
%TO.N,GND*%
X60900000Y-9420000D03*
%TD*%
D18*
%TO.P,H1,1*%
%TO.N,N/C*%
X61500000Y-52500000D03*
%TD*%
D52*
%TO.P,D2,1,A1*%
%TO.N,GND*%
X51250000Y-23400000D03*
%TO.P,D2,2,A2*%
%TO.N,+5V*%
X51250000Y-19100000D03*
%TD*%
D18*
%TO.P,H4,1*%
%TO.N,N/C*%
X3500000Y-52500000D03*
%TD*%
D29*
%TO.P,C17,1*%
%TO.N,Net-(D4-A)*%
X57270000Y-50500000D03*
%TO.P,C17,2*%
%TO.N,GND*%
X58230000Y-50500000D03*
%TD*%
D42*
%TO.P,R7,1*%
%TO.N,Net-(R1-Pad1)*%
X60360000Y-27650000D03*
%TO.P,R7,2*%
%TO.N,Net-(IC2-EN)*%
X59340000Y-27650000D03*
%TD*%
D53*
%TO.P,J6,1,3V3*%
%TO.N,unconnected-(J6-3V3-Pad1)*%
X8370000Y-4770000D03*
D54*
%TO.P,J6,2,5V*%
%TO.N,5V_PI*%
X8370000Y-2230000D03*
%TO.P,J6,3,SDA/GPIO2*%
%TO.N,unconnected-(J6-SDA{slash}GPIO2-Pad3)*%
X10910000Y-4770000D03*
%TO.P,J6,4,5V*%
%TO.N,5V_PI*%
X10910000Y-2230000D03*
%TO.P,J6,5,SCL/GPIO3*%
%TO.N,unconnected-(J6-SCL{slash}GPIO3-Pad5)*%
X13450000Y-4770000D03*
%TO.P,J6,6,GND*%
%TO.N,GND*%
X13450000Y-2230000D03*
%TO.P,J6,7,GCLK0/GPIO4*%
%TO.N,unconnected-(J6-GCLK0{slash}GPIO4-Pad7)*%
X15990000Y-4770000D03*
%TO.P,J6,8,GPIO14/TXD*%
%TO.N,unconnected-(J6-GPIO14{slash}TXD-Pad8)*%
X15990000Y-2230000D03*
%TO.P,J6,9,GND*%
%TO.N,GND*%
X18530000Y-4770000D03*
%TO.P,J6,10,GPIO15/RXD*%
%TO.N,unconnected-(J6-GPIO15{slash}RXD-Pad10)*%
X18530000Y-2230000D03*
%TO.P,J6,11,GPIO17*%
%TO.N,unconnected-(J6-GPIO17-Pad11)*%
X21070000Y-4770000D03*
%TO.P,J6,12,GPIO18/PWM0*%
%TO.N,unconnected-(J6-GPIO18{slash}PWM0-Pad12)*%
X21070000Y-2230000D03*
%TO.P,J6,13,GPIO27*%
%TO.N,unconnected-(J6-GPIO27-Pad13)*%
X23610000Y-4770000D03*
%TO.P,J6,14,GND*%
%TO.N,GND*%
X23610000Y-2230000D03*
%TO.P,J6,15,GPIO22*%
%TO.N,unconnected-(J6-GPIO22-Pad15)*%
X26150000Y-4770000D03*
%TO.P,J6,16,GPIO23*%
%TO.N,unconnected-(J6-GPIO23-Pad16)*%
X26150000Y-2230000D03*
%TO.P,J6,17,3V3*%
%TO.N,unconnected-(J6-3V3-Pad17)*%
X28690000Y-4770000D03*
%TO.P,J6,18,GPIO24*%
%TO.N,unconnected-(J6-GPIO24-Pad18)*%
X28690000Y-2230000D03*
%TO.P,J6,19,MOSI0/GPIO10*%
%TO.N,unconnected-(J6-MOSI0{slash}GPIO10-Pad19)*%
X31230000Y-4770000D03*
%TO.P,J6,20,GND*%
%TO.N,GND*%
X31230000Y-2230000D03*
%TO.P,J6,21,MISO0/GPIO9*%
%TO.N,unconnected-(J6-MISO0{slash}GPIO9-Pad21)*%
X33770000Y-4770000D03*
%TO.P,J6,22,GPIO25*%
%TO.N,unconnected-(J6-GPIO25-Pad22)*%
X33770000Y-2230000D03*
%TO.P,J6,23,SCLK0/GPIO11*%
%TO.N,unconnected-(J6-SCLK0{slash}GPIO11-Pad23)*%
X36310000Y-4770000D03*
%TO.P,J6,24,~{CE0}/GPIO8*%
%TO.N,unconnected-(J6-~{CE0}{slash}GPIO8-Pad24)*%
X36310000Y-2230000D03*
%TO.P,J6,25,GND*%
%TO.N,GND*%
X38850000Y-4770000D03*
%TO.P,J6,26,~{CE1}/GPIO7*%
%TO.N,unconnected-(J6-~{CE1}{slash}GPIO7-Pad26)*%
X38850000Y-2230000D03*
%TO.P,J6,27,ID_SD/GPIO0*%
%TO.N,unconnected-(J6-ID_SD{slash}GPIO0-Pad27)*%
X41390000Y-4770000D03*
%TO.P,J6,28,ID_SC/GPIO1*%
%TO.N,unconnected-(J6-ID_SC{slash}GPIO1-Pad28)*%
X41390000Y-2230000D03*
%TO.P,J6,29,GCLK1/GPIO5*%
%TO.N,unconnected-(J6-GCLK1{slash}GPIO5-Pad29)*%
X43930000Y-4770000D03*
%TO.P,J6,30,GND*%
%TO.N,GND*%
X43930000Y-2230000D03*
%TO.P,J6,31,GCLK2/GPIO6*%
%TO.N,unconnected-(J6-GCLK2{slash}GPIO6-Pad31)*%
X46470000Y-4770000D03*
%TO.P,J6,32,PWM0/GPIO12*%
%TO.N,unconnected-(J6-PWM0{slash}GPIO12-Pad32)*%
X46470000Y-2230000D03*
%TO.P,J6,33,PWM1/GPIO13*%
%TO.N,unconnected-(J6-PWM1{slash}GPIO13-Pad33)*%
X49010000Y-4770000D03*
%TO.P,J6,34,GND*%
%TO.N,GND*%
X49010000Y-2230000D03*
%TO.P,J6,35,GPIO19/MISO1*%
%TO.N,unconnected-(J6-GPIO19{slash}MISO1-Pad35)*%
X51550000Y-4770000D03*
%TO.P,J6,36,GPIO16*%
%TO.N,unconnected-(J6-GPIO16-Pad36)*%
X51550000Y-2230000D03*
%TO.P,J6,37,GPIO26*%
%TO.N,unconnected-(J6-GPIO26-Pad37)*%
X54090000Y-4770000D03*
%TO.P,J6,38,GPIO20/MOSI1*%
%TO.N,unconnected-(J6-GPIO20{slash}MOSI1-Pad38)*%
X54090000Y-2230000D03*
%TO.P,J6,39,GND*%
%TO.N,GND*%
X56630000Y-4770000D03*
%TO.P,J6,40,GPIO21/SCLK1*%
%TO.N,unconnected-(J6-GPIO21{slash}SCLK1-Pad40)*%
X56630000Y-2230000D03*
%TD*%
D55*
%TO.N,VCC*%
X54350000Y-30750000D03*
X61350000Y-24850000D03*
X61350000Y-28900000D03*
X54350000Y-25150000D03*
%TO.N,GND*%
X53000000Y-23000000D03*
X62350000Y-32600000D03*
X41000000Y-16750000D03*
X41000000Y-20500000D03*
X61100000Y-31850000D03*
X52750000Y-14600000D03*
X41000000Y-19750000D03*
X48500000Y-43750000D03*
X62350000Y-35600000D03*
X61350000Y-33100000D03*
X49750000Y-42500000D03*
X60600000Y-31350000D03*
X49500000Y-22250000D03*
X42500000Y-18250000D03*
X59100000Y-29150000D03*
X61350000Y-37600000D03*
X49500000Y-24500000D03*
X41000000Y-13750000D03*
X51000000Y-42500000D03*
X53000000Y-22250000D03*
X52000000Y-25250000D03*
X41000000Y-18250000D03*
X63000000Y-23850000D03*
X47000000Y-46250000D03*
X60600000Y-32350000D03*
X48500000Y-44750000D03*
X49750000Y-43750000D03*
X42500000Y-13750000D03*
X41000000Y-10500000D03*
X55600000Y-28100000D03*
X60600000Y-33100000D03*
X41000000Y-19000000D03*
X46250000Y-14000000D03*
X60100000Y-31850000D03*
X47000000Y-44750000D03*
X47000000Y-43750000D03*
X44250000Y-16000000D03*
X63000000Y-22250000D03*
X53000000Y-25250000D03*
X61600000Y-31350000D03*
X51000000Y-38250000D03*
X41000000Y-15250000D03*
X45500000Y-14000000D03*
X52750000Y-15400000D03*
X49500000Y-23750000D03*
X53000000Y-24500000D03*
X62350000Y-36600000D03*
X61350000Y-33850000D03*
X41000000Y-23500000D03*
X47000000Y-14000000D03*
X53000000Y-23750000D03*
X52750000Y-16250000D03*
X44800000Y-14000000D03*
X42500000Y-16750000D03*
X42500000Y-15250000D03*
X49750000Y-38250000D03*
X44250000Y-14500000D03*
X61600000Y-32350000D03*
X51000000Y-41000000D03*
X60100000Y-30850000D03*
X49500000Y-23000000D03*
X60600000Y-33850000D03*
X41000000Y-24250000D03*
X61100000Y-30850000D03*
X41000000Y-12000000D03*
X48500000Y-38250000D03*
X47000000Y-38250000D03*
X51000000Y-44750000D03*
X62350000Y-26350000D03*
X62350000Y-37600000D03*
X55600000Y-28850000D03*
X61350000Y-36600000D03*
X48500000Y-42500000D03*
X49500000Y-25250000D03*
X41000000Y-22750000D03*
X51000000Y-39500000D03*
X51000000Y-43750000D03*
X49750000Y-44750000D03*
X62350000Y-31600000D03*
X47000000Y-42500000D03*
X57250000Y-53500000D03*
X41000000Y-22000000D03*
X47000000Y-47750000D03*
X62350000Y-33600000D03*
X44250000Y-15250000D03*
X58250000Y-51500000D03*
X61350000Y-34600000D03*
X51250000Y-25250000D03*
X62350000Y-34600000D03*
X50500000Y-25250000D03*
X57000000Y-8980000D03*
X41000000Y-21250000D03*
X61350000Y-35600000D03*
%TO.N,+5V*%
X54500000Y-15000000D03*
X46500000Y-18000000D03*
X57500000Y-15000000D03*
%TO.N,Vin*%
X64250000Y-28750000D03*
X64250000Y-31000000D03*
X64250000Y-30250000D03*
X55500000Y-43500000D03*
X64250000Y-31750000D03*
X64250000Y-29500000D03*
X55500000Y-46000000D03*
%TO.N,5V_PI*%
X43250000Y-8250000D03*
X46250000Y-8250000D03*
%TO.N,Net-(J1-Pin_1)*%
X17500000Y-48250000D03*
X20000000Y-48250000D03*
%TO.N,SW*%
X59100000Y-32150000D03*
X55850000Y-32150000D03*
%TO.N,Net-(D1-A2)*%
X48250000Y-50750000D03*
X51250000Y-50750000D03*
%TO.N,FB*%
X57090000Y-26450000D03*
X57100000Y-23500000D03*
%TD*%
D56*
%TO.N,VCC*%
X61350000Y-24850000D02*
X54862132Y-24850000D01*
X56050000Y-30050000D02*
X54475000Y-30050000D01*
X61355000Y-28905000D02*
X61350000Y-28900000D01*
D57*
X54350000Y-30750000D02*
X54350000Y-29925000D01*
D56*
X54350000Y-25150000D02*
X54350000Y-25890000D01*
X54350000Y-25150000D02*
X54500000Y-25000000D01*
X61360000Y-28917071D02*
X61360000Y-29900000D01*
X54862132Y-24850014D02*
G75*
G03*
X54500001Y-25000001I-32J-512086D01*
G01*
X61360011Y-28917071D02*
G75*
G03*
X61354999Y-28905001I-17111J-29D01*
G01*
%TO.N,GND*%
X58950000Y-29406066D02*
X58950000Y-29600000D01*
D57*
X63001250Y-22248750D02*
X63000000Y-22250000D01*
X63004267Y-22247500D02*
X64000000Y-22247500D01*
X63000000Y-23850000D02*
X63011250Y-23861250D01*
X57250000Y-53500000D02*
X57250000Y-52510000D01*
D56*
X59025000Y-29225000D02*
X59100000Y-29150000D01*
D57*
X63038409Y-23872500D02*
X64000000Y-23872500D01*
X58230000Y-51465857D02*
X58230000Y-50500000D01*
D56*
X57500000Y-28141335D02*
X57500000Y-29050000D01*
X59925000Y-30675000D02*
X60100000Y-30850000D01*
X59502512Y-30500000D02*
X58950000Y-30500000D01*
D57*
X62350000Y-26350000D02*
X60360000Y-26350000D01*
X58250000Y-51500000D02*
X58240000Y-51490000D01*
X57000000Y-8980000D02*
X56250000Y-8980000D01*
D56*
X58950000Y-30500000D02*
X57500000Y-30500000D01*
X57805000Y-27405000D02*
X58110000Y-27100000D01*
X57500000Y-30500000D02*
X56050000Y-30500000D01*
X59125000Y-30950000D02*
X57675000Y-30950000D01*
D57*
X58230018Y-51465857D02*
G75*
G03*
X58240000Y-51490000I34082J-43D01*
G01*
D56*
X59924996Y-30675004D02*
G75*
G03*
X59502512Y-30500000I-422496J-422496D01*
G01*
X57804990Y-27404990D02*
G75*
G03*
X57500000Y-28141335I736310J-736310D01*
G01*
X59025010Y-29225010D02*
G75*
G03*
X58950000Y-29406066I181090J-181090D01*
G01*
D57*
X63011247Y-23861253D02*
G75*
G03*
X63038409Y-23872500I27153J27153D01*
G01*
X63004267Y-22247487D02*
G75*
G03*
X63001250Y-22248750I33J-4313D01*
G01*
D56*
%TO.N,+5V*%
X50675000Y-9506249D02*
X50675000Y-9137500D01*
X50935745Y-10135744D02*
X50987500Y-10187499D01*
X51741943Y-10500000D02*
X53765000Y-10500000D01*
X50675024Y-9506249D02*
G75*
G03*
X50935745Y-10135744I890176J-51D01*
G01*
X50987487Y-10187512D02*
G75*
G03*
X51741943Y-10500000I754413J754412D01*
G01*
D57*
%TO.N,Net-(D3-A)*%
X64260000Y-20228652D02*
X64260000Y-19250000D01*
X64130000Y-20542500D02*
X64000000Y-20672500D01*
X64130035Y-20542535D02*
G75*
G03*
X64260000Y-20228652I-313935J313835D01*
G01*
%TO.N,Net-(D5-A)*%
X64250000Y-25874276D02*
X64250000Y-26750000D01*
X64125000Y-25572500D02*
X64000000Y-25447500D01*
X64250009Y-25874276D02*
G75*
G03*
X64125000Y-25572500I-426809J-24D01*
G01*
D56*
%TO.N,BST*%
X56600000Y-31950000D02*
X56600000Y-33380000D01*
%TO.N,5V_PI*%
X52007844Y-8000000D02*
X53400000Y-8000000D01*
X51325000Y-8682844D02*
X51325000Y-9137500D01*
X51524987Y-8199987D02*
G75*
G03*
X51325000Y-8682844I482813J-482813D01*
G01*
X52007844Y-8000018D02*
G75*
G03*
X51525000Y-8200000I-44J-682782D01*
G01*
%TO.N,SW*%
X59100000Y-32150000D02*
X59100000Y-31656066D01*
X59025000Y-31475000D02*
X58950000Y-31400000D01*
X59100014Y-31656066D02*
G75*
G03*
X59025000Y-31475000I-256114J-34D01*
G01*
%TO.N,Net-(U5-BYP)*%
X50025000Y-10191636D02*
X50025000Y-9137500D01*
X51433363Y-11600000D02*
X53320000Y-11600000D01*
X50437511Y-11187489D02*
G75*
G03*
X51433363Y-11600000I995889J995889D01*
G01*
X50024985Y-10191636D02*
G75*
G03*
X50437500Y-11187500I1408415J36D01*
G01*
D57*
%TO.N,Net-(D4-A)*%
X57250000Y-51490000D02*
X57250000Y-50520000D01*
X57270000Y-50500000D02*
X57270000Y-48967500D01*
D56*
X55850000Y-48500000D02*
X57300000Y-48500000D01*
%TO.N,Net-(IC2-PGOOD)*%
X60083933Y-30050000D02*
X58950000Y-30050000D01*
X60265000Y-29975000D02*
X60340000Y-29900000D01*
X60083933Y-30050014D02*
G75*
G03*
X60265000Y-29975000I-33J256114D01*
G01*
%TO.N,Net-(IC2-EN)*%
X59350000Y-26360000D02*
X59350000Y-27640000D01*
X58635705Y-27833964D02*
X58058756Y-28410913D01*
X59079835Y-27650000D02*
X59340000Y-27650000D01*
X57950000Y-28673473D02*
X57950000Y-29050000D01*
X58058773Y-28410930D02*
G75*
G03*
X57950000Y-28673473I262527J-262570D01*
G01*
X59079835Y-27650026D02*
G75*
G03*
X58635705Y-27833964I-35J-628074D01*
G01*
%TO.N,FB*%
X57100000Y-23500000D02*
X57100000Y-22010000D01*
X57050000Y-29050000D02*
X57050000Y-26940000D01*
X57090000Y-26450000D02*
X57090000Y-27100000D01*
%TO.N,Net-(IC2-MODE)*%
X55850000Y-26910000D02*
X54350000Y-26910000D01*
X56600000Y-28190330D02*
X56600000Y-29050000D01*
X56225000Y-27285000D02*
X55850000Y-26910000D01*
X56599987Y-28190330D02*
G75*
G03*
X56225000Y-27285000I-1280287J30D01*
G01*
%TO.N,Net-(Q2-G)*%
X53275000Y-9900000D02*
X53400000Y-9900000D01*
X53061611Y-9811611D02*
X52533340Y-9283340D01*
X52181250Y-9137500D02*
X51975000Y-9137500D01*
X52533358Y-9283322D02*
G75*
G03*
X52181250Y-9137500I-352058J-352078D01*
G01*
X53061606Y-9811616D02*
G75*
G03*
X53275000Y-9900000I213394J213416D01*
G01*
%TO.N,Net-(R1-Pad1)*%
X61390000Y-27650000D02*
X60360000Y-27650000D01*
%TO.N,Net-(U5-RSET)*%
X50632500Y-16357500D02*
X50590000Y-16400000D01*
X50675000Y-16254895D02*
X50675000Y-14862500D01*
X50632501Y-16357501D02*
G75*
G03*
X50675000Y-16254895I-102601J102601D01*
G01*
%TD*%
%TA.AperFunction,Conductor*%
%TO.N,Net-(J1-Pin_1)*%
G36*
X30459191Y-47268907D02*
G01*
X30495155Y-47318407D01*
X30500000Y-47349000D01*
X30500000Y-55700500D01*
X30481093Y-55758691D01*
X30431593Y-55794655D01*
X30401000Y-55799500D01*
X8299000Y-55799500D01*
X8240809Y-55780593D01*
X8204845Y-55731093D01*
X8200000Y-55700500D01*
X8200000Y-52769700D01*
X10260000Y-52769700D01*
X10271603Y-52828036D01*
X10315806Y-52894189D01*
X10315810Y-52894193D01*
X10381963Y-52938396D01*
X10440299Y-52949999D01*
X10440303Y-52950000D01*
X11459999Y-52950000D01*
X11460000Y-52949999D01*
X11460000Y-51822559D01*
X11539530Y-51889294D01*
X11698295Y-51969028D01*
X11871169Y-52010000D01*
X12004267Y-52010000D01*
X12136461Y-51994549D01*
X12303409Y-51933784D01*
X12451844Y-51836157D01*
X12460000Y-51827512D01*
X12460000Y-52949999D01*
X12460001Y-52950000D01*
X13479697Y-52950000D01*
X13479700Y-52949999D01*
X13538036Y-52938396D01*
X13604189Y-52894193D01*
X13604193Y-52894189D01*
X13648396Y-52828036D01*
X13659999Y-52769700D01*
X13660000Y-52769697D01*
X13660000Y-51750001D01*
X13659999Y-51750000D01*
X12533129Y-51750000D01*
X12573764Y-51706930D01*
X12662595Y-51553070D01*
X12713549Y-51382871D01*
X12721288Y-51250002D01*
X15234451Y-51250002D01*
X15254616Y-51519098D01*
X15254618Y-51519107D01*
X15314666Y-51782197D01*
X15404074Y-52010000D01*
X15413257Y-52033398D01*
X15548185Y-52267102D01*
X15548189Y-52267108D01*
X15548191Y-52267110D01*
X15716434Y-52478081D01*
X15716440Y-52478087D01*
X15914252Y-52661629D01*
X15914254Y-52661630D01*
X15914259Y-52661635D01*
X16137226Y-52813651D01*
X16380359Y-52930738D01*
X16638228Y-53010280D01*
X16905071Y-53050500D01*
X16905076Y-53050500D01*
X17174924Y-53050500D01*
X17174929Y-53050500D01*
X17441772Y-53010280D01*
X17637195Y-52950000D01*
X25145083Y-52950000D01*
X25164718Y-53199498D01*
X25223144Y-53442857D01*
X25315958Y-53666932D01*
X25865662Y-53117227D01*
X25888898Y-53226540D01*
X25964992Y-53397451D01*
X26074958Y-53548806D01*
X26213990Y-53673991D01*
X26376011Y-53767534D01*
X26553939Y-53825346D01*
X26570065Y-53827040D01*
X26023066Y-54374040D01*
X26247142Y-54466855D01*
X26247141Y-54466855D01*
X26490501Y-54525281D01*
X26740000Y-54544916D01*
X26989498Y-54525281D01*
X27232857Y-54466855D01*
X27456932Y-54374040D01*
X26909933Y-53827041D01*
X26926061Y-53825346D01*
X27103989Y-53767534D01*
X27266010Y-53673991D01*
X27405042Y-53548806D01*
X27515008Y-53397451D01*
X27591102Y-53226540D01*
X27614337Y-53117229D01*
X28164040Y-53666932D01*
X28256855Y-53442857D01*
X28315281Y-53199498D01*
X28334916Y-52950000D01*
X28315281Y-52700501D01*
X28256855Y-52457142D01*
X28164040Y-52233066D01*
X27614336Y-52782769D01*
X27591102Y-52673460D01*
X27515008Y-52502549D01*
X27405042Y-52351194D01*
X27266010Y-52226009D01*
X27103989Y-52132466D01*
X26926061Y-52074654D01*
X26909931Y-52072958D01*
X27456932Y-51525958D01*
X27232857Y-51433144D01*
X27232858Y-51433144D01*
X26989498Y-51374718D01*
X26740000Y-51355083D01*
X26490501Y-51374718D01*
X26247141Y-51433144D01*
X26247137Y-51433145D01*
X26023066Y-51525958D01*
X26570066Y-52072958D01*
X26553939Y-52074654D01*
X26376011Y-52132466D01*
X26213990Y-52226009D01*
X26074958Y-52351194D01*
X25964992Y-52502549D01*
X25888898Y-52673460D01*
X25865662Y-52782770D01*
X25315958Y-52233066D01*
X25223145Y-52457137D01*
X25223144Y-52457141D01*
X25164718Y-52700501D01*
X25145083Y-52950000D01*
X17637195Y-52950000D01*
X17699641Y-52930738D01*
X17942775Y-52813651D01*
X18165741Y-52661635D01*
X18363561Y-52478085D01*
X18363565Y-52478081D01*
X18464754Y-52351194D01*
X18531815Y-52267102D01*
X18666743Y-52033398D01*
X18765334Y-51782195D01*
X18825383Y-51519103D01*
X18845549Y-51250000D01*
X18825383Y-50980897D01*
X18765334Y-50717805D01*
X18666743Y-50466602D01*
X18531815Y-50232898D01*
X18464754Y-50148806D01*
X18363565Y-50021918D01*
X18363559Y-50021912D01*
X18165747Y-49838370D01*
X18165744Y-49838368D01*
X18165741Y-49838365D01*
X17942775Y-49686349D01*
X17942767Y-49686345D01*
X17699643Y-49569262D01*
X17637197Y-49550000D01*
X25145083Y-49550000D01*
X25164718Y-49799498D01*
X25223144Y-50042857D01*
X25315958Y-50266932D01*
X25865662Y-49717227D01*
X25888898Y-49826540D01*
X25964992Y-49997451D01*
X26074958Y-50148806D01*
X26213990Y-50273991D01*
X26376011Y-50367534D01*
X26553939Y-50425346D01*
X26570065Y-50427040D01*
X26023066Y-50974040D01*
X26247142Y-51066855D01*
X26247141Y-51066855D01*
X26490501Y-51125281D01*
X26740000Y-51144916D01*
X26989498Y-51125281D01*
X27232857Y-51066855D01*
X27456932Y-50974040D01*
X26909933Y-50427041D01*
X26926061Y-50425346D01*
X27103989Y-50367534D01*
X27266010Y-50273991D01*
X27405042Y-50148806D01*
X27515008Y-49997451D01*
X27591102Y-49826540D01*
X27614337Y-49717229D01*
X28164040Y-50266932D01*
X28256855Y-50042857D01*
X28315281Y-49799498D01*
X28334916Y-49550000D01*
X28315281Y-49300501D01*
X28256855Y-49057142D01*
X28164040Y-48833066D01*
X27614336Y-49382769D01*
X27591102Y-49273460D01*
X27515008Y-49102549D01*
X27405042Y-48951194D01*
X27266010Y-48826009D01*
X27103989Y-48732466D01*
X26926061Y-48674654D01*
X26909931Y-48672958D01*
X27456932Y-48125958D01*
X27232857Y-48033144D01*
X27232858Y-48033144D01*
X26989498Y-47974718D01*
X26740000Y-47955083D01*
X26490501Y-47974718D01*
X26247141Y-48033144D01*
X26247137Y-48033145D01*
X26023066Y-48125958D01*
X26570066Y-48672958D01*
X26553939Y-48674654D01*
X26376011Y-48732466D01*
X26213990Y-48826009D01*
X26074958Y-48951194D01*
X25964992Y-49102549D01*
X25888898Y-49273460D01*
X25865662Y-49382770D01*
X25315958Y-48833066D01*
X25223145Y-49057137D01*
X25223144Y-49057141D01*
X25164718Y-49300501D01*
X25145083Y-49550000D01*
X17637197Y-49550000D01*
X17441776Y-49489721D01*
X17441773Y-49489720D01*
X17441772Y-49489720D01*
X17441767Y-49489719D01*
X17441766Y-49489719D01*
X17174932Y-49449500D01*
X17174929Y-49449500D01*
X16905071Y-49449500D01*
X16905067Y-49449500D01*
X16638233Y-49489719D01*
X16638223Y-49489721D01*
X16380358Y-49569262D01*
X16137233Y-49686345D01*
X16137229Y-49686347D01*
X16137226Y-49686349D01*
X15914259Y-49838365D01*
X15914252Y-49838370D01*
X15716440Y-50021912D01*
X15716434Y-50021918D01*
X15548191Y-50232889D01*
X15548187Y-50232894D01*
X15548185Y-50232898D01*
X15482687Y-50346344D01*
X15413258Y-50466599D01*
X15413254Y-50466608D01*
X15314666Y-50717802D01*
X15254618Y-50980892D01*
X15254616Y-50980901D01*
X15234451Y-51249997D01*
X15234451Y-51250002D01*
X12721288Y-51250002D01*
X12723879Y-51205509D01*
X12693029Y-51030546D01*
X12622660Y-50867413D01*
X12535249Y-50750000D01*
X13659999Y-50750000D01*
X13660000Y-50749999D01*
X13660000Y-49730302D01*
X13659999Y-49730299D01*
X13648396Y-49671963D01*
X13604193Y-49605810D01*
X13604189Y-49605806D01*
X13538036Y-49561603D01*
X13479700Y-49550000D01*
X12460001Y-49550000D01*
X12460000Y-49550001D01*
X12460000Y-50677440D01*
X12380470Y-50610706D01*
X12221705Y-50530972D01*
X12048831Y-50490000D01*
X11915733Y-50490000D01*
X11783539Y-50505451D01*
X11616591Y-50566216D01*
X11468156Y-50663843D01*
X11460000Y-50672487D01*
X11460000Y-49550001D01*
X11459999Y-49550000D01*
X10440299Y-49550000D01*
X10381963Y-49561603D01*
X10315810Y-49605806D01*
X10315806Y-49605810D01*
X10271603Y-49671963D01*
X10260000Y-49730299D01*
X10260000Y-50749999D01*
X10260001Y-50750000D01*
X11386871Y-50750000D01*
X11346236Y-50793070D01*
X11257405Y-50946930D01*
X11206451Y-51117129D01*
X11196121Y-51294491D01*
X11226971Y-51469454D01*
X11297340Y-51632587D01*
X11384751Y-51750000D01*
X10260001Y-51750000D01*
X10260000Y-51750001D01*
X10260000Y-52769700D01*
X8200000Y-52769700D01*
X8200000Y-47349000D01*
X8218907Y-47290809D01*
X8268407Y-47254845D01*
X8299000Y-47250000D01*
X30401000Y-47250000D01*
X30459191Y-47268907D01*
G37*
%TD.AperFunction*%
%TD*%
%TA.AperFunction,Conductor*%
%TO.N,SW*%
G36*
X53493039Y-27719685D02*
G01*
X53538794Y-27772489D01*
X53550000Y-27824000D01*
X53550000Y-30850000D01*
X53658591Y-30850000D01*
X53725630Y-30869685D01*
X53771385Y-30922489D01*
X53773144Y-30926531D01*
X53787270Y-30960632D01*
X53825462Y-31052838D01*
X53825463Y-31052840D01*
X53825464Y-31052841D01*
X53921718Y-31178282D01*
X54047159Y-31274536D01*
X54193238Y-31335044D01*
X54267836Y-31344865D01*
X54349999Y-31355682D01*
X54350000Y-31355682D01*
X54350001Y-31355682D01*
X54402254Y-31348802D01*
X54506762Y-31335044D01*
X54652841Y-31274536D01*
X54778282Y-31178282D01*
X54874536Y-31052841D01*
X54926848Y-30926547D01*
X54970689Y-30872144D01*
X55036983Y-30850079D01*
X55041409Y-30850000D01*
X55420394Y-30850000D01*
X55474855Y-30862600D01*
X55582488Y-30915219D01*
X55582489Y-30915219D01*
X55582491Y-30915220D01*
X55653051Y-30925500D01*
X56006510Y-30925499D01*
X56006522Y-30925500D01*
X56016512Y-30925500D01*
X56275500Y-30925500D01*
X56342539Y-30945185D01*
X56388294Y-30997989D01*
X56399500Y-31049500D01*
X56399500Y-31266804D01*
X56379815Y-31333843D01*
X56363181Y-31354486D01*
X56293084Y-31424582D01*
X56277839Y-31437543D01*
X56265616Y-31446340D01*
X56204289Y-31540471D01*
X56204286Y-31540476D01*
X56199519Y-31551990D01*
X56199513Y-31552005D01*
X56188450Y-31578708D01*
X56183343Y-31591888D01*
X56165256Y-31702775D01*
X56166624Y-31709260D01*
X56169295Y-31734856D01*
X56169295Y-31781202D01*
X56157589Y-31833795D01*
X56150000Y-31849998D01*
X56150000Y-32760149D01*
X56130315Y-32827188D01*
X56099634Y-32859919D01*
X56025001Y-32915001D01*
X55946147Y-33021844D01*
X55902291Y-33147173D01*
X55902289Y-33147185D01*
X55899500Y-33176929D01*
X55899500Y-33623070D01*
X55902289Y-33652814D01*
X55902291Y-33652826D01*
X55946147Y-33778155D01*
X55964925Y-33803599D01*
X55988895Y-33869229D01*
X55973579Y-33937399D01*
X55956561Y-33961022D01*
X55636859Y-34309790D01*
X55577049Y-34345907D01*
X55545452Y-34350000D01*
X48874000Y-34350000D01*
X48806961Y-34330315D01*
X48761206Y-34277511D01*
X48750000Y-34226000D01*
X48750000Y-27824000D01*
X48769685Y-27756961D01*
X48822489Y-27711206D01*
X48874000Y-27700000D01*
X53426000Y-27700000D01*
X53493039Y-27719685D01*
G37*
%TD.AperFunction*%
%TD*%
%TA.AperFunction,Conductor*%
%TO.N,GND*%
G36*
X58374855Y-30412600D02*
G01*
X58482488Y-30465219D01*
X58482489Y-30465219D01*
X58482491Y-30465220D01*
X58553051Y-30475500D01*
X58906510Y-30475499D01*
X58906522Y-30475500D01*
X58916512Y-30475500D01*
X59981336Y-30475500D01*
X60022292Y-30482459D01*
X60123121Y-30517741D01*
X60123120Y-30517741D01*
X60127534Y-30518154D01*
X60152543Y-30520500D01*
X60527456Y-30520499D01*
X60556879Y-30517741D01*
X60680794Y-30474381D01*
X60748746Y-30424230D01*
X60814375Y-30400259D01*
X60822380Y-30400000D01*
X60877620Y-30400000D01*
X60944659Y-30419685D01*
X60951254Y-30424230D01*
X61019206Y-30474381D01*
X61060511Y-30488834D01*
X61143119Y-30517741D01*
X61150796Y-30518460D01*
X61172543Y-30520500D01*
X61547456Y-30520499D01*
X61576879Y-30517741D01*
X61700794Y-30474381D01*
X61768746Y-30424230D01*
X61834375Y-30400259D01*
X61842380Y-30400000D01*
X62820500Y-30400000D01*
X62887539Y-30419685D01*
X62933294Y-30472489D01*
X62944500Y-30524000D01*
X62944500Y-38276000D01*
X62924815Y-38343039D01*
X62872011Y-38388794D01*
X62820500Y-38400000D01*
X59474000Y-38400000D01*
X59406961Y-38380315D01*
X59361206Y-38327511D01*
X59350000Y-38276000D01*
X59350000Y-32776232D01*
X59369685Y-32709193D01*
X59398514Y-32677856D01*
X59402841Y-32674536D01*
X59528282Y-32578282D01*
X59624536Y-32452841D01*
X59685044Y-32306762D01*
X59705682Y-32150000D01*
X59685044Y-31993238D01*
X59624536Y-31847159D01*
X59612987Y-31832109D01*
X59587794Y-31766943D01*
X59601831Y-31698498D01*
X59607473Y-31688929D01*
X59645703Y-31630257D01*
X59645705Y-31630254D01*
X59661556Y-31591985D01*
X59666655Y-31578824D01*
X59684744Y-31467944D01*
X59683375Y-31461452D01*
X59680705Y-31435859D01*
X59680705Y-31352748D01*
X59682323Y-31332783D01*
X59684744Y-31317942D01*
X59684744Y-31317941D01*
X59671318Y-31254295D01*
X59661556Y-31208015D01*
X59645705Y-31169746D01*
X59639998Y-31156821D01*
X59581571Y-31075618D01*
X59574383Y-31065628D01*
X59574382Y-31065627D01*
X59544492Y-31046151D01*
X59480255Y-31004295D01*
X59463523Y-30997365D01*
X59451932Y-30992564D01*
X59451881Y-30992543D01*
X59451813Y-30992514D01*
X59451827Y-30992481D01*
X59451642Y-30992444D01*
X59447465Y-30990714D01*
X59442017Y-30988457D01*
X59441994Y-30988448D01*
X59428824Y-30983345D01*
X59317944Y-30965256D01*
X59317943Y-30965256D01*
X59314888Y-30965900D01*
X59311452Y-30966625D01*
X59285860Y-30969295D01*
X58602748Y-30969295D01*
X58582783Y-30967677D01*
X58567942Y-30965255D01*
X58567941Y-30965255D01*
X58458017Y-30988443D01*
X58458015Y-30988443D01*
X58419752Y-31004292D01*
X58406820Y-31010002D01*
X58315628Y-31075616D01*
X58315625Y-31075620D01*
X58303848Y-31093695D01*
X58250758Y-31139116D01*
X58199957Y-31150000D01*
X57974000Y-31150000D01*
X57906961Y-31130315D01*
X57861206Y-31077511D01*
X57850000Y-31026000D01*
X57850000Y-30524000D01*
X57869685Y-30456961D01*
X57922489Y-30411206D01*
X57974000Y-30400000D01*
X58320394Y-30400000D01*
X58374855Y-30412600D01*
G37*
%TD.AperFunction*%
%TD*%
%TA.AperFunction,Conductor*%
%TO.N,GND*%
G36*
X51443039Y-37769685D02*
G01*
X51488794Y-37822489D01*
X51500000Y-37874000D01*
X51500000Y-48126000D01*
X51480315Y-48193039D01*
X51427511Y-48238794D01*
X51376000Y-48250000D01*
X46624000Y-48250000D01*
X46556961Y-48230315D01*
X46511206Y-48177511D01*
X46500000Y-48126000D01*
X46500000Y-37874000D01*
X46519685Y-37806961D01*
X46572489Y-37761206D01*
X46624000Y-37750000D01*
X51376000Y-37750000D01*
X51443039Y-37769685D01*
G37*
%TD.AperFunction*%
%TD*%
%TA.AperFunction,Conductor*%
%TO.N,Vin*%
G36*
X57968690Y-31601559D02*
G01*
X58000000Y-31605682D01*
X58000001Y-31605682D01*
X58031308Y-31601560D01*
X58047494Y-31600499D01*
X58266804Y-31600499D01*
X58333843Y-31620184D01*
X58354485Y-31636817D01*
X58424572Y-31706903D01*
X58437537Y-31722154D01*
X58446330Y-31734374D01*
X58498535Y-31768389D01*
X58543956Y-31821479D01*
X58553466Y-31890698D01*
X58545402Y-31919733D01*
X58514957Y-31993234D01*
X58514955Y-31993239D01*
X58494318Y-32149998D01*
X58494318Y-32150001D01*
X58514955Y-32306760D01*
X58514956Y-32306762D01*
X58575464Y-32452841D01*
X58671718Y-32578282D01*
X58797159Y-32674536D01*
X58943238Y-32735044D01*
X58943241Y-32735044D01*
X58951087Y-32737147D01*
X58950268Y-32740203D01*
X59000520Y-32762394D01*
X59039029Y-32820693D01*
X59044500Y-32857119D01*
X59044500Y-32956366D01*
X59030134Y-33014301D01*
X59026148Y-33021842D01*
X58982291Y-33147176D01*
X58982289Y-33147185D01*
X58979500Y-33176929D01*
X58979500Y-33623070D01*
X58982289Y-33652814D01*
X58982291Y-33652826D01*
X59026146Y-33778152D01*
X59026148Y-33778157D01*
X59026150Y-33778160D01*
X59030129Y-33785688D01*
X59044500Y-33843632D01*
X59044500Y-38276000D01*
X59044501Y-38276009D01*
X59051481Y-38340935D01*
X59051483Y-38340947D01*
X59062688Y-38392457D01*
X59073644Y-38430654D01*
X59073647Y-38430661D01*
X59083037Y-38446716D01*
X59100000Y-38509318D01*
X59100000Y-38850000D01*
X63250000Y-38850000D01*
X63250000Y-39500000D01*
X64799500Y-39500000D01*
X64799500Y-47976000D01*
X64779815Y-48043039D01*
X64727011Y-48088794D01*
X64675500Y-48100000D01*
X59787997Y-48100000D01*
X59720958Y-48080315D01*
X59688227Y-48049634D01*
X59688128Y-48049500D01*
X59672150Y-48027850D01*
X59562882Y-47947207D01*
X59562880Y-47947206D01*
X59434700Y-47902353D01*
X59404270Y-47899500D01*
X59404266Y-47899500D01*
X58995734Y-47899500D01*
X58995730Y-47899500D01*
X58965300Y-47902353D01*
X58965298Y-47902353D01*
X58837119Y-47947206D01*
X58837117Y-47947207D01*
X58727850Y-48027850D01*
X58711773Y-48049634D01*
X58656125Y-48091885D01*
X58612003Y-48100000D01*
X57887997Y-48100000D01*
X57820958Y-48080315D01*
X57788227Y-48049634D01*
X57788128Y-48049500D01*
X57772150Y-48027850D01*
X57662882Y-47947207D01*
X57662880Y-47947206D01*
X57534700Y-47902353D01*
X57504270Y-47899500D01*
X57504266Y-47899500D01*
X57095734Y-47899500D01*
X57095730Y-47899500D01*
X57065300Y-47902353D01*
X57065298Y-47902353D01*
X56937119Y-47947206D01*
X56937117Y-47947207D01*
X56827848Y-48027851D01*
X56821279Y-48034421D01*
X56819451Y-48032593D01*
X56774946Y-48066384D01*
X56730823Y-48074500D01*
X56171167Y-48074500D01*
X56121081Y-48063935D01*
X56094991Y-48052415D01*
X56069865Y-48049500D01*
X55630143Y-48049500D01*
X55630117Y-48049502D01*
X55605012Y-48052413D01*
X55605008Y-48052415D01*
X55502235Y-48097793D01*
X55422794Y-48177234D01*
X55377415Y-48280006D01*
X55377415Y-48280008D01*
X55374500Y-48305131D01*
X55374500Y-48305136D01*
X55374501Y-48570295D01*
X55354817Y-48637334D01*
X55302013Y-48683089D01*
X55250501Y-48694295D01*
X53825000Y-48694295D01*
X53822267Y-48694421D01*
X53796796Y-48695598D01*
X53789723Y-48696753D01*
X53789669Y-48696423D01*
X53764029Y-48700000D01*
X53724000Y-48700000D01*
X53656961Y-48680315D01*
X53611206Y-48627511D01*
X53600000Y-48576000D01*
X53600000Y-43600000D01*
X53136319Y-43136319D01*
X53102834Y-43074996D01*
X53100000Y-43048638D01*
X53100000Y-35474000D01*
X53119685Y-35406961D01*
X53172489Y-35361206D01*
X53224000Y-35350000D01*
X56100000Y-35350000D01*
X56600000Y-34850000D01*
X56600000Y-34130007D01*
X56619685Y-34062968D01*
X56672489Y-34017213D01*
X56697544Y-34008862D01*
X56702813Y-34007710D01*
X56702819Y-34007710D01*
X56828157Y-33963852D01*
X56934999Y-33884999D01*
X57013852Y-33778157D01*
X57057710Y-33652819D01*
X57060500Y-33623066D01*
X57060500Y-33176934D01*
X57060089Y-33172553D01*
X57057710Y-33147185D01*
X57057709Y-33147177D01*
X57032458Y-33075013D01*
X57025500Y-33034059D01*
X57025500Y-32384654D01*
X57027118Y-32364689D01*
X57034744Y-32317943D01*
X57034744Y-32317942D01*
X57033375Y-32311452D01*
X57030705Y-32285859D01*
X57030705Y-31724499D01*
X57050390Y-31657460D01*
X57103194Y-31611705D01*
X57154705Y-31600499D01*
X57952505Y-31600499D01*
X57968690Y-31601559D01*
G37*
%TD.AperFunction*%
%TD*%
%TA.AperFunction,Conductor*%
%TO.N,GND*%
G36*
X44943039Y-9669685D02*
G01*
X44988794Y-9722489D01*
X45000000Y-9774000D01*
X45000000Y-9924711D01*
X44980315Y-9991750D01*
X44974804Y-9999636D01*
X44915639Y-10077656D01*
X44860122Y-10218438D01*
X44854500Y-10265261D01*
X44849500Y-10306898D01*
X44849500Y-11893102D01*
X44855126Y-11939954D01*
X44860122Y-11981561D01*
X44915639Y-12122343D01*
X44974804Y-12200363D01*
X44999627Y-12265674D01*
X45000000Y-12275288D01*
X45000000Y-12400000D01*
X45345319Y-12400000D01*
X45353194Y-12400470D01*
X45353206Y-12400279D01*
X45356897Y-12400500D01*
X45356898Y-12400500D01*
X46643103Y-12400500D01*
X46646794Y-12400279D01*
X46646805Y-12400470D01*
X46654681Y-12400000D01*
X47826000Y-12400000D01*
X47893039Y-12419685D01*
X47938794Y-12472489D01*
X47950000Y-12524000D01*
X47950000Y-14841086D01*
X47930315Y-14908125D01*
X47904327Y-14937215D01*
X46634205Y-15972129D01*
X46569800Y-15999216D01*
X46555878Y-16000000D01*
X44749999Y-16000000D01*
X42750000Y-18749998D01*
X42750000Y-19127456D01*
X42747328Y-19153059D01*
X42742594Y-19175491D01*
X42736017Y-19236616D01*
X42736017Y-19236622D01*
X42748032Y-19303248D01*
X42750000Y-19325254D01*
X42750000Y-21095141D01*
X42737777Y-21148825D01*
X42726561Y-21172177D01*
X42726558Y-21172184D01*
X42706877Y-21239209D01*
X42706876Y-21239216D01*
X42694500Y-21325288D01*
X42694500Y-21674711D01*
X42694730Y-21686556D01*
X42694731Y-21686576D01*
X42695102Y-21696165D01*
X42695103Y-21696169D01*
X42714803Y-21792860D01*
X42739626Y-21858172D01*
X42739627Y-21858174D01*
X42741200Y-21862312D01*
X42740029Y-21862756D01*
X42750000Y-21907897D01*
X42750000Y-23595141D01*
X42737777Y-23648825D01*
X42726561Y-23672177D01*
X42726558Y-23672184D01*
X42706877Y-23739209D01*
X42694500Y-23825290D01*
X42694500Y-24105481D01*
X42687542Y-24146435D01*
X42652290Y-24247177D01*
X42652289Y-24247185D01*
X42649500Y-24276929D01*
X42649500Y-24723070D01*
X42652289Y-24752819D01*
X42681062Y-24835044D01*
X42684625Y-24904823D01*
X42649896Y-24965451D01*
X42587903Y-24997678D01*
X42564021Y-25000000D01*
X40424000Y-25000000D01*
X40356961Y-24980315D01*
X40311206Y-24927511D01*
X40300000Y-24876000D01*
X40300000Y-11600000D01*
X42508924Y-11600000D01*
X42525230Y-11653758D01*
X42525232Y-11653762D01*
X42622728Y-11836166D01*
X42622732Y-11836173D01*
X42753944Y-11996055D01*
X42913826Y-12127266D01*
X43000000Y-12173326D01*
X43000000Y-11600000D01*
X42508924Y-11600000D01*
X40300000Y-11600000D01*
X40300000Y-11171889D01*
X43000000Y-11171889D01*
X43040507Y-11309844D01*
X43118239Y-11430798D01*
X43226900Y-11524952D01*
X43357685Y-11584680D01*
X43464237Y-11600000D01*
X43535763Y-11600000D01*
X44000000Y-11600000D01*
X44000000Y-12173326D01*
X44086173Y-12127266D01*
X44246055Y-11996055D01*
X44377267Y-11836173D01*
X44377271Y-11836166D01*
X44474767Y-11653762D01*
X44474769Y-11653758D01*
X44491076Y-11600000D01*
X44000000Y-11600000D01*
X43535763Y-11600000D01*
X43642315Y-11584680D01*
X43773100Y-11524952D01*
X43881761Y-11430798D01*
X43959493Y-11309844D01*
X44000000Y-11171889D01*
X44000000Y-11028111D01*
X43959493Y-10890156D01*
X43881761Y-10769202D01*
X43773100Y-10675048D01*
X43642315Y-10615320D01*
X43535763Y-10600000D01*
X43464237Y-10600000D01*
X43357685Y-10615320D01*
X43226900Y-10675048D01*
X43118239Y-10769202D01*
X43040507Y-10890156D01*
X43000000Y-11028111D01*
X43000000Y-11171889D01*
X40300000Y-11171889D01*
X40300000Y-10600000D01*
X42508924Y-10600000D01*
X43000000Y-10600000D01*
X43000000Y-10026671D01*
X44000000Y-10026671D01*
X44000000Y-10600000D01*
X44491076Y-10600000D01*
X44474769Y-10546241D01*
X44474767Y-10546237D01*
X44377271Y-10363833D01*
X44377267Y-10363826D01*
X44246055Y-10203944D01*
X44086173Y-10072732D01*
X44086166Y-10072727D01*
X44000000Y-10026671D01*
X43000000Y-10026671D01*
X42999999Y-10026671D01*
X42913833Y-10072727D01*
X42913826Y-10072732D01*
X42753944Y-10203944D01*
X42622732Y-10363826D01*
X42622728Y-10363833D01*
X42525232Y-10546237D01*
X42525230Y-10546241D01*
X42508924Y-10600000D01*
X40300000Y-10600000D01*
X40300000Y-9774000D01*
X40319685Y-9706961D01*
X40372489Y-9661206D01*
X40424000Y-9650000D01*
X44876000Y-9650000D01*
X44943039Y-9669685D01*
G37*
%TD.AperFunction*%
%TD*%
%TA.AperFunction,Conductor*%
%TO.N,GND*%
G36*
X53193039Y-14169685D02*
G01*
X53238794Y-14222489D01*
X53250000Y-14274000D01*
X53250000Y-16626000D01*
X53230315Y-16693039D01*
X53177511Y-16738794D01*
X53126000Y-16750000D01*
X51284500Y-16750000D01*
X51217461Y-16730315D01*
X51171706Y-16677511D01*
X51160500Y-16626000D01*
X51160499Y-16162546D01*
X51157741Y-16133125D01*
X51157741Y-16133123D01*
X51157741Y-16133121D01*
X51114381Y-16009206D01*
X51114380Y-16009205D01*
X51111312Y-16000436D01*
X51112373Y-16000064D01*
X51100500Y-15952189D01*
X51100500Y-15773115D01*
X51114015Y-15716821D01*
X51160646Y-15625304D01*
X51160646Y-15625302D01*
X51160647Y-15625301D01*
X51175499Y-15531524D01*
X51175500Y-15531519D01*
X51175499Y-14273999D01*
X51195184Y-14206961D01*
X51247987Y-14161206D01*
X51299499Y-14150000D01*
X53126000Y-14150000D01*
X53193039Y-14169685D01*
G37*
%TD.AperFunction*%
%TD*%
%TA.AperFunction,Conductor*%
%TO.N,5V_PI*%
G36*
X56459191Y-219407D02*
G01*
X56495155Y-268907D01*
X56500000Y-299500D01*
X56500000Y-1001664D01*
X56481093Y-1059855D01*
X56431593Y-1095819D01*
X56419192Y-1098978D01*
X56313803Y-1118678D01*
X56114980Y-1195702D01*
X56114975Y-1195705D01*
X55933699Y-1307946D01*
X55933692Y-1307952D01*
X55776135Y-1451586D01*
X55776131Y-1451589D01*
X55776128Y-1451593D01*
X55776125Y-1451597D01*
X55647635Y-1621743D01*
X55647630Y-1621752D01*
X55552596Y-1812608D01*
X55494244Y-2017688D01*
X55494244Y-2017690D01*
X55474571Y-2230000D01*
X55494244Y-2442310D01*
X55552595Y-2647389D01*
X55647634Y-2838255D01*
X55776128Y-3008407D01*
X55776135Y-3008413D01*
X55933692Y-3152047D01*
X55933699Y-3152053D01*
X55978729Y-3179934D01*
X56114981Y-3264298D01*
X56313802Y-3341321D01*
X56419193Y-3361022D01*
X56472917Y-3390298D01*
X56499173Y-3445564D01*
X56500000Y-3458335D01*
X56500000Y-3541664D01*
X56481093Y-3599855D01*
X56431593Y-3635819D01*
X56419192Y-3638978D01*
X56313803Y-3658678D01*
X56114980Y-3735702D01*
X56114975Y-3735705D01*
X55933699Y-3847946D01*
X55933692Y-3847952D01*
X55776135Y-3991586D01*
X55776131Y-3991589D01*
X55776128Y-3991593D01*
X55776125Y-3991597D01*
X55647635Y-4161743D01*
X55647630Y-4161752D01*
X55552596Y-4352608D01*
X55494244Y-4557688D01*
X55474571Y-4770000D01*
X55494244Y-4982311D01*
X55501671Y-5008413D01*
X55552595Y-5187389D01*
X55647634Y-5378255D01*
X55776128Y-5548407D01*
X55776135Y-5548413D01*
X55933692Y-5692047D01*
X55933699Y-5692053D01*
X56037389Y-5756255D01*
X56114981Y-5804298D01*
X56313802Y-5881321D01*
X56419193Y-5901022D01*
X56472917Y-5930298D01*
X56499173Y-5985564D01*
X56500000Y-5998335D01*
X56500000Y-8300500D01*
X56481093Y-8358691D01*
X56431593Y-8394655D01*
X56401000Y-8399500D01*
X56026923Y-8399500D01*
X55997185Y-8402289D01*
X55997176Y-8402291D01*
X55871841Y-8446148D01*
X55765004Y-8524997D01*
X55764997Y-8525004D01*
X55686148Y-8631841D01*
X55642291Y-8757176D01*
X55642289Y-8757185D01*
X55639500Y-8786923D01*
X55639500Y-9101000D01*
X55620593Y-9159191D01*
X55571093Y-9195155D01*
X55540500Y-9200000D01*
X53249000Y-9200000D01*
X53190809Y-9181093D01*
X53154845Y-9131593D01*
X53150000Y-9101000D01*
X53150000Y-7500000D01*
X53149999Y-7499999D01*
X52500000Y-7000000D01*
X50000000Y-7000000D01*
X48699500Y-8300500D01*
X47778996Y-9221004D01*
X47724479Y-9248781D01*
X47708992Y-9250000D01*
X40293667Y-9250000D01*
X40235476Y-9231093D01*
X40220557Y-9217753D01*
X40141889Y-9131593D01*
X38150000Y-6950000D01*
X38149999Y-6950000D01*
X299500Y-6950000D01*
X241309Y-6931093D01*
X205345Y-6881593D01*
X200500Y-6851000D01*
X200500Y-3500006D01*
X844655Y-3500006D01*
X864013Y-3820055D01*
X864016Y-3820080D01*
X921813Y-4135462D01*
X921813Y-4135464D01*
X921814Y-4135466D01*
X1017209Y-4441598D01*
X1148809Y-4734000D01*
X1148813Y-4734008D01*
X1148817Y-4734014D01*
X1314685Y-5008394D01*
X1314689Y-5008400D01*
X1314694Y-5008408D01*
X1512446Y-5260819D01*
X1739181Y-5487554D01*
X1991592Y-5685306D01*
X2266000Y-5851191D01*
X2558402Y-5982791D01*
X2864534Y-6078186D01*
X2968172Y-6097178D01*
X3179919Y-6135983D01*
X3179930Y-6135984D01*
X3179934Y-6135985D01*
X3179937Y-6135985D01*
X3179944Y-6135986D01*
X3499994Y-6155345D01*
X3500000Y-6155345D01*
X3500006Y-6155345D01*
X3820055Y-6135986D01*
X3820060Y-6135985D01*
X3820066Y-6135985D01*
X3820071Y-6135984D01*
X3820080Y-6135983D01*
X3957438Y-6110810D01*
X4135466Y-6078186D01*
X4441598Y-5982791D01*
X4734000Y-5851191D01*
X5008408Y-5685306D01*
X5034505Y-5664860D01*
X7219500Y-5664860D01*
X7219501Y-5664863D01*
X7222414Y-5689990D01*
X7223325Y-5692053D01*
X7267794Y-5792765D01*
X7347235Y-5872206D01*
X7450009Y-5917585D01*
X7475135Y-5920500D01*
X9264864Y-5920499D01*
X9289991Y-5917585D01*
X9392765Y-5872206D01*
X9472206Y-5792765D01*
X9517585Y-5689991D01*
X9520500Y-5664865D01*
X9520499Y-4770000D01*
X9754571Y-4770000D01*
X9774244Y-4982311D01*
X9781671Y-5008413D01*
X9832595Y-5187389D01*
X9927634Y-5378255D01*
X10056128Y-5548407D01*
X10056135Y-5548413D01*
X10213692Y-5692047D01*
X10213699Y-5692053D01*
X10317389Y-5756255D01*
X10394981Y-5804298D01*
X10593802Y-5881321D01*
X10803390Y-5920500D01*
X11016610Y-5920500D01*
X11226198Y-5881321D01*
X11425019Y-5804298D01*
X11606302Y-5692052D01*
X11763872Y-5548407D01*
X11892366Y-5378255D01*
X11987405Y-5187389D01*
X12045756Y-4982310D01*
X12065429Y-4770000D01*
X12294571Y-4770000D01*
X12314244Y-4982311D01*
X12321671Y-5008413D01*
X12372595Y-5187389D01*
X12467634Y-5378255D01*
X12596128Y-5548407D01*
X12596135Y-5548413D01*
X12753692Y-5692047D01*
X12753699Y-5692053D01*
X12857389Y-5756255D01*
X12934981Y-5804298D01*
X13133802Y-5881321D01*
X13343390Y-5920500D01*
X13556610Y-5920500D01*
X13766198Y-5881321D01*
X13965019Y-5804298D01*
X14146302Y-5692052D01*
X14303872Y-5548407D01*
X14432366Y-5378255D01*
X14527405Y-5187389D01*
X14585756Y-4982310D01*
X14605429Y-4770000D01*
X14834571Y-4770000D01*
X14854244Y-4982311D01*
X14861671Y-5008413D01*
X14912595Y-5187389D01*
X15007634Y-5378255D01*
X15136128Y-5548407D01*
X15136135Y-5548413D01*
X15293692Y-5692047D01*
X15293699Y-5692053D01*
X15397389Y-5756255D01*
X15474981Y-5804298D01*
X15673802Y-5881321D01*
X15883390Y-5920500D01*
X16096610Y-5920500D01*
X16306198Y-5881321D01*
X16505019Y-5804298D01*
X16686302Y-5692052D01*
X16843872Y-5548407D01*
X16972366Y-5378255D01*
X17067405Y-5187389D01*
X17125756Y-4982310D01*
X17145429Y-4770000D01*
X17374571Y-4770000D01*
X17394244Y-4982311D01*
X17401671Y-5008413D01*
X17452595Y-5187389D01*
X17547634Y-5378255D01*
X17676128Y-5548407D01*
X17676135Y-5548413D01*
X17833692Y-5692047D01*
X17833699Y-5692053D01*
X17937389Y-5756255D01*
X18014981Y-5804298D01*
X18213802Y-5881321D01*
X18423390Y-5920500D01*
X18636610Y-5920500D01*
X18846198Y-5881321D01*
X19045019Y-5804298D01*
X19226302Y-5692052D01*
X19383872Y-5548407D01*
X19512366Y-5378255D01*
X19607405Y-5187389D01*
X19665756Y-4982310D01*
X19685429Y-4770000D01*
X19914571Y-4770000D01*
X19934244Y-4982311D01*
X19941671Y-5008413D01*
X19992595Y-5187389D01*
X20087634Y-5378255D01*
X20216128Y-5548407D01*
X20216135Y-5548413D01*
X20373692Y-5692047D01*
X20373699Y-5692053D01*
X20477389Y-5756255D01*
X20554981Y-5804298D01*
X20753802Y-5881321D01*
X20963390Y-5920500D01*
X21176610Y-5920500D01*
X21386198Y-5881321D01*
X21585019Y-5804298D01*
X21766302Y-5692052D01*
X21923872Y-5548407D01*
X22052366Y-5378255D01*
X22147405Y-5187389D01*
X22205756Y-4982310D01*
X22225429Y-4770000D01*
X22454571Y-4770000D01*
X22474244Y-4982311D01*
X22481671Y-5008413D01*
X22532595Y-5187389D01*
X22627634Y-5378255D01*
X22756128Y-5548407D01*
X22756135Y-5548413D01*
X22913692Y-5692047D01*
X22913699Y-5692053D01*
X23017389Y-5756255D01*
X23094981Y-5804298D01*
X23293802Y-5881321D01*
X23503390Y-5920500D01*
X23716610Y-5920500D01*
X23926198Y-5881321D01*
X24125019Y-5804298D01*
X24306302Y-5692052D01*
X24463872Y-5548407D01*
X24592366Y-5378255D01*
X24687405Y-5187389D01*
X24745756Y-4982310D01*
X24765429Y-4770000D01*
X24994571Y-4770000D01*
X25014244Y-4982311D01*
X25021671Y-5008413D01*
X25072595Y-5187389D01*
X25167634Y-5378255D01*
X25296128Y-5548407D01*
X25296135Y-5548413D01*
X25453692Y-5692047D01*
X25453699Y-5692053D01*
X25557389Y-5756255D01*
X25634981Y-5804298D01*
X25833802Y-5881321D01*
X26043390Y-5920500D01*
X26256610Y-5920500D01*
X26466198Y-5881321D01*
X26665019Y-5804298D01*
X26846302Y-5692052D01*
X27003872Y-5548407D01*
X27132366Y-5378255D01*
X27227405Y-5187389D01*
X27285756Y-4982310D01*
X27305429Y-4770000D01*
X27534571Y-4770000D01*
X27554244Y-4982311D01*
X27561671Y-5008413D01*
X27612595Y-5187389D01*
X27707634Y-5378255D01*
X27836128Y-5548407D01*
X27836135Y-5548413D01*
X27993692Y-5692047D01*
X27993699Y-5692053D01*
X28097389Y-5756255D01*
X28174981Y-5804298D01*
X28373802Y-5881321D01*
X28583390Y-5920500D01*
X28796610Y-5920500D01*
X29006198Y-5881321D01*
X29205019Y-5804298D01*
X29386302Y-5692052D01*
X29543872Y-5548407D01*
X29672366Y-5378255D01*
X29767405Y-5187389D01*
X29825756Y-4982310D01*
X29845429Y-4770000D01*
X30074571Y-4770000D01*
X30094244Y-4982311D01*
X30101671Y-5008413D01*
X30152595Y-5187389D01*
X30247634Y-5378255D01*
X30376128Y-5548407D01*
X30376135Y-5548413D01*
X30533692Y-5692047D01*
X30533699Y-5692053D01*
X30637389Y-5756255D01*
X30714981Y-5804298D01*
X30913802Y-5881321D01*
X31123390Y-5920500D01*
X31336610Y-5920500D01*
X31546198Y-5881321D01*
X31745019Y-5804298D01*
X31926302Y-5692052D01*
X32083872Y-5548407D01*
X32212366Y-5378255D01*
X32307405Y-5187389D01*
X32365756Y-4982310D01*
X32385429Y-4770000D01*
X32614571Y-4770000D01*
X32634244Y-4982311D01*
X32641671Y-5008413D01*
X32692595Y-5187389D01*
X32787634Y-5378255D01*
X32916128Y-5548407D01*
X32916135Y-5548413D01*
X33073692Y-5692047D01*
X33073699Y-5692053D01*
X33177389Y-5756255D01*
X33254981Y-5804298D01*
X33453802Y-5881321D01*
X33663390Y-5920500D01*
X33876610Y-5920500D01*
X34086198Y-5881321D01*
X34285019Y-5804298D01*
X34466302Y-5692052D01*
X34623872Y-5548407D01*
X34752366Y-5378255D01*
X34847405Y-5187389D01*
X34905756Y-4982310D01*
X34925429Y-4770000D01*
X35154571Y-4770000D01*
X35174244Y-4982311D01*
X35181671Y-5008413D01*
X35232595Y-5187389D01*
X35327634Y-5378255D01*
X35456128Y-5548407D01*
X35456135Y-5548413D01*
X35613692Y-5692047D01*
X35613699Y-5692053D01*
X35717389Y-5756255D01*
X35794981Y-5804298D01*
X35993802Y-5881321D01*
X36203390Y-5920500D01*
X36416610Y-5920500D01*
X36626198Y-5881321D01*
X36825019Y-5804298D01*
X37006302Y-5692052D01*
X37163872Y-5548407D01*
X37292366Y-5378255D01*
X37387405Y-5187389D01*
X37445756Y-4982310D01*
X37465429Y-4770000D01*
X37694571Y-4770000D01*
X37714244Y-4982311D01*
X37721671Y-5008413D01*
X37772595Y-5187389D01*
X37867634Y-5378255D01*
X37996128Y-5548407D01*
X37996135Y-5548413D01*
X38153692Y-5692047D01*
X38153699Y-5692053D01*
X38257389Y-5756255D01*
X38334981Y-5804298D01*
X38533802Y-5881321D01*
X38743390Y-5920500D01*
X38956610Y-5920500D01*
X39166198Y-5881321D01*
X39365019Y-5804298D01*
X39546302Y-5692052D01*
X39703872Y-5548407D01*
X39832366Y-5378255D01*
X39927405Y-5187389D01*
X39985756Y-4982310D01*
X40005429Y-4770000D01*
X40234571Y-4770000D01*
X40254244Y-4982311D01*
X40261671Y-5008413D01*
X40312595Y-5187389D01*
X40407634Y-5378255D01*
X40536128Y-5548407D01*
X40536135Y-5548413D01*
X40693692Y-5692047D01*
X40693699Y-5692053D01*
X40797389Y-5756255D01*
X40874981Y-5804298D01*
X41073802Y-5881321D01*
X41283390Y-5920500D01*
X41496610Y-5920500D01*
X41706198Y-5881321D01*
X41905019Y-5804298D01*
X42086302Y-5692052D01*
X42243872Y-5548407D01*
X42372366Y-5378255D01*
X42467405Y-5187389D01*
X42525756Y-4982310D01*
X42545429Y-4770000D01*
X42774571Y-4770000D01*
X42794244Y-4982311D01*
X42801671Y-5008413D01*
X42852595Y-5187389D01*
X42947634Y-5378255D01*
X43076128Y-5548407D01*
X43076135Y-5548413D01*
X43233692Y-5692047D01*
X43233699Y-5692053D01*
X43337389Y-5756255D01*
X43414981Y-5804298D01*
X43613802Y-5881321D01*
X43823390Y-5920500D01*
X44036610Y-5920500D01*
X44246198Y-5881321D01*
X44445019Y-5804298D01*
X44626302Y-5692052D01*
X44783872Y-5548407D01*
X44912366Y-5378255D01*
X45007405Y-5187389D01*
X45065756Y-4982310D01*
X45085429Y-4770000D01*
X45314571Y-4770000D01*
X45334244Y-4982311D01*
X45341671Y-5008413D01*
X45392595Y-5187389D01*
X45487634Y-5378255D01*
X45616128Y-5548407D01*
X45616135Y-5548413D01*
X45773692Y-5692047D01*
X45773699Y-5692053D01*
X45877389Y-5756255D01*
X45954981Y-5804298D01*
X46153802Y-5881321D01*
X46363390Y-5920500D01*
X46576610Y-5920500D01*
X46786198Y-5881321D01*
X46985019Y-5804298D01*
X47166302Y-5692052D01*
X47323872Y-5548407D01*
X47452366Y-5378255D01*
X47547405Y-5187389D01*
X47605756Y-4982310D01*
X47625429Y-4770000D01*
X47854571Y-4770000D01*
X47874244Y-4982311D01*
X47881671Y-5008413D01*
X47932595Y-5187389D01*
X48027634Y-5378255D01*
X48156128Y-5548407D01*
X48156135Y-5548413D01*
X48313692Y-5692047D01*
X48313699Y-5692053D01*
X48417389Y-5756255D01*
X48494981Y-5804298D01*
X48693802Y-5881321D01*
X48903390Y-5920500D01*
X49116610Y-5920500D01*
X49326198Y-5881321D01*
X49525019Y-5804298D01*
X49706302Y-5692052D01*
X49863872Y-5548407D01*
X49992366Y-5378255D01*
X50087405Y-5187389D01*
X50145756Y-4982310D01*
X50165429Y-4770000D01*
X50394571Y-4770000D01*
X50414244Y-4982311D01*
X50421671Y-5008413D01*
X50472595Y-5187389D01*
X50567634Y-5378255D01*
X50696128Y-5548407D01*
X50696135Y-5548413D01*
X50853692Y-5692047D01*
X50853699Y-5692053D01*
X50957389Y-5756255D01*
X51034981Y-5804298D01*
X51233802Y-5881321D01*
X51443390Y-5920500D01*
X51656610Y-5920500D01*
X51866198Y-5881321D01*
X52065019Y-5804298D01*
X52246302Y-5692052D01*
X52403872Y-5548407D01*
X52532366Y-5378255D01*
X52627405Y-5187389D01*
X52685756Y-4982310D01*
X52705429Y-4770000D01*
X52934571Y-4770000D01*
X52954244Y-4982311D01*
X52961671Y-5008413D01*
X53012595Y-5187389D01*
X53107634Y-5378255D01*
X53236128Y-5548407D01*
X53236135Y-5548413D01*
X53393692Y-5692047D01*
X53393699Y-5692053D01*
X53497389Y-5756255D01*
X53574981Y-5804298D01*
X53773802Y-5881321D01*
X53983390Y-5920500D01*
X54196610Y-5920500D01*
X54406198Y-5881321D01*
X54605019Y-5804298D01*
X54786302Y-5692052D01*
X54943872Y-5548407D01*
X55072366Y-5378255D01*
X55167405Y-5187389D01*
X55225756Y-4982310D01*
X55245429Y-4770000D01*
X55225756Y-4557690D01*
X55167405Y-4352611D01*
X55072366Y-4161745D01*
X54943872Y-3991593D01*
X54816119Y-3875130D01*
X54786307Y-3847952D01*
X54786300Y-3847946D01*
X54605024Y-3735705D01*
X54605019Y-3735702D01*
X54406198Y-3658679D01*
X54406197Y-3658678D01*
X54406195Y-3658678D01*
X54196610Y-3619500D01*
X53983390Y-3619500D01*
X53773804Y-3658678D01*
X53574980Y-3735702D01*
X53574975Y-3735705D01*
X53393699Y-3847946D01*
X53393692Y-3847952D01*
X53236135Y-3991586D01*
X53236131Y-3991589D01*
X53236128Y-3991593D01*
X53236125Y-3991597D01*
X53107635Y-4161743D01*
X53107630Y-4161752D01*
X53012596Y-4352608D01*
X52954244Y-4557688D01*
X52934571Y-4770000D01*
X52705429Y-4770000D01*
X52685756Y-4557690D01*
X52627405Y-4352611D01*
X52532366Y-4161745D01*
X52403872Y-3991593D01*
X52276119Y-3875130D01*
X52246307Y-3847952D01*
X52246300Y-3847946D01*
X52065024Y-3735705D01*
X52065019Y-3735702D01*
X51866198Y-3658679D01*
X51866197Y-3658678D01*
X51866195Y-3658678D01*
X51656610Y-3619500D01*
X51443390Y-3619500D01*
X51233804Y-3658678D01*
X51034980Y-3735702D01*
X51034975Y-3735705D01*
X50853699Y-3847946D01*
X50853692Y-3847952D01*
X50696135Y-3991586D01*
X50696131Y-3991589D01*
X50696128Y-3991593D01*
X50696125Y-3991597D01*
X50567635Y-4161743D01*
X50567630Y-4161752D01*
X50472596Y-4352608D01*
X50414244Y-4557688D01*
X50394571Y-4770000D01*
X50165429Y-4770000D01*
X50145756Y-4557690D01*
X50087405Y-4352611D01*
X49992366Y-4161745D01*
X49863872Y-3991593D01*
X49736119Y-3875130D01*
X49706307Y-3847952D01*
X49706300Y-3847946D01*
X49525024Y-3735705D01*
X49525019Y-3735702D01*
X49326198Y-3658679D01*
X49326197Y-3658678D01*
X49326195Y-3658678D01*
X49116610Y-3619500D01*
X48903390Y-3619500D01*
X48693804Y-3658678D01*
X48494980Y-3735702D01*
X48494975Y-3735705D01*
X48313699Y-3847946D01*
X48313692Y-3847952D01*
X48156135Y-3991586D01*
X48156131Y-3991589D01*
X48156128Y-3991593D01*
X48156125Y-3991597D01*
X48027635Y-4161743D01*
X48027630Y-4161752D01*
X47932596Y-4352608D01*
X47874244Y-4557688D01*
X47854571Y-4770000D01*
X47625429Y-4770000D01*
X47605756Y-4557690D01*
X47547405Y-4352611D01*
X47452366Y-4161745D01*
X47323872Y-3991593D01*
X47196119Y-3875130D01*
X47166307Y-3847952D01*
X47166300Y-3847946D01*
X46985024Y-3735705D01*
X46985019Y-3735702D01*
X46786198Y-3658679D01*
X46786197Y-3658678D01*
X46786195Y-3658678D01*
X46576610Y-3619500D01*
X46363390Y-3619500D01*
X46153804Y-3658678D01*
X45954980Y-3735702D01*
X45954975Y-3735705D01*
X45773699Y-3847946D01*
X45773692Y-3847952D01*
X45616135Y-3991586D01*
X45616131Y-3991589D01*
X45616128Y-3991593D01*
X45616125Y-3991597D01*
X45487635Y-4161743D01*
X45487630Y-4161752D01*
X45392596Y-4352608D01*
X45334244Y-4557688D01*
X45314571Y-4770000D01*
X45085429Y-4770000D01*
X45065756Y-4557690D01*
X45007405Y-4352611D01*
X44912366Y-4161745D01*
X44783872Y-3991593D01*
X44656119Y-3875130D01*
X44626307Y-3847952D01*
X44626300Y-3847946D01*
X44445024Y-3735705D01*
X44445019Y-3735702D01*
X44246198Y-3658679D01*
X44246197Y-3658678D01*
X44246195Y-3658678D01*
X44036610Y-3619500D01*
X43823390Y-3619500D01*
X43613804Y-3658678D01*
X43414980Y-3735702D01*
X43414975Y-3735705D01*
X43233699Y-3847946D01*
X43233692Y-3847952D01*
X43076135Y-3991586D01*
X43076131Y-3991589D01*
X43076128Y-3991593D01*
X43076125Y-3991597D01*
X42947635Y-4161743D01*
X42947630Y-4161752D01*
X42852596Y-4352608D01*
X42794244Y-4557688D01*
X42774571Y-4770000D01*
X42545429Y-4770000D01*
X42525756Y-4557690D01*
X42467405Y-4352611D01*
X42372366Y-4161745D01*
X42243872Y-3991593D01*
X42116119Y-3875130D01*
X42086307Y-3847952D01*
X42086300Y-3847946D01*
X41905024Y-3735705D01*
X41905019Y-3735702D01*
X41706198Y-3658679D01*
X41706197Y-3658678D01*
X41706195Y-3658678D01*
X41496610Y-3619500D01*
X41283390Y-3619500D01*
X41073804Y-3658678D01*
X40874980Y-3735702D01*
X40874975Y-3735705D01*
X40693699Y-3847946D01*
X40693692Y-3847952D01*
X40536135Y-3991586D01*
X40536131Y-3991589D01*
X40536128Y-3991593D01*
X40536125Y-3991597D01*
X40407635Y-4161743D01*
X40407630Y-4161752D01*
X40312596Y-4352608D01*
X40254244Y-4557688D01*
X40234571Y-4770000D01*
X40005429Y-4770000D01*
X39985756Y-4557690D01*
X39927405Y-4352611D01*
X39832366Y-4161745D01*
X39703872Y-3991593D01*
X39576119Y-3875130D01*
X39546307Y-3847952D01*
X39546300Y-3847946D01*
X39365024Y-3735705D01*
X39365019Y-3735702D01*
X39166198Y-3658679D01*
X39166197Y-3658678D01*
X39166195Y-3658678D01*
X38956610Y-3619500D01*
X38743390Y-3619500D01*
X38533804Y-3658678D01*
X38334980Y-3735702D01*
X38334975Y-3735705D01*
X38153699Y-3847946D01*
X38153692Y-3847952D01*
X37996135Y-3991586D01*
X37996131Y-3991589D01*
X37996128Y-3991593D01*
X37996125Y-3991597D01*
X37867635Y-4161743D01*
X37867630Y-4161752D01*
X37772596Y-4352608D01*
X37714244Y-4557688D01*
X37694571Y-4770000D01*
X37465429Y-4770000D01*
X37445756Y-4557690D01*
X37387405Y-4352611D01*
X37292366Y-4161745D01*
X37163872Y-3991593D01*
X37036119Y-3875130D01*
X37006307Y-3847952D01*
X37006300Y-3847946D01*
X36825024Y-3735705D01*
X36825019Y-3735702D01*
X36626198Y-3658679D01*
X36626197Y-3658678D01*
X36626195Y-3658678D01*
X36416610Y-3619500D01*
X36203390Y-3619500D01*
X35993804Y-3658678D01*
X35794980Y-3735702D01*
X35794975Y-3735705D01*
X35613699Y-3847946D01*
X35613692Y-3847952D01*
X35456135Y-3991586D01*
X35456131Y-3991589D01*
X35456128Y-3991593D01*
X35456125Y-3991597D01*
X35327635Y-4161743D01*
X35327630Y-4161752D01*
X35232596Y-4352608D01*
X35174244Y-4557688D01*
X35154571Y-4770000D01*
X34925429Y-4770000D01*
X34905756Y-4557690D01*
X34847405Y-4352611D01*
X34752366Y-4161745D01*
X34623872Y-3991593D01*
X34496119Y-3875130D01*
X34466307Y-3847952D01*
X34466300Y-3847946D01*
X34285024Y-3735705D01*
X34285019Y-3735702D01*
X34086198Y-3658679D01*
X34086197Y-3658678D01*
X34086195Y-3658678D01*
X33876610Y-3619500D01*
X33663390Y-3619500D01*
X33453804Y-3658678D01*
X33254980Y-3735702D01*
X33254975Y-3735705D01*
X33073699Y-3847946D01*
X33073692Y-3847952D01*
X32916135Y-3991586D01*
X32916131Y-3991589D01*
X32916128Y-3991593D01*
X32916125Y-3991597D01*
X32787635Y-4161743D01*
X32787630Y-4161752D01*
X32692596Y-4352608D01*
X32634244Y-4557688D01*
X32614571Y-4770000D01*
X32385429Y-4770000D01*
X32365756Y-4557690D01*
X32307405Y-4352611D01*
X32212366Y-4161745D01*
X32083872Y-3991593D01*
X31956119Y-3875130D01*
X31926307Y-3847952D01*
X31926300Y-3847946D01*
X31745024Y-3735705D01*
X31745019Y-3735702D01*
X31546198Y-3658679D01*
X31546197Y-3658678D01*
X31546195Y-3658678D01*
X31336610Y-3619500D01*
X31123390Y-3619500D01*
X30913804Y-3658678D01*
X30714980Y-3735702D01*
X30714975Y-3735705D01*
X30533699Y-3847946D01*
X30533692Y-3847952D01*
X30376135Y-3991586D01*
X30376131Y-3991589D01*
X30376128Y-3991593D01*
X30376125Y-3991597D01*
X30247635Y-4161743D01*
X30247630Y-4161752D01*
X30152596Y-4352608D01*
X30094244Y-4557688D01*
X30074571Y-4770000D01*
X29845429Y-4770000D01*
X29825756Y-4557690D01*
X29767405Y-4352611D01*
X29672366Y-4161745D01*
X29543872Y-3991593D01*
X29416119Y-3875130D01*
X29386307Y-3847952D01*
X29386300Y-3847946D01*
X29205024Y-3735705D01*
X29205019Y-3735702D01*
X29006198Y-3658679D01*
X29006197Y-3658678D01*
X29006195Y-3658678D01*
X28796610Y-3619500D01*
X28583390Y-3619500D01*
X28373804Y-3658678D01*
X28174980Y-3735702D01*
X28174975Y-3735705D01*
X27993699Y-3847946D01*
X27993692Y-3847952D01*
X27836135Y-3991586D01*
X27836131Y-3991589D01*
X27836128Y-3991593D01*
X27836125Y-3991597D01*
X27707635Y-4161743D01*
X27707630Y-4161752D01*
X27612596Y-4352608D01*
X27554244Y-4557688D01*
X27534571Y-4770000D01*
X27305429Y-4770000D01*
X27285756Y-4557690D01*
X27227405Y-4352611D01*
X27132366Y-4161745D01*
X27003872Y-3991593D01*
X26876119Y-3875130D01*
X26846307Y-3847952D01*
X26846300Y-3847946D01*
X26665024Y-3735705D01*
X26665019Y-3735702D01*
X26466198Y-3658679D01*
X26466197Y-3658678D01*
X26466195Y-3658678D01*
X26256610Y-3619500D01*
X26043390Y-3619500D01*
X25833804Y-3658678D01*
X25634980Y-3735702D01*
X25634975Y-3735705D01*
X25453699Y-3847946D01*
X25453692Y-3847952D01*
X25296135Y-3991586D01*
X25296131Y-3991589D01*
X25296128Y-3991593D01*
X25296125Y-3991597D01*
X25167635Y-4161743D01*
X25167630Y-4161752D01*
X25072596Y-4352608D01*
X25014244Y-4557688D01*
X24994571Y-4770000D01*
X24765429Y-4770000D01*
X24745756Y-4557690D01*
X24687405Y-4352611D01*
X24592366Y-4161745D01*
X24463872Y-3991593D01*
X24336119Y-3875130D01*
X24306307Y-3847952D01*
X24306300Y-3847946D01*
X24125024Y-3735705D01*
X24125019Y-3735702D01*
X23926198Y-3658679D01*
X23926197Y-3658678D01*
X23926195Y-3658678D01*
X23716610Y-3619500D01*
X23503390Y-3619500D01*
X23293804Y-3658678D01*
X23094980Y-3735702D01*
X23094975Y-3735705D01*
X22913699Y-3847946D01*
X22913692Y-3847952D01*
X22756135Y-3991586D01*
X22756131Y-3991589D01*
X22756128Y-3991593D01*
X22756125Y-3991597D01*
X22627635Y-4161743D01*
X22627630Y-4161752D01*
X22532596Y-4352608D01*
X22474244Y-4557688D01*
X22454571Y-4770000D01*
X22225429Y-4770000D01*
X22205756Y-4557690D01*
X22147405Y-4352611D01*
X22052366Y-4161745D01*
X21923872Y-3991593D01*
X21796119Y-3875130D01*
X21766307Y-3847952D01*
X21766300Y-3847946D01*
X21585024Y-3735705D01*
X21585019Y-3735702D01*
X21386198Y-3658679D01*
X21386197Y-3658678D01*
X21386195Y-3658678D01*
X21176610Y-3619500D01*
X20963390Y-3619500D01*
X20753804Y-3658678D01*
X20554980Y-3735702D01*
X20554975Y-3735705D01*
X20373699Y-3847946D01*
X20373692Y-3847952D01*
X20216135Y-3991586D01*
X20216131Y-3991589D01*
X20216128Y-3991593D01*
X20216125Y-3991597D01*
X20087635Y-4161743D01*
X20087630Y-4161752D01*
X19992596Y-4352608D01*
X19934244Y-4557688D01*
X19914571Y-4770000D01*
X19685429Y-4770000D01*
X19665756Y-4557690D01*
X19607405Y-4352611D01*
X19512366Y-4161745D01*
X19383872Y-3991593D01*
X19256119Y-3875130D01*
X19226307Y-3847952D01*
X19226300Y-3847946D01*
X19045024Y-3735705D01*
X19045019Y-3735702D01*
X18846198Y-3658679D01*
X18846197Y-3658678D01*
X18846195Y-3658678D01*
X18636610Y-3619500D01*
X18423390Y-3619500D01*
X18213804Y-3658678D01*
X18014980Y-3735702D01*
X18014975Y-3735705D01*
X17833699Y-3847946D01*
X17833692Y-3847952D01*
X17676135Y-3991586D01*
X17676131Y-3991589D01*
X17676128Y-3991593D01*
X17676125Y-3991597D01*
X17547635Y-4161743D01*
X17547630Y-4161752D01*
X17452596Y-4352608D01*
X17394244Y-4557688D01*
X17374571Y-4770000D01*
X17145429Y-4770000D01*
X17125756Y-4557690D01*
X17067405Y-4352611D01*
X16972366Y-4161745D01*
X16843872Y-3991593D01*
X16716119Y-3875130D01*
X16686307Y-3847952D01*
X16686300Y-3847946D01*
X16505024Y-3735705D01*
X16505019Y-3735702D01*
X16306198Y-3658679D01*
X16306197Y-3658678D01*
X16306195Y-3658678D01*
X16096610Y-3619500D01*
X15883390Y-3619500D01*
X15673804Y-3658678D01*
X15474980Y-3735702D01*
X15474975Y-3735705D01*
X15293699Y-3847946D01*
X15293692Y-3847952D01*
X15136135Y-3991586D01*
X15136131Y-3991589D01*
X15136128Y-3991593D01*
X15136125Y-3991597D01*
X15007635Y-4161743D01*
X15007630Y-4161752D01*
X14912596Y-4352608D01*
X14854244Y-4557688D01*
X14834571Y-4770000D01*
X14605429Y-4770000D01*
X14585756Y-4557690D01*
X14527405Y-4352611D01*
X14432366Y-4161745D01*
X14303872Y-3991593D01*
X14176119Y-3875130D01*
X14146307Y-3847952D01*
X14146300Y-3847946D01*
X13965024Y-3735705D01*
X13965019Y-3735702D01*
X13766198Y-3658679D01*
X13766197Y-3658678D01*
X13766195Y-3658678D01*
X13556610Y-3619500D01*
X13343390Y-3619500D01*
X13133804Y-3658678D01*
X12934980Y-3735702D01*
X12934975Y-3735705D01*
X12753699Y-3847946D01*
X12753692Y-3847952D01*
X12596135Y-3991586D01*
X12596131Y-3991589D01*
X12596128Y-3991593D01*
X12596125Y-3991597D01*
X12467635Y-4161743D01*
X12467630Y-4161752D01*
X12372596Y-4352608D01*
X12314244Y-4557688D01*
X12294571Y-4770000D01*
X12065429Y-4770000D01*
X12045756Y-4557690D01*
X11987405Y-4352611D01*
X11892366Y-4161745D01*
X11763872Y-3991593D01*
X11636119Y-3875130D01*
X11606307Y-3847952D01*
X11606300Y-3847946D01*
X11425024Y-3735705D01*
X11425019Y-3735702D01*
X11226198Y-3658679D01*
X11226197Y-3658678D01*
X11226195Y-3658678D01*
X11016610Y-3619500D01*
X10803390Y-3619500D01*
X10593804Y-3658678D01*
X10394980Y-3735702D01*
X10394975Y-3735705D01*
X10213699Y-3847946D01*
X10213692Y-3847952D01*
X10056135Y-3991586D01*
X10056131Y-3991589D01*
X10056128Y-3991593D01*
X10056125Y-3991597D01*
X9927635Y-4161743D01*
X9927630Y-4161752D01*
X9832596Y-4352608D01*
X9774244Y-4557688D01*
X9754571Y-4770000D01*
X9520499Y-4770000D01*
X9520499Y-3875136D01*
X9517585Y-3850009D01*
X9472206Y-3747235D01*
X9392765Y-3667794D01*
X9289991Y-3622415D01*
X9289990Y-3622414D01*
X9289988Y-3622414D01*
X9264868Y-3619500D01*
X7475139Y-3619500D01*
X7475136Y-3619501D01*
X7450009Y-3622414D01*
X7347235Y-3667794D01*
X7267794Y-3747235D01*
X7222414Y-3850011D01*
X7219500Y-3875130D01*
X7219500Y-5664860D01*
X5034505Y-5664860D01*
X5260819Y-5487554D01*
X5487554Y-5260819D01*
X5685306Y-5008408D01*
X5851191Y-4734000D01*
X5982791Y-4441598D01*
X6078186Y-4135466D01*
X6125893Y-3875136D01*
X6135983Y-3820080D01*
X6135986Y-3820055D01*
X6155345Y-3500006D01*
X6155345Y-3499993D01*
X6135986Y-3179944D01*
X6135983Y-3179919D01*
X6098622Y-2976050D01*
X6078186Y-2864534D01*
X6016787Y-2667500D01*
X7413265Y-2667500D01*
X7492730Y-2816169D01*
X7623940Y-2976050D01*
X7623949Y-2976059D01*
X7783828Y-3107267D01*
X7932500Y-3186732D01*
X8807500Y-3186732D01*
X8956171Y-3107267D01*
X9116050Y-2976059D01*
X9116059Y-2976050D01*
X9247269Y-2816169D01*
X9326735Y-2667500D01*
X9953265Y-2667500D01*
X10032730Y-2816169D01*
X10163940Y-2976050D01*
X10163949Y-2976059D01*
X10323828Y-3107267D01*
X10472500Y-3186732D01*
X11347500Y-3186732D01*
X11496171Y-3107267D01*
X11656050Y-2976059D01*
X11656059Y-2976050D01*
X11787269Y-2816169D01*
X11866735Y-2667500D01*
X11347501Y-2667500D01*
X11347500Y-2667501D01*
X11347500Y-3186732D01*
X10472500Y-3186732D01*
X10472500Y-2667501D01*
X10472499Y-2667500D01*
X9953265Y-2667500D01*
X9326735Y-2667500D01*
X8807501Y-2667500D01*
X8807500Y-2667501D01*
X8807500Y-3186732D01*
X7932500Y-3186732D01*
X7932500Y-2667501D01*
X7932499Y-2667500D01*
X7413265Y-2667500D01*
X6016787Y-2667500D01*
X5982791Y-2558402D01*
X5867343Y-2301889D01*
X7870000Y-2301889D01*
X7910507Y-2439844D01*
X7988239Y-2560798D01*
X8096900Y-2654952D01*
X8227685Y-2714680D01*
X8334237Y-2730000D01*
X8405763Y-2730000D01*
X8512315Y-2714680D01*
X8643100Y-2654952D01*
X8751761Y-2560798D01*
X8829493Y-2439844D01*
X8870000Y-2301889D01*
X10410000Y-2301889D01*
X10450507Y-2439844D01*
X10528239Y-2560798D01*
X10636900Y-2654952D01*
X10767685Y-2714680D01*
X10874237Y-2730000D01*
X10945763Y-2730000D01*
X11052315Y-2714680D01*
X11183100Y-2654952D01*
X11291761Y-2560798D01*
X11369493Y-2439844D01*
X11410000Y-2301889D01*
X11410000Y-2230000D01*
X12294571Y-2230000D01*
X12314244Y-2442310D01*
X12372595Y-2647389D01*
X12467634Y-2838255D01*
X12596128Y-3008407D01*
X12596135Y-3008413D01*
X12753692Y-3152047D01*
X12753699Y-3152053D01*
X12798729Y-3179934D01*
X12934981Y-3264298D01*
X13133802Y-3341321D01*
X13343390Y-3380500D01*
X13556610Y-3380500D01*
X13766198Y-3341321D01*
X13965019Y-3264298D01*
X14146302Y-3152052D01*
X14303872Y-3008407D01*
X14432366Y-2838255D01*
X14527405Y-2647389D01*
X14585756Y-2442310D01*
X14605429Y-2230000D01*
X14834571Y-2230000D01*
X14854244Y-2442310D01*
X14912595Y-2647389D01*
X15007634Y-2838255D01*
X15136128Y-3008407D01*
X15136135Y-3008413D01*
X15293692Y-3152047D01*
X15293699Y-3152053D01*
X15338729Y-3179934D01*
X15474981Y-3264298D01*
X15673802Y-3341321D01*
X15883390Y-3380500D01*
X16096610Y-3380500D01*
X16306198Y-3341321D01*
X16505019Y-3264298D01*
X16686302Y-3152052D01*
X16843872Y-3008407D01*
X16972366Y-2838255D01*
X17067405Y-2647389D01*
X17125756Y-2442310D01*
X17145429Y-2230000D01*
X17374571Y-2230000D01*
X17394244Y-2442310D01*
X17452595Y-2647389D01*
X17547634Y-2838255D01*
X17676128Y-3008407D01*
X17676135Y-3008413D01*
X17833692Y-3152047D01*
X17833699Y-3152053D01*
X17878729Y-3179934D01*
X18014981Y-3264298D01*
X18213802Y-3341321D01*
X18423390Y-3380500D01*
X18636610Y-3380500D01*
X18846198Y-3341321D01*
X19045019Y-3264298D01*
X19226302Y-3152052D01*
X19383872Y-3008407D01*
X19512366Y-2838255D01*
X19607405Y-2647389D01*
X19665756Y-2442310D01*
X19685429Y-2230000D01*
X19914571Y-2230000D01*
X19934244Y-2442310D01*
X19992595Y-2647389D01*
X20087634Y-2838255D01*
X20216128Y-3008407D01*
X20216135Y-3008413D01*
X20373692Y-3152047D01*
X20373699Y-3152053D01*
X20418729Y-3179934D01*
X20554981Y-3264298D01*
X20753802Y-3341321D01*
X20963390Y-3380500D01*
X21176610Y-3380500D01*
X21386198Y-3341321D01*
X21585019Y-3264298D01*
X21766302Y-3152052D01*
X21923872Y-3008407D01*
X22052366Y-2838255D01*
X22147405Y-2647389D01*
X22205756Y-2442310D01*
X22225429Y-2230000D01*
X22454571Y-2230000D01*
X22474244Y-2442310D01*
X22532595Y-2647389D01*
X22627634Y-2838255D01*
X22756128Y-3008407D01*
X22756135Y-3008413D01*
X22913692Y-3152047D01*
X22913699Y-3152053D01*
X22958729Y-3179934D01*
X23094981Y-3264298D01*
X23293802Y-3341321D01*
X23503390Y-3380500D01*
X23716610Y-3380500D01*
X23926198Y-3341321D01*
X24125019Y-3264298D01*
X24306302Y-3152052D01*
X24463872Y-3008407D01*
X24592366Y-2838255D01*
X24687405Y-2647389D01*
X24745756Y-2442310D01*
X24765429Y-2230000D01*
X24994571Y-2230000D01*
X25014244Y-2442310D01*
X25072595Y-2647389D01*
X25167634Y-2838255D01*
X25296128Y-3008407D01*
X25296135Y-3008413D01*
X25453692Y-3152047D01*
X25453699Y-3152053D01*
X25498729Y-3179934D01*
X25634981Y-3264298D01*
X25833802Y-3341321D01*
X26043390Y-3380500D01*
X26256610Y-3380500D01*
X26466198Y-3341321D01*
X26665019Y-3264298D01*
X26846302Y-3152052D01*
X27003872Y-3008407D01*
X27132366Y-2838255D01*
X27227405Y-2647389D01*
X27285756Y-2442310D01*
X27305429Y-2230000D01*
X27534571Y-2230000D01*
X27554244Y-2442310D01*
X27612595Y-2647389D01*
X27707634Y-2838255D01*
X27836128Y-3008407D01*
X27836135Y-3008413D01*
X27993692Y-3152047D01*
X27993699Y-3152053D01*
X28038729Y-3179934D01*
X28174981Y-3264298D01*
X28373802Y-3341321D01*
X28583390Y-3380500D01*
X28796610Y-3380500D01*
X29006198Y-3341321D01*
X29205019Y-3264298D01*
X29386302Y-3152052D01*
X29543872Y-3008407D01*
X29672366Y-2838255D01*
X29767405Y-2647389D01*
X29825756Y-2442310D01*
X29845429Y-2230000D01*
X30074571Y-2230000D01*
X30094244Y-2442310D01*
X30152595Y-2647389D01*
X30247634Y-2838255D01*
X30376128Y-3008407D01*
X30376135Y-3008413D01*
X30533692Y-3152047D01*
X30533699Y-3152053D01*
X30578729Y-3179934D01*
X30714981Y-3264298D01*
X30913802Y-3341321D01*
X31123390Y-3380500D01*
X31336610Y-3380500D01*
X31546198Y-3341321D01*
X31745019Y-3264298D01*
X31926302Y-3152052D01*
X32083872Y-3008407D01*
X32212366Y-2838255D01*
X32307405Y-2647389D01*
X32365756Y-2442310D01*
X32385429Y-2230000D01*
X32614571Y-2230000D01*
X32634244Y-2442310D01*
X32692595Y-2647389D01*
X32787634Y-2838255D01*
X32916128Y-3008407D01*
X32916135Y-3008413D01*
X33073692Y-3152047D01*
X33073699Y-3152053D01*
X33118729Y-3179934D01*
X33254981Y-3264298D01*
X33453802Y-3341321D01*
X33663390Y-3380500D01*
X33876610Y-3380500D01*
X34086198Y-3341321D01*
X34285019Y-3264298D01*
X34466302Y-3152052D01*
X34623872Y-3008407D01*
X34752366Y-2838255D01*
X34847405Y-2647389D01*
X34905756Y-2442310D01*
X34925429Y-2230000D01*
X35154571Y-2230000D01*
X35174244Y-2442310D01*
X35232595Y-2647389D01*
X35327634Y-2838255D01*
X35456128Y-3008407D01*
X35456135Y-3008413D01*
X35613692Y-3152047D01*
X35613699Y-3152053D01*
X35658729Y-3179934D01*
X35794981Y-3264298D01*
X35993802Y-3341321D01*
X36203390Y-3380500D01*
X36416610Y-3380500D01*
X36626198Y-3341321D01*
X36825019Y-3264298D01*
X37006302Y-3152052D01*
X37163872Y-3008407D01*
X37292366Y-2838255D01*
X37387405Y-2647389D01*
X37445756Y-2442310D01*
X37465429Y-2230000D01*
X37694571Y-2230000D01*
X37714244Y-2442310D01*
X37772595Y-2647389D01*
X37867634Y-2838255D01*
X37996128Y-3008407D01*
X37996135Y-3008413D01*
X38153692Y-3152047D01*
X38153699Y-3152053D01*
X38198729Y-3179934D01*
X38334981Y-3264298D01*
X38533802Y-3341321D01*
X38743390Y-3380500D01*
X38956610Y-3380500D01*
X39166198Y-3341321D01*
X39365019Y-3264298D01*
X39546302Y-3152052D01*
X39703872Y-3008407D01*
X39832366Y-2838255D01*
X39927405Y-2647389D01*
X39985756Y-2442310D01*
X40005429Y-2230000D01*
X40234571Y-2230000D01*
X40254244Y-2442310D01*
X40312595Y-2647389D01*
X40407634Y-2838255D01*
X40536128Y-3008407D01*
X40536135Y-3008413D01*
X40693692Y-3152047D01*
X40693699Y-3152053D01*
X40738729Y-3179934D01*
X40874981Y-3264298D01*
X41073802Y-3341321D01*
X41283390Y-3380500D01*
X41496610Y-3380500D01*
X41706198Y-3341321D01*
X41905019Y-3264298D01*
X42086302Y-3152052D01*
X42243872Y-3008407D01*
X42372366Y-2838255D01*
X42467405Y-2647389D01*
X42525756Y-2442310D01*
X42545429Y-2230000D01*
X42774571Y-2230000D01*
X42794244Y-2442310D01*
X42852595Y-2647389D01*
X42947634Y-2838255D01*
X43076128Y-3008407D01*
X43076135Y-3008413D01*
X43233692Y-3152047D01*
X43233699Y-3152053D01*
X43278729Y-3179934D01*
X43414981Y-3264298D01*
X43613802Y-3341321D01*
X43823390Y-3380500D01*
X44036610Y-3380500D01*
X44246198Y-3341321D01*
X44445019Y-3264298D01*
X44626302Y-3152052D01*
X44783872Y-3008407D01*
X44912366Y-2838255D01*
X45007405Y-2647389D01*
X45065756Y-2442310D01*
X45085429Y-2230000D01*
X45314571Y-2230000D01*
X45334244Y-2442310D01*
X45392595Y-2647389D01*
X45487634Y-2838255D01*
X45616128Y-3008407D01*
X45616135Y-3008413D01*
X45773692Y-3152047D01*
X45773699Y-3152053D01*
X45818729Y-3179934D01*
X45954981Y-3264298D01*
X46153802Y-3341321D01*
X46363390Y-3380500D01*
X46576610Y-3380500D01*
X46786198Y-3341321D01*
X46985019Y-3264298D01*
X47166302Y-3152052D01*
X47323872Y-3008407D01*
X47452366Y-2838255D01*
X47547405Y-2647389D01*
X47605756Y-2442310D01*
X47625429Y-2230000D01*
X47854571Y-2230000D01*
X47874244Y-2442310D01*
X47932595Y-2647389D01*
X48027634Y-2838255D01*
X48156128Y-3008407D01*
X48156135Y-3008413D01*
X48313692Y-3152047D01*
X48313699Y-3152053D01*
X48358729Y-3179934D01*
X48494981Y-3264298D01*
X48693802Y-3341321D01*
X48903390Y-3380500D01*
X49116610Y-3380500D01*
X49326198Y-3341321D01*
X49525019Y-3264298D01*
X49706302Y-3152052D01*
X49863872Y-3008407D01*
X49992366Y-2838255D01*
X50087405Y-2647389D01*
X50145756Y-2442310D01*
X50165429Y-2230000D01*
X50394571Y-2230000D01*
X50414244Y-2442310D01*
X50472595Y-2647389D01*
X50567634Y-2838255D01*
X50696128Y-3008407D01*
X50696135Y-3008413D01*
X50853692Y-3152047D01*
X50853699Y-3152053D01*
X50898729Y-3179934D01*
X51034981Y-3264298D01*
X51233802Y-3341321D01*
X51443390Y-3380500D01*
X51656610Y-3380500D01*
X51866198Y-3341321D01*
X52065019Y-3264298D01*
X52246302Y-3152052D01*
X52403872Y-3008407D01*
X52532366Y-2838255D01*
X52627405Y-2647389D01*
X52685756Y-2442310D01*
X52705429Y-2230000D01*
X52934571Y-2230000D01*
X52954244Y-2442310D01*
X53012595Y-2647389D01*
X53107634Y-2838255D01*
X53236128Y-3008407D01*
X53236135Y-3008413D01*
X53393692Y-3152047D01*
X53393699Y-3152053D01*
X53438729Y-3179934D01*
X53574981Y-3264298D01*
X53773802Y-3341321D01*
X53983390Y-3380500D01*
X54196610Y-3380500D01*
X54406198Y-3341321D01*
X54605019Y-3264298D01*
X54786302Y-3152052D01*
X54943872Y-3008407D01*
X55072366Y-2838255D01*
X55167405Y-2647389D01*
X55225756Y-2442310D01*
X55245429Y-2230000D01*
X55225756Y-2017690D01*
X55167405Y-1812611D01*
X55072366Y-1621745D01*
X54943872Y-1451593D01*
X54889623Y-1402139D01*
X54786307Y-1307952D01*
X54786300Y-1307946D01*
X54605024Y-1195705D01*
X54605019Y-1195702D01*
X54406195Y-1118678D01*
X54196610Y-1079500D01*
X53983390Y-1079500D01*
X53773804Y-1118678D01*
X53574980Y-1195702D01*
X53574975Y-1195705D01*
X53393699Y-1307946D01*
X53393692Y-1307952D01*
X53236135Y-1451586D01*
X53236131Y-1451589D01*
X53236128Y-1451593D01*
X53236125Y-1451597D01*
X53107635Y-1621743D01*
X53107630Y-1621752D01*
X53012596Y-1812608D01*
X52954244Y-2017688D01*
X52954244Y-2017690D01*
X52934571Y-2230000D01*
X52705429Y-2230000D01*
X52685756Y-2017690D01*
X52627405Y-1812611D01*
X52532366Y-1621745D01*
X52403872Y-1451593D01*
X52349623Y-1402139D01*
X52246307Y-1307952D01*
X52246300Y-1307946D01*
X52065024Y-1195705D01*
X52065019Y-1195702D01*
X51866195Y-1118678D01*
X51656610Y-1079500D01*
X51443390Y-1079500D01*
X51233804Y-1118678D01*
X51034980Y-1195702D01*
X51034975Y-1195705D01*
X50853699Y-1307946D01*
X50853692Y-1307952D01*
X50696135Y-1451586D01*
X50696131Y-1451589D01*
X50696128Y-1451593D01*
X50696125Y-1451597D01*
X50567635Y-1621743D01*
X50567630Y-1621752D01*
X50472596Y-1812608D01*
X50414244Y-2017688D01*
X50414244Y-2017690D01*
X50394571Y-2230000D01*
X50165429Y-2230000D01*
X50145756Y-2017690D01*
X50087405Y-1812611D01*
X49992366Y-1621745D01*
X49863872Y-1451593D01*
X49809623Y-1402139D01*
X49706307Y-1307952D01*
X49706300Y-1307946D01*
X49525024Y-1195705D01*
X49525019Y-1195702D01*
X49326195Y-1118678D01*
X49116610Y-1079500D01*
X48903390Y-1079500D01*
X48693804Y-1118678D01*
X48494980Y-1195702D01*
X48494975Y-1195705D01*
X48313699Y-1307946D01*
X48313692Y-1307952D01*
X48156135Y-1451586D01*
X48156131Y-1451589D01*
X48156128Y-1451593D01*
X48156125Y-1451597D01*
X48027635Y-1621743D01*
X48027630Y-1621752D01*
X47932596Y-1812608D01*
X47874244Y-2017688D01*
X47874244Y-2017690D01*
X47854571Y-2230000D01*
X47625429Y-2230000D01*
X47605756Y-2017690D01*
X47547405Y-1812611D01*
X47452366Y-1621745D01*
X47323872Y-1451593D01*
X47269623Y-1402139D01*
X47166307Y-1307952D01*
X47166300Y-1307946D01*
X46985024Y-1195705D01*
X46985019Y-1195702D01*
X46786195Y-1118678D01*
X46576610Y-1079500D01*
X46363390Y-1079500D01*
X46153804Y-1118678D01*
X45954980Y-1195702D01*
X45954975Y-1195705D01*
X45773699Y-1307946D01*
X45773692Y-1307952D01*
X45616135Y-1451586D01*
X45616131Y-1451589D01*
X45616128Y-1451593D01*
X45616125Y-1451597D01*
X45487635Y-1621743D01*
X45487630Y-1621752D01*
X45392596Y-1812608D01*
X45334244Y-2017688D01*
X45334244Y-2017690D01*
X45314571Y-2230000D01*
X45085429Y-2230000D01*
X45065756Y-2017690D01*
X45007405Y-1812611D01*
X44912366Y-1621745D01*
X44783872Y-1451593D01*
X44729623Y-1402139D01*
X44626307Y-1307952D01*
X44626300Y-1307946D01*
X44445024Y-1195705D01*
X44445019Y-1195702D01*
X44246195Y-1118678D01*
X44036610Y-1079500D01*
X43823390Y-1079500D01*
X43613804Y-1118678D01*
X43414980Y-1195702D01*
X43414975Y-1195705D01*
X43233699Y-1307946D01*
X43233692Y-1307952D01*
X43076135Y-1451586D01*
X43076131Y-1451589D01*
X43076128Y-1451593D01*
X43076125Y-1451597D01*
X42947635Y-1621743D01*
X42947630Y-1621752D01*
X42852596Y-1812608D01*
X42794244Y-2017688D01*
X42794244Y-2017690D01*
X42774571Y-2230000D01*
X42545429Y-2230000D01*
X42525756Y-2017690D01*
X42467405Y-1812611D01*
X42372366Y-1621745D01*
X42243872Y-1451593D01*
X42189623Y-1402139D01*
X42086307Y-1307952D01*
X42086300Y-1307946D01*
X41905024Y-1195705D01*
X41905019Y-1195702D01*
X41706195Y-1118678D01*
X41496610Y-1079500D01*
X41283390Y-1079500D01*
X41073804Y-1118678D01*
X40874980Y-1195702D01*
X40874975Y-1195705D01*
X40693699Y-1307946D01*
X40693692Y-1307952D01*
X40536135Y-1451586D01*
X40536131Y-1451589D01*
X40536128Y-1451593D01*
X40536125Y-1451597D01*
X40407635Y-1621743D01*
X40407630Y-1621752D01*
X40312596Y-1812608D01*
X40254244Y-2017688D01*
X40254244Y-2017690D01*
X40234571Y-2230000D01*
X40005429Y-2230000D01*
X39985756Y-2017690D01*
X39927405Y-1812611D01*
X39832366Y-1621745D01*
X39703872Y-1451593D01*
X39649623Y-1402139D01*
X39546307Y-1307952D01*
X39546300Y-1307946D01*
X39365024Y-1195705D01*
X39365019Y-1195702D01*
X39166195Y-1118678D01*
X38956610Y-1079500D01*
X38743390Y-1079500D01*
X38533804Y-1118678D01*
X38334980Y-1195702D01*
X38334975Y-1195705D01*
X38153699Y-1307946D01*
X38153692Y-1307952D01*
X37996135Y-1451586D01*
X37996131Y-1451589D01*
X37996128Y-1451593D01*
X37996125Y-1451597D01*
X37867635Y-1621743D01*
X37867630Y-1621752D01*
X37772596Y-1812608D01*
X37714244Y-2017688D01*
X37714244Y-2017690D01*
X37694571Y-2230000D01*
X37465429Y-2230000D01*
X37445756Y-2017690D01*
X37387405Y-1812611D01*
X37292366Y-1621745D01*
X37163872Y-1451593D01*
X37109623Y-1402139D01*
X37006307Y-1307952D01*
X37006300Y-1307946D01*
X36825024Y-1195705D01*
X36825019Y-1195702D01*
X36626195Y-1118678D01*
X36416610Y-1079500D01*
X36203390Y-1079500D01*
X35993804Y-1118678D01*
X35794980Y-1195702D01*
X35794975Y-1195705D01*
X35613699Y-1307946D01*
X35613692Y-1307952D01*
X35456135Y-1451586D01*
X35456131Y-1451589D01*
X35456128Y-1451593D01*
X35456125Y-1451597D01*
X35327635Y-1621743D01*
X35327630Y-1621752D01*
X35232596Y-1812608D01*
X35174244Y-2017688D01*
X35174244Y-2017690D01*
X35154571Y-2230000D01*
X34925429Y-2230000D01*
X34905756Y-2017690D01*
X34847405Y-1812611D01*
X34752366Y-1621745D01*
X34623872Y-1451593D01*
X34569623Y-1402139D01*
X34466307Y-1307952D01*
X34466300Y-1307946D01*
X34285024Y-1195705D01*
X34285019Y-1195702D01*
X34086195Y-1118678D01*
X33876610Y-1079500D01*
X33663390Y-1079500D01*
X33453804Y-1118678D01*
X33254980Y-1195702D01*
X33254975Y-1195705D01*
X33073699Y-1307946D01*
X33073692Y-1307952D01*
X32916135Y-1451586D01*
X32916131Y-1451589D01*
X32916128Y-1451593D01*
X32916125Y-1451597D01*
X32787635Y-1621743D01*
X32787630Y-1621752D01*
X32692596Y-1812608D01*
X32634244Y-2017688D01*
X32634244Y-2017690D01*
X32614571Y-2230000D01*
X32385429Y-2230000D01*
X32365756Y-2017690D01*
X32307405Y-1812611D01*
X32212366Y-1621745D01*
X32083872Y-1451593D01*
X32029623Y-1402139D01*
X31926307Y-1307952D01*
X31926300Y-1307946D01*
X31745024Y-1195705D01*
X31745019Y-1195702D01*
X31546195Y-1118678D01*
X31336610Y-1079500D01*
X31123390Y-1079500D01*
X30913804Y-1118678D01*
X30714980Y-1195702D01*
X30714975Y-1195705D01*
X30533699Y-1307946D01*
X30533692Y-1307952D01*
X30376135Y-1451586D01*
X30376131Y-1451589D01*
X30376128Y-1451593D01*
X30376125Y-1451597D01*
X30247635Y-1621743D01*
X30247630Y-1621752D01*
X30152596Y-1812608D01*
X30094244Y-2017688D01*
X30094244Y-2017690D01*
X30074571Y-2230000D01*
X29845429Y-2230000D01*
X29825756Y-2017690D01*
X29767405Y-1812611D01*
X29672366Y-1621745D01*
X29543872Y-1451593D01*
X29489623Y-1402139D01*
X29386307Y-1307952D01*
X29386300Y-1307946D01*
X29205024Y-1195705D01*
X29205019Y-1195702D01*
X29006195Y-1118678D01*
X28796610Y-1079500D01*
X28583390Y-1079500D01*
X28373804Y-1118678D01*
X28174980Y-1195702D01*
X28174975Y-1195705D01*
X27993699Y-1307946D01*
X27993692Y-1307952D01*
X27836135Y-1451586D01*
X27836131Y-1451589D01*
X27836128Y-1451593D01*
X27836125Y-1451597D01*
X27707635Y-1621743D01*
X27707630Y-1621752D01*
X27612596Y-1812608D01*
X27554244Y-2017688D01*
X27554244Y-2017690D01*
X27534571Y-2230000D01*
X27305429Y-2230000D01*
X27285756Y-2017690D01*
X27227405Y-1812611D01*
X27132366Y-1621745D01*
X27003872Y-1451593D01*
X26949623Y-1402139D01*
X26846307Y-1307952D01*
X26846300Y-1307946D01*
X26665024Y-1195705D01*
X26665019Y-1195702D01*
X26466195Y-1118678D01*
X26256610Y-1079500D01*
X26043390Y-1079500D01*
X25833804Y-1118678D01*
X25634980Y-1195702D01*
X25634975Y-1195705D01*
X25453699Y-1307946D01*
X25453692Y-1307952D01*
X25296135Y-1451586D01*
X25296131Y-1451589D01*
X25296128Y-1451593D01*
X25296125Y-1451597D01*
X25167635Y-1621743D01*
X25167630Y-1621752D01*
X25072596Y-1812608D01*
X25014244Y-2017688D01*
X25014244Y-2017690D01*
X24994571Y-2230000D01*
X24765429Y-2230000D01*
X24745756Y-2017690D01*
X24687405Y-1812611D01*
X24592366Y-1621745D01*
X24463872Y-1451593D01*
X24409623Y-1402139D01*
X24306307Y-1307952D01*
X24306300Y-1307946D01*
X24125024Y-1195705D01*
X24125019Y-1195702D01*
X23926195Y-1118678D01*
X23716610Y-1079500D01*
X23503390Y-1079500D01*
X23293804Y-1118678D01*
X23094980Y-1195702D01*
X23094975Y-1195705D01*
X22913699Y-1307946D01*
X22913692Y-1307952D01*
X22756135Y-1451586D01*
X22756131Y-1451589D01*
X22756128Y-1451593D01*
X22756125Y-1451597D01*
X22627635Y-1621743D01*
X22627630Y-1621752D01*
X22532596Y-1812608D01*
X22474244Y-2017688D01*
X22474244Y-2017690D01*
X22454571Y-2230000D01*
X22225429Y-2230000D01*
X22205756Y-2017690D01*
X22147405Y-1812611D01*
X22052366Y-1621745D01*
X21923872Y-1451593D01*
X21869623Y-1402139D01*
X21766307Y-1307952D01*
X21766300Y-1307946D01*
X21585024Y-1195705D01*
X21585019Y-1195702D01*
X21386195Y-1118678D01*
X21176610Y-1079500D01*
X20963390Y-1079500D01*
X20753804Y-1118678D01*
X20554980Y-1195702D01*
X20554975Y-1195705D01*
X20373699Y-1307946D01*
X20373692Y-1307952D01*
X20216135Y-1451586D01*
X20216131Y-1451589D01*
X20216128Y-1451593D01*
X20216125Y-1451597D01*
X20087635Y-1621743D01*
X20087630Y-1621752D01*
X19992596Y-1812608D01*
X19934244Y-2017688D01*
X19934244Y-2017690D01*
X19914571Y-2230000D01*
X19685429Y-2230000D01*
X19665756Y-2017690D01*
X19607405Y-1812611D01*
X19512366Y-1621745D01*
X19383872Y-1451593D01*
X19329623Y-1402139D01*
X19226307Y-1307952D01*
X19226300Y-1307946D01*
X19045024Y-1195705D01*
X19045019Y-1195702D01*
X18846195Y-1118678D01*
X18636610Y-1079500D01*
X18423390Y-1079500D01*
X18213804Y-1118678D01*
X18014980Y-1195702D01*
X18014975Y-1195705D01*
X17833699Y-1307946D01*
X17833692Y-1307952D01*
X17676135Y-1451586D01*
X17676131Y-1451589D01*
X17676128Y-1451593D01*
X17676125Y-1451597D01*
X17547635Y-1621743D01*
X17547630Y-1621752D01*
X17452596Y-1812608D01*
X17394244Y-2017688D01*
X17394244Y-2017690D01*
X17374571Y-2230000D01*
X17145429Y-2230000D01*
X17125756Y-2017690D01*
X17067405Y-1812611D01*
X16972366Y-1621745D01*
X16843872Y-1451593D01*
X16789623Y-1402139D01*
X16686307Y-1307952D01*
X16686300Y-1307946D01*
X16505024Y-1195705D01*
X16505019Y-1195702D01*
X16306195Y-1118678D01*
X16096610Y-1079500D01*
X15883390Y-1079500D01*
X15673804Y-1118678D01*
X15474980Y-1195702D01*
X15474975Y-1195705D01*
X15293699Y-1307946D01*
X15293692Y-1307952D01*
X15136135Y-1451586D01*
X15136131Y-1451589D01*
X15136128Y-1451593D01*
X15136125Y-1451597D01*
X15007635Y-1621743D01*
X15007630Y-1621752D01*
X14912596Y-1812608D01*
X14854244Y-2017688D01*
X14854244Y-2017690D01*
X14834571Y-2230000D01*
X14605429Y-2230000D01*
X14585756Y-2017690D01*
X14527405Y-1812611D01*
X14432366Y-1621745D01*
X14303872Y-1451593D01*
X14249623Y-1402139D01*
X14146307Y-1307952D01*
X14146300Y-1307946D01*
X13965024Y-1195705D01*
X13965019Y-1195702D01*
X13766195Y-1118678D01*
X13556610Y-1079500D01*
X13343390Y-1079500D01*
X13133804Y-1118678D01*
X12934980Y-1195702D01*
X12934975Y-1195705D01*
X12753699Y-1307946D01*
X12753692Y-1307952D01*
X12596135Y-1451586D01*
X12596131Y-1451589D01*
X12596128Y-1451593D01*
X12596125Y-1451597D01*
X12467635Y-1621743D01*
X12467630Y-1621752D01*
X12372596Y-1812608D01*
X12314244Y-2017688D01*
X12314244Y-2017690D01*
X12294571Y-2230000D01*
X11410000Y-2230000D01*
X11410000Y-2158111D01*
X11369493Y-2020156D01*
X11291761Y-1899202D01*
X11183100Y-1805048D01*
X11052315Y-1745320D01*
X10945763Y-1730000D01*
X10874237Y-1730000D01*
X10767685Y-1745320D01*
X10636900Y-1805048D01*
X10528239Y-1899202D01*
X10450507Y-2020156D01*
X10410000Y-2158111D01*
X10410000Y-2301889D01*
X8870000Y-2301889D01*
X8870000Y-2158111D01*
X8829493Y-2020156D01*
X8751761Y-1899202D01*
X8643100Y-1805048D01*
X8512315Y-1745320D01*
X8405763Y-1730000D01*
X8334237Y-1730000D01*
X8227685Y-1745320D01*
X8096900Y-1805048D01*
X7988239Y-1899202D01*
X7910507Y-2020156D01*
X7870000Y-2158111D01*
X7870000Y-2301889D01*
X5867343Y-2301889D01*
X5851191Y-2266000D01*
X5732853Y-2070245D01*
X5685314Y-1991605D01*
X5685312Y-1991603D01*
X5685306Y-1991592D01*
X5529326Y-1792499D01*
X7413264Y-1792499D01*
X7413265Y-1792500D01*
X7932499Y-1792500D01*
X7932500Y-1792499D01*
X7932500Y-1273265D01*
X7932499Y-1273264D01*
X8807500Y-1273264D01*
X8807500Y-1792499D01*
X8807501Y-1792500D01*
X9326735Y-1792500D01*
X9326735Y-1792499D01*
X9953264Y-1792499D01*
X9953265Y-1792500D01*
X10472499Y-1792500D01*
X10472500Y-1792499D01*
X10472500Y-1273265D01*
X10472499Y-1273264D01*
X11347500Y-1273264D01*
X11347500Y-1792499D01*
X11347501Y-1792500D01*
X11866735Y-1792500D01*
X11866735Y-1792499D01*
X11787269Y-1643830D01*
X11656059Y-1483949D01*
X11656050Y-1483940D01*
X11496169Y-1352730D01*
X11347500Y-1273264D01*
X10472499Y-1273264D01*
X10323830Y-1352730D01*
X10163949Y-1483940D01*
X10163940Y-1483949D01*
X10032730Y-1643830D01*
X9953264Y-1792499D01*
X9326735Y-1792499D01*
X9247269Y-1643830D01*
X9116059Y-1483949D01*
X9116050Y-1483940D01*
X8956169Y-1352730D01*
X8807500Y-1273264D01*
X7932499Y-1273264D01*
X7783830Y-1352730D01*
X7623949Y-1483940D01*
X7623940Y-1483949D01*
X7492730Y-1643830D01*
X7413264Y-1792499D01*
X5529326Y-1792499D01*
X5487554Y-1739181D01*
X5260819Y-1512446D01*
X5008408Y-1314694D01*
X5008400Y-1314689D01*
X5008394Y-1314685D01*
X4734014Y-1148817D01*
X4734008Y-1148813D01*
X4734000Y-1148809D01*
X4616262Y-1095819D01*
X4441599Y-1017209D01*
X4135463Y-921813D01*
X3820080Y-864016D01*
X3820055Y-864013D01*
X3500006Y-844655D01*
X3499994Y-844655D01*
X3179944Y-864013D01*
X3179919Y-864016D01*
X2864537Y-921813D01*
X2864535Y-921813D01*
X2558400Y-1017209D01*
X2266006Y-1148806D01*
X2265985Y-1148817D01*
X1991605Y-1314685D01*
X1991586Y-1314698D01*
X1739187Y-1512441D01*
X1739184Y-1512443D01*
X1512443Y-1739184D01*
X1512441Y-1739187D01*
X1314698Y-1991586D01*
X1314685Y-1991605D01*
X1148817Y-2265985D01*
X1148806Y-2266006D01*
X1017209Y-2558400D01*
X921813Y-2864535D01*
X921813Y-2864537D01*
X864016Y-3179919D01*
X864013Y-3179944D01*
X844655Y-3499993D01*
X844655Y-3500006D01*
X200500Y-3500006D01*
X200500Y-3002773D01*
X200656Y-2997222D01*
X201769Y-2977410D01*
X217791Y-2692099D01*
X219034Y-2681073D01*
X221340Y-2667501D01*
X269760Y-2382519D01*
X272221Y-2371733D01*
X356063Y-2080714D01*
X359723Y-2070254D01*
X475614Y-1790469D01*
X480428Y-1780474D01*
X503247Y-1739187D01*
X626909Y-1515436D01*
X632806Y-1506051D01*
X808053Y-1259063D01*
X814967Y-1250394D01*
X1016757Y-1024592D01*
X1024592Y-1016757D01*
X1250394Y-814967D01*
X1259063Y-808053D01*
X1506051Y-632806D01*
X1515436Y-626909D01*
X1780480Y-480424D01*
X1790469Y-475614D01*
X2070254Y-359723D01*
X2080714Y-356063D01*
X2371733Y-272221D01*
X2382519Y-269760D01*
X2681080Y-219033D01*
X2692099Y-217791D01*
X2997222Y-200655D01*
X3002773Y-200500D01*
X56401000Y-200500D01*
X56459191Y-219407D01*
G37*
%TD.AperFunction*%
%TD*%
%TA.AperFunction,Conductor*%
%TO.N,Vin*%
G36*
X63852407Y-27269685D02*
G01*
X63859003Y-27274231D01*
X63859206Y-27274381D01*
X63983119Y-27317741D01*
X63990796Y-27318460D01*
X64012543Y-27320500D01*
X64487456Y-27320499D01*
X64516879Y-27317741D01*
X64634547Y-27276566D01*
X64704323Y-27273004D01*
X64764951Y-27307733D01*
X64797178Y-27369726D01*
X64799500Y-27393608D01*
X64799500Y-39500000D01*
X63250000Y-39500000D01*
X63250000Y-30000000D01*
X62036319Y-28786319D01*
X62002834Y-28724996D01*
X62000000Y-28698638D01*
X62000000Y-27374000D01*
X62019685Y-27306961D01*
X62072489Y-27261206D01*
X62124000Y-27250000D01*
X63785368Y-27250000D01*
X63852407Y-27269685D01*
G37*
%TD.AperFunction*%
%TD*%
%TA.AperFunction,Conductor*%
%TO.N,GND*%
G36*
X53443039Y-22019685D02*
G01*
X53488794Y-22072489D01*
X53500000Y-22124000D01*
X53500000Y-25626000D01*
X53480315Y-25693039D01*
X53427511Y-25738794D01*
X53376000Y-25750000D01*
X49124000Y-25750000D01*
X49056961Y-25730315D01*
X49011206Y-25677511D01*
X49000000Y-25626000D01*
X49000000Y-22124000D01*
X49019685Y-22056961D01*
X49072489Y-22011206D01*
X49124000Y-22000000D01*
X53376000Y-22000000D01*
X53443039Y-22019685D01*
G37*
%TD.AperFunction*%
%TD*%
%TA.AperFunction,Conductor*%
%TO.N,Net-(D1-A2)*%
G36*
X43758691Y-47218907D02*
G01*
X43794655Y-47268407D01*
X43799500Y-47299000D01*
X43799500Y-52105034D01*
X43822076Y-52233066D01*
X43835976Y-52311899D01*
X43888840Y-52457141D01*
X43907823Y-52509296D01*
X43907824Y-52509299D01*
X44012850Y-52691207D01*
X44012855Y-52691214D01*
X44100043Y-52795120D01*
X44147876Y-52852124D01*
X44147882Y-52852129D01*
X44147884Y-52852131D01*
X44264518Y-52949999D01*
X44308791Y-52987149D01*
X44368011Y-53021339D01*
X44490700Y-53092175D01*
X44490703Y-53092176D01*
X44490705Y-53092176D01*
X44490709Y-53092179D01*
X44688101Y-53164024D01*
X44894970Y-53200500D01*
X44894971Y-53200500D01*
X45105029Y-53200500D01*
X45105030Y-53200500D01*
X45311899Y-53164024D01*
X45509291Y-53092179D01*
X45509296Y-53092175D01*
X45509299Y-53092175D01*
X45593531Y-53043543D01*
X45691209Y-52987149D01*
X45852124Y-52852124D01*
X45987149Y-52691209D01*
X46055530Y-52572768D01*
X46092175Y-52509299D01*
X46092176Y-52509296D01*
X46092175Y-52509296D01*
X46092179Y-52509291D01*
X46164024Y-52311899D01*
X46200500Y-52105030D01*
X46200500Y-52000000D01*
X46200500Y-51960118D01*
X46200500Y-49049000D01*
X46219407Y-48990809D01*
X46268907Y-48954845D01*
X46299500Y-48950000D01*
X53501068Y-48950000D01*
X53545939Y-48960753D01*
X53570888Y-48973439D01*
X53598709Y-48981608D01*
X53637928Y-48993124D01*
X53724000Y-49005500D01*
X53724001Y-49005500D01*
X53764034Y-49005500D01*
X53806220Y-49002572D01*
X53806230Y-49002571D01*
X53806234Y-49002570D01*
X53806240Y-49002570D01*
X53818672Y-49000835D01*
X53827805Y-48999990D01*
X53829484Y-48999913D01*
X53829815Y-48999898D01*
X53834333Y-48999795D01*
X55250497Y-48999795D01*
X55250501Y-48999795D01*
X55315441Y-48992813D01*
X55315449Y-48992811D01*
X55315451Y-48992811D01*
X55366950Y-48981608D01*
X55395432Y-48973439D01*
X55405160Y-48970649D01*
X55417312Y-48963542D01*
X55467291Y-48950000D01*
X55620103Y-48950000D01*
X55627275Y-48950415D01*
X55627280Y-48950335D01*
X55630118Y-48950498D01*
X55630135Y-48950500D01*
X56069864Y-48950499D01*
X56069867Y-48950498D01*
X56072714Y-48950334D01*
X56072718Y-48950413D01*
X56079887Y-48950000D01*
X56151000Y-48950000D01*
X56209191Y-48968907D01*
X56245155Y-49018407D01*
X56250000Y-49049000D01*
X56250000Y-55700500D01*
X56231093Y-55758691D01*
X56181593Y-55794655D01*
X56151000Y-55799500D01*
X36599000Y-55799500D01*
X36540809Y-55780593D01*
X36504845Y-55731093D01*
X36500000Y-55700500D01*
X36500000Y-52950000D01*
X38645083Y-52950000D01*
X38664718Y-53199498D01*
X38723144Y-53442857D01*
X38815958Y-53666932D01*
X39365662Y-53117227D01*
X39388898Y-53226540D01*
X39464992Y-53397451D01*
X39574958Y-53548806D01*
X39713990Y-53673991D01*
X39876011Y-53767534D01*
X40053939Y-53825346D01*
X40070065Y-53827040D01*
X39523066Y-54374040D01*
X39747142Y-54466855D01*
X39747141Y-54466855D01*
X39990501Y-54525281D01*
X40240000Y-54544916D01*
X40489498Y-54525281D01*
X40732857Y-54466855D01*
X40956932Y-54374040D01*
X40409933Y-53827041D01*
X40426061Y-53825346D01*
X40603989Y-53767534D01*
X40766010Y-53673991D01*
X40905042Y-53548806D01*
X41015008Y-53397451D01*
X41091102Y-53226540D01*
X41114337Y-53117229D01*
X41664040Y-53666932D01*
X41756855Y-53442857D01*
X41815281Y-53199498D01*
X41834916Y-52950000D01*
X41815281Y-52700501D01*
X41756855Y-52457142D01*
X41664040Y-52233066D01*
X41114336Y-52782769D01*
X41091102Y-52673460D01*
X41015008Y-52502549D01*
X40905042Y-52351194D01*
X40766010Y-52226009D01*
X40603989Y-52132466D01*
X40426061Y-52074654D01*
X40409931Y-52072958D01*
X40956932Y-51525958D01*
X40732857Y-51433144D01*
X40732858Y-51433144D01*
X40489498Y-51374718D01*
X40240000Y-51355083D01*
X39990501Y-51374718D01*
X39747141Y-51433144D01*
X39747137Y-51433145D01*
X39523066Y-51525958D01*
X40070066Y-52072958D01*
X40053939Y-52074654D01*
X39876011Y-52132466D01*
X39713990Y-52226009D01*
X39574958Y-52351194D01*
X39464992Y-52502549D01*
X39388898Y-52673460D01*
X39365662Y-52782770D01*
X38815958Y-52233066D01*
X38723145Y-52457137D01*
X38723144Y-52457141D01*
X38664718Y-52700501D01*
X38645083Y-52950000D01*
X36500000Y-52950000D01*
X36500000Y-49550000D01*
X38645083Y-49550000D01*
X38664718Y-49799498D01*
X38723144Y-50042857D01*
X38815958Y-50266932D01*
X39365662Y-49717227D01*
X39388898Y-49826540D01*
X39464992Y-49997451D01*
X39574958Y-50148806D01*
X39713990Y-50273991D01*
X39876011Y-50367534D01*
X40053939Y-50425346D01*
X40070065Y-50427040D01*
X39523066Y-50974040D01*
X39747142Y-51066855D01*
X39747141Y-51066855D01*
X39990501Y-51125281D01*
X40240000Y-51144916D01*
X40489498Y-51125281D01*
X40732857Y-51066855D01*
X40956932Y-50974040D01*
X40409933Y-50427041D01*
X40426061Y-50425346D01*
X40603989Y-50367534D01*
X40766010Y-50273991D01*
X40905042Y-50148806D01*
X41015008Y-49997451D01*
X41091102Y-49826540D01*
X41114337Y-49717229D01*
X41664040Y-50266932D01*
X41756855Y-50042857D01*
X41815281Y-49799498D01*
X41834916Y-49550000D01*
X41815281Y-49300501D01*
X41756855Y-49057142D01*
X41664040Y-48833066D01*
X41114336Y-49382769D01*
X41091102Y-49273460D01*
X41015008Y-49102549D01*
X40905042Y-48951194D01*
X40766010Y-48826009D01*
X40603989Y-48732466D01*
X40426061Y-48674654D01*
X40409931Y-48672958D01*
X40956932Y-48125958D01*
X40732857Y-48033144D01*
X40732858Y-48033144D01*
X40489498Y-47974718D01*
X40240000Y-47955083D01*
X39990501Y-47974718D01*
X39747141Y-48033144D01*
X39747137Y-48033145D01*
X39523066Y-48125958D01*
X40070066Y-48672958D01*
X40053939Y-48674654D01*
X39876011Y-48732466D01*
X39713990Y-48826009D01*
X39574958Y-48951194D01*
X39464992Y-49102549D01*
X39388898Y-49273460D01*
X39365662Y-49382770D01*
X38815958Y-48833066D01*
X38723145Y-49057137D01*
X38723144Y-49057141D01*
X38664718Y-49300501D01*
X38645083Y-49550000D01*
X36500000Y-49550000D01*
X36500000Y-47299000D01*
X36518907Y-47240809D01*
X36568407Y-47204845D01*
X36599000Y-47200000D01*
X43700500Y-47200000D01*
X43758691Y-47218907D01*
G37*
%TD.AperFunction*%
%TD*%
%TA.AperFunction,Conductor*%
%TO.N,GND*%
G36*
X60943038Y-25295185D02*
G01*
X60951485Y-25301124D01*
X61047157Y-25374535D01*
X61047158Y-25374535D01*
X61047159Y-25374536D01*
X61193238Y-25435044D01*
X61242185Y-25441487D01*
X61306080Y-25469752D01*
X61344552Y-25528076D01*
X61350000Y-25564426D01*
X61350000Y-26776000D01*
X61330315Y-26843039D01*
X61277511Y-26888794D01*
X61226000Y-26900000D01*
X59983434Y-26900000D01*
X59916395Y-26880315D01*
X59870640Y-26827511D01*
X59860696Y-26758353D01*
X59866393Y-26735045D01*
X59907741Y-26616881D01*
X59907741Y-26616879D01*
X59908689Y-26606765D01*
X59910500Y-26587457D01*
X59910499Y-26112544D01*
X59907741Y-26083121D01*
X59864381Y-25959206D01*
X59825402Y-25906391D01*
X59786423Y-25853576D01*
X59714860Y-25800761D01*
X59680794Y-25775619D01*
X59680792Y-25775618D01*
X59556880Y-25732258D01*
X59527461Y-25729500D01*
X59152546Y-25729500D01*
X59123125Y-25732258D01*
X59123115Y-25732260D01*
X58999207Y-25775618D01*
X58893576Y-25853576D01*
X58815618Y-25959207D01*
X58772258Y-26083118D01*
X58772258Y-26083120D01*
X58769500Y-26112538D01*
X58769500Y-26587453D01*
X58772258Y-26616874D01*
X58772260Y-26616884D01*
X58815619Y-26740794D01*
X58815619Y-26740795D01*
X58834456Y-26766318D01*
X58858427Y-26831946D01*
X58850000Y-26869454D01*
X58850000Y-27154882D01*
X58830315Y-27221921D01*
X58777511Y-27267676D01*
X58764312Y-27272815D01*
X58675423Y-27301691D01*
X58527648Y-27376977D01*
X58393488Y-27474438D01*
X58393485Y-27474440D01*
X58377132Y-27490792D01*
X58358514Y-27509408D01*
X58358511Y-27509411D01*
X58358510Y-27509410D01*
X58358505Y-27509417D01*
X58351047Y-27516873D01*
X58351048Y-27516874D01*
X58334845Y-27533076D01*
X58334843Y-27533078D01*
X58287269Y-27580646D01*
X58287233Y-27580686D01*
X57731070Y-28136850D01*
X57730727Y-28137219D01*
X57713580Y-28154366D01*
X57713571Y-28154376D01*
X57699811Y-28173313D01*
X57644477Y-28215973D01*
X57574863Y-28221946D01*
X57513071Y-28189334D01*
X57478720Y-28128492D01*
X57475500Y-28100418D01*
X57475500Y-27703983D01*
X57495185Y-27636944D01*
X57525865Y-27604214D01*
X57536423Y-27596423D01*
X57614381Y-27490794D01*
X57654208Y-27376976D01*
X57657741Y-27366881D01*
X57657741Y-27366879D01*
X57658721Y-27356423D01*
X57660500Y-27337457D01*
X57660499Y-26862544D01*
X57657741Y-26833121D01*
X57638360Y-26777736D01*
X57634798Y-26707962D01*
X57640839Y-26689337D01*
X57675044Y-26606762D01*
X57695682Y-26450000D01*
X57689099Y-26400000D01*
X57675044Y-26293239D01*
X57675044Y-26293238D01*
X57614536Y-26147159D01*
X57518282Y-26021718D01*
X57392841Y-25925464D01*
X57246762Y-25864956D01*
X57246760Y-25864955D01*
X57090001Y-25844318D01*
X57089999Y-25844318D01*
X56933239Y-25864955D01*
X56933237Y-25864956D01*
X56787160Y-25925463D01*
X56661718Y-26021718D01*
X56565463Y-26147160D01*
X56504956Y-26293237D01*
X56502853Y-26301088D01*
X56501335Y-26300681D01*
X56476831Y-26356079D01*
X56418508Y-26394552D01*
X56382156Y-26400000D01*
X56298757Y-26400000D01*
X56249850Y-26387871D01*
X56249565Y-26388688D01*
X56240859Y-26385641D01*
X56240820Y-26385632D01*
X56240797Y-26385619D01*
X56116880Y-26342258D01*
X56087461Y-26339500D01*
X55612546Y-26339500D01*
X55583125Y-26342258D01*
X55583115Y-26342260D01*
X55514955Y-26366111D01*
X55445176Y-26369673D01*
X55384549Y-26334945D01*
X55352321Y-26272951D01*
X55350000Y-26249070D01*
X55350000Y-25399500D01*
X55369685Y-25332461D01*
X55422489Y-25286706D01*
X55474000Y-25275500D01*
X60875999Y-25275500D01*
X60943038Y-25295185D01*
G37*
%TD.AperFunction*%
%TD*%
%TA.AperFunction,Conductor*%
%TO.N,+5V*%
G36*
X57014091Y-9669685D02*
G01*
X57036615Y-9688243D01*
X57548392Y-10222765D01*
X59229084Y-11978155D01*
X59250000Y-12000000D01*
X64675500Y-12000000D01*
X64742539Y-12019685D01*
X64788294Y-12072489D01*
X64799500Y-12124000D01*
X64799500Y-18576640D01*
X64779815Y-18643679D01*
X64727011Y-18689434D01*
X64657853Y-18699378D01*
X64609278Y-18679452D01*
X64609010Y-18679961D01*
X64603776Y-18677195D01*
X64601870Y-18676413D01*
X64600793Y-18675618D01*
X64476880Y-18632258D01*
X64447461Y-18629500D01*
X64072546Y-18629500D01*
X64043125Y-18632258D01*
X64043115Y-18632260D01*
X63919207Y-18675618D01*
X63813576Y-18753576D01*
X63735618Y-18859207D01*
X63692258Y-18983118D01*
X63692258Y-18983120D01*
X63689500Y-19012538D01*
X63689500Y-19487450D01*
X63689501Y-19487456D01*
X63692259Y-19516879D01*
X63692259Y-19516881D01*
X63692260Y-19516882D01*
X63702541Y-19546262D01*
X63709500Y-19587218D01*
X63709500Y-19825254D01*
X63689815Y-19892293D01*
X63637011Y-19938048D01*
X63627030Y-19941556D01*
X63627050Y-19941605D01*
X63619656Y-19944520D01*
X63619654Y-19944521D01*
X63519479Y-19984024D01*
X63486865Y-19996886D01*
X63373132Y-20083132D01*
X63286886Y-20196865D01*
X63234520Y-20329655D01*
X63234520Y-20329656D01*
X63224500Y-20413097D01*
X63224500Y-20931902D01*
X63234520Y-21015343D01*
X63234520Y-21015344D01*
X63234521Y-21015346D01*
X63260219Y-21080512D01*
X63266500Y-21150097D01*
X63234163Y-21212033D01*
X63173474Y-21246654D01*
X63144864Y-21250000D01*
X48750000Y-21250000D01*
X48749999Y-21250000D01*
X48749999Y-21250001D01*
X46050000Y-27149998D01*
X46050000Y-32826000D01*
X46030315Y-32893039D01*
X45977511Y-32938794D01*
X45926000Y-32950000D01*
X40874000Y-32950000D01*
X40806961Y-32930315D01*
X40761206Y-32877511D01*
X40750000Y-32826000D01*
X40750000Y-27060646D01*
X40769685Y-26993607D01*
X40797867Y-26962769D01*
X43000000Y-25250000D01*
X43000000Y-23825288D01*
X43019685Y-23758249D01*
X43025196Y-23750363D01*
X43084360Y-23672343D01*
X43084359Y-23672343D01*
X43084361Y-23672342D01*
X43139877Y-23531564D01*
X43150500Y-23443102D01*
X43150500Y-22056898D01*
X43139877Y-21968436D01*
X43084361Y-21827658D01*
X43084360Y-21827657D01*
X43084360Y-21827656D01*
X43025196Y-21749636D01*
X43000373Y-21684324D01*
X43000000Y-21674711D01*
X43000000Y-21325288D01*
X43019685Y-21258249D01*
X43025196Y-21250363D01*
X43084360Y-21172343D01*
X43084359Y-21172343D01*
X43084361Y-21172342D01*
X43139877Y-21031564D01*
X43150500Y-20943102D01*
X43150500Y-19556898D01*
X43139877Y-19468436D01*
X43084361Y-19327658D01*
X43084360Y-19327657D01*
X43084360Y-19327656D01*
X43066334Y-19303885D01*
X43041511Y-19238573D01*
X43055939Y-19170209D01*
X43063049Y-19158578D01*
X44902347Y-16491596D01*
X44956608Y-16447588D01*
X45004421Y-16437999D01*
X45005126Y-16437999D01*
X45005135Y-16438000D01*
X46694864Y-16437999D01*
X46694879Y-16437997D01*
X46694882Y-16437997D01*
X46719987Y-16435086D01*
X46719988Y-16435085D01*
X46719991Y-16435085D01*
X46822765Y-16389706D01*
X46826152Y-16386319D01*
X46887475Y-16352834D01*
X46913833Y-16350000D01*
X46999999Y-16350000D01*
X47000000Y-16350000D01*
X48300000Y-15300000D01*
X48300000Y-14074000D01*
X48319685Y-14006961D01*
X48372489Y-13961206D01*
X48424000Y-13950000D01*
X50067878Y-13950000D01*
X50134917Y-13969685D01*
X50180672Y-14022489D01*
X50190616Y-14091647D01*
X50190351Y-14093398D01*
X50174500Y-14193475D01*
X50174500Y-15531517D01*
X50183045Y-15585468D01*
X50189354Y-15625304D01*
X50232166Y-15709326D01*
X50245062Y-15777996D01*
X50218786Y-15842736D01*
X50195316Y-15865390D01*
X50143577Y-15903575D01*
X50065618Y-16009207D01*
X50022258Y-16133118D01*
X50022258Y-16133120D01*
X50019500Y-16162538D01*
X50019500Y-16637453D01*
X50022258Y-16666874D01*
X50022260Y-16666884D01*
X50051344Y-16750000D01*
X50065619Y-16790794D01*
X50143577Y-16896423D01*
X50143578Y-16896424D01*
X50199633Y-16937795D01*
X50241884Y-16993442D01*
X50250000Y-17037565D01*
X50250000Y-17100000D01*
X53750000Y-17100000D01*
X53750000Y-16019702D01*
X59200000Y-16019702D01*
X59211602Y-16078033D01*
X59211603Y-16078034D01*
X59255808Y-16144191D01*
X59321965Y-16188396D01*
X59321966Y-16188397D01*
X59380297Y-16199999D01*
X59380301Y-16200000D01*
X60400000Y-16200000D01*
X60400000Y-15072559D01*
X60479530Y-15139294D01*
X60638295Y-15219028D01*
X60811169Y-15260000D01*
X60944267Y-15260000D01*
X61076461Y-15244549D01*
X61243409Y-15183784D01*
X61391844Y-15086157D01*
X61400000Y-15077512D01*
X61400000Y-16200000D01*
X62419699Y-16200000D01*
X62419702Y-16199999D01*
X62478033Y-16188397D01*
X62478034Y-16188396D01*
X62544191Y-16144191D01*
X62588396Y-16078034D01*
X62588397Y-16078033D01*
X62599999Y-16019702D01*
X62600000Y-16019699D01*
X62600000Y-15000000D01*
X61473129Y-15000000D01*
X61513764Y-14956930D01*
X61602595Y-14803070D01*
X61653549Y-14632871D01*
X61663879Y-14455509D01*
X61633029Y-14280546D01*
X61562660Y-14117413D01*
X61475249Y-14000000D01*
X62600000Y-14000000D01*
X62600000Y-12980301D01*
X62599999Y-12980297D01*
X62588397Y-12921966D01*
X62588396Y-12921965D01*
X62544191Y-12855808D01*
X62478034Y-12811603D01*
X62478033Y-12811602D01*
X62419702Y-12800000D01*
X61400000Y-12800000D01*
X61400000Y-13927440D01*
X61320470Y-13860706D01*
X61161705Y-13780972D01*
X60988831Y-13740000D01*
X60855733Y-13740000D01*
X60723539Y-13755451D01*
X60556591Y-13816216D01*
X60408156Y-13913843D01*
X60400000Y-13922487D01*
X60400000Y-12800000D01*
X59380297Y-12800000D01*
X59321966Y-12811602D01*
X59321965Y-12811603D01*
X59255808Y-12855808D01*
X59211603Y-12921965D01*
X59211602Y-12921966D01*
X59200000Y-12980297D01*
X59200000Y-14000000D01*
X60326871Y-14000000D01*
X60286236Y-14043070D01*
X60197405Y-14196930D01*
X60146451Y-14367129D01*
X60136121Y-14544491D01*
X60166971Y-14719454D01*
X60237340Y-14882587D01*
X60324751Y-15000000D01*
X59200000Y-15000000D01*
X59200000Y-16019702D01*
X53750000Y-16019702D01*
X53750000Y-12159675D01*
X53769685Y-12092636D01*
X53774230Y-12086041D01*
X53784232Y-12072489D01*
X53853852Y-11978157D01*
X53897710Y-11852819D01*
X53900500Y-11823066D01*
X53900500Y-11376934D01*
X53897710Y-11347181D01*
X53897708Y-11347177D01*
X53897708Y-11347173D01*
X53853852Y-11221844D01*
X53853852Y-11221843D01*
X53774999Y-11115001D01*
X53774230Y-11113959D01*
X53750259Y-11048330D01*
X53750000Y-11040325D01*
X53750000Y-10351333D01*
X53769685Y-10284294D01*
X53786319Y-10263652D01*
X53827206Y-10222765D01*
X53872585Y-10119991D01*
X53875500Y-10094865D01*
X53875499Y-9829703D01*
X53895183Y-9762666D01*
X53947987Y-9716911D01*
X53999499Y-9705705D01*
X55424998Y-9705705D01*
X55425000Y-9705705D01*
X55453207Y-9704401D01*
X55561264Y-9673656D01*
X55561267Y-9673653D01*
X55571550Y-9668534D01*
X55572359Y-9670158D01*
X55624789Y-9650354D01*
X55634151Y-9650000D01*
X56947052Y-9650000D01*
X57014091Y-9669685D01*
G37*
%TD.AperFunction*%
%TD*%
%TA.AperFunction,Conductor*%
%TO.N,GND*%
G36*
X55946065Y-27619685D02*
G01*
X55973314Y-27643467D01*
X55984840Y-27656961D01*
X56004904Y-27680453D01*
X56016335Y-27696187D01*
X56076228Y-27793925D01*
X56085057Y-27811254D01*
X56128920Y-27917154D01*
X56134932Y-27935659D01*
X56161687Y-28047106D01*
X56164731Y-28066326D01*
X56174117Y-28185626D01*
X56174499Y-28195354D01*
X56174498Y-28261478D01*
X56174500Y-28261503D01*
X56174500Y-28615345D01*
X56172882Y-28635310D01*
X56165255Y-28682056D01*
X56165256Y-28682059D01*
X56166624Y-28688544D01*
X56169295Y-28714140D01*
X56169295Y-29276539D01*
X56167677Y-29296504D01*
X56165255Y-29311344D01*
X56165255Y-29311346D01*
X56188443Y-29421272D01*
X56191356Y-29428304D01*
X56192564Y-29431220D01*
X56192564Y-29431221D01*
X56196210Y-29440023D01*
X56201606Y-29453051D01*
X56209072Y-29522521D01*
X56177795Y-29584999D01*
X56117705Y-29620649D01*
X56087043Y-29624500D01*
X55219506Y-29624500D01*
X55152467Y-29604815D01*
X55106712Y-29552011D01*
X55104158Y-29546006D01*
X55062364Y-29440025D01*
X55062363Y-29440024D01*
X55062363Y-29440023D01*
X54975078Y-29324921D01*
X54859976Y-29237636D01*
X54725588Y-29184640D01*
X54682242Y-29179435D01*
X54641144Y-29174500D01*
X54058856Y-29174500D01*
X53988783Y-29182914D01*
X53919876Y-29171363D01*
X53868152Y-29124391D01*
X53850000Y-29059799D01*
X53850000Y-27724000D01*
X53869685Y-27656961D01*
X53922489Y-27611206D01*
X53974000Y-27600000D01*
X55879026Y-27600000D01*
X55946065Y-27619685D01*
G37*
%TD.AperFunction*%
%TD*%
M02*
