%TF.GenerationSoftware,KiCad,Pcbnew,7.0.10*%
%TF.CreationDate,2024-02-12T00:49:46-06:00*%
%TF.ProjectId,ElectriPi,456c6563-7472-4695-9069-2e6b69636164,rev?*%
%TF.SameCoordinates,PX514cfd0PY32c87d0*%
%TF.FileFunction,Paste,Top*%
%TF.FilePolarity,Positive*%
%FSLAX46Y46*%
G04 Gerber Fmt 4.6, Leading zero omitted, Abs format (unit mm)*
G04 Created by KiCad (PCBNEW 7.0.10) date 2024-02-12 00:49:46*
%MOMM*%
%LPD*%
G01*
G04 APERTURE LIST*
G04 Aperture macros list*
%AMRoundRect*
0 Rectangle with rounded corners*
0 $1 Rounding radius*
0 $2 $3 $4 $5 $6 $7 $8 $9 X,Y pos of 4 corners*
0 Add a 4 corners polygon primitive as box body*
4,1,4,$2,$3,$4,$5,$6,$7,$8,$9,$2,$3,0*
0 Add four circle primitives for the rounded corners*
1,1,$1+$1,$2,$3*
1,1,$1+$1,$4,$5*
1,1,$1+$1,$6,$7*
1,1,$1+$1,$8,$9*
0 Add four rect primitives between the rounded corners*
20,1,$1+$1,$2,$3,$4,$5,0*
20,1,$1+$1,$4,$5,$6,$7,0*
20,1,$1+$1,$6,$7,$8,$9,0*
20,1,$1+$1,$8,$9,$2,$3,0*%
%AMFreePoly0*
4,1,14,0.289644,0.110355,0.410355,-0.010356,0.425000,-0.045711,0.425000,-0.075000,0.410355,-0.110355,0.375000,-0.125000,-0.375000,-0.125000,-0.410355,-0.110355,-0.425000,-0.075000,-0.425000,0.075000,-0.410355,0.110355,-0.375000,0.125000,0.254289,0.125000,0.289644,0.110355,0.289644,0.110355,$1*%
%AMFreePoly1*
4,1,14,0.410355,0.110355,0.425000,0.075000,0.425000,0.045711,0.410355,0.010356,0.289644,-0.110355,0.254289,-0.125000,-0.375000,-0.125000,-0.410355,-0.110355,-0.425000,-0.075000,-0.425000,0.075000,-0.410355,0.110355,-0.375000,0.125000,0.375000,0.125000,0.410355,0.110355,0.410355,0.110355,$1*%
%AMFreePoly2*
4,1,14,0.110355,0.410355,0.125000,0.375000,0.125000,-0.375000,0.110355,-0.410355,0.075000,-0.425000,-0.075000,-0.425000,-0.110355,-0.410355,-0.125000,-0.375000,-0.125000,0.254289,-0.110355,0.289644,0.010356,0.410355,0.045711,0.425000,0.075000,0.425000,0.110355,0.410355,0.110355,0.410355,$1*%
%AMFreePoly3*
4,1,14,-0.010356,0.410355,0.110355,0.289644,0.125000,0.254289,0.125000,-0.375000,0.110355,-0.410355,0.075000,-0.425000,-0.075000,-0.425000,-0.110355,-0.410355,-0.125000,-0.375000,-0.125000,0.375000,-0.110355,0.410355,-0.075000,0.425000,-0.045711,0.425000,-0.010356,0.410355,-0.010356,0.410355,$1*%
%AMFreePoly4*
4,1,14,0.410355,0.110355,0.425000,0.075000,0.425000,-0.075000,0.410355,-0.110355,0.375000,-0.125000,-0.254289,-0.125000,-0.289644,-0.110355,-0.410355,0.010356,-0.425000,0.045711,-0.425000,0.075000,-0.410355,0.110355,-0.375000,0.125000,0.375000,0.125000,0.410355,0.110355,0.410355,0.110355,$1*%
%AMFreePoly5*
4,1,14,0.410355,0.110355,0.425000,0.075000,0.425000,-0.075000,0.410355,-0.110355,0.375000,-0.125000,-0.375000,-0.125000,-0.410355,-0.110355,-0.425000,-0.075000,-0.425000,-0.045711,-0.410355,-0.010356,-0.289644,0.110355,-0.254289,0.125000,0.375000,0.125000,0.410355,0.110355,0.410355,0.110355,$1*%
%AMFreePoly6*
4,1,14,0.110355,0.410355,0.125000,0.375000,0.125000,-0.254289,0.110355,-0.289644,-0.010356,-0.410355,-0.045711,-0.425000,-0.075000,-0.425000,-0.110355,-0.410355,-0.125000,-0.375000,-0.125000,0.375000,-0.110355,0.410355,-0.075000,0.425000,0.075000,0.425000,0.110355,0.410355,0.110355,0.410355,$1*%
%AMFreePoly7*
4,1,14,0.110355,0.410355,0.125000,0.375000,0.125000,-0.375000,0.110355,-0.410355,0.075000,-0.425000,0.045711,-0.425000,0.010356,-0.410355,-0.110355,-0.289644,-0.125000,-0.254289,-0.125000,0.375000,-0.110355,0.410355,-0.075000,0.425000,0.075000,0.425000,0.110355,0.410355,0.110355,0.410355,$1*%
G04 Aperture macros list end*
%ADD10RoundRect,0.135000X-0.135000X-0.185000X0.135000X-0.185000X0.135000X0.185000X-0.135000X0.185000X0*%
%ADD11RoundRect,0.150000X0.150000X-0.587500X0.150000X0.587500X-0.150000X0.587500X-0.150000X-0.587500X0*%
%ADD12RoundRect,0.140000X0.170000X-0.140000X0.170000X0.140000X-0.170000X0.140000X-0.170000X-0.140000X0*%
%ADD13RoundRect,0.140000X0.140000X0.170000X-0.140000X0.170000X-0.140000X-0.170000X0.140000X-0.170000X0*%
%ADD14RoundRect,0.050000X0.250000X-0.100000X0.250000X0.100000X-0.250000X0.100000X-0.250000X-0.100000X0*%
%ADD15RoundRect,0.050000X0.075000X0.275000X-0.075000X0.275000X-0.075000X-0.275000X0.075000X-0.275000X0*%
%ADD16RoundRect,0.050000X0.250000X-0.075000X0.250000X0.075000X-0.250000X0.075000X-0.250000X-0.075000X0*%
%ADD17RoundRect,0.050000X0.100000X-1.150000X0.100000X1.150000X-0.100000X1.150000X-0.100000X-1.150000X0*%
%ADD18RoundRect,0.135000X-0.185000X0.135000X-0.185000X-0.135000X0.185000X-0.135000X0.185000X0.135000X0*%
%ADD19RoundRect,0.160000X-0.245000X-0.160000X0.245000X-0.160000X0.245000X0.160000X-0.245000X0.160000X0*%
%ADD20RoundRect,0.093750X-0.093750X-0.106250X0.093750X-0.106250X0.093750X0.106250X-0.093750X0.106250X0*%
%ADD21RoundRect,0.135000X0.135000X0.185000X-0.135000X0.185000X-0.135000X-0.185000X0.135000X-0.185000X0*%
%ADD22RoundRect,0.050000X-0.250000X0.100000X-0.250000X-0.100000X0.250000X-0.100000X0.250000X0.100000X0*%
%ADD23RoundRect,0.050000X-0.075000X-0.275000X0.075000X-0.275000X0.075000X0.275000X-0.075000X0.275000X0*%
%ADD24RoundRect,0.050000X-0.250000X0.075000X-0.250000X-0.075000X0.250000X-0.075000X0.250000X0.075000X0*%
%ADD25RoundRect,0.050000X-0.100000X1.150000X-0.100000X-1.150000X0.100000X-1.150000X0.100000X1.150000X0*%
%ADD26RoundRect,0.225000X0.250000X-0.225000X0.250000X0.225000X-0.250000X0.225000X-0.250000X-0.225000X0*%
%ADD27RoundRect,0.250000X0.325000X0.650000X-0.325000X0.650000X-0.325000X-0.650000X0.325000X-0.650000X0*%
%ADD28R,0.600000X0.800000*%
%ADD29R,0.350000X0.300000*%
%ADD30R,0.870000X0.235000*%
%ADD31RoundRect,0.135000X0.185000X-0.135000X0.185000X0.135000X-0.185000X0.135000X-0.185000X-0.135000X0*%
%ADD32RoundRect,0.250000X-1.400000X-1.000000X1.400000X-1.000000X1.400000X1.000000X-1.400000X1.000000X0*%
%ADD33RoundRect,0.140000X-0.140000X-0.170000X0.140000X-0.170000X0.140000X0.170000X-0.140000X0.170000X0*%
%ADD34RoundRect,0.172500X0.172500X-0.172500X0.172500X0.172500X-0.172500X0.172500X-0.172500X-0.172500X0*%
%ADD35FreePoly0,90.000000*%
%ADD36RoundRect,0.062500X0.062500X-0.362500X0.062500X0.362500X-0.062500X0.362500X-0.062500X-0.362500X0*%
%ADD37FreePoly1,90.000000*%
%ADD38FreePoly2,90.000000*%
%ADD39RoundRect,0.062500X0.362500X-0.062500X0.362500X0.062500X-0.362500X0.062500X-0.362500X-0.062500X0*%
%ADD40FreePoly3,90.000000*%
%ADD41FreePoly4,90.000000*%
%ADD42FreePoly5,90.000000*%
%ADD43FreePoly6,90.000000*%
%ADD44FreePoly7,90.000000*%
%ADD45RoundRect,0.250000X1.500000X1.000000X-1.500000X1.000000X-1.500000X-1.000000X1.500000X-1.000000X0*%
%ADD46RoundRect,0.250000X-0.250000X-0.475000X0.250000X-0.475000X0.250000X0.475000X-0.250000X0.475000X0*%
%ADD47RoundRect,0.218750X-0.256250X0.218750X-0.256250X-0.218750X0.256250X-0.218750X0.256250X0.218750X0*%
%ADD48RoundRect,0.218750X0.256250X-0.218750X0.256250X0.218750X-0.256250X0.218750X-0.256250X-0.218750X0*%
%ADD49R,3.175000X4.950000*%
%ADD50RoundRect,0.250000X1.000000X0.900000X-1.000000X0.900000X-1.000000X-0.900000X1.000000X-0.900000X0*%
G04 APERTURE END LIST*
D10*
%TO.C,R11*%
X59340000Y-26350000D03*
X60360000Y-26350000D03*
%TD*%
D11*
%TO.C,D4*%
X57300000Y-48937500D03*
X59200000Y-48937500D03*
X58250000Y-47062500D03*
%TD*%
D12*
%TO.C,C9*%
X53350000Y-13310000D03*
X53350000Y-12350000D03*
%TD*%
D13*
%TO.C,C8*%
X56480000Y-33400000D03*
X55520000Y-33400000D03*
%TD*%
D14*
%TO.C,U4*%
X56200000Y-12700000D03*
D15*
X56025000Y-12875000D03*
D16*
X56200000Y-12225000D03*
X56200000Y-11775000D03*
D14*
X56200000Y-11300000D03*
D15*
X56025000Y-11125000D03*
D17*
X55550000Y-12000000D03*
X55050000Y-12000000D03*
D15*
X54575000Y-11125000D03*
D14*
X54400000Y-11300000D03*
D16*
X54400000Y-11775000D03*
X54400000Y-12225000D03*
D15*
X54575000Y-12875000D03*
D14*
X54400000Y-12700000D03*
%TD*%
D18*
%TO.C,R13*%
X57100000Y-19490000D03*
X57100000Y-20510000D03*
%TD*%
D19*
%TO.C,U3*%
X44250000Y-15750000D03*
X44250000Y-16550000D03*
D20*
X43362500Y-15500000D03*
X43362500Y-16150000D03*
X43362500Y-16800000D03*
X45137500Y-16800000D03*
X45137500Y-16150000D03*
X45137500Y-15500000D03*
%TD*%
D21*
%TO.C,R10*%
X48510000Y-14500000D03*
X47490000Y-14500000D03*
%TD*%
D22*
%TO.C,U1*%
X50500000Y-11300000D03*
D23*
X50675000Y-11125000D03*
D24*
X50500000Y-11775000D03*
X50500000Y-12225000D03*
D22*
X50500000Y-12700000D03*
D23*
X50675000Y-12875000D03*
D25*
X51150000Y-12000000D03*
X51650000Y-12000000D03*
D23*
X52125000Y-12875000D03*
D22*
X52300000Y-12700000D03*
D24*
X52300000Y-12225000D03*
X52300000Y-11775000D03*
D23*
X52125000Y-11125000D03*
D22*
X52300000Y-11300000D03*
%TD*%
D26*
%TO.C,C3*%
X54350000Y-29925000D03*
X54350000Y-28375000D03*
%TD*%
D10*
%TO.C,R14*%
X57090000Y-27100000D03*
X58110000Y-27100000D03*
%TD*%
D27*
%TO.C,C5*%
X45225000Y-20250000D03*
X42275000Y-20250000D03*
%TD*%
D28*
%TO.C,Q1*%
X55275000Y-49475000D03*
X54575000Y-49475000D03*
D29*
X55850000Y-48500000D03*
D30*
X54885000Y-48500000D03*
D29*
X54000000Y-48500000D03*
%TD*%
D31*
%TO.C,R3*%
X57250000Y-52510000D03*
X57250000Y-51490000D03*
%TD*%
D32*
%TO.C,D1*%
X49750000Y-46850000D03*
X49750000Y-53650000D03*
%TD*%
D10*
%TO.C,R1*%
X61390000Y-27650000D03*
X62410000Y-27650000D03*
%TD*%
D33*
%TO.C,C6*%
X58600000Y-33400000D03*
X59560000Y-33400000D03*
%TD*%
D27*
%TO.C,C12*%
X52875000Y-7800000D03*
X49925000Y-7800000D03*
%TD*%
D31*
%TO.C,R5*%
X55850000Y-26910000D03*
X55850000Y-25890000D03*
%TD*%
D34*
%TO.C,IC2*%
X57100000Y-30900000D03*
X57900000Y-30900000D03*
X57100000Y-30100000D03*
X57900000Y-30100000D03*
D35*
X56600000Y-31950000D03*
D36*
X57050000Y-31950000D03*
X57500000Y-31950000D03*
X57950000Y-31950000D03*
D37*
X58400000Y-31950000D03*
D38*
X58950000Y-31400000D03*
D39*
X58950000Y-30950000D03*
X58950000Y-30500000D03*
X58950000Y-30050000D03*
D40*
X58950000Y-29600000D03*
D41*
X58400000Y-29050000D03*
D36*
X57950000Y-29050000D03*
X57500000Y-29050000D03*
X57050000Y-29050000D03*
D42*
X56600000Y-29050000D03*
D43*
X56050000Y-29600000D03*
D39*
X56050000Y-30050000D03*
X56050000Y-30500000D03*
X56050000Y-30950000D03*
D44*
X56050000Y-31400000D03*
%TD*%
D21*
%TO.C,R12*%
X61360000Y-29900000D03*
X60340000Y-29900000D03*
%TD*%
D27*
%TO.C,C4*%
X45225000Y-22750000D03*
X42275000Y-22750000D03*
%TD*%
D13*
%TO.C,C11*%
X55280000Y-13950000D03*
X54320000Y-13950000D03*
%TD*%
D21*
%TO.C,R6*%
X64260000Y-19250000D03*
X63240000Y-19250000D03*
%TD*%
D45*
%TO.C,C18*%
X54950000Y-40500000D03*
X48450000Y-40500000D03*
%TD*%
D18*
%TO.C,R9*%
X49450000Y-12540000D03*
X49450000Y-13560000D03*
%TD*%
D46*
%TO.C,C1*%
X58350000Y-35100000D03*
X60250000Y-35100000D03*
%TD*%
D18*
%TO.C,R2*%
X49450000Y-10590000D03*
X49450000Y-11610000D03*
%TD*%
D13*
%TO.C,C7*%
X43230000Y-24500000D03*
X42270000Y-24500000D03*
%TD*%
D18*
%TO.C,R4*%
X54350000Y-25890000D03*
X54350000Y-26910000D03*
%TD*%
D46*
%TO.C,C2*%
X58350000Y-37350000D03*
X60250000Y-37350000D03*
%TD*%
D47*
%TO.C,D5*%
X64000000Y-23872500D03*
X64000000Y-25447500D03*
%TD*%
D33*
%TO.C,C10*%
X51420000Y-13950000D03*
X52380000Y-13950000D03*
%TD*%
D48*
%TO.C,D3*%
X64000000Y-22247500D03*
X64000000Y-20672500D03*
%TD*%
D49*
%TO.C,L1*%
X51507500Y-30500000D03*
X42492500Y-30500000D03*
%TD*%
D18*
%TO.C,R8*%
X64250000Y-26750000D03*
X64250000Y-27770000D03*
%TD*%
D50*
%TO.C,D2*%
X52150000Y-22250000D03*
X47850000Y-22250000D03*
%TD*%
D21*
%TO.C,R15*%
X50610000Y-9550000D03*
X49590000Y-9550000D03*
%TD*%
D33*
%TO.C,C17*%
X57270000Y-50500000D03*
X58230000Y-50500000D03*
%TD*%
D21*
%TO.C,R7*%
X60360000Y-27650000D03*
X59340000Y-27650000D03*
%TD*%
M02*
