%TF.GenerationSoftware,KiCad,Pcbnew,7.0.10*%
%TF.CreationDate,2024-02-02T17:20:02-06:00*%
%TF.ProjectId,ElectriPi,456c6563-7472-4695-9069-2e6b69636164,rev?*%
%TF.SameCoordinates,Original*%
%TF.FileFunction,Profile,NP*%
%FSLAX46Y46*%
G04 Gerber Fmt 4.6, Leading zero omitted, Abs format (unit mm)*
G04 Created by KiCad (PCBNEW 7.0.10) date 2024-02-02 17:20:02*
%MOMM*%
%LPD*%
G01*
G04 APERTURE LIST*
%TA.AperFunction,Profile*%
%ADD10C,0.100000*%
%TD*%
G04 APERTURE END LIST*
D10*
X85250000Y-71750000D02*
X85250000Y-106250000D01*
X150250000Y-56250000D02*
G75*
G03*
X147250000Y-53250000I-3000000J0D01*
G01*
X129250000Y-90250000D02*
X129250000Y-105250000D01*
X85250000Y-106250000D02*
G75*
G03*
X88250000Y-109250000I3000000J0D01*
G01*
X88250000Y-109250000D02*
X147250000Y-109250000D01*
X147250000Y-109250000D02*
G75*
G03*
X150250000Y-106250000I0J3000000D01*
G01*
X131250000Y-90250000D02*
G75*
G03*
X129250000Y-90250000I-1000000J0D01*
G01*
X131250000Y-90250000D02*
X131250000Y-105250000D01*
X88250000Y-53250000D02*
X147250000Y-53250000D01*
X88250000Y-53250000D02*
G75*
G03*
X85250000Y-56250000I0J-3000000D01*
G01*
X129250000Y-105250000D02*
G75*
G03*
X131250000Y-105250000I1000000J0D01*
G01*
X85250000Y-56250000D02*
X85250000Y-71750000D01*
X150250000Y-56250000D02*
X150250000Y-106250000D01*
%TO.C,U2*%
X90250000Y-69200000D02*
X90250000Y-91200000D01*
X119985921Y-68211650D02*
X123999999Y-68200000D01*
X124303256Y-80200000D02*
X124999999Y-77700000D01*
X124999999Y-77700000D02*
X124999999Y-69200000D01*
X119985920Y-68211651D02*
G75*
G03*
X90250001Y-69200001I-14485921J-11988349D01*
G01*
X125000000Y-69200000D02*
G75*
G03*
X123999999Y-68200000I-999900J100D01*
G01*
X90250000Y-91200000D02*
G75*
G03*
X124303256Y-80200000I15249999J11000000D01*
G01*
%TD*%
M02*
