%TF.GenerationSoftware,KiCad,Pcbnew,7.0.10*%
%TF.CreationDate,2024-02-06T23:39:17-06:00*%
%TF.ProjectId,ElectriPi,456c6563-7472-4695-9069-2e6b69636164,rev?*%
%TF.SameCoordinates,PX514cfd0PY32c87d0*%
%TF.FileFunction,Profile,NP*%
%FSLAX46Y46*%
G04 Gerber Fmt 4.6, Leading zero omitted, Abs format (unit mm)*
G04 Created by KiCad (PCBNEW 7.0.10) date 2024-02-06 23:39:17*
%MOMM*%
%LPD*%
G01*
G04 APERTURE LIST*
%TA.AperFunction,Profile*%
%ADD10C,0.100000*%
%TD*%
G04 APERTURE END LIST*
D10*
X0Y-18500000D02*
X0Y-53000000D01*
X65000000Y-3000000D02*
G75*
G03*
X62000000Y0I-3000000J0D01*
G01*
X44000000Y-37000000D02*
X44000000Y-52000000D01*
X0Y-53000000D02*
G75*
G03*
X3000000Y-56000000I3000000J0D01*
G01*
X3000000Y-56000000D02*
X62000000Y-56000000D01*
X62000000Y-56000000D02*
G75*
G03*
X65000000Y-53000000I0J3000000D01*
G01*
X46000000Y-37000000D02*
G75*
G03*
X44000000Y-37000000I-1000000J0D01*
G01*
X46000000Y-37000000D02*
X46000000Y-52000000D01*
X3000000Y0D02*
X62000000Y0D01*
X3000000Y0D02*
G75*
G03*
X0Y-3000000I0J-3000000D01*
G01*
X44000000Y-52000000D02*
G75*
G03*
X46000000Y-52000000I1000000J0D01*
G01*
X0Y-3000000D02*
X0Y-18500000D01*
X65000000Y-3000000D02*
X65000000Y-53000000D01*
%TO.C,U2*%
X5000000Y-15950000D02*
X5000000Y-37950000D01*
X34735921Y-14961650D02*
X38749999Y-14950000D01*
X39053256Y-26950000D02*
X39749999Y-24450000D01*
X39749999Y-24450000D02*
X39749999Y-15950000D01*
X34735920Y-14961651D02*
G75*
G03*
X5000001Y-15950001I-14485921J-11988349D01*
G01*
X39750000Y-15950000D02*
G75*
G03*
X38749999Y-14950000I-999900J100D01*
G01*
X5000000Y-37950000D02*
G75*
G03*
X39053256Y-26950000I15249999J11000000D01*
G01*
%TD*%
M02*
