%TF.GenerationSoftware,KiCad,Pcbnew,7.0.10*%
%TF.CreationDate,2024-02-01T12:48:16-06:00*%
%TF.ProjectId,ElectriPi,456c6563-7472-4695-9069-2e6b69636164,rev?*%
%TF.SameCoordinates,Original*%
%TF.FileFunction,Soldermask,Bot*%
%TF.FilePolarity,Negative*%
%FSLAX46Y46*%
G04 Gerber Fmt 4.6, Leading zero omitted, Abs format (unit mm)*
G04 Created by KiCad (PCBNEW 7.0.10) date 2024-02-01 12:48:16*
%MOMM*%
%LPD*%
G01*
G04 APERTURE LIST*
G04 Aperture macros list*
%AMRoundRect*
0 Rectangle with rounded corners*
0 $1 Rounding radius*
0 $2 $3 $4 $5 $6 $7 $8 $9 X,Y pos of 4 corners*
0 Add a 4 corners polygon primitive as box body*
4,1,4,$2,$3,$4,$5,$6,$7,$8,$9,$2,$3,0*
0 Add four circle primitives for the rounded corners*
1,1,$1+$1,$2,$3*
1,1,$1+$1,$4,$5*
1,1,$1+$1,$6,$7*
1,1,$1+$1,$8,$9*
0 Add four rect primitives between the rounded corners*
20,1,$1+$1,$2,$3,$4,$5,0*
20,1,$1+$1,$4,$5,$6,$7,0*
20,1,$1+$1,$6,$7,$8,$9,0*
20,1,$1+$1,$8,$9,$2,$3,0*%
%AMFreePoly0*
4,1,19,0.550000,-0.750000,0.000000,-0.750000,0.000000,-0.744911,-0.071157,-0.744911,-0.207708,-0.704816,-0.327430,-0.627875,-0.420627,-0.520320,-0.479746,-0.390866,-0.500000,-0.250000,-0.500000,0.250000,-0.479746,0.390866,-0.420627,0.520320,-0.327430,0.627875,-0.207708,0.704816,-0.071157,0.744911,0.000000,0.744911,0.000000,0.750000,0.550000,0.750000,0.550000,-0.750000,0.550000,-0.750000,
$1*%
%AMFreePoly1*
4,1,19,0.000000,0.744911,0.071157,0.744911,0.207708,0.704816,0.327430,0.627875,0.420627,0.520320,0.479746,0.390866,0.500000,0.250000,0.500000,-0.250000,0.479746,-0.390866,0.420627,-0.520320,0.327430,-0.627875,0.207708,-0.704816,0.071157,-0.744911,0.000000,-0.744911,0.000000,-0.750000,-0.550000,-0.750000,-0.550000,0.750000,0.000000,0.750000,0.000000,0.744911,0.000000,0.744911,
$1*%
G04 Aperture macros list end*
%ADD10RoundRect,0.250000X0.750000X-0.600000X0.750000X0.600000X-0.750000X0.600000X-0.750000X-0.600000X0*%
%ADD11O,2.000000X1.700000*%
%ADD12C,4.700000*%
%ADD13RoundRect,0.250000X-0.750000X0.600000X-0.750000X-0.600000X0.750000X-0.600000X0.750000X0.600000X0*%
%ADD14R,3.000000X3.000000*%
%ADD15C,3.000000*%
%ADD16C,2.780000*%
%ADD17RoundRect,0.250000X0.600000X0.750000X-0.600000X0.750000X-0.600000X-0.750000X0.600000X-0.750000X0*%
%ADD18O,1.700000X2.000000*%
%ADD19C,7.000000*%
%ADD20C,1.500000*%
%ADD21R,1.700000X1.700000*%
%ADD22O,1.700000X1.700000*%
%ADD23FreePoly0,90.000000*%
%ADD24R,1.500000X1.000000*%
%ADD25FreePoly1,90.000000*%
G04 APERTURE END LIST*
%TO.C,G\u002A\u002A\u002A*%
G36*
X131343096Y-82312500D02*
G01*
X131030519Y-82312500D01*
X131030519Y-81062500D01*
X131343096Y-81062500D01*
X131343096Y-82312500D01*
G37*
G36*
X134156289Y-80437500D02*
G01*
X133843711Y-80437500D01*
X133843711Y-81687500D01*
X133531135Y-81687500D01*
X133531135Y-83562500D01*
X132593404Y-83562500D01*
X132593404Y-83250000D01*
X132280827Y-83250000D01*
X132280827Y-82937500D01*
X131968250Y-82937500D01*
X131655673Y-82937500D01*
X131655673Y-82000000D01*
X131968250Y-82000000D01*
X132593404Y-82000000D01*
X132593404Y-82937500D01*
X133218558Y-82937500D01*
X133218558Y-82000000D01*
X132593404Y-82000000D01*
X132593404Y-81375000D01*
X133218558Y-81375000D01*
X133218558Y-80437500D01*
X132593404Y-80437500D01*
X132593404Y-81375000D01*
X131968250Y-81375000D01*
X131968250Y-82000000D01*
X131655673Y-82000000D01*
X131655673Y-80437500D01*
X132280827Y-80437500D01*
X132280827Y-80125000D01*
X132593404Y-80125000D01*
X132593404Y-79812500D01*
X134156289Y-79812500D01*
X134156289Y-80437500D01*
G37*
G36*
X136031750Y-79812500D02*
G01*
X136344327Y-79812500D01*
X136344327Y-82312500D01*
X136031750Y-82312500D01*
X136031750Y-83875000D01*
X135719173Y-83875000D01*
X135719173Y-84187500D01*
X134468866Y-84187500D01*
X134156289Y-84187500D01*
X134156289Y-83250000D01*
X134468866Y-83250000D01*
X134781443Y-83250000D01*
X134781443Y-82937500D01*
X135406597Y-82937500D01*
X135406597Y-83250000D01*
X135719173Y-83250000D01*
X135719173Y-82312500D01*
X135406597Y-82312500D01*
X135406597Y-82000000D01*
X136031750Y-82000000D01*
X136031750Y-81062500D01*
X135719173Y-81062500D01*
X135719173Y-81375000D01*
X135094020Y-81375000D01*
X135094020Y-81062500D01*
X134781443Y-81062500D01*
X134781443Y-82000000D01*
X135094020Y-82000000D01*
X135094020Y-82312500D01*
X134468866Y-82312500D01*
X134468866Y-83250000D01*
X134156289Y-83250000D01*
X134156289Y-82000000D01*
X134468866Y-82000000D01*
X134468866Y-80750000D01*
X134781443Y-80750000D01*
X134781443Y-80437500D01*
X135094020Y-80437500D01*
X135094020Y-79500000D01*
X136031750Y-79500000D01*
X136031750Y-79812500D01*
G37*
%TD*%
D10*
%TO.C,J8*%
X146200000Y-64900000D03*
D11*
X146200000Y-62400000D03*
%TD*%
D12*
%TO.C,H2*%
X88750000Y-56750000D03*
%TD*%
D13*
%TO.C,J2*%
X95400000Y-103500000D03*
D11*
X95400000Y-106000000D03*
%TD*%
D14*
%TO.C,J1*%
X101060000Y-104500000D03*
D15*
X106140000Y-104500000D03*
%TD*%
D16*
%TO.C,F1*%
X112240000Y-102800000D03*
X112240000Y-106200000D03*
X125740000Y-102800000D03*
X125740000Y-106200000D03*
%TD*%
D17*
%TO.C,J3*%
X131250000Y-64350000D03*
D18*
X128750000Y-64350000D03*
%TD*%
D12*
%TO.C,H3*%
X146750000Y-56750000D03*
%TD*%
D19*
%TO.C,U2*%
X89500000Y-64200000D03*
X121500000Y-64200000D03*
X89500000Y-96200000D03*
X121500000Y-96200000D03*
%TD*%
D12*
%TO.C,H1*%
X146750000Y-105750000D03*
%TD*%
%TO.C,H4*%
X88750000Y-105750000D03*
%TD*%
D20*
%TO.C,TP5*%
X130000000Y-61500000D03*
%TD*%
D21*
%TO.C,J6*%
X93620000Y-58020000D03*
D22*
X93620000Y-55480000D03*
X96160000Y-58020000D03*
X96160000Y-55480000D03*
X98700000Y-58020000D03*
X98700000Y-55480000D03*
X101240000Y-58020000D03*
X101240000Y-55480000D03*
X103780000Y-58020000D03*
X103780000Y-55480000D03*
X106320000Y-58020000D03*
X106320000Y-55480000D03*
X108860000Y-58020000D03*
X108860000Y-55480000D03*
X111400000Y-58020000D03*
X111400000Y-55480000D03*
X113940000Y-58020000D03*
X113940000Y-55480000D03*
X116480000Y-58020000D03*
X116480000Y-55480000D03*
X119020000Y-58020000D03*
X119020000Y-55480000D03*
X121560000Y-58020000D03*
X121560000Y-55480000D03*
X124100000Y-58020000D03*
X124100000Y-55480000D03*
X126640000Y-58020000D03*
X126640000Y-55480000D03*
X129180000Y-58020000D03*
X129180000Y-55480000D03*
X131720000Y-58020000D03*
X131720000Y-55480000D03*
X134260000Y-58020000D03*
X134260000Y-55480000D03*
X136800000Y-58020000D03*
X136800000Y-55480000D03*
X139340000Y-58020000D03*
X139340000Y-55480000D03*
X141880000Y-58020000D03*
X141880000Y-55480000D03*
%TD*%
D23*
%TO.C,JP1*%
X134000000Y-70300000D03*
D24*
X134000000Y-69000000D03*
D25*
X134000000Y-67700000D03*
%TD*%
D20*
%TO.C,TP4*%
X140750000Y-98000000D03*
%TD*%
%TO.C,TP1*%
X137500000Y-72500000D03*
%TD*%
%TO.C,TP6*%
X130000000Y-75000000D03*
%TD*%
%TO.C,TP2*%
X104000000Y-101500000D03*
%TD*%
%TO.C,TP3*%
X135000000Y-104000000D03*
%TD*%
M02*
