%TF.GenerationSoftware,KiCad,Pcbnew,7.0.10*%
%TF.CreationDate,2024-02-02T17:20:01-06:00*%
%TF.ProjectId,ElectriPi,456c6563-7472-4695-9069-2e6b69636164,rev?*%
%TF.SameCoordinates,Original*%
%TF.FileFunction,Legend,Top*%
%TF.FilePolarity,Positive*%
%FSLAX46Y46*%
G04 Gerber Fmt 4.6, Leading zero omitted, Abs format (unit mm)*
G04 Created by KiCad (PCBNEW 7.0.10) date 2024-02-02 17:20:01*
%MOMM*%
%LPD*%
G01*
G04 APERTURE LIST*
%ADD10C,0.150000*%
%ADD11C,0.153000*%
%ADD12C,0.125000*%
%ADD13C,0.100000*%
%ADD14C,0.120000*%
G04 APERTURE END LIST*
D10*
X149323866Y-59430951D02*
X149323866Y-58669047D01*
D11*
X108469048Y-54123710D02*
X109230953Y-54123710D01*
D10*
X148250000Y-73286104D02*
X148288095Y-73324200D01*
X148288095Y-73324200D02*
X148250000Y-73362295D01*
X148250000Y-73362295D02*
X148211904Y-73324200D01*
X148211904Y-73324200D02*
X148250000Y-73286104D01*
X148250000Y-73286104D02*
X148250000Y-73362295D01*
X140750000Y-64359580D02*
X140797619Y-64407200D01*
X140797619Y-64407200D02*
X140750000Y-64454819D01*
X140750000Y-64454819D02*
X140702381Y-64407200D01*
X140702381Y-64407200D02*
X140750000Y-64359580D01*
X140750000Y-64359580D02*
X140750000Y-64454819D01*
X148250000Y-74036104D02*
X148288095Y-74074200D01*
X148288095Y-74074200D02*
X148250000Y-74112295D01*
X148250000Y-74112295D02*
X148211904Y-74074200D01*
X148211904Y-74074200D02*
X148250000Y-74036104D01*
X148250000Y-74036104D02*
X148250000Y-74112295D01*
X130869048Y-60173866D02*
X131630953Y-60173866D01*
X131250000Y-60554819D02*
X131250000Y-59792914D01*
X91900000Y-58086104D02*
X91938095Y-58124200D01*
X91938095Y-58124200D02*
X91900000Y-58162295D01*
X91900000Y-58162295D02*
X91861904Y-58124200D01*
X91861904Y-58124200D02*
X91900000Y-58086104D01*
X91900000Y-58086104D02*
X91900000Y-58162295D01*
X147362295Y-76816666D02*
X148162295Y-76549999D01*
X148162295Y-76549999D02*
X147362295Y-76283333D01*
X148086104Y-75559523D02*
X148124200Y-75597619D01*
X148124200Y-75597619D02*
X148162295Y-75711904D01*
X148162295Y-75711904D02*
X148162295Y-75788095D01*
X148162295Y-75788095D02*
X148124200Y-75902381D01*
X148124200Y-75902381D02*
X148048009Y-75978571D01*
X148048009Y-75978571D02*
X147971819Y-76016666D01*
X147971819Y-76016666D02*
X147819438Y-76054762D01*
X147819438Y-76054762D02*
X147705152Y-76054762D01*
X147705152Y-76054762D02*
X147552771Y-76016666D01*
X147552771Y-76016666D02*
X147476580Y-75978571D01*
X147476580Y-75978571D02*
X147400390Y-75902381D01*
X147400390Y-75902381D02*
X147362295Y-75788095D01*
X147362295Y-75788095D02*
X147362295Y-75711904D01*
X147362295Y-75711904D02*
X147400390Y-75597619D01*
X147400390Y-75597619D02*
X147438485Y-75559523D01*
X148086104Y-74759523D02*
X148124200Y-74797619D01*
X148124200Y-74797619D02*
X148162295Y-74911904D01*
X148162295Y-74911904D02*
X148162295Y-74988095D01*
X148162295Y-74988095D02*
X148124200Y-75102381D01*
X148124200Y-75102381D02*
X148048009Y-75178571D01*
X148048009Y-75178571D02*
X147971819Y-75216666D01*
X147971819Y-75216666D02*
X147819438Y-75254762D01*
X147819438Y-75254762D02*
X147705152Y-75254762D01*
X147705152Y-75254762D02*
X147552771Y-75216666D01*
X147552771Y-75216666D02*
X147476580Y-75178571D01*
X147476580Y-75178571D02*
X147400390Y-75102381D01*
X147400390Y-75102381D02*
X147362295Y-74988095D01*
X147362295Y-74988095D02*
X147362295Y-74911904D01*
X147362295Y-74911904D02*
X147400390Y-74797619D01*
X147400390Y-74797619D02*
X147438485Y-74759523D01*
X105869048Y-99573866D02*
X106630953Y-99573866D01*
D11*
X103369048Y-59473710D02*
X104130953Y-59473710D01*
D10*
X128369048Y-60223866D02*
X129130953Y-60223866D01*
X147462295Y-70152380D02*
X147462295Y-70533332D01*
X147462295Y-70533332D02*
X147843247Y-70571428D01*
X147843247Y-70571428D02*
X147805152Y-70533332D01*
X147805152Y-70533332D02*
X147767057Y-70457142D01*
X147767057Y-70457142D02*
X147767057Y-70266666D01*
X147767057Y-70266666D02*
X147805152Y-70190475D01*
X147805152Y-70190475D02*
X147843247Y-70152380D01*
X147843247Y-70152380D02*
X147919438Y-70114285D01*
X147919438Y-70114285D02*
X148109914Y-70114285D01*
X148109914Y-70114285D02*
X148186104Y-70152380D01*
X148186104Y-70152380D02*
X148224200Y-70190475D01*
X148224200Y-70190475D02*
X148262295Y-70266666D01*
X148262295Y-70266666D02*
X148262295Y-70457142D01*
X148262295Y-70457142D02*
X148224200Y-70533332D01*
X148224200Y-70533332D02*
X148186104Y-70571428D01*
X147462295Y-69885713D02*
X148262295Y-69619046D01*
X148262295Y-69619046D02*
X147462295Y-69352380D01*
D12*
X147769047Y-68164976D02*
X147388094Y-68164976D01*
X147845237Y-67936404D02*
X147578570Y-68736404D01*
X147578570Y-68736404D02*
X147311904Y-67936404D01*
X147045237Y-68736404D02*
X147045237Y-68088785D01*
X147045237Y-68088785D02*
X147007142Y-68012595D01*
X147007142Y-68012595D02*
X146969047Y-67974500D01*
X146969047Y-67974500D02*
X146892856Y-67936404D01*
X146892856Y-67936404D02*
X146740475Y-67936404D01*
X146740475Y-67936404D02*
X146664285Y-67974500D01*
X146664285Y-67974500D02*
X146626190Y-68012595D01*
X146626190Y-68012595D02*
X146588094Y-68088785D01*
X146588094Y-68088785D02*
X146588094Y-68736404D01*
X146283333Y-68736404D02*
X145749999Y-67936404D01*
X145749999Y-68736404D02*
X146283333Y-67936404D01*
X144454761Y-68736404D02*
X144835713Y-68736404D01*
X144835713Y-68736404D02*
X144873809Y-68355452D01*
X144873809Y-68355452D02*
X144835713Y-68393547D01*
X144835713Y-68393547D02*
X144759523Y-68431642D01*
X144759523Y-68431642D02*
X144569047Y-68431642D01*
X144569047Y-68431642D02*
X144492856Y-68393547D01*
X144492856Y-68393547D02*
X144454761Y-68355452D01*
X144454761Y-68355452D02*
X144416666Y-68279261D01*
X144416666Y-68279261D02*
X144416666Y-68088785D01*
X144416666Y-68088785D02*
X144454761Y-68012595D01*
X144454761Y-68012595D02*
X144492856Y-67974500D01*
X144492856Y-67974500D02*
X144569047Y-67936404D01*
X144569047Y-67936404D02*
X144759523Y-67936404D01*
X144759523Y-67936404D02*
X144835713Y-67974500D01*
X144835713Y-67974500D02*
X144873809Y-68012595D01*
X144188094Y-68736404D02*
X143921427Y-67936404D01*
X143921427Y-67936404D02*
X143654761Y-68736404D01*
D10*
X149323866Y-68380951D02*
X149323866Y-67619047D01*
X149704819Y-67999999D02*
X148942914Y-67999999D01*
D11*
X95749048Y-54073710D02*
X96510953Y-54073710D01*
X96130000Y-54454663D02*
X96130000Y-53692758D01*
D10*
X135500000Y-98259580D02*
X135547619Y-98307200D01*
X135547619Y-98307200D02*
X135500000Y-98354819D01*
X135500000Y-98354819D02*
X135452381Y-98307200D01*
X135452381Y-98307200D02*
X135500000Y-98259580D01*
X135500000Y-98259580D02*
X135500000Y-98354819D01*
X100695238Y-108757533D02*
X101304762Y-108757533D01*
X101000000Y-109062295D02*
X101000000Y-108452771D01*
X141390419Y-104000000D02*
X141342800Y-104047619D01*
X141342800Y-104047619D02*
X141295180Y-104000000D01*
X141295180Y-104000000D02*
X141342800Y-103952381D01*
X141342800Y-103952381D02*
X141390419Y-104000000D01*
X141390419Y-104000000D02*
X141295180Y-104000000D01*
X127052381Y-67443247D02*
X126785715Y-67443247D01*
X126785715Y-67862295D02*
X126785715Y-67062295D01*
X126785715Y-67062295D02*
X127166667Y-67062295D01*
X127433333Y-67633723D02*
X127814286Y-67633723D01*
X127357143Y-67862295D02*
X127623810Y-67062295D01*
X127623810Y-67062295D02*
X127890476Y-67862295D01*
X128157143Y-67862295D02*
X128157143Y-67062295D01*
X128157143Y-67062295D02*
X128614286Y-67862295D01*
X128614286Y-67862295D02*
X128614286Y-67062295D01*
D11*
X93219048Y-54073710D02*
X93980953Y-54073710D01*
X93600000Y-54454663D02*
X93600000Y-53692758D01*
X98269048Y-54073710D02*
X99030953Y-54073710D01*
D10*
X91380951Y-108073866D02*
X90619047Y-108073866D01*
D11*
X116119048Y-54123710D02*
X116880953Y-54123710D01*
X143069048Y-58023710D02*
X143830953Y-58023710D01*
D10*
X100619048Y-99573866D02*
X101380953Y-99573866D01*
X101000000Y-99954819D02*
X101000000Y-99192914D01*
X90619048Y-101573866D02*
X91380953Y-101573866D01*
X91000000Y-101954819D02*
X91000000Y-101192914D01*
X137750000Y-62209580D02*
X137797619Y-62257200D01*
X137797619Y-62257200D02*
X137750000Y-62304819D01*
X137750000Y-62304819D02*
X137702381Y-62257200D01*
X137702381Y-62257200D02*
X137750000Y-62209580D01*
X137750000Y-62209580D02*
X137750000Y-62304819D01*
D11*
X133869048Y-54123710D02*
X134630953Y-54123710D01*
D10*
X141940000Y-103284580D02*
X141987619Y-103332200D01*
X141987619Y-103332200D02*
X141940000Y-103379819D01*
X141940000Y-103379819D02*
X141892381Y-103332200D01*
X141892381Y-103332200D02*
X141940000Y-103284580D01*
X141940000Y-103284580D02*
X141940000Y-103379819D01*
X141750000Y-84559580D02*
X141797619Y-84607200D01*
X141797619Y-84607200D02*
X141750000Y-84654819D01*
X141750000Y-84654819D02*
X141702381Y-84607200D01*
X141702381Y-84607200D02*
X141750000Y-84559580D01*
X141750000Y-84559580D02*
X141750000Y-84654819D01*
D11*
X123719048Y-59423710D02*
X124480953Y-59423710D01*
D13*
X86323809Y-101720895D02*
X85866666Y-101720895D01*
X86095238Y-101720895D02*
X86095238Y-100920895D01*
X86095238Y-100920895D02*
X86019047Y-101035180D01*
X86019047Y-101035180D02*
X85942857Y-101111371D01*
X85942857Y-101111371D02*
X85866666Y-101149466D01*
X86628571Y-100997085D02*
X86666667Y-100958990D01*
X86666667Y-100958990D02*
X86742857Y-100920895D01*
X86742857Y-100920895D02*
X86933333Y-100920895D01*
X86933333Y-100920895D02*
X87009524Y-100958990D01*
X87009524Y-100958990D02*
X87047619Y-100997085D01*
X87047619Y-100997085D02*
X87085714Y-101073276D01*
X87085714Y-101073276D02*
X87085714Y-101149466D01*
X87085714Y-101149466D02*
X87047619Y-101263752D01*
X87047619Y-101263752D02*
X86590476Y-101720895D01*
X86590476Y-101720895D02*
X87085714Y-101720895D01*
X88000000Y-100882800D02*
X87314286Y-101911371D01*
X88228571Y-100997085D02*
X88266667Y-100958990D01*
X88266667Y-100958990D02*
X88342857Y-100920895D01*
X88342857Y-100920895D02*
X88533333Y-100920895D01*
X88533333Y-100920895D02*
X88609524Y-100958990D01*
X88609524Y-100958990D02*
X88647619Y-100997085D01*
X88647619Y-100997085D02*
X88685714Y-101073276D01*
X88685714Y-101073276D02*
X88685714Y-101149466D01*
X88685714Y-101149466D02*
X88647619Y-101263752D01*
X88647619Y-101263752D02*
X88190476Y-101720895D01*
X88190476Y-101720895D02*
X88685714Y-101720895D01*
X89371429Y-101187561D02*
X89371429Y-101720895D01*
X89180953Y-100882800D02*
X88990476Y-101454228D01*
X88990476Y-101454228D02*
X89485715Y-101454228D01*
X89676191Y-100920895D02*
X89942858Y-101720895D01*
X89942858Y-101720895D02*
X90209524Y-100920895D01*
X86076191Y-103008895D02*
X86076191Y-102208895D01*
X86457143Y-103008895D02*
X86457143Y-102208895D01*
X86457143Y-102208895D02*
X86914286Y-103008895D01*
X86914286Y-103008895D02*
X86914286Y-102208895D01*
X87295238Y-103008895D02*
X87295238Y-102208895D01*
X87295238Y-102208895D02*
X87600000Y-102208895D01*
X87600000Y-102208895D02*
X87676190Y-102246990D01*
X87676190Y-102246990D02*
X87714285Y-102285085D01*
X87714285Y-102285085D02*
X87752381Y-102361276D01*
X87752381Y-102361276D02*
X87752381Y-102475561D01*
X87752381Y-102475561D02*
X87714285Y-102551752D01*
X87714285Y-102551752D02*
X87676190Y-102589847D01*
X87676190Y-102589847D02*
X87600000Y-102627942D01*
X87600000Y-102627942D02*
X87295238Y-102627942D01*
X88095238Y-102208895D02*
X88095238Y-102856514D01*
X88095238Y-102856514D02*
X88133333Y-102932704D01*
X88133333Y-102932704D02*
X88171428Y-102970800D01*
X88171428Y-102970800D02*
X88247619Y-103008895D01*
X88247619Y-103008895D02*
X88400000Y-103008895D01*
X88400000Y-103008895D02*
X88476190Y-102970800D01*
X88476190Y-102970800D02*
X88514285Y-102932704D01*
X88514285Y-102932704D02*
X88552381Y-102856514D01*
X88552381Y-102856514D02*
X88552381Y-102208895D01*
X88819047Y-102208895D02*
X89276190Y-102208895D01*
X89047618Y-103008895D02*
X89047618Y-102208895D01*
X89504761Y-102970800D02*
X89619047Y-103008895D01*
X89619047Y-103008895D02*
X89809523Y-103008895D01*
X89809523Y-103008895D02*
X89885714Y-102970800D01*
X89885714Y-102970800D02*
X89923809Y-102932704D01*
X89923809Y-102932704D02*
X89961904Y-102856514D01*
X89961904Y-102856514D02*
X89961904Y-102780323D01*
X89961904Y-102780323D02*
X89923809Y-102704133D01*
X89923809Y-102704133D02*
X89885714Y-102666038D01*
X89885714Y-102666038D02*
X89809523Y-102627942D01*
X89809523Y-102627942D02*
X89657142Y-102589847D01*
X89657142Y-102589847D02*
X89580952Y-102551752D01*
X89580952Y-102551752D02*
X89542857Y-102513657D01*
X89542857Y-102513657D02*
X89504761Y-102437466D01*
X89504761Y-102437466D02*
X89504761Y-102361276D01*
X89504761Y-102361276D02*
X89542857Y-102285085D01*
X89542857Y-102285085D02*
X89580952Y-102246990D01*
X89580952Y-102246990D02*
X89657142Y-102208895D01*
X89657142Y-102208895D02*
X89847619Y-102208895D01*
X89847619Y-102208895D02*
X89961904Y-102246990D01*
D11*
X128769048Y-54123710D02*
X129530953Y-54123710D01*
D10*
X105945238Y-108807533D02*
X106554762Y-108807533D01*
X147679819Y-63983333D02*
X148394104Y-63983333D01*
X148394104Y-63983333D02*
X148536961Y-64030952D01*
X148536961Y-64030952D02*
X148632200Y-64126190D01*
X148632200Y-64126190D02*
X148679819Y-64269047D01*
X148679819Y-64269047D02*
X148679819Y-64364285D01*
X148108390Y-63364285D02*
X148060771Y-63459523D01*
X148060771Y-63459523D02*
X148013152Y-63507142D01*
X148013152Y-63507142D02*
X147917914Y-63554761D01*
X147917914Y-63554761D02*
X147870295Y-63554761D01*
X147870295Y-63554761D02*
X147775057Y-63507142D01*
X147775057Y-63507142D02*
X147727438Y-63459523D01*
X147727438Y-63459523D02*
X147679819Y-63364285D01*
X147679819Y-63364285D02*
X147679819Y-63173809D01*
X147679819Y-63173809D02*
X147727438Y-63078571D01*
X147727438Y-63078571D02*
X147775057Y-63030952D01*
X147775057Y-63030952D02*
X147870295Y-62983333D01*
X147870295Y-62983333D02*
X147917914Y-62983333D01*
X147917914Y-62983333D02*
X148013152Y-63030952D01*
X148013152Y-63030952D02*
X148060771Y-63078571D01*
X148060771Y-63078571D02*
X148108390Y-63173809D01*
X148108390Y-63173809D02*
X148108390Y-63364285D01*
X148108390Y-63364285D02*
X148156009Y-63459523D01*
X148156009Y-63459523D02*
X148203628Y-63507142D01*
X148203628Y-63507142D02*
X148298866Y-63554761D01*
X148298866Y-63554761D02*
X148489342Y-63554761D01*
X148489342Y-63554761D02*
X148584580Y-63507142D01*
X148584580Y-63507142D02*
X148632200Y-63459523D01*
X148632200Y-63459523D02*
X148679819Y-63364285D01*
X148679819Y-63364285D02*
X148679819Y-63173809D01*
X148679819Y-63173809D02*
X148632200Y-63078571D01*
X148632200Y-63078571D02*
X148584580Y-63030952D01*
X148584580Y-63030952D02*
X148489342Y-62983333D01*
X148489342Y-62983333D02*
X148298866Y-62983333D01*
X148298866Y-62983333D02*
X148203628Y-63030952D01*
X148203628Y-63030952D02*
X148156009Y-63078571D01*
X148156009Y-63078571D02*
X148108390Y-63173809D01*
X93029819Y-105383333D02*
X93744104Y-105383333D01*
X93744104Y-105383333D02*
X93886961Y-105430952D01*
X93886961Y-105430952D02*
X93982200Y-105526190D01*
X93982200Y-105526190D02*
X94029819Y-105669047D01*
X94029819Y-105669047D02*
X94029819Y-105764285D01*
X93125057Y-104954761D02*
X93077438Y-104907142D01*
X93077438Y-104907142D02*
X93029819Y-104811904D01*
X93029819Y-104811904D02*
X93029819Y-104573809D01*
X93029819Y-104573809D02*
X93077438Y-104478571D01*
X93077438Y-104478571D02*
X93125057Y-104430952D01*
X93125057Y-104430952D02*
X93220295Y-104383333D01*
X93220295Y-104383333D02*
X93315533Y-104383333D01*
X93315533Y-104383333D02*
X93458390Y-104430952D01*
X93458390Y-104430952D02*
X94029819Y-105002380D01*
X94029819Y-105002380D02*
X94029819Y-104383333D01*
X103266666Y-101204819D02*
X103266666Y-101919104D01*
X103266666Y-101919104D02*
X103219047Y-102061961D01*
X103219047Y-102061961D02*
X103123809Y-102157200D01*
X103123809Y-102157200D02*
X102980952Y-102204819D01*
X102980952Y-102204819D02*
X102885714Y-102204819D01*
X104266666Y-102204819D02*
X103695238Y-102204819D01*
X103980952Y-102204819D02*
X103980952Y-101204819D01*
X103980952Y-101204819D02*
X103885714Y-101347676D01*
X103885714Y-101347676D02*
X103790476Y-101442914D01*
X103790476Y-101442914D02*
X103695238Y-101490533D01*
X135857142Y-91609580D02*
X135809523Y-91657200D01*
X135809523Y-91657200D02*
X135666666Y-91704819D01*
X135666666Y-91704819D02*
X135571428Y-91704819D01*
X135571428Y-91704819D02*
X135428571Y-91657200D01*
X135428571Y-91657200D02*
X135333333Y-91561961D01*
X135333333Y-91561961D02*
X135285714Y-91466723D01*
X135285714Y-91466723D02*
X135238095Y-91276247D01*
X135238095Y-91276247D02*
X135238095Y-91133390D01*
X135238095Y-91133390D02*
X135285714Y-90942914D01*
X135285714Y-90942914D02*
X135333333Y-90847676D01*
X135333333Y-90847676D02*
X135428571Y-90752438D01*
X135428571Y-90752438D02*
X135571428Y-90704819D01*
X135571428Y-90704819D02*
X135666666Y-90704819D01*
X135666666Y-90704819D02*
X135809523Y-90752438D01*
X135809523Y-90752438D02*
X135857142Y-90800057D01*
X136809523Y-91704819D02*
X136238095Y-91704819D01*
X136523809Y-91704819D02*
X136523809Y-90704819D01*
X136523809Y-90704819D02*
X136428571Y-90847676D01*
X136428571Y-90847676D02*
X136333333Y-90942914D01*
X136333333Y-90942914D02*
X136238095Y-90990533D01*
X137380952Y-91133390D02*
X137285714Y-91085771D01*
X137285714Y-91085771D02*
X137238095Y-91038152D01*
X137238095Y-91038152D02*
X137190476Y-90942914D01*
X137190476Y-90942914D02*
X137190476Y-90895295D01*
X137190476Y-90895295D02*
X137238095Y-90800057D01*
X137238095Y-90800057D02*
X137285714Y-90752438D01*
X137285714Y-90752438D02*
X137380952Y-90704819D01*
X137380952Y-90704819D02*
X137571428Y-90704819D01*
X137571428Y-90704819D02*
X137666666Y-90752438D01*
X137666666Y-90752438D02*
X137714285Y-90800057D01*
X137714285Y-90800057D02*
X137761904Y-90895295D01*
X137761904Y-90895295D02*
X137761904Y-90942914D01*
X137761904Y-90942914D02*
X137714285Y-91038152D01*
X137714285Y-91038152D02*
X137666666Y-91085771D01*
X137666666Y-91085771D02*
X137571428Y-91133390D01*
X137571428Y-91133390D02*
X137380952Y-91133390D01*
X137380952Y-91133390D02*
X137285714Y-91181009D01*
X137285714Y-91181009D02*
X137238095Y-91228628D01*
X137238095Y-91228628D02*
X137190476Y-91323866D01*
X137190476Y-91323866D02*
X137190476Y-91514342D01*
X137190476Y-91514342D02*
X137238095Y-91609580D01*
X137238095Y-91609580D02*
X137285714Y-91657200D01*
X137285714Y-91657200D02*
X137380952Y-91704819D01*
X137380952Y-91704819D02*
X137571428Y-91704819D01*
X137571428Y-91704819D02*
X137666666Y-91657200D01*
X137666666Y-91657200D02*
X137714285Y-91609580D01*
X137714285Y-91609580D02*
X137761904Y-91514342D01*
X137761904Y-91514342D02*
X137761904Y-91323866D01*
X137761904Y-91323866D02*
X137714285Y-91228628D01*
X137714285Y-91228628D02*
X137666666Y-91181009D01*
X137666666Y-91181009D02*
X137571428Y-91133390D01*
X132983333Y-59562295D02*
X132983333Y-60133723D01*
X132983333Y-60133723D02*
X132945238Y-60248009D01*
X132945238Y-60248009D02*
X132869047Y-60324200D01*
X132869047Y-60324200D02*
X132754762Y-60362295D01*
X132754762Y-60362295D02*
X132678571Y-60362295D01*
X133288095Y-59562295D02*
X133783333Y-59562295D01*
X133783333Y-59562295D02*
X133516667Y-59867057D01*
X133516667Y-59867057D02*
X133630952Y-59867057D01*
X133630952Y-59867057D02*
X133707143Y-59905152D01*
X133707143Y-59905152D02*
X133745238Y-59943247D01*
X133745238Y-59943247D02*
X133783333Y-60019438D01*
X133783333Y-60019438D02*
X133783333Y-60209914D01*
X133783333Y-60209914D02*
X133745238Y-60286104D01*
X133745238Y-60286104D02*
X133707143Y-60324200D01*
X133707143Y-60324200D02*
X133630952Y-60362295D01*
X133630952Y-60362295D02*
X133402381Y-60362295D01*
X133402381Y-60362295D02*
X133326190Y-60324200D01*
X133326190Y-60324200D02*
X133288095Y-60286104D01*
X132083333Y-87954819D02*
X131607143Y-87954819D01*
X131607143Y-87954819D02*
X131607143Y-86954819D01*
X132940476Y-87954819D02*
X132369048Y-87954819D01*
X132654762Y-87954819D02*
X132654762Y-86954819D01*
X132654762Y-86954819D02*
X132559524Y-87097676D01*
X132559524Y-87097676D02*
X132464286Y-87192914D01*
X132464286Y-87192914D02*
X132369048Y-87240533D01*
D14*
%TO.C,J8*%
X143450000Y-67750000D02*
X144700000Y-67750000D01*
X143740000Y-67460000D02*
X149710000Y-67460000D01*
X149710000Y-67460000D02*
X149710000Y-59840000D01*
X143750000Y-67450000D02*
X144500000Y-67450000D01*
X144500000Y-67450000D02*
X144500000Y-65650000D01*
X146000000Y-67450000D02*
X146000000Y-66700000D01*
X146000000Y-66700000D02*
X148950000Y-66700000D01*
X148950000Y-66700000D02*
X148950000Y-63650000D01*
X143450000Y-66500000D02*
X143450000Y-67750000D01*
X143750000Y-65650000D02*
X143750000Y-67450000D01*
X144500000Y-65650000D02*
X143750000Y-65650000D01*
X143750000Y-64150000D02*
X144500000Y-64150000D01*
X144500000Y-64150000D02*
X144500000Y-63150000D01*
X143750000Y-63150000D02*
X143750000Y-64150000D01*
X144500000Y-63150000D02*
X143750000Y-63150000D01*
X143750000Y-61650000D02*
X144500000Y-61650000D01*
X144500000Y-61650000D02*
X144500000Y-59850000D01*
X146000000Y-60600000D02*
X148950000Y-60600000D01*
X148950000Y-60600000D02*
X148950000Y-63650000D01*
X143750000Y-59850000D02*
X143750000Y-61650000D01*
X144500000Y-59850000D02*
X143750000Y-59850000D01*
X146000000Y-59850000D02*
X146000000Y-60600000D01*
X143740000Y-59840000D02*
X143740000Y-67460000D01*
X149710000Y-59840000D02*
X143740000Y-59840000D01*
%TO.C,R11*%
X144846359Y-77870000D02*
X145153641Y-77870000D01*
X144846359Y-78630000D02*
X145153641Y-78630000D01*
%TO.C,C12*%
X140238748Y-60165000D02*
X140761252Y-60165000D01*
X140238748Y-61635000D02*
X140761252Y-61635000D01*
%TO.C,D4*%
X141940000Y-101250000D02*
X141940000Y-102925000D01*
X141940000Y-101250000D02*
X141940000Y-100600000D01*
X145060000Y-101250000D02*
X145060000Y-101900000D01*
X145060000Y-101250000D02*
X145060000Y-100600000D01*
%TO.C,C9*%
X137360000Y-61392164D02*
X137360000Y-61607836D01*
X136640000Y-61392164D02*
X136640000Y-61607836D01*
%TO.C,C8*%
X141357836Y-85660000D02*
X141142164Y-85660000D01*
X141357836Y-84940000D02*
X141142164Y-84940000D01*
%TO.C,Q2*%
X140325000Y-64250000D02*
X140225000Y-64250000D01*
X140325000Y-64250000D02*
X140325000Y-66200000D01*
X138025000Y-66200000D02*
X138025000Y-64700000D01*
%TO.C,R13*%
X142903641Y-77130000D02*
X142596359Y-77130000D01*
X142903641Y-76370000D02*
X142596359Y-76370000D01*
%TO.C,C14*%
X129892164Y-67640000D02*
X130107836Y-67640000D01*
X129892164Y-68360000D02*
X130107836Y-68360000D01*
%TO.C,D6*%
X139410000Y-68350000D02*
X139410000Y-68550000D01*
%TO.C,J2*%
X98150000Y-100650000D02*
X96900000Y-100650000D01*
X97860000Y-100940000D02*
X91890000Y-100940000D01*
X91890000Y-100940000D02*
X91890000Y-108560000D01*
X97850000Y-100950000D02*
X97100000Y-100950000D01*
X97100000Y-100950000D02*
X97100000Y-102750000D01*
X95600000Y-100950000D02*
X95600000Y-101700000D01*
X95600000Y-101700000D02*
X92650000Y-101700000D01*
X92650000Y-101700000D02*
X92650000Y-104750000D01*
X98150000Y-101900000D02*
X98150000Y-100650000D01*
X97850000Y-102750000D02*
X97850000Y-100950000D01*
X97100000Y-102750000D02*
X97850000Y-102750000D01*
X97850000Y-104250000D02*
X97100000Y-104250000D01*
X97100000Y-104250000D02*
X97100000Y-105250000D01*
X97850000Y-105250000D02*
X97850000Y-104250000D01*
X97100000Y-105250000D02*
X97850000Y-105250000D01*
X97850000Y-106750000D02*
X97100000Y-106750000D01*
X97100000Y-106750000D02*
X97100000Y-108550000D01*
X95600000Y-107800000D02*
X92650000Y-107800000D01*
X92650000Y-107800000D02*
X92650000Y-104750000D01*
X97850000Y-108550000D02*
X97850000Y-106750000D01*
X97100000Y-108550000D02*
X97850000Y-108550000D01*
X95600000Y-108550000D02*
X95600000Y-107800000D01*
X97860000Y-108560000D02*
X97860000Y-100940000D01*
X91890000Y-108560000D02*
X97860000Y-108560000D01*
%TO.C,J1*%
X98520000Y-100690000D02*
X98520000Y-108310000D01*
X98520000Y-108310000D02*
X108680000Y-108310000D01*
X108680000Y-100690000D02*
X98520000Y-100690000D01*
X108680000Y-107040000D02*
X98520000Y-107040000D01*
X108680000Y-108310000D02*
X108680000Y-100690000D01*
%TO.C,C3*%
X138990000Y-81190580D02*
X138990000Y-80909420D01*
X140010000Y-81190580D02*
X140010000Y-80909420D01*
%TO.C,R14*%
X142596359Y-78420000D02*
X142903641Y-78420000D01*
X142596359Y-79180000D02*
X142903641Y-79180000D01*
%TO.C,C15*%
X142377836Y-64910000D02*
X142162164Y-64910000D01*
X142377836Y-64190000D02*
X142162164Y-64190000D01*
%TO.C,C5*%
X129711252Y-74160000D02*
X128288748Y-74160000D01*
X129711252Y-72340000D02*
X128288748Y-72340000D01*
%TO.C,Q1*%
X141375000Y-103550000D02*
X141375000Y-103450000D01*
X141375000Y-103550000D02*
X139425000Y-103550000D01*
X139425000Y-101250000D02*
X140925000Y-101250000D01*
%TO.C,R3*%
X142120000Y-105403641D02*
X142120000Y-105096359D01*
X142880000Y-105403641D02*
X142880000Y-105096359D01*
%TO.C,D1*%
X138250000Y-98590000D02*
X138250000Y-107100000D01*
X131750000Y-98590000D02*
X138250000Y-98590000D01*
X131750000Y-98590000D02*
X131750000Y-107100000D01*
%TO.C,R1*%
X147096359Y-79170000D02*
X147403641Y-79170000D01*
X147096359Y-79930000D02*
X147403641Y-79930000D01*
%TO.C,C11*%
X140238748Y-62265000D02*
X140761252Y-62265000D01*
X140238748Y-63735000D02*
X140761252Y-63735000D01*
%TO.C,C6*%
X144122164Y-84940000D02*
X144337836Y-84940000D01*
X144122164Y-85660000D02*
X144337836Y-85660000D01*
%TO.C,R5*%
X140620000Y-78453641D02*
X140620000Y-78146359D01*
X141380000Y-78453641D02*
X141380000Y-78146359D01*
%TO.C,IC2*%
X144260000Y-84010000D02*
X143935000Y-84010000D01*
X141040000Y-83685000D02*
X141040000Y-84010000D01*
X144260000Y-83685000D02*
X144260000Y-84010000D01*
X141040000Y-81115000D02*
X141040000Y-80790000D01*
X144260000Y-81115000D02*
X144260000Y-80790000D01*
X141040000Y-80790000D02*
X141365000Y-80790000D01*
X144260000Y-80790000D02*
X143935000Y-80790000D01*
%TO.C,R12*%
X146153641Y-82180000D02*
X145846359Y-82180000D01*
X146153641Y-81420000D02*
X145846359Y-81420000D01*
%TO.C,C4*%
X129711252Y-76660000D02*
X128288748Y-76660000D01*
X129711252Y-74840000D02*
X128288748Y-74840000D01*
%TO.C,U1*%
X137560000Y-64600000D02*
X137560000Y-62800000D01*
X137560000Y-64600000D02*
X137560000Y-65400000D01*
X134440000Y-64600000D02*
X134440000Y-63800000D01*
X134440000Y-64600000D02*
X134440000Y-65400000D01*
%TO.C,R6*%
X148720000Y-69653641D02*
X148720000Y-69346359D01*
X149480000Y-69653641D02*
X149480000Y-69346359D01*
%TO.C,F1*%
X109100000Y-101030000D02*
X109100000Y-107970000D01*
X109100000Y-107970000D02*
X128900000Y-107970000D01*
X115600000Y-102500000D02*
X122400000Y-102500000D01*
X116450000Y-104500000D02*
X121550000Y-104500000D01*
X122400000Y-106500000D02*
X115600000Y-106500000D01*
X128900000Y-101030000D02*
X109100000Y-101030000D01*
X128900000Y-107970000D02*
X128900000Y-101030000D01*
%TO.C,C18*%
X142250000Y-96260000D02*
X141250000Y-96260000D01*
X141750000Y-96760000D02*
X141750000Y-95760000D01*
X141010000Y-96945563D02*
X141010000Y-95260000D01*
X141010000Y-96945563D02*
X139945563Y-98010000D01*
X141010000Y-90554437D02*
X141010000Y-92240000D01*
X141010000Y-90554437D02*
X139945563Y-89490000D01*
X139945563Y-98010000D02*
X132490000Y-98010000D01*
X139945563Y-89490000D02*
X132490000Y-89490000D01*
X132490000Y-98010000D02*
X132490000Y-95260000D01*
X132490000Y-89490000D02*
X132490000Y-92240000D01*
%TO.C,J3*%
X134100000Y-67100000D02*
X134100000Y-65850000D01*
X133810000Y-66810000D02*
X133810000Y-60840000D01*
X133810000Y-60840000D02*
X126190000Y-60840000D01*
X133800000Y-66800000D02*
X133800000Y-66050000D01*
X133800000Y-66050000D02*
X132000000Y-66050000D01*
X133800000Y-64550000D02*
X133050000Y-64550000D01*
X133050000Y-64550000D02*
X133050000Y-61600000D01*
X133050000Y-61600000D02*
X130000000Y-61600000D01*
X132850000Y-67100000D02*
X134100000Y-67100000D01*
X132000000Y-66800000D02*
X133800000Y-66800000D01*
X132000000Y-66050000D02*
X132000000Y-66800000D01*
X130500000Y-66800000D02*
X130500000Y-66050000D01*
X130500000Y-66050000D02*
X129500000Y-66050000D01*
X129500000Y-66800000D02*
X130500000Y-66800000D01*
X129500000Y-66050000D02*
X129500000Y-66800000D01*
X128000000Y-66800000D02*
X128000000Y-66050000D01*
X128000000Y-66050000D02*
X126200000Y-66050000D01*
X126950000Y-64550000D02*
X126950000Y-61600000D01*
X126950000Y-61600000D02*
X130000000Y-61600000D01*
X126200000Y-66800000D02*
X128000000Y-66800000D01*
X126200000Y-66050000D02*
X126200000Y-66800000D01*
X126200000Y-64550000D02*
X126950000Y-64550000D01*
X126190000Y-66810000D02*
X133810000Y-66810000D01*
X126190000Y-60840000D02*
X126190000Y-66810000D01*
%TO.C,C1*%
X144188748Y-86265000D02*
X144711252Y-86265000D01*
X144188748Y-87735000D02*
X144711252Y-87735000D01*
%TO.C,C7*%
X128107836Y-77860000D02*
X127892164Y-77860000D01*
X128107836Y-77140000D02*
X127892164Y-77140000D01*
%TO.C,R4*%
X139880000Y-78146359D02*
X139880000Y-78453641D01*
X139120000Y-78146359D02*
X139120000Y-78453641D01*
%TO.C,C2*%
X144188748Y-88515000D02*
X144711252Y-88515000D01*
X144188748Y-89985000D02*
X144711252Y-89985000D01*
%TO.C,D5*%
X149935000Y-73765000D02*
X148465000Y-73765000D01*
X148465000Y-73765000D02*
X148465000Y-76050000D01*
X149935000Y-76050000D02*
X149935000Y-73765000D01*
D13*
%TO.C,U2*%
X85500000Y-96200000D02*
X85500000Y-64200000D01*
X89500000Y-60200000D02*
X121500000Y-60200000D01*
X121500000Y-100200000D02*
X89500000Y-100200000D01*
X125500000Y-64200000D02*
X125500000Y-96200000D01*
X89500000Y-60200000D02*
G75*
G03*
X85500000Y-64200000I0J-4000000D01*
G01*
X85500000Y-96200000D02*
G75*
G03*
X89500000Y-100200000I4000000J0D01*
G01*
X125500000Y-64200000D02*
G75*
G03*
X121500000Y-60200000I-4000000J0D01*
G01*
X121500000Y-100200000D02*
G75*
G03*
X125500000Y-96200000I0J4000000D01*
G01*
D14*
%TO.C,C10*%
X138872164Y-67090000D02*
X139087836Y-67090000D01*
X138872164Y-67810000D02*
X139087836Y-67810000D01*
%TO.C,D3*%
X148465000Y-73485000D02*
X149935000Y-73485000D01*
X149935000Y-73485000D02*
X149935000Y-71200000D01*
X148465000Y-71200000D02*
X148465000Y-73485000D01*
%TO.C,L1*%
X137430000Y-88680000D02*
X127070000Y-88680000D01*
X137430000Y-86275000D02*
X137430000Y-88680000D01*
X137430000Y-80725000D02*
X137430000Y-78320000D01*
X137430000Y-78320000D02*
X127070000Y-78320000D01*
X127070000Y-88680000D02*
X127070000Y-86275000D01*
X127070000Y-78320000D02*
X127070000Y-80725000D01*
%TO.C,R8*%
X149630000Y-77596359D02*
X149630000Y-77903641D01*
X148870000Y-77596359D02*
X148870000Y-77903641D01*
%TO.C,C17*%
X142892164Y-103390000D02*
X143107836Y-103390000D01*
X142892164Y-104110000D02*
X143107836Y-104110000D01*
%TO.C,R7*%
X145153641Y-79930000D02*
X144846359Y-79930000D01*
X145153641Y-79170000D02*
X144846359Y-79170000D01*
%TD*%
M02*
