%TF.GenerationSoftware,KiCad,Pcbnew,7.0.10*%
%TF.CreationDate,2024-02-18T13:33:04-06:00*%
%TF.ProjectId,ElectriPi,456c6563-7472-4695-9069-2e6b69636164,rev?*%
%TF.SameCoordinates,PX514cfd0PY32c87d0*%
%TF.FileFunction,Copper,L2,Bot*%
%TF.FilePolarity,Positive*%
%FSLAX46Y46*%
G04 Gerber Fmt 4.6, Leading zero omitted, Abs format (unit mm)*
G04 Created by KiCad (PCBNEW 7.0.10) date 2024-02-18 13:33:04*
%MOMM*%
%LPD*%
G01*
G04 APERTURE LIST*
G04 Aperture macros list*
%AMRoundRect*
0 Rectangle with rounded corners*
0 $1 Rounding radius*
0 $2 $3 $4 $5 $6 $7 $8 $9 X,Y pos of 4 corners*
0 Add a 4 corners polygon primitive as box body*
4,1,4,$2,$3,$4,$5,$6,$7,$8,$9,$2,$3,0*
0 Add four circle primitives for the rounded corners*
1,1,$1+$1,$2,$3*
1,1,$1+$1,$4,$5*
1,1,$1+$1,$6,$7*
1,1,$1+$1,$8,$9*
0 Add four rect primitives between the rounded corners*
20,1,$1+$1,$2,$3,$4,$5,0*
20,1,$1+$1,$4,$5,$6,$7,0*
20,1,$1+$1,$6,$7,$8,$9,0*
20,1,$1+$1,$8,$9,$2,$3,0*%
%AMFreePoly0*
4,1,19,0.550000,-0.750000,0.000000,-0.750000,0.000000,-0.744911,-0.071157,-0.744911,-0.207708,-0.704816,-0.327430,-0.627875,-0.420627,-0.520320,-0.479746,-0.390866,-0.500000,-0.250000,-0.500000,0.250000,-0.479746,0.390866,-0.420627,0.520320,-0.327430,0.627875,-0.207708,0.704816,-0.071157,0.744911,0.000000,0.744911,0.000000,0.750000,0.550000,0.750000,0.550000,-0.750000,0.550000,-0.750000,
$1*%
%AMFreePoly1*
4,1,19,0.000000,0.744911,0.071157,0.744911,0.207708,0.704816,0.327430,0.627875,0.420627,0.520320,0.479746,0.390866,0.500000,0.250000,0.500000,-0.250000,0.479746,-0.390866,0.420627,-0.520320,0.327430,-0.627875,0.207708,-0.704816,0.071157,-0.744911,0.000000,-0.744911,0.000000,-0.750000,-0.550000,-0.750000,-0.550000,0.750000,0.000000,0.750000,0.000000,0.744911,0.000000,0.744911,
$1*%
G04 Aperture macros list end*
%TA.AperFunction,ComponentPad*%
%ADD10C,4.700000*%
%TD*%
%TA.AperFunction,ComponentPad*%
%ADD11R,3.000000X3.000000*%
%TD*%
%TA.AperFunction,ComponentPad*%
%ADD12C,3.000000*%
%TD*%
%TA.AperFunction,ComponentPad*%
%ADD13C,0.600000*%
%TD*%
%TA.AperFunction,SMDPad,CuDef*%
%ADD14R,1.600000X1.600000*%
%TD*%
%TA.AperFunction,ComponentPad*%
%ADD15C,2.780000*%
%TD*%
%TA.AperFunction,ComponentPad*%
%ADD16RoundRect,0.250000X0.600000X0.750000X-0.600000X0.750000X-0.600000X-0.750000X0.600000X-0.750000X0*%
%TD*%
%TA.AperFunction,ComponentPad*%
%ADD17O,1.700000X2.000000*%
%TD*%
%TA.AperFunction,ComponentPad*%
%ADD18C,7.000000*%
%TD*%
%TA.AperFunction,SMDPad,CuDef*%
%ADD19C,1.500000*%
%TD*%
%TA.AperFunction,ComponentPad*%
%ADD20R,1.700000X1.700000*%
%TD*%
%TA.AperFunction,ComponentPad*%
%ADD21O,1.700000X1.700000*%
%TD*%
%TA.AperFunction,SMDPad,CuDef*%
%ADD22FreePoly0,180.000000*%
%TD*%
%TA.AperFunction,SMDPad,CuDef*%
%ADD23R,1.000000X1.500000*%
%TD*%
%TA.AperFunction,SMDPad,CuDef*%
%ADD24FreePoly1,180.000000*%
%TD*%
%TA.AperFunction,ViaPad*%
%ADD25C,0.600000*%
%TD*%
%TA.AperFunction,Conductor*%
%ADD26C,0.500000*%
%TD*%
%TA.AperFunction,Conductor*%
%ADD27C,0.250000*%
%TD*%
%TA.AperFunction,Conductor*%
%ADD28C,1.000000*%
%TD*%
G04 APERTURE END LIST*
%TA.AperFunction,EtchedComponent*%
%TO.C,JP1*%
G36*
X47900000Y-19350000D02*
G01*
X47400000Y-19350000D01*
X47400000Y-18950000D01*
X47900000Y-18950000D01*
X47900000Y-19350000D01*
G37*
%TD.AperFunction*%
%TA.AperFunction,EtchedComponent*%
G36*
X47900000Y-18550000D02*
G01*
X47400000Y-18550000D01*
X47400000Y-18150000D01*
X47900000Y-18150000D01*
X47900000Y-18550000D01*
G37*
%TD.AperFunction*%
%TD*%
D10*
%TO.P,H2,1*%
%TO.N,N/C*%
X3500000Y-3500000D03*
%TD*%
D11*
%TO.P,J1,1,Pin_1*%
%TO.N,Net-(J1-Pin_1)*%
X11960000Y-51250000D03*
D12*
%TO.P,J1,2,Pin_2*%
%TO.N,GND*%
X17040000Y-51250000D03*
%TD*%
D13*
%TO.P,IC2,21,PGND_4*%
%TO.N,GND*%
X57000000Y-31000000D03*
X58000000Y-31000000D03*
D14*
X57500000Y-30500000D03*
D13*
X57000000Y-30000000D03*
X58000000Y-30000000D03*
%TD*%
D15*
%TO.P,F1,1*%
%TO.N,Net-(J1-Pin_1)*%
X26740000Y-49550000D03*
X26740000Y-52950000D03*
%TO.P,F1,2*%
%TO.N,Net-(D1-A2)*%
X40240000Y-49550000D03*
X40240000Y-52950000D03*
%TD*%
D16*
%TO.P,J3,1,Pin_1*%
%TO.N,Net-(J3-Pin_1)*%
X46000000Y-11100000D03*
D17*
%TO.P,J3,2,Pin_2*%
%TO.N,GND*%
X43500000Y-11100000D03*
%TD*%
D10*
%TO.P,H3,1*%
%TO.N,N/C*%
X61500000Y-3500000D03*
%TD*%
D18*
%TO.P,U2,1*%
%TO.N,N/C*%
X4250000Y-10950000D03*
%TO.P,U2,2*%
X36250000Y-10950000D03*
%TO.P,U2,3*%
X4250000Y-42950000D03*
%TO.P,U2,4*%
X36250000Y-42950000D03*
%TD*%
D11*
%TO.P,J4,1,Pin_1*%
%TO.N,+5V*%
X60900000Y-14500000D03*
D12*
%TO.P,J4,2,Pin_2*%
%TO.N,GND*%
X60900000Y-9420000D03*
%TD*%
D10*
%TO.P,H1,1*%
%TO.N,N/C*%
X61500000Y-52500000D03*
%TD*%
%TO.P,H4,1*%
%TO.N,N/C*%
X3500000Y-52500000D03*
%TD*%
D19*
%TO.P,TP5,1,1*%
%TO.N,5V_PI*%
X44750000Y-8250000D03*
%TD*%
D20*
%TO.P,J6,1,3V3*%
%TO.N,unconnected-(J6-3V3-Pad1)*%
X8370000Y-4770000D03*
D21*
%TO.P,J6,2,5V*%
%TO.N,5V_PI*%
X8370000Y-2230000D03*
%TO.P,J6,3,SDA/GPIO2*%
%TO.N,unconnected-(J6-SDA{slash}GPIO2-Pad3)*%
X10910000Y-4770000D03*
%TO.P,J6,4,5V*%
%TO.N,5V_PI*%
X10910000Y-2230000D03*
%TO.P,J6,5,SCL/GPIO3*%
%TO.N,unconnected-(J6-SCL{slash}GPIO3-Pad5)*%
X13450000Y-4770000D03*
%TO.P,J6,6,GND*%
%TO.N,GND*%
X13450000Y-2230000D03*
%TO.P,J6,7,GCLK0/GPIO4*%
%TO.N,unconnected-(J6-GCLK0{slash}GPIO4-Pad7)*%
X15990000Y-4770000D03*
%TO.P,J6,8,GPIO14/TXD*%
%TO.N,unconnected-(J6-GPIO14{slash}TXD-Pad8)*%
X15990000Y-2230000D03*
%TO.P,J6,9,GND*%
%TO.N,GND*%
X18530000Y-4770000D03*
%TO.P,J6,10,GPIO15/RXD*%
%TO.N,unconnected-(J6-GPIO15{slash}RXD-Pad10)*%
X18530000Y-2230000D03*
%TO.P,J6,11,GPIO17*%
%TO.N,unconnected-(J6-GPIO17-Pad11)*%
X21070000Y-4770000D03*
%TO.P,J6,12,GPIO18/PWM0*%
%TO.N,unconnected-(J6-GPIO18{slash}PWM0-Pad12)*%
X21070000Y-2230000D03*
%TO.P,J6,13,GPIO27*%
%TO.N,unconnected-(J6-GPIO27-Pad13)*%
X23610000Y-4770000D03*
%TO.P,J6,14,GND*%
%TO.N,GND*%
X23610000Y-2230000D03*
%TO.P,J6,15,GPIO22*%
%TO.N,unconnected-(J6-GPIO22-Pad15)*%
X26150000Y-4770000D03*
%TO.P,J6,16,GPIO23*%
%TO.N,unconnected-(J6-GPIO23-Pad16)*%
X26150000Y-2230000D03*
%TO.P,J6,17,3V3*%
%TO.N,unconnected-(J6-3V3-Pad17)*%
X28690000Y-4770000D03*
%TO.P,J6,18,GPIO24*%
%TO.N,unconnected-(J6-GPIO24-Pad18)*%
X28690000Y-2230000D03*
%TO.P,J6,19,MOSI0/GPIO10*%
%TO.N,unconnected-(J6-MOSI0{slash}GPIO10-Pad19)*%
X31230000Y-4770000D03*
%TO.P,J6,20,GND*%
%TO.N,GND*%
X31230000Y-2230000D03*
%TO.P,J6,21,MISO0/GPIO9*%
%TO.N,unconnected-(J6-MISO0{slash}GPIO9-Pad21)*%
X33770000Y-4770000D03*
%TO.P,J6,22,GPIO25*%
%TO.N,unconnected-(J6-GPIO25-Pad22)*%
X33770000Y-2230000D03*
%TO.P,J6,23,SCLK0/GPIO11*%
%TO.N,unconnected-(J6-SCLK0{slash}GPIO11-Pad23)*%
X36310000Y-4770000D03*
%TO.P,J6,24,~{CE0}/GPIO8*%
%TO.N,unconnected-(J6-~{CE0}{slash}GPIO8-Pad24)*%
X36310000Y-2230000D03*
%TO.P,J6,25,GND*%
%TO.N,GND*%
X38850000Y-4770000D03*
%TO.P,J6,26,~{CE1}/GPIO7*%
%TO.N,unconnected-(J6-~{CE1}{slash}GPIO7-Pad26)*%
X38850000Y-2230000D03*
%TO.P,J6,27,ID_SD/GPIO0*%
%TO.N,unconnected-(J6-ID_SD{slash}GPIO0-Pad27)*%
X41390000Y-4770000D03*
%TO.P,J6,28,ID_SC/GPIO1*%
%TO.N,unconnected-(J6-ID_SC{slash}GPIO1-Pad28)*%
X41390000Y-2230000D03*
%TO.P,J6,29,GCLK1/GPIO5*%
%TO.N,unconnected-(J6-GCLK1{slash}GPIO5-Pad29)*%
X43930000Y-4770000D03*
%TO.P,J6,30,GND*%
%TO.N,GND*%
X43930000Y-2230000D03*
%TO.P,J6,31,GCLK2/GPIO6*%
%TO.N,unconnected-(J6-GCLK2{slash}GPIO6-Pad31)*%
X46470000Y-4770000D03*
%TO.P,J6,32,PWM0/GPIO12*%
%TO.N,unconnected-(J6-PWM0{slash}GPIO12-Pad32)*%
X46470000Y-2230000D03*
%TO.P,J6,33,PWM1/GPIO13*%
%TO.N,unconnected-(J6-PWM1{slash}GPIO13-Pad33)*%
X49010000Y-4770000D03*
%TO.P,J6,34,GND*%
%TO.N,GND*%
X49010000Y-2230000D03*
%TO.P,J6,35,GPIO19/MISO1*%
%TO.N,unconnected-(J6-GPIO19{slash}MISO1-Pad35)*%
X51550000Y-4770000D03*
%TO.P,J6,36,GPIO16*%
%TO.N,unconnected-(J6-GPIO16-Pad36)*%
X51550000Y-2230000D03*
%TO.P,J6,37,GPIO26*%
%TO.N,unconnected-(J6-GPIO26-Pad37)*%
X54090000Y-4770000D03*
%TO.P,J6,38,GPIO20/MOSI1*%
%TO.N,unconnected-(J6-GPIO20{slash}MOSI1-Pad38)*%
X54090000Y-2230000D03*
%TO.P,J6,39,GND*%
%TO.N,GND*%
X56630000Y-4770000D03*
%TO.P,J6,40,GPIO21/SCLK1*%
%TO.N,unconnected-(J6-GPIO21{slash}SCLK1-Pad40)*%
X56630000Y-2230000D03*
%TD*%
D22*
%TO.P,JP1,1,A*%
%TO.N,Vin*%
X48300000Y-18750000D03*
D23*
%TO.P,JP1,2,C*%
%TO.N,Net-(J3-Pin_1)*%
X47000000Y-18750000D03*
D24*
%TO.P,JP1,3,B*%
%TO.N,+5V*%
X45700000Y-18750000D03*
%TD*%
D19*
%TO.P,TP4,1,1*%
%TO.N,Vin*%
X55500000Y-44750000D03*
%TD*%
%TO.P,TP1,1,1*%
%TO.N,+5V*%
X57250000Y-17000000D03*
%TD*%
%TO.P,TP6,1,1*%
%TO.N,GND*%
X44750000Y-21750000D03*
%TD*%
%TO.P,TP2,1,1*%
%TO.N,Net-(J1-Pin_1)*%
X18750000Y-48250000D03*
%TD*%
%TO.P,TP3,1,1*%
%TO.N,Net-(D1-A2)*%
X49750000Y-50750000D03*
%TD*%
D25*
%TO.N,VCC*%
X54350000Y-30750000D03*
X61350000Y-24850000D03*
X61350000Y-28900000D03*
X54350000Y-25150000D03*
%TO.N,GND*%
X47250000Y-12750000D03*
X51750000Y-20500000D03*
X62350000Y-32600000D03*
X41000000Y-16750000D03*
X41000000Y-20500000D03*
X61100000Y-31850000D03*
X41000000Y-19750000D03*
X48500000Y-43750000D03*
X62350000Y-35600000D03*
X61350000Y-33100000D03*
X49750000Y-42500000D03*
X60600000Y-31350000D03*
X51000000Y-24000000D03*
X42500000Y-18250000D03*
X59100000Y-29150000D03*
X44750000Y-14500000D03*
X61350000Y-37600000D03*
X53250000Y-24000000D03*
X41000000Y-13750000D03*
X51000000Y-42500000D03*
X51000000Y-20500000D03*
X54000000Y-21500000D03*
X48750000Y-8000000D03*
X41000000Y-18250000D03*
X63000000Y-23850000D03*
X47000000Y-46250000D03*
X43250000Y-14750000D03*
X60600000Y-32350000D03*
X44750000Y-12750000D03*
X48500000Y-44750000D03*
X49750000Y-43750000D03*
X42500000Y-13750000D03*
X41000000Y-10500000D03*
X55600000Y-28100000D03*
X60600000Y-33100000D03*
X41000000Y-19000000D03*
X43250000Y-17500000D03*
X60100000Y-31850000D03*
X47000000Y-44750000D03*
X47000000Y-43750000D03*
X63000000Y-22250000D03*
X54000000Y-20500000D03*
X48750000Y-7250000D03*
X61600000Y-31350000D03*
X51000000Y-38250000D03*
X41000000Y-15250000D03*
X53700000Y-11750000D03*
X47250000Y-13500000D03*
X52500000Y-24000000D03*
X53250000Y-20500000D03*
X62350000Y-36600000D03*
X61350000Y-33850000D03*
X41000000Y-23500000D03*
X52500000Y-20500000D03*
X42500000Y-16000000D03*
X42500000Y-16750000D03*
X42500000Y-15250000D03*
X49750000Y-38250000D03*
X61600000Y-32350000D03*
X51000000Y-41000000D03*
X60100000Y-30850000D03*
X51750000Y-24000000D03*
X60600000Y-33850000D03*
X41000000Y-24250000D03*
X61100000Y-30850000D03*
X41000000Y-12000000D03*
X48500000Y-38250000D03*
X47000000Y-38250000D03*
X51000000Y-44750000D03*
X62350000Y-26350000D03*
X62350000Y-37600000D03*
X55600000Y-28850000D03*
X61350000Y-36600000D03*
X48500000Y-42500000D03*
X54000000Y-24000000D03*
X41000000Y-22750000D03*
X51000000Y-39500000D03*
X53700000Y-14100000D03*
X51000000Y-43750000D03*
X49750000Y-44750000D03*
X62350000Y-31600000D03*
X47000000Y-42500000D03*
X57250000Y-53500000D03*
X41000000Y-22000000D03*
X47000000Y-47750000D03*
X62350000Y-33600000D03*
X58250000Y-51500000D03*
X61350000Y-34600000D03*
X53350000Y-11150000D03*
X53000000Y-11750000D03*
X53000000Y-14100000D03*
X48750000Y-8750000D03*
X54000000Y-22250000D03*
X62350000Y-34600000D03*
X54000000Y-23000000D03*
X41000000Y-21250000D03*
X61350000Y-35600000D03*
%TO.N,+5V*%
X58250000Y-17000000D03*
X44500000Y-18750000D03*
X56250000Y-17000000D03*
%TO.N,Vin*%
X64250000Y-28750000D03*
X64250000Y-31000000D03*
X64250000Y-30250000D03*
X55500000Y-43500000D03*
X64250000Y-31750000D03*
X64250000Y-29500000D03*
X55500000Y-46000000D03*
%TO.N,5V_PI*%
X43250000Y-8250000D03*
X46250000Y-8250000D03*
%TO.N,Net-(J1-Pin_1)*%
X17500000Y-48250000D03*
X20000000Y-48250000D03*
%TO.N,SW*%
X59100000Y-32150000D03*
X55850000Y-32150000D03*
%TO.N,Net-(D1-A2)*%
X48250000Y-50750000D03*
X51250000Y-50750000D03*
%TO.N,FB*%
X57090000Y-26450000D03*
X57100000Y-23500000D03*
%TO.N,UVLO*%
X50269999Y-13351951D03*
X50500000Y-10450000D03*
%TO.N,OVLO*%
X56853735Y-12223616D03*
X49250000Y-15250000D03*
%TO.N,Net-(U1-PG)*%
X48874410Y-12922701D03*
X56273713Y-13592403D03*
%TD*%
D26*
%TO.N,VCC*%
X54350000Y-25150000D02*
X54350000Y-30750000D01*
D27*
X61350000Y-28900000D02*
X61350000Y-24850000D01*
D28*
%TO.N,+5V*%
X44500000Y-18750000D02*
X45700000Y-18750000D01*
X56250000Y-17000000D02*
X58250000Y-17000000D01*
%TO.N,Vin*%
X48300000Y-18750000D02*
X64250000Y-18750000D01*
X55500000Y-43500000D02*
X55500000Y-46000000D01*
%TO.N,5V_PI*%
X44750000Y-8250000D02*
X46250000Y-8250000D01*
X44750000Y-8250000D02*
X43250000Y-8250000D01*
%TO.N,Net-(J1-Pin_1)*%
X18750000Y-48250000D02*
X20000000Y-48250000D01*
X18750000Y-48250000D02*
X17500000Y-48250000D01*
D27*
%TO.N,SW*%
X59100000Y-32150000D02*
X55850000Y-32150000D01*
D28*
%TO.N,Net-(J3-Pin_1)*%
X46500000Y-17000000D02*
X46558058Y-17058058D01*
X47000000Y-18125000D02*
X47000000Y-18750000D01*
X46000000Y-15792893D02*
X46000000Y-11100000D01*
X46000003Y-15792893D02*
G75*
G03*
X46500000Y-17000000I1707097J-7D01*
G01*
X46999995Y-18125000D02*
G75*
G03*
X46558058Y-17058058I-1508895J0D01*
G01*
%TO.N,Net-(D1-A2)*%
X49750000Y-50750000D02*
X48250000Y-50750000D01*
X49750000Y-50750000D02*
X51250000Y-50750000D01*
D27*
%TO.N,FB*%
X57100000Y-23500000D02*
X57100000Y-26440000D01*
%TO.N,UVLO*%
X50500000Y-12959314D02*
X50500000Y-10450000D01*
X50384999Y-13236950D02*
X50269999Y-13351951D01*
X50384985Y-13236936D02*
G75*
G03*
X50500000Y-12959314I-277585J277636D01*
G01*
%TO.N,OVLO*%
X49250000Y-15250000D02*
X54439339Y-15250000D01*
X56727706Y-14022294D02*
X56249999Y-14499999D01*
X57000000Y-13364920D02*
X57000000Y-12473305D01*
X56926867Y-12296748D02*
X56853735Y-12223616D01*
X56999992Y-12473305D02*
G75*
G03*
X56926866Y-12296749I-249692J5D01*
G01*
X54439339Y-15250015D02*
G75*
G03*
X56249999Y-14499999I-39J2560715D01*
G01*
X56727703Y-14022291D02*
G75*
G03*
X57000000Y-13364920I-657403J657391D01*
G01*
%TO.N,Net-(U1-PG)*%
X56273713Y-13592403D02*
X55694914Y-14171201D01*
X49788059Y-13836350D02*
X48874410Y-12922701D01*
X51993804Y-14750000D02*
X54297571Y-14750000D01*
X54297571Y-14749991D02*
G75*
G03*
X55694914Y-14171201I29J1976091D01*
G01*
X49788056Y-13836353D02*
G75*
G03*
X51993804Y-14750000I2205744J2205753D01*
G01*
%TD*%
%TA.AperFunction,Conductor*%
%TO.N,Vin*%
G36*
X64742539Y-18269685D02*
G01*
X64788294Y-18322489D01*
X64799500Y-18374000D01*
X64799500Y-32126000D01*
X64779815Y-32193039D01*
X64727011Y-32238794D01*
X64675500Y-32250000D01*
X63624000Y-32250000D01*
X63556961Y-32230315D01*
X63511206Y-32177511D01*
X63500000Y-32126000D01*
X63500000Y-24226908D01*
X63519685Y-24159869D01*
X63524119Y-24153561D01*
X63524530Y-24152847D01*
X63524536Y-24152841D01*
X63585044Y-24006762D01*
X63605682Y-23850000D01*
X63585044Y-23693238D01*
X63524536Y-23547159D01*
X63524534Y-23547156D01*
X63520474Y-23540123D01*
X63522011Y-23539235D01*
X63500429Y-23483402D01*
X63500000Y-23473091D01*
X63500000Y-22626908D01*
X63519685Y-22559869D01*
X63524119Y-22553561D01*
X63524530Y-22552847D01*
X63524536Y-22552841D01*
X63585044Y-22406762D01*
X63605682Y-22250000D01*
X63585044Y-22093238D01*
X63524536Y-21947159D01*
X63524534Y-21947156D01*
X63520474Y-21940123D01*
X63522011Y-21939235D01*
X63500429Y-21883402D01*
X63500000Y-21873091D01*
X63500000Y-18374000D01*
X63519685Y-18306961D01*
X63572489Y-18261206D01*
X63624000Y-18250000D01*
X64675500Y-18250000D01*
X64742539Y-18269685D01*
G37*
%TD.AperFunction*%
%TD*%
%TA.AperFunction,Conductor*%
%TO.N,GND*%
G36*
X62002777Y-200655D02*
G01*
X62307898Y-217791D01*
X62318921Y-219033D01*
X62617476Y-269759D01*
X62628270Y-272222D01*
X62919279Y-356061D01*
X62929750Y-359725D01*
X63209523Y-475611D01*
X63219525Y-480428D01*
X63484555Y-626905D01*
X63493955Y-632811D01*
X63740930Y-808049D01*
X63749610Y-814972D01*
X63975399Y-1016750D01*
X63983249Y-1024600D01*
X64185027Y-1250389D01*
X64191950Y-1259069D01*
X64367188Y-1506044D01*
X64373094Y-1515444D01*
X64519571Y-1780474D01*
X64524388Y-1790476D01*
X64640272Y-2070245D01*
X64643939Y-2080724D01*
X64727773Y-2371714D01*
X64730243Y-2382538D01*
X64780965Y-2681073D01*
X64782208Y-2692105D01*
X64799344Y-2997222D01*
X64799500Y-3002773D01*
X64799500Y-17848076D01*
X64780593Y-17906267D01*
X64731093Y-17942231D01*
X64686416Y-17946069D01*
X64677684Y-17944814D01*
X64675500Y-17944500D01*
X63624000Y-17944500D01*
X63591279Y-17948017D01*
X63582767Y-17948933D01*
X63572185Y-17949500D01*
X58542865Y-17949500D01*
X58484674Y-17930593D01*
X58448710Y-17881093D01*
X58448710Y-17819907D01*
X58484674Y-17770407D01*
X58510167Y-17757056D01*
X58532502Y-17749240D01*
X58599522Y-17725789D01*
X58752262Y-17629816D01*
X58879816Y-17502262D01*
X58975789Y-17349522D01*
X59035368Y-17179255D01*
X59055565Y-17000000D01*
X59035368Y-16820745D01*
X58975789Y-16650478D01*
X58933848Y-16583730D01*
X58879818Y-16497741D01*
X58879817Y-16497740D01*
X58879816Y-16497738D01*
X58752262Y-16370184D01*
X58752259Y-16370182D01*
X58752258Y-16370181D01*
X58599523Y-16274211D01*
X58429261Y-16214633D01*
X58429249Y-16214630D01*
X58294970Y-16199500D01*
X58294954Y-16199500D01*
X57965924Y-16199500D01*
X57907733Y-16180593D01*
X57903119Y-16177028D01*
X57836452Y-16122317D01*
X57836452Y-16122316D01*
X57691543Y-16044860D01*
X59099500Y-16044860D01*
X59099501Y-16044863D01*
X59102414Y-16069990D01*
X59125518Y-16122315D01*
X59147794Y-16172765D01*
X59227235Y-16252206D01*
X59330009Y-16297585D01*
X59355135Y-16300500D01*
X62444864Y-16300499D01*
X62469991Y-16297585D01*
X62572765Y-16252206D01*
X62652206Y-16172765D01*
X62697585Y-16069991D01*
X62700500Y-16044865D01*
X62700499Y-12955136D01*
X62697585Y-12930009D01*
X62652206Y-12827235D01*
X62572765Y-12747794D01*
X62469991Y-12702415D01*
X62469990Y-12702414D01*
X62469988Y-12702414D01*
X62444868Y-12699500D01*
X59355139Y-12699500D01*
X59355136Y-12699501D01*
X59330009Y-12702414D01*
X59227235Y-12747794D01*
X59147794Y-12827235D01*
X59102414Y-12930011D01*
X59099500Y-12955130D01*
X59099500Y-16044860D01*
X57691543Y-16044860D01*
X57653954Y-16024768D01*
X57455934Y-15964699D01*
X57455929Y-15964698D01*
X57250003Y-15944417D01*
X57249997Y-15944417D01*
X57044070Y-15964698D01*
X57044065Y-15964699D01*
X56846045Y-16024768D01*
X56663547Y-16122316D01*
X56663547Y-16122317D01*
X56596881Y-16177028D01*
X56539904Y-16199328D01*
X56534076Y-16199500D01*
X56205029Y-16199500D01*
X56070750Y-16214630D01*
X56070738Y-16214633D01*
X55900477Y-16274211D01*
X55900476Y-16274211D01*
X55747741Y-16370181D01*
X55620181Y-16497741D01*
X55524211Y-16650476D01*
X55524211Y-16650477D01*
X55464633Y-16820738D01*
X55464632Y-16820742D01*
X55444435Y-17000000D01*
X55464632Y-17179257D01*
X55464633Y-17179261D01*
X55524211Y-17349522D01*
X55524211Y-17349523D01*
X55620181Y-17502258D01*
X55620184Y-17502262D01*
X55747738Y-17629816D01*
X55747740Y-17629817D01*
X55747741Y-17629818D01*
X55850355Y-17694295D01*
X55900478Y-17725789D01*
X55942820Y-17740605D01*
X55989833Y-17757056D01*
X56038513Y-17794121D01*
X56056110Y-17852722D01*
X56035902Y-17910473D01*
X55985607Y-17945317D01*
X55957135Y-17949500D01*
X48934297Y-17949500D01*
X48876106Y-17930593D01*
X48864293Y-17920504D01*
X48861842Y-17918053D01*
X48861836Y-17918046D01*
X48861826Y-17918037D01*
X48796078Y-17861066D01*
X48796066Y-17861057D01*
X48675129Y-17783336D01*
X48675122Y-17783332D01*
X48646820Y-17770407D01*
X48595971Y-17747185D01*
X48595966Y-17747183D01*
X48595965Y-17747183D01*
X48458017Y-17706678D01*
X48458013Y-17706677D01*
X48371893Y-17694295D01*
X48371889Y-17694295D01*
X47840530Y-17694295D01*
X47782339Y-17675388D01*
X47746375Y-17625888D01*
X47744012Y-17617324D01*
X47713736Y-17484677D01*
X47666444Y-17349523D01*
X47628068Y-17239848D01*
X47568061Y-17115241D01*
X47515528Y-17006153D01*
X47377531Y-16786530D01*
X47377528Y-16786525D01*
X47215806Y-16583730D01*
X47159345Y-16527268D01*
X47159341Y-16527263D01*
X47068780Y-16436701D01*
X47063504Y-16430993D01*
X46978706Y-16331707D01*
X46969578Y-16319144D01*
X46903380Y-16211119D01*
X46896335Y-16197292D01*
X46847856Y-16080252D01*
X46843056Y-16065480D01*
X46838107Y-16044864D01*
X46813480Y-15942288D01*
X46811053Y-15926956D01*
X46800805Y-15796733D01*
X46800500Y-15788967D01*
X46800500Y-12922701D01*
X48268728Y-12922701D01*
X48289365Y-13079459D01*
X48289367Y-13079467D01*
X48349872Y-13225539D01*
X48349872Y-13225540D01*
X48446123Y-13350977D01*
X48446128Y-13350983D01*
X48446132Y-13350986D01*
X48446133Y-13350987D01*
X48464303Y-13364929D01*
X48571569Y-13447237D01*
X48571570Y-13447237D01*
X48571571Y-13447238D01*
X48717643Y-13507743D01*
X48717648Y-13507745D01*
X48845622Y-13524593D01*
X48900845Y-13550933D01*
X48902702Y-13552741D01*
X49443924Y-14093963D01*
X49443926Y-14093966D01*
X49455232Y-14105272D01*
X49455239Y-14105285D01*
X49487182Y-14137227D01*
X49487182Y-14137228D01*
X49610325Y-14260370D01*
X49879564Y-14481328D01*
X50060505Y-14602228D01*
X50121800Y-14643184D01*
X50159680Y-14691234D01*
X50162082Y-14752373D01*
X50128089Y-14803246D01*
X50070686Y-14824424D01*
X50066799Y-14824500D01*
X49715514Y-14824500D01*
X49657323Y-14805593D01*
X49655247Y-14804042D01*
X49584165Y-14749500D01*
X49552841Y-14725464D01*
X49552840Y-14725463D01*
X49552838Y-14725462D01*
X49406766Y-14664957D01*
X49406758Y-14664955D01*
X49250001Y-14644318D01*
X49249999Y-14644318D01*
X49093241Y-14664955D01*
X49093233Y-14664957D01*
X48947161Y-14725462D01*
X48947160Y-14725462D01*
X48821723Y-14821713D01*
X48821713Y-14821723D01*
X48725462Y-14947160D01*
X48725462Y-14947161D01*
X48664957Y-15093233D01*
X48664955Y-15093241D01*
X48644318Y-15249999D01*
X48644318Y-15250000D01*
X48664955Y-15406758D01*
X48664957Y-15406766D01*
X48725462Y-15552838D01*
X48725462Y-15552839D01*
X48819609Y-15675534D01*
X48821718Y-15678282D01*
X48947159Y-15774536D01*
X48947160Y-15774536D01*
X48947161Y-15774537D01*
X49078096Y-15828772D01*
X49093238Y-15835044D01*
X49210809Y-15850522D01*
X49249999Y-15855682D01*
X49250000Y-15855682D01*
X49250001Y-15855682D01*
X49281352Y-15851554D01*
X49406762Y-15835044D01*
X49552841Y-15774536D01*
X49598235Y-15739703D01*
X49655247Y-15695958D01*
X49712923Y-15675534D01*
X49715514Y-15675500D01*
X54378165Y-15675500D01*
X54378168Y-15675501D01*
X54398321Y-15675500D01*
X54398368Y-15675515D01*
X54439345Y-15675514D01*
X54439345Y-15675515D01*
X54586046Y-15675513D01*
X54761238Y-15658255D01*
X54878036Y-15646750D01*
X54878045Y-15646748D01*
X55165786Y-15589509D01*
X55165786Y-15589508D01*
X55165796Y-15589507D01*
X55446563Y-15504335D01*
X55717629Y-15392053D01*
X55717635Y-15392049D01*
X55717639Y-15392048D01*
X55850962Y-15320784D01*
X55976385Y-15253743D01*
X55976390Y-15253739D01*
X55976393Y-15253738D01*
X56039853Y-15211335D01*
X56220338Y-15090738D01*
X56447140Y-14904606D01*
X56514325Y-14837421D01*
X56550874Y-14800873D01*
X56640900Y-14710845D01*
X56977172Y-14374574D01*
X56977178Y-14374570D01*
X56985322Y-14366425D01*
X56985324Y-14366425D01*
X57028583Y-14323165D01*
X57028582Y-14323164D01*
X57052259Y-14299489D01*
X57052259Y-14299487D01*
X57055536Y-14296212D01*
X57055553Y-14296193D01*
X57057540Y-14294206D01*
X57057573Y-14294167D01*
X57091386Y-14260356D01*
X57199527Y-14119423D01*
X57288348Y-13965580D01*
X57356330Y-13801461D01*
X57362019Y-13780233D01*
X57395631Y-13654792D01*
X57402309Y-13629872D01*
X57425499Y-13453750D01*
X57425500Y-13364929D01*
X57425502Y-13303751D01*
X57425500Y-13303747D01*
X57425501Y-13296869D01*
X57425500Y-13296839D01*
X57425500Y-12436087D01*
X57425493Y-12435905D01*
X57425493Y-12432145D01*
X57433030Y-12394256D01*
X57438779Y-12380378D01*
X57459417Y-12223616D01*
X57459417Y-12223615D01*
X57446084Y-12122342D01*
X57438779Y-12066854D01*
X57378272Y-11920777D01*
X57378272Y-11920776D01*
X57282021Y-11795339D01*
X57282020Y-11795338D01*
X57282017Y-11795334D01*
X57282012Y-11795330D01*
X57282011Y-11795329D01*
X57178650Y-11716018D01*
X57156576Y-11699080D01*
X57156575Y-11699079D01*
X57156573Y-11699078D01*
X57010501Y-11638573D01*
X57010493Y-11638571D01*
X56853736Y-11617934D01*
X56853734Y-11617934D01*
X56696976Y-11638571D01*
X56696968Y-11638573D01*
X56550896Y-11699078D01*
X56550895Y-11699078D01*
X56425458Y-11795329D01*
X56425448Y-11795339D01*
X56329197Y-11920776D01*
X56329197Y-11920777D01*
X56268692Y-12066849D01*
X56268690Y-12066857D01*
X56248053Y-12223615D01*
X56248053Y-12223616D01*
X56268690Y-12380374D01*
X56268692Y-12380382D01*
X56329197Y-12526454D01*
X56329197Y-12526455D01*
X56329199Y-12526457D01*
X56425453Y-12651898D01*
X56425457Y-12651901D01*
X56425458Y-12651902D01*
X56535767Y-12736545D01*
X56570423Y-12786969D01*
X56574500Y-12815087D01*
X56574500Y-12918852D01*
X56555593Y-12977043D01*
X56506093Y-13013007D01*
X56444907Y-13013007D01*
X56437616Y-13010317D01*
X56430476Y-13007359D01*
X56430471Y-13007358D01*
X56273714Y-12986721D01*
X56273712Y-12986721D01*
X56116954Y-13007358D01*
X56116946Y-13007360D01*
X55970874Y-13067865D01*
X55970873Y-13067865D01*
X55845436Y-13164116D01*
X55845426Y-13164126D01*
X55749175Y-13289563D01*
X55749175Y-13289564D01*
X55688670Y-13435636D01*
X55688668Y-13435644D01*
X55671821Y-13563611D01*
X55645480Y-13618836D01*
X55643672Y-13620692D01*
X55437306Y-13827058D01*
X55437300Y-13827066D01*
X55437299Y-13827067D01*
X55437297Y-13827069D01*
X55396328Y-13868039D01*
X55391600Y-13872466D01*
X55246415Y-13999790D01*
X55236147Y-14007670D01*
X55078290Y-14113146D01*
X55067075Y-14119621D01*
X54896793Y-14203593D01*
X54884829Y-14208548D01*
X54705056Y-14269572D01*
X54692547Y-14272924D01*
X54506338Y-14309962D01*
X54493498Y-14311652D01*
X54300672Y-14324287D01*
X54294199Y-14324499D01*
X54228427Y-14324499D01*
X54228415Y-14324500D01*
X52062966Y-14324500D01*
X52062954Y-14324499D01*
X51996575Y-14324499D01*
X51991024Y-14324343D01*
X51697733Y-14307873D01*
X51686701Y-14306630D01*
X51399838Y-14257890D01*
X51389015Y-14255420D01*
X51109408Y-14174868D01*
X51098928Y-14171201D01*
X50830099Y-14059848D01*
X50820097Y-14055031D01*
X50673443Y-13973979D01*
X50631659Y-13929283D01*
X50624126Y-13868563D01*
X50653723Y-13815012D01*
X50661055Y-13808797D01*
X50698281Y-13780233D01*
X50794535Y-13654792D01*
X50855043Y-13508713D01*
X50875681Y-13351951D01*
X50868321Y-13296049D01*
X50872320Y-13252535D01*
X50905346Y-13150914D01*
X50905346Y-13150910D01*
X50905348Y-13150906D01*
X50925498Y-13023721D01*
X50925498Y-13000795D01*
X50925500Y-13000770D01*
X50925500Y-12952454D01*
X50925501Y-12926177D01*
X50925503Y-12898151D01*
X50925501Y-12898146D01*
X50925502Y-12891579D01*
X50925500Y-12891533D01*
X50925500Y-10915513D01*
X50944407Y-10857322D01*
X50945958Y-10855246D01*
X51024536Y-10752841D01*
X51085044Y-10606762D01*
X51105682Y-10450000D01*
X51085044Y-10293238D01*
X51048059Y-10203949D01*
X51024537Y-10147161D01*
X51024537Y-10147160D01*
X50928286Y-10021723D01*
X50928285Y-10021722D01*
X50928282Y-10021718D01*
X50928277Y-10021714D01*
X50928276Y-10021713D01*
X50802838Y-9925462D01*
X50656766Y-9864957D01*
X50656758Y-9864955D01*
X50500001Y-9844318D01*
X50499999Y-9844318D01*
X50343241Y-9864955D01*
X50343233Y-9864957D01*
X50197161Y-9925462D01*
X50197160Y-9925462D01*
X50071723Y-10021713D01*
X50071713Y-10021723D01*
X49975462Y-10147160D01*
X49975462Y-10147161D01*
X49914957Y-10293233D01*
X49914955Y-10293241D01*
X49894318Y-10449999D01*
X49894318Y-10450000D01*
X49914955Y-10606758D01*
X49914957Y-10606766D01*
X49975462Y-10752838D01*
X49975462Y-10752839D01*
X50054042Y-10855246D01*
X50074466Y-10912922D01*
X50074500Y-10915513D01*
X50074500Y-12716802D01*
X50055593Y-12774993D01*
X50013386Y-12808266D01*
X49967159Y-12827414D01*
X49841722Y-12923664D01*
X49841716Y-12923670D01*
X49752143Y-13040404D01*
X49701718Y-13075059D01*
X49640554Y-13073457D01*
X49603597Y-13050140D01*
X49504450Y-12950993D01*
X49476673Y-12896476D01*
X49476309Y-12893966D01*
X49459454Y-12765939D01*
X49434202Y-12704976D01*
X49398947Y-12619862D01*
X49398947Y-12619861D01*
X49302696Y-12494424D01*
X49302695Y-12494423D01*
X49302692Y-12494419D01*
X49302687Y-12494415D01*
X49302686Y-12494414D01*
X49177248Y-12398163D01*
X49031176Y-12337658D01*
X49031168Y-12337656D01*
X48874411Y-12317019D01*
X48874409Y-12317019D01*
X48717651Y-12337656D01*
X48717643Y-12337658D01*
X48571571Y-12398163D01*
X48571570Y-12398163D01*
X48446133Y-12494414D01*
X48446123Y-12494424D01*
X48349872Y-12619861D01*
X48349872Y-12619862D01*
X48289367Y-12765934D01*
X48289365Y-12765942D01*
X48268728Y-12922700D01*
X48268728Y-12922701D01*
X46800500Y-12922701D01*
X46800500Y-12430071D01*
X46819407Y-12371880D01*
X46863185Y-12337972D01*
X46863986Y-12337656D01*
X46872342Y-12334361D01*
X46872343Y-12334360D01*
X46872344Y-12334360D01*
X46919959Y-12298251D01*
X46992922Y-12242922D01*
X47084361Y-12122342D01*
X47139877Y-11981564D01*
X47150500Y-11893102D01*
X47150500Y-10306898D01*
X47139877Y-10218436D01*
X47084361Y-10077658D01*
X46992922Y-9957078D01*
X46872342Y-9865639D01*
X46872341Y-9865638D01*
X46872339Y-9865637D01*
X46731565Y-9810123D01*
X46643106Y-9799500D01*
X46643102Y-9799500D01*
X45356898Y-9799500D01*
X45356893Y-9799500D01*
X45268434Y-9810123D01*
X45127660Y-9865637D01*
X45127656Y-9865640D01*
X45007081Y-9957075D01*
X45007075Y-9957081D01*
X44915640Y-10077656D01*
X44915637Y-10077660D01*
X44860123Y-10218434D01*
X44849500Y-10306893D01*
X44849500Y-11893106D01*
X44860123Y-11981565D01*
X44915637Y-12122339D01*
X44915638Y-12122341D01*
X44915639Y-12122342D01*
X45007078Y-12242922D01*
X45007082Y-12242925D01*
X45127656Y-12334360D01*
X45127657Y-12334360D01*
X45127658Y-12334361D01*
X45135039Y-12337271D01*
X45136815Y-12337972D01*
X45184014Y-12376907D01*
X45199500Y-12430071D01*
X45199500Y-15840638D01*
X45199503Y-15840743D01*
X45199503Y-15933714D01*
X45231036Y-16213592D01*
X45231274Y-16214633D01*
X45293709Y-16488185D01*
X45386727Y-16754016D01*
X45386730Y-16754023D01*
X45508931Y-17007778D01*
X45616677Y-17179255D01*
X45658778Y-17246259D01*
X45834383Y-17466461D01*
X45834386Y-17466464D01*
X45893213Y-17525292D01*
X45920990Y-17579809D01*
X45911418Y-17640241D01*
X45868153Y-17683505D01*
X45823209Y-17694295D01*
X45628107Y-17694295D01*
X45541986Y-17706677D01*
X45541982Y-17706678D01*
X45404034Y-17747183D01*
X45404030Y-17747184D01*
X45404029Y-17747185D01*
X45369702Y-17762861D01*
X45324877Y-17783332D01*
X45324870Y-17783336D01*
X45203933Y-17861057D01*
X45203921Y-17861066D01*
X45138173Y-17918037D01*
X45135707Y-17920504D01*
X45081190Y-17948281D01*
X45065703Y-17949500D01*
X44455029Y-17949500D01*
X44320750Y-17964630D01*
X44320738Y-17964633D01*
X44150477Y-18024211D01*
X44150476Y-18024211D01*
X43997741Y-18120181D01*
X43870181Y-18247741D01*
X43774211Y-18400476D01*
X43774211Y-18400477D01*
X43714633Y-18570738D01*
X43714632Y-18570742D01*
X43694435Y-18750000D01*
X43714632Y-18929257D01*
X43714633Y-18929261D01*
X43774211Y-19099522D01*
X43774211Y-19099523D01*
X43870181Y-19252258D01*
X43870184Y-19252262D01*
X43997738Y-19379816D01*
X44150478Y-19475789D01*
X44218657Y-19499646D01*
X44320738Y-19535366D01*
X44320742Y-19535367D01*
X44320745Y-19535368D01*
X44320746Y-19535368D01*
X44320750Y-19535369D01*
X44455029Y-19550499D01*
X44455045Y-19550499D01*
X44455046Y-19550500D01*
X45065703Y-19550500D01*
X45123894Y-19569407D01*
X45135707Y-19579496D01*
X45138157Y-19581946D01*
X45138164Y-19581954D01*
X45138171Y-19581960D01*
X45138173Y-19581962D01*
X45203921Y-19638933D01*
X45203933Y-19638942D01*
X45324870Y-19716663D01*
X45324875Y-19716666D01*
X45324880Y-19716669D01*
X45404029Y-19752815D01*
X45541984Y-19793322D01*
X45570693Y-19797449D01*
X45628107Y-19805705D01*
X45628111Y-19805705D01*
X46250005Y-19805705D01*
X46264103Y-19805053D01*
X46278207Y-19804401D01*
X46345529Y-19785246D01*
X46406672Y-19787507D01*
X46412607Y-19789902D01*
X46420354Y-19793322D01*
X46430009Y-19797585D01*
X46455135Y-19800500D01*
X47544864Y-19800499D01*
X47569991Y-19797585D01*
X47582565Y-19792032D01*
X47640747Y-19785282D01*
X47750000Y-19805705D01*
X48371893Y-19805705D01*
X48421104Y-19798629D01*
X48458016Y-19793322D01*
X48595971Y-19752815D01*
X48675120Y-19716669D01*
X48796074Y-19638937D01*
X48861836Y-19581954D01*
X48861848Y-19581939D01*
X48864293Y-19579496D01*
X48918810Y-19551719D01*
X48934297Y-19550500D01*
X63095500Y-19550500D01*
X63153691Y-19569407D01*
X63189655Y-19618907D01*
X63194500Y-19649500D01*
X63194500Y-21873070D01*
X63194765Y-21885834D01*
X63195191Y-21896088D01*
X63195193Y-21896101D01*
X63215476Y-21993547D01*
X63228234Y-22026552D01*
X63228460Y-22030683D01*
X63248520Y-22079111D01*
X63249397Y-22081301D01*
X63250513Y-22084188D01*
X63251181Y-22085534D01*
X63282420Y-22160949D01*
X63289109Y-22185915D01*
X63295844Y-22237077D01*
X63295844Y-22262919D01*
X63289108Y-22314087D01*
X63282419Y-22339052D01*
X63227953Y-22470544D01*
X63226950Y-22472785D01*
X63226564Y-22473788D01*
X63206874Y-22540840D01*
X63194500Y-22626908D01*
X63194500Y-23473070D01*
X63194765Y-23485834D01*
X63195191Y-23496088D01*
X63195192Y-23496100D01*
X63195193Y-23496102D01*
X63200524Y-23521716D01*
X63215476Y-23593547D01*
X63228234Y-23626552D01*
X63228460Y-23630683D01*
X63248520Y-23679111D01*
X63249397Y-23681301D01*
X63250513Y-23684188D01*
X63251181Y-23685534D01*
X63282420Y-23760949D01*
X63289109Y-23785915D01*
X63295844Y-23837077D01*
X63295844Y-23862919D01*
X63289108Y-23914087D01*
X63282419Y-23939052D01*
X63227953Y-24070544D01*
X63226950Y-24072785D01*
X63226564Y-24073788D01*
X63206874Y-24140840D01*
X63194500Y-24226908D01*
X63194500Y-32126000D01*
X63200444Y-32181291D01*
X63201483Y-32190951D01*
X63212681Y-32242425D01*
X63212685Y-32242441D01*
X63212688Y-32242452D01*
X63223646Y-32280658D01*
X63280325Y-32377571D01*
X63326080Y-32430375D01*
X63370813Y-32472553D01*
X63470889Y-32523439D01*
X63470891Y-32523439D01*
X63470892Y-32523440D01*
X63537921Y-32543122D01*
X63537928Y-32543124D01*
X63624000Y-32555500D01*
X63624001Y-32555500D01*
X64675498Y-32555500D01*
X64675500Y-32555500D01*
X64689914Y-32553950D01*
X64749793Y-32566526D01*
X64790843Y-32611897D01*
X64799500Y-32652382D01*
X64799500Y-52997226D01*
X64799344Y-53002777D01*
X64782208Y-53307894D01*
X64780965Y-53318926D01*
X64730243Y-53617461D01*
X64727773Y-53628285D01*
X64643939Y-53919275D01*
X64640272Y-53929754D01*
X64524388Y-54209523D01*
X64519571Y-54219525D01*
X64373094Y-54484555D01*
X64367188Y-54493955D01*
X64191950Y-54740930D01*
X64185027Y-54749610D01*
X63983249Y-54975399D01*
X63975399Y-54983249D01*
X63749610Y-55185027D01*
X63740930Y-55191950D01*
X63493955Y-55367188D01*
X63484555Y-55373094D01*
X63219525Y-55519571D01*
X63209523Y-55524388D01*
X62929754Y-55640272D01*
X62919275Y-55643939D01*
X62628285Y-55727773D01*
X62617461Y-55730243D01*
X62318926Y-55780965D01*
X62307894Y-55782208D01*
X62002778Y-55799344D01*
X61997227Y-55799500D01*
X3002773Y-55799500D01*
X2997222Y-55799344D01*
X2692105Y-55782208D01*
X2681073Y-55780965D01*
X2382538Y-55730243D01*
X2371716Y-55727773D01*
X2297239Y-55706317D01*
X2080724Y-55643939D01*
X2070245Y-55640272D01*
X1790476Y-55524388D01*
X1780474Y-55519571D01*
X1515444Y-55373094D01*
X1506044Y-55367188D01*
X1259069Y-55191950D01*
X1250389Y-55185027D01*
X1024600Y-54983249D01*
X1016750Y-54975399D01*
X814972Y-54749610D01*
X808049Y-54740930D01*
X632811Y-54493955D01*
X626905Y-54484555D01*
X480428Y-54219525D01*
X475611Y-54209523D01*
X359727Y-53929754D01*
X356060Y-53919275D01*
X351937Y-53904963D01*
X272222Y-53628270D01*
X269759Y-53617476D01*
X219033Y-53318921D01*
X217791Y-53307894D01*
X211881Y-53202663D01*
X200656Y-53002777D01*
X200500Y-52997226D01*
X200500Y-52500006D01*
X844655Y-52500006D01*
X864013Y-52820055D01*
X864016Y-52820080D01*
X921813Y-53135462D01*
X921813Y-53135464D01*
X1017209Y-53441599D01*
X1020848Y-53449684D01*
X1148809Y-53734000D01*
X1148813Y-53734008D01*
X1148817Y-53734014D01*
X1314685Y-54008394D01*
X1314689Y-54008400D01*
X1314694Y-54008408D01*
X1512446Y-54260819D01*
X1739181Y-54487554D01*
X1991592Y-54685306D01*
X1991603Y-54685312D01*
X1991605Y-54685314D01*
X2091099Y-54745460D01*
X2266000Y-54851191D01*
X2558402Y-54982791D01*
X2864534Y-55078186D01*
X2968172Y-55097178D01*
X3179919Y-55135983D01*
X3179930Y-55135984D01*
X3179934Y-55135985D01*
X3179937Y-55135985D01*
X3179944Y-55135986D01*
X3499994Y-55155345D01*
X3500000Y-55155345D01*
X3500006Y-55155345D01*
X3820055Y-55135986D01*
X3820060Y-55135985D01*
X3820066Y-55135985D01*
X3820071Y-55135984D01*
X3820080Y-55135983D01*
X3957438Y-55110810D01*
X4135466Y-55078186D01*
X4441598Y-54982791D01*
X4734000Y-54851191D01*
X5008408Y-54685306D01*
X5260819Y-54487554D01*
X5487554Y-54260819D01*
X5685306Y-54008408D01*
X5851191Y-53734000D01*
X5982791Y-53441598D01*
X6078186Y-53135466D01*
X6130109Y-52852131D01*
X6135983Y-52820080D01*
X6135986Y-52820055D01*
X6137510Y-52794860D01*
X10159500Y-52794860D01*
X10159501Y-52794863D01*
X10162414Y-52819990D01*
X10169891Y-52836923D01*
X10207794Y-52922765D01*
X10287235Y-53002206D01*
X10390009Y-53047585D01*
X10415135Y-53050500D01*
X13504864Y-53050499D01*
X13529991Y-53047585D01*
X13632765Y-53002206D01*
X13712206Y-52922765D01*
X13757585Y-52819991D01*
X13760500Y-52794865D01*
X13760500Y-51250002D01*
X15335233Y-51250002D01*
X15354273Y-51504076D01*
X15354275Y-51504086D01*
X15410970Y-51752487D01*
X15410970Y-51752489D01*
X15504055Y-51989664D01*
X15504059Y-51989673D01*
X15536693Y-52046197D01*
X16277961Y-51304928D01*
X16306971Y-51469454D01*
X16377340Y-51632587D01*
X16483433Y-51775094D01*
X16619530Y-51889294D01*
X16778295Y-51969028D01*
X16951169Y-52010000D01*
X16987106Y-52010000D01*
X16243718Y-52753388D01*
X16417181Y-52836923D01*
X16660649Y-52912023D01*
X16660659Y-52912025D01*
X16912599Y-52949999D01*
X16912608Y-52950000D01*
X17167392Y-52950000D01*
X25044760Y-52950000D01*
X25063693Y-53202657D01*
X25063694Y-53202663D01*
X25120075Y-53449684D01*
X25212639Y-53685530D01*
X25212643Y-53685539D01*
X25339329Y-53904966D01*
X25339333Y-53904971D01*
X25497296Y-54103052D01*
X25497302Y-54103058D01*
X25683028Y-54275386D01*
X25683030Y-54275387D01*
X25683035Y-54275392D01*
X25892380Y-54418121D01*
X26120659Y-54528054D01*
X26362774Y-54602737D01*
X26613315Y-54640500D01*
X26613320Y-54640500D01*
X26866680Y-54640500D01*
X26866685Y-54640500D01*
X27117226Y-54602737D01*
X27359341Y-54528054D01*
X27587620Y-54418121D01*
X27796965Y-54275392D01*
X27982699Y-54103056D01*
X27982703Y-54103052D01*
X28072170Y-53990862D01*
X28140673Y-53904963D01*
X28267358Y-53685537D01*
X28359925Y-53449681D01*
X28416306Y-53202662D01*
X28435240Y-52950000D01*
X38544760Y-52950000D01*
X38563693Y-53202657D01*
X38563694Y-53202663D01*
X38620075Y-53449684D01*
X38712639Y-53685530D01*
X38712643Y-53685539D01*
X38839329Y-53904966D01*
X38839333Y-53904971D01*
X38997296Y-54103052D01*
X38997302Y-54103058D01*
X39183028Y-54275386D01*
X39183030Y-54275387D01*
X39183035Y-54275392D01*
X39392380Y-54418121D01*
X39620659Y-54528054D01*
X39862774Y-54602737D01*
X40113315Y-54640500D01*
X40113320Y-54640500D01*
X40366680Y-54640500D01*
X40366685Y-54640500D01*
X40617226Y-54602737D01*
X40859341Y-54528054D01*
X41087620Y-54418121D01*
X41296965Y-54275392D01*
X41482699Y-54103056D01*
X41482703Y-54103052D01*
X41572170Y-53990862D01*
X41640673Y-53904963D01*
X41767358Y-53685537D01*
X41859925Y-53449681D01*
X41916306Y-53202662D01*
X41935240Y-52950000D01*
X41916306Y-52697338D01*
X41859925Y-52450319D01*
X41859924Y-52450318D01*
X41859924Y-52450315D01*
X41767360Y-52214469D01*
X41767358Y-52214463D01*
X41704179Y-52105034D01*
X43799500Y-52105034D01*
X43828680Y-52270525D01*
X43835976Y-52311899D01*
X43904442Y-52500006D01*
X43907823Y-52509296D01*
X43907824Y-52509299D01*
X44012850Y-52691207D01*
X44012855Y-52691214D01*
X44135120Y-52836923D01*
X44147876Y-52852124D01*
X44147882Y-52852129D01*
X44147884Y-52852131D01*
X44232062Y-52922765D01*
X44308791Y-52987149D01*
X44331050Y-53000000D01*
X44490700Y-53092175D01*
X44490703Y-53092176D01*
X44490705Y-53092176D01*
X44490709Y-53092179D01*
X44688101Y-53164024D01*
X44894970Y-53200500D01*
X44894971Y-53200500D01*
X45105029Y-53200500D01*
X45105030Y-53200500D01*
X45311899Y-53164024D01*
X45509291Y-53092179D01*
X45509296Y-53092175D01*
X45509299Y-53092175D01*
X45586530Y-53047585D01*
X45691209Y-52987149D01*
X45852124Y-52852124D01*
X45987149Y-52691209D01*
X46055530Y-52572768D01*
X46092175Y-52509299D01*
X46092176Y-52509296D01*
X46092175Y-52509296D01*
X46092179Y-52509291D01*
X46095558Y-52500006D01*
X58844655Y-52500006D01*
X58864013Y-52820055D01*
X58864016Y-52820080D01*
X58921813Y-53135462D01*
X58921813Y-53135464D01*
X59017209Y-53441599D01*
X59020848Y-53449684D01*
X59148809Y-53734000D01*
X59148813Y-53734008D01*
X59148817Y-53734014D01*
X59314685Y-54008394D01*
X59314689Y-54008400D01*
X59314694Y-54008408D01*
X59512446Y-54260819D01*
X59739181Y-54487554D01*
X59991592Y-54685306D01*
X59991603Y-54685312D01*
X59991605Y-54685314D01*
X60091099Y-54745460D01*
X60266000Y-54851191D01*
X60558402Y-54982791D01*
X60864534Y-55078186D01*
X60968172Y-55097178D01*
X61179919Y-55135983D01*
X61179930Y-55135984D01*
X61179934Y-55135985D01*
X61179937Y-55135985D01*
X61179944Y-55135986D01*
X61499994Y-55155345D01*
X61500000Y-55155345D01*
X61500006Y-55155345D01*
X61820055Y-55135986D01*
X61820060Y-55135985D01*
X61820066Y-55135985D01*
X61820071Y-55135984D01*
X61820080Y-55135983D01*
X61957438Y-55110810D01*
X62135466Y-55078186D01*
X62441598Y-54982791D01*
X62734000Y-54851191D01*
X63008408Y-54685306D01*
X63260819Y-54487554D01*
X63487554Y-54260819D01*
X63685306Y-54008408D01*
X63851191Y-53734000D01*
X63982791Y-53441598D01*
X64078186Y-53135466D01*
X64130109Y-52852131D01*
X64135983Y-52820080D01*
X64135986Y-52820055D01*
X64155345Y-52500006D01*
X64155345Y-52499993D01*
X64135986Y-52179944D01*
X64135983Y-52179919D01*
X64095702Y-51960118D01*
X64078186Y-51864534D01*
X63982791Y-51558402D01*
X63851191Y-51266000D01*
X63761196Y-51117129D01*
X63685314Y-50991605D01*
X63685312Y-50991603D01*
X63685306Y-50991592D01*
X63487554Y-50739181D01*
X63260819Y-50512446D01*
X63008408Y-50314694D01*
X63008400Y-50314689D01*
X63008394Y-50314685D01*
X62734014Y-50148817D01*
X62734008Y-50148813D01*
X62734000Y-50148809D01*
X62660735Y-50115835D01*
X62441599Y-50017209D01*
X62135463Y-49921813D01*
X61820080Y-49864016D01*
X61820055Y-49864013D01*
X61500006Y-49844655D01*
X61499994Y-49844655D01*
X61179944Y-49864013D01*
X61179919Y-49864016D01*
X60864537Y-49921813D01*
X60864535Y-49921813D01*
X60558400Y-50017209D01*
X60266006Y-50148806D01*
X60265985Y-50148817D01*
X59991605Y-50314685D01*
X59991586Y-50314698D01*
X59739187Y-50512441D01*
X59739184Y-50512443D01*
X59512443Y-50739184D01*
X59512441Y-50739187D01*
X59314698Y-50991586D01*
X59314685Y-50991605D01*
X59148817Y-51265985D01*
X59148806Y-51266006D01*
X59017209Y-51558400D01*
X58921813Y-51864535D01*
X58921813Y-51864537D01*
X58864016Y-52179919D01*
X58864013Y-52179944D01*
X58844655Y-52499993D01*
X58844655Y-52500006D01*
X46095558Y-52500006D01*
X46164024Y-52311899D01*
X46200500Y-52105030D01*
X46200500Y-52000000D01*
X46200500Y-51960118D01*
X46200500Y-50750000D01*
X47444435Y-50750000D01*
X47464632Y-50929257D01*
X47464633Y-50929261D01*
X47524211Y-51099522D01*
X47524211Y-51099523D01*
X47619693Y-51251481D01*
X47620184Y-51252262D01*
X47747738Y-51379816D01*
X47900478Y-51475789D01*
X47968657Y-51499646D01*
X48070738Y-51535366D01*
X48070742Y-51535367D01*
X48070745Y-51535368D01*
X48070746Y-51535368D01*
X48070750Y-51535369D01*
X48205029Y-51550499D01*
X48205045Y-51550499D01*
X48205046Y-51550500D01*
X49034076Y-51550500D01*
X49092267Y-51569407D01*
X49096881Y-51572972D01*
X49163547Y-51627682D01*
X49163547Y-51627683D01*
X49163548Y-51627683D01*
X49163550Y-51627685D01*
X49346046Y-51725232D01*
X49483997Y-51767078D01*
X49544065Y-51785300D01*
X49544070Y-51785301D01*
X49749997Y-51805583D01*
X49750000Y-51805583D01*
X49750003Y-51805583D01*
X49955929Y-51785301D01*
X49955934Y-51785300D01*
X49989579Y-51775094D01*
X50153954Y-51725232D01*
X50336450Y-51627685D01*
X50403119Y-51572972D01*
X50460096Y-51550672D01*
X50465924Y-51550500D01*
X51294953Y-51550500D01*
X51294954Y-51550500D01*
X51294955Y-51550499D01*
X51294970Y-51550499D01*
X51429249Y-51535369D01*
X51429251Y-51535368D01*
X51429255Y-51535368D01*
X51599522Y-51475789D01*
X51752262Y-51379816D01*
X51879816Y-51252262D01*
X51975789Y-51099522D01*
X52035368Y-50929255D01*
X52055565Y-50750000D01*
X52035368Y-50570745D01*
X52033783Y-50566216D01*
X51994448Y-50453802D01*
X51975789Y-50400478D01*
X51879816Y-50247738D01*
X51752262Y-50120184D01*
X51752259Y-50120182D01*
X51752258Y-50120181D01*
X51599523Y-50024211D01*
X51429261Y-49964633D01*
X51429249Y-49964630D01*
X51294970Y-49949500D01*
X51294954Y-49949500D01*
X50465924Y-49949500D01*
X50407733Y-49930593D01*
X50403119Y-49927028D01*
X50336452Y-49872317D01*
X50336452Y-49872316D01*
X50153954Y-49774768D01*
X49955934Y-49714699D01*
X49955929Y-49714698D01*
X49750003Y-49694417D01*
X49749997Y-49694417D01*
X49544070Y-49714698D01*
X49544065Y-49714699D01*
X49346045Y-49774768D01*
X49163547Y-49872316D01*
X49163547Y-49872317D01*
X49096881Y-49927028D01*
X49039904Y-49949328D01*
X49034076Y-49949500D01*
X48205029Y-49949500D01*
X48070750Y-49964630D01*
X48070738Y-49964633D01*
X47900477Y-50024211D01*
X47900476Y-50024211D01*
X47747741Y-50120181D01*
X47620181Y-50247741D01*
X47524211Y-50400476D01*
X47524211Y-50400477D01*
X47464633Y-50570738D01*
X47464632Y-50570742D01*
X47444435Y-50750000D01*
X46200500Y-50750000D01*
X46200500Y-44750003D01*
X54444417Y-44750003D01*
X54464698Y-44955929D01*
X54464699Y-44955934D01*
X54515647Y-45123885D01*
X54524768Y-45153954D01*
X54622315Y-45336450D01*
X54677028Y-45403118D01*
X54699328Y-45460094D01*
X54699500Y-45465922D01*
X54699500Y-46044970D01*
X54714630Y-46179249D01*
X54714633Y-46179261D01*
X54774211Y-46349522D01*
X54774211Y-46349523D01*
X54784871Y-46366488D01*
X54870184Y-46502262D01*
X54997738Y-46629816D01*
X54997740Y-46629817D01*
X54997741Y-46629818D01*
X55127738Y-46711501D01*
X55150478Y-46725789D01*
X55218657Y-46749646D01*
X55320738Y-46785366D01*
X55320742Y-46785367D01*
X55320745Y-46785368D01*
X55500000Y-46805565D01*
X55679255Y-46785368D01*
X55849522Y-46725789D01*
X56002262Y-46629816D01*
X56129816Y-46502262D01*
X56225789Y-46349522D01*
X56285311Y-46179417D01*
X56285366Y-46179261D01*
X56285369Y-46179249D01*
X56300499Y-46044970D01*
X56300500Y-46044953D01*
X56300500Y-45465922D01*
X56319407Y-45407731D01*
X56322960Y-45403131D01*
X56377685Y-45336450D01*
X56475232Y-45153954D01*
X56535300Y-44955934D01*
X56535301Y-44955929D01*
X56555583Y-44750003D01*
X56555583Y-44749996D01*
X56535301Y-44544070D01*
X56535300Y-44544065D01*
X56497119Y-44418200D01*
X56475232Y-44346046D01*
X56377685Y-44163550D01*
X56322972Y-44096881D01*
X56300672Y-44039904D01*
X56300500Y-44034076D01*
X56300500Y-43455046D01*
X56300499Y-43455029D01*
X56285369Y-43320750D01*
X56285366Y-43320738D01*
X56261014Y-43251145D01*
X56225789Y-43150478D01*
X56168260Y-43058922D01*
X56129818Y-42997741D01*
X56129817Y-42997740D01*
X56129816Y-42997738D01*
X56002262Y-42870184D01*
X56002259Y-42870182D01*
X56002258Y-42870181D01*
X55849523Y-42774211D01*
X55679261Y-42714633D01*
X55679257Y-42714632D01*
X55500000Y-42694435D01*
X55320742Y-42714632D01*
X55320738Y-42714633D01*
X55150477Y-42774211D01*
X55150476Y-42774211D01*
X54997741Y-42870181D01*
X54870181Y-42997741D01*
X54774211Y-43150476D01*
X54774211Y-43150477D01*
X54714633Y-43320738D01*
X54714630Y-43320750D01*
X54699500Y-43455029D01*
X54699500Y-44034076D01*
X54680593Y-44092267D01*
X54677028Y-44096881D01*
X54622317Y-44163547D01*
X54622316Y-44163547D01*
X54524768Y-44346045D01*
X54464699Y-44544065D01*
X54464698Y-44544070D01*
X54444417Y-44749996D01*
X54444417Y-44750003D01*
X46200500Y-44750003D01*
X46200500Y-36977410D01*
X46200500Y-36894970D01*
X46164024Y-36688101D01*
X46092179Y-36490709D01*
X46092176Y-36490703D01*
X46092175Y-36490700D01*
X46021339Y-36368011D01*
X45987149Y-36308791D01*
X45986161Y-36307613D01*
X45852131Y-36147884D01*
X45852129Y-36147882D01*
X45852124Y-36147876D01*
X45852117Y-36147870D01*
X45852115Y-36147868D01*
X45691214Y-36012855D01*
X45691212Y-36012853D01*
X45691209Y-36012851D01*
X45675339Y-36003688D01*
X45509299Y-35907824D01*
X45509296Y-35907823D01*
X45509291Y-35907821D01*
X45311899Y-35835976D01*
X45270525Y-35828680D01*
X45105034Y-35799500D01*
X45105030Y-35799500D01*
X44894970Y-35799500D01*
X44894965Y-35799500D01*
X44688101Y-35835976D01*
X44490703Y-35907823D01*
X44490700Y-35907824D01*
X44308792Y-36012850D01*
X44308785Y-36012855D01*
X44147884Y-36147868D01*
X44147868Y-36147884D01*
X44012855Y-36308785D01*
X44012850Y-36308792D01*
X43907824Y-36490700D01*
X43907823Y-36490703D01*
X43835976Y-36688101D01*
X43799500Y-36894965D01*
X43799500Y-52105034D01*
X41704179Y-52105034D01*
X41640673Y-51995037D01*
X41636396Y-51989674D01*
X41482703Y-51796947D01*
X41482697Y-51796941D01*
X41296971Y-51624613D01*
X41296968Y-51624611D01*
X41296965Y-51624608D01*
X41087620Y-51481879D01*
X40859341Y-51371946D01*
X40770693Y-51344601D01*
X40720662Y-51309382D01*
X40700886Y-51251481D01*
X40718921Y-51193014D01*
X40767877Y-51156314D01*
X40770694Y-51155398D01*
X40859341Y-51128054D01*
X41087620Y-51018121D01*
X41296965Y-50875392D01*
X41482699Y-50703056D01*
X41482703Y-50703052D01*
X41572170Y-50590862D01*
X41640673Y-50504963D01*
X41767358Y-50285537D01*
X41859925Y-50049681D01*
X41916306Y-49802662D01*
X41935240Y-49550000D01*
X41916306Y-49297338D01*
X41859925Y-49050319D01*
X41859924Y-49050318D01*
X41859924Y-49050315D01*
X41767360Y-48814469D01*
X41767358Y-48814463D01*
X41640673Y-48595037D01*
X41640666Y-48595028D01*
X41482703Y-48396947D01*
X41482697Y-48396941D01*
X41296971Y-48224613D01*
X41296968Y-48224611D01*
X41296965Y-48224608D01*
X41087620Y-48081879D01*
X41064485Y-48070738D01*
X40859341Y-47971946D01*
X40617230Y-47897264D01*
X40617227Y-47897263D01*
X40617226Y-47897263D01*
X40617221Y-47897262D01*
X40617220Y-47897262D01*
X40366688Y-47859500D01*
X40366685Y-47859500D01*
X40113315Y-47859500D01*
X40113311Y-47859500D01*
X39862779Y-47897262D01*
X39862769Y-47897264D01*
X39620658Y-47971946D01*
X39392387Y-48081875D01*
X39392383Y-48081877D01*
X39392380Y-48081879D01*
X39183035Y-48224608D01*
X39183028Y-48224613D01*
X38997302Y-48396941D01*
X38997296Y-48396947D01*
X38839333Y-48595028D01*
X38839329Y-48595033D01*
X38712643Y-48814460D01*
X38712639Y-48814469D01*
X38620075Y-49050315D01*
X38563694Y-49297336D01*
X38563693Y-49297342D01*
X38544760Y-49549997D01*
X38544760Y-49550000D01*
X38563693Y-49802657D01*
X38563694Y-49802663D01*
X38620075Y-50049684D01*
X38712639Y-50285530D01*
X38712643Y-50285539D01*
X38729476Y-50314694D01*
X38809789Y-50453802D01*
X38839329Y-50504966D01*
X38839333Y-50504971D01*
X38997296Y-50703052D01*
X38997302Y-50703058D01*
X39183028Y-50875386D01*
X39183030Y-50875387D01*
X39183035Y-50875392D01*
X39392380Y-51018121D01*
X39620659Y-51128054D01*
X39691076Y-51149774D01*
X39709305Y-51155398D01*
X39759337Y-51190618D01*
X39779113Y-51248519D01*
X39761078Y-51306986D01*
X39712121Y-51343687D01*
X39709305Y-51344602D01*
X39620658Y-51371946D01*
X39392387Y-51481875D01*
X39392383Y-51481877D01*
X39392380Y-51481879D01*
X39183035Y-51624608D01*
X39183028Y-51624613D01*
X38997302Y-51796941D01*
X38997296Y-51796947D01*
X38839333Y-51995028D01*
X38839329Y-51995033D01*
X38712643Y-52214460D01*
X38712639Y-52214469D01*
X38620075Y-52450315D01*
X38563694Y-52697336D01*
X38563693Y-52697342D01*
X38544760Y-52949997D01*
X38544760Y-52950000D01*
X28435240Y-52950000D01*
X28416306Y-52697338D01*
X28359925Y-52450319D01*
X28359924Y-52450318D01*
X28359924Y-52450315D01*
X28267360Y-52214469D01*
X28267358Y-52214463D01*
X28140673Y-51995037D01*
X28136396Y-51989674D01*
X27982703Y-51796947D01*
X27982697Y-51796941D01*
X27796971Y-51624613D01*
X27796968Y-51624611D01*
X27796965Y-51624608D01*
X27587620Y-51481879D01*
X27359341Y-51371946D01*
X27270693Y-51344601D01*
X27220662Y-51309382D01*
X27200886Y-51251481D01*
X27218921Y-51193014D01*
X27267877Y-51156314D01*
X27270694Y-51155398D01*
X27359341Y-51128054D01*
X27587620Y-51018121D01*
X27796965Y-50875392D01*
X27982699Y-50703056D01*
X27982703Y-50703052D01*
X28072170Y-50590862D01*
X28140673Y-50504963D01*
X28267358Y-50285537D01*
X28359925Y-50049681D01*
X28416306Y-49802662D01*
X28435240Y-49550000D01*
X28416306Y-49297338D01*
X28359925Y-49050319D01*
X28359924Y-49050318D01*
X28359924Y-49050315D01*
X28267360Y-48814469D01*
X28267358Y-48814463D01*
X28140673Y-48595037D01*
X28140666Y-48595028D01*
X27982703Y-48396947D01*
X27982697Y-48396941D01*
X27796971Y-48224613D01*
X27796968Y-48224611D01*
X27796965Y-48224608D01*
X27587620Y-48081879D01*
X27564485Y-48070738D01*
X27359341Y-47971946D01*
X27117230Y-47897264D01*
X27117227Y-47897263D01*
X27117226Y-47897263D01*
X27117221Y-47897262D01*
X27117220Y-47897262D01*
X26866688Y-47859500D01*
X26866685Y-47859500D01*
X26613315Y-47859500D01*
X26613311Y-47859500D01*
X26362779Y-47897262D01*
X26362769Y-47897264D01*
X26120658Y-47971946D01*
X25892387Y-48081875D01*
X25892383Y-48081877D01*
X25892380Y-48081879D01*
X25683035Y-48224608D01*
X25683028Y-48224613D01*
X25497302Y-48396941D01*
X25497296Y-48396947D01*
X25339333Y-48595028D01*
X25339329Y-48595033D01*
X25212643Y-48814460D01*
X25212639Y-48814469D01*
X25120075Y-49050315D01*
X25063694Y-49297336D01*
X25063693Y-49297342D01*
X25044760Y-49549997D01*
X25044760Y-49550000D01*
X25063693Y-49802657D01*
X25063694Y-49802663D01*
X25120075Y-50049684D01*
X25212639Y-50285530D01*
X25212643Y-50285539D01*
X25229476Y-50314694D01*
X25309789Y-50453802D01*
X25339329Y-50504966D01*
X25339333Y-50504971D01*
X25497296Y-50703052D01*
X25497302Y-50703058D01*
X25683028Y-50875386D01*
X25683030Y-50875387D01*
X25683035Y-50875392D01*
X25892380Y-51018121D01*
X26120659Y-51128054D01*
X26191076Y-51149774D01*
X26209305Y-51155398D01*
X26259337Y-51190618D01*
X26279113Y-51248519D01*
X26261078Y-51306986D01*
X26212121Y-51343687D01*
X26209305Y-51344602D01*
X26120658Y-51371946D01*
X25892387Y-51481875D01*
X25892383Y-51481877D01*
X25892380Y-51481879D01*
X25683035Y-51624608D01*
X25683028Y-51624613D01*
X25497302Y-51796941D01*
X25497296Y-51796947D01*
X25339333Y-51995028D01*
X25339329Y-51995033D01*
X25212643Y-52214460D01*
X25212639Y-52214469D01*
X25120075Y-52450315D01*
X25063694Y-52697336D01*
X25063693Y-52697342D01*
X25044760Y-52949997D01*
X25044760Y-52950000D01*
X17167392Y-52950000D01*
X17167400Y-52949999D01*
X17419340Y-52912025D01*
X17419350Y-52912023D01*
X17662823Y-52836922D01*
X17836281Y-52753389D01*
X17091989Y-52009097D01*
X17216461Y-51994549D01*
X17383409Y-51933784D01*
X17531844Y-51836157D01*
X17653764Y-51706930D01*
X17742595Y-51553070D01*
X17793549Y-51382871D01*
X17798305Y-51301197D01*
X18543305Y-52046197D01*
X18575939Y-51989674D01*
X18575945Y-51989662D01*
X18669029Y-51752489D01*
X18669029Y-51752487D01*
X18725724Y-51504086D01*
X18725726Y-51504076D01*
X18744767Y-51250002D01*
X18744767Y-51249997D01*
X18725726Y-50995923D01*
X18725724Y-50995913D01*
X18669029Y-50747512D01*
X18669029Y-50747510D01*
X18575943Y-50510331D01*
X18575941Y-50510329D01*
X18543305Y-50453801D01*
X17802038Y-51195067D01*
X17773029Y-51030546D01*
X17702660Y-50867413D01*
X17596567Y-50724906D01*
X17460470Y-50610706D01*
X17301705Y-50530972D01*
X17128831Y-50490000D01*
X17092890Y-50490000D01*
X17836281Y-49746609D01*
X17836282Y-49746609D01*
X17662823Y-49663078D01*
X17419350Y-49587976D01*
X17419340Y-49587974D01*
X17167400Y-49550000D01*
X16912599Y-49550000D01*
X16660659Y-49587974D01*
X16660649Y-49587976D01*
X16417176Y-49663077D01*
X16243718Y-49746610D01*
X16988010Y-50490902D01*
X16863539Y-50505451D01*
X16696591Y-50566216D01*
X16548156Y-50663843D01*
X16426236Y-50793070D01*
X16337405Y-50946930D01*
X16286451Y-51117129D01*
X16281694Y-51198802D01*
X15536694Y-50453802D01*
X15504059Y-50510326D01*
X15504057Y-50510331D01*
X15410970Y-50747510D01*
X15410970Y-50747512D01*
X15354275Y-50995913D01*
X15354273Y-50995923D01*
X15335233Y-51249997D01*
X15335233Y-51250002D01*
X13760500Y-51250002D01*
X13760499Y-49705136D01*
X13757585Y-49680009D01*
X13712206Y-49577235D01*
X13632765Y-49497794D01*
X13529991Y-49452415D01*
X13529990Y-49452414D01*
X13529988Y-49452414D01*
X13504868Y-49449500D01*
X10415139Y-49449500D01*
X10415136Y-49449501D01*
X10390009Y-49452414D01*
X10287235Y-49497794D01*
X10207794Y-49577235D01*
X10162414Y-49680011D01*
X10159500Y-49705130D01*
X10159500Y-52794860D01*
X6137510Y-52794860D01*
X6155345Y-52500006D01*
X6155345Y-52499993D01*
X6135986Y-52179944D01*
X6135983Y-52179919D01*
X6095702Y-51960118D01*
X6078186Y-51864534D01*
X5982791Y-51558402D01*
X5851191Y-51266000D01*
X5761196Y-51117129D01*
X5685314Y-50991605D01*
X5685312Y-50991603D01*
X5685306Y-50991592D01*
X5487554Y-50739181D01*
X5260819Y-50512446D01*
X5008408Y-50314694D01*
X5008400Y-50314689D01*
X5008394Y-50314685D01*
X4734014Y-50148817D01*
X4734008Y-50148813D01*
X4734000Y-50148809D01*
X4660735Y-50115835D01*
X4441599Y-50017209D01*
X4135463Y-49921813D01*
X3820080Y-49864016D01*
X3820055Y-49864013D01*
X3500006Y-49844655D01*
X3499994Y-49844655D01*
X3179944Y-49864013D01*
X3179919Y-49864016D01*
X2864537Y-49921813D01*
X2864535Y-49921813D01*
X2558400Y-50017209D01*
X2266006Y-50148806D01*
X2265985Y-50148817D01*
X1991605Y-50314685D01*
X1991586Y-50314698D01*
X1739187Y-50512441D01*
X1739184Y-50512443D01*
X1512443Y-50739184D01*
X1512441Y-50739187D01*
X1314698Y-50991586D01*
X1314685Y-50991605D01*
X1148817Y-51265985D01*
X1148806Y-51266006D01*
X1017209Y-51558400D01*
X921813Y-51864535D01*
X921813Y-51864537D01*
X864016Y-52179919D01*
X864013Y-52179944D01*
X844655Y-52499993D01*
X844655Y-52500006D01*
X200500Y-52500006D01*
X200500Y-48250000D01*
X16694435Y-48250000D01*
X16714632Y-48429257D01*
X16714633Y-48429261D01*
X16774211Y-48599522D01*
X16774211Y-48599523D01*
X16870181Y-48752258D01*
X16870184Y-48752262D01*
X16997738Y-48879816D01*
X17150478Y-48975789D01*
X17218657Y-48999646D01*
X17320738Y-49035366D01*
X17320742Y-49035367D01*
X17320745Y-49035368D01*
X17320746Y-49035368D01*
X17320750Y-49035369D01*
X17455029Y-49050499D01*
X17455045Y-49050499D01*
X17455046Y-49050500D01*
X18034076Y-49050500D01*
X18092267Y-49069407D01*
X18096881Y-49072972D01*
X18163547Y-49127682D01*
X18163547Y-49127683D01*
X18163548Y-49127683D01*
X18163550Y-49127685D01*
X18346046Y-49225232D01*
X18483997Y-49267078D01*
X18544065Y-49285300D01*
X18544070Y-49285301D01*
X18749997Y-49305583D01*
X18750000Y-49305583D01*
X18750003Y-49305583D01*
X18955929Y-49285301D01*
X18955934Y-49285300D01*
X19153954Y-49225232D01*
X19336450Y-49127685D01*
X19403119Y-49072972D01*
X19460096Y-49050672D01*
X19465924Y-49050500D01*
X20044953Y-49050500D01*
X20044954Y-49050500D01*
X20044955Y-49050499D01*
X20044970Y-49050499D01*
X20179249Y-49035369D01*
X20179251Y-49035368D01*
X20179255Y-49035368D01*
X20349522Y-48975789D01*
X20502262Y-48879816D01*
X20629816Y-48752262D01*
X20725789Y-48599522D01*
X20785368Y-48429255D01*
X20805565Y-48250000D01*
X20785368Y-48070745D01*
X20725789Y-47900478D01*
X20723768Y-47897262D01*
X20629818Y-47747741D01*
X20629817Y-47747740D01*
X20629816Y-47747738D01*
X20502262Y-47620184D01*
X20502259Y-47620182D01*
X20502258Y-47620181D01*
X20349523Y-47524211D01*
X20179261Y-47464633D01*
X20179249Y-47464630D01*
X20044970Y-47449500D01*
X20044954Y-47449500D01*
X19465924Y-47449500D01*
X19407733Y-47430593D01*
X19403119Y-47427028D01*
X19336452Y-47372317D01*
X19336452Y-47372316D01*
X19153954Y-47274768D01*
X18955934Y-47214699D01*
X18955929Y-47214698D01*
X18750003Y-47194417D01*
X18749997Y-47194417D01*
X18544070Y-47214698D01*
X18544065Y-47214699D01*
X18346045Y-47274768D01*
X18163547Y-47372316D01*
X18163547Y-47372317D01*
X18096881Y-47427028D01*
X18039904Y-47449328D01*
X18034076Y-47449500D01*
X17455029Y-47449500D01*
X17320750Y-47464630D01*
X17320738Y-47464633D01*
X17150477Y-47524211D01*
X17150476Y-47524211D01*
X16997741Y-47620181D01*
X16870181Y-47747741D01*
X16774211Y-47900476D01*
X16774211Y-47900477D01*
X16714633Y-48070738D01*
X16714632Y-48070742D01*
X16694435Y-48250000D01*
X200500Y-48250000D01*
X200500Y-42950000D01*
X444616Y-42950000D01*
X464139Y-43334982D01*
X464140Y-43334984D01*
X488805Y-43495993D01*
X522512Y-43716018D01*
X614035Y-44069499D01*
X619137Y-44089202D01*
X619137Y-44089203D01*
X753011Y-44450673D01*
X753012Y-44450674D01*
X922776Y-44796762D01*
X1126673Y-45123885D01*
X1126676Y-45123890D01*
X1126680Y-45123895D01*
X1362634Y-45428722D01*
X1490194Y-45562915D01*
X1628218Y-45708117D01*
X1724659Y-45790909D01*
X1920702Y-45959205D01*
X1920705Y-45959207D01*
X2237075Y-46179408D01*
X2237083Y-46179413D01*
X2237089Y-46179417D01*
X2237093Y-46179419D01*
X2574126Y-46366488D01*
X2574125Y-46366488D01*
X2574127Y-46366489D01*
X2574131Y-46366491D01*
X2928370Y-46518507D01*
X3296171Y-46633905D01*
X3673759Y-46711502D01*
X3986461Y-46743300D01*
X4057258Y-46750500D01*
X4057260Y-46750500D01*
X4442742Y-46750500D01*
X4507555Y-46743908D01*
X4826241Y-46711502D01*
X5203829Y-46633905D01*
X5571630Y-46518507D01*
X5925869Y-46366491D01*
X6262911Y-46179417D01*
X6579298Y-45959205D01*
X6871784Y-45708115D01*
X7137366Y-45428722D01*
X7373320Y-45123895D01*
X7577225Y-44796760D01*
X7746987Y-44450675D01*
X7759015Y-44418200D01*
X7880862Y-44089203D01*
X7880862Y-44089202D01*
X7880866Y-44089192D01*
X7977488Y-43716018D01*
X8035860Y-43334984D01*
X8055384Y-42950000D01*
X8035860Y-42565016D01*
X7977488Y-42183982D01*
X7880866Y-41810808D01*
X7779967Y-41538375D01*
X7777488Y-41477241D01*
X7811416Y-41426325D01*
X7868793Y-41405074D01*
X7927702Y-41421608D01*
X7938174Y-41429643D01*
X8022788Y-41504035D01*
X8022792Y-41504039D01*
X8405045Y-41810796D01*
X8688984Y-42038657D01*
X9378531Y-42542813D01*
X10090031Y-43015482D01*
X10822048Y-43455708D01*
X11573104Y-43862603D01*
X12341682Y-44235345D01*
X13126229Y-44573182D01*
X13126235Y-44573184D01*
X13126246Y-44573189D01*
X13925121Y-44875416D01*
X13925139Y-44875422D01*
X13925162Y-44875431D01*
X14736867Y-45141482D01*
X15559705Y-45370798D01*
X16392015Y-45562915D01*
X16870684Y-45650963D01*
X17232096Y-45717443D01*
X17232106Y-45717444D01*
X17232115Y-45717446D01*
X18078309Y-45834079D01*
X18928889Y-45912577D01*
X19782137Y-45952783D01*
X20636330Y-45954616D01*
X20636353Y-45954615D01*
X20636362Y-45954615D01*
X21489706Y-45918073D01*
X21489720Y-45918071D01*
X21489742Y-45918071D01*
X22340651Y-45843222D01*
X23187338Y-45730221D01*
X23187339Y-45730220D01*
X23187345Y-45730220D01*
X23569240Y-45661665D01*
X24028094Y-45579296D01*
X24100478Y-45562915D01*
X24385795Y-45498345D01*
X24861220Y-45390752D01*
X25685034Y-45164968D01*
X26497874Y-44902402D01*
X27298096Y-44603584D01*
X28084085Y-44269116D01*
X28854255Y-43899674D01*
X29607050Y-43496005D01*
X30340949Y-43058924D01*
X31054471Y-42589312D01*
X31746174Y-42088119D01*
X32414663Y-41556357D01*
X32451972Y-41523838D01*
X32562996Y-41427066D01*
X32619285Y-41403084D01*
X32678921Y-41416769D01*
X32719123Y-41462892D01*
X32724537Y-41523838D01*
X32720882Y-41536079D01*
X32619137Y-41810796D01*
X32619137Y-41810797D01*
X32619134Y-41810806D01*
X32619134Y-41810808D01*
X32547333Y-42088119D01*
X32522511Y-42183986D01*
X32522510Y-42183993D01*
X32464140Y-42565015D01*
X32464139Y-42565017D01*
X32444616Y-42950000D01*
X32464139Y-43334982D01*
X32464140Y-43334984D01*
X32488805Y-43495993D01*
X32522512Y-43716018D01*
X32614035Y-44069499D01*
X32619137Y-44089202D01*
X32619137Y-44089203D01*
X32753011Y-44450673D01*
X32753012Y-44450674D01*
X32922776Y-44796762D01*
X33126673Y-45123885D01*
X33126676Y-45123890D01*
X33126680Y-45123895D01*
X33362634Y-45428722D01*
X33490194Y-45562915D01*
X33628218Y-45708117D01*
X33724659Y-45790909D01*
X33920702Y-45959205D01*
X33920705Y-45959207D01*
X34237075Y-46179408D01*
X34237083Y-46179413D01*
X34237089Y-46179417D01*
X34237093Y-46179419D01*
X34574126Y-46366488D01*
X34574125Y-46366488D01*
X34574127Y-46366489D01*
X34574131Y-46366491D01*
X34928370Y-46518507D01*
X35296171Y-46633905D01*
X35673759Y-46711502D01*
X35986461Y-46743300D01*
X36057258Y-46750500D01*
X36057260Y-46750500D01*
X36442742Y-46750500D01*
X36507555Y-46743908D01*
X36826241Y-46711502D01*
X37203829Y-46633905D01*
X37571630Y-46518507D01*
X37925869Y-46366491D01*
X38262911Y-46179417D01*
X38579298Y-45959205D01*
X38871784Y-45708115D01*
X39137366Y-45428722D01*
X39373320Y-45123895D01*
X39577225Y-44796760D01*
X39746987Y-44450675D01*
X39759015Y-44418200D01*
X39880862Y-44089203D01*
X39880862Y-44089202D01*
X39880866Y-44089192D01*
X39977488Y-43716018D01*
X40035860Y-43334984D01*
X40055384Y-42950000D01*
X40035860Y-42565016D01*
X39977488Y-42183982D01*
X39880866Y-41810808D01*
X39880862Y-41810796D01*
X39746988Y-41449326D01*
X39746987Y-41449325D01*
X39585036Y-41119164D01*
X39577225Y-41103240D01*
X39373320Y-40776105D01*
X39137366Y-40471278D01*
X38871784Y-40191885D01*
X38579298Y-39940795D01*
X38579294Y-39940792D01*
X38262924Y-39720591D01*
X38262906Y-39720580D01*
X37925873Y-39533511D01*
X37925874Y-39533511D01*
X37673060Y-39425020D01*
X37571630Y-39381493D01*
X37571627Y-39381492D01*
X37571622Y-39381490D01*
X37203828Y-39266094D01*
X36826241Y-39188498D01*
X36442742Y-39149500D01*
X36442740Y-39149500D01*
X36057260Y-39149500D01*
X36057258Y-39149500D01*
X35673758Y-39188498D01*
X35296171Y-39266094D01*
X34928377Y-39381490D01*
X34928360Y-39381496D01*
X34841772Y-39418654D01*
X34780841Y-39424226D01*
X34728272Y-39392920D01*
X34704143Y-39336693D01*
X34717673Y-39277022D01*
X34728232Y-39262480D01*
X34830228Y-39145968D01*
X35363423Y-38478622D01*
X35866099Y-37787995D01*
X36337240Y-37075482D01*
X36775895Y-36342522D01*
X37181178Y-35590595D01*
X37552270Y-34821220D01*
X37888424Y-34035950D01*
X38188958Y-33236370D01*
X38345371Y-32755682D01*
X38453253Y-32424141D01*
X38453257Y-32424126D01*
X38453267Y-32424096D01*
X38529021Y-32150000D01*
X55244318Y-32150000D01*
X55264955Y-32306758D01*
X55264957Y-32306766D01*
X55325462Y-32452838D01*
X55325462Y-32452839D01*
X55412697Y-32566526D01*
X55421718Y-32578282D01*
X55547159Y-32674536D01*
X55693238Y-32735044D01*
X55810809Y-32750522D01*
X55849999Y-32755682D01*
X55850000Y-32755682D01*
X55850001Y-32755682D01*
X55881352Y-32751554D01*
X56006762Y-32735044D01*
X56152841Y-32674536D01*
X56198235Y-32639703D01*
X56255247Y-32595958D01*
X56312923Y-32575534D01*
X56315514Y-32575500D01*
X58634486Y-32575500D01*
X58692677Y-32594407D01*
X58694753Y-32595958D01*
X58751764Y-32639703D01*
X58797159Y-32674536D01*
X58943238Y-32735044D01*
X59060809Y-32750522D01*
X59099999Y-32755682D01*
X59100000Y-32755682D01*
X59100001Y-32755682D01*
X59131352Y-32751554D01*
X59256762Y-32735044D01*
X59402841Y-32674536D01*
X59528282Y-32578282D01*
X59624536Y-32452841D01*
X59685044Y-32306762D01*
X59705682Y-32150000D01*
X59685044Y-31993238D01*
X59624537Y-31847161D01*
X59624537Y-31847160D01*
X59528286Y-31721723D01*
X59528285Y-31721722D01*
X59528282Y-31721718D01*
X59528277Y-31721714D01*
X59528276Y-31721713D01*
X59402838Y-31625462D01*
X59256766Y-31564957D01*
X59256758Y-31564955D01*
X59100001Y-31544318D01*
X59099999Y-31544318D01*
X58943241Y-31564955D01*
X58943233Y-31564957D01*
X58797161Y-31625462D01*
X58797160Y-31625462D01*
X58694753Y-31704042D01*
X58637077Y-31724466D01*
X58634486Y-31724500D01*
X56315514Y-31724500D01*
X56257323Y-31705593D01*
X56255247Y-31704042D01*
X56152838Y-31625462D01*
X56006766Y-31564957D01*
X56006758Y-31564955D01*
X55850001Y-31544318D01*
X55849999Y-31544318D01*
X55693241Y-31564955D01*
X55693233Y-31564957D01*
X55547161Y-31625462D01*
X55547160Y-31625462D01*
X55421723Y-31721713D01*
X55421713Y-31721723D01*
X55325462Y-31847160D01*
X55325462Y-31847161D01*
X55264957Y-31993233D01*
X55264955Y-31993241D01*
X55244318Y-32149999D01*
X55244318Y-32150000D01*
X38529021Y-32150000D01*
X38680817Y-31600768D01*
X38871149Y-30768048D01*
X38874429Y-30750000D01*
X53744318Y-30750000D01*
X53764955Y-30906758D01*
X53764957Y-30906766D01*
X53825462Y-31052838D01*
X53825462Y-31052839D01*
X53825464Y-31052841D01*
X53921718Y-31178282D01*
X54047159Y-31274536D01*
X54193238Y-31335044D01*
X54310809Y-31350522D01*
X54349999Y-31355682D01*
X54350000Y-31355682D01*
X54350001Y-31355682D01*
X54381352Y-31351554D01*
X54506762Y-31335044D01*
X54652841Y-31274536D01*
X54778282Y-31178282D01*
X54874536Y-31052841D01*
X54935044Y-30906762D01*
X54955682Y-30750000D01*
X54935044Y-30593238D01*
X54935042Y-30593232D01*
X54908036Y-30528033D01*
X54900500Y-30490148D01*
X54900500Y-28900000D01*
X60744318Y-28900000D01*
X60764955Y-29056758D01*
X60764957Y-29056766D01*
X60825462Y-29202838D01*
X60825462Y-29202839D01*
X60825464Y-29202841D01*
X60921718Y-29328282D01*
X61047159Y-29424536D01*
X61193238Y-29485044D01*
X61310809Y-29500522D01*
X61349999Y-29505682D01*
X61350000Y-29505682D01*
X61350001Y-29505682D01*
X61381352Y-29501554D01*
X61506762Y-29485044D01*
X61652841Y-29424536D01*
X61778282Y-29328282D01*
X61874536Y-29202841D01*
X61935044Y-29056762D01*
X61955682Y-28900000D01*
X61935044Y-28743238D01*
X61874537Y-28597161D01*
X61874537Y-28597160D01*
X61795958Y-28494753D01*
X61775534Y-28437077D01*
X61775500Y-28434486D01*
X61775500Y-25315513D01*
X61794407Y-25257322D01*
X61795958Y-25255246D01*
X61874536Y-25152841D01*
X61935044Y-25006762D01*
X61955682Y-24850000D01*
X61935044Y-24693238D01*
X61881908Y-24564956D01*
X61874537Y-24547161D01*
X61874537Y-24547160D01*
X61778286Y-24421723D01*
X61778285Y-24421722D01*
X61778282Y-24421718D01*
X61778277Y-24421714D01*
X61778276Y-24421713D01*
X61652838Y-24325462D01*
X61506766Y-24264957D01*
X61506758Y-24264955D01*
X61350001Y-24244318D01*
X61349999Y-24244318D01*
X61193241Y-24264955D01*
X61193233Y-24264957D01*
X61047161Y-24325462D01*
X61047160Y-24325462D01*
X60921723Y-24421713D01*
X60921713Y-24421723D01*
X60825462Y-24547160D01*
X60825462Y-24547161D01*
X60764957Y-24693233D01*
X60764955Y-24693241D01*
X60744318Y-24849999D01*
X60744318Y-24850000D01*
X60764955Y-25006758D01*
X60764957Y-25006766D01*
X60825462Y-25152838D01*
X60825462Y-25152839D01*
X60904042Y-25255246D01*
X60924466Y-25312922D01*
X60924500Y-25315513D01*
X60924500Y-28434486D01*
X60905593Y-28492677D01*
X60904042Y-28494753D01*
X60825462Y-28597160D01*
X60825462Y-28597161D01*
X60764957Y-28743233D01*
X60764955Y-28743241D01*
X60744318Y-28899999D01*
X60744318Y-28900000D01*
X54900500Y-28900000D01*
X54900500Y-26450000D01*
X56484318Y-26450000D01*
X56504955Y-26606758D01*
X56504957Y-26606766D01*
X56565462Y-26752838D01*
X56565462Y-26752839D01*
X56565464Y-26752841D01*
X56661718Y-26878282D01*
X56787159Y-26974536D01*
X56787160Y-26974536D01*
X56787161Y-26974537D01*
X56933233Y-27035042D01*
X56933238Y-27035044D01*
X57050809Y-27050522D01*
X57089999Y-27055682D01*
X57090000Y-27055682D01*
X57090001Y-27055682D01*
X57121352Y-27051554D01*
X57246762Y-27035044D01*
X57392841Y-26974536D01*
X57518282Y-26878282D01*
X57614536Y-26752841D01*
X57675044Y-26606762D01*
X57695682Y-26450000D01*
X57675044Y-26293238D01*
X57614536Y-26147159D01*
X57545958Y-26057785D01*
X57525534Y-26000109D01*
X57525500Y-25997518D01*
X57525500Y-23965513D01*
X57544407Y-23907322D01*
X57545958Y-23905246D01*
X57624536Y-23802841D01*
X57685044Y-23656762D01*
X57705682Y-23500000D01*
X57685044Y-23343238D01*
X57624537Y-23197161D01*
X57624537Y-23197160D01*
X57528286Y-23071723D01*
X57528285Y-23071722D01*
X57528282Y-23071718D01*
X57528277Y-23071714D01*
X57528276Y-23071713D01*
X57402838Y-22975462D01*
X57256766Y-22914957D01*
X57256758Y-22914955D01*
X57100001Y-22894318D01*
X57099999Y-22894318D01*
X56943241Y-22914955D01*
X56943233Y-22914957D01*
X56797161Y-22975462D01*
X56797160Y-22975462D01*
X56671723Y-23071713D01*
X56671713Y-23071723D01*
X56575462Y-23197160D01*
X56575462Y-23197161D01*
X56514957Y-23343233D01*
X56514955Y-23343241D01*
X56494318Y-23499999D01*
X56494318Y-23500000D01*
X56514955Y-23656758D01*
X56514957Y-23656766D01*
X56575462Y-23802838D01*
X56575462Y-23802839D01*
X56654042Y-23905246D01*
X56674466Y-23962922D01*
X56674500Y-23965513D01*
X56674500Y-25971454D01*
X56655593Y-26029645D01*
X56654042Y-26031721D01*
X56565462Y-26147160D01*
X56565462Y-26147161D01*
X56504957Y-26293233D01*
X56504955Y-26293241D01*
X56484318Y-26449999D01*
X56484318Y-26450000D01*
X54900500Y-26450000D01*
X54900500Y-25409850D01*
X54908036Y-25371964D01*
X54932492Y-25312922D01*
X54935044Y-25306762D01*
X54955682Y-25150000D01*
X54935044Y-24993238D01*
X54875713Y-24850000D01*
X54874537Y-24847161D01*
X54874537Y-24847160D01*
X54778286Y-24721723D01*
X54778285Y-24721722D01*
X54778282Y-24721718D01*
X54778277Y-24721714D01*
X54778276Y-24721713D01*
X54652838Y-24625462D01*
X54506766Y-24564957D01*
X54506758Y-24564955D01*
X54350001Y-24544318D01*
X54349999Y-24544318D01*
X54193241Y-24564955D01*
X54193233Y-24564957D01*
X54047161Y-24625462D01*
X54047160Y-24625462D01*
X53921723Y-24721713D01*
X53921713Y-24721723D01*
X53825462Y-24847160D01*
X53825462Y-24847161D01*
X53764957Y-24993233D01*
X53764955Y-24993241D01*
X53744318Y-25149999D01*
X53744318Y-25150000D01*
X53764955Y-25306758D01*
X53764956Y-25306763D01*
X53791964Y-25371964D01*
X53799500Y-25409850D01*
X53799500Y-30490148D01*
X53791964Y-30528033D01*
X53764957Y-30593232D01*
X53764955Y-30593241D01*
X53744318Y-30749999D01*
X53744318Y-30750000D01*
X38874429Y-30750000D01*
X39023877Y-29927619D01*
X39138694Y-29081176D01*
X39140895Y-29056762D01*
X39160470Y-28839553D01*
X39215368Y-28230429D01*
X39253743Y-27377097D01*
X39253754Y-26990952D01*
X39257387Y-26964386D01*
X39928143Y-24557629D01*
X39934315Y-24541252D01*
X39935285Y-24539235D01*
X39935289Y-24539231D01*
X39943902Y-24501488D01*
X39945039Y-24497002D01*
X39949203Y-24482066D01*
X39949203Y-24482055D01*
X39949964Y-24477332D01*
X39950499Y-24472592D01*
X39950499Y-24457096D01*
X39950610Y-24452406D01*
X39952442Y-24413789D01*
X39952440Y-24413786D01*
X39952441Y-24413785D01*
X39952045Y-24411567D01*
X39950499Y-24394141D01*
X39950499Y-15954672D01*
X39950499Y-15950020D01*
X39950500Y-15950020D01*
X39950509Y-15855534D01*
X39920962Y-15668887D01*
X39862577Y-15489162D01*
X39776793Y-15320784D01*
X39665721Y-15167901D01*
X39532099Y-15034278D01*
X39379215Y-14923206D01*
X39379210Y-14923203D01*
X39379206Y-14923201D01*
X39210837Y-14837422D01*
X39210835Y-14837421D01*
X39112856Y-14805593D01*
X39031111Y-14779038D01*
X39031107Y-14779037D01*
X39031106Y-14779037D01*
X38844469Y-14749491D01*
X38844464Y-14749491D01*
X38844416Y-14749491D01*
X38777931Y-14749496D01*
X38776546Y-14749421D01*
X38749597Y-14749500D01*
X38749320Y-14749500D01*
X38701387Y-14749504D01*
X38699990Y-14749643D01*
X37470093Y-14753212D01*
X37411848Y-14734473D01*
X37375741Y-14685078D01*
X37375563Y-14623893D01*
X37411383Y-14574289D01*
X37440166Y-14559753D01*
X37571630Y-14518507D01*
X37925869Y-14366491D01*
X38262911Y-14179417D01*
X38579298Y-13959205D01*
X38871784Y-13708115D01*
X39137366Y-13428722D01*
X39373320Y-13123895D01*
X39577225Y-12796760D01*
X39746987Y-12450675D01*
X39751009Y-12439817D01*
X39880862Y-12089203D01*
X39880862Y-12089202D01*
X39880863Y-12089199D01*
X39880866Y-12089192D01*
X39977488Y-11716018D01*
X39995261Y-11600000D01*
X42508924Y-11600000D01*
X42525232Y-11653764D01*
X42622724Y-11836160D01*
X42622731Y-11836170D01*
X42753940Y-11996050D01*
X42753949Y-11996059D01*
X42913824Y-12127265D01*
X42913830Y-12127269D01*
X43000000Y-12173326D01*
X44000000Y-12173326D01*
X44086169Y-12127269D01*
X44086175Y-12127265D01*
X44246050Y-11996059D01*
X44246059Y-11996050D01*
X44377268Y-11836170D01*
X44377275Y-11836160D01*
X44474767Y-11653764D01*
X44491076Y-11600000D01*
X44000001Y-11600000D01*
X44000000Y-11600001D01*
X44000000Y-12173326D01*
X43000000Y-12173326D01*
X43000000Y-11600001D01*
X42999999Y-11600000D01*
X42508924Y-11600000D01*
X39995261Y-11600000D01*
X40035860Y-11334984D01*
X40044131Y-11171889D01*
X43000000Y-11171889D01*
X43040507Y-11309844D01*
X43118239Y-11430798D01*
X43226900Y-11524952D01*
X43357685Y-11584680D01*
X43464237Y-11600000D01*
X43535763Y-11600000D01*
X43642315Y-11584680D01*
X43773100Y-11524952D01*
X43881761Y-11430798D01*
X43959493Y-11309844D01*
X44000000Y-11171889D01*
X44000000Y-11028111D01*
X43959493Y-10890156D01*
X43881761Y-10769202D01*
X43773100Y-10675048D01*
X43642315Y-10615320D01*
X43535763Y-10600000D01*
X43464237Y-10600000D01*
X43357685Y-10615320D01*
X43226900Y-10675048D01*
X43118239Y-10769202D01*
X43040507Y-10890156D01*
X43000000Y-11028111D01*
X43000000Y-11171889D01*
X40044131Y-11171889D01*
X40055384Y-10950000D01*
X40037634Y-10600000D01*
X42508924Y-10600000D01*
X42999999Y-10600000D01*
X43000000Y-10599999D01*
X43000000Y-10026672D01*
X42999999Y-10026671D01*
X44000000Y-10026671D01*
X44000000Y-10599999D01*
X44000001Y-10600000D01*
X44491075Y-10600000D01*
X44474767Y-10546235D01*
X44377275Y-10363839D01*
X44377268Y-10363829D01*
X44246059Y-10203949D01*
X44246050Y-10203940D01*
X44086169Y-10072730D01*
X44000000Y-10026671D01*
X42999999Y-10026671D01*
X42913830Y-10072730D01*
X42753949Y-10203940D01*
X42753940Y-10203949D01*
X42622731Y-10363829D01*
X42622724Y-10363839D01*
X42525232Y-10546235D01*
X42508924Y-10600000D01*
X40037634Y-10600000D01*
X40035860Y-10565016D01*
X39977488Y-10183982D01*
X39880866Y-9810808D01*
X39880862Y-9810796D01*
X39746988Y-9449326D01*
X39746987Y-9449325D01*
X39732603Y-9420002D01*
X59195233Y-9420002D01*
X59214273Y-9674076D01*
X59214275Y-9674086D01*
X59270970Y-9922487D01*
X59270970Y-9922489D01*
X59364055Y-10159664D01*
X59364059Y-10159673D01*
X59396693Y-10216197D01*
X60137961Y-9474928D01*
X60166971Y-9639454D01*
X60237340Y-9802587D01*
X60343433Y-9945094D01*
X60479530Y-10059294D01*
X60638295Y-10139028D01*
X60811169Y-10180000D01*
X60847106Y-10180000D01*
X60103718Y-10923388D01*
X60277181Y-11006923D01*
X60520649Y-11082023D01*
X60520659Y-11082025D01*
X60772599Y-11119999D01*
X60772608Y-11120000D01*
X61027392Y-11120000D01*
X61027400Y-11119999D01*
X61279340Y-11082025D01*
X61279350Y-11082023D01*
X61522823Y-11006922D01*
X61696281Y-10923389D01*
X60951989Y-10179097D01*
X61076461Y-10164549D01*
X61243409Y-10103784D01*
X61391844Y-10006157D01*
X61513764Y-9876930D01*
X61602595Y-9723070D01*
X61653549Y-9552871D01*
X61658305Y-9471197D01*
X62403305Y-10216197D01*
X62435939Y-10159674D01*
X62435945Y-10159662D01*
X62529029Y-9922489D01*
X62529029Y-9922487D01*
X62585724Y-9674086D01*
X62585726Y-9674076D01*
X62604767Y-9420002D01*
X62604767Y-9419997D01*
X62585726Y-9165923D01*
X62585724Y-9165913D01*
X62529029Y-8917512D01*
X62529029Y-8917510D01*
X62435943Y-8680333D01*
X62435941Y-8680329D01*
X62403305Y-8623801D01*
X61662038Y-9365067D01*
X61633029Y-9200546D01*
X61562660Y-9037413D01*
X61456567Y-8894906D01*
X61320470Y-8780706D01*
X61161705Y-8700972D01*
X60988831Y-8660000D01*
X60952890Y-8660000D01*
X61696281Y-7916609D01*
X61696282Y-7916609D01*
X61522823Y-7833078D01*
X61279350Y-7757976D01*
X61279340Y-7757974D01*
X61027400Y-7720000D01*
X60772599Y-7720000D01*
X60520659Y-7757974D01*
X60520649Y-7757976D01*
X60277176Y-7833077D01*
X60103718Y-7916610D01*
X60848010Y-8660902D01*
X60723539Y-8675451D01*
X60556591Y-8736216D01*
X60408156Y-8833843D01*
X60286236Y-8963070D01*
X60197405Y-9116930D01*
X60146451Y-9287129D01*
X60141694Y-9368802D01*
X59396694Y-8623802D01*
X59364059Y-8680326D01*
X59364055Y-8680335D01*
X59270970Y-8917510D01*
X59270970Y-8917512D01*
X59214275Y-9165913D01*
X59214273Y-9165923D01*
X59195233Y-9419997D01*
X59195233Y-9420002D01*
X39732603Y-9420002D01*
X39704239Y-9362177D01*
X39577225Y-9103240D01*
X39526248Y-9021456D01*
X39373326Y-8776114D01*
X39373323Y-8776111D01*
X39373320Y-8776105D01*
X39137366Y-8471278D01*
X38927026Y-8250000D01*
X42444435Y-8250000D01*
X42464632Y-8429257D01*
X42464633Y-8429261D01*
X42524211Y-8599522D01*
X42524211Y-8599523D01*
X42620181Y-8752258D01*
X42620184Y-8752262D01*
X42747738Y-8879816D01*
X42747740Y-8879817D01*
X42747741Y-8879818D01*
X42880235Y-8963070D01*
X42900478Y-8975789D01*
X42968657Y-8999646D01*
X43070738Y-9035366D01*
X43070742Y-9035367D01*
X43070745Y-9035368D01*
X43070746Y-9035368D01*
X43070750Y-9035369D01*
X43205029Y-9050499D01*
X43205045Y-9050499D01*
X43205046Y-9050500D01*
X44034076Y-9050500D01*
X44092267Y-9069407D01*
X44096881Y-9072972D01*
X44163547Y-9127682D01*
X44163547Y-9127683D01*
X44163548Y-9127683D01*
X44163550Y-9127685D01*
X44346046Y-9225232D01*
X44483997Y-9267078D01*
X44544065Y-9285300D01*
X44544070Y-9285301D01*
X44749997Y-9305583D01*
X44750000Y-9305583D01*
X44750003Y-9305583D01*
X44955929Y-9285301D01*
X44955934Y-9285300D01*
X45153954Y-9225232D01*
X45336450Y-9127685D01*
X45403119Y-9072972D01*
X45460096Y-9050672D01*
X45465924Y-9050500D01*
X46294953Y-9050500D01*
X46294954Y-9050500D01*
X46294955Y-9050499D01*
X46294970Y-9050499D01*
X46429249Y-9035369D01*
X46429251Y-9035368D01*
X46429255Y-9035368D01*
X46599522Y-8975789D01*
X46752262Y-8879816D01*
X46879816Y-8752262D01*
X46975789Y-8599522D01*
X47035368Y-8429255D01*
X47055565Y-8250000D01*
X47035368Y-8070745D01*
X46975789Y-7900478D01*
X46879816Y-7747738D01*
X46752262Y-7620184D01*
X46752259Y-7620182D01*
X46752258Y-7620181D01*
X46599523Y-7524211D01*
X46429261Y-7464633D01*
X46429249Y-7464630D01*
X46294970Y-7449500D01*
X46294954Y-7449500D01*
X45465924Y-7449500D01*
X45407733Y-7430593D01*
X45403119Y-7427028D01*
X45369457Y-7399403D01*
X45336452Y-7372316D01*
X45153954Y-7274768D01*
X44955934Y-7214699D01*
X44955929Y-7214698D01*
X44750003Y-7194417D01*
X44749997Y-7194417D01*
X44544070Y-7214698D01*
X44544065Y-7214699D01*
X44346045Y-7274768D01*
X44163547Y-7372316D01*
X44163547Y-7372317D01*
X44096881Y-7427028D01*
X44039904Y-7449328D01*
X44034076Y-7449500D01*
X43205029Y-7449500D01*
X43070750Y-7464630D01*
X43070738Y-7464633D01*
X42900477Y-7524211D01*
X42900476Y-7524211D01*
X42747741Y-7620181D01*
X42620181Y-7747741D01*
X42524211Y-7900476D01*
X42524211Y-7900477D01*
X42464633Y-8070738D01*
X42464632Y-8070742D01*
X42444435Y-8250000D01*
X38927026Y-8250000D01*
X38871784Y-8191885D01*
X38812061Y-8140615D01*
X38647035Y-7998945D01*
X38579298Y-7940795D01*
X38579294Y-7940792D01*
X38262924Y-7720591D01*
X38262906Y-7720580D01*
X37925873Y-7533511D01*
X37925874Y-7533511D01*
X37571632Y-7381494D01*
X37571622Y-7381490D01*
X37203828Y-7266094D01*
X36826241Y-7188498D01*
X36442742Y-7149500D01*
X36442740Y-7149500D01*
X36057260Y-7149500D01*
X36057258Y-7149500D01*
X35673758Y-7188498D01*
X35296171Y-7266094D01*
X34928377Y-7381490D01*
X34928367Y-7381494D01*
X34574125Y-7533511D01*
X34237093Y-7720580D01*
X34237075Y-7720591D01*
X33920706Y-7940792D01*
X33920705Y-7940792D01*
X33628218Y-8191882D01*
X33362634Y-8471278D01*
X33126673Y-8776114D01*
X32922776Y-9103237D01*
X32753012Y-9449325D01*
X32753011Y-9449326D01*
X32619137Y-9810796D01*
X32619137Y-9810797D01*
X32619134Y-9810806D01*
X32619134Y-9810808D01*
X32532046Y-10147159D01*
X32522511Y-10183986D01*
X32522510Y-10183993D01*
X32464140Y-10565015D01*
X32464139Y-10565017D01*
X32444616Y-10950000D01*
X32464139Y-11334982D01*
X32464140Y-11334984D01*
X32510647Y-11638571D01*
X32522512Y-11716018D01*
X32613350Y-12066854D01*
X32619137Y-12089202D01*
X32619137Y-12089203D01*
X32721764Y-12366303D01*
X32724244Y-12427438D01*
X32690316Y-12478355D01*
X32632939Y-12499605D01*
X32574030Y-12483071D01*
X32565054Y-12476325D01*
X32189295Y-12158943D01*
X32189285Y-12158935D01*
X31519171Y-11642227D01*
X30826699Y-11155837D01*
X30113278Y-10700757D01*
X29845446Y-10546235D01*
X29380310Y-10277881D01*
X28629245Y-9888043D01*
X27861574Y-9532019D01*
X27861562Y-9532014D01*
X27078825Y-9210516D01*
X26780499Y-9103237D01*
X26282530Y-8924165D01*
X26282523Y-8924163D01*
X26282518Y-8924161D01*
X25474302Y-8673546D01*
X25474296Y-8673544D01*
X25474285Y-8673541D01*
X24655687Y-8459136D01*
X24655688Y-8459136D01*
X24655672Y-8459132D01*
X23828366Y-8281378D01*
X22993933Y-8140615D01*
X22500121Y-8079769D01*
X22154078Y-8037131D01*
X22154070Y-8037130D01*
X22154067Y-8037130D01*
X21310447Y-7971128D01*
X20464717Y-7942738D01*
X20464713Y-7942738D01*
X20464712Y-7942738D01*
X20416749Y-7943263D01*
X19618560Y-7952015D01*
X18914635Y-7991113D01*
X18773644Y-7998945D01*
X18773641Y-7998945D01*
X18773628Y-7998946D01*
X17931675Y-8083429D01*
X17094266Y-8205308D01*
X16263147Y-8364329D01*
X15439893Y-8560192D01*
X14626228Y-8792486D01*
X14626216Y-8792489D01*
X14626209Y-8792492D01*
X14115943Y-8963070D01*
X13823648Y-9060782D01*
X13033843Y-9364517D01*
X12258309Y-9703115D01*
X11498627Y-10075889D01*
X10756303Y-10482096D01*
X10032774Y-10920949D01*
X9329515Y-11391556D01*
X8647878Y-11893012D01*
X7989241Y-12424300D01*
X7938860Y-12468783D01*
X7882725Y-12493123D01*
X7823003Y-12479819D01*
X7782508Y-12433952D01*
X7776706Y-12373042D01*
X7780496Y-12360197D01*
X7880866Y-12089192D01*
X7977488Y-11716018D01*
X8035860Y-11334984D01*
X8055384Y-10950000D01*
X8035860Y-10565016D01*
X7977488Y-10183982D01*
X7880866Y-9810808D01*
X7880862Y-9810796D01*
X7746988Y-9449326D01*
X7746987Y-9449325D01*
X7704239Y-9362177D01*
X7577225Y-9103240D01*
X7526248Y-9021456D01*
X7373326Y-8776114D01*
X7373323Y-8776111D01*
X7373320Y-8776105D01*
X7137366Y-8471278D01*
X6871784Y-8191885D01*
X6812061Y-8140615D01*
X6647035Y-7998945D01*
X6579298Y-7940795D01*
X6579294Y-7940792D01*
X6262924Y-7720591D01*
X6262906Y-7720580D01*
X5925873Y-7533511D01*
X5925874Y-7533511D01*
X5571632Y-7381494D01*
X5571622Y-7381490D01*
X5203828Y-7266094D01*
X4826241Y-7188498D01*
X4442742Y-7149500D01*
X4442740Y-7149500D01*
X4057260Y-7149500D01*
X4057258Y-7149500D01*
X3673758Y-7188498D01*
X3296171Y-7266094D01*
X2928377Y-7381490D01*
X2928367Y-7381494D01*
X2574125Y-7533511D01*
X2237093Y-7720580D01*
X2237075Y-7720591D01*
X1920706Y-7940792D01*
X1920705Y-7940792D01*
X1628218Y-8191882D01*
X1362634Y-8471278D01*
X1126673Y-8776114D01*
X922776Y-9103237D01*
X753012Y-9449325D01*
X753011Y-9449326D01*
X619137Y-9810796D01*
X619137Y-9810797D01*
X619134Y-9810806D01*
X619134Y-9810808D01*
X532046Y-10147159D01*
X522511Y-10183986D01*
X522510Y-10183993D01*
X464140Y-10565015D01*
X464139Y-10565017D01*
X444616Y-10950000D01*
X464139Y-11334982D01*
X464140Y-11334984D01*
X510647Y-11638571D01*
X522512Y-11716018D01*
X613350Y-12066854D01*
X619137Y-12089202D01*
X619137Y-12089203D01*
X753011Y-12450673D01*
X753012Y-12450674D01*
X922776Y-12796762D01*
X1126673Y-13123885D01*
X1126676Y-13123890D01*
X1126680Y-13123895D01*
X1362634Y-13428722D01*
X1628216Y-13708115D01*
X1920702Y-13959205D01*
X1920705Y-13959207D01*
X2237075Y-14179408D01*
X2237083Y-14179413D01*
X2237089Y-14179417D01*
X2498094Y-14324287D01*
X2574126Y-14366488D01*
X2574125Y-14366488D01*
X2574127Y-14366489D01*
X2574131Y-14366491D01*
X2928370Y-14518507D01*
X3296171Y-14633905D01*
X3673759Y-14711502D01*
X3986461Y-14743300D01*
X4057258Y-14750500D01*
X4057260Y-14750500D01*
X4442742Y-14750500D01*
X4507555Y-14743908D01*
X4826241Y-14711502D01*
X5203829Y-14633905D01*
X5571630Y-14518507D01*
X5660593Y-14480329D01*
X5721521Y-14474757D01*
X5774091Y-14506063D01*
X5798220Y-14562289D01*
X5784692Y-14621960D01*
X5774456Y-14636133D01*
X5609995Y-14825958D01*
X5445155Y-15034277D01*
X5271494Y-15253743D01*
X5084895Y-15489559D01*
X4841620Y-15826837D01*
X4838731Y-15830646D01*
X4814709Y-15860769D01*
X4804812Y-15904135D01*
X4804638Y-15904883D01*
X4795702Y-15942675D01*
X4798227Y-15958264D01*
X4799500Y-15974088D01*
X4799500Y-37925907D01*
X4798228Y-37941728D01*
X4795702Y-37957325D01*
X4804616Y-37995020D01*
X4804791Y-37995772D01*
X4814709Y-38039231D01*
X4838751Y-38069377D01*
X4841640Y-38073185D01*
X5087250Y-38413669D01*
X5087262Y-38413685D01*
X5617580Y-39083299D01*
X5617592Y-39083313D01*
X5774131Y-39263687D01*
X5797992Y-39320028D01*
X5784180Y-39379634D01*
X5737970Y-39419738D01*
X5677013Y-39425020D01*
X5660321Y-39419553D01*
X5571632Y-39381494D01*
X5571622Y-39381490D01*
X5203828Y-39266094D01*
X4826241Y-39188498D01*
X4442742Y-39149500D01*
X4442740Y-39149500D01*
X4057260Y-39149500D01*
X4057258Y-39149500D01*
X3673758Y-39188498D01*
X3296171Y-39266094D01*
X2928377Y-39381490D01*
X2928367Y-39381494D01*
X2574125Y-39533511D01*
X2237093Y-39720580D01*
X2237075Y-39720591D01*
X1920706Y-39940792D01*
X1920705Y-39940792D01*
X1628218Y-40191882D01*
X1362634Y-40471278D01*
X1126673Y-40776114D01*
X922776Y-41103237D01*
X753012Y-41449325D01*
X753011Y-41449326D01*
X619137Y-41810796D01*
X619137Y-41810797D01*
X619134Y-41810806D01*
X619134Y-41810808D01*
X547333Y-42088119D01*
X522511Y-42183986D01*
X522510Y-42183993D01*
X464140Y-42565015D01*
X464139Y-42565017D01*
X444616Y-42950000D01*
X200500Y-42950000D01*
X200500Y-3500006D01*
X844655Y-3500006D01*
X864013Y-3820055D01*
X864016Y-3820080D01*
X921813Y-4135462D01*
X921813Y-4135464D01*
X989478Y-4352608D01*
X1017209Y-4441598D01*
X1148809Y-4734000D01*
X1148813Y-4734008D01*
X1148817Y-4734014D01*
X1314685Y-5008394D01*
X1314689Y-5008400D01*
X1314694Y-5008408D01*
X1512446Y-5260819D01*
X1739181Y-5487554D01*
X1991592Y-5685306D01*
X2266000Y-5851191D01*
X2558402Y-5982791D01*
X2864534Y-6078186D01*
X2968172Y-6097178D01*
X3179919Y-6135983D01*
X3179930Y-6135984D01*
X3179934Y-6135985D01*
X3179937Y-6135985D01*
X3179944Y-6135986D01*
X3499994Y-6155345D01*
X3500000Y-6155345D01*
X3500006Y-6155345D01*
X3820055Y-6135986D01*
X3820060Y-6135985D01*
X3820066Y-6135985D01*
X3820071Y-6135984D01*
X3820080Y-6135983D01*
X3957438Y-6110810D01*
X4135466Y-6078186D01*
X4441598Y-5982791D01*
X4734000Y-5851191D01*
X5008408Y-5685306D01*
X5034505Y-5664860D01*
X7219500Y-5664860D01*
X7219501Y-5664863D01*
X7222414Y-5689990D01*
X7247756Y-5747385D01*
X7267794Y-5792765D01*
X7347235Y-5872206D01*
X7450009Y-5917585D01*
X7475135Y-5920500D01*
X9264864Y-5920499D01*
X9289991Y-5917585D01*
X9392765Y-5872206D01*
X9472206Y-5792765D01*
X9517585Y-5689991D01*
X9520500Y-5664865D01*
X9520499Y-4770000D01*
X9754571Y-4770000D01*
X9774244Y-4982311D01*
X9781671Y-5008413D01*
X9832595Y-5187389D01*
X9927634Y-5378255D01*
X10056128Y-5548407D01*
X10056135Y-5548413D01*
X10213692Y-5692047D01*
X10213699Y-5692053D01*
X10317389Y-5756255D01*
X10394981Y-5804298D01*
X10593802Y-5881321D01*
X10803390Y-5920500D01*
X11016610Y-5920500D01*
X11226198Y-5881321D01*
X11425019Y-5804298D01*
X11606302Y-5692052D01*
X11763872Y-5548407D01*
X11892366Y-5378255D01*
X11987405Y-5187389D01*
X12045756Y-4982310D01*
X12065429Y-4770000D01*
X12294571Y-4770000D01*
X12314244Y-4982311D01*
X12321671Y-5008413D01*
X12372595Y-5187389D01*
X12467634Y-5378255D01*
X12596128Y-5548407D01*
X12596135Y-5548413D01*
X12753692Y-5692047D01*
X12753699Y-5692053D01*
X12857389Y-5756255D01*
X12934981Y-5804298D01*
X13133802Y-5881321D01*
X13343390Y-5920500D01*
X13556610Y-5920500D01*
X13766198Y-5881321D01*
X13965019Y-5804298D01*
X14146302Y-5692052D01*
X14303872Y-5548407D01*
X14432366Y-5378255D01*
X14527405Y-5187389D01*
X14585756Y-4982310D01*
X14605429Y-4770000D01*
X14834571Y-4770000D01*
X14854244Y-4982311D01*
X14861671Y-5008413D01*
X14912595Y-5187389D01*
X15007634Y-5378255D01*
X15136128Y-5548407D01*
X15136135Y-5548413D01*
X15293692Y-5692047D01*
X15293699Y-5692053D01*
X15397389Y-5756255D01*
X15474981Y-5804298D01*
X15673802Y-5881321D01*
X15883390Y-5920500D01*
X16096610Y-5920500D01*
X16306198Y-5881321D01*
X16505019Y-5804298D01*
X16686302Y-5692052D01*
X16843872Y-5548407D01*
X16972366Y-5378255D01*
X17026270Y-5270000D01*
X17606672Y-5270000D01*
X17652730Y-5356169D01*
X17783940Y-5516050D01*
X17783949Y-5516059D01*
X17943824Y-5647265D01*
X17943830Y-5647269D01*
X18030000Y-5693326D01*
X19030000Y-5693326D01*
X19116169Y-5647269D01*
X19116175Y-5647265D01*
X19276050Y-5516059D01*
X19276059Y-5516050D01*
X19407269Y-5356169D01*
X19453328Y-5270000D01*
X19030001Y-5270000D01*
X19030000Y-5270001D01*
X19030000Y-5693326D01*
X18030000Y-5693326D01*
X18030000Y-5270001D01*
X18029999Y-5270000D01*
X17606672Y-5270000D01*
X17026270Y-5270000D01*
X17067405Y-5187389D01*
X17125756Y-4982310D01*
X17138768Y-4841889D01*
X18030000Y-4841889D01*
X18070507Y-4979844D01*
X18148239Y-5100798D01*
X18256900Y-5194952D01*
X18387685Y-5254680D01*
X18494237Y-5270000D01*
X18565763Y-5270000D01*
X18672315Y-5254680D01*
X18803100Y-5194952D01*
X18911761Y-5100798D01*
X18989493Y-4979844D01*
X19030000Y-4841889D01*
X19030000Y-4770000D01*
X19914571Y-4770000D01*
X19934244Y-4982311D01*
X19941671Y-5008413D01*
X19992595Y-5187389D01*
X20087634Y-5378255D01*
X20216128Y-5548407D01*
X20216135Y-5548413D01*
X20373692Y-5692047D01*
X20373699Y-5692053D01*
X20477389Y-5756255D01*
X20554981Y-5804298D01*
X20753802Y-5881321D01*
X20963390Y-5920500D01*
X21176610Y-5920500D01*
X21386198Y-5881321D01*
X21585019Y-5804298D01*
X21766302Y-5692052D01*
X21923872Y-5548407D01*
X22052366Y-5378255D01*
X22147405Y-5187389D01*
X22205756Y-4982310D01*
X22225429Y-4770000D01*
X22454571Y-4770000D01*
X22474244Y-4982311D01*
X22481671Y-5008413D01*
X22532595Y-5187389D01*
X22627634Y-5378255D01*
X22756128Y-5548407D01*
X22756135Y-5548413D01*
X22913692Y-5692047D01*
X22913699Y-5692053D01*
X23017389Y-5756255D01*
X23094981Y-5804298D01*
X23293802Y-5881321D01*
X23503390Y-5920500D01*
X23716610Y-5920500D01*
X23926198Y-5881321D01*
X24125019Y-5804298D01*
X24306302Y-5692052D01*
X24463872Y-5548407D01*
X24592366Y-5378255D01*
X24687405Y-5187389D01*
X24745756Y-4982310D01*
X24765429Y-4770000D01*
X24994571Y-4770000D01*
X25014244Y-4982311D01*
X25021671Y-5008413D01*
X25072595Y-5187389D01*
X25167634Y-5378255D01*
X25296128Y-5548407D01*
X25296135Y-5548413D01*
X25453692Y-5692047D01*
X25453699Y-5692053D01*
X25557389Y-5756255D01*
X25634981Y-5804298D01*
X25833802Y-5881321D01*
X26043390Y-5920500D01*
X26256610Y-5920500D01*
X26466198Y-5881321D01*
X26665019Y-5804298D01*
X26846302Y-5692052D01*
X27003872Y-5548407D01*
X27132366Y-5378255D01*
X27227405Y-5187389D01*
X27285756Y-4982310D01*
X27305429Y-4770000D01*
X27534571Y-4770000D01*
X27554244Y-4982311D01*
X27561671Y-5008413D01*
X27612595Y-5187389D01*
X27707634Y-5378255D01*
X27836128Y-5548407D01*
X27836135Y-5548413D01*
X27993692Y-5692047D01*
X27993699Y-5692053D01*
X28097389Y-5756255D01*
X28174981Y-5804298D01*
X28373802Y-5881321D01*
X28583390Y-5920500D01*
X28796610Y-5920500D01*
X29006198Y-5881321D01*
X29205019Y-5804298D01*
X29386302Y-5692052D01*
X29543872Y-5548407D01*
X29672366Y-5378255D01*
X29767405Y-5187389D01*
X29825756Y-4982310D01*
X29845429Y-4770000D01*
X30074571Y-4770000D01*
X30094244Y-4982311D01*
X30101671Y-5008413D01*
X30152595Y-5187389D01*
X30247634Y-5378255D01*
X30376128Y-5548407D01*
X30376135Y-5548413D01*
X30533692Y-5692047D01*
X30533699Y-5692053D01*
X30637389Y-5756255D01*
X30714981Y-5804298D01*
X30913802Y-5881321D01*
X31123390Y-5920500D01*
X31336610Y-5920500D01*
X31546198Y-5881321D01*
X31745019Y-5804298D01*
X31926302Y-5692052D01*
X32083872Y-5548407D01*
X32212366Y-5378255D01*
X32307405Y-5187389D01*
X32365756Y-4982310D01*
X32385429Y-4770000D01*
X32614571Y-4770000D01*
X32634244Y-4982311D01*
X32641671Y-5008413D01*
X32692595Y-5187389D01*
X32787634Y-5378255D01*
X32916128Y-5548407D01*
X32916135Y-5548413D01*
X33073692Y-5692047D01*
X33073699Y-5692053D01*
X33177389Y-5756255D01*
X33254981Y-5804298D01*
X33453802Y-5881321D01*
X33663390Y-5920500D01*
X33876610Y-5920500D01*
X34086198Y-5881321D01*
X34285019Y-5804298D01*
X34466302Y-5692052D01*
X34623872Y-5548407D01*
X34752366Y-5378255D01*
X34847405Y-5187389D01*
X34905756Y-4982310D01*
X34925429Y-4770000D01*
X35154571Y-4770000D01*
X35174244Y-4982311D01*
X35181671Y-5008413D01*
X35232595Y-5187389D01*
X35327634Y-5378255D01*
X35456128Y-5548407D01*
X35456135Y-5548413D01*
X35613692Y-5692047D01*
X35613699Y-5692053D01*
X35717389Y-5756255D01*
X35794981Y-5804298D01*
X35993802Y-5881321D01*
X36203390Y-5920500D01*
X36416610Y-5920500D01*
X36626198Y-5881321D01*
X36825019Y-5804298D01*
X37006302Y-5692052D01*
X37163872Y-5548407D01*
X37292366Y-5378255D01*
X37346270Y-5270000D01*
X37926672Y-5270000D01*
X37972730Y-5356169D01*
X38103940Y-5516050D01*
X38103949Y-5516059D01*
X38263824Y-5647265D01*
X38263830Y-5647269D01*
X38350000Y-5693326D01*
X39350000Y-5693326D01*
X39436169Y-5647269D01*
X39436175Y-5647265D01*
X39596050Y-5516059D01*
X39596059Y-5516050D01*
X39727269Y-5356169D01*
X39773328Y-5270000D01*
X39350001Y-5270000D01*
X39350000Y-5270001D01*
X39350000Y-5693326D01*
X38350000Y-5693326D01*
X38350000Y-5270001D01*
X38349999Y-5270000D01*
X37926672Y-5270000D01*
X37346270Y-5270000D01*
X37387405Y-5187389D01*
X37445756Y-4982310D01*
X37458768Y-4841889D01*
X38350000Y-4841889D01*
X38390507Y-4979844D01*
X38468239Y-5100798D01*
X38576900Y-5194952D01*
X38707685Y-5254680D01*
X38814237Y-5270000D01*
X38885763Y-5270000D01*
X38992315Y-5254680D01*
X39123100Y-5194952D01*
X39231761Y-5100798D01*
X39309493Y-4979844D01*
X39350000Y-4841889D01*
X39350000Y-4770000D01*
X40234571Y-4770000D01*
X40254244Y-4982311D01*
X40261671Y-5008413D01*
X40312595Y-5187389D01*
X40407634Y-5378255D01*
X40536128Y-5548407D01*
X40536135Y-5548413D01*
X40693692Y-5692047D01*
X40693699Y-5692053D01*
X40797389Y-5756255D01*
X40874981Y-5804298D01*
X41073802Y-5881321D01*
X41283390Y-5920500D01*
X41496610Y-5920500D01*
X41706198Y-5881321D01*
X41905019Y-5804298D01*
X42086302Y-5692052D01*
X42243872Y-5548407D01*
X42372366Y-5378255D01*
X42467405Y-5187389D01*
X42525756Y-4982310D01*
X42545429Y-4770000D01*
X42774571Y-4770000D01*
X42794244Y-4982311D01*
X42801671Y-5008413D01*
X42852595Y-5187389D01*
X42947634Y-5378255D01*
X43076128Y-5548407D01*
X43076135Y-5548413D01*
X43233692Y-5692047D01*
X43233699Y-5692053D01*
X43337389Y-5756255D01*
X43414981Y-5804298D01*
X43613802Y-5881321D01*
X43823390Y-5920500D01*
X44036610Y-5920500D01*
X44246198Y-5881321D01*
X44445019Y-5804298D01*
X44626302Y-5692052D01*
X44783872Y-5548407D01*
X44912366Y-5378255D01*
X45007405Y-5187389D01*
X45065756Y-4982310D01*
X45085429Y-4770000D01*
X45314571Y-4770000D01*
X45334244Y-4982311D01*
X45341671Y-5008413D01*
X45392595Y-5187389D01*
X45487634Y-5378255D01*
X45616128Y-5548407D01*
X45616135Y-5548413D01*
X45773692Y-5692047D01*
X45773699Y-5692053D01*
X45877389Y-5756255D01*
X45954981Y-5804298D01*
X46153802Y-5881321D01*
X46363390Y-5920500D01*
X46576610Y-5920500D01*
X46786198Y-5881321D01*
X46985019Y-5804298D01*
X47166302Y-5692052D01*
X47323872Y-5548407D01*
X47452366Y-5378255D01*
X47547405Y-5187389D01*
X47605756Y-4982310D01*
X47625429Y-4770000D01*
X47854571Y-4770000D01*
X47874244Y-4982311D01*
X47881671Y-5008413D01*
X47932595Y-5187389D01*
X48027634Y-5378255D01*
X48156128Y-5548407D01*
X48156135Y-5548413D01*
X48313692Y-5692047D01*
X48313699Y-5692053D01*
X48417389Y-5756255D01*
X48494981Y-5804298D01*
X48693802Y-5881321D01*
X48903390Y-5920500D01*
X49116610Y-5920500D01*
X49326198Y-5881321D01*
X49525019Y-5804298D01*
X49706302Y-5692052D01*
X49863872Y-5548407D01*
X49992366Y-5378255D01*
X50087405Y-5187389D01*
X50145756Y-4982310D01*
X50165429Y-4770000D01*
X50394571Y-4770000D01*
X50414244Y-4982311D01*
X50421671Y-5008413D01*
X50472595Y-5187389D01*
X50567634Y-5378255D01*
X50696128Y-5548407D01*
X50696135Y-5548413D01*
X50853692Y-5692047D01*
X50853699Y-5692053D01*
X50957389Y-5756255D01*
X51034981Y-5804298D01*
X51233802Y-5881321D01*
X51443390Y-5920500D01*
X51656610Y-5920500D01*
X51866198Y-5881321D01*
X52065019Y-5804298D01*
X52246302Y-5692052D01*
X52403872Y-5548407D01*
X52532366Y-5378255D01*
X52627405Y-5187389D01*
X52685756Y-4982310D01*
X52705429Y-4770000D01*
X52934571Y-4770000D01*
X52954244Y-4982311D01*
X52961671Y-5008413D01*
X53012595Y-5187389D01*
X53107634Y-5378255D01*
X53236128Y-5548407D01*
X53236135Y-5548413D01*
X53393692Y-5692047D01*
X53393699Y-5692053D01*
X53497389Y-5756255D01*
X53574981Y-5804298D01*
X53773802Y-5881321D01*
X53983390Y-5920500D01*
X54196610Y-5920500D01*
X54406198Y-5881321D01*
X54605019Y-5804298D01*
X54786302Y-5692052D01*
X54943872Y-5548407D01*
X55072366Y-5378255D01*
X55126270Y-5270000D01*
X55706672Y-5270000D01*
X55752730Y-5356169D01*
X55883940Y-5516050D01*
X55883949Y-5516059D01*
X56043824Y-5647265D01*
X56043830Y-5647269D01*
X56130000Y-5693326D01*
X57130000Y-5693326D01*
X57216169Y-5647269D01*
X57216175Y-5647265D01*
X57376050Y-5516059D01*
X57376059Y-5516050D01*
X57507269Y-5356169D01*
X57553328Y-5270000D01*
X57130001Y-5270000D01*
X57130000Y-5270001D01*
X57130000Y-5693326D01*
X56130000Y-5693326D01*
X56130000Y-5270001D01*
X56129999Y-5270000D01*
X55706672Y-5270000D01*
X55126270Y-5270000D01*
X55167405Y-5187389D01*
X55225756Y-4982310D01*
X55238768Y-4841889D01*
X56130000Y-4841889D01*
X56170507Y-4979844D01*
X56248239Y-5100798D01*
X56356900Y-5194952D01*
X56487685Y-5254680D01*
X56594237Y-5270000D01*
X56665763Y-5270000D01*
X56772315Y-5254680D01*
X56903100Y-5194952D01*
X57011761Y-5100798D01*
X57089493Y-4979844D01*
X57130000Y-4841889D01*
X57130000Y-4698111D01*
X57089493Y-4560156D01*
X57011761Y-4439202D01*
X56903100Y-4345048D01*
X56772315Y-4285320D01*
X56665763Y-4270000D01*
X56594237Y-4270000D01*
X56487685Y-4285320D01*
X56356900Y-4345048D01*
X56248239Y-4439202D01*
X56170507Y-4560156D01*
X56130000Y-4698111D01*
X56130000Y-4841889D01*
X55238768Y-4841889D01*
X55245429Y-4770000D01*
X55225756Y-4557690D01*
X55167405Y-4352611D01*
X55126270Y-4269999D01*
X55706671Y-4269999D01*
X55706672Y-4270000D01*
X56129999Y-4270000D01*
X56130000Y-4269999D01*
X56130000Y-3846672D01*
X56129999Y-3846671D01*
X57130000Y-3846671D01*
X57130000Y-4269999D01*
X57130001Y-4270000D01*
X57553328Y-4270000D01*
X57553328Y-4269999D01*
X57507269Y-4183830D01*
X57376059Y-4023949D01*
X57376050Y-4023940D01*
X57216169Y-3892730D01*
X57130000Y-3846671D01*
X56129999Y-3846671D01*
X56043830Y-3892730D01*
X55883949Y-4023940D01*
X55883940Y-4023949D01*
X55752730Y-4183830D01*
X55706671Y-4269999D01*
X55126270Y-4269999D01*
X55072366Y-4161745D01*
X54943872Y-3991593D01*
X54889623Y-3942139D01*
X54786307Y-3847952D01*
X54786300Y-3847946D01*
X54605024Y-3735705D01*
X54605019Y-3735702D01*
X54406198Y-3658679D01*
X54406197Y-3658678D01*
X54406195Y-3658678D01*
X54196610Y-3619500D01*
X53983390Y-3619500D01*
X53773804Y-3658678D01*
X53574980Y-3735702D01*
X53574975Y-3735705D01*
X53393699Y-3847946D01*
X53393692Y-3847952D01*
X53236135Y-3991586D01*
X53236131Y-3991589D01*
X53236128Y-3991593D01*
X53236125Y-3991597D01*
X53107635Y-4161743D01*
X53107630Y-4161752D01*
X53012596Y-4352608D01*
X52954244Y-4557688D01*
X52934571Y-4770000D01*
X52705429Y-4770000D01*
X52685756Y-4557690D01*
X52627405Y-4352611D01*
X52532366Y-4161745D01*
X52403872Y-3991593D01*
X52349623Y-3942139D01*
X52246307Y-3847952D01*
X52246300Y-3847946D01*
X52065024Y-3735705D01*
X52065019Y-3735702D01*
X51866198Y-3658679D01*
X51866197Y-3658678D01*
X51866195Y-3658678D01*
X51656610Y-3619500D01*
X51443390Y-3619500D01*
X51233804Y-3658678D01*
X51034980Y-3735702D01*
X51034975Y-3735705D01*
X50853699Y-3847946D01*
X50853692Y-3847952D01*
X50696135Y-3991586D01*
X50696131Y-3991589D01*
X50696128Y-3991593D01*
X50696125Y-3991597D01*
X50567635Y-4161743D01*
X50567630Y-4161752D01*
X50472596Y-4352608D01*
X50414244Y-4557688D01*
X50394571Y-4770000D01*
X50165429Y-4770000D01*
X50145756Y-4557690D01*
X50087405Y-4352611D01*
X49992366Y-4161745D01*
X49863872Y-3991593D01*
X49809623Y-3942139D01*
X49706307Y-3847952D01*
X49706300Y-3847946D01*
X49525024Y-3735705D01*
X49525019Y-3735702D01*
X49326198Y-3658679D01*
X49326197Y-3658678D01*
X49326195Y-3658678D01*
X49116610Y-3619500D01*
X48903390Y-3619500D01*
X48693804Y-3658678D01*
X48494980Y-3735702D01*
X48494975Y-3735705D01*
X48313699Y-3847946D01*
X48313692Y-3847952D01*
X48156135Y-3991586D01*
X48156131Y-3991589D01*
X48156128Y-3991593D01*
X48156125Y-3991597D01*
X48027635Y-4161743D01*
X48027630Y-4161752D01*
X47932596Y-4352608D01*
X47874244Y-4557688D01*
X47854571Y-4770000D01*
X47625429Y-4770000D01*
X47605756Y-4557690D01*
X47547405Y-4352611D01*
X47452366Y-4161745D01*
X47323872Y-3991593D01*
X47269623Y-3942139D01*
X47166307Y-3847952D01*
X47166300Y-3847946D01*
X46985024Y-3735705D01*
X46985019Y-3735702D01*
X46786198Y-3658679D01*
X46786197Y-3658678D01*
X46786195Y-3658678D01*
X46576610Y-3619500D01*
X46363390Y-3619500D01*
X46153804Y-3658678D01*
X45954980Y-3735702D01*
X45954975Y-3735705D01*
X45773699Y-3847946D01*
X45773692Y-3847952D01*
X45616135Y-3991586D01*
X45616131Y-3991589D01*
X45616128Y-3991593D01*
X45616125Y-3991597D01*
X45487635Y-4161743D01*
X45487630Y-4161752D01*
X45392596Y-4352608D01*
X45334244Y-4557688D01*
X45314571Y-4770000D01*
X45085429Y-4770000D01*
X45065756Y-4557690D01*
X45007405Y-4352611D01*
X44912366Y-4161745D01*
X44783872Y-3991593D01*
X44729623Y-3942139D01*
X44626307Y-3847952D01*
X44626300Y-3847946D01*
X44445024Y-3735705D01*
X44445019Y-3735702D01*
X44246198Y-3658679D01*
X44246197Y-3658678D01*
X44246195Y-3658678D01*
X44036610Y-3619500D01*
X43823390Y-3619500D01*
X43613804Y-3658678D01*
X43414980Y-3735702D01*
X43414975Y-3735705D01*
X43233699Y-3847946D01*
X43233692Y-3847952D01*
X43076135Y-3991586D01*
X43076131Y-3991589D01*
X43076128Y-3991593D01*
X43076125Y-3991597D01*
X42947635Y-4161743D01*
X42947630Y-4161752D01*
X42852596Y-4352608D01*
X42794244Y-4557688D01*
X42774571Y-4770000D01*
X42545429Y-4770000D01*
X42525756Y-4557690D01*
X42467405Y-4352611D01*
X42372366Y-4161745D01*
X42243872Y-3991593D01*
X42189623Y-3942139D01*
X42086307Y-3847952D01*
X42086300Y-3847946D01*
X41905024Y-3735705D01*
X41905019Y-3735702D01*
X41706198Y-3658679D01*
X41706197Y-3658678D01*
X41706195Y-3658678D01*
X41496610Y-3619500D01*
X41283390Y-3619500D01*
X41073804Y-3658678D01*
X40874980Y-3735702D01*
X40874975Y-3735705D01*
X40693699Y-3847946D01*
X40693692Y-3847952D01*
X40536135Y-3991586D01*
X40536131Y-3991589D01*
X40536128Y-3991593D01*
X40536125Y-3991597D01*
X40407635Y-4161743D01*
X40407630Y-4161752D01*
X40312596Y-4352608D01*
X40254244Y-4557688D01*
X40234571Y-4770000D01*
X39350000Y-4770000D01*
X39350000Y-4698111D01*
X39309493Y-4560156D01*
X39231761Y-4439202D01*
X39123100Y-4345048D01*
X38992315Y-4285320D01*
X38885763Y-4270000D01*
X38814237Y-4270000D01*
X38707685Y-4285320D01*
X38576900Y-4345048D01*
X38468239Y-4439202D01*
X38390507Y-4560156D01*
X38350000Y-4698111D01*
X38350000Y-4841889D01*
X37458768Y-4841889D01*
X37465429Y-4770000D01*
X37445756Y-4557690D01*
X37387405Y-4352611D01*
X37346270Y-4269999D01*
X37926671Y-4269999D01*
X37926672Y-4270000D01*
X38349999Y-4270000D01*
X38350000Y-4269999D01*
X38350000Y-3846672D01*
X38349999Y-3846671D01*
X39350000Y-3846671D01*
X39350000Y-4269999D01*
X39350001Y-4270000D01*
X39773328Y-4270000D01*
X39773328Y-4269999D01*
X39727269Y-4183830D01*
X39596059Y-4023949D01*
X39596050Y-4023940D01*
X39436169Y-3892730D01*
X39350000Y-3846671D01*
X38349999Y-3846671D01*
X38263830Y-3892730D01*
X38103949Y-4023940D01*
X38103940Y-4023949D01*
X37972730Y-4183830D01*
X37926671Y-4269999D01*
X37346270Y-4269999D01*
X37292366Y-4161745D01*
X37163872Y-3991593D01*
X37109623Y-3942139D01*
X37006307Y-3847952D01*
X37006300Y-3847946D01*
X36825024Y-3735705D01*
X36825019Y-3735702D01*
X36626198Y-3658679D01*
X36626197Y-3658678D01*
X36626195Y-3658678D01*
X36416610Y-3619500D01*
X36203390Y-3619500D01*
X35993804Y-3658678D01*
X35794980Y-3735702D01*
X35794975Y-3735705D01*
X35613699Y-3847946D01*
X35613692Y-3847952D01*
X35456135Y-3991586D01*
X35456131Y-3991589D01*
X35456128Y-3991593D01*
X35456125Y-3991597D01*
X35327635Y-4161743D01*
X35327630Y-4161752D01*
X35232596Y-4352608D01*
X35174244Y-4557688D01*
X35154571Y-4770000D01*
X34925429Y-4770000D01*
X34905756Y-4557690D01*
X34847405Y-4352611D01*
X34752366Y-4161745D01*
X34623872Y-3991593D01*
X34569623Y-3942139D01*
X34466307Y-3847952D01*
X34466300Y-3847946D01*
X34285024Y-3735705D01*
X34285019Y-3735702D01*
X34086198Y-3658679D01*
X34086197Y-3658678D01*
X34086195Y-3658678D01*
X33876610Y-3619500D01*
X33663390Y-3619500D01*
X33453804Y-3658678D01*
X33254980Y-3735702D01*
X33254975Y-3735705D01*
X33073699Y-3847946D01*
X33073692Y-3847952D01*
X32916135Y-3991586D01*
X32916131Y-3991589D01*
X32916128Y-3991593D01*
X32916125Y-3991597D01*
X32787635Y-4161743D01*
X32787630Y-4161752D01*
X32692596Y-4352608D01*
X32634244Y-4557688D01*
X32614571Y-4770000D01*
X32385429Y-4770000D01*
X32365756Y-4557690D01*
X32307405Y-4352611D01*
X32212366Y-4161745D01*
X32083872Y-3991593D01*
X32029623Y-3942139D01*
X31926307Y-3847952D01*
X31926300Y-3847946D01*
X31745024Y-3735705D01*
X31745019Y-3735702D01*
X31546198Y-3658679D01*
X31546197Y-3658678D01*
X31546195Y-3658678D01*
X31336610Y-3619500D01*
X31123390Y-3619500D01*
X30913804Y-3658678D01*
X30714980Y-3735702D01*
X30714975Y-3735705D01*
X30533699Y-3847946D01*
X30533692Y-3847952D01*
X30376135Y-3991586D01*
X30376131Y-3991589D01*
X30376128Y-3991593D01*
X30376125Y-3991597D01*
X30247635Y-4161743D01*
X30247630Y-4161752D01*
X30152596Y-4352608D01*
X30094244Y-4557688D01*
X30074571Y-4770000D01*
X29845429Y-4770000D01*
X29825756Y-4557690D01*
X29767405Y-4352611D01*
X29672366Y-4161745D01*
X29543872Y-3991593D01*
X29489623Y-3942139D01*
X29386307Y-3847952D01*
X29386300Y-3847946D01*
X29205024Y-3735705D01*
X29205019Y-3735702D01*
X29006198Y-3658679D01*
X29006197Y-3658678D01*
X29006195Y-3658678D01*
X28796610Y-3619500D01*
X28583390Y-3619500D01*
X28373804Y-3658678D01*
X28174980Y-3735702D01*
X28174975Y-3735705D01*
X27993699Y-3847946D01*
X27993692Y-3847952D01*
X27836135Y-3991586D01*
X27836131Y-3991589D01*
X27836128Y-3991593D01*
X27836125Y-3991597D01*
X27707635Y-4161743D01*
X27707630Y-4161752D01*
X27612596Y-4352608D01*
X27554244Y-4557688D01*
X27534571Y-4770000D01*
X27305429Y-4770000D01*
X27285756Y-4557690D01*
X27227405Y-4352611D01*
X27132366Y-4161745D01*
X27003872Y-3991593D01*
X26949623Y-3942139D01*
X26846307Y-3847952D01*
X26846300Y-3847946D01*
X26665024Y-3735705D01*
X26665019Y-3735702D01*
X26466198Y-3658679D01*
X26466197Y-3658678D01*
X26466195Y-3658678D01*
X26256610Y-3619500D01*
X26043390Y-3619500D01*
X25833804Y-3658678D01*
X25634980Y-3735702D01*
X25634975Y-3735705D01*
X25453699Y-3847946D01*
X25453692Y-3847952D01*
X25296135Y-3991586D01*
X25296131Y-3991589D01*
X25296128Y-3991593D01*
X25296125Y-3991597D01*
X25167635Y-4161743D01*
X25167630Y-4161752D01*
X25072596Y-4352608D01*
X25014244Y-4557688D01*
X24994571Y-4770000D01*
X24765429Y-4770000D01*
X24745756Y-4557690D01*
X24687405Y-4352611D01*
X24592366Y-4161745D01*
X24463872Y-3991593D01*
X24409623Y-3942139D01*
X24306307Y-3847952D01*
X24306300Y-3847946D01*
X24125024Y-3735705D01*
X24125019Y-3735702D01*
X23926198Y-3658679D01*
X23926197Y-3658678D01*
X23926195Y-3658678D01*
X23716610Y-3619500D01*
X23503390Y-3619500D01*
X23293804Y-3658678D01*
X23094980Y-3735702D01*
X23094975Y-3735705D01*
X22913699Y-3847946D01*
X22913692Y-3847952D01*
X22756135Y-3991586D01*
X22756131Y-3991589D01*
X22756128Y-3991593D01*
X22756125Y-3991597D01*
X22627635Y-4161743D01*
X22627630Y-4161752D01*
X22532596Y-4352608D01*
X22474244Y-4557688D01*
X22454571Y-4770000D01*
X22225429Y-4770000D01*
X22205756Y-4557690D01*
X22147405Y-4352611D01*
X22052366Y-4161745D01*
X21923872Y-3991593D01*
X21869623Y-3942139D01*
X21766307Y-3847952D01*
X21766300Y-3847946D01*
X21585024Y-3735705D01*
X21585019Y-3735702D01*
X21386198Y-3658679D01*
X21386197Y-3658678D01*
X21386195Y-3658678D01*
X21176610Y-3619500D01*
X20963390Y-3619500D01*
X20753804Y-3658678D01*
X20554980Y-3735702D01*
X20554975Y-3735705D01*
X20373699Y-3847946D01*
X20373692Y-3847952D01*
X20216135Y-3991586D01*
X20216131Y-3991589D01*
X20216128Y-3991593D01*
X20216125Y-3991597D01*
X20087635Y-4161743D01*
X20087630Y-4161752D01*
X19992596Y-4352608D01*
X19934244Y-4557688D01*
X19914571Y-4770000D01*
X19030000Y-4770000D01*
X19030000Y-4698111D01*
X18989493Y-4560156D01*
X18911761Y-4439202D01*
X18803100Y-4345048D01*
X18672315Y-4285320D01*
X18565763Y-4270000D01*
X18494237Y-4270000D01*
X18387685Y-4285320D01*
X18256900Y-4345048D01*
X18148239Y-4439202D01*
X18070507Y-4560156D01*
X18030000Y-4698111D01*
X18030000Y-4841889D01*
X17138768Y-4841889D01*
X17145429Y-4770000D01*
X17125756Y-4557690D01*
X17067405Y-4352611D01*
X17026270Y-4269999D01*
X17606671Y-4269999D01*
X17606672Y-4270000D01*
X18029999Y-4270000D01*
X18030000Y-4269999D01*
X18030000Y-3846672D01*
X18029999Y-3846671D01*
X19030000Y-3846671D01*
X19030000Y-4269999D01*
X19030001Y-4270000D01*
X19453328Y-4270000D01*
X19453328Y-4269999D01*
X19407269Y-4183830D01*
X19276059Y-4023949D01*
X19276050Y-4023940D01*
X19116169Y-3892730D01*
X19030000Y-3846671D01*
X18029999Y-3846671D01*
X17943830Y-3892730D01*
X17783949Y-4023940D01*
X17783940Y-4023949D01*
X17652730Y-4183830D01*
X17606671Y-4269999D01*
X17026270Y-4269999D01*
X16972366Y-4161745D01*
X16843872Y-3991593D01*
X16789623Y-3942139D01*
X16686307Y-3847952D01*
X16686300Y-3847946D01*
X16505024Y-3735705D01*
X16505019Y-3735702D01*
X16306198Y-3658679D01*
X16306197Y-3658678D01*
X16306195Y-3658678D01*
X16096610Y-3619500D01*
X15883390Y-3619500D01*
X15673804Y-3658678D01*
X15474980Y-3735702D01*
X15474975Y-3735705D01*
X15293699Y-3847946D01*
X15293692Y-3847952D01*
X15136135Y-3991586D01*
X15136131Y-3991589D01*
X15136128Y-3991593D01*
X15136125Y-3991597D01*
X15007635Y-4161743D01*
X15007630Y-4161752D01*
X14912596Y-4352608D01*
X14854244Y-4557688D01*
X14834571Y-4770000D01*
X14605429Y-4770000D01*
X14585756Y-4557690D01*
X14527405Y-4352611D01*
X14432366Y-4161745D01*
X14303872Y-3991593D01*
X14249623Y-3942139D01*
X14146307Y-3847952D01*
X14146300Y-3847946D01*
X13965024Y-3735705D01*
X13965019Y-3735702D01*
X13766198Y-3658679D01*
X13766197Y-3658678D01*
X13766195Y-3658678D01*
X13556610Y-3619500D01*
X13343390Y-3619500D01*
X13133804Y-3658678D01*
X12934980Y-3735702D01*
X12934975Y-3735705D01*
X12753699Y-3847946D01*
X12753692Y-3847952D01*
X12596135Y-3991586D01*
X12596131Y-3991589D01*
X12596128Y-3991593D01*
X12596125Y-3991597D01*
X12467635Y-4161743D01*
X12467630Y-4161752D01*
X12372596Y-4352608D01*
X12314244Y-4557688D01*
X12294571Y-4770000D01*
X12065429Y-4770000D01*
X12045756Y-4557690D01*
X11987405Y-4352611D01*
X11892366Y-4161745D01*
X11763872Y-3991593D01*
X11709623Y-3942139D01*
X11606307Y-3847952D01*
X11606300Y-3847946D01*
X11425024Y-3735705D01*
X11425019Y-3735702D01*
X11226198Y-3658679D01*
X11226197Y-3658678D01*
X11226195Y-3658678D01*
X11016610Y-3619500D01*
X10803390Y-3619500D01*
X10593804Y-3658678D01*
X10394980Y-3735702D01*
X10394975Y-3735705D01*
X10213699Y-3847946D01*
X10213692Y-3847952D01*
X10056135Y-3991586D01*
X10056131Y-3991589D01*
X10056128Y-3991593D01*
X10056125Y-3991597D01*
X9927635Y-4161743D01*
X9927630Y-4161752D01*
X9832596Y-4352608D01*
X9774244Y-4557688D01*
X9754571Y-4770000D01*
X9520499Y-4770000D01*
X9520499Y-3875136D01*
X9517585Y-3850009D01*
X9472206Y-3747235D01*
X9392765Y-3667794D01*
X9289991Y-3622415D01*
X9289990Y-3622414D01*
X9289988Y-3622414D01*
X9264868Y-3619500D01*
X7475139Y-3619500D01*
X7475136Y-3619501D01*
X7450009Y-3622414D01*
X7347235Y-3667794D01*
X7267794Y-3747235D01*
X7222414Y-3850011D01*
X7219500Y-3875130D01*
X7219500Y-5664860D01*
X5034505Y-5664860D01*
X5260819Y-5487554D01*
X5487554Y-5260819D01*
X5685306Y-5008408D01*
X5851191Y-4734000D01*
X5982791Y-4441598D01*
X6078186Y-4135466D01*
X6125893Y-3875136D01*
X6135983Y-3820080D01*
X6135986Y-3820055D01*
X6155345Y-3500006D01*
X58844655Y-3500006D01*
X58864013Y-3820055D01*
X58864016Y-3820080D01*
X58921813Y-4135462D01*
X58921813Y-4135464D01*
X58989478Y-4352608D01*
X59017209Y-4441598D01*
X59148809Y-4734000D01*
X59148813Y-4734008D01*
X59148817Y-4734014D01*
X59314685Y-5008394D01*
X59314689Y-5008400D01*
X59314694Y-5008408D01*
X59512446Y-5260819D01*
X59739181Y-5487554D01*
X59991592Y-5685306D01*
X60266000Y-5851191D01*
X60558402Y-5982791D01*
X60864534Y-6078186D01*
X60968172Y-6097178D01*
X61179919Y-6135983D01*
X61179930Y-6135984D01*
X61179934Y-6135985D01*
X61179937Y-6135985D01*
X61179944Y-6135986D01*
X61499994Y-6155345D01*
X61500000Y-6155345D01*
X61500006Y-6155345D01*
X61820055Y-6135986D01*
X61820060Y-6135985D01*
X61820066Y-6135985D01*
X61820071Y-6135984D01*
X61820080Y-6135983D01*
X61957438Y-6110810D01*
X62135466Y-6078186D01*
X62441598Y-5982791D01*
X62734000Y-5851191D01*
X63008408Y-5685306D01*
X63260819Y-5487554D01*
X63487554Y-5260819D01*
X63685306Y-5008408D01*
X63851191Y-4734000D01*
X63982791Y-4441598D01*
X64078186Y-4135466D01*
X64125893Y-3875136D01*
X64135983Y-3820080D01*
X64135986Y-3820055D01*
X64155345Y-3500006D01*
X64155345Y-3499993D01*
X64135986Y-3179944D01*
X64135983Y-3179919D01*
X64098622Y-2976050D01*
X64078186Y-2864534D01*
X63982791Y-2558402D01*
X63851191Y-2266000D01*
X63732853Y-2070245D01*
X63685314Y-1991605D01*
X63685312Y-1991603D01*
X63685306Y-1991592D01*
X63487554Y-1739181D01*
X63260819Y-1512446D01*
X63008408Y-1314694D01*
X63008400Y-1314689D01*
X63008394Y-1314685D01*
X62734014Y-1148817D01*
X62734008Y-1148813D01*
X62734000Y-1148809D01*
X62660735Y-1115835D01*
X62441599Y-1017209D01*
X62135463Y-921813D01*
X61820080Y-864016D01*
X61820055Y-864013D01*
X61500006Y-844655D01*
X61499994Y-844655D01*
X61179944Y-864013D01*
X61179919Y-864016D01*
X60864537Y-921813D01*
X60864535Y-921813D01*
X60558400Y-1017209D01*
X60266006Y-1148806D01*
X60265985Y-1148817D01*
X59991605Y-1314685D01*
X59991586Y-1314698D01*
X59739187Y-1512441D01*
X59739184Y-1512443D01*
X59512443Y-1739184D01*
X59512441Y-1739187D01*
X59314698Y-1991586D01*
X59314685Y-1991605D01*
X59148817Y-2265985D01*
X59148806Y-2266006D01*
X59017209Y-2558400D01*
X58921813Y-2864535D01*
X58921813Y-2864537D01*
X58864016Y-3179919D01*
X58864013Y-3179944D01*
X58844655Y-3499993D01*
X58844655Y-3500006D01*
X6155345Y-3500006D01*
X6155345Y-3499993D01*
X6135986Y-3179944D01*
X6135983Y-3179919D01*
X6098622Y-2976050D01*
X6078186Y-2864534D01*
X5982791Y-2558402D01*
X5851191Y-2266000D01*
X5829428Y-2230000D01*
X7214571Y-2230000D01*
X7234244Y-2442310D01*
X7292595Y-2647389D01*
X7387634Y-2838255D01*
X7516128Y-3008407D01*
X7516135Y-3008413D01*
X7673692Y-3152047D01*
X7673699Y-3152053D01*
X7718729Y-3179934D01*
X7854981Y-3264298D01*
X8053802Y-3341321D01*
X8263390Y-3380500D01*
X8476610Y-3380500D01*
X8686198Y-3341321D01*
X8885019Y-3264298D01*
X9066302Y-3152052D01*
X9223872Y-3008407D01*
X9352366Y-2838255D01*
X9447405Y-2647389D01*
X9505756Y-2442310D01*
X9525429Y-2230000D01*
X9754571Y-2230000D01*
X9774244Y-2442310D01*
X9832595Y-2647389D01*
X9927634Y-2838255D01*
X10056128Y-3008407D01*
X10056135Y-3008413D01*
X10213692Y-3152047D01*
X10213699Y-3152053D01*
X10258729Y-3179934D01*
X10394981Y-3264298D01*
X10593802Y-3341321D01*
X10803390Y-3380500D01*
X11016610Y-3380500D01*
X11226198Y-3341321D01*
X11425019Y-3264298D01*
X11606302Y-3152052D01*
X11763872Y-3008407D01*
X11892366Y-2838255D01*
X11946270Y-2730000D01*
X12526672Y-2730000D01*
X12572730Y-2816169D01*
X12703940Y-2976050D01*
X12703949Y-2976059D01*
X12863824Y-3107265D01*
X12863830Y-3107269D01*
X12950000Y-3153326D01*
X13950000Y-3153326D01*
X14036169Y-3107269D01*
X14036175Y-3107265D01*
X14196050Y-2976059D01*
X14196059Y-2976050D01*
X14327269Y-2816169D01*
X14373328Y-2730000D01*
X13950001Y-2730000D01*
X13950000Y-2730001D01*
X13950000Y-3153326D01*
X12950000Y-3153326D01*
X12950000Y-2730001D01*
X12949999Y-2730000D01*
X12526672Y-2730000D01*
X11946270Y-2730000D01*
X11987405Y-2647389D01*
X12045756Y-2442310D01*
X12058768Y-2301889D01*
X12950000Y-2301889D01*
X12990507Y-2439844D01*
X13068239Y-2560798D01*
X13176900Y-2654952D01*
X13307685Y-2714680D01*
X13414237Y-2730000D01*
X13485763Y-2730000D01*
X13592315Y-2714680D01*
X13723100Y-2654952D01*
X13831761Y-2560798D01*
X13909493Y-2439844D01*
X13950000Y-2301889D01*
X13950000Y-2230000D01*
X14834571Y-2230000D01*
X14854244Y-2442310D01*
X14912595Y-2647389D01*
X15007634Y-2838255D01*
X15136128Y-3008407D01*
X15136135Y-3008413D01*
X15293692Y-3152047D01*
X15293699Y-3152053D01*
X15338729Y-3179934D01*
X15474981Y-3264298D01*
X15673802Y-3341321D01*
X15883390Y-3380500D01*
X16096610Y-3380500D01*
X16306198Y-3341321D01*
X16505019Y-3264298D01*
X16686302Y-3152052D01*
X16843872Y-3008407D01*
X16972366Y-2838255D01*
X17067405Y-2647389D01*
X17125756Y-2442310D01*
X17145429Y-2230000D01*
X17374571Y-2230000D01*
X17394244Y-2442310D01*
X17452595Y-2647389D01*
X17547634Y-2838255D01*
X17676128Y-3008407D01*
X17676135Y-3008413D01*
X17833692Y-3152047D01*
X17833699Y-3152053D01*
X17878729Y-3179934D01*
X18014981Y-3264298D01*
X18213802Y-3341321D01*
X18423390Y-3380500D01*
X18636610Y-3380500D01*
X18846198Y-3341321D01*
X19045019Y-3264298D01*
X19226302Y-3152052D01*
X19383872Y-3008407D01*
X19512366Y-2838255D01*
X19607405Y-2647389D01*
X19665756Y-2442310D01*
X19685429Y-2230000D01*
X19914571Y-2230000D01*
X19934244Y-2442310D01*
X19992595Y-2647389D01*
X20087634Y-2838255D01*
X20216128Y-3008407D01*
X20216135Y-3008413D01*
X20373692Y-3152047D01*
X20373699Y-3152053D01*
X20418729Y-3179934D01*
X20554981Y-3264298D01*
X20753802Y-3341321D01*
X20963390Y-3380500D01*
X21176610Y-3380500D01*
X21386198Y-3341321D01*
X21585019Y-3264298D01*
X21766302Y-3152052D01*
X21923872Y-3008407D01*
X22052366Y-2838255D01*
X22106270Y-2730000D01*
X22686672Y-2730000D01*
X22732730Y-2816169D01*
X22863940Y-2976050D01*
X22863949Y-2976059D01*
X23023824Y-3107265D01*
X23023830Y-3107269D01*
X23110000Y-3153326D01*
X24110000Y-3153326D01*
X24196169Y-3107269D01*
X24196175Y-3107265D01*
X24356050Y-2976059D01*
X24356059Y-2976050D01*
X24487269Y-2816169D01*
X24533328Y-2730000D01*
X24110001Y-2730000D01*
X24110000Y-2730001D01*
X24110000Y-3153326D01*
X23110000Y-3153326D01*
X23110000Y-2730001D01*
X23109999Y-2730000D01*
X22686672Y-2730000D01*
X22106270Y-2730000D01*
X22147405Y-2647389D01*
X22205756Y-2442310D01*
X22218768Y-2301889D01*
X23110000Y-2301889D01*
X23150507Y-2439844D01*
X23228239Y-2560798D01*
X23336900Y-2654952D01*
X23467685Y-2714680D01*
X23574237Y-2730000D01*
X23645763Y-2730000D01*
X23752315Y-2714680D01*
X23883100Y-2654952D01*
X23991761Y-2560798D01*
X24069493Y-2439844D01*
X24110000Y-2301889D01*
X24110000Y-2230000D01*
X24994571Y-2230000D01*
X25014244Y-2442310D01*
X25072595Y-2647389D01*
X25167634Y-2838255D01*
X25296128Y-3008407D01*
X25296135Y-3008413D01*
X25453692Y-3152047D01*
X25453699Y-3152053D01*
X25498729Y-3179934D01*
X25634981Y-3264298D01*
X25833802Y-3341321D01*
X26043390Y-3380500D01*
X26256610Y-3380500D01*
X26466198Y-3341321D01*
X26665019Y-3264298D01*
X26846302Y-3152052D01*
X27003872Y-3008407D01*
X27132366Y-2838255D01*
X27227405Y-2647389D01*
X27285756Y-2442310D01*
X27305429Y-2230000D01*
X27534571Y-2230000D01*
X27554244Y-2442310D01*
X27612595Y-2647389D01*
X27707634Y-2838255D01*
X27836128Y-3008407D01*
X27836135Y-3008413D01*
X27993692Y-3152047D01*
X27993699Y-3152053D01*
X28038729Y-3179934D01*
X28174981Y-3264298D01*
X28373802Y-3341321D01*
X28583390Y-3380500D01*
X28796610Y-3380500D01*
X29006198Y-3341321D01*
X29205019Y-3264298D01*
X29386302Y-3152052D01*
X29543872Y-3008407D01*
X29672366Y-2838255D01*
X29726270Y-2730000D01*
X30306672Y-2730000D01*
X30352730Y-2816169D01*
X30483940Y-2976050D01*
X30483949Y-2976059D01*
X30643824Y-3107265D01*
X30643830Y-3107269D01*
X30730000Y-3153326D01*
X31730000Y-3153326D01*
X31816169Y-3107269D01*
X31816175Y-3107265D01*
X31976050Y-2976059D01*
X31976059Y-2976050D01*
X32107269Y-2816169D01*
X32153328Y-2730000D01*
X31730001Y-2730000D01*
X31730000Y-2730001D01*
X31730000Y-3153326D01*
X30730000Y-3153326D01*
X30730000Y-2730001D01*
X30729999Y-2730000D01*
X30306672Y-2730000D01*
X29726270Y-2730000D01*
X29767405Y-2647389D01*
X29825756Y-2442310D01*
X29838768Y-2301889D01*
X30730000Y-2301889D01*
X30770507Y-2439844D01*
X30848239Y-2560798D01*
X30956900Y-2654952D01*
X31087685Y-2714680D01*
X31194237Y-2730000D01*
X31265763Y-2730000D01*
X31372315Y-2714680D01*
X31503100Y-2654952D01*
X31611761Y-2560798D01*
X31689493Y-2439844D01*
X31730000Y-2301889D01*
X31730000Y-2230000D01*
X32614571Y-2230000D01*
X32634244Y-2442310D01*
X32692595Y-2647389D01*
X32787634Y-2838255D01*
X32916128Y-3008407D01*
X32916135Y-3008413D01*
X33073692Y-3152047D01*
X33073699Y-3152053D01*
X33118729Y-3179934D01*
X33254981Y-3264298D01*
X33453802Y-3341321D01*
X33663390Y-3380500D01*
X33876610Y-3380500D01*
X34086198Y-3341321D01*
X34285019Y-3264298D01*
X34466302Y-3152052D01*
X34623872Y-3008407D01*
X34752366Y-2838255D01*
X34847405Y-2647389D01*
X34905756Y-2442310D01*
X34925429Y-2230000D01*
X35154571Y-2230000D01*
X35174244Y-2442310D01*
X35232595Y-2647389D01*
X35327634Y-2838255D01*
X35456128Y-3008407D01*
X35456135Y-3008413D01*
X35613692Y-3152047D01*
X35613699Y-3152053D01*
X35658729Y-3179934D01*
X35794981Y-3264298D01*
X35993802Y-3341321D01*
X36203390Y-3380500D01*
X36416610Y-3380500D01*
X36626198Y-3341321D01*
X36825019Y-3264298D01*
X37006302Y-3152052D01*
X37163872Y-3008407D01*
X37292366Y-2838255D01*
X37387405Y-2647389D01*
X37445756Y-2442310D01*
X37465429Y-2230000D01*
X37694571Y-2230000D01*
X37714244Y-2442310D01*
X37772595Y-2647389D01*
X37867634Y-2838255D01*
X37996128Y-3008407D01*
X37996135Y-3008413D01*
X38153692Y-3152047D01*
X38153699Y-3152053D01*
X38198729Y-3179934D01*
X38334981Y-3264298D01*
X38533802Y-3341321D01*
X38743390Y-3380500D01*
X38956610Y-3380500D01*
X39166198Y-3341321D01*
X39365019Y-3264298D01*
X39546302Y-3152052D01*
X39703872Y-3008407D01*
X39832366Y-2838255D01*
X39927405Y-2647389D01*
X39985756Y-2442310D01*
X40005429Y-2230000D01*
X40234571Y-2230000D01*
X40254244Y-2442310D01*
X40312595Y-2647389D01*
X40407634Y-2838255D01*
X40536128Y-3008407D01*
X40536135Y-3008413D01*
X40693692Y-3152047D01*
X40693699Y-3152053D01*
X40738729Y-3179934D01*
X40874981Y-3264298D01*
X41073802Y-3341321D01*
X41283390Y-3380500D01*
X41496610Y-3380500D01*
X41706198Y-3341321D01*
X41905019Y-3264298D01*
X42086302Y-3152052D01*
X42243872Y-3008407D01*
X42372366Y-2838255D01*
X42426270Y-2730000D01*
X43006672Y-2730000D01*
X43052730Y-2816169D01*
X43183940Y-2976050D01*
X43183949Y-2976059D01*
X43343824Y-3107265D01*
X43343830Y-3107269D01*
X43430000Y-3153326D01*
X44430000Y-3153326D01*
X44516169Y-3107269D01*
X44516175Y-3107265D01*
X44676050Y-2976059D01*
X44676059Y-2976050D01*
X44807269Y-2816169D01*
X44853328Y-2730000D01*
X44430001Y-2730000D01*
X44430000Y-2730001D01*
X44430000Y-3153326D01*
X43430000Y-3153326D01*
X43430000Y-2730001D01*
X43429999Y-2730000D01*
X43006672Y-2730000D01*
X42426270Y-2730000D01*
X42467405Y-2647389D01*
X42525756Y-2442310D01*
X42538768Y-2301889D01*
X43430000Y-2301889D01*
X43470507Y-2439844D01*
X43548239Y-2560798D01*
X43656900Y-2654952D01*
X43787685Y-2714680D01*
X43894237Y-2730000D01*
X43965763Y-2730000D01*
X44072315Y-2714680D01*
X44203100Y-2654952D01*
X44311761Y-2560798D01*
X44389493Y-2439844D01*
X44430000Y-2301889D01*
X44430000Y-2230000D01*
X45314571Y-2230000D01*
X45334244Y-2442310D01*
X45392595Y-2647389D01*
X45487634Y-2838255D01*
X45616128Y-3008407D01*
X45616135Y-3008413D01*
X45773692Y-3152047D01*
X45773699Y-3152053D01*
X45818729Y-3179934D01*
X45954981Y-3264298D01*
X46153802Y-3341321D01*
X46363390Y-3380500D01*
X46576610Y-3380500D01*
X46786198Y-3341321D01*
X46985019Y-3264298D01*
X47166302Y-3152052D01*
X47323872Y-3008407D01*
X47452366Y-2838255D01*
X47506270Y-2730000D01*
X48086672Y-2730000D01*
X48132730Y-2816169D01*
X48263940Y-2976050D01*
X48263949Y-2976059D01*
X48423824Y-3107265D01*
X48423830Y-3107269D01*
X48510000Y-3153326D01*
X49510000Y-3153326D01*
X49596169Y-3107269D01*
X49596175Y-3107265D01*
X49756050Y-2976059D01*
X49756059Y-2976050D01*
X49887269Y-2816169D01*
X49933328Y-2730000D01*
X49510001Y-2730000D01*
X49510000Y-2730001D01*
X49510000Y-3153326D01*
X48510000Y-3153326D01*
X48510000Y-2730001D01*
X48509999Y-2730000D01*
X48086672Y-2730000D01*
X47506270Y-2730000D01*
X47547405Y-2647389D01*
X47605756Y-2442310D01*
X47618768Y-2301889D01*
X48510000Y-2301889D01*
X48550507Y-2439844D01*
X48628239Y-2560798D01*
X48736900Y-2654952D01*
X48867685Y-2714680D01*
X48974237Y-2730000D01*
X49045763Y-2730000D01*
X49152315Y-2714680D01*
X49283100Y-2654952D01*
X49391761Y-2560798D01*
X49469493Y-2439844D01*
X49510000Y-2301889D01*
X49510000Y-2230000D01*
X50394571Y-2230000D01*
X50414244Y-2442310D01*
X50472595Y-2647389D01*
X50567634Y-2838255D01*
X50696128Y-3008407D01*
X50696135Y-3008413D01*
X50853692Y-3152047D01*
X50853699Y-3152053D01*
X50898729Y-3179934D01*
X51034981Y-3264298D01*
X51233802Y-3341321D01*
X51443390Y-3380500D01*
X51656610Y-3380500D01*
X51866198Y-3341321D01*
X52065019Y-3264298D01*
X52246302Y-3152052D01*
X52403872Y-3008407D01*
X52532366Y-2838255D01*
X52627405Y-2647389D01*
X52685756Y-2442310D01*
X52705429Y-2230000D01*
X52934571Y-2230000D01*
X52954244Y-2442310D01*
X53012595Y-2647389D01*
X53107634Y-2838255D01*
X53236128Y-3008407D01*
X53236135Y-3008413D01*
X53393692Y-3152047D01*
X53393699Y-3152053D01*
X53438729Y-3179934D01*
X53574981Y-3264298D01*
X53773802Y-3341321D01*
X53983390Y-3380500D01*
X54196610Y-3380500D01*
X54406198Y-3341321D01*
X54605019Y-3264298D01*
X54786302Y-3152052D01*
X54943872Y-3008407D01*
X55072366Y-2838255D01*
X55167405Y-2647389D01*
X55225756Y-2442310D01*
X55245429Y-2230000D01*
X55474571Y-2230000D01*
X55494244Y-2442310D01*
X55552595Y-2647389D01*
X55647634Y-2838255D01*
X55776128Y-3008407D01*
X55776135Y-3008413D01*
X55933692Y-3152047D01*
X55933699Y-3152053D01*
X55978729Y-3179934D01*
X56114981Y-3264298D01*
X56313802Y-3341321D01*
X56523390Y-3380500D01*
X56736610Y-3380500D01*
X56946198Y-3341321D01*
X57145019Y-3264298D01*
X57326302Y-3152052D01*
X57483872Y-3008407D01*
X57612366Y-2838255D01*
X57707405Y-2647389D01*
X57765756Y-2442310D01*
X57785429Y-2230000D01*
X57765756Y-2017690D01*
X57707405Y-1812611D01*
X57612366Y-1621745D01*
X57483872Y-1451593D01*
X57429623Y-1402139D01*
X57326307Y-1307952D01*
X57326300Y-1307946D01*
X57145024Y-1195705D01*
X57145019Y-1195702D01*
X56946195Y-1118678D01*
X56736610Y-1079500D01*
X56523390Y-1079500D01*
X56313804Y-1118678D01*
X56114980Y-1195702D01*
X56114975Y-1195705D01*
X55933699Y-1307946D01*
X55933692Y-1307952D01*
X55776135Y-1451586D01*
X55776131Y-1451589D01*
X55776128Y-1451593D01*
X55776125Y-1451597D01*
X55647635Y-1621743D01*
X55647630Y-1621752D01*
X55552596Y-1812608D01*
X55494244Y-2017688D01*
X55494244Y-2017690D01*
X55474571Y-2230000D01*
X55245429Y-2230000D01*
X55225756Y-2017690D01*
X55167405Y-1812611D01*
X55072366Y-1621745D01*
X54943872Y-1451593D01*
X54889623Y-1402139D01*
X54786307Y-1307952D01*
X54786300Y-1307946D01*
X54605024Y-1195705D01*
X54605019Y-1195702D01*
X54406195Y-1118678D01*
X54196610Y-1079500D01*
X53983390Y-1079500D01*
X53773804Y-1118678D01*
X53574980Y-1195702D01*
X53574975Y-1195705D01*
X53393699Y-1307946D01*
X53393692Y-1307952D01*
X53236135Y-1451586D01*
X53236131Y-1451589D01*
X53236128Y-1451593D01*
X53236125Y-1451597D01*
X53107635Y-1621743D01*
X53107630Y-1621752D01*
X53012596Y-1812608D01*
X52954244Y-2017688D01*
X52954244Y-2017690D01*
X52934571Y-2230000D01*
X52705429Y-2230000D01*
X52685756Y-2017690D01*
X52627405Y-1812611D01*
X52532366Y-1621745D01*
X52403872Y-1451593D01*
X52349623Y-1402139D01*
X52246307Y-1307952D01*
X52246300Y-1307946D01*
X52065024Y-1195705D01*
X52065019Y-1195702D01*
X51866195Y-1118678D01*
X51656610Y-1079500D01*
X51443390Y-1079500D01*
X51233804Y-1118678D01*
X51034980Y-1195702D01*
X51034975Y-1195705D01*
X50853699Y-1307946D01*
X50853692Y-1307952D01*
X50696135Y-1451586D01*
X50696131Y-1451589D01*
X50696128Y-1451593D01*
X50696125Y-1451597D01*
X50567635Y-1621743D01*
X50567630Y-1621752D01*
X50472596Y-1812608D01*
X50414244Y-2017688D01*
X50414244Y-2017690D01*
X50394571Y-2230000D01*
X49510000Y-2230000D01*
X49510000Y-2158111D01*
X49469493Y-2020156D01*
X49391761Y-1899202D01*
X49283100Y-1805048D01*
X49152315Y-1745320D01*
X49045763Y-1730000D01*
X48974237Y-1730000D01*
X48867685Y-1745320D01*
X48736900Y-1805048D01*
X48628239Y-1899202D01*
X48550507Y-2020156D01*
X48510000Y-2158111D01*
X48510000Y-2301889D01*
X47618768Y-2301889D01*
X47625429Y-2230000D01*
X47605756Y-2017690D01*
X47547405Y-1812611D01*
X47506270Y-1729999D01*
X48086671Y-1729999D01*
X48086672Y-1730000D01*
X48509999Y-1730000D01*
X48510000Y-1729999D01*
X48510000Y-1306672D01*
X48509999Y-1306671D01*
X49510000Y-1306671D01*
X49510000Y-1729999D01*
X49510001Y-1730000D01*
X49933328Y-1730000D01*
X49933328Y-1729999D01*
X49887269Y-1643830D01*
X49756059Y-1483949D01*
X49756050Y-1483940D01*
X49596169Y-1352730D01*
X49510000Y-1306671D01*
X48509999Y-1306671D01*
X48423830Y-1352730D01*
X48263949Y-1483940D01*
X48263940Y-1483949D01*
X48132730Y-1643830D01*
X48086671Y-1729999D01*
X47506270Y-1729999D01*
X47452366Y-1621745D01*
X47323872Y-1451593D01*
X47269623Y-1402139D01*
X47166307Y-1307952D01*
X47166300Y-1307946D01*
X46985024Y-1195705D01*
X46985019Y-1195702D01*
X46786195Y-1118678D01*
X46576610Y-1079500D01*
X46363390Y-1079500D01*
X46153804Y-1118678D01*
X45954980Y-1195702D01*
X45954975Y-1195705D01*
X45773699Y-1307946D01*
X45773692Y-1307952D01*
X45616135Y-1451586D01*
X45616131Y-1451589D01*
X45616128Y-1451593D01*
X45616125Y-1451597D01*
X45487635Y-1621743D01*
X45487630Y-1621752D01*
X45392596Y-1812608D01*
X45334244Y-2017688D01*
X45334244Y-2017690D01*
X45314571Y-2230000D01*
X44430000Y-2230000D01*
X44430000Y-2158111D01*
X44389493Y-2020156D01*
X44311761Y-1899202D01*
X44203100Y-1805048D01*
X44072315Y-1745320D01*
X43965763Y-1730000D01*
X43894237Y-1730000D01*
X43787685Y-1745320D01*
X43656900Y-1805048D01*
X43548239Y-1899202D01*
X43470507Y-2020156D01*
X43430000Y-2158111D01*
X43430000Y-2301889D01*
X42538768Y-2301889D01*
X42545429Y-2230000D01*
X42525756Y-2017690D01*
X42467405Y-1812611D01*
X42426270Y-1729999D01*
X43006671Y-1729999D01*
X43006672Y-1730000D01*
X43429999Y-1730000D01*
X43430000Y-1729999D01*
X43430000Y-1306672D01*
X43429999Y-1306671D01*
X44430000Y-1306671D01*
X44430000Y-1729999D01*
X44430001Y-1730000D01*
X44853328Y-1730000D01*
X44853328Y-1729999D01*
X44807269Y-1643830D01*
X44676059Y-1483949D01*
X44676050Y-1483940D01*
X44516169Y-1352730D01*
X44430000Y-1306671D01*
X43429999Y-1306671D01*
X43343830Y-1352730D01*
X43183949Y-1483940D01*
X43183940Y-1483949D01*
X43052730Y-1643830D01*
X43006671Y-1729999D01*
X42426270Y-1729999D01*
X42372366Y-1621745D01*
X42243872Y-1451593D01*
X42189623Y-1402139D01*
X42086307Y-1307952D01*
X42086300Y-1307946D01*
X41905024Y-1195705D01*
X41905019Y-1195702D01*
X41706195Y-1118678D01*
X41496610Y-1079500D01*
X41283390Y-1079500D01*
X41073804Y-1118678D01*
X40874980Y-1195702D01*
X40874975Y-1195705D01*
X40693699Y-1307946D01*
X40693692Y-1307952D01*
X40536135Y-1451586D01*
X40536131Y-1451589D01*
X40536128Y-1451593D01*
X40536125Y-1451597D01*
X40407635Y-1621743D01*
X40407630Y-1621752D01*
X40312596Y-1812608D01*
X40254244Y-2017688D01*
X40254244Y-2017690D01*
X40234571Y-2230000D01*
X40005429Y-2230000D01*
X39985756Y-2017690D01*
X39927405Y-1812611D01*
X39832366Y-1621745D01*
X39703872Y-1451593D01*
X39649623Y-1402139D01*
X39546307Y-1307952D01*
X39546300Y-1307946D01*
X39365024Y-1195705D01*
X39365019Y-1195702D01*
X39166195Y-1118678D01*
X38956610Y-1079500D01*
X38743390Y-1079500D01*
X38533804Y-1118678D01*
X38334980Y-1195702D01*
X38334975Y-1195705D01*
X38153699Y-1307946D01*
X38153692Y-1307952D01*
X37996135Y-1451586D01*
X37996131Y-1451589D01*
X37996128Y-1451593D01*
X37996125Y-1451597D01*
X37867635Y-1621743D01*
X37867630Y-1621752D01*
X37772596Y-1812608D01*
X37714244Y-2017688D01*
X37714244Y-2017690D01*
X37694571Y-2230000D01*
X37465429Y-2230000D01*
X37445756Y-2017690D01*
X37387405Y-1812611D01*
X37292366Y-1621745D01*
X37163872Y-1451593D01*
X37109623Y-1402139D01*
X37006307Y-1307952D01*
X37006300Y-1307946D01*
X36825024Y-1195705D01*
X36825019Y-1195702D01*
X36626195Y-1118678D01*
X36416610Y-1079500D01*
X36203390Y-1079500D01*
X35993804Y-1118678D01*
X35794980Y-1195702D01*
X35794975Y-1195705D01*
X35613699Y-1307946D01*
X35613692Y-1307952D01*
X35456135Y-1451586D01*
X35456131Y-1451589D01*
X35456128Y-1451593D01*
X35456125Y-1451597D01*
X35327635Y-1621743D01*
X35327630Y-1621752D01*
X35232596Y-1812608D01*
X35174244Y-2017688D01*
X35174244Y-2017690D01*
X35154571Y-2230000D01*
X34925429Y-2230000D01*
X34905756Y-2017690D01*
X34847405Y-1812611D01*
X34752366Y-1621745D01*
X34623872Y-1451593D01*
X34569623Y-1402139D01*
X34466307Y-1307952D01*
X34466300Y-1307946D01*
X34285024Y-1195705D01*
X34285019Y-1195702D01*
X34086195Y-1118678D01*
X33876610Y-1079500D01*
X33663390Y-1079500D01*
X33453804Y-1118678D01*
X33254980Y-1195702D01*
X33254975Y-1195705D01*
X33073699Y-1307946D01*
X33073692Y-1307952D01*
X32916135Y-1451586D01*
X32916131Y-1451589D01*
X32916128Y-1451593D01*
X32916125Y-1451597D01*
X32787635Y-1621743D01*
X32787630Y-1621752D01*
X32692596Y-1812608D01*
X32634244Y-2017688D01*
X32634244Y-2017690D01*
X32614571Y-2230000D01*
X31730000Y-2230000D01*
X31730000Y-2158111D01*
X31689493Y-2020156D01*
X31611761Y-1899202D01*
X31503100Y-1805048D01*
X31372315Y-1745320D01*
X31265763Y-1730000D01*
X31194237Y-1730000D01*
X31087685Y-1745320D01*
X30956900Y-1805048D01*
X30848239Y-1899202D01*
X30770507Y-2020156D01*
X30730000Y-2158111D01*
X30730000Y-2301889D01*
X29838768Y-2301889D01*
X29845429Y-2230000D01*
X29825756Y-2017690D01*
X29767405Y-1812611D01*
X29726270Y-1729999D01*
X30306671Y-1729999D01*
X30306672Y-1730000D01*
X30729999Y-1730000D01*
X30730000Y-1729999D01*
X30730000Y-1306672D01*
X30729999Y-1306671D01*
X31730000Y-1306671D01*
X31730000Y-1729999D01*
X31730001Y-1730000D01*
X32153328Y-1730000D01*
X32153328Y-1729999D01*
X32107269Y-1643830D01*
X31976059Y-1483949D01*
X31976050Y-1483940D01*
X31816169Y-1352730D01*
X31730000Y-1306671D01*
X30729999Y-1306671D01*
X30643830Y-1352730D01*
X30483949Y-1483940D01*
X30483940Y-1483949D01*
X30352730Y-1643830D01*
X30306671Y-1729999D01*
X29726270Y-1729999D01*
X29672366Y-1621745D01*
X29543872Y-1451593D01*
X29489623Y-1402139D01*
X29386307Y-1307952D01*
X29386300Y-1307946D01*
X29205024Y-1195705D01*
X29205019Y-1195702D01*
X29006195Y-1118678D01*
X28796610Y-1079500D01*
X28583390Y-1079500D01*
X28373804Y-1118678D01*
X28174980Y-1195702D01*
X28174975Y-1195705D01*
X27993699Y-1307946D01*
X27993692Y-1307952D01*
X27836135Y-1451586D01*
X27836131Y-1451589D01*
X27836128Y-1451593D01*
X27836125Y-1451597D01*
X27707635Y-1621743D01*
X27707630Y-1621752D01*
X27612596Y-1812608D01*
X27554244Y-2017688D01*
X27554244Y-2017690D01*
X27534571Y-2230000D01*
X27305429Y-2230000D01*
X27285756Y-2017690D01*
X27227405Y-1812611D01*
X27132366Y-1621745D01*
X27003872Y-1451593D01*
X26949623Y-1402139D01*
X26846307Y-1307952D01*
X26846300Y-1307946D01*
X26665024Y-1195705D01*
X26665019Y-1195702D01*
X26466195Y-1118678D01*
X26256610Y-1079500D01*
X26043390Y-1079500D01*
X25833804Y-1118678D01*
X25634980Y-1195702D01*
X25634975Y-1195705D01*
X25453699Y-1307946D01*
X25453692Y-1307952D01*
X25296135Y-1451586D01*
X25296131Y-1451589D01*
X25296128Y-1451593D01*
X25296125Y-1451597D01*
X25167635Y-1621743D01*
X25167630Y-1621752D01*
X25072596Y-1812608D01*
X25014244Y-2017688D01*
X25014244Y-2017690D01*
X24994571Y-2230000D01*
X24110000Y-2230000D01*
X24110000Y-2158111D01*
X24069493Y-2020156D01*
X23991761Y-1899202D01*
X23883100Y-1805048D01*
X23752315Y-1745320D01*
X23645763Y-1730000D01*
X23574237Y-1730000D01*
X23467685Y-1745320D01*
X23336900Y-1805048D01*
X23228239Y-1899202D01*
X23150507Y-2020156D01*
X23110000Y-2158111D01*
X23110000Y-2301889D01*
X22218768Y-2301889D01*
X22225429Y-2230000D01*
X22205756Y-2017690D01*
X22147405Y-1812611D01*
X22106270Y-1729999D01*
X22686671Y-1729999D01*
X22686672Y-1730000D01*
X23109999Y-1730000D01*
X23110000Y-1729999D01*
X23110000Y-1306672D01*
X23109999Y-1306671D01*
X24110000Y-1306671D01*
X24110000Y-1729999D01*
X24110001Y-1730000D01*
X24533328Y-1730000D01*
X24533328Y-1729999D01*
X24487269Y-1643830D01*
X24356059Y-1483949D01*
X24356050Y-1483940D01*
X24196169Y-1352730D01*
X24110000Y-1306671D01*
X23109999Y-1306671D01*
X23023830Y-1352730D01*
X22863949Y-1483940D01*
X22863940Y-1483949D01*
X22732730Y-1643830D01*
X22686671Y-1729999D01*
X22106270Y-1729999D01*
X22052366Y-1621745D01*
X21923872Y-1451593D01*
X21869623Y-1402139D01*
X21766307Y-1307952D01*
X21766300Y-1307946D01*
X21585024Y-1195705D01*
X21585019Y-1195702D01*
X21386195Y-1118678D01*
X21176610Y-1079500D01*
X20963390Y-1079500D01*
X20753804Y-1118678D01*
X20554980Y-1195702D01*
X20554975Y-1195705D01*
X20373699Y-1307946D01*
X20373692Y-1307952D01*
X20216135Y-1451586D01*
X20216131Y-1451589D01*
X20216128Y-1451593D01*
X20216125Y-1451597D01*
X20087635Y-1621743D01*
X20087630Y-1621752D01*
X19992596Y-1812608D01*
X19934244Y-2017688D01*
X19934244Y-2017690D01*
X19914571Y-2230000D01*
X19685429Y-2230000D01*
X19665756Y-2017690D01*
X19607405Y-1812611D01*
X19512366Y-1621745D01*
X19383872Y-1451593D01*
X19329623Y-1402139D01*
X19226307Y-1307952D01*
X19226300Y-1307946D01*
X19045024Y-1195705D01*
X19045019Y-1195702D01*
X18846195Y-1118678D01*
X18636610Y-1079500D01*
X18423390Y-1079500D01*
X18213804Y-1118678D01*
X18014980Y-1195702D01*
X18014975Y-1195705D01*
X17833699Y-1307946D01*
X17833692Y-1307952D01*
X17676135Y-1451586D01*
X17676131Y-1451589D01*
X17676128Y-1451593D01*
X17676125Y-1451597D01*
X17547635Y-1621743D01*
X17547630Y-1621752D01*
X17452596Y-1812608D01*
X17394244Y-2017688D01*
X17394244Y-2017690D01*
X17374571Y-2230000D01*
X17145429Y-2230000D01*
X17125756Y-2017690D01*
X17067405Y-1812611D01*
X16972366Y-1621745D01*
X16843872Y-1451593D01*
X16789623Y-1402139D01*
X16686307Y-1307952D01*
X16686300Y-1307946D01*
X16505024Y-1195705D01*
X16505019Y-1195702D01*
X16306195Y-1118678D01*
X16096610Y-1079500D01*
X15883390Y-1079500D01*
X15673804Y-1118678D01*
X15474980Y-1195702D01*
X15474975Y-1195705D01*
X15293699Y-1307946D01*
X15293692Y-1307952D01*
X15136135Y-1451586D01*
X15136131Y-1451589D01*
X15136128Y-1451593D01*
X15136125Y-1451597D01*
X15007635Y-1621743D01*
X15007630Y-1621752D01*
X14912596Y-1812608D01*
X14854244Y-2017688D01*
X14854244Y-2017690D01*
X14834571Y-2230000D01*
X13950000Y-2230000D01*
X13950000Y-2158111D01*
X13909493Y-2020156D01*
X13831761Y-1899202D01*
X13723100Y-1805048D01*
X13592315Y-1745320D01*
X13485763Y-1730000D01*
X13414237Y-1730000D01*
X13307685Y-1745320D01*
X13176900Y-1805048D01*
X13068239Y-1899202D01*
X12990507Y-2020156D01*
X12950000Y-2158111D01*
X12950000Y-2301889D01*
X12058768Y-2301889D01*
X12065429Y-2230000D01*
X12045756Y-2017690D01*
X11987405Y-1812611D01*
X11946270Y-1729999D01*
X12526671Y-1729999D01*
X12526672Y-1730000D01*
X12949999Y-1730000D01*
X12950000Y-1729999D01*
X12950000Y-1306672D01*
X12949999Y-1306671D01*
X13950000Y-1306671D01*
X13950000Y-1729999D01*
X13950001Y-1730000D01*
X14373328Y-1730000D01*
X14373328Y-1729999D01*
X14327269Y-1643830D01*
X14196059Y-1483949D01*
X14196050Y-1483940D01*
X14036169Y-1352730D01*
X13950000Y-1306671D01*
X12949999Y-1306671D01*
X12863830Y-1352730D01*
X12703949Y-1483940D01*
X12703940Y-1483949D01*
X12572730Y-1643830D01*
X12526671Y-1729999D01*
X11946270Y-1729999D01*
X11892366Y-1621745D01*
X11763872Y-1451593D01*
X11709623Y-1402139D01*
X11606307Y-1307952D01*
X11606300Y-1307946D01*
X11425024Y-1195705D01*
X11425019Y-1195702D01*
X11226195Y-1118678D01*
X11016610Y-1079500D01*
X10803390Y-1079500D01*
X10593804Y-1118678D01*
X10394980Y-1195702D01*
X10394975Y-1195705D01*
X10213699Y-1307946D01*
X10213692Y-1307952D01*
X10056135Y-1451586D01*
X10056131Y-1451589D01*
X10056128Y-1451593D01*
X10056125Y-1451597D01*
X9927635Y-1621743D01*
X9927630Y-1621752D01*
X9832596Y-1812608D01*
X9774244Y-2017688D01*
X9774244Y-2017690D01*
X9754571Y-2230000D01*
X9525429Y-2230000D01*
X9505756Y-2017690D01*
X9447405Y-1812611D01*
X9352366Y-1621745D01*
X9223872Y-1451593D01*
X9169623Y-1402139D01*
X9066307Y-1307952D01*
X9066300Y-1307946D01*
X8885024Y-1195705D01*
X8885019Y-1195702D01*
X8686195Y-1118678D01*
X8476610Y-1079500D01*
X8263390Y-1079500D01*
X8053804Y-1118678D01*
X7854980Y-1195702D01*
X7854975Y-1195705D01*
X7673699Y-1307946D01*
X7673692Y-1307952D01*
X7516135Y-1451586D01*
X7516131Y-1451589D01*
X7516128Y-1451593D01*
X7516125Y-1451597D01*
X7387635Y-1621743D01*
X7387630Y-1621752D01*
X7292596Y-1812608D01*
X7234244Y-2017688D01*
X7234244Y-2017690D01*
X7214571Y-2230000D01*
X5829428Y-2230000D01*
X5732853Y-2070245D01*
X5685314Y-1991605D01*
X5685312Y-1991603D01*
X5685306Y-1991592D01*
X5487554Y-1739181D01*
X5260819Y-1512446D01*
X5008408Y-1314694D01*
X5008400Y-1314689D01*
X5008394Y-1314685D01*
X4734014Y-1148817D01*
X4734008Y-1148813D01*
X4734000Y-1148809D01*
X4660735Y-1115835D01*
X4441599Y-1017209D01*
X4135463Y-921813D01*
X3820080Y-864016D01*
X3820055Y-864013D01*
X3500006Y-844655D01*
X3499994Y-844655D01*
X3179944Y-864013D01*
X3179919Y-864016D01*
X2864537Y-921813D01*
X2864535Y-921813D01*
X2558400Y-1017209D01*
X2266006Y-1148806D01*
X2265985Y-1148817D01*
X1991605Y-1314685D01*
X1991586Y-1314698D01*
X1739187Y-1512441D01*
X1739184Y-1512443D01*
X1512443Y-1739184D01*
X1512441Y-1739187D01*
X1314698Y-1991586D01*
X1314685Y-1991605D01*
X1148817Y-2265985D01*
X1148806Y-2266006D01*
X1017209Y-2558400D01*
X921813Y-2864535D01*
X921813Y-2864537D01*
X864016Y-3179919D01*
X864013Y-3179944D01*
X844655Y-3499993D01*
X844655Y-3500006D01*
X200500Y-3500006D01*
X200500Y-3002773D01*
X200656Y-2997222D01*
X201769Y-2977410D01*
X217791Y-2692099D01*
X219034Y-2681073D01*
X269760Y-2382519D01*
X272221Y-2371733D01*
X356063Y-2080714D01*
X359723Y-2070254D01*
X475614Y-1790469D01*
X480428Y-1780474D01*
X503247Y-1739187D01*
X626909Y-1515436D01*
X632806Y-1506051D01*
X808053Y-1259063D01*
X814967Y-1250394D01*
X1016757Y-1024592D01*
X1024592Y-1016757D01*
X1250394Y-814967D01*
X1259063Y-808053D01*
X1506051Y-632806D01*
X1515436Y-626909D01*
X1780480Y-480424D01*
X1790469Y-475614D01*
X2070254Y-359723D01*
X2080714Y-356063D01*
X2371733Y-272221D01*
X2382519Y-269760D01*
X2681080Y-219033D01*
X2692099Y-217791D01*
X2997222Y-200655D01*
X3002773Y-200500D01*
X3039882Y-200500D01*
X61960118Y-200500D01*
X61997227Y-200500D01*
X62002777Y-200655D01*
G37*
%TD.AperFunction*%
%TD*%
M02*
