%TF.GenerationSoftware,KiCad,Pcbnew,7.0.10*%
%TF.CreationDate,2024-02-01T11:39:14-06:00*%
%TF.ProjectId,ElectriPi,456c6563-7472-4695-9069-2e6b69636164,rev?*%
%TF.SameCoordinates,Original*%
%TF.FileFunction,Paste,Top*%
%TF.FilePolarity,Positive*%
%FSLAX46Y46*%
G04 Gerber Fmt 4.6, Leading zero omitted, Abs format (unit mm)*
G04 Created by KiCad (PCBNEW 7.0.10) date 2024-02-01 11:39:14*
%MOMM*%
%LPD*%
G01*
G04 APERTURE LIST*
G04 Aperture macros list*
%AMRoundRect*
0 Rectangle with rounded corners*
0 $1 Rounding radius*
0 $2 $3 $4 $5 $6 $7 $8 $9 X,Y pos of 4 corners*
0 Add a 4 corners polygon primitive as box body*
4,1,4,$2,$3,$4,$5,$6,$7,$8,$9,$2,$3,0*
0 Add four circle primitives for the rounded corners*
1,1,$1+$1,$2,$3*
1,1,$1+$1,$4,$5*
1,1,$1+$1,$6,$7*
1,1,$1+$1,$8,$9*
0 Add four rect primitives between the rounded corners*
20,1,$1+$1,$2,$3,$4,$5,0*
20,1,$1+$1,$4,$5,$6,$7,0*
20,1,$1+$1,$6,$7,$8,$9,0*
20,1,$1+$1,$8,$9,$2,$3,0*%
%AMFreePoly0*
4,1,14,0.289644,0.110355,0.410355,-0.010356,0.425000,-0.045711,0.425000,-0.075000,0.410355,-0.110355,0.375000,-0.125000,-0.375000,-0.125000,-0.410355,-0.110355,-0.425000,-0.075000,-0.425000,0.075000,-0.410355,0.110355,-0.375000,0.125000,0.254289,0.125000,0.289644,0.110355,0.289644,0.110355,$1*%
%AMFreePoly1*
4,1,14,0.410355,0.110355,0.425000,0.075000,0.425000,0.045711,0.410355,0.010356,0.289644,-0.110355,0.254289,-0.125000,-0.375000,-0.125000,-0.410355,-0.110355,-0.425000,-0.075000,-0.425000,0.075000,-0.410355,0.110355,-0.375000,0.125000,0.375000,0.125000,0.410355,0.110355,0.410355,0.110355,$1*%
%AMFreePoly2*
4,1,14,0.110355,0.410355,0.125000,0.375000,0.125000,-0.375000,0.110355,-0.410355,0.075000,-0.425000,-0.075000,-0.425000,-0.110355,-0.410355,-0.125000,-0.375000,-0.125000,0.254289,-0.110355,0.289644,0.010356,0.410355,0.045711,0.425000,0.075000,0.425000,0.110355,0.410355,0.110355,0.410355,$1*%
%AMFreePoly3*
4,1,14,-0.010356,0.410355,0.110355,0.289644,0.125000,0.254289,0.125000,-0.375000,0.110355,-0.410355,0.075000,-0.425000,-0.075000,-0.425000,-0.110355,-0.410355,-0.125000,-0.375000,-0.125000,0.375000,-0.110355,0.410355,-0.075000,0.425000,-0.045711,0.425000,-0.010356,0.410355,-0.010356,0.410355,$1*%
%AMFreePoly4*
4,1,14,0.410355,0.110355,0.425000,0.075000,0.425000,-0.075000,0.410355,-0.110355,0.375000,-0.125000,-0.254289,-0.125000,-0.289644,-0.110355,-0.410355,0.010356,-0.425000,0.045711,-0.425000,0.075000,-0.410355,0.110355,-0.375000,0.125000,0.375000,0.125000,0.410355,0.110355,0.410355,0.110355,$1*%
%AMFreePoly5*
4,1,14,0.410355,0.110355,0.425000,0.075000,0.425000,-0.075000,0.410355,-0.110355,0.375000,-0.125000,-0.375000,-0.125000,-0.410355,-0.110355,-0.425000,-0.075000,-0.425000,-0.045711,-0.410355,-0.010356,-0.289644,0.110355,-0.254289,0.125000,0.375000,0.125000,0.410355,0.110355,0.410355,0.110355,$1*%
%AMFreePoly6*
4,1,14,0.110355,0.410355,0.125000,0.375000,0.125000,-0.254289,0.110355,-0.289644,-0.010356,-0.410355,-0.045711,-0.425000,-0.075000,-0.425000,-0.110355,-0.410355,-0.125000,-0.375000,-0.125000,0.375000,-0.110355,0.410355,-0.075000,0.425000,0.075000,0.425000,0.110355,0.410355,0.110355,0.410355,$1*%
%AMFreePoly7*
4,1,14,0.110355,0.410355,0.125000,0.375000,0.125000,-0.375000,0.110355,-0.410355,0.075000,-0.425000,0.045711,-0.425000,0.010356,-0.410355,-0.110355,-0.289644,-0.125000,-0.254289,-0.125000,0.375000,-0.110355,0.410355,-0.075000,0.425000,0.075000,0.425000,0.110355,0.410355,0.110355,0.410355,$1*%
G04 Aperture macros list end*
%ADD10C,0.128000*%
%ADD11RoundRect,0.135000X-0.135000X-0.185000X0.135000X-0.185000X0.135000X0.185000X-0.135000X0.185000X0*%
%ADD12RoundRect,0.250000X-0.250000X-0.475000X0.250000X-0.475000X0.250000X0.475000X-0.250000X0.475000X0*%
%ADD13RoundRect,0.150000X0.150000X-0.587500X0.150000X0.587500X-0.150000X0.587500X-0.150000X-0.587500X0*%
%ADD14RoundRect,0.140000X-0.170000X0.140000X-0.170000X-0.140000X0.170000X-0.140000X0.170000X0.140000X0*%
%ADD15RoundRect,0.140000X0.140000X0.170000X-0.140000X0.170000X-0.140000X-0.170000X0.140000X-0.170000X0*%
%ADD16R,0.800000X0.600000*%
%ADD17R,0.300000X0.350000*%
%ADD18R,0.235000X0.870000*%
%ADD19RoundRect,0.135000X0.135000X0.185000X-0.135000X0.185000X-0.135000X-0.185000X0.135000X-0.185000X0*%
%ADD20RoundRect,0.140000X-0.140000X-0.170000X0.140000X-0.170000X0.140000X0.170000X-0.140000X0.170000X0*%
%ADD21RoundRect,0.225000X0.250000X-0.225000X0.250000X0.225000X-0.250000X0.225000X-0.250000X-0.225000X0*%
%ADD22RoundRect,0.250000X0.325000X0.650000X-0.325000X0.650000X-0.325000X-0.650000X0.325000X-0.650000X0*%
%ADD23R,0.600000X0.800000*%
%ADD24R,0.350000X0.300000*%
%ADD25R,0.870000X0.235000*%
%ADD26RoundRect,0.135000X0.185000X-0.135000X0.185000X0.135000X-0.185000X0.135000X-0.185000X-0.135000X0*%
%ADD27RoundRect,0.250000X-1.400000X-1.000000X1.400000X-1.000000X1.400000X1.000000X-1.400000X1.000000X0*%
%ADD28RoundRect,0.172500X0.172500X-0.172500X0.172500X0.172500X-0.172500X0.172500X-0.172500X-0.172500X0*%
%ADD29FreePoly0,90.000000*%
%ADD30RoundRect,0.062500X0.062500X-0.362500X0.062500X0.362500X-0.062500X0.362500X-0.062500X-0.362500X0*%
%ADD31FreePoly1,90.000000*%
%ADD32FreePoly2,90.000000*%
%ADD33RoundRect,0.062500X0.362500X-0.062500X0.362500X0.062500X-0.362500X0.062500X-0.362500X-0.062500X0*%
%ADD34FreePoly3,90.000000*%
%ADD35FreePoly4,90.000000*%
%ADD36FreePoly5,90.000000*%
%ADD37FreePoly6,90.000000*%
%ADD38FreePoly7,90.000000*%
%ADD39RoundRect,0.150000X-0.150000X0.512500X-0.150000X-0.512500X0.150000X-0.512500X0.150000X0.512500X0*%
%ADD40RoundRect,0.250000X1.500000X1.000000X-1.500000X1.000000X-1.500000X-1.000000X1.500000X-1.000000X0*%
%ADD41RoundRect,0.135000X-0.185000X0.135000X-0.185000X-0.135000X0.185000X-0.135000X0.185000X0.135000X0*%
%ADD42RoundRect,0.218750X-0.256250X0.218750X-0.256250X-0.218750X0.256250X-0.218750X0.256250X0.218750X0*%
%ADD43RoundRect,0.218750X0.256250X-0.218750X0.256250X0.218750X-0.256250X0.218750X-0.256250X-0.218750X0*%
%ADD44R,3.175000X4.950000*%
G04 APERTURE END LIST*
%TO.C,D6*%
D10*
X139122000Y-68450000D02*
G75*
G03*
X138994000Y-68450000I-64000J0D01*
G01*
X138994000Y-68450000D02*
G75*
G03*
X139122000Y-68450000I64000J0D01*
G01*
X138706000Y-68450000D02*
G75*
G03*
X138578000Y-68450000I-64000J0D01*
G01*
X138578000Y-68450000D02*
G75*
G03*
X138706000Y-68450000I64000J0D01*
G01*
%TD*%
D11*
%TO.C,R11*%
X144490000Y-78250000D03*
X145510000Y-78250000D03*
%TD*%
D12*
%TO.C,C12*%
X139550000Y-60900000D03*
X141450000Y-60900000D03*
%TD*%
D13*
%TO.C,D4*%
X142550000Y-102187500D03*
X144450000Y-102187500D03*
X143500000Y-100312500D03*
%TD*%
D14*
%TO.C,C9*%
X137000000Y-61020000D03*
X137000000Y-61980000D03*
%TD*%
D15*
%TO.C,C8*%
X141730000Y-85300000D03*
X140770000Y-85300000D03*
%TD*%
D16*
%TO.C,Q2*%
X139500000Y-65100000D03*
X139500000Y-65800000D03*
D17*
X138525000Y-64525000D03*
D18*
X138525000Y-65490000D03*
D17*
X138525000Y-66375000D03*
%TD*%
D19*
%TO.C,R13*%
X143260000Y-76750000D03*
X142240000Y-76750000D03*
%TD*%
D20*
%TO.C,C14*%
X129520000Y-68000000D03*
X130480000Y-68000000D03*
%TD*%
D21*
%TO.C,C3*%
X139500000Y-81825000D03*
X139500000Y-80275000D03*
%TD*%
D11*
%TO.C,R14*%
X142240000Y-78800000D03*
X143260000Y-78800000D03*
%TD*%
D15*
%TO.C,C15*%
X142750000Y-64550000D03*
X141790000Y-64550000D03*
%TD*%
D22*
%TO.C,C5*%
X130475000Y-73250000D03*
X127525000Y-73250000D03*
%TD*%
D23*
%TO.C,Q1*%
X140525000Y-102725000D03*
X139825000Y-102725000D03*
D24*
X141100000Y-101750000D03*
D25*
X140135000Y-101750000D03*
D24*
X139250000Y-101750000D03*
%TD*%
D26*
%TO.C,R3*%
X142500000Y-105760000D03*
X142500000Y-104740000D03*
%TD*%
D27*
%TO.C,D1*%
X135000000Y-100100000D03*
X135000000Y-106900000D03*
%TD*%
D11*
%TO.C,R1*%
X146740000Y-79550000D03*
X147760000Y-79550000D03*
%TD*%
D12*
%TO.C,C11*%
X139550000Y-63000000D03*
X141450000Y-63000000D03*
%TD*%
D20*
%TO.C,C6*%
X143750000Y-85300000D03*
X144710000Y-85300000D03*
%TD*%
D26*
%TO.C,R5*%
X141000000Y-78810000D03*
X141000000Y-77790000D03*
%TD*%
D28*
%TO.C,IC2*%
X142250000Y-82800000D03*
X143050000Y-82800000D03*
X142250000Y-82000000D03*
X143050000Y-82000000D03*
D29*
X141750000Y-83850000D03*
D30*
X142200000Y-83850000D03*
X142650000Y-83850000D03*
X143100000Y-83850000D03*
D31*
X143550000Y-83850000D03*
D32*
X144100000Y-83300000D03*
D33*
X144100000Y-82850000D03*
X144100000Y-82400000D03*
X144100000Y-81950000D03*
D34*
X144100000Y-81500000D03*
D35*
X143550000Y-80950000D03*
D30*
X143100000Y-80950000D03*
X142650000Y-80950000D03*
X142200000Y-80950000D03*
D36*
X141750000Y-80950000D03*
D37*
X141200000Y-81500000D03*
D33*
X141200000Y-81950000D03*
X141200000Y-82400000D03*
X141200000Y-82850000D03*
D38*
X141200000Y-83300000D03*
%TD*%
D19*
%TO.C,R12*%
X146510000Y-81800000D03*
X145490000Y-81800000D03*
%TD*%
D22*
%TO.C,C4*%
X130475000Y-75750000D03*
X127525000Y-75750000D03*
%TD*%
D39*
%TO.C,U1*%
X136950000Y-63462500D03*
X136000000Y-63462500D03*
X135050000Y-63462500D03*
X135050000Y-65737500D03*
X136000000Y-65737500D03*
X136950000Y-65737500D03*
%TD*%
D26*
%TO.C,R6*%
X149100000Y-70010000D03*
X149100000Y-68990000D03*
%TD*%
D40*
%TO.C,C18*%
X140000000Y-93750000D03*
X133500000Y-93750000D03*
%TD*%
D12*
%TO.C,C1*%
X143500000Y-87000000D03*
X145400000Y-87000000D03*
%TD*%
D15*
%TO.C,C7*%
X128480000Y-77500000D03*
X127520000Y-77500000D03*
%TD*%
D41*
%TO.C,R4*%
X139500000Y-77790000D03*
X139500000Y-78810000D03*
%TD*%
D12*
%TO.C,C2*%
X143500000Y-89250000D03*
X145400000Y-89250000D03*
%TD*%
D42*
%TO.C,D5*%
X149200000Y-74462500D03*
X149200000Y-76037500D03*
%TD*%
D20*
%TO.C,C10*%
X138500000Y-67450000D03*
X139460000Y-67450000D03*
%TD*%
D43*
%TO.C,D3*%
X149200000Y-72787500D03*
X149200000Y-71212500D03*
%TD*%
D44*
%TO.C,L1*%
X136757500Y-83500000D03*
X127742500Y-83500000D03*
%TD*%
D41*
%TO.C,R8*%
X149250000Y-77240000D03*
X149250000Y-78260000D03*
%TD*%
D20*
%TO.C,C17*%
X142520000Y-103750000D03*
X143480000Y-103750000D03*
%TD*%
D19*
%TO.C,R7*%
X145510000Y-79550000D03*
X144490000Y-79550000D03*
%TD*%
M02*
