M48
; DRILL file {KiCad 7.0.2} date Thu Aug  3 10:05:33 2023
; FORMAT={-:-/ absolute / inch / decimal}
; #@! TF.CreationDate,2023-08-03T10:05:33+01:00
; #@! TF.GenerationSoftware,Kicad,Pcbnew,7.0.2
; #@! TF.FileFunction,Plated,1,2,PTH
FMAT,2
INCH
; #@! TA.AperFunction,Plated,PTH,ComponentDrill
T1C0.0079
; #@! TA.AperFunction,Plated,PTH,ViaDrill
T2C0.0157
; #@! TA.AperFunction,Plated,PTH,ComponentDrill
T3C0.0394
; #@! TA.AperFunction,Plated,PTH,ComponentDrill
T4C0.0472
; #@! TA.AperFunction,Plated,PTH,ComponentDrill
T5C0.1063
; #@! TA.AperFunction,Plated,PTH,ComponentDrill
T6C0.1378
%
G90
G05
T1
X5.5945Y-3.2224
X5.5945Y-3.2657
X5.6378Y-3.2224
X5.6378Y-3.2657
T2
X3.9469Y-4.0059
X4.2618Y-4.0157
X4.3996Y-4.0157
X4.7047Y-4.0551
X4.8228Y-4.0551
X4.9705Y-2.7559
X4.9705Y-2.7854
X4.9705Y-2.815
X4.9705Y-2.8445
X4.9705Y-2.874
X4.9705Y-2.9035
X4.9705Y-2.9331
X4.9705Y-2.9626
X4.9705Y-2.9921
X4.9705Y-3.0217
X4.9705Y-3.0512
X5.0Y-2.7559
X5.0Y-2.7854
X5.0Y-2.815
X5.0591Y-2.4213
X5.0689Y-2.6772
X5.1476Y-2.7165
X5.1772Y-2.4213
X5.187Y-2.7165
X5.2067Y-3.6024
X5.2067Y-3.7697
X5.2067Y-3.8189
X5.2067Y-3.8583
X5.2067Y-3.9173
X5.2067Y-3.9764
X5.2657Y-3.6024
X5.2657Y-3.7697
X5.2657Y-3.8189
X5.2657Y-3.8583
X5.315Y-3.6024
X5.315Y-3.7697
X5.315Y-3.8189
X5.315Y-3.8583
X5.3169Y-2.5374
X5.3169Y-2.6634
X5.3543Y-2.4429
X5.3543Y-2.8543
X5.3642Y-3.6024
X5.3642Y-3.6516
X5.3642Y-3.7106
X5.3642Y-3.7697
X5.3642Y-3.8189
X5.3642Y-3.8583
X5.4724Y-2.8543
X5.4921Y-3.0315
X5.4921Y-3.2598
X5.5118Y-2.6949
X5.5315Y-2.6555
X5.5413Y-3.1496
X5.5413Y-3.1791
X5.5413Y-3.8091
X5.5413Y-3.9075
X5.5561Y-3.3091
X5.5709Y-2.5768
X5.5709Y-2.6161
X5.5709Y-2.6555
X5.5709Y-2.6949
X5.6102Y-2.376
X5.6102Y-2.4154
X5.6102Y-2.4547
X5.6102Y-2.4941
X5.6102Y-4.2028
X5.6496Y-2.376
X5.6496Y-2.4154
X5.6496Y-2.4547
X5.6496Y-2.4941
X5.6496Y-4.124
X5.6693Y-2.9134
X5.6693Y-3.0217
X5.6791Y-3.1909
X5.6791Y-3.3091
X5.7185Y-3.2579
X5.7185Y-3.2972
X5.7382Y-3.2776
X5.7382Y-3.3169
X5.7382Y-3.3465
X5.7382Y-3.376
X5.7579Y-3.2579
X5.7579Y-3.2972
X5.7677Y-3.0315
X5.7677Y-3.1811
X5.7677Y-3.3465
X5.7677Y-3.376
X5.7677Y-3.4055
X5.7677Y-3.4449
X5.7677Y-3.4843
X5.7677Y-3.5236
X5.7776Y-3.2776
X5.7776Y-3.3169
X5.8071Y-3.0807
X5.8071Y-3.2874
X5.8071Y-3.3268
X5.8071Y-3.3661
X5.8071Y-3.4055
X5.8071Y-3.4449
X5.8071Y-3.4843
X5.8071Y-3.5236
X5.8366Y-2.8642
X5.8366Y-2.9331
X5.8858Y-3.1102
X5.8858Y-3.1398
X5.8858Y-3.1693
X5.8858Y-3.1988
T3
X3.6858Y-2.1843
X3.6858Y-2.2843
X3.7858Y-2.1843
X3.7858Y-2.2843
X3.8858Y-2.1843
X3.8858Y-2.2843
X3.9858Y-2.1843
X3.9858Y-2.2843
X4.0846Y-4.1831
X4.0858Y-2.1843
X4.0858Y-2.2843
X4.1831Y-4.1831
X4.1858Y-2.1843
X4.1858Y-2.2843
X4.2858Y-2.1843
X4.2858Y-2.2843
X4.3858Y-2.1843
X4.3858Y-2.2843
X4.4858Y-2.1843
X4.4858Y-2.2843
X4.5858Y-2.1843
X4.5858Y-2.2843
X4.6858Y-2.1843
X4.6858Y-2.2843
X4.7858Y-2.1843
X4.7858Y-2.2843
X4.8858Y-2.1843
X4.8858Y-2.2843
X4.9858Y-2.1843
X4.9858Y-2.2843
X5.0689Y-2.5335
X5.0858Y-2.1843
X5.0858Y-2.2843
X5.1673Y-2.5335
X5.1858Y-2.1843
X5.1858Y-2.2843
X5.2858Y-2.1843
X5.2858Y-2.2843
X5.3858Y-2.1843
X5.3858Y-2.2843
X5.4858Y-2.1843
X5.4858Y-2.2843
X5.5858Y-2.1843
X5.5858Y-2.2843
X5.7559Y-2.4567
X5.7559Y-2.5551
T4
X3.7106Y-4.1339
X3.8484Y-4.1339
T5
X3.4941Y-2.2343
X3.4941Y-4.1634
X5.7776Y-2.2343
X5.7776Y-4.1634
T6
X3.5236Y-2.5394
X3.5236Y-3.7992
X4.7835Y-2.5394
X4.7835Y-3.7992
T0
M30
