%TF.GenerationSoftware,KiCad,Pcbnew,7.0.2*%
%TF.CreationDate,2023-08-03T10:05:33+01:00*%
%TF.ProjectId,ElectriPi,456c6563-7472-4695-9069-2e6b69636164,rev?*%
%TF.SameCoordinates,Original*%
%TF.FileFunction,Other,Comment*%
%FSLAX46Y46*%
G04 Gerber Fmt 4.6, Leading zero omitted, Abs format (unit mm)*
G04 Created by KiCad (PCBNEW 7.0.2) date 2023-08-03 10:05:33*
%MOMM*%
%LPD*%
G01*
G04 APERTURE LIST*
%ADD10C,0.150000*%
G04 APERTURE END LIST*
D10*
X109075895Y-128728928D02*
X109263395Y-127228928D01*
X109263395Y-127228928D02*
X109620538Y-127228928D01*
X109620538Y-127228928D02*
X109825895Y-127300357D01*
X109825895Y-127300357D02*
X109950895Y-127443214D01*
X109950895Y-127443214D02*
X110004466Y-127586071D01*
X110004466Y-127586071D02*
X110040181Y-127871785D01*
X110040181Y-127871785D02*
X110013395Y-128086071D01*
X110013395Y-128086071D02*
X109906252Y-128371785D01*
X109906252Y-128371785D02*
X109816966Y-128514642D01*
X109816966Y-128514642D02*
X109656252Y-128657500D01*
X109656252Y-128657500D02*
X109433038Y-128728928D01*
X109433038Y-128728928D02*
X109075895Y-128728928D01*
X110566966Y-128728928D02*
X110691966Y-127728928D01*
X110754466Y-127228928D02*
X110674109Y-127300357D01*
X110674109Y-127300357D02*
X110736609Y-127371785D01*
X110736609Y-127371785D02*
X110816966Y-127300357D01*
X110816966Y-127300357D02*
X110754466Y-127228928D01*
X110754466Y-127228928D02*
X110736609Y-127371785D01*
X111272323Y-128728928D02*
X111397323Y-127728928D01*
X111379466Y-127871785D02*
X111459823Y-127800357D01*
X111459823Y-127800357D02*
X111611609Y-127728928D01*
X111611609Y-127728928D02*
X111825894Y-127728928D01*
X111825894Y-127728928D02*
X111959823Y-127800357D01*
X111959823Y-127800357D02*
X112013394Y-127943214D01*
X112013394Y-127943214D02*
X111915180Y-128728928D01*
X112013394Y-127943214D02*
X112102680Y-127800357D01*
X112102680Y-127800357D02*
X112254466Y-127728928D01*
X112254466Y-127728928D02*
X112468751Y-127728928D01*
X112468751Y-127728928D02*
X112602680Y-127800357D01*
X112602680Y-127800357D02*
X112656251Y-127943214D01*
X112656251Y-127943214D02*
X112558037Y-128728928D01*
X113843751Y-128657500D02*
X113691965Y-128728928D01*
X113691965Y-128728928D02*
X113406251Y-128728928D01*
X113406251Y-128728928D02*
X113272322Y-128657500D01*
X113272322Y-128657500D02*
X113218751Y-128514642D01*
X113218751Y-128514642D02*
X113290180Y-127943214D01*
X113290180Y-127943214D02*
X113379465Y-127800357D01*
X113379465Y-127800357D02*
X113531251Y-127728928D01*
X113531251Y-127728928D02*
X113816965Y-127728928D01*
X113816965Y-127728928D02*
X113950894Y-127800357D01*
X113950894Y-127800357D02*
X114004465Y-127943214D01*
X114004465Y-127943214D02*
X113986608Y-128086071D01*
X113986608Y-128086071D02*
X113254465Y-128228928D01*
X114665180Y-127728928D02*
X114540180Y-128728928D01*
X114647323Y-127871785D02*
X114727680Y-127800357D01*
X114727680Y-127800357D02*
X114879466Y-127728928D01*
X114879466Y-127728928D02*
X115093751Y-127728928D01*
X115093751Y-127728928D02*
X115227680Y-127800357D01*
X115227680Y-127800357D02*
X115281251Y-127943214D01*
X115281251Y-127943214D02*
X115183037Y-128728928D01*
X115825894Y-128657500D02*
X115959822Y-128728928D01*
X115959822Y-128728928D02*
X116245537Y-128728928D01*
X116245537Y-128728928D02*
X116397322Y-128657500D01*
X116397322Y-128657500D02*
X116486608Y-128514642D01*
X116486608Y-128514642D02*
X116495537Y-128443214D01*
X116495537Y-128443214D02*
X116441965Y-128300357D01*
X116441965Y-128300357D02*
X116308037Y-128228928D01*
X116308037Y-128228928D02*
X116093751Y-128228928D01*
X116093751Y-128228928D02*
X115959822Y-128157500D01*
X115959822Y-128157500D02*
X115906251Y-128014642D01*
X115906251Y-128014642D02*
X115915180Y-127943214D01*
X115915180Y-127943214D02*
X116004465Y-127800357D01*
X116004465Y-127800357D02*
X116156251Y-127728928D01*
X116156251Y-127728928D02*
X116370537Y-127728928D01*
X116370537Y-127728928D02*
X116504465Y-127800357D01*
X117093751Y-128728928D02*
X117218751Y-127728928D01*
X117281251Y-127228928D02*
X117200894Y-127300357D01*
X117200894Y-127300357D02*
X117263394Y-127371785D01*
X117263394Y-127371785D02*
X117343751Y-127300357D01*
X117343751Y-127300357D02*
X117281251Y-127228928D01*
X117281251Y-127228928D02*
X117263394Y-127371785D01*
X118013394Y-128728928D02*
X117879465Y-128657500D01*
X117879465Y-128657500D02*
X117816965Y-128586071D01*
X117816965Y-128586071D02*
X117763394Y-128443214D01*
X117763394Y-128443214D02*
X117816965Y-128014642D01*
X117816965Y-128014642D02*
X117906251Y-127871785D01*
X117906251Y-127871785D02*
X117986608Y-127800357D01*
X117986608Y-127800357D02*
X118138394Y-127728928D01*
X118138394Y-127728928D02*
X118352679Y-127728928D01*
X118352679Y-127728928D02*
X118486608Y-127800357D01*
X118486608Y-127800357D02*
X118549108Y-127871785D01*
X118549108Y-127871785D02*
X118602679Y-128014642D01*
X118602679Y-128014642D02*
X118549108Y-128443214D01*
X118549108Y-128443214D02*
X118459822Y-128586071D01*
X118459822Y-128586071D02*
X118379465Y-128657500D01*
X118379465Y-128657500D02*
X118227679Y-128728928D01*
X118227679Y-128728928D02*
X118013394Y-128728928D01*
X119272322Y-127728928D02*
X119147322Y-128728928D01*
X119254465Y-127871785D02*
X119334822Y-127800357D01*
X119334822Y-127800357D02*
X119486608Y-127728928D01*
X119486608Y-127728928D02*
X119700893Y-127728928D01*
X119700893Y-127728928D02*
X119834822Y-127800357D01*
X119834822Y-127800357D02*
X119888393Y-127943214D01*
X119888393Y-127943214D02*
X119790179Y-128728928D01*
X120433036Y-128657500D02*
X120566964Y-128728928D01*
X120566964Y-128728928D02*
X120852679Y-128728928D01*
X120852679Y-128728928D02*
X121004464Y-128657500D01*
X121004464Y-128657500D02*
X121093750Y-128514642D01*
X121093750Y-128514642D02*
X121102679Y-128443214D01*
X121102679Y-128443214D02*
X121049107Y-128300357D01*
X121049107Y-128300357D02*
X120915179Y-128228928D01*
X120915179Y-128228928D02*
X120700893Y-128228928D01*
X120700893Y-128228928D02*
X120566964Y-128157500D01*
X120566964Y-128157500D02*
X120513393Y-128014642D01*
X120513393Y-128014642D02*
X120522322Y-127943214D01*
X120522322Y-127943214D02*
X120611607Y-127800357D01*
X120611607Y-127800357D02*
X120763393Y-127728928D01*
X120763393Y-127728928D02*
X120977679Y-127728928D01*
X120977679Y-127728928D02*
X121111607Y-127800357D01*
X122754464Y-127728928D02*
X123325893Y-127728928D01*
X123031250Y-127228928D02*
X122870536Y-128514642D01*
X122870536Y-128514642D02*
X122924107Y-128657500D01*
X122924107Y-128657500D02*
X123058036Y-128728928D01*
X123058036Y-128728928D02*
X123200893Y-128728928D01*
X124334821Y-128728928D02*
X124433035Y-127943214D01*
X124433035Y-127943214D02*
X124379464Y-127800357D01*
X124379464Y-127800357D02*
X124245535Y-127728928D01*
X124245535Y-127728928D02*
X123959821Y-127728928D01*
X123959821Y-127728928D02*
X123808035Y-127800357D01*
X124343750Y-128657500D02*
X124191964Y-128728928D01*
X124191964Y-128728928D02*
X123834821Y-128728928D01*
X123834821Y-128728928D02*
X123700892Y-128657500D01*
X123700892Y-128657500D02*
X123647321Y-128514642D01*
X123647321Y-128514642D02*
X123665178Y-128371785D01*
X123665178Y-128371785D02*
X123754464Y-128228928D01*
X123754464Y-128228928D02*
X123906250Y-128157500D01*
X123906250Y-128157500D02*
X124263392Y-128157500D01*
X124263392Y-128157500D02*
X124415178Y-128086071D01*
X125040178Y-128728928D02*
X125227678Y-127228928D01*
X125254464Y-128157500D02*
X125611606Y-128728928D01*
X125736606Y-127728928D02*
X125093749Y-128300357D01*
X126825892Y-128657500D02*
X126674106Y-128728928D01*
X126674106Y-128728928D02*
X126388392Y-128728928D01*
X126388392Y-128728928D02*
X126254463Y-128657500D01*
X126254463Y-128657500D02*
X126200892Y-128514642D01*
X126200892Y-128514642D02*
X126272321Y-127943214D01*
X126272321Y-127943214D02*
X126361606Y-127800357D01*
X126361606Y-127800357D02*
X126513392Y-127728928D01*
X126513392Y-127728928D02*
X126799106Y-127728928D01*
X126799106Y-127728928D02*
X126933035Y-127800357D01*
X126933035Y-127800357D02*
X126986606Y-127943214D01*
X126986606Y-127943214D02*
X126968749Y-128086071D01*
X126968749Y-128086071D02*
X126236606Y-128228928D01*
X127647321Y-127728928D02*
X127522321Y-128728928D01*
X127629464Y-127871785D02*
X127709821Y-127800357D01*
X127709821Y-127800357D02*
X127861607Y-127728928D01*
X127861607Y-127728928D02*
X128075892Y-127728928D01*
X128075892Y-127728928D02*
X128209821Y-127800357D01*
X128209821Y-127800357D02*
X128263392Y-127943214D01*
X128263392Y-127943214D02*
X128165178Y-128728928D01*
X129924106Y-127728928D02*
X130495535Y-127728928D01*
X130013392Y-128728928D02*
X130174106Y-127443214D01*
X130174106Y-127443214D02*
X130263392Y-127300357D01*
X130263392Y-127300357D02*
X130415178Y-127228928D01*
X130415178Y-127228928D02*
X130558035Y-127228928D01*
X130861606Y-128728928D02*
X130986606Y-127728928D01*
X130950892Y-128014642D02*
X131040177Y-127871785D01*
X131040177Y-127871785D02*
X131120534Y-127800357D01*
X131120534Y-127800357D02*
X131272320Y-127728928D01*
X131272320Y-127728928D02*
X131415177Y-127728928D01*
X131995535Y-128728928D02*
X131861606Y-128657500D01*
X131861606Y-128657500D02*
X131799106Y-128586071D01*
X131799106Y-128586071D02*
X131745535Y-128443214D01*
X131745535Y-128443214D02*
X131799106Y-128014642D01*
X131799106Y-128014642D02*
X131888392Y-127871785D01*
X131888392Y-127871785D02*
X131968749Y-127800357D01*
X131968749Y-127800357D02*
X132120535Y-127728928D01*
X132120535Y-127728928D02*
X132334820Y-127728928D01*
X132334820Y-127728928D02*
X132468749Y-127800357D01*
X132468749Y-127800357D02*
X132531249Y-127871785D01*
X132531249Y-127871785D02*
X132584820Y-128014642D01*
X132584820Y-128014642D02*
X132531249Y-128443214D01*
X132531249Y-128443214D02*
X132441963Y-128586071D01*
X132441963Y-128586071D02*
X132361606Y-128657500D01*
X132361606Y-128657500D02*
X132209820Y-128728928D01*
X132209820Y-128728928D02*
X131995535Y-128728928D01*
X133129463Y-128728928D02*
X133254463Y-127728928D01*
X133236606Y-127871785D02*
X133316963Y-127800357D01*
X133316963Y-127800357D02*
X133468749Y-127728928D01*
X133468749Y-127728928D02*
X133683034Y-127728928D01*
X133683034Y-127728928D02*
X133816963Y-127800357D01*
X133816963Y-127800357D02*
X133870534Y-127943214D01*
X133870534Y-127943214D02*
X133772320Y-128728928D01*
X133870534Y-127943214D02*
X133959820Y-127800357D01*
X133959820Y-127800357D02*
X134111606Y-127728928D01*
X134111606Y-127728928D02*
X134325891Y-127728928D01*
X134325891Y-127728928D02*
X134459820Y-127800357D01*
X134459820Y-127800357D02*
X134513391Y-127943214D01*
X134513391Y-127943214D02*
X134415177Y-128728928D01*
X77611612Y-131158928D02*
X77799112Y-129658928D01*
X78254469Y-131158928D02*
X78352683Y-130373214D01*
X78352683Y-130373214D02*
X78299112Y-130230357D01*
X78299112Y-130230357D02*
X78165183Y-130158928D01*
X78165183Y-130158928D02*
X77950898Y-130158928D01*
X77950898Y-130158928D02*
X77799112Y-130230357D01*
X77799112Y-130230357D02*
X77718755Y-130301785D01*
X78870540Y-130158928D02*
X79441969Y-130158928D01*
X79147326Y-129658928D02*
X78986612Y-130944642D01*
X78986612Y-130944642D02*
X79040183Y-131087500D01*
X79040183Y-131087500D02*
X79174112Y-131158928D01*
X79174112Y-131158928D02*
X79316969Y-131158928D01*
X79718754Y-130158928D02*
X80290183Y-130158928D01*
X79995540Y-129658928D02*
X79834826Y-130944642D01*
X79834826Y-130944642D02*
X79888397Y-131087500D01*
X79888397Y-131087500D02*
X80022326Y-131158928D01*
X80022326Y-131158928D02*
X80165183Y-131158928D01*
X80781254Y-130158928D02*
X80593754Y-131658928D01*
X80772325Y-130230357D02*
X80924111Y-130158928D01*
X80924111Y-130158928D02*
X81209825Y-130158928D01*
X81209825Y-130158928D02*
X81343754Y-130230357D01*
X81343754Y-130230357D02*
X81406254Y-130301785D01*
X81406254Y-130301785D02*
X81459825Y-130444642D01*
X81459825Y-130444642D02*
X81406254Y-130873214D01*
X81406254Y-130873214D02*
X81316968Y-131016071D01*
X81316968Y-131016071D02*
X81236611Y-131087500D01*
X81236611Y-131087500D02*
X81084825Y-131158928D01*
X81084825Y-131158928D02*
X80799111Y-131158928D01*
X80799111Y-131158928D02*
X80665182Y-131087500D01*
X81879468Y-131087500D02*
X82013396Y-131158928D01*
X82013396Y-131158928D02*
X82299111Y-131158928D01*
X82299111Y-131158928D02*
X82450896Y-131087500D01*
X82450896Y-131087500D02*
X82540182Y-130944642D01*
X82540182Y-130944642D02*
X82549111Y-130873214D01*
X82549111Y-130873214D02*
X82495539Y-130730357D01*
X82495539Y-130730357D02*
X82361611Y-130658928D01*
X82361611Y-130658928D02*
X82147325Y-130658928D01*
X82147325Y-130658928D02*
X82013396Y-130587500D01*
X82013396Y-130587500D02*
X81959825Y-130444642D01*
X81959825Y-130444642D02*
X81968754Y-130373214D01*
X81968754Y-130373214D02*
X82058039Y-130230357D01*
X82058039Y-130230357D02*
X82209825Y-130158928D01*
X82209825Y-130158928D02*
X82424111Y-130158928D01*
X82424111Y-130158928D02*
X82558039Y-130230357D01*
X83165182Y-131016071D02*
X83227682Y-131087500D01*
X83227682Y-131087500D02*
X83147325Y-131158928D01*
X83147325Y-131158928D02*
X83084825Y-131087500D01*
X83084825Y-131087500D02*
X83165182Y-131016071D01*
X83165182Y-131016071D02*
X83147325Y-131158928D01*
X83263396Y-130230357D02*
X83325896Y-130301785D01*
X83325896Y-130301785D02*
X83245539Y-130373214D01*
X83245539Y-130373214D02*
X83183039Y-130301785D01*
X83183039Y-130301785D02*
X83263396Y-130230357D01*
X83263396Y-130230357D02*
X83245539Y-130373214D01*
X85120539Y-129587500D02*
X83593753Y-131516071D01*
X86638396Y-129587500D02*
X85111610Y-131516071D01*
X87656253Y-130158928D02*
X87504467Y-131373214D01*
X87504467Y-131373214D02*
X87415182Y-131516071D01*
X87415182Y-131516071D02*
X87334824Y-131587500D01*
X87334824Y-131587500D02*
X87183039Y-131658928D01*
X87183039Y-131658928D02*
X86968753Y-131658928D01*
X86968753Y-131658928D02*
X86834824Y-131587500D01*
X87540182Y-131087500D02*
X87388396Y-131158928D01*
X87388396Y-131158928D02*
X87102682Y-131158928D01*
X87102682Y-131158928D02*
X86968753Y-131087500D01*
X86968753Y-131087500D02*
X86906253Y-131016071D01*
X86906253Y-131016071D02*
X86852682Y-130873214D01*
X86852682Y-130873214D02*
X86906253Y-130444642D01*
X86906253Y-130444642D02*
X86995539Y-130301785D01*
X86995539Y-130301785D02*
X87075896Y-130230357D01*
X87075896Y-130230357D02*
X87227682Y-130158928D01*
X87227682Y-130158928D02*
X87513396Y-130158928D01*
X87513396Y-130158928D02*
X87647324Y-130230357D01*
X88174110Y-131158928D02*
X88299110Y-130158928D01*
X88361610Y-129658928D02*
X88281253Y-129730357D01*
X88281253Y-129730357D02*
X88343753Y-129801785D01*
X88343753Y-129801785D02*
X88424110Y-129730357D01*
X88424110Y-129730357D02*
X88361610Y-129658928D01*
X88361610Y-129658928D02*
X88343753Y-129801785D01*
X88790181Y-130158928D02*
X89361610Y-130158928D01*
X89066967Y-129658928D02*
X88906253Y-130944642D01*
X88906253Y-130944642D02*
X88959824Y-131087500D01*
X88959824Y-131087500D02*
X89093753Y-131158928D01*
X89093753Y-131158928D02*
X89236610Y-131158928D01*
X89727681Y-131158928D02*
X89915181Y-129658928D01*
X90370538Y-131158928D02*
X90468752Y-130373214D01*
X90468752Y-130373214D02*
X90415181Y-130230357D01*
X90415181Y-130230357D02*
X90281252Y-130158928D01*
X90281252Y-130158928D02*
X90066967Y-130158928D01*
X90066967Y-130158928D02*
X89915181Y-130230357D01*
X89915181Y-130230357D02*
X89834824Y-130301785D01*
X91843752Y-130158928D02*
X91718752Y-131158928D01*
X91200895Y-130158928D02*
X91102681Y-130944642D01*
X91102681Y-130944642D02*
X91156252Y-131087500D01*
X91156252Y-131087500D02*
X91290181Y-131158928D01*
X91290181Y-131158928D02*
X91504466Y-131158928D01*
X91504466Y-131158928D02*
X91656252Y-131087500D01*
X91656252Y-131087500D02*
X91736609Y-131016071D01*
X92424109Y-131158928D02*
X92611609Y-129658928D01*
X92540180Y-130230357D02*
X92691966Y-130158928D01*
X92691966Y-130158928D02*
X92977680Y-130158928D01*
X92977680Y-130158928D02*
X93111609Y-130230357D01*
X93111609Y-130230357D02*
X93174109Y-130301785D01*
X93174109Y-130301785D02*
X93227680Y-130444642D01*
X93227680Y-130444642D02*
X93174109Y-130873214D01*
X93174109Y-130873214D02*
X93084823Y-131016071D01*
X93084823Y-131016071D02*
X93004466Y-131087500D01*
X93004466Y-131087500D02*
X92852680Y-131158928D01*
X92852680Y-131158928D02*
X92566966Y-131158928D01*
X92566966Y-131158928D02*
X92433037Y-131087500D01*
X93790180Y-131016071D02*
X93852680Y-131087500D01*
X93852680Y-131087500D02*
X93772323Y-131158928D01*
X93772323Y-131158928D02*
X93709823Y-131087500D01*
X93709823Y-131087500D02*
X93790180Y-131016071D01*
X93790180Y-131016071D02*
X93772323Y-131158928D01*
X95129466Y-131087500D02*
X94977680Y-131158928D01*
X94977680Y-131158928D02*
X94691966Y-131158928D01*
X94691966Y-131158928D02*
X94558037Y-131087500D01*
X94558037Y-131087500D02*
X94495537Y-131016071D01*
X94495537Y-131016071D02*
X94441966Y-130873214D01*
X94441966Y-130873214D02*
X94495537Y-130444642D01*
X94495537Y-130444642D02*
X94584823Y-130301785D01*
X94584823Y-130301785D02*
X94665180Y-130230357D01*
X94665180Y-130230357D02*
X94816966Y-130158928D01*
X94816966Y-130158928D02*
X95102680Y-130158928D01*
X95102680Y-130158928D02*
X95236608Y-130230357D01*
X95968752Y-131158928D02*
X95834823Y-131087500D01*
X95834823Y-131087500D02*
X95772323Y-131016071D01*
X95772323Y-131016071D02*
X95718752Y-130873214D01*
X95718752Y-130873214D02*
X95772323Y-130444642D01*
X95772323Y-130444642D02*
X95861609Y-130301785D01*
X95861609Y-130301785D02*
X95941966Y-130230357D01*
X95941966Y-130230357D02*
X96093752Y-130158928D01*
X96093752Y-130158928D02*
X96308037Y-130158928D01*
X96308037Y-130158928D02*
X96441966Y-130230357D01*
X96441966Y-130230357D02*
X96504466Y-130301785D01*
X96504466Y-130301785D02*
X96558037Y-130444642D01*
X96558037Y-130444642D02*
X96504466Y-130873214D01*
X96504466Y-130873214D02*
X96415180Y-131016071D01*
X96415180Y-131016071D02*
X96334823Y-131087500D01*
X96334823Y-131087500D02*
X96183037Y-131158928D01*
X96183037Y-131158928D02*
X95968752Y-131158928D01*
X97102680Y-131158928D02*
X97227680Y-130158928D01*
X97209823Y-130301785D02*
X97290180Y-130230357D01*
X97290180Y-130230357D02*
X97441966Y-130158928D01*
X97441966Y-130158928D02*
X97656251Y-130158928D01*
X97656251Y-130158928D02*
X97790180Y-130230357D01*
X97790180Y-130230357D02*
X97843751Y-130373214D01*
X97843751Y-130373214D02*
X97745537Y-131158928D01*
X97843751Y-130373214D02*
X97933037Y-130230357D01*
X97933037Y-130230357D02*
X98084823Y-130158928D01*
X98084823Y-130158928D02*
X98299108Y-130158928D01*
X98299108Y-130158928D02*
X98433037Y-130230357D01*
X98433037Y-130230357D02*
X98486608Y-130373214D01*
X98486608Y-130373214D02*
X98388394Y-131158928D01*
X100361608Y-129587500D02*
X98834822Y-131516071D01*
X100611608Y-131158928D02*
X100736608Y-130158928D01*
X100700894Y-130444642D02*
X100790179Y-130301785D01*
X100790179Y-130301785D02*
X100870536Y-130230357D01*
X100870536Y-130230357D02*
X101022322Y-130158928D01*
X101022322Y-130158928D02*
X101165179Y-130158928D01*
X102174108Y-131158928D02*
X102272322Y-130373214D01*
X102272322Y-130373214D02*
X102218751Y-130230357D01*
X102218751Y-130230357D02*
X102084822Y-130158928D01*
X102084822Y-130158928D02*
X101799108Y-130158928D01*
X101799108Y-130158928D02*
X101647322Y-130230357D01*
X102183037Y-131087500D02*
X102031251Y-131158928D01*
X102031251Y-131158928D02*
X101674108Y-131158928D01*
X101674108Y-131158928D02*
X101540179Y-131087500D01*
X101540179Y-131087500D02*
X101486608Y-130944642D01*
X101486608Y-130944642D02*
X101504465Y-130801785D01*
X101504465Y-130801785D02*
X101593751Y-130658928D01*
X101593751Y-130658928D02*
X101745537Y-130587500D01*
X101745537Y-130587500D02*
X102102679Y-130587500D01*
X102102679Y-130587500D02*
X102254465Y-130516071D01*
X102816965Y-131087500D02*
X102950893Y-131158928D01*
X102950893Y-131158928D02*
X103236608Y-131158928D01*
X103236608Y-131158928D02*
X103388393Y-131087500D01*
X103388393Y-131087500D02*
X103477679Y-130944642D01*
X103477679Y-130944642D02*
X103486608Y-130873214D01*
X103486608Y-130873214D02*
X103433036Y-130730357D01*
X103433036Y-130730357D02*
X103299108Y-130658928D01*
X103299108Y-130658928D02*
X103084822Y-130658928D01*
X103084822Y-130658928D02*
X102950893Y-130587500D01*
X102950893Y-130587500D02*
X102897322Y-130444642D01*
X102897322Y-130444642D02*
X102906251Y-130373214D01*
X102906251Y-130373214D02*
X102995536Y-130230357D01*
X102995536Y-130230357D02*
X103147322Y-130158928D01*
X103147322Y-130158928D02*
X103361608Y-130158928D01*
X103361608Y-130158928D02*
X103495536Y-130230357D01*
X104209822Y-130158928D02*
X104022322Y-131658928D01*
X104200893Y-130230357D02*
X104352679Y-130158928D01*
X104352679Y-130158928D02*
X104638393Y-130158928D01*
X104638393Y-130158928D02*
X104772322Y-130230357D01*
X104772322Y-130230357D02*
X104834822Y-130301785D01*
X104834822Y-130301785D02*
X104888393Y-130444642D01*
X104888393Y-130444642D02*
X104834822Y-130873214D01*
X104834822Y-130873214D02*
X104745536Y-131016071D01*
X104745536Y-131016071D02*
X104665179Y-131087500D01*
X104665179Y-131087500D02*
X104513393Y-131158928D01*
X104513393Y-131158928D02*
X104227679Y-131158928D01*
X104227679Y-131158928D02*
X104093750Y-131087500D01*
X105370536Y-131158928D02*
X105558036Y-129658928D01*
X105486607Y-130230357D02*
X105638393Y-130158928D01*
X105638393Y-130158928D02*
X105924107Y-130158928D01*
X105924107Y-130158928D02*
X106058036Y-130230357D01*
X106058036Y-130230357D02*
X106120536Y-130301785D01*
X106120536Y-130301785D02*
X106174107Y-130444642D01*
X106174107Y-130444642D02*
X106120536Y-130873214D01*
X106120536Y-130873214D02*
X106031250Y-131016071D01*
X106031250Y-131016071D02*
X105950893Y-131087500D01*
X105950893Y-131087500D02*
X105799107Y-131158928D01*
X105799107Y-131158928D02*
X105513393Y-131158928D01*
X105513393Y-131158928D02*
X105379464Y-131087500D01*
X107299107Y-131087500D02*
X107147321Y-131158928D01*
X107147321Y-131158928D02*
X106861607Y-131158928D01*
X106861607Y-131158928D02*
X106727678Y-131087500D01*
X106727678Y-131087500D02*
X106674107Y-130944642D01*
X106674107Y-130944642D02*
X106745536Y-130373214D01*
X106745536Y-130373214D02*
X106834821Y-130230357D01*
X106834821Y-130230357D02*
X106986607Y-130158928D01*
X106986607Y-130158928D02*
X107272321Y-130158928D01*
X107272321Y-130158928D02*
X107406250Y-130230357D01*
X107406250Y-130230357D02*
X107459821Y-130373214D01*
X107459821Y-130373214D02*
X107441964Y-130516071D01*
X107441964Y-130516071D02*
X106709821Y-130658928D01*
X107995536Y-131158928D02*
X108120536Y-130158928D01*
X108084822Y-130444642D02*
X108174107Y-130301785D01*
X108174107Y-130301785D02*
X108254464Y-130230357D01*
X108254464Y-130230357D02*
X108406250Y-130158928D01*
X108406250Y-130158928D02*
X108549107Y-130158928D01*
X108915179Y-131158928D02*
X109040179Y-130158928D01*
X109004465Y-130444642D02*
X109093750Y-130301785D01*
X109093750Y-130301785D02*
X109174107Y-130230357D01*
X109174107Y-130230357D02*
X109325893Y-130158928D01*
X109325893Y-130158928D02*
X109468750Y-130158928D01*
X109816965Y-130158928D02*
X110049108Y-131158928D01*
X110531250Y-130158928D02*
X110049108Y-131158928D01*
X110049108Y-131158928D02*
X109861608Y-131516071D01*
X109861608Y-131516071D02*
X109781250Y-131587500D01*
X109781250Y-131587500D02*
X109629465Y-131658928D01*
X111031251Y-130158928D02*
X110843751Y-131658928D01*
X111022322Y-130230357D02*
X111174108Y-130158928D01*
X111174108Y-130158928D02*
X111459822Y-130158928D01*
X111459822Y-130158928D02*
X111593751Y-130230357D01*
X111593751Y-130230357D02*
X111656251Y-130301785D01*
X111656251Y-130301785D02*
X111709822Y-130444642D01*
X111709822Y-130444642D02*
X111656251Y-130873214D01*
X111656251Y-130873214D02*
X111566965Y-131016071D01*
X111566965Y-131016071D02*
X111486608Y-131087500D01*
X111486608Y-131087500D02*
X111334822Y-131158928D01*
X111334822Y-131158928D02*
X111049108Y-131158928D01*
X111049108Y-131158928D02*
X110915179Y-131087500D01*
X112191965Y-131158928D02*
X112316965Y-130158928D01*
X112379465Y-129658928D02*
X112299108Y-129730357D01*
X112299108Y-129730357D02*
X112361608Y-129801785D01*
X112361608Y-129801785D02*
X112441965Y-129730357D01*
X112441965Y-129730357D02*
X112379465Y-129658928D01*
X112379465Y-129658928D02*
X112361608Y-129801785D01*
X114165179Y-129587500D02*
X112638393Y-131516071D01*
X114415179Y-131158928D02*
X114602679Y-129658928D01*
X115058036Y-131158928D02*
X115156250Y-130373214D01*
X115156250Y-130373214D02*
X115102679Y-130230357D01*
X115102679Y-130230357D02*
X114968750Y-130158928D01*
X114968750Y-130158928D02*
X114754465Y-130158928D01*
X114754465Y-130158928D02*
X114602679Y-130230357D01*
X114602679Y-130230357D02*
X114522322Y-130301785D01*
X116406250Y-131158928D02*
X116504464Y-130373214D01*
X116504464Y-130373214D02*
X116450893Y-130230357D01*
X116450893Y-130230357D02*
X116316964Y-130158928D01*
X116316964Y-130158928D02*
X116031250Y-130158928D01*
X116031250Y-130158928D02*
X115879464Y-130230357D01*
X116415179Y-131087500D02*
X116263393Y-131158928D01*
X116263393Y-131158928D02*
X115906250Y-131158928D01*
X115906250Y-131158928D02*
X115772321Y-131087500D01*
X115772321Y-131087500D02*
X115718750Y-130944642D01*
X115718750Y-130944642D02*
X115736607Y-130801785D01*
X115736607Y-130801785D02*
X115825893Y-130658928D01*
X115825893Y-130658928D02*
X115977679Y-130587500D01*
X115977679Y-130587500D02*
X116334821Y-130587500D01*
X116334821Y-130587500D02*
X116486607Y-130516071D01*
X117022321Y-130158928D02*
X117593750Y-130158928D01*
X117299107Y-129658928D02*
X117138393Y-130944642D01*
X117138393Y-130944642D02*
X117191964Y-131087500D01*
X117191964Y-131087500D02*
X117325893Y-131158928D01*
X117325893Y-131158928D02*
X117468750Y-131158928D01*
X117897321Y-131087500D02*
X118031249Y-131158928D01*
X118031249Y-131158928D02*
X118316964Y-131158928D01*
X118316964Y-131158928D02*
X118468749Y-131087500D01*
X118468749Y-131087500D02*
X118558035Y-130944642D01*
X118558035Y-130944642D02*
X118566964Y-130873214D01*
X118566964Y-130873214D02*
X118513392Y-130730357D01*
X118513392Y-130730357D02*
X118379464Y-130658928D01*
X118379464Y-130658928D02*
X118165178Y-130658928D01*
X118165178Y-130658928D02*
X118031249Y-130587500D01*
X118031249Y-130587500D02*
X117977678Y-130444642D01*
X117977678Y-130444642D02*
X117986607Y-130373214D01*
X117986607Y-130373214D02*
X118075892Y-130230357D01*
X118075892Y-130230357D02*
X118227678Y-130158928D01*
X118227678Y-130158928D02*
X118441964Y-130158928D01*
X118441964Y-130158928D02*
X118575892Y-130230357D01*
X120433035Y-129587500D02*
X118906249Y-131516071D01*
X120683035Y-131158928D02*
X120870535Y-129658928D01*
X120799106Y-130230357D02*
X120950892Y-130158928D01*
X120950892Y-130158928D02*
X121236606Y-130158928D01*
X121236606Y-130158928D02*
X121370535Y-130230357D01*
X121370535Y-130230357D02*
X121433035Y-130301785D01*
X121433035Y-130301785D02*
X121486606Y-130444642D01*
X121486606Y-130444642D02*
X121433035Y-130873214D01*
X121433035Y-130873214D02*
X121343749Y-131016071D01*
X121343749Y-131016071D02*
X121263392Y-131087500D01*
X121263392Y-131087500D02*
X121111606Y-131158928D01*
X121111606Y-131158928D02*
X120825892Y-131158928D01*
X120825892Y-131158928D02*
X120691963Y-131087500D01*
X122245535Y-131158928D02*
X122111606Y-131087500D01*
X122111606Y-131087500D02*
X122058035Y-130944642D01*
X122058035Y-130944642D02*
X122218749Y-129658928D01*
X123022321Y-131158928D02*
X122888392Y-131087500D01*
X122888392Y-131087500D02*
X122825892Y-131016071D01*
X122825892Y-131016071D02*
X122772321Y-130873214D01*
X122772321Y-130873214D02*
X122825892Y-130444642D01*
X122825892Y-130444642D02*
X122915178Y-130301785D01*
X122915178Y-130301785D02*
X122995535Y-130230357D01*
X122995535Y-130230357D02*
X123147321Y-130158928D01*
X123147321Y-130158928D02*
X123361606Y-130158928D01*
X123361606Y-130158928D02*
X123495535Y-130230357D01*
X123495535Y-130230357D02*
X123558035Y-130301785D01*
X123558035Y-130301785D02*
X123611606Y-130444642D01*
X123611606Y-130444642D02*
X123558035Y-130873214D01*
X123558035Y-130873214D02*
X123468749Y-131016071D01*
X123468749Y-131016071D02*
X123388392Y-131087500D01*
X123388392Y-131087500D02*
X123236606Y-131158928D01*
X123236606Y-131158928D02*
X123022321Y-131158928D01*
X124156249Y-131158928D02*
X124343749Y-129658928D01*
X124272320Y-130230357D02*
X124424106Y-130158928D01*
X124424106Y-130158928D02*
X124709820Y-130158928D01*
X124709820Y-130158928D02*
X124843749Y-130230357D01*
X124843749Y-130230357D02*
X124906249Y-130301785D01*
X124906249Y-130301785D02*
X124959820Y-130444642D01*
X124959820Y-130444642D02*
X124906249Y-130873214D01*
X124906249Y-130873214D02*
X124816963Y-131016071D01*
X124816963Y-131016071D02*
X124736606Y-131087500D01*
X124736606Y-131087500D02*
X124584820Y-131158928D01*
X124584820Y-131158928D02*
X124299106Y-131158928D01*
X124299106Y-131158928D02*
X124165177Y-131087500D01*
X126772320Y-129587500D02*
X125245534Y-131516071D01*
X127022320Y-131158928D02*
X127147320Y-130158928D01*
X127129463Y-130301785D02*
X127209820Y-130230357D01*
X127209820Y-130230357D02*
X127361606Y-130158928D01*
X127361606Y-130158928D02*
X127575891Y-130158928D01*
X127575891Y-130158928D02*
X127709820Y-130230357D01*
X127709820Y-130230357D02*
X127763391Y-130373214D01*
X127763391Y-130373214D02*
X127665177Y-131158928D01*
X127763391Y-130373214D02*
X127852677Y-130230357D01*
X127852677Y-130230357D02*
X128004463Y-130158928D01*
X128004463Y-130158928D02*
X128218748Y-130158928D01*
X128218748Y-130158928D02*
X128352677Y-130230357D01*
X128352677Y-130230357D02*
X128406248Y-130373214D01*
X128406248Y-130373214D02*
X128308034Y-131158928D01*
X129656248Y-131158928D02*
X129754462Y-130373214D01*
X129754462Y-130373214D02*
X129700891Y-130230357D01*
X129700891Y-130230357D02*
X129566962Y-130158928D01*
X129566962Y-130158928D02*
X129281248Y-130158928D01*
X129281248Y-130158928D02*
X129129462Y-130230357D01*
X129665177Y-131087500D02*
X129513391Y-131158928D01*
X129513391Y-131158928D02*
X129156248Y-131158928D01*
X129156248Y-131158928D02*
X129022319Y-131087500D01*
X129022319Y-131087500D02*
X128968748Y-130944642D01*
X128968748Y-130944642D02*
X128986605Y-130801785D01*
X128986605Y-130801785D02*
X129075891Y-130658928D01*
X129075891Y-130658928D02*
X129227677Y-130587500D01*
X129227677Y-130587500D02*
X129584819Y-130587500D01*
X129584819Y-130587500D02*
X129736605Y-130516071D01*
X130299105Y-131087500D02*
X130433033Y-131158928D01*
X130433033Y-131158928D02*
X130718748Y-131158928D01*
X130718748Y-131158928D02*
X130870533Y-131087500D01*
X130870533Y-131087500D02*
X130959819Y-130944642D01*
X130959819Y-130944642D02*
X130968748Y-130873214D01*
X130968748Y-130873214D02*
X130915176Y-130730357D01*
X130915176Y-130730357D02*
X130781248Y-130658928D01*
X130781248Y-130658928D02*
X130566962Y-130658928D01*
X130566962Y-130658928D02*
X130433033Y-130587500D01*
X130433033Y-130587500D02*
X130379462Y-130444642D01*
X130379462Y-130444642D02*
X130388391Y-130373214D01*
X130388391Y-130373214D02*
X130477676Y-130230357D01*
X130477676Y-130230357D02*
X130629462Y-130158928D01*
X130629462Y-130158928D02*
X130843748Y-130158928D01*
X130843748Y-130158928D02*
X130977676Y-130230357D01*
X131477676Y-130158928D02*
X132049105Y-130158928D01*
X131754462Y-129658928D02*
X131593748Y-130944642D01*
X131593748Y-130944642D02*
X131647319Y-131087500D01*
X131647319Y-131087500D02*
X131781248Y-131158928D01*
X131781248Y-131158928D02*
X131924105Y-131158928D01*
X132995533Y-131087500D02*
X132843747Y-131158928D01*
X132843747Y-131158928D02*
X132558033Y-131158928D01*
X132558033Y-131158928D02*
X132424104Y-131087500D01*
X132424104Y-131087500D02*
X132370533Y-130944642D01*
X132370533Y-130944642D02*
X132441962Y-130373214D01*
X132441962Y-130373214D02*
X132531247Y-130230357D01*
X132531247Y-130230357D02*
X132683033Y-130158928D01*
X132683033Y-130158928D02*
X132968747Y-130158928D01*
X132968747Y-130158928D02*
X133102676Y-130230357D01*
X133102676Y-130230357D02*
X133156247Y-130373214D01*
X133156247Y-130373214D02*
X133138390Y-130516071D01*
X133138390Y-130516071D02*
X132406247Y-130658928D01*
X133691962Y-131158928D02*
X133816962Y-130158928D01*
X133781248Y-130444642D02*
X133870533Y-130301785D01*
X133870533Y-130301785D02*
X133950890Y-130230357D01*
X133950890Y-130230357D02*
X134102676Y-130158928D01*
X134102676Y-130158928D02*
X134245533Y-130158928D01*
X135879462Y-129587500D02*
X134352676Y-131516071D01*
X136129462Y-131158928D02*
X136316962Y-129658928D01*
X136772319Y-131158928D02*
X136870533Y-130373214D01*
X136870533Y-130373214D02*
X136816962Y-130230357D01*
X136816962Y-130230357D02*
X136683033Y-130158928D01*
X136683033Y-130158928D02*
X136468748Y-130158928D01*
X136468748Y-130158928D02*
X136316962Y-130230357D01*
X136316962Y-130230357D02*
X136236605Y-130301785D01*
X138120533Y-131158928D02*
X138218747Y-130373214D01*
X138218747Y-130373214D02*
X138165176Y-130230357D01*
X138165176Y-130230357D02*
X138031247Y-130158928D01*
X138031247Y-130158928D02*
X137745533Y-130158928D01*
X137745533Y-130158928D02*
X137593747Y-130230357D01*
X138129462Y-131087500D02*
X137977676Y-131158928D01*
X137977676Y-131158928D02*
X137620533Y-131158928D01*
X137620533Y-131158928D02*
X137486604Y-131087500D01*
X137486604Y-131087500D02*
X137433033Y-130944642D01*
X137433033Y-130944642D02*
X137450890Y-130801785D01*
X137450890Y-130801785D02*
X137540176Y-130658928D01*
X137540176Y-130658928D02*
X137691962Y-130587500D01*
X137691962Y-130587500D02*
X138049104Y-130587500D01*
X138049104Y-130587500D02*
X138200890Y-130516071D01*
X138736604Y-130158928D02*
X139308033Y-130158928D01*
X139013390Y-129658928D02*
X138852676Y-130944642D01*
X138852676Y-130944642D02*
X138906247Y-131087500D01*
X138906247Y-131087500D02*
X139040176Y-131158928D01*
X139040176Y-131158928D02*
X139183033Y-131158928D01*
X139745532Y-130587500D02*
X140888390Y-130587500D01*
X141531247Y-131158928D02*
X141718747Y-129658928D01*
X141647318Y-130230357D02*
X141799104Y-130158928D01*
X141799104Y-130158928D02*
X142084818Y-130158928D01*
X142084818Y-130158928D02*
X142218747Y-130230357D01*
X142218747Y-130230357D02*
X142281247Y-130301785D01*
X142281247Y-130301785D02*
X142334818Y-130444642D01*
X142334818Y-130444642D02*
X142281247Y-130873214D01*
X142281247Y-130873214D02*
X142191961Y-131016071D01*
X142191961Y-131016071D02*
X142111604Y-131087500D01*
X142111604Y-131087500D02*
X141959818Y-131158928D01*
X141959818Y-131158928D02*
X141674104Y-131158928D01*
X141674104Y-131158928D02*
X141540175Y-131087500D01*
X143093747Y-131158928D02*
X142959818Y-131087500D01*
X142959818Y-131087500D02*
X142897318Y-131016071D01*
X142897318Y-131016071D02*
X142843747Y-130873214D01*
X142843747Y-130873214D02*
X142897318Y-130444642D01*
X142897318Y-130444642D02*
X142986604Y-130301785D01*
X142986604Y-130301785D02*
X143066961Y-130230357D01*
X143066961Y-130230357D02*
X143218747Y-130158928D01*
X143218747Y-130158928D02*
X143433032Y-130158928D01*
X143433032Y-130158928D02*
X143566961Y-130230357D01*
X143566961Y-130230357D02*
X143629461Y-130301785D01*
X143629461Y-130301785D02*
X143683032Y-130444642D01*
X143683032Y-130444642D02*
X143629461Y-130873214D01*
X143629461Y-130873214D02*
X143540175Y-131016071D01*
X143540175Y-131016071D02*
X143459818Y-131087500D01*
X143459818Y-131087500D02*
X143308032Y-131158928D01*
X143308032Y-131158928D02*
X143093747Y-131158928D01*
X144870532Y-131158928D02*
X144968746Y-130373214D01*
X144968746Y-130373214D02*
X144915175Y-130230357D01*
X144915175Y-130230357D02*
X144781246Y-130158928D01*
X144781246Y-130158928D02*
X144495532Y-130158928D01*
X144495532Y-130158928D02*
X144343746Y-130230357D01*
X144879461Y-131087500D02*
X144727675Y-131158928D01*
X144727675Y-131158928D02*
X144370532Y-131158928D01*
X144370532Y-131158928D02*
X144236603Y-131087500D01*
X144236603Y-131087500D02*
X144183032Y-130944642D01*
X144183032Y-130944642D02*
X144200889Y-130801785D01*
X144200889Y-130801785D02*
X144290175Y-130658928D01*
X144290175Y-130658928D02*
X144441961Y-130587500D01*
X144441961Y-130587500D02*
X144799103Y-130587500D01*
X144799103Y-130587500D02*
X144950889Y-130516071D01*
X145575889Y-131158928D02*
X145700889Y-130158928D01*
X145665175Y-130444642D02*
X145754460Y-130301785D01*
X145754460Y-130301785D02*
X145834817Y-130230357D01*
X145834817Y-130230357D02*
X145986603Y-130158928D01*
X145986603Y-130158928D02*
X146129460Y-130158928D01*
X147138389Y-131158928D02*
X147325889Y-129658928D01*
X147147318Y-131087500D02*
X146995532Y-131158928D01*
X146995532Y-131158928D02*
X146709818Y-131158928D01*
X146709818Y-131158928D02*
X146575889Y-131087500D01*
X146575889Y-131087500D02*
X146513389Y-131016071D01*
X146513389Y-131016071D02*
X146459818Y-130873214D01*
X146459818Y-130873214D02*
X146513389Y-130444642D01*
X146513389Y-130444642D02*
X146602675Y-130301785D01*
X146602675Y-130301785D02*
X146683032Y-130230357D01*
X146683032Y-130230357D02*
X146834818Y-130158928D01*
X146834818Y-130158928D02*
X147120532Y-130158928D01*
X147120532Y-130158928D02*
X147254460Y-130230357D01*
X147915174Y-130587500D02*
X149058032Y-130587500D01*
X149700889Y-131158928D02*
X149825889Y-130158928D01*
X149808032Y-130301785D02*
X149888389Y-130230357D01*
X149888389Y-130230357D02*
X150040175Y-130158928D01*
X150040175Y-130158928D02*
X150254460Y-130158928D01*
X150254460Y-130158928D02*
X150388389Y-130230357D01*
X150388389Y-130230357D02*
X150441960Y-130373214D01*
X150441960Y-130373214D02*
X150343746Y-131158928D01*
X150441960Y-130373214D02*
X150531246Y-130230357D01*
X150531246Y-130230357D02*
X150683032Y-130158928D01*
X150683032Y-130158928D02*
X150897317Y-130158928D01*
X150897317Y-130158928D02*
X151031246Y-130230357D01*
X151031246Y-130230357D02*
X151084817Y-130373214D01*
X151084817Y-130373214D02*
X150986603Y-131158928D01*
X152272317Y-131087500D02*
X152120531Y-131158928D01*
X152120531Y-131158928D02*
X151834817Y-131158928D01*
X151834817Y-131158928D02*
X151700888Y-131087500D01*
X151700888Y-131087500D02*
X151647317Y-130944642D01*
X151647317Y-130944642D02*
X151718746Y-130373214D01*
X151718746Y-130373214D02*
X151808031Y-130230357D01*
X151808031Y-130230357D02*
X151959817Y-130158928D01*
X151959817Y-130158928D02*
X152245531Y-130158928D01*
X152245531Y-130158928D02*
X152379460Y-130230357D01*
X152379460Y-130230357D02*
X152433031Y-130373214D01*
X152433031Y-130373214D02*
X152415174Y-130516071D01*
X152415174Y-130516071D02*
X151683031Y-130658928D01*
X153620532Y-131087500D02*
X153468746Y-131158928D01*
X153468746Y-131158928D02*
X153183032Y-131158928D01*
X153183032Y-131158928D02*
X153049103Y-131087500D01*
X153049103Y-131087500D02*
X152986603Y-131016071D01*
X152986603Y-131016071D02*
X152933032Y-130873214D01*
X152933032Y-130873214D02*
X152986603Y-130444642D01*
X152986603Y-130444642D02*
X153075889Y-130301785D01*
X153075889Y-130301785D02*
X153156246Y-130230357D01*
X153156246Y-130230357D02*
X153308032Y-130158928D01*
X153308032Y-130158928D02*
X153593746Y-130158928D01*
X153593746Y-130158928D02*
X153727674Y-130230357D01*
X154245532Y-131158928D02*
X154433032Y-129658928D01*
X154888389Y-131158928D02*
X154986603Y-130373214D01*
X154986603Y-130373214D02*
X154933032Y-130230357D01*
X154933032Y-130230357D02*
X154799103Y-130158928D01*
X154799103Y-130158928D02*
X154584818Y-130158928D01*
X154584818Y-130158928D02*
X154433032Y-130230357D01*
X154433032Y-130230357D02*
X154352675Y-130301785D01*
X156236603Y-131158928D02*
X156334817Y-130373214D01*
X156334817Y-130373214D02*
X156281246Y-130230357D01*
X156281246Y-130230357D02*
X156147317Y-130158928D01*
X156147317Y-130158928D02*
X155861603Y-130158928D01*
X155861603Y-130158928D02*
X155709817Y-130230357D01*
X156245532Y-131087500D02*
X156093746Y-131158928D01*
X156093746Y-131158928D02*
X155736603Y-131158928D01*
X155736603Y-131158928D02*
X155602674Y-131087500D01*
X155602674Y-131087500D02*
X155549103Y-130944642D01*
X155549103Y-130944642D02*
X155566960Y-130801785D01*
X155566960Y-130801785D02*
X155656246Y-130658928D01*
X155656246Y-130658928D02*
X155808032Y-130587500D01*
X155808032Y-130587500D02*
X156165174Y-130587500D01*
X156165174Y-130587500D02*
X156316960Y-130516071D01*
X157066960Y-130158928D02*
X156941960Y-131158928D01*
X157049103Y-130301785D02*
X157129460Y-130230357D01*
X157129460Y-130230357D02*
X157281246Y-130158928D01*
X157281246Y-130158928D02*
X157495531Y-130158928D01*
X157495531Y-130158928D02*
X157629460Y-130230357D01*
X157629460Y-130230357D02*
X157683031Y-130373214D01*
X157683031Y-130373214D02*
X157584817Y-131158928D01*
X158290174Y-131158928D02*
X158415174Y-130158928D01*
X158477674Y-129658928D02*
X158397317Y-129730357D01*
X158397317Y-129730357D02*
X158459817Y-129801785D01*
X158459817Y-129801785D02*
X158540174Y-129730357D01*
X158540174Y-129730357D02*
X158477674Y-129658928D01*
X158477674Y-129658928D02*
X158459817Y-129801785D01*
X159647317Y-131087500D02*
X159495531Y-131158928D01*
X159495531Y-131158928D02*
X159209817Y-131158928D01*
X159209817Y-131158928D02*
X159075888Y-131087500D01*
X159075888Y-131087500D02*
X159013388Y-131016071D01*
X159013388Y-131016071D02*
X158959817Y-130873214D01*
X158959817Y-130873214D02*
X159013388Y-130444642D01*
X159013388Y-130444642D02*
X159102674Y-130301785D01*
X159102674Y-130301785D02*
X159183031Y-130230357D01*
X159183031Y-130230357D02*
X159334817Y-130158928D01*
X159334817Y-130158928D02*
X159620531Y-130158928D01*
X159620531Y-130158928D02*
X159754459Y-130230357D01*
X160915174Y-131158928D02*
X161013388Y-130373214D01*
X161013388Y-130373214D02*
X160959817Y-130230357D01*
X160959817Y-130230357D02*
X160825888Y-130158928D01*
X160825888Y-130158928D02*
X160540174Y-130158928D01*
X160540174Y-130158928D02*
X160388388Y-130230357D01*
X160924103Y-131087500D02*
X160772317Y-131158928D01*
X160772317Y-131158928D02*
X160415174Y-131158928D01*
X160415174Y-131158928D02*
X160281245Y-131087500D01*
X160281245Y-131087500D02*
X160227674Y-130944642D01*
X160227674Y-130944642D02*
X160245531Y-130801785D01*
X160245531Y-130801785D02*
X160334817Y-130658928D01*
X160334817Y-130658928D02*
X160486603Y-130587500D01*
X160486603Y-130587500D02*
X160843745Y-130587500D01*
X160843745Y-130587500D02*
X160995531Y-130516071D01*
X161834817Y-131158928D02*
X161700888Y-131087500D01*
X161700888Y-131087500D02*
X161647317Y-130944642D01*
X161647317Y-130944642D02*
X161808031Y-129658928D01*
X162415174Y-131016071D02*
X162477674Y-131087500D01*
X162477674Y-131087500D02*
X162397317Y-131158928D01*
X162397317Y-131158928D02*
X162334817Y-131087500D01*
X162334817Y-131087500D02*
X162415174Y-131016071D01*
X162415174Y-131016071D02*
X162397317Y-131158928D01*
X163227674Y-130158928D02*
X163040174Y-131658928D01*
X163218745Y-130230357D02*
X163370531Y-130158928D01*
X163370531Y-130158928D02*
X163656245Y-130158928D01*
X163656245Y-130158928D02*
X163790174Y-130230357D01*
X163790174Y-130230357D02*
X163852674Y-130301785D01*
X163852674Y-130301785D02*
X163906245Y-130444642D01*
X163906245Y-130444642D02*
X163852674Y-130873214D01*
X163852674Y-130873214D02*
X163763388Y-131016071D01*
X163763388Y-131016071D02*
X163683031Y-131087500D01*
X163683031Y-131087500D02*
X163531245Y-131158928D01*
X163531245Y-131158928D02*
X163245531Y-131158928D01*
X163245531Y-131158928D02*
X163111602Y-131087500D01*
X165031245Y-131158928D02*
X165218745Y-129658928D01*
X165040174Y-131087500D02*
X164888388Y-131158928D01*
X164888388Y-131158928D02*
X164602674Y-131158928D01*
X164602674Y-131158928D02*
X164468745Y-131087500D01*
X164468745Y-131087500D02*
X164406245Y-131016071D01*
X164406245Y-131016071D02*
X164352674Y-130873214D01*
X164352674Y-130873214D02*
X164406245Y-130444642D01*
X164406245Y-130444642D02*
X164495531Y-130301785D01*
X164495531Y-130301785D02*
X164575888Y-130230357D01*
X164575888Y-130230357D02*
X164727674Y-130158928D01*
X164727674Y-130158928D02*
X165013388Y-130158928D01*
X165013388Y-130158928D02*
X165147316Y-130230357D01*
X165647316Y-130158928D02*
X166218745Y-130158928D01*
X165736602Y-131158928D02*
X165897316Y-129873214D01*
X165897316Y-129873214D02*
X165986602Y-129730357D01*
X165986602Y-129730357D02*
X166138388Y-129658928D01*
X166138388Y-129658928D02*
X166281245Y-129658928D01*
%TO.C,H2*%
X91100000Y-56750000D02*
G75*
G03*
X91100000Y-56750000I-2350000J0D01*
G01*
%TO.C,H3*%
X149100000Y-56750000D02*
G75*
G03*
X149100000Y-56750000I-2350000J0D01*
G01*
%TO.C,H1*%
X149100000Y-105750000D02*
G75*
G03*
X149100000Y-105750000I-2350000J0D01*
G01*
%TO.C,H4*%
X91100000Y-105750000D02*
G75*
G03*
X91100000Y-105750000I-2350000J0D01*
G01*
%TD*%
M02*
