%TF.GenerationSoftware,KiCad,Pcbnew,7.0.2*%
%TF.CreationDate,2023-08-03T10:05:33+01:00*%
%TF.ProjectId,ElectriPi,456c6563-7472-4695-9069-2e6b69636164,rev?*%
%TF.SameCoordinates,Original*%
%TF.FileFunction,Copper,L2,Bot*%
%TF.FilePolarity,Positive*%
%FSLAX46Y46*%
G04 Gerber Fmt 4.6, Leading zero omitted, Abs format (unit mm)*
G04 Created by KiCad (PCBNEW 7.0.2) date 2023-08-03 10:05:33*
%MOMM*%
%LPD*%
G01*
G04 APERTURE LIST*
G04 Aperture macros list*
%AMRoundRect*
0 Rectangle with rounded corners*
0 $1 Rounding radius*
0 $2 $3 $4 $5 $6 $7 $8 $9 X,Y pos of 4 corners*
0 Add a 4 corners polygon primitive as box body*
4,1,4,$2,$3,$4,$5,$6,$7,$8,$9,$2,$3,0*
0 Add four circle primitives for the rounded corners*
1,1,$1+$1,$2,$3*
1,1,$1+$1,$4,$5*
1,1,$1+$1,$6,$7*
1,1,$1+$1,$8,$9*
0 Add four rect primitives between the rounded corners*
20,1,$1+$1,$2,$3,$4,$5,0*
20,1,$1+$1,$4,$5,$6,$7,0*
20,1,$1+$1,$6,$7,$8,$9,0*
20,1,$1+$1,$8,$9,$2,$3,0*%
%AMFreePoly0*
4,1,19,0.550000,-0.750000,0.000000,-0.750000,0.000000,-0.744911,-0.071157,-0.744911,-0.207708,-0.704816,-0.327430,-0.627875,-0.420627,-0.520320,-0.479746,-0.390866,-0.500000,-0.250000,-0.500000,0.250000,-0.479746,0.390866,-0.420627,0.520320,-0.327430,0.627875,-0.207708,0.704816,-0.071157,0.744911,0.000000,0.744911,0.000000,0.750000,0.550000,0.750000,0.550000,-0.750000,0.550000,-0.750000,
$1*%
%AMFreePoly1*
4,1,19,0.000000,0.744911,0.071157,0.744911,0.207708,0.704816,0.327430,0.627875,0.420627,0.520320,0.479746,0.390866,0.500000,0.250000,0.500000,-0.250000,0.479746,-0.390866,0.420627,-0.520320,0.327430,-0.627875,0.207708,-0.704816,0.071157,-0.744911,0.000000,-0.744911,0.000000,-0.750000,-0.550000,-0.750000,-0.550000,0.750000,0.000000,0.750000,0.000000,0.744911,0.000000,0.744911,
$1*%
G04 Aperture macros list end*
%TA.AperFunction,ComponentPad*%
%ADD10RoundRect,0.250000X0.750000X-0.600000X0.750000X0.600000X-0.750000X0.600000X-0.750000X-0.600000X0*%
%TD*%
%TA.AperFunction,ComponentPad*%
%ADD11O,2.000000X1.700000*%
%TD*%
%TA.AperFunction,ComponentPad*%
%ADD12C,4.700000*%
%TD*%
%TA.AperFunction,ComponentPad*%
%ADD13RoundRect,0.250000X0.600000X0.750000X-0.600000X0.750000X-0.600000X-0.750000X0.600000X-0.750000X0*%
%TD*%
%TA.AperFunction,ComponentPad*%
%ADD14O,1.700000X2.000000*%
%TD*%
%TA.AperFunction,ComponentPad*%
%ADD15R,2.400000X2.400000*%
%TD*%
%TA.AperFunction,ComponentPad*%
%ADD16C,2.400000*%
%TD*%
%TA.AperFunction,ComponentPad*%
%ADD17C,0.500000*%
%TD*%
%TA.AperFunction,SMDPad,CuDef*%
%ADD18R,1.600000X1.600000*%
%TD*%
%TA.AperFunction,ComponentPad*%
%ADD19C,7.000000*%
%TD*%
%TA.AperFunction,SMDPad,CuDef*%
%ADD20C,1.500000*%
%TD*%
%TA.AperFunction,ComponentPad*%
%ADD21R,1.700000X1.700000*%
%TD*%
%TA.AperFunction,ComponentPad*%
%ADD22O,1.700000X1.700000*%
%TD*%
%TA.AperFunction,SMDPad,CuDef*%
%ADD23FreePoly0,90.000000*%
%TD*%
%TA.AperFunction,SMDPad,CuDef*%
%ADD24R,1.500000X1.000000*%
%TD*%
%TA.AperFunction,SMDPad,CuDef*%
%ADD25FreePoly1,90.000000*%
%TD*%
%TA.AperFunction,ViaPad*%
%ADD26C,0.600000*%
%TD*%
%TA.AperFunction,Conductor*%
%ADD27C,0.500000*%
%TD*%
%TA.AperFunction,Conductor*%
%ADD28C,0.250000*%
%TD*%
%TA.AperFunction,Conductor*%
%ADD29C,1.000000*%
%TD*%
G04 APERTURE END LIST*
%TA.AperFunction,EtchedComponent*%
%TO.C,JP1*%
G36*
X133800000Y-69900000D02*
G01*
X133400000Y-69900000D01*
X133400000Y-69400000D01*
X133800000Y-69400000D01*
X133800000Y-69900000D01*
G37*
%TD.AperFunction*%
%TA.AperFunction,EtchedComponent*%
G36*
X134600000Y-69900000D02*
G01*
X134200000Y-69900000D01*
X134200000Y-69400000D01*
X134600000Y-69400000D01*
X134600000Y-69900000D01*
G37*
%TD.AperFunction*%
%TD*%
D10*
%TO.P,J8,1,Pin_1*%
%TO.N,+5V*%
X146200000Y-64900000D03*
D11*
%TO.P,J8,2,Pin_2*%
%TO.N,GND*%
X146200000Y-62400000D03*
%TD*%
D12*
%TO.P,H2,1*%
%TO.N,N/C*%
X88750000Y-56750000D03*
%TD*%
D13*
%TO.P,J2,1,Pin_1*%
%TO.N,Net-(J1-Pin_1)*%
X106250000Y-106250000D03*
D14*
%TO.P,J2,2,Pin_2*%
%TO.N,GND*%
X103750000Y-106250000D03*
%TD*%
D15*
%TO.P,J1,1,Pin_1*%
%TO.N,Net-(J1-Pin_1)*%
X94250000Y-105000000D03*
D16*
%TO.P,J1,2,Pin_2*%
%TO.N,GND*%
X97750000Y-105000000D03*
%TD*%
D17*
%TO.P,IC2,21,PGND_4*%
%TO.N,GND*%
X142100000Y-82950000D03*
X143200000Y-82950000D03*
D18*
X142650000Y-82400000D03*
D17*
X142100000Y-81850000D03*
X143200000Y-81850000D03*
%TD*%
D13*
%TO.P,J3,1,Pin_1*%
%TO.N,Net-(J3-Pin_1)*%
X131250000Y-64350000D03*
D14*
%TO.P,J3,2,Pin_2*%
%TO.N,GND*%
X128750000Y-64350000D03*
%TD*%
D12*
%TO.P,H3,1*%
%TO.N,N/C*%
X146750000Y-56750000D03*
%TD*%
D19*
%TO.P,U2,1*%
%TO.N,N/C*%
X89500000Y-64500000D03*
%TO.P,U2,2*%
X121500000Y-64500000D03*
%TO.P,U2,3*%
X89500000Y-96500000D03*
%TO.P,U2,4*%
X121500000Y-96500000D03*
%TD*%
D12*
%TO.P,H1,1*%
%TO.N,N/C*%
X146750000Y-105750000D03*
%TD*%
%TO.P,H4,1*%
%TO.N,N/C*%
X88750000Y-105750000D03*
%TD*%
D20*
%TO.P,TP5,1,1*%
%TO.N,5V_PI*%
X130000000Y-61500000D03*
%TD*%
D21*
%TO.P,J6,1,3V3*%
%TO.N,unconnected-(J6-3V3-Pad1)*%
X93620000Y-58020000D03*
D22*
%TO.P,J6,2,5V*%
%TO.N,5V_PI*%
X93620000Y-55480000D03*
%TO.P,J6,3,SDA/GPIO2*%
%TO.N,unconnected-(J6-SDA{slash}GPIO2-Pad3)*%
X96160000Y-58020000D03*
%TO.P,J6,4,5V*%
%TO.N,5V_PI*%
X96160000Y-55480000D03*
%TO.P,J6,5,SCL/GPIO3*%
%TO.N,unconnected-(J6-SCL{slash}GPIO3-Pad5)*%
X98700000Y-58020000D03*
%TO.P,J6,6,GND*%
%TO.N,GND*%
X98700000Y-55480000D03*
%TO.P,J6,7,GCLK0/GPIO4*%
%TO.N,unconnected-(J6-GCLK0{slash}GPIO4-Pad7)*%
X101240000Y-58020000D03*
%TO.P,J6,8,GPIO14/TXD*%
%TO.N,unconnected-(J6-GPIO14{slash}TXD-Pad8)*%
X101240000Y-55480000D03*
%TO.P,J6,9,GND*%
%TO.N,GND*%
X103780000Y-58020000D03*
%TO.P,J6,10,GPIO15/RXD*%
%TO.N,unconnected-(J6-GPIO15{slash}RXD-Pad10)*%
X103780000Y-55480000D03*
%TO.P,J6,11,GPIO17*%
%TO.N,unconnected-(J6-GPIO17-Pad11)*%
X106320000Y-58020000D03*
%TO.P,J6,12,GPIO18/PWM0*%
%TO.N,unconnected-(J6-GPIO18{slash}PWM0-Pad12)*%
X106320000Y-55480000D03*
%TO.P,J6,13,GPIO27*%
%TO.N,unconnected-(J6-GPIO27-Pad13)*%
X108860000Y-58020000D03*
%TO.P,J6,14,GND*%
%TO.N,GND*%
X108860000Y-55480000D03*
%TO.P,J6,15,GPIO22*%
%TO.N,unconnected-(J6-GPIO22-Pad15)*%
X111400000Y-58020000D03*
%TO.P,J6,16,GPIO23*%
%TO.N,unconnected-(J6-GPIO23-Pad16)*%
X111400000Y-55480000D03*
%TO.P,J6,17,3V3*%
%TO.N,unconnected-(J6-3V3-Pad17)*%
X113940000Y-58020000D03*
%TO.P,J6,18,GPIO24*%
%TO.N,unconnected-(J6-GPIO24-Pad18)*%
X113940000Y-55480000D03*
%TO.P,J6,19,MOSI0/GPIO10*%
%TO.N,unconnected-(J6-MOSI0{slash}GPIO10-Pad19)*%
X116480000Y-58020000D03*
%TO.P,J6,20,GND*%
%TO.N,GND*%
X116480000Y-55480000D03*
%TO.P,J6,21,MISO0/GPIO9*%
%TO.N,unconnected-(J6-MISO0{slash}GPIO9-Pad21)*%
X119020000Y-58020000D03*
%TO.P,J6,22,GPIO25*%
%TO.N,unconnected-(J6-GPIO25-Pad22)*%
X119020000Y-55480000D03*
%TO.P,J6,23,SCLK0/GPIO11*%
%TO.N,unconnected-(J6-SCLK0{slash}GPIO11-Pad23)*%
X121560000Y-58020000D03*
%TO.P,J6,24,~{CE0}/GPIO8*%
%TO.N,unconnected-(J6-~{CE0}{slash}GPIO8-Pad24)*%
X121560000Y-55480000D03*
%TO.P,J6,25,GND*%
%TO.N,GND*%
X124100000Y-58020000D03*
%TO.P,J6,26,~{CE1}/GPIO7*%
%TO.N,unconnected-(J6-~{CE1}{slash}GPIO7-Pad26)*%
X124100000Y-55480000D03*
%TO.P,J6,27,ID_SD/GPIO0*%
%TO.N,unconnected-(J6-ID_SD{slash}GPIO0-Pad27)*%
X126640000Y-58020000D03*
%TO.P,J6,28,ID_SC/GPIO1*%
%TO.N,unconnected-(J6-ID_SC{slash}GPIO1-Pad28)*%
X126640000Y-55480000D03*
%TO.P,J6,29,GCLK1/GPIO5*%
%TO.N,unconnected-(J6-GCLK1{slash}GPIO5-Pad29)*%
X129180000Y-58020000D03*
%TO.P,J6,30,GND*%
%TO.N,GND*%
X129180000Y-55480000D03*
%TO.P,J6,31,GCLK2/GPIO6*%
%TO.N,unconnected-(J6-GCLK2{slash}GPIO6-Pad31)*%
X131720000Y-58020000D03*
%TO.P,J6,32,PWM0/GPIO12*%
%TO.N,unconnected-(J6-PWM0{slash}GPIO12-Pad32)*%
X131720000Y-55480000D03*
%TO.P,J6,33,PWM1/GPIO13*%
%TO.N,unconnected-(J6-PWM1{slash}GPIO13-Pad33)*%
X134260000Y-58020000D03*
%TO.P,J6,34,GND*%
%TO.N,GND*%
X134260000Y-55480000D03*
%TO.P,J6,35,GPIO19/MISO1*%
%TO.N,unconnected-(J6-GPIO19{slash}MISO1-Pad35)*%
X136800000Y-58020000D03*
%TO.P,J6,36,GPIO16*%
%TO.N,unconnected-(J6-GPIO16-Pad36)*%
X136800000Y-55480000D03*
%TO.P,J6,37,GPIO26*%
%TO.N,unconnected-(J6-GPIO26-Pad37)*%
X139340000Y-58020000D03*
%TO.P,J6,38,GPIO20/MOSI1*%
%TO.N,unconnected-(J6-GPIO20{slash}MOSI1-Pad38)*%
X139340000Y-55480000D03*
%TO.P,J6,39,GND*%
%TO.N,GND*%
X141880000Y-58020000D03*
%TO.P,J6,40,GPIO21/SCLK1*%
%TO.N,unconnected-(J6-GPIO21{slash}SCLK1-Pad40)*%
X141880000Y-55480000D03*
%TD*%
D23*
%TO.P,JP1,1,A*%
%TO.N,Vin*%
X134000000Y-70300000D03*
D24*
%TO.P,JP1,2,C*%
%TO.N,Net-(J3-Pin_1)*%
X134000000Y-69000000D03*
D25*
%TO.P,JP1,3,B*%
%TO.N,+5V*%
X134000000Y-67700000D03*
%TD*%
D20*
%TO.P,TP4,1,1*%
%TO.N,Vin*%
X140750000Y-98000000D03*
%TD*%
%TO.P,TP1,1,1*%
%TO.N,+5V*%
X137500000Y-72500000D03*
%TD*%
%TO.P,TP6,1,1*%
%TO.N,GND*%
X130000000Y-75000000D03*
%TD*%
%TO.P,TP2,1,1*%
%TO.N,Net-(J1-Pin_1)*%
X110000000Y-102000000D03*
%TD*%
%TO.P,TP3,1,1*%
%TO.N,Net-(D1-A2)*%
X121000000Y-103000000D03*
%TD*%
D26*
%TO.N,VCC*%
X139500000Y-82800000D03*
X146500000Y-77000000D03*
X146500000Y-80800000D03*
X139500000Y-77000000D03*
%TO.N,GND*%
X141500000Y-65450000D03*
X147500000Y-84500000D03*
X136000000Y-62050000D03*
X126250000Y-73750000D03*
X146250000Y-83750000D03*
X126250000Y-73000000D03*
X133750000Y-97000000D03*
X147500000Y-87500000D03*
X146500000Y-85000000D03*
X135000000Y-95750000D03*
X145750000Y-83250000D03*
X144250000Y-81050000D03*
X146500000Y-89500000D03*
X143500000Y-60350000D03*
X126250000Y-70000000D03*
X136250000Y-95750000D03*
X132250000Y-99500000D03*
X142500000Y-61350000D03*
X145750000Y-84250000D03*
X133750000Y-98000000D03*
X135000000Y-97000000D03*
X142500000Y-63350000D03*
X141500000Y-67450000D03*
X140750000Y-80000000D03*
X145750000Y-85000000D03*
X148250000Y-72750000D03*
X145250000Y-83750000D03*
X141500000Y-68450000D03*
X142500000Y-60350000D03*
X132250000Y-98000000D03*
X100250000Y-101750000D03*
X132250000Y-97000000D03*
X141500000Y-66450000D03*
X146750000Y-83250000D03*
X136250000Y-91500000D03*
X127000000Y-70750000D03*
X142500000Y-62350000D03*
X147500000Y-88500000D03*
X146500000Y-85750000D03*
X126250000Y-76750000D03*
X128750000Y-68000000D03*
X140000000Y-68450000D03*
X135000000Y-91500000D03*
X146750000Y-84250000D03*
X136250000Y-94250000D03*
X145250000Y-82750000D03*
X143500000Y-62350000D03*
X145750000Y-85750000D03*
X126250000Y-77500000D03*
X146250000Y-82750000D03*
X133750000Y-91500000D03*
X132250000Y-91500000D03*
X136250000Y-98000000D03*
X147500000Y-78250000D03*
X147500000Y-89500000D03*
X140750000Y-80750000D03*
X126250000Y-72250000D03*
X146500000Y-88500000D03*
X133750000Y-95750000D03*
X126250000Y-76000000D03*
X136250000Y-92750000D03*
X143500000Y-63350000D03*
X143500000Y-61350000D03*
X127000000Y-70000000D03*
X136250000Y-97000000D03*
X135000000Y-98000000D03*
X147500000Y-83500000D03*
X140500000Y-67450000D03*
X132250000Y-95750000D03*
X142500000Y-106750000D03*
X126250000Y-75250000D03*
X126250000Y-70750000D03*
X132250000Y-101000000D03*
X148250000Y-74500000D03*
X147500000Y-85500000D03*
X143500000Y-104750000D03*
X146500000Y-86500000D03*
X127000000Y-71500000D03*
X147500000Y-86500000D03*
X126250000Y-71500000D03*
X126250000Y-74500000D03*
X146500000Y-87500000D03*
%TO.N,+5V*%
X144000000Y-76750000D03*
X136000000Y-72500000D03*
X135050000Y-64450000D03*
X135050000Y-67650000D03*
X144000000Y-74000000D03*
X139000000Y-72500000D03*
%TO.N,Vin*%
X149500000Y-80500000D03*
X149500000Y-79750000D03*
X140750000Y-96750000D03*
X149500000Y-81250000D03*
X149500000Y-79000000D03*
X140750000Y-99250000D03*
%TO.N,5V_PI*%
X128500000Y-61500000D03*
X131500000Y-61500000D03*
%TO.N,Net-(J1-Pin_1)*%
X108250000Y-102000000D03*
X111750000Y-102000000D03*
%TO.N,SW*%
X144250000Y-84050000D03*
X141125500Y-84050000D03*
%TO.N,Net-(J3-Pin_1)*%
X130750000Y-69000000D03*
X131750000Y-69000000D03*
%TO.N,Net-(D1-A2)*%
X122500000Y-103000000D03*
X119500000Y-103000000D03*
%TD*%
D27*
%TO.N,VCC*%
X139500000Y-77000000D02*
X139500000Y-82800000D01*
D28*
X146500000Y-80800000D02*
X146500000Y-77000000D01*
D27*
%TO.N,+5V*%
X135050000Y-67650000D02*
X135050000Y-64450000D01*
D29*
X135000000Y-67700000D02*
X135050000Y-67650000D01*
X134000000Y-67700000D02*
X135000000Y-67700000D01*
D27*
X144000000Y-76750000D02*
X144000000Y-74000000D01*
D29*
X139000000Y-72500000D02*
X137500000Y-72500000D01*
X136000000Y-72500000D02*
X137500000Y-72500000D01*
%TO.N,Vin*%
X149200000Y-70300000D02*
X134000000Y-70300000D01*
X140750000Y-96750000D02*
X140750000Y-99250000D01*
%TO.N,5V_PI*%
X130000000Y-61500000D02*
X131500000Y-61500000D01*
X130000000Y-61500000D02*
X128500000Y-61500000D01*
%TO.N,Net-(J1-Pin_1)*%
X108250000Y-102000000D02*
X110000000Y-102000000D01*
X110000000Y-102000000D02*
X111750000Y-102000000D01*
D28*
%TO.N,SW*%
X141125500Y-84050000D02*
X144250000Y-84050000D01*
D29*
%TO.N,Net-(J3-Pin_1)*%
X130750000Y-69000000D02*
X134000000Y-69000000D01*
%TO.N,Net-(D1-A2)*%
X121000000Y-103000000D02*
X122500000Y-103000000D01*
X121000000Y-103000000D02*
X119500000Y-103000000D01*
%TD*%
%TA.AperFunction,Conductor*%
%TO.N,Net-(J3-Pin_1)*%
G36*
X132012040Y-68502408D02*
G01*
X132400319Y-68580063D01*
X132462195Y-68612513D01*
X132496706Y-68673264D01*
X132500000Y-68701655D01*
X132500000Y-69298344D01*
X132480315Y-69365383D01*
X132427511Y-69411138D01*
X132400319Y-69419936D01*
X132206180Y-69458764D01*
X132012039Y-69497592D01*
X131987722Y-69500000D01*
X130374000Y-69500000D01*
X130306961Y-69480315D01*
X130261206Y-69427511D01*
X130250000Y-69376000D01*
X130250000Y-68624000D01*
X130269685Y-68556961D01*
X130322489Y-68511206D01*
X130374000Y-68500000D01*
X131987722Y-68500000D01*
X132012040Y-68502408D01*
G37*
%TD.AperFunction*%
%TD*%
%TA.AperFunction,Conductor*%
%TO.N,Vin*%
G36*
X149992539Y-69769685D02*
G01*
X150038294Y-69822489D01*
X150049500Y-69874000D01*
X150049500Y-81876000D01*
X150029815Y-81943039D01*
X149977011Y-81988794D01*
X149925500Y-82000000D01*
X148874000Y-82000000D01*
X148806961Y-81980315D01*
X148761206Y-81927511D01*
X148750000Y-81876000D01*
X148750000Y-74876909D01*
X148769685Y-74809870D01*
X148774406Y-74803153D01*
X148774534Y-74802843D01*
X148774536Y-74802841D01*
X148835044Y-74656762D01*
X148855682Y-74500000D01*
X148835044Y-74343238D01*
X148774536Y-74197159D01*
X148774535Y-74197158D01*
X148768289Y-74182078D01*
X148769113Y-74181736D01*
X148750429Y-74133400D01*
X148750000Y-74123090D01*
X148750000Y-73126909D01*
X148769685Y-73059870D01*
X148774406Y-73053153D01*
X148774534Y-73052843D01*
X148774536Y-73052841D01*
X148835044Y-72906762D01*
X148855682Y-72750000D01*
X148835044Y-72593238D01*
X148774536Y-72447159D01*
X148774535Y-72447158D01*
X148768289Y-72432078D01*
X148769113Y-72431736D01*
X148750429Y-72383400D01*
X148750000Y-72373090D01*
X148750000Y-69874000D01*
X148769685Y-69806961D01*
X148822489Y-69761206D01*
X148874000Y-69750000D01*
X149925500Y-69750000D01*
X149992539Y-69769685D01*
G37*
%TD.AperFunction*%
%TD*%
%TA.AperFunction,Conductor*%
%TO.N,GND*%
G36*
X147252777Y-53450655D02*
G01*
X147557898Y-53467791D01*
X147568921Y-53469033D01*
X147867476Y-53519759D01*
X147878270Y-53522222D01*
X148169279Y-53606061D01*
X148179750Y-53609725D01*
X148459523Y-53725611D01*
X148469525Y-53730428D01*
X148734555Y-53876905D01*
X148743955Y-53882811D01*
X148990930Y-54058049D01*
X148999610Y-54064972D01*
X149225399Y-54266750D01*
X149233249Y-54274600D01*
X149435027Y-54500389D01*
X149441950Y-54509069D01*
X149617188Y-54756044D01*
X149623094Y-54765444D01*
X149769571Y-55030474D01*
X149774388Y-55040476D01*
X149890272Y-55320245D01*
X149893939Y-55330724D01*
X149977773Y-55621714D01*
X149980243Y-55632538D01*
X150030965Y-55931073D01*
X150032208Y-55942105D01*
X150049344Y-56247221D01*
X150049500Y-56252772D01*
X150049500Y-69348076D01*
X150030593Y-69406267D01*
X149981093Y-69442231D01*
X149936413Y-69446069D01*
X149927461Y-69444782D01*
X149925500Y-69444500D01*
X148874000Y-69444500D01*
X148871382Y-69444781D01*
X148871372Y-69444782D01*
X148811688Y-69451199D01*
X148811681Y-69451200D01*
X148809059Y-69451482D01*
X148806476Y-69452043D01*
X148806469Y-69452045D01*
X148759117Y-69462346D01*
X148759097Y-69462350D01*
X148757548Y-69462688D01*
X148756020Y-69463126D01*
X148756005Y-69463130D01*
X148719342Y-69473645D01*
X148698290Y-69485958D01*
X148648311Y-69499500D01*
X135149500Y-69499500D01*
X135091309Y-69480593D01*
X135055345Y-69431093D01*
X135050500Y-69400500D01*
X135050499Y-68588510D01*
X135069406Y-68530319D01*
X135118906Y-68494355D01*
X135127428Y-68492002D01*
X135128536Y-68491748D01*
X135128838Y-68491679D01*
X135139813Y-68489811D01*
X135179255Y-68485368D01*
X135216718Y-68472258D01*
X135227368Y-68469190D01*
X135266061Y-68460360D01*
X135301819Y-68443139D01*
X135312058Y-68438897D01*
X135349522Y-68425789D01*
X135383132Y-68404669D01*
X135392826Y-68399311D01*
X135428587Y-68382091D01*
X135459607Y-68357351D01*
X135468661Y-68350928D01*
X135502262Y-68329816D01*
X135629816Y-68202262D01*
X135629816Y-68202260D01*
X135637966Y-68194111D01*
X135637974Y-68194102D01*
X135645858Y-68186219D01*
X135645858Y-68186217D01*
X135647826Y-68184251D01*
X135732092Y-68078586D01*
X135810360Y-67916061D01*
X135850500Y-67740194D01*
X135850500Y-67559805D01*
X135846434Y-67541988D01*
X135810360Y-67383938D01*
X135732091Y-67221411D01*
X135622099Y-67083485D01*
X135600600Y-67026201D01*
X135600500Y-67021760D01*
X135600500Y-65543102D01*
X144899500Y-65543102D01*
X144899850Y-65546019D01*
X144899851Y-65546030D01*
X144910122Y-65631562D01*
X144965639Y-65772343D01*
X145057077Y-65892922D01*
X145177656Y-65984360D01*
X145177657Y-65984360D01*
X145177658Y-65984361D01*
X145318436Y-66039877D01*
X145406898Y-66050500D01*
X145409850Y-66050500D01*
X146990150Y-66050500D01*
X146993102Y-66050500D01*
X147081564Y-66039877D01*
X147222342Y-65984361D01*
X147342922Y-65892922D01*
X147434361Y-65772342D01*
X147489877Y-65631564D01*
X147500500Y-65543102D01*
X147500500Y-64256898D01*
X147489877Y-64168436D01*
X147434361Y-64027658D01*
X147434360Y-64027657D01*
X147434360Y-64027656D01*
X147342922Y-63907077D01*
X147222343Y-63815639D01*
X147081562Y-63760122D01*
X146996030Y-63749851D01*
X146996019Y-63749850D01*
X146993102Y-63749500D01*
X145406898Y-63749500D01*
X145403981Y-63749850D01*
X145403969Y-63749851D01*
X145318437Y-63760122D01*
X145177656Y-63815639D01*
X145057077Y-63907077D01*
X144965639Y-64027656D01*
X144910122Y-64168437D01*
X144899851Y-64253969D01*
X144899850Y-64253981D01*
X144899500Y-64256898D01*
X144899500Y-65543102D01*
X135600500Y-65543102D01*
X135600500Y-64709850D01*
X135608036Y-64671964D01*
X135635044Y-64606761D01*
X135635407Y-64604001D01*
X135655682Y-64450000D01*
X135635044Y-64293238D01*
X135574536Y-64147159D01*
X135547959Y-64112523D01*
X135478282Y-64021717D01*
X135352841Y-63925464D01*
X135206761Y-63864955D01*
X135050000Y-63844318D01*
X134893238Y-63864955D01*
X134747158Y-63925464D01*
X134621717Y-64021717D01*
X134525464Y-64147158D01*
X134464955Y-64293238D01*
X134444318Y-64450000D01*
X134464955Y-64606761D01*
X134491964Y-64671964D01*
X134499500Y-64709850D01*
X134499500Y-66800500D01*
X134480593Y-66858691D01*
X134431093Y-66894655D01*
X134400500Y-66899500D01*
X134350906Y-66899500D01*
X134336816Y-66898492D01*
X134293508Y-66892265D01*
X134293507Y-66892265D01*
X134206494Y-66892265D01*
X134199384Y-66893287D01*
X134185296Y-66894295D01*
X133814704Y-66894295D01*
X133800615Y-66893287D01*
X133793506Y-66892265D01*
X133706493Y-66892265D01*
X133706490Y-66892265D01*
X133564182Y-66912725D01*
X133480684Y-66937242D01*
X133349905Y-66996968D01*
X133276710Y-67044007D01*
X133168042Y-67138167D01*
X133111062Y-67203925D01*
X133033333Y-67324875D01*
X132997185Y-67404029D01*
X132956676Y-67541988D01*
X132944295Y-67628107D01*
X132944295Y-68100500D01*
X132925388Y-68158691D01*
X132875888Y-68194655D01*
X132845295Y-68199500D01*
X132056894Y-68199500D01*
X132042366Y-68198426D01*
X132044564Y-68198726D01*
X132043371Y-68198577D01*
X132042144Y-68198395D01*
X132040917Y-68198273D01*
X132040905Y-68198272D01*
X132019043Y-68196107D01*
X132019022Y-68196105D01*
X132017826Y-68195987D01*
X132016614Y-68195927D01*
X132016599Y-68195926D01*
X131988970Y-68194561D01*
X131988944Y-68194560D01*
X131987722Y-68194500D01*
X130374000Y-68194500D01*
X130371382Y-68194781D01*
X130371372Y-68194782D01*
X130311688Y-68201199D01*
X130311681Y-68201200D01*
X130309059Y-68201482D01*
X130306476Y-68202043D01*
X130306469Y-68202045D01*
X130259117Y-68212346D01*
X130259097Y-68212350D01*
X130257548Y-68212688D01*
X130256020Y-68213126D01*
X130256005Y-68213130D01*
X130219342Y-68223645D01*
X130122431Y-68280323D01*
X130100303Y-68299497D01*
X130069625Y-68326080D01*
X130067918Y-68327890D01*
X130067909Y-68327899D01*
X130027446Y-68370812D01*
X129976562Y-68470885D01*
X129956875Y-68537932D01*
X129944500Y-68623998D01*
X129944500Y-68993864D01*
X129944154Y-69000008D01*
X129944500Y-69006144D01*
X129944500Y-69376000D01*
X129944781Y-69378618D01*
X129944782Y-69378627D01*
X129947134Y-69400500D01*
X129951482Y-69440941D01*
X129952044Y-69443525D01*
X129952045Y-69443530D01*
X129958596Y-69473646D01*
X129962688Y-69492452D01*
X129963128Y-69493986D01*
X129963130Y-69493994D01*
X129973645Y-69530657D01*
X130030323Y-69627568D01*
X130030325Y-69627571D01*
X130076080Y-69680375D01*
X130077899Y-69682090D01*
X130120812Y-69722553D01*
X130220885Y-69773437D01*
X130220889Y-69773439D01*
X130287928Y-69793124D01*
X130347760Y-69801727D01*
X130373999Y-69805500D01*
X130374000Y-69805500D01*
X131986481Y-69805500D01*
X131987722Y-69805500D01*
X132017827Y-69804013D01*
X132042144Y-69801605D01*
X132043367Y-69801422D01*
X132044575Y-69801273D01*
X132042274Y-69801587D01*
X132056897Y-69800500D01*
X132845295Y-69800500D01*
X132903486Y-69819407D01*
X132939450Y-69868907D01*
X132944295Y-69899500D01*
X132944295Y-70371892D01*
X132956676Y-70458011D01*
X132997185Y-70595970D01*
X133033333Y-70675124D01*
X133111062Y-70796074D01*
X133168042Y-70861832D01*
X133168044Y-70861833D01*
X133168046Y-70861836D01*
X133276707Y-70955990D01*
X133276709Y-70955991D01*
X133276710Y-70955992D01*
X133349905Y-71003031D01*
X133480684Y-71062757D01*
X133480688Y-71062758D01*
X133480690Y-71062759D01*
X133564178Y-71087273D01*
X133564179Y-71087273D01*
X133564182Y-71087274D01*
X133706490Y-71107735D01*
X133706493Y-71107735D01*
X133793506Y-71107735D01*
X133800615Y-71106712D01*
X133814704Y-71105705D01*
X134185296Y-71105705D01*
X134199384Y-71106712D01*
X134206494Y-71107735D01*
X134293508Y-71107735D01*
X134336816Y-71101508D01*
X134350906Y-71100500D01*
X148345500Y-71100500D01*
X148403691Y-71119407D01*
X148439655Y-71168907D01*
X148444500Y-71199500D01*
X148444500Y-72373090D01*
X148444516Y-72374136D01*
X148444764Y-72385791D01*
X148444801Y-72386783D01*
X148445190Y-72396089D01*
X148465476Y-72493547D01*
X148482131Y-72536634D01*
X148485168Y-72546874D01*
X148486044Y-72548988D01*
X148532420Y-72660951D01*
X148539108Y-72685909D01*
X148545845Y-72737076D01*
X148545845Y-72762922D01*
X148539109Y-72814085D01*
X148532420Y-72839048D01*
X148477937Y-72970579D01*
X148476686Y-72973371D01*
X148456875Y-73040841D01*
X148444500Y-73126907D01*
X148444500Y-74123090D01*
X148444516Y-74124136D01*
X148444764Y-74135791D01*
X148444801Y-74136783D01*
X148445190Y-74146089D01*
X148465476Y-74243547D01*
X148482131Y-74286634D01*
X148485168Y-74296874D01*
X148486044Y-74298988D01*
X148532420Y-74410951D01*
X148539108Y-74435911D01*
X148545844Y-74487079D01*
X148545844Y-74512921D01*
X148539109Y-74564083D01*
X148532420Y-74589048D01*
X148477937Y-74720579D01*
X148476686Y-74723371D01*
X148476561Y-74723798D01*
X148456876Y-74790837D01*
X148444500Y-74876909D01*
X148444500Y-81876000D01*
X148444781Y-81878618D01*
X148444782Y-81878627D01*
X148450850Y-81935065D01*
X148451482Y-81940941D01*
X148452044Y-81943525D01*
X148452045Y-81943530D01*
X148453452Y-81950000D01*
X148462688Y-81992452D01*
X148463128Y-81993986D01*
X148463130Y-81993994D01*
X148473645Y-82030657D01*
X148473646Y-82030658D01*
X148530325Y-82127571D01*
X148576080Y-82180375D01*
X148577899Y-82182090D01*
X148620812Y-82222553D01*
X148720885Y-82273437D01*
X148720889Y-82273439D01*
X148787928Y-82293124D01*
X148856785Y-82303024D01*
X148873999Y-82305500D01*
X148874000Y-82305500D01*
X149922854Y-82305500D01*
X149925500Y-82305500D01*
X149939912Y-82303950D01*
X149999790Y-82316524D01*
X150040842Y-82361894D01*
X150049500Y-82402382D01*
X150049500Y-106247226D01*
X150049344Y-106252777D01*
X150032208Y-106557894D01*
X150030965Y-106568926D01*
X149980243Y-106867461D01*
X149977773Y-106878285D01*
X149893939Y-107169275D01*
X149890272Y-107179754D01*
X149774388Y-107459523D01*
X149769571Y-107469525D01*
X149623094Y-107734555D01*
X149617188Y-107743955D01*
X149441950Y-107990930D01*
X149435027Y-107999610D01*
X149233249Y-108225399D01*
X149225399Y-108233249D01*
X148999610Y-108435027D01*
X148990930Y-108441950D01*
X148743955Y-108617188D01*
X148734555Y-108623094D01*
X148469525Y-108769571D01*
X148459523Y-108774388D01*
X148179754Y-108890272D01*
X148169275Y-108893939D01*
X147878285Y-108977773D01*
X147867461Y-108980243D01*
X147568926Y-109030965D01*
X147557894Y-109032208D01*
X147252778Y-109049344D01*
X147247227Y-109049500D01*
X88252773Y-109049500D01*
X88247222Y-109049344D01*
X87942105Y-109032208D01*
X87931073Y-109030965D01*
X87632538Y-108980243D01*
X87621716Y-108977773D01*
X87547239Y-108956317D01*
X87330724Y-108893939D01*
X87320245Y-108890272D01*
X87040476Y-108774388D01*
X87030474Y-108769571D01*
X86765444Y-108623094D01*
X86756044Y-108617188D01*
X86509069Y-108441950D01*
X86500389Y-108435027D01*
X86274600Y-108233249D01*
X86266750Y-108225399D01*
X86064972Y-107999610D01*
X86058049Y-107990930D01*
X85882811Y-107743955D01*
X85876905Y-107734555D01*
X85730428Y-107469525D01*
X85725611Y-107459523D01*
X85609727Y-107179754D01*
X85606060Y-107169275D01*
X85522222Y-106878270D01*
X85519759Y-106867476D01*
X85469033Y-106568921D01*
X85467791Y-106557894D01*
X85464764Y-106504001D01*
X85450656Y-106252777D01*
X85450500Y-106247226D01*
X85450500Y-105750000D01*
X86094655Y-105750000D01*
X86114015Y-106070066D01*
X86114552Y-106072999D01*
X86114554Y-106073011D01*
X86150652Y-106269989D01*
X86171814Y-106385466D01*
X86172699Y-106388306D01*
X86172702Y-106388318D01*
X86232682Y-106580798D01*
X86267209Y-106691598D01*
X86398809Y-106984000D01*
X86400355Y-106986558D01*
X86400357Y-106986561D01*
X86563142Y-107255842D01*
X86563148Y-107255851D01*
X86564694Y-107258408D01*
X86566538Y-107260761D01*
X86566541Y-107260766D01*
X86575611Y-107272343D01*
X86762446Y-107510819D01*
X86989181Y-107737554D01*
X87241592Y-107935306D01*
X87244152Y-107936853D01*
X87244157Y-107936857D01*
X87341099Y-107995460D01*
X87516000Y-108101191D01*
X87808402Y-108232791D01*
X88114534Y-108328186D01*
X88429934Y-108385985D01*
X88750000Y-108405345D01*
X89070066Y-108385985D01*
X89385466Y-108328186D01*
X89691598Y-108232791D01*
X89984000Y-108101191D01*
X90258408Y-107935306D01*
X90510819Y-107737554D01*
X90737554Y-107510819D01*
X90935306Y-107258408D01*
X91101191Y-106984000D01*
X91232791Y-106691598D01*
X91291249Y-106504000D01*
X102604710Y-106504000D01*
X102614738Y-106612216D01*
X102673064Y-106817210D01*
X102768059Y-107007988D01*
X102896500Y-107178069D01*
X103054000Y-107321650D01*
X103235206Y-107433848D01*
X103433941Y-107510839D01*
X103495999Y-107522439D01*
X103496000Y-107522439D01*
X103496000Y-106683674D01*
X103607685Y-106734680D01*
X103714237Y-106750000D01*
X103785763Y-106750000D01*
X103892315Y-106734680D01*
X104004000Y-106683674D01*
X104004000Y-107522439D01*
X104066058Y-107510839D01*
X104264793Y-107433848D01*
X104445999Y-107321650D01*
X104603499Y-107178069D01*
X104705423Y-107043102D01*
X105099500Y-107043102D01*
X105099850Y-107046019D01*
X105099851Y-107046030D01*
X105110122Y-107131562D01*
X105165639Y-107272343D01*
X105257077Y-107392922D01*
X105377656Y-107484360D01*
X105377657Y-107484360D01*
X105377658Y-107484361D01*
X105518436Y-107539877D01*
X105606898Y-107550500D01*
X105609850Y-107550500D01*
X106890150Y-107550500D01*
X106893102Y-107550500D01*
X106981564Y-107539877D01*
X107122342Y-107484361D01*
X107242922Y-107392922D01*
X107334361Y-107272342D01*
X107389877Y-107131564D01*
X107400500Y-107043102D01*
X107400500Y-105456898D01*
X107389877Y-105368436D01*
X107334361Y-105227658D01*
X107334360Y-105227657D01*
X107334360Y-105227656D01*
X107242922Y-105107077D01*
X107122343Y-105015639D01*
X106981562Y-104960122D01*
X106896030Y-104949851D01*
X106896019Y-104949850D01*
X106893102Y-104949500D01*
X105606898Y-104949500D01*
X105603981Y-104949850D01*
X105603969Y-104949851D01*
X105518437Y-104960122D01*
X105377656Y-105015639D01*
X105257077Y-105107077D01*
X105165639Y-105227656D01*
X105110122Y-105368437D01*
X105099851Y-105453969D01*
X105099850Y-105453981D01*
X105099500Y-105456898D01*
X105099500Y-107043102D01*
X104705423Y-107043102D01*
X104731940Y-107007988D01*
X104826935Y-106817210D01*
X104885261Y-106612216D01*
X104895290Y-106504000D01*
X104181116Y-106504000D01*
X104209493Y-106459844D01*
X104250000Y-106321889D01*
X104250000Y-106178111D01*
X104209493Y-106040156D01*
X104181116Y-105996000D01*
X104895289Y-105996000D01*
X104885261Y-105887783D01*
X104826935Y-105682789D01*
X104731940Y-105492011D01*
X104603499Y-105321930D01*
X104445999Y-105178349D01*
X104264793Y-105066151D01*
X104066058Y-104989161D01*
X104004000Y-104977560D01*
X104004000Y-105816325D01*
X103892315Y-105765320D01*
X103785763Y-105750000D01*
X103714237Y-105750000D01*
X103607685Y-105765320D01*
X103496000Y-105816325D01*
X103496000Y-104977560D01*
X103433941Y-104989161D01*
X103235206Y-105066151D01*
X103054000Y-105178349D01*
X102896500Y-105321930D01*
X102768059Y-105492011D01*
X102673064Y-105682789D01*
X102614738Y-105887783D01*
X102604710Y-105996000D01*
X103318884Y-105996000D01*
X103290507Y-106040156D01*
X103250000Y-106178111D01*
X103250000Y-106321889D01*
X103290507Y-106459844D01*
X103318884Y-106504000D01*
X102604710Y-106504000D01*
X91291249Y-106504000D01*
X91328186Y-106385466D01*
X91354472Y-106242025D01*
X92749500Y-106242025D01*
X92749501Y-106244864D01*
X92749828Y-106247687D01*
X92749829Y-106247697D01*
X92752415Y-106269990D01*
X92797793Y-106372764D01*
X92797794Y-106372765D01*
X92877235Y-106452206D01*
X92980009Y-106497585D01*
X93005135Y-106500500D01*
X95494864Y-106500499D01*
X95519991Y-106497585D01*
X95622765Y-106452206D01*
X95702206Y-106372765D01*
X95747585Y-106269991D01*
X95750500Y-106244865D01*
X95750499Y-105000000D01*
X96244859Y-105000000D01*
X96265387Y-105247736D01*
X96326411Y-105488716D01*
X96426268Y-105716367D01*
X96524328Y-105866458D01*
X97185568Y-105205217D01*
X97225901Y-105302588D01*
X97322075Y-105427925D01*
X97447412Y-105524099D01*
X97544780Y-105564429D01*
X96883124Y-106226086D01*
X96926767Y-106260055D01*
X97145390Y-106378367D01*
X97380508Y-106459083D01*
X97625708Y-106500000D01*
X97874292Y-106500000D01*
X98119491Y-106459083D01*
X98354606Y-106378368D01*
X98573235Y-106260052D01*
X98616874Y-106226086D01*
X97955218Y-105564430D01*
X98052588Y-105524099D01*
X98177925Y-105427925D01*
X98274099Y-105302589D01*
X98314430Y-105205218D01*
X98975671Y-105866459D01*
X99073729Y-105716371D01*
X99173588Y-105488716D01*
X99234612Y-105247736D01*
X99255140Y-104999999D01*
X99234612Y-104752263D01*
X99173588Y-104511283D01*
X99073729Y-104283628D01*
X98975671Y-104133539D01*
X98314429Y-104794780D01*
X98274099Y-104697412D01*
X98177925Y-104572075D01*
X98052588Y-104475901D01*
X97955217Y-104435568D01*
X98616874Y-103773912D01*
X98573232Y-103739944D01*
X98354609Y-103621632D01*
X98119491Y-103540916D01*
X97874292Y-103500000D01*
X97625708Y-103500000D01*
X97380508Y-103540916D01*
X97145390Y-103621632D01*
X96926768Y-103739944D01*
X96883124Y-103773912D01*
X97544781Y-104435569D01*
X97447412Y-104475901D01*
X97322075Y-104572075D01*
X97225901Y-104697411D01*
X97185569Y-104794781D01*
X96524328Y-104133540D01*
X96426268Y-104283632D01*
X96326411Y-104511283D01*
X96265387Y-104752263D01*
X96244859Y-105000000D01*
X95750499Y-105000000D01*
X95750499Y-103755136D01*
X95747585Y-103730009D01*
X95702206Y-103627235D01*
X95622765Y-103547794D01*
X95622764Y-103547793D01*
X95519989Y-103502414D01*
X95497714Y-103499830D01*
X95497704Y-103499829D01*
X95494865Y-103499500D01*
X95492000Y-103499500D01*
X93007991Y-103499500D01*
X93007973Y-103499500D01*
X93005136Y-103499501D01*
X93002313Y-103499828D01*
X93002302Y-103499829D01*
X92980009Y-103502415D01*
X92877235Y-103547793D01*
X92797793Y-103627235D01*
X92752414Y-103730010D01*
X92749830Y-103752285D01*
X92749829Y-103752296D01*
X92749500Y-103755135D01*
X92749500Y-103757991D01*
X92749500Y-103757999D01*
X92749500Y-106242008D01*
X92749500Y-106242025D01*
X91354472Y-106242025D01*
X91385985Y-106070066D01*
X91405345Y-105750000D01*
X91385985Y-105429934D01*
X91328186Y-105114534D01*
X91232791Y-104808402D01*
X91101191Y-104516000D01*
X90935306Y-104241592D01*
X90737554Y-103989181D01*
X90510819Y-103762446D01*
X90341530Y-103629816D01*
X90260766Y-103566541D01*
X90260761Y-103566538D01*
X90258408Y-103564694D01*
X90255851Y-103563148D01*
X90255842Y-103563142D01*
X89986561Y-103400357D01*
X89986558Y-103400355D01*
X89984000Y-103398809D01*
X89691598Y-103267209D01*
X89688748Y-103266320D01*
X89688743Y-103266319D01*
X89388318Y-103172702D01*
X89388306Y-103172699D01*
X89385466Y-103171814D01*
X89382525Y-103171275D01*
X89073011Y-103114554D01*
X89072999Y-103114552D01*
X89070066Y-103114015D01*
X89067078Y-103113834D01*
X89067076Y-103113834D01*
X88752992Y-103094836D01*
X88750000Y-103094655D01*
X88747008Y-103094836D01*
X88432923Y-103113834D01*
X88432919Y-103113834D01*
X88429934Y-103114015D01*
X88427002Y-103114552D01*
X88426988Y-103114554D01*
X88117474Y-103171275D01*
X88117470Y-103171275D01*
X88114534Y-103171814D01*
X88111696Y-103172698D01*
X88111681Y-103172702D01*
X87811256Y-103266319D01*
X87811246Y-103266322D01*
X87808402Y-103267209D01*
X87805683Y-103268432D01*
X87805677Y-103268435D01*
X87518725Y-103397582D01*
X87518717Y-103397586D01*
X87516000Y-103398809D01*
X87513447Y-103400351D01*
X87513438Y-103400357D01*
X87244157Y-103563142D01*
X87244140Y-103563153D01*
X87241592Y-103564694D01*
X87239245Y-103566532D01*
X87239233Y-103566541D01*
X86991535Y-103760601D01*
X86991527Y-103760607D01*
X86989181Y-103762446D01*
X86987079Y-103764547D01*
X86987071Y-103764555D01*
X86764555Y-103987071D01*
X86764547Y-103987079D01*
X86762446Y-103989181D01*
X86760607Y-103991527D01*
X86760601Y-103991535D01*
X86566541Y-104239233D01*
X86566532Y-104239245D01*
X86564694Y-104241592D01*
X86563153Y-104244140D01*
X86563142Y-104244157D01*
X86400357Y-104513438D01*
X86400351Y-104513447D01*
X86398809Y-104516000D01*
X86397586Y-104518717D01*
X86397582Y-104518725D01*
X86292475Y-104752263D01*
X86267209Y-104808402D01*
X86266322Y-104811246D01*
X86266319Y-104811256D01*
X86172702Y-105111681D01*
X86172698Y-105111696D01*
X86171814Y-105114534D01*
X86171275Y-105117470D01*
X86171275Y-105117474D01*
X86114554Y-105426988D01*
X86114552Y-105427002D01*
X86114015Y-105429934D01*
X86113834Y-105432919D01*
X86113834Y-105432923D01*
X86110459Y-105488716D01*
X86094655Y-105750000D01*
X85450500Y-105750000D01*
X85450500Y-101999999D01*
X107444435Y-101999999D01*
X107464632Y-102179258D01*
X107521514Y-102341815D01*
X107524211Y-102349522D01*
X107620184Y-102502262D01*
X107747738Y-102629816D01*
X107900478Y-102725789D01*
X108008851Y-102763710D01*
X108070741Y-102785367D01*
X108070742Y-102785367D01*
X108070745Y-102785368D01*
X108205046Y-102800500D01*
X109284076Y-102800500D01*
X109342267Y-102819407D01*
X109346881Y-102822972D01*
X109413550Y-102877685D01*
X109596046Y-102975232D01*
X109794066Y-103035299D01*
X109794066Y-103035300D01*
X109999999Y-103055583D01*
X109999999Y-103055582D01*
X110000000Y-103055583D01*
X110205934Y-103035300D01*
X110322307Y-102999999D01*
X118694435Y-102999999D01*
X118714632Y-103179258D01*
X118745097Y-103266319D01*
X118774211Y-103349522D01*
X118870184Y-103502262D01*
X118997738Y-103629816D01*
X119150478Y-103725789D01*
X119234347Y-103755136D01*
X119320741Y-103785367D01*
X119320742Y-103785367D01*
X119320745Y-103785368D01*
X119455046Y-103800500D01*
X120284076Y-103800500D01*
X120342267Y-103819407D01*
X120346881Y-103822972D01*
X120413550Y-103877685D01*
X120596046Y-103975232D01*
X120794066Y-104035299D01*
X120794066Y-104035300D01*
X120999999Y-104055583D01*
X120999999Y-104055582D01*
X121000000Y-104055583D01*
X121205934Y-104035300D01*
X121403954Y-103975232D01*
X121586450Y-103877685D01*
X121653118Y-103822972D01*
X121710096Y-103800672D01*
X121715924Y-103800500D01*
X122542187Y-103800500D01*
X122544954Y-103800500D01*
X122679255Y-103785368D01*
X122849522Y-103725789D01*
X123002262Y-103629816D01*
X123129816Y-103502262D01*
X123225789Y-103349522D01*
X123285368Y-103179255D01*
X123305565Y-103000000D01*
X123285368Y-102820745D01*
X123278175Y-102800190D01*
X123252141Y-102725789D01*
X123225789Y-102650478D01*
X123129816Y-102497738D01*
X123002262Y-102370184D01*
X122849522Y-102274211D01*
X122841815Y-102271514D01*
X122679258Y-102214632D01*
X122547699Y-102199809D01*
X122547693Y-102199808D01*
X122544954Y-102199500D01*
X122542187Y-102199500D01*
X121715924Y-102199500D01*
X121657733Y-102180593D01*
X121653119Y-102177028D01*
X121586450Y-102122315D01*
X121403952Y-102024767D01*
X121205933Y-101964699D01*
X121000000Y-101944416D01*
X120794066Y-101964699D01*
X120596047Y-102024767D01*
X120413549Y-102122315D01*
X120346881Y-102177028D01*
X120289904Y-102199328D01*
X120284076Y-102199500D01*
X119455046Y-102199500D01*
X119452307Y-102199808D01*
X119452300Y-102199809D01*
X119320741Y-102214632D01*
X119150480Y-102274210D01*
X118997739Y-102370183D01*
X118870183Y-102497739D01*
X118774210Y-102650480D01*
X118714632Y-102820741D01*
X118694435Y-102999999D01*
X110322307Y-102999999D01*
X110403954Y-102975232D01*
X110586450Y-102877685D01*
X110653118Y-102822972D01*
X110710096Y-102800672D01*
X110715924Y-102800500D01*
X111792187Y-102800500D01*
X111794954Y-102800500D01*
X111929255Y-102785368D01*
X112099522Y-102725789D01*
X112252262Y-102629816D01*
X112379816Y-102502262D01*
X112475789Y-102349522D01*
X112535368Y-102179255D01*
X112555565Y-102000000D01*
X112535368Y-101820745D01*
X112475789Y-101650478D01*
X112379816Y-101497738D01*
X112252262Y-101370184D01*
X112099522Y-101274211D01*
X112091815Y-101271514D01*
X111929258Y-101214632D01*
X111797699Y-101199809D01*
X111797693Y-101199808D01*
X111794954Y-101199500D01*
X111792187Y-101199500D01*
X110715924Y-101199500D01*
X110657733Y-101180593D01*
X110653119Y-101177028D01*
X110586450Y-101122315D01*
X110403952Y-101024767D01*
X110205933Y-100964699D01*
X110000000Y-100944416D01*
X109794066Y-100964699D01*
X109596047Y-101024767D01*
X109413549Y-101122315D01*
X109346881Y-101177028D01*
X109289904Y-101199328D01*
X109284076Y-101199500D01*
X108205046Y-101199500D01*
X108202307Y-101199808D01*
X108202300Y-101199809D01*
X108070741Y-101214632D01*
X107900480Y-101274210D01*
X107747739Y-101370183D01*
X107620183Y-101497739D01*
X107524210Y-101650480D01*
X107464632Y-101820741D01*
X107444435Y-101999999D01*
X85450500Y-101999999D01*
X85450500Y-96500000D01*
X85694616Y-96500000D01*
X85694743Y-96502504D01*
X85705014Y-96705046D01*
X85714140Y-96884984D01*
X85714519Y-96887461D01*
X85714521Y-96887476D01*
X85772132Y-97263538D01*
X85772512Y-97266018D01*
X85773135Y-97268427D01*
X85773138Y-97268438D01*
X85819931Y-97449159D01*
X85869134Y-97639192D01*
X85870005Y-97641544D01*
X85870007Y-97641550D01*
X85923263Y-97785345D01*
X86003013Y-98000675D01*
X86004115Y-98002923D01*
X86004117Y-98002926D01*
X86171668Y-98344505D01*
X86171675Y-98344518D01*
X86172775Y-98346760D01*
X86174103Y-98348892D01*
X86174105Y-98348894D01*
X86375351Y-98671763D01*
X86376680Y-98673895D01*
X86612634Y-98978722D01*
X86722180Y-99093965D01*
X86876493Y-99256303D01*
X86876498Y-99256308D01*
X86878216Y-99258115D01*
X86880116Y-99259746D01*
X87165300Y-99504568D01*
X87170702Y-99509205D01*
X87172745Y-99510627D01*
X87172749Y-99510630D01*
X87300464Y-99599522D01*
X87487089Y-99729417D01*
X87824131Y-99916491D01*
X88178370Y-100068507D01*
X88546171Y-100183905D01*
X88923759Y-100261502D01*
X89307260Y-100300500D01*
X89309771Y-100300500D01*
X89690229Y-100300500D01*
X89692740Y-100300500D01*
X90076241Y-100261502D01*
X90453829Y-100183905D01*
X90821630Y-100068507D01*
X91175869Y-99916491D01*
X91512911Y-99729417D01*
X91829298Y-99509205D01*
X92121784Y-99258115D01*
X92387366Y-98978722D01*
X92623320Y-98673895D01*
X92827225Y-98346760D01*
X92996987Y-98000675D01*
X93130866Y-97639192D01*
X93227488Y-97266018D01*
X93285860Y-96884984D01*
X93305384Y-96500000D01*
X93285860Y-96115016D01*
X93227488Y-95733982D01*
X93130866Y-95360808D01*
X93029966Y-95088373D01*
X93027487Y-95027240D01*
X93061415Y-94976324D01*
X93118792Y-94955073D01*
X93177701Y-94971607D01*
X93188173Y-94979642D01*
X93272783Y-95054031D01*
X93273648Y-95054725D01*
X93927690Y-95579594D01*
X93938984Y-95588657D01*
X94628531Y-96092813D01*
X95340031Y-96565482D01*
X96072048Y-97005708D01*
X96073030Y-97006240D01*
X96073037Y-97006244D01*
X96693276Y-97342267D01*
X96823104Y-97412603D01*
X96824082Y-97413077D01*
X96824097Y-97413085D01*
X97201356Y-97596046D01*
X97591682Y-97785345D01*
X98376229Y-98123182D01*
X99175162Y-98425431D01*
X99986867Y-98691482D01*
X99987919Y-98691775D01*
X99987925Y-98691777D01*
X100251323Y-98765183D01*
X100809705Y-98920798D01*
X101642015Y-99112915D01*
X102482115Y-99267446D01*
X103328309Y-99384079D01*
X103329436Y-99384183D01*
X104177772Y-99462474D01*
X104177775Y-99462474D01*
X104178889Y-99462577D01*
X105032137Y-99502783D01*
X105886330Y-99504616D01*
X106739742Y-99468071D01*
X107590651Y-99393222D01*
X108437338Y-99280221D01*
X109278094Y-99129296D01*
X110111220Y-98940752D01*
X110935034Y-98714968D01*
X111747874Y-98452402D01*
X112548096Y-98153584D01*
X113334085Y-97819116D01*
X114104255Y-97449674D01*
X114857050Y-97046005D01*
X115590949Y-96608924D01*
X116304471Y-96139312D01*
X116996174Y-95638119D01*
X117664663Y-95106357D01*
X117812998Y-94977064D01*
X117869286Y-94953082D01*
X117928921Y-94966766D01*
X117969124Y-95012890D01*
X117974538Y-95073835D01*
X117970883Y-95086077D01*
X117870007Y-95358449D01*
X117870003Y-95358461D01*
X117869134Y-95360808D01*
X117868506Y-95363230D01*
X117868506Y-95363233D01*
X117773138Y-95731561D01*
X117773134Y-95731576D01*
X117772512Y-95733982D01*
X117772132Y-95736456D01*
X117772132Y-95736461D01*
X117714521Y-96112523D01*
X117714519Y-96112540D01*
X117714140Y-96115016D01*
X117714013Y-96117520D01*
X117714012Y-96117530D01*
X117707409Y-96247738D01*
X117694616Y-96500000D01*
X117694743Y-96502504D01*
X117705014Y-96705046D01*
X117714140Y-96884984D01*
X117714519Y-96887461D01*
X117714521Y-96887476D01*
X117772132Y-97263538D01*
X117772512Y-97266018D01*
X117773135Y-97268427D01*
X117773138Y-97268438D01*
X117819931Y-97449159D01*
X117869134Y-97639192D01*
X117870005Y-97641544D01*
X117870007Y-97641550D01*
X117923263Y-97785345D01*
X118003013Y-98000675D01*
X118004115Y-98002923D01*
X118004117Y-98002926D01*
X118171668Y-98344505D01*
X118171675Y-98344518D01*
X118172775Y-98346760D01*
X118174103Y-98348892D01*
X118174105Y-98348894D01*
X118375351Y-98671763D01*
X118376680Y-98673895D01*
X118612634Y-98978722D01*
X118722180Y-99093965D01*
X118876493Y-99256303D01*
X118876498Y-99256308D01*
X118878216Y-99258115D01*
X118880116Y-99259746D01*
X119165300Y-99504568D01*
X119170702Y-99509205D01*
X119172745Y-99510627D01*
X119172749Y-99510630D01*
X119300464Y-99599522D01*
X119487089Y-99729417D01*
X119824131Y-99916491D01*
X120178370Y-100068507D01*
X120546171Y-100183905D01*
X120923759Y-100261502D01*
X121307260Y-100300500D01*
X121309771Y-100300500D01*
X121690229Y-100300500D01*
X121692740Y-100300500D01*
X122076241Y-100261502D01*
X122453829Y-100183905D01*
X122821630Y-100068507D01*
X123175869Y-99916491D01*
X123512911Y-99729417D01*
X123829298Y-99509205D01*
X124121784Y-99258115D01*
X124387366Y-98978722D01*
X124623320Y-98673895D01*
X124827225Y-98346760D01*
X124996987Y-98000675D01*
X125130866Y-97639192D01*
X125227488Y-97266018D01*
X125285860Y-96884984D01*
X125305384Y-96500000D01*
X125285860Y-96115016D01*
X125227488Y-95733982D01*
X125130866Y-95360808D01*
X124996987Y-94999325D01*
X124827225Y-94653240D01*
X124623320Y-94326105D01*
X124387366Y-94021278D01*
X124243228Y-93869645D01*
X124123506Y-93743696D01*
X124123500Y-93743690D01*
X124121784Y-93741885D01*
X123904107Y-93555016D01*
X123831195Y-93492423D01*
X123831188Y-93492418D01*
X123829298Y-93490795D01*
X123827257Y-93489374D01*
X123827250Y-93489369D01*
X123514966Y-93272013D01*
X123514961Y-93272010D01*
X123512911Y-93270583D01*
X123510722Y-93269368D01*
X123510714Y-93269363D01*
X123178062Y-93084726D01*
X123178058Y-93084724D01*
X123175869Y-93083509D01*
X123173577Y-93082525D01*
X123173566Y-93082520D01*
X122823930Y-92932480D01*
X122823929Y-92932479D01*
X122821630Y-92931493D01*
X122453829Y-92816095D01*
X122451377Y-92815591D01*
X122451369Y-92815589D01*
X122078707Y-92739004D01*
X122078692Y-92739001D01*
X122076241Y-92738498D01*
X122073750Y-92738244D01*
X122073739Y-92738243D01*
X121695238Y-92699754D01*
X121695237Y-92699753D01*
X121692740Y-92699500D01*
X121307260Y-92699500D01*
X121304763Y-92699753D01*
X121304761Y-92699754D01*
X120926260Y-92738243D01*
X120926246Y-92738245D01*
X120923759Y-92738498D01*
X120921310Y-92739001D01*
X120921292Y-92739004D01*
X120548630Y-92815589D01*
X120548617Y-92815592D01*
X120546171Y-92816095D01*
X120543783Y-92816844D01*
X120543780Y-92816845D01*
X120321158Y-92886693D01*
X120178370Y-92931493D01*
X120176076Y-92932477D01*
X120176069Y-92932480D01*
X120091773Y-92968654D01*
X120030842Y-92974227D01*
X119978272Y-92942920D01*
X119954143Y-92886693D01*
X119967672Y-92827022D01*
X119978232Y-92812480D01*
X120080228Y-92695968D01*
X120613423Y-92028622D01*
X121116099Y-91337995D01*
X121587240Y-90625482D01*
X121800941Y-90268404D01*
X129049499Y-90268404D01*
X129049500Y-90268417D01*
X129049500Y-105210117D01*
X129049500Y-105210118D01*
X129049500Y-105250000D01*
X129049500Y-105355030D01*
X129085976Y-105561899D01*
X129157821Y-105759291D01*
X129262851Y-105941209D01*
X129262853Y-105941212D01*
X129397875Y-106102124D01*
X129558787Y-106237146D01*
X129558791Y-106237149D01*
X129740709Y-106342179D01*
X129938101Y-106414024D01*
X130144970Y-106450500D01*
X130355030Y-106450500D01*
X130561899Y-106414024D01*
X130759291Y-106342179D01*
X130941209Y-106237149D01*
X131102124Y-106102124D01*
X131237149Y-105941209D01*
X131342179Y-105759291D01*
X131345561Y-105750000D01*
X144094655Y-105750000D01*
X144114015Y-106070066D01*
X144114552Y-106072999D01*
X144114554Y-106073011D01*
X144150652Y-106269989D01*
X144171814Y-106385466D01*
X144172699Y-106388306D01*
X144172702Y-106388318D01*
X144232682Y-106580798D01*
X144267209Y-106691598D01*
X144398809Y-106984000D01*
X144400355Y-106986558D01*
X144400357Y-106986561D01*
X144563142Y-107255842D01*
X144563148Y-107255851D01*
X144564694Y-107258408D01*
X144566538Y-107260761D01*
X144566541Y-107260766D01*
X144575611Y-107272343D01*
X144762446Y-107510819D01*
X144989181Y-107737554D01*
X145241592Y-107935306D01*
X145244152Y-107936853D01*
X145244157Y-107936857D01*
X145341099Y-107995460D01*
X145516000Y-108101191D01*
X145808402Y-108232791D01*
X146114534Y-108328186D01*
X146429934Y-108385985D01*
X146750000Y-108405345D01*
X147070066Y-108385985D01*
X147385466Y-108328186D01*
X147691598Y-108232791D01*
X147984000Y-108101191D01*
X148258408Y-107935306D01*
X148510819Y-107737554D01*
X148737554Y-107510819D01*
X148935306Y-107258408D01*
X149101191Y-106984000D01*
X149232791Y-106691598D01*
X149328186Y-106385466D01*
X149385985Y-106070066D01*
X149405345Y-105750000D01*
X149385985Y-105429934D01*
X149328186Y-105114534D01*
X149232791Y-104808402D01*
X149101191Y-104516000D01*
X148935306Y-104241592D01*
X148737554Y-103989181D01*
X148510819Y-103762446D01*
X148341530Y-103629816D01*
X148260766Y-103566541D01*
X148260761Y-103566538D01*
X148258408Y-103564694D01*
X148255851Y-103563148D01*
X148255842Y-103563142D01*
X147986561Y-103400357D01*
X147986558Y-103400355D01*
X147984000Y-103398809D01*
X147691598Y-103267209D01*
X147688748Y-103266320D01*
X147688743Y-103266319D01*
X147388318Y-103172702D01*
X147388306Y-103172699D01*
X147385466Y-103171814D01*
X147382525Y-103171275D01*
X147073011Y-103114554D01*
X147072999Y-103114552D01*
X147070066Y-103114015D01*
X147067078Y-103113834D01*
X147067076Y-103113834D01*
X146752992Y-103094836D01*
X146750000Y-103094655D01*
X146747008Y-103094836D01*
X146432923Y-103113834D01*
X146432919Y-103113834D01*
X146429934Y-103114015D01*
X146427002Y-103114552D01*
X146426988Y-103114554D01*
X146117474Y-103171275D01*
X146117470Y-103171275D01*
X146114534Y-103171814D01*
X146111696Y-103172698D01*
X146111681Y-103172702D01*
X145811256Y-103266319D01*
X145811246Y-103266322D01*
X145808402Y-103267209D01*
X145805683Y-103268432D01*
X145805677Y-103268435D01*
X145518725Y-103397582D01*
X145518717Y-103397586D01*
X145516000Y-103398809D01*
X145513447Y-103400351D01*
X145513438Y-103400357D01*
X145244157Y-103563142D01*
X145244140Y-103563153D01*
X145241592Y-103564694D01*
X145239245Y-103566532D01*
X145239233Y-103566541D01*
X144991535Y-103760601D01*
X144991527Y-103760607D01*
X144989181Y-103762446D01*
X144987079Y-103764547D01*
X144987071Y-103764555D01*
X144764555Y-103987071D01*
X144764547Y-103987079D01*
X144762446Y-103989181D01*
X144760607Y-103991527D01*
X144760601Y-103991535D01*
X144566541Y-104239233D01*
X144566532Y-104239245D01*
X144564694Y-104241592D01*
X144563153Y-104244140D01*
X144563142Y-104244157D01*
X144400357Y-104513438D01*
X144400351Y-104513447D01*
X144398809Y-104516000D01*
X144397586Y-104518717D01*
X144397582Y-104518725D01*
X144292475Y-104752263D01*
X144267209Y-104808402D01*
X144266322Y-104811246D01*
X144266319Y-104811256D01*
X144172702Y-105111681D01*
X144172698Y-105111696D01*
X144171814Y-105114534D01*
X144171275Y-105117470D01*
X144171275Y-105117474D01*
X144114554Y-105426988D01*
X144114552Y-105427002D01*
X144114015Y-105429934D01*
X144113834Y-105432919D01*
X144113834Y-105432923D01*
X144110459Y-105488716D01*
X144094655Y-105750000D01*
X131345561Y-105750000D01*
X131414024Y-105561899D01*
X131450500Y-105355030D01*
X131450500Y-105250000D01*
X131450500Y-105210118D01*
X131450500Y-97999999D01*
X139694416Y-97999999D01*
X139714699Y-98205933D01*
X139774767Y-98403952D01*
X139872315Y-98586450D01*
X139927028Y-98653118D01*
X139949328Y-98710094D01*
X139949500Y-98715922D01*
X139949500Y-99294954D01*
X139949808Y-99297693D01*
X139949809Y-99297699D01*
X139964632Y-99429258D01*
X139993106Y-99510630D01*
X140024211Y-99599522D01*
X140120184Y-99752262D01*
X140247738Y-99879816D01*
X140400478Y-99975789D01*
X140508851Y-100013710D01*
X140570741Y-100035367D01*
X140570742Y-100035367D01*
X140570745Y-100035368D01*
X140750000Y-100055565D01*
X140929255Y-100035368D01*
X141099522Y-99975789D01*
X141252262Y-99879816D01*
X141379816Y-99752262D01*
X141475789Y-99599522D01*
X141535368Y-99429255D01*
X141550500Y-99294954D01*
X141550500Y-98715922D01*
X141569407Y-98657732D01*
X141572972Y-98653118D01*
X141579130Y-98645613D01*
X141627685Y-98586450D01*
X141725232Y-98403954D01*
X141785300Y-98205934D01*
X141805583Y-98000000D01*
X141785300Y-97794066D01*
X141725232Y-97596046D01*
X141627685Y-97413550D01*
X141572972Y-97346881D01*
X141550672Y-97289904D01*
X141550500Y-97284076D01*
X141550500Y-96707813D01*
X141550500Y-96707812D01*
X141550500Y-96705046D01*
X141535368Y-96570745D01*
X141533526Y-96565482D01*
X141509737Y-96497495D01*
X141475789Y-96400478D01*
X141379816Y-96247738D01*
X141252262Y-96120184D01*
X141099522Y-96024211D01*
X141091815Y-96021514D01*
X140929258Y-95964632D01*
X140750000Y-95944435D01*
X140570741Y-95964632D01*
X140400480Y-96024210D01*
X140247739Y-96120183D01*
X140120183Y-96247739D01*
X140024210Y-96400480D01*
X139964632Y-96570741D01*
X139960330Y-96608924D01*
X139949500Y-96705046D01*
X139949500Y-96707813D01*
X139949500Y-97284076D01*
X139930593Y-97342267D01*
X139927028Y-97346881D01*
X139872315Y-97413549D01*
X139774767Y-97596047D01*
X139714699Y-97794066D01*
X139694416Y-97999999D01*
X131450500Y-97999999D01*
X131450500Y-90227410D01*
X131450500Y-90227409D01*
X131450500Y-90144970D01*
X131414024Y-89938101D01*
X131342179Y-89740709D01*
X131237149Y-89558791D01*
X131236161Y-89557613D01*
X131102124Y-89397875D01*
X130941212Y-89262853D01*
X130941209Y-89262851D01*
X130759291Y-89157821D01*
X130561899Y-89085976D01*
X130561898Y-89085975D01*
X130561896Y-89085975D01*
X130355030Y-89049500D01*
X130144970Y-89049500D01*
X129938103Y-89085975D01*
X129740709Y-89157821D01*
X129558787Y-89262853D01*
X129397875Y-89397875D01*
X129262853Y-89558787D01*
X129157821Y-89740709D01*
X129085975Y-89938103D01*
X129049499Y-90144969D01*
X129049499Y-90268404D01*
X121800941Y-90268404D01*
X122025895Y-89892522D01*
X122431178Y-89140595D01*
X122802270Y-88371220D01*
X123138424Y-87585950D01*
X123438958Y-86786370D01*
X123703267Y-85974096D01*
X123930817Y-85150768D01*
X124121149Y-84318048D01*
X124169861Y-84049999D01*
X140519818Y-84049999D01*
X140540455Y-84206761D01*
X140600964Y-84352841D01*
X140697217Y-84478282D01*
X140793471Y-84552139D01*
X140822659Y-84574536D01*
X140968738Y-84635044D01*
X141125500Y-84655682D01*
X141282262Y-84635044D01*
X141428341Y-84574536D01*
X141489609Y-84527523D01*
X141530747Y-84495958D01*
X141588423Y-84475534D01*
X141591014Y-84475500D01*
X143784486Y-84475500D01*
X143842677Y-84494407D01*
X143844753Y-84495958D01*
X143920803Y-84554313D01*
X143947159Y-84574536D01*
X144093238Y-84635044D01*
X144250000Y-84655682D01*
X144406762Y-84635044D01*
X144552841Y-84574536D01*
X144678282Y-84478282D01*
X144774536Y-84352841D01*
X144835044Y-84206762D01*
X144855682Y-84050000D01*
X144835044Y-83893238D01*
X144774536Y-83747159D01*
X144680391Y-83624466D01*
X144678282Y-83621717D01*
X144552841Y-83525464D01*
X144406761Y-83464955D01*
X144250000Y-83444318D01*
X144093238Y-83464955D01*
X143947158Y-83525464D01*
X143844753Y-83604042D01*
X143787077Y-83624466D01*
X143784486Y-83624500D01*
X143688772Y-83624500D01*
X143630581Y-83605593D01*
X143594617Y-83556093D01*
X143594617Y-83494907D01*
X143618768Y-83455496D01*
X143701787Y-83372476D01*
X143747090Y-83269873D01*
X143749669Y-83247642D01*
X143749999Y-83241928D01*
X143749999Y-82992541D01*
X143750846Y-82979616D01*
X143754746Y-82949999D01*
X143750846Y-82920382D01*
X143749999Y-82907457D01*
X143749999Y-82654001D01*
X143749998Y-82654000D01*
X141550001Y-82654000D01*
X141550000Y-82654001D01*
X141550000Y-82907459D01*
X141549153Y-82920380D01*
X141545253Y-82949999D01*
X141549153Y-82979619D01*
X141550000Y-82992540D01*
X141550000Y-83241936D01*
X141550329Y-83247624D01*
X141552910Y-83269874D01*
X141598212Y-83372476D01*
X141681232Y-83455496D01*
X141709009Y-83510013D01*
X141699438Y-83570445D01*
X141656173Y-83613710D01*
X141611228Y-83624500D01*
X141591014Y-83624500D01*
X141532823Y-83605593D01*
X141530747Y-83604042D01*
X141428341Y-83525464D01*
X141282261Y-83464955D01*
X141125500Y-83444318D01*
X140968738Y-83464955D01*
X140822658Y-83525464D01*
X140697217Y-83621717D01*
X140600964Y-83747158D01*
X140540455Y-83893238D01*
X140519818Y-84049999D01*
X124169861Y-84049999D01*
X124273877Y-83477619D01*
X124365794Y-82800000D01*
X138894318Y-82800000D01*
X138914955Y-82956761D01*
X138975464Y-83102841D01*
X139071717Y-83228282D01*
X139167971Y-83302139D01*
X139197159Y-83324536D01*
X139343238Y-83385044D01*
X139500000Y-83405682D01*
X139656762Y-83385044D01*
X139802841Y-83324536D01*
X139928282Y-83228282D01*
X140024536Y-83102841D01*
X140085044Y-82956762D01*
X140105682Y-82800000D01*
X140085044Y-82643238D01*
X140085044Y-82643236D01*
X140058036Y-82578033D01*
X140050500Y-82540148D01*
X140050500Y-81849999D01*
X141545254Y-81849999D01*
X141549153Y-81879616D01*
X141550000Y-81892538D01*
X141550000Y-82145999D01*
X141550001Y-82146000D01*
X142395999Y-82146000D01*
X142396000Y-82145999D01*
X142904000Y-82145999D01*
X142904001Y-82146000D01*
X143749998Y-82146000D01*
X143749999Y-82145999D01*
X143749999Y-81892543D01*
X143750846Y-81879621D01*
X143754745Y-81849999D01*
X143750846Y-81820377D01*
X143749999Y-81807455D01*
X143749999Y-81558063D01*
X143749670Y-81552375D01*
X143747089Y-81530125D01*
X143701787Y-81427523D01*
X143622476Y-81348212D01*
X143519873Y-81302909D01*
X143497642Y-81300330D01*
X143491928Y-81300000D01*
X143242537Y-81300000D01*
X143229615Y-81299153D01*
X143199999Y-81295254D01*
X143170382Y-81299153D01*
X143157461Y-81300000D01*
X142904000Y-81300000D01*
X142904000Y-82145999D01*
X142396000Y-82145999D01*
X142396000Y-82145998D01*
X142396000Y-81300001D01*
X142395999Y-81300000D01*
X142142540Y-81300000D01*
X142129619Y-81299153D01*
X142099999Y-81295253D01*
X142070380Y-81299153D01*
X142057459Y-81300000D01*
X141808063Y-81300000D01*
X141802375Y-81300329D01*
X141780125Y-81302910D01*
X141677523Y-81348212D01*
X141598212Y-81427523D01*
X141552909Y-81530126D01*
X141550330Y-81552357D01*
X141550000Y-81558071D01*
X141550000Y-81807461D01*
X141549153Y-81820382D01*
X141545254Y-81849999D01*
X140050500Y-81849999D01*
X140050500Y-80799999D01*
X145894318Y-80799999D01*
X145914955Y-80956761D01*
X145975464Y-81102841D01*
X146071717Y-81228282D01*
X146158998Y-81295254D01*
X146197159Y-81324536D01*
X146343238Y-81385044D01*
X146500000Y-81405682D01*
X146656762Y-81385044D01*
X146802841Y-81324536D01*
X146928282Y-81228282D01*
X147024536Y-81102841D01*
X147085044Y-80956762D01*
X147105682Y-80800000D01*
X147085044Y-80643238D01*
X147024536Y-80497159D01*
X146996114Y-80460118D01*
X146945958Y-80394753D01*
X146925534Y-80337077D01*
X146925500Y-80334486D01*
X146925500Y-77465513D01*
X146944407Y-77407322D01*
X146945958Y-77405246D01*
X147024536Y-77302841D01*
X147085044Y-77156762D01*
X147105682Y-77000000D01*
X147085044Y-76843238D01*
X147024536Y-76697159D01*
X146944795Y-76593238D01*
X146928282Y-76571717D01*
X146802841Y-76475464D01*
X146656761Y-76414955D01*
X146500000Y-76394318D01*
X146343238Y-76414955D01*
X146197158Y-76475464D01*
X146071717Y-76571717D01*
X145975464Y-76697158D01*
X145914955Y-76843238D01*
X145894318Y-76999999D01*
X145914955Y-77156761D01*
X145975464Y-77302841D01*
X146054042Y-77405246D01*
X146074466Y-77462922D01*
X146074500Y-77465513D01*
X146074500Y-80334486D01*
X146055593Y-80392677D01*
X146054042Y-80394753D01*
X145975464Y-80497158D01*
X145914955Y-80643238D01*
X145894318Y-80799999D01*
X140050500Y-80799999D01*
X140050500Y-77259850D01*
X140058036Y-77221964D01*
X140085044Y-77156761D01*
X140098725Y-77052841D01*
X140105682Y-77000000D01*
X140085044Y-76843238D01*
X140046423Y-76750000D01*
X143394318Y-76750000D01*
X143414955Y-76906761D01*
X143475464Y-77052841D01*
X143571717Y-77178282D01*
X143667970Y-77252139D01*
X143697159Y-77274536D01*
X143843238Y-77335044D01*
X144000000Y-77355682D01*
X144156762Y-77335044D01*
X144302841Y-77274536D01*
X144428282Y-77178282D01*
X144524536Y-77052841D01*
X144585044Y-76906762D01*
X144605682Y-76750000D01*
X144585044Y-76593238D01*
X144585044Y-76593236D01*
X144558036Y-76528033D01*
X144550500Y-76490148D01*
X144550500Y-74259850D01*
X144558036Y-74221964D01*
X144585044Y-74156761D01*
X144605682Y-74000000D01*
X144585044Y-73843238D01*
X144524536Y-73697159D01*
X144502139Y-73667971D01*
X144428282Y-73571717D01*
X144302841Y-73475464D01*
X144156761Y-73414955D01*
X144000000Y-73394318D01*
X143843238Y-73414955D01*
X143697158Y-73475464D01*
X143571717Y-73571717D01*
X143475464Y-73697158D01*
X143414955Y-73843238D01*
X143394318Y-74000000D01*
X143414955Y-74156761D01*
X143441964Y-74221964D01*
X143449500Y-74259850D01*
X143449500Y-76490148D01*
X143441964Y-76528033D01*
X143414955Y-76593236D01*
X143394318Y-76750000D01*
X140046423Y-76750000D01*
X140024536Y-76697159D01*
X139944795Y-76593238D01*
X139928282Y-76571717D01*
X139802841Y-76475464D01*
X139656761Y-76414955D01*
X139500000Y-76394318D01*
X139343238Y-76414955D01*
X139197158Y-76475464D01*
X139071717Y-76571717D01*
X138975464Y-76697158D01*
X138914955Y-76843238D01*
X138894318Y-77000000D01*
X138914955Y-77156761D01*
X138941964Y-77221964D01*
X138949500Y-77259850D01*
X138949500Y-82540148D01*
X138941964Y-82578033D01*
X138914955Y-82643236D01*
X138894318Y-82800000D01*
X124365794Y-82800000D01*
X124388694Y-82631176D01*
X124465368Y-81780429D01*
X124503743Y-80927097D01*
X124503754Y-80540952D01*
X124507387Y-80514386D01*
X125176779Y-78112523D01*
X125182547Y-78101239D01*
X125185286Y-78089233D01*
X125185289Y-78089231D01*
X125193904Y-78051478D01*
X125195031Y-78047031D01*
X125199203Y-78032066D01*
X125199203Y-78032058D01*
X125199903Y-78029548D01*
X125200499Y-78025197D01*
X125200499Y-78007097D01*
X125200610Y-78002405D01*
X125203025Y-77951490D01*
X125200499Y-77939070D01*
X125200499Y-75900993D01*
X129458217Y-75900993D01*
X129596239Y-75974768D01*
X129794165Y-76034808D01*
X130000000Y-76055081D01*
X130205834Y-76034808D01*
X130403760Y-75974768D01*
X130541782Y-75900994D01*
X129999999Y-75359211D01*
X129458217Y-75900993D01*
X125200499Y-75900993D01*
X125200499Y-75000000D01*
X128944918Y-75000000D01*
X128965191Y-75205834D01*
X129025231Y-75403763D01*
X129099004Y-75541783D01*
X129640788Y-74999999D01*
X130359211Y-74999999D01*
X130900994Y-75541782D01*
X130974768Y-75403760D01*
X131034808Y-75205834D01*
X131055081Y-75000000D01*
X131034808Y-74794165D01*
X130974768Y-74596239D01*
X130900993Y-74458217D01*
X130359211Y-74999999D01*
X129640788Y-74999999D01*
X129099004Y-74458216D01*
X129025231Y-74596236D01*
X128965191Y-74794165D01*
X128944918Y-75000000D01*
X125200499Y-75000000D01*
X125200499Y-74099004D01*
X129458215Y-74099004D01*
X129999999Y-74640788D01*
X130541783Y-74099004D01*
X130403763Y-74025231D01*
X130205834Y-73965191D01*
X130000000Y-73944918D01*
X129794165Y-73965191D01*
X129596236Y-74025231D01*
X129458215Y-74099004D01*
X125200499Y-74099004D01*
X125200499Y-72500000D01*
X135194435Y-72500000D01*
X135214632Y-72679258D01*
X135234864Y-72737076D01*
X135274211Y-72849522D01*
X135370184Y-73002262D01*
X135497738Y-73129816D01*
X135650478Y-73225789D01*
X135758851Y-73263710D01*
X135820741Y-73285367D01*
X135820742Y-73285367D01*
X135820745Y-73285368D01*
X135955046Y-73300500D01*
X136784076Y-73300500D01*
X136842267Y-73319407D01*
X136846881Y-73322972D01*
X136913550Y-73377685D01*
X137096046Y-73475232D01*
X137294066Y-73535300D01*
X137500000Y-73555583D01*
X137705934Y-73535300D01*
X137903954Y-73475232D01*
X138086450Y-73377685D01*
X138153118Y-73322972D01*
X138210096Y-73300672D01*
X138215924Y-73300500D01*
X139042187Y-73300500D01*
X139044954Y-73300500D01*
X139179255Y-73285368D01*
X139349522Y-73225789D01*
X139502262Y-73129816D01*
X139629816Y-73002262D01*
X139725789Y-72849522D01*
X139785368Y-72679255D01*
X139805565Y-72500000D01*
X139785368Y-72320745D01*
X139725789Y-72150478D01*
X139629816Y-71997738D01*
X139502262Y-71870184D01*
X139349522Y-71774211D01*
X139341815Y-71771514D01*
X139179258Y-71714632D01*
X139047699Y-71699809D01*
X139047693Y-71699808D01*
X139044954Y-71699500D01*
X139042187Y-71699500D01*
X138215924Y-71699500D01*
X138157733Y-71680593D01*
X138153119Y-71677028D01*
X138086450Y-71622315D01*
X137903952Y-71524767D01*
X137705933Y-71464699D01*
X137500000Y-71444416D01*
X137294066Y-71464699D01*
X137096047Y-71524767D01*
X136913549Y-71622315D01*
X136846881Y-71677028D01*
X136789904Y-71699328D01*
X136784076Y-71699500D01*
X135955046Y-71699500D01*
X135952307Y-71699808D01*
X135952300Y-71699809D01*
X135820741Y-71714632D01*
X135650480Y-71774210D01*
X135497739Y-71870183D01*
X135370183Y-71997739D01*
X135274210Y-72150480D01*
X135214632Y-72320741D01*
X135194435Y-72500000D01*
X125200499Y-72500000D01*
X125200499Y-69510330D01*
X125200506Y-69442231D01*
X125200509Y-69405534D01*
X125199712Y-69400500D01*
X125170962Y-69218886D01*
X125117980Y-69055794D01*
X125112577Y-69039162D01*
X125026793Y-68870784D01*
X125000949Y-68835212D01*
X124957531Y-68775449D01*
X124915721Y-68717901D01*
X124895018Y-68697198D01*
X124782100Y-68584278D01*
X124629216Y-68473206D01*
X124488899Y-68401719D01*
X124460837Y-68387422D01*
X124281111Y-68329038D01*
X124281105Y-68329036D01*
X124094466Y-68299490D01*
X124033160Y-68299496D01*
X124032331Y-68299404D01*
X123999597Y-68299500D01*
X123941252Y-68299505D01*
X123940420Y-68299671D01*
X122720093Y-68303212D01*
X122661848Y-68284473D01*
X122625741Y-68235078D01*
X122625563Y-68173893D01*
X122661383Y-68124289D01*
X122690166Y-68109753D01*
X122821630Y-68068507D01*
X123175869Y-67916491D01*
X123512911Y-67729417D01*
X123829298Y-67509205D01*
X124121784Y-67258115D01*
X124387366Y-66978722D01*
X124623320Y-66673895D01*
X124827225Y-66346760D01*
X124996987Y-66000675D01*
X125130866Y-65639192D01*
X125227488Y-65266018D01*
X125285860Y-64884984D01*
X125300110Y-64604000D01*
X127604710Y-64604000D01*
X127614738Y-64712216D01*
X127673064Y-64917210D01*
X127768059Y-65107988D01*
X127896500Y-65278069D01*
X128054000Y-65421650D01*
X128235206Y-65533848D01*
X128433941Y-65610839D01*
X128495999Y-65622439D01*
X128496000Y-65622439D01*
X128496000Y-64783674D01*
X128607685Y-64834680D01*
X128714237Y-64850000D01*
X128785763Y-64850000D01*
X128892315Y-64834680D01*
X129003999Y-64783675D01*
X129003999Y-65622439D01*
X129066057Y-65610839D01*
X129264793Y-65533848D01*
X129445999Y-65421650D01*
X129603499Y-65278069D01*
X129705423Y-65143102D01*
X130099500Y-65143102D01*
X130099850Y-65146019D01*
X130099851Y-65146030D01*
X130110122Y-65231562D01*
X130165639Y-65372343D01*
X130257077Y-65492922D01*
X130377656Y-65584360D01*
X130377657Y-65584360D01*
X130377658Y-65584361D01*
X130518436Y-65639877D01*
X130606898Y-65650500D01*
X130609850Y-65650500D01*
X131890150Y-65650500D01*
X131893102Y-65650500D01*
X131981564Y-65639877D01*
X132122342Y-65584361D01*
X132242922Y-65492922D01*
X132334361Y-65372342D01*
X132389877Y-65231564D01*
X132400500Y-65143102D01*
X132400500Y-63556898D01*
X132389877Y-63468436D01*
X132334361Y-63327658D01*
X132334360Y-63327657D01*
X132334360Y-63327656D01*
X132242922Y-63207077D01*
X132122343Y-63115639D01*
X131981562Y-63060122D01*
X131896030Y-63049851D01*
X131896019Y-63049850D01*
X131893102Y-63049500D01*
X130606898Y-63049500D01*
X130603981Y-63049850D01*
X130603969Y-63049851D01*
X130518437Y-63060122D01*
X130377656Y-63115639D01*
X130257077Y-63207077D01*
X130165639Y-63327656D01*
X130110122Y-63468437D01*
X130099851Y-63553969D01*
X130099850Y-63553981D01*
X130099500Y-63556898D01*
X130099500Y-65143102D01*
X129705423Y-65143102D01*
X129731940Y-65107988D01*
X129826935Y-64917210D01*
X129885261Y-64712216D01*
X129895290Y-64604000D01*
X129181116Y-64604000D01*
X129209493Y-64559844D01*
X129250000Y-64421889D01*
X129250000Y-64278111D01*
X129209493Y-64140156D01*
X129181116Y-64096000D01*
X129895289Y-64096000D01*
X129885261Y-63987783D01*
X129826935Y-63782789D01*
X129731940Y-63592011D01*
X129603499Y-63421930D01*
X129445999Y-63278349D01*
X129264793Y-63166151D01*
X129066058Y-63089160D01*
X129003999Y-63077559D01*
X129003999Y-63916324D01*
X128892315Y-63865320D01*
X128785763Y-63850000D01*
X128714237Y-63850000D01*
X128607685Y-63865320D01*
X128496000Y-63916325D01*
X128496000Y-63077560D01*
X128433941Y-63089161D01*
X128235206Y-63166151D01*
X128054000Y-63278349D01*
X127896500Y-63421930D01*
X127768059Y-63592011D01*
X127673064Y-63782789D01*
X127614738Y-63987783D01*
X127604710Y-64096000D01*
X128318884Y-64096000D01*
X128290507Y-64140156D01*
X128250000Y-64278111D01*
X128250000Y-64421889D01*
X128290507Y-64559844D01*
X128318884Y-64604000D01*
X127604710Y-64604000D01*
X125300110Y-64604000D01*
X125305384Y-64500000D01*
X125285860Y-64115016D01*
X125227488Y-63733982D01*
X125130866Y-63360808D01*
X124996987Y-62999325D01*
X124827598Y-62654000D01*
X144927560Y-62654000D01*
X144939160Y-62716058D01*
X145016151Y-62914793D01*
X145128349Y-63095999D01*
X145271930Y-63253499D01*
X145442011Y-63381940D01*
X145632789Y-63476935D01*
X145837783Y-63535261D01*
X145946000Y-63545288D01*
X145946000Y-62833674D01*
X146057685Y-62884680D01*
X146164237Y-62900000D01*
X146235763Y-62900000D01*
X146342315Y-62884680D01*
X146454000Y-62833674D01*
X146454000Y-63545287D01*
X146562216Y-63535261D01*
X146767210Y-63476935D01*
X146957988Y-63381940D01*
X147128069Y-63253499D01*
X147271650Y-63095999D01*
X147383848Y-62914793D01*
X147460839Y-62716058D01*
X147472439Y-62654000D01*
X146631116Y-62654000D01*
X146659493Y-62609844D01*
X146700000Y-62471889D01*
X146700000Y-62328111D01*
X146659493Y-62190156D01*
X146631116Y-62146000D01*
X147472439Y-62146000D01*
X147472439Y-62145999D01*
X147460839Y-62083941D01*
X147383848Y-61885206D01*
X147271650Y-61704000D01*
X147128069Y-61546500D01*
X146957988Y-61418059D01*
X146767210Y-61323064D01*
X146562216Y-61264738D01*
X146453999Y-61254710D01*
X146453999Y-61966325D01*
X146342315Y-61915320D01*
X146235763Y-61900000D01*
X146164237Y-61900000D01*
X146057685Y-61915320D01*
X145946000Y-61966325D01*
X145946000Y-61254710D01*
X145837783Y-61264738D01*
X145632789Y-61323064D01*
X145442011Y-61418059D01*
X145271930Y-61546500D01*
X145128349Y-61704000D01*
X145016151Y-61885206D01*
X144939160Y-62083941D01*
X144927560Y-62145999D01*
X144927561Y-62146000D01*
X145768884Y-62146000D01*
X145740507Y-62190156D01*
X145700000Y-62328111D01*
X145700000Y-62471889D01*
X145740507Y-62609844D01*
X145768884Y-62654000D01*
X144927560Y-62654000D01*
X124827598Y-62654000D01*
X124827225Y-62653240D01*
X124623320Y-62326105D01*
X124387366Y-62021278D01*
X124224100Y-61849522D01*
X124123506Y-61743696D01*
X124123500Y-61743690D01*
X124121784Y-61741885D01*
X124048832Y-61679258D01*
X123840021Y-61500000D01*
X127694435Y-61500000D01*
X127714632Y-61679258D01*
X127741316Y-61755514D01*
X127774211Y-61849522D01*
X127870184Y-62002262D01*
X127997738Y-62129816D01*
X128150478Y-62225789D01*
X128258851Y-62263710D01*
X128320741Y-62285367D01*
X128320742Y-62285367D01*
X128320745Y-62285368D01*
X128455046Y-62300500D01*
X129284076Y-62300500D01*
X129342267Y-62319407D01*
X129346881Y-62322972D01*
X129353710Y-62328576D01*
X129413550Y-62377685D01*
X129596046Y-62475232D01*
X129794066Y-62535300D01*
X130000000Y-62555583D01*
X130205934Y-62535300D01*
X130403954Y-62475232D01*
X130586450Y-62377685D01*
X130646290Y-62328576D01*
X130653119Y-62322972D01*
X130710096Y-62300672D01*
X130715924Y-62300500D01*
X131542187Y-62300500D01*
X131544954Y-62300500D01*
X131679255Y-62285368D01*
X131849522Y-62225789D01*
X132002262Y-62129816D01*
X132129816Y-62002262D01*
X132225789Y-61849522D01*
X132285368Y-61679255D01*
X132305565Y-61500000D01*
X132285368Y-61320745D01*
X132225789Y-61150478D01*
X132129816Y-60997738D01*
X132002262Y-60870184D01*
X131849522Y-60774211D01*
X131841815Y-60771514D01*
X131679258Y-60714632D01*
X131547699Y-60699809D01*
X131547693Y-60699808D01*
X131544954Y-60699500D01*
X131542187Y-60699500D01*
X130715924Y-60699500D01*
X130657733Y-60680593D01*
X130653119Y-60677028D01*
X130586450Y-60622315D01*
X130403952Y-60524767D01*
X130205933Y-60464699D01*
X130000000Y-60444416D01*
X129794066Y-60464699D01*
X129596047Y-60524767D01*
X129413549Y-60622315D01*
X129346881Y-60677028D01*
X129289904Y-60699328D01*
X129284076Y-60699500D01*
X128455046Y-60699500D01*
X128452307Y-60699808D01*
X128452300Y-60699809D01*
X128320741Y-60714632D01*
X128150480Y-60774210D01*
X127997739Y-60870183D01*
X127870183Y-60997739D01*
X127774210Y-61150480D01*
X127714632Y-61320741D01*
X127694435Y-61500000D01*
X123840021Y-61500000D01*
X123831195Y-61492423D01*
X123831188Y-61492418D01*
X123829298Y-61490795D01*
X123827257Y-61489374D01*
X123827250Y-61489369D01*
X123514966Y-61272013D01*
X123514961Y-61272010D01*
X123512911Y-61270583D01*
X123510722Y-61269368D01*
X123510714Y-61269363D01*
X123178062Y-61084726D01*
X123178058Y-61084724D01*
X123175869Y-61083509D01*
X123173577Y-61082525D01*
X123173566Y-61082520D01*
X122823930Y-60932480D01*
X122823929Y-60932479D01*
X122821630Y-60931493D01*
X122453829Y-60816095D01*
X122451377Y-60815591D01*
X122451369Y-60815589D01*
X122078707Y-60739004D01*
X122078692Y-60739001D01*
X122076241Y-60738498D01*
X122073750Y-60738244D01*
X122073739Y-60738243D01*
X121695238Y-60699754D01*
X121695237Y-60699753D01*
X121692740Y-60699500D01*
X121307260Y-60699500D01*
X121304763Y-60699753D01*
X121304761Y-60699754D01*
X120926260Y-60738243D01*
X120926246Y-60738245D01*
X120923759Y-60738498D01*
X120921310Y-60739001D01*
X120921292Y-60739004D01*
X120548630Y-60815589D01*
X120548617Y-60815592D01*
X120546171Y-60816095D01*
X120543783Y-60816844D01*
X120543780Y-60816845D01*
X120373776Y-60870184D01*
X120178370Y-60931493D01*
X120176076Y-60932477D01*
X120176069Y-60932480D01*
X119826433Y-61082520D01*
X119826414Y-61082529D01*
X119824131Y-61083509D01*
X119821948Y-61084720D01*
X119821937Y-61084726D01*
X119489285Y-61269363D01*
X119489268Y-61269373D01*
X119487089Y-61270583D01*
X119485047Y-61272004D01*
X119485033Y-61272013D01*
X119172749Y-61489369D01*
X119172733Y-61489381D01*
X119170702Y-61490795D01*
X119168820Y-61492410D01*
X119168804Y-61492423D01*
X118880116Y-61740253D01*
X118880106Y-61740262D01*
X118878216Y-61741885D01*
X118876508Y-61743681D01*
X118876493Y-61743696D01*
X118614357Y-62019465D01*
X118612634Y-62021278D01*
X118611111Y-62023245D01*
X118611102Y-62023256D01*
X118379105Y-62322972D01*
X118376680Y-62326105D01*
X118375358Y-62328225D01*
X118375351Y-62328236D01*
X118174105Y-62651105D01*
X118174098Y-62651116D01*
X118172775Y-62653240D01*
X118171679Y-62655472D01*
X118171668Y-62655494D01*
X118004117Y-62997073D01*
X118004112Y-62997083D01*
X118003013Y-62999325D01*
X118002141Y-63001678D01*
X118002139Y-63001684D01*
X117870007Y-63358449D01*
X117870003Y-63358461D01*
X117869134Y-63360808D01*
X117868506Y-63363230D01*
X117868506Y-63363233D01*
X117773138Y-63731561D01*
X117773134Y-63731576D01*
X117772512Y-63733982D01*
X117772132Y-63736456D01*
X117772132Y-63736461D01*
X117714521Y-64112523D01*
X117714519Y-64112540D01*
X117714140Y-64115016D01*
X117714013Y-64117520D01*
X117714012Y-64117530D01*
X117704529Y-64304528D01*
X117694616Y-64500000D01*
X117694743Y-64502504D01*
X117712365Y-64850000D01*
X117714140Y-64884984D01*
X117714519Y-64887461D01*
X117714521Y-64887476D01*
X117767234Y-65231564D01*
X117772512Y-65266018D01*
X117773135Y-65268427D01*
X117773138Y-65268438D01*
X117818169Y-65442354D01*
X117869134Y-65639192D01*
X117870005Y-65641544D01*
X117870007Y-65641550D01*
X117971764Y-65916302D01*
X117974244Y-65977437D01*
X117940316Y-66028354D01*
X117882939Y-66049604D01*
X117824030Y-66033070D01*
X117815045Y-66026317D01*
X117440114Y-65709635D01*
X117439295Y-65708943D01*
X117438453Y-65708294D01*
X117438436Y-65708280D01*
X116770052Y-65192907D01*
X116770047Y-65192903D01*
X116769166Y-65192224D01*
X116076704Y-64705841D01*
X116075809Y-64705270D01*
X116075788Y-64705256D01*
X115541842Y-64364660D01*
X115363281Y-64250759D01*
X115362353Y-64250224D01*
X115362329Y-64250209D01*
X114631256Y-63828426D01*
X114631229Y-63828411D01*
X114630310Y-63827881D01*
X113954175Y-63476935D01*
X113880226Y-63438552D01*
X113880219Y-63438548D01*
X113879245Y-63438043D01*
X113758274Y-63381940D01*
X113112560Y-63082476D01*
X113112549Y-63082471D01*
X113111574Y-63082019D01*
X112910242Y-62999325D01*
X112329860Y-62760941D01*
X112329837Y-62760932D01*
X112328819Y-62760514D01*
X112024571Y-62651105D01*
X111533549Y-62474531D01*
X111533531Y-62474525D01*
X111532530Y-62474165D01*
X111531496Y-62473844D01*
X111531477Y-62473838D01*
X110725325Y-62223863D01*
X110725304Y-62223857D01*
X110724285Y-62223541D01*
X110723264Y-62223273D01*
X110723248Y-62223269D01*
X109906751Y-62009414D01*
X109906722Y-62009407D01*
X109905687Y-62009136D01*
X109904621Y-62008907D01*
X109904596Y-62008901D01*
X109079427Y-61831606D01*
X109079397Y-61831600D01*
X109078358Y-61831377D01*
X109077309Y-61831200D01*
X109077288Y-61831196D01*
X108245027Y-61690799D01*
X108244989Y-61690793D01*
X108243937Y-61690616D01*
X108242844Y-61690481D01*
X108242835Y-61690480D01*
X107405166Y-61587265D01*
X107405163Y-61587264D01*
X107404078Y-61587131D01*
X107403001Y-61587046D01*
X107402974Y-61587044D01*
X106561573Y-61521216D01*
X106561565Y-61521215D01*
X106560446Y-61521128D01*
X106559321Y-61521090D01*
X106559317Y-61521090D01*
X105715839Y-61492775D01*
X105715801Y-61492774D01*
X105714712Y-61492738D01*
X105713603Y-61492750D01*
X105713589Y-61492750D01*
X104869666Y-61502003D01*
X104869630Y-61502004D01*
X104868552Y-61502016D01*
X104867462Y-61502076D01*
X104867448Y-61502077D01*
X104024750Y-61548883D01*
X104024724Y-61548884D01*
X104023644Y-61548945D01*
X104022534Y-61549056D01*
X104022526Y-61549057D01*
X103182787Y-61633318D01*
X103182781Y-61633318D01*
X103181662Y-61633431D01*
X103180597Y-61633585D01*
X103180556Y-61633591D01*
X102345359Y-61755148D01*
X102345311Y-61755155D01*
X102344274Y-61755307D01*
X102343222Y-61755508D01*
X102343188Y-61755514D01*
X101514200Y-61914128D01*
X101514183Y-61914131D01*
X101513141Y-61914331D01*
X101512137Y-61914569D01*
X101512099Y-61914578D01*
X100690989Y-62109931D01*
X100690954Y-62109939D01*
X100689908Y-62110189D01*
X100688864Y-62110486D01*
X100688845Y-62110492D01*
X99877259Y-62342192D01*
X99877249Y-62342195D01*
X99876209Y-62342492D01*
X99875210Y-62342825D01*
X99875171Y-62342838D01*
X99074687Y-62610434D01*
X99074660Y-62610443D01*
X99073654Y-62610780D01*
X99072647Y-62611167D01*
X99072631Y-62611173D01*
X98284862Y-62914125D01*
X98284845Y-62914131D01*
X98283836Y-62914520D01*
X98282828Y-62914959D01*
X98282816Y-62914965D01*
X97509331Y-63252669D01*
X97509303Y-63252681D01*
X97508318Y-63253112D01*
X97507364Y-63253579D01*
X97507334Y-63253594D01*
X96749602Y-63625410D01*
X96749567Y-63625428D01*
X96748638Y-63625884D01*
X96747743Y-63626373D01*
X96747702Y-63626395D01*
X96007255Y-64031575D01*
X96007237Y-64031585D01*
X96006302Y-64032097D01*
X96005396Y-64032646D01*
X96005357Y-64032669D01*
X95283737Y-64470365D01*
X95283700Y-64470388D01*
X95282781Y-64470946D01*
X95281887Y-64471543D01*
X95281845Y-64471571D01*
X94580425Y-64940947D01*
X94580383Y-64940975D01*
X94579508Y-64941562D01*
X94578642Y-64942198D01*
X94578625Y-64942211D01*
X93898771Y-65442354D01*
X93898740Y-65442377D01*
X93897878Y-65443012D01*
X93897040Y-65443687D01*
X93897014Y-65443708D01*
X93240107Y-65973602D01*
X93240068Y-65973634D01*
X93239241Y-65974302D01*
X93238438Y-65975010D01*
X93238419Y-65975027D01*
X93188861Y-66018783D01*
X93132725Y-66043123D01*
X93073004Y-66029819D01*
X93032508Y-65983952D01*
X93026706Y-65923043D01*
X93030497Y-65910193D01*
X93130866Y-65639192D01*
X93227488Y-65266018D01*
X93285860Y-64884984D01*
X93305384Y-64500000D01*
X93285860Y-64115016D01*
X93227488Y-63733982D01*
X93130866Y-63360808D01*
X92996987Y-62999325D01*
X92827225Y-62653240D01*
X92623320Y-62326105D01*
X92387366Y-62021278D01*
X92224100Y-61849522D01*
X92123506Y-61743696D01*
X92123500Y-61743690D01*
X92121784Y-61741885D01*
X92048832Y-61679258D01*
X91831195Y-61492423D01*
X91831188Y-61492418D01*
X91829298Y-61490795D01*
X91827257Y-61489374D01*
X91827250Y-61489369D01*
X91514966Y-61272013D01*
X91514961Y-61272010D01*
X91512911Y-61270583D01*
X91510722Y-61269368D01*
X91510714Y-61269363D01*
X91178062Y-61084726D01*
X91178058Y-61084724D01*
X91175869Y-61083509D01*
X91173577Y-61082525D01*
X91173566Y-61082520D01*
X90823930Y-60932480D01*
X90823929Y-60932479D01*
X90821630Y-60931493D01*
X90453829Y-60816095D01*
X90451377Y-60815591D01*
X90451369Y-60815589D01*
X90078707Y-60739004D01*
X90078692Y-60739001D01*
X90076241Y-60738498D01*
X90073750Y-60738244D01*
X90073739Y-60738243D01*
X89695238Y-60699754D01*
X89695237Y-60699753D01*
X89692740Y-60699500D01*
X89307260Y-60699500D01*
X89304763Y-60699753D01*
X89304761Y-60699754D01*
X88926260Y-60738243D01*
X88926246Y-60738245D01*
X88923759Y-60738498D01*
X88921310Y-60739001D01*
X88921292Y-60739004D01*
X88548630Y-60815589D01*
X88548617Y-60815592D01*
X88546171Y-60816095D01*
X88543783Y-60816844D01*
X88543780Y-60816845D01*
X88373776Y-60870184D01*
X88178370Y-60931493D01*
X88176076Y-60932477D01*
X88176069Y-60932480D01*
X87826433Y-61082520D01*
X87826414Y-61082529D01*
X87824131Y-61083509D01*
X87821948Y-61084720D01*
X87821937Y-61084726D01*
X87489285Y-61269363D01*
X87489268Y-61269373D01*
X87487089Y-61270583D01*
X87485047Y-61272004D01*
X87485033Y-61272013D01*
X87172749Y-61489369D01*
X87172733Y-61489381D01*
X87170702Y-61490795D01*
X87168820Y-61492410D01*
X87168804Y-61492423D01*
X86880116Y-61740253D01*
X86880106Y-61740262D01*
X86878216Y-61741885D01*
X86876508Y-61743681D01*
X86876493Y-61743696D01*
X86614357Y-62019465D01*
X86612634Y-62021278D01*
X86611111Y-62023245D01*
X86611102Y-62023256D01*
X86379105Y-62322972D01*
X86376680Y-62326105D01*
X86375358Y-62328225D01*
X86375351Y-62328236D01*
X86174105Y-62651105D01*
X86174098Y-62651116D01*
X86172775Y-62653240D01*
X86171679Y-62655472D01*
X86171668Y-62655494D01*
X86004117Y-62997073D01*
X86004112Y-62997083D01*
X86003013Y-62999325D01*
X86002141Y-63001678D01*
X86002139Y-63001684D01*
X85870007Y-63358449D01*
X85870003Y-63358461D01*
X85869134Y-63360808D01*
X85868506Y-63363230D01*
X85868506Y-63363233D01*
X85773138Y-63731561D01*
X85773134Y-63731576D01*
X85772512Y-63733982D01*
X85772132Y-63736456D01*
X85772132Y-63736461D01*
X85714521Y-64112523D01*
X85714519Y-64112540D01*
X85714140Y-64115016D01*
X85714013Y-64117520D01*
X85714012Y-64117530D01*
X85704529Y-64304528D01*
X85694616Y-64500000D01*
X85694743Y-64502504D01*
X85712365Y-64850000D01*
X85714140Y-64884984D01*
X85714519Y-64887461D01*
X85714521Y-64887476D01*
X85767234Y-65231564D01*
X85772512Y-65266018D01*
X85773135Y-65268427D01*
X85773138Y-65268438D01*
X85818169Y-65442354D01*
X85869134Y-65639192D01*
X85870005Y-65641544D01*
X85870007Y-65641550D01*
X85969499Y-65910186D01*
X86003013Y-66000675D01*
X86004115Y-66002923D01*
X86004117Y-66002926D01*
X86171668Y-66344505D01*
X86171675Y-66344518D01*
X86172775Y-66346760D01*
X86174103Y-66348892D01*
X86174105Y-66348894D01*
X86375351Y-66671763D01*
X86376680Y-66673895D01*
X86612634Y-66978722D01*
X86653545Y-67021760D01*
X86876493Y-67256303D01*
X86876498Y-67256308D01*
X86878216Y-67258115D01*
X86880116Y-67259746D01*
X87023283Y-67382651D01*
X87170702Y-67509205D01*
X87172745Y-67510627D01*
X87172749Y-67510630D01*
X87243401Y-67559805D01*
X87487089Y-67729417D01*
X87489283Y-67730634D01*
X87489285Y-67730636D01*
X87506505Y-67740194D01*
X87824131Y-67916491D01*
X88178370Y-68068507D01*
X88546171Y-68183905D01*
X88923759Y-68261502D01*
X89307260Y-68300500D01*
X89309771Y-68300500D01*
X89690229Y-68300500D01*
X89692740Y-68300500D01*
X90076241Y-68261502D01*
X90453829Y-68183905D01*
X90821630Y-68068507D01*
X90910590Y-68030330D01*
X90971520Y-68024757D01*
X91024090Y-68056062D01*
X91048219Y-68112289D01*
X91034691Y-68171960D01*
X91024455Y-68186133D01*
X90860701Y-68375143D01*
X90860688Y-68375158D01*
X90859992Y-68375962D01*
X90859352Y-68376770D01*
X90859322Y-68376807D01*
X90335571Y-69038703D01*
X90335549Y-69038731D01*
X90334901Y-69039551D01*
X90334271Y-69040423D01*
X90334263Y-69040435D01*
X90091620Y-69376838D01*
X90088730Y-69380647D01*
X90064710Y-69410769D01*
X90057824Y-69440941D01*
X90054713Y-69454570D01*
X90045702Y-69492674D01*
X90048227Y-69508264D01*
X90049500Y-69524088D01*
X90049500Y-91475906D01*
X90048228Y-91491727D01*
X90045702Y-91507325D01*
X90054713Y-91545429D01*
X90064709Y-91589230D01*
X90088751Y-91619377D01*
X90091640Y-91623185D01*
X90337254Y-91963674D01*
X90388691Y-92028622D01*
X90866882Y-92632418D01*
X90866897Y-92632436D01*
X90867582Y-92633301D01*
X90868319Y-92634150D01*
X91024130Y-92813687D01*
X91047991Y-92870028D01*
X91034179Y-92929634D01*
X90987969Y-92969738D01*
X90927012Y-92975020D01*
X90910320Y-92969553D01*
X90823930Y-92932480D01*
X90823929Y-92932479D01*
X90821630Y-92931493D01*
X90453829Y-92816095D01*
X90451377Y-92815591D01*
X90451369Y-92815589D01*
X90078707Y-92739004D01*
X90078692Y-92739001D01*
X90076241Y-92738498D01*
X90073750Y-92738244D01*
X90073739Y-92738243D01*
X89695238Y-92699754D01*
X89695237Y-92699753D01*
X89692740Y-92699500D01*
X89307260Y-92699500D01*
X89304763Y-92699753D01*
X89304761Y-92699754D01*
X88926260Y-92738243D01*
X88926246Y-92738245D01*
X88923759Y-92738498D01*
X88921310Y-92739001D01*
X88921292Y-92739004D01*
X88548630Y-92815589D01*
X88548617Y-92815592D01*
X88546171Y-92816095D01*
X88543783Y-92816844D01*
X88543780Y-92816845D01*
X88321158Y-92886693D01*
X88178370Y-92931493D01*
X88176076Y-92932477D01*
X88176069Y-92932480D01*
X87826433Y-93082520D01*
X87826414Y-93082529D01*
X87824131Y-93083509D01*
X87821948Y-93084720D01*
X87821937Y-93084726D01*
X87489285Y-93269363D01*
X87489268Y-93269373D01*
X87487089Y-93270583D01*
X87485047Y-93272004D01*
X87485033Y-93272013D01*
X87172749Y-93489369D01*
X87172733Y-93489381D01*
X87170702Y-93490795D01*
X87168820Y-93492410D01*
X87168804Y-93492423D01*
X86880116Y-93740253D01*
X86880106Y-93740262D01*
X86878216Y-93741885D01*
X86876508Y-93743681D01*
X86876493Y-93743696D01*
X86683219Y-93947022D01*
X86612634Y-94021278D01*
X86611111Y-94023245D01*
X86611102Y-94023256D01*
X86378214Y-94324123D01*
X86376680Y-94326105D01*
X86375358Y-94328225D01*
X86375351Y-94328236D01*
X86174105Y-94651105D01*
X86174098Y-94651116D01*
X86172775Y-94653240D01*
X86171679Y-94655472D01*
X86171668Y-94655494D01*
X86004117Y-94997073D01*
X86004112Y-94997083D01*
X86003013Y-94999325D01*
X86002141Y-95001678D01*
X86002139Y-95001684D01*
X85870007Y-95358449D01*
X85870003Y-95358461D01*
X85869134Y-95360808D01*
X85868506Y-95363230D01*
X85868506Y-95363233D01*
X85773138Y-95731561D01*
X85773134Y-95731576D01*
X85772512Y-95733982D01*
X85772132Y-95736456D01*
X85772132Y-95736461D01*
X85714521Y-96112523D01*
X85714519Y-96112540D01*
X85714140Y-96115016D01*
X85714013Y-96117520D01*
X85714012Y-96117530D01*
X85707409Y-96247738D01*
X85694616Y-96500000D01*
X85450500Y-96500000D01*
X85450500Y-56750000D01*
X86094655Y-56750000D01*
X86094836Y-56752992D01*
X86103580Y-56897560D01*
X86114015Y-57070066D01*
X86114552Y-57072999D01*
X86114554Y-57073011D01*
X86145510Y-57241930D01*
X86171814Y-57385466D01*
X86172699Y-57388306D01*
X86172702Y-57388318D01*
X86266319Y-57688743D01*
X86267209Y-57691598D01*
X86398809Y-57984000D01*
X86400355Y-57986558D01*
X86400357Y-57986561D01*
X86563142Y-58255842D01*
X86563148Y-58255851D01*
X86564694Y-58258408D01*
X86566538Y-58260761D01*
X86566541Y-58260766D01*
X86576910Y-58274001D01*
X86762446Y-58510819D01*
X86989181Y-58737554D01*
X87066850Y-58798404D01*
X87219137Y-58917714D01*
X87241592Y-58935306D01*
X87244152Y-58936853D01*
X87244157Y-58936857D01*
X87418751Y-59042402D01*
X87516000Y-59101191D01*
X87808402Y-59232791D01*
X88114534Y-59328186D01*
X88429934Y-59385985D01*
X88750000Y-59405345D01*
X89070066Y-59385985D01*
X89385466Y-59328186D01*
X89691598Y-59232791D01*
X89984000Y-59101191D01*
X90258408Y-58935306D01*
X90288124Y-58912025D01*
X92469500Y-58912025D01*
X92469501Y-58914864D01*
X92469828Y-58917687D01*
X92469829Y-58917697D01*
X92471657Y-58933458D01*
X92472415Y-58939991D01*
X92492451Y-58985368D01*
X92517793Y-59042764D01*
X92517794Y-59042765D01*
X92597235Y-59122206D01*
X92700009Y-59167585D01*
X92725135Y-59170500D01*
X94514864Y-59170499D01*
X94539991Y-59167585D01*
X94642765Y-59122206D01*
X94722206Y-59042765D01*
X94767585Y-58939991D01*
X94770500Y-58914865D01*
X94770499Y-58020000D01*
X95004571Y-58020000D01*
X95024244Y-58232310D01*
X95082544Y-58437210D01*
X95082596Y-58437391D01*
X95177634Y-58628256D01*
X95306125Y-58798404D01*
X95463699Y-58942053D01*
X95595622Y-59023736D01*
X95644981Y-59054298D01*
X95766027Y-59101191D01*
X95843804Y-59131322D01*
X96053388Y-59170500D01*
X96053390Y-59170500D01*
X96266612Y-59170500D01*
X96476195Y-59131322D01*
X96477442Y-59130839D01*
X96675019Y-59054298D01*
X96856302Y-58942052D01*
X97013872Y-58798407D01*
X97142366Y-58628255D01*
X97237405Y-58437389D01*
X97295756Y-58232310D01*
X97315429Y-58020000D01*
X97544571Y-58020000D01*
X97564244Y-58232310D01*
X97622544Y-58437210D01*
X97622596Y-58437391D01*
X97717634Y-58628256D01*
X97846125Y-58798404D01*
X98003699Y-58942053D01*
X98135622Y-59023736D01*
X98184981Y-59054298D01*
X98306027Y-59101191D01*
X98383804Y-59131322D01*
X98593388Y-59170500D01*
X98593390Y-59170500D01*
X98806612Y-59170500D01*
X99016195Y-59131322D01*
X99017442Y-59130839D01*
X99215019Y-59054298D01*
X99396302Y-58942052D01*
X99553872Y-58798407D01*
X99682366Y-58628255D01*
X99777405Y-58437389D01*
X99835756Y-58232310D01*
X99855429Y-58020000D01*
X100084571Y-58020000D01*
X100104244Y-58232310D01*
X100162544Y-58437210D01*
X100162596Y-58437391D01*
X100257634Y-58628256D01*
X100386125Y-58798404D01*
X100543699Y-58942053D01*
X100675622Y-59023736D01*
X100724981Y-59054298D01*
X100846027Y-59101191D01*
X100923804Y-59131322D01*
X101133388Y-59170500D01*
X101133390Y-59170500D01*
X101346612Y-59170500D01*
X101556195Y-59131322D01*
X101557442Y-59130839D01*
X101755019Y-59054298D01*
X101936302Y-58942052D01*
X102093872Y-58798407D01*
X102222366Y-58628255D01*
X102317405Y-58437389D01*
X102363894Y-58274000D01*
X102656627Y-58274000D01*
X102703064Y-58437210D01*
X102798059Y-58627988D01*
X102926500Y-58798069D01*
X103084000Y-58941650D01*
X103265206Y-59053848D01*
X103463941Y-59130839D01*
X103525999Y-59142439D01*
X103526000Y-59142439D01*
X103526000Y-58453674D01*
X103637685Y-58504680D01*
X103744237Y-58520000D01*
X103815763Y-58520000D01*
X103922315Y-58504680D01*
X104034000Y-58453674D01*
X104034000Y-59142439D01*
X104096058Y-59130839D01*
X104294793Y-59053848D01*
X104475999Y-58941650D01*
X104633499Y-58798069D01*
X104761940Y-58627988D01*
X104856935Y-58437210D01*
X104903373Y-58274000D01*
X104211116Y-58274000D01*
X104239493Y-58229844D01*
X104280000Y-58091889D01*
X104280000Y-58020000D01*
X105164571Y-58020000D01*
X105184244Y-58232310D01*
X105242544Y-58437210D01*
X105242596Y-58437391D01*
X105337634Y-58628256D01*
X105466125Y-58798404D01*
X105623699Y-58942053D01*
X105755622Y-59023736D01*
X105804981Y-59054298D01*
X105926027Y-59101191D01*
X106003804Y-59131322D01*
X106213388Y-59170500D01*
X106213390Y-59170500D01*
X106426612Y-59170500D01*
X106636195Y-59131322D01*
X106637442Y-59130839D01*
X106835019Y-59054298D01*
X107016302Y-58942052D01*
X107173872Y-58798407D01*
X107302366Y-58628255D01*
X107397405Y-58437389D01*
X107455756Y-58232310D01*
X107475429Y-58020000D01*
X107704571Y-58020000D01*
X107724244Y-58232310D01*
X107782544Y-58437210D01*
X107782596Y-58437391D01*
X107877634Y-58628256D01*
X108006125Y-58798404D01*
X108163699Y-58942053D01*
X108295622Y-59023736D01*
X108344981Y-59054298D01*
X108466027Y-59101191D01*
X108543804Y-59131322D01*
X108753388Y-59170500D01*
X108753390Y-59170500D01*
X108966612Y-59170500D01*
X109176195Y-59131322D01*
X109177442Y-59130839D01*
X109375019Y-59054298D01*
X109556302Y-58942052D01*
X109713872Y-58798407D01*
X109842366Y-58628255D01*
X109937405Y-58437389D01*
X109995756Y-58232310D01*
X110015429Y-58020000D01*
X110244571Y-58020000D01*
X110264244Y-58232310D01*
X110322544Y-58437210D01*
X110322596Y-58437391D01*
X110417634Y-58628256D01*
X110546125Y-58798404D01*
X110703699Y-58942053D01*
X110835622Y-59023736D01*
X110884981Y-59054298D01*
X111006027Y-59101191D01*
X111083804Y-59131322D01*
X111293388Y-59170500D01*
X111293390Y-59170500D01*
X111506612Y-59170500D01*
X111716195Y-59131322D01*
X111717442Y-59130839D01*
X111915019Y-59054298D01*
X112096302Y-58942052D01*
X112253872Y-58798407D01*
X112382366Y-58628255D01*
X112477405Y-58437389D01*
X112535756Y-58232310D01*
X112555429Y-58020000D01*
X112784571Y-58020000D01*
X112804244Y-58232310D01*
X112862544Y-58437210D01*
X112862596Y-58437391D01*
X112957634Y-58628256D01*
X113086125Y-58798404D01*
X113243699Y-58942053D01*
X113375622Y-59023736D01*
X113424981Y-59054298D01*
X113546027Y-59101191D01*
X113623804Y-59131322D01*
X113833388Y-59170500D01*
X113833390Y-59170500D01*
X114046612Y-59170500D01*
X114256195Y-59131322D01*
X114257442Y-59130839D01*
X114455019Y-59054298D01*
X114636302Y-58942052D01*
X114793872Y-58798407D01*
X114922366Y-58628255D01*
X115017405Y-58437389D01*
X115075756Y-58232310D01*
X115095429Y-58020000D01*
X115324571Y-58020000D01*
X115344244Y-58232310D01*
X115402544Y-58437210D01*
X115402596Y-58437391D01*
X115497634Y-58628256D01*
X115626125Y-58798404D01*
X115783699Y-58942053D01*
X115915622Y-59023736D01*
X115964981Y-59054298D01*
X116086027Y-59101191D01*
X116163804Y-59131322D01*
X116373388Y-59170500D01*
X116373390Y-59170500D01*
X116586612Y-59170500D01*
X116796195Y-59131322D01*
X116797442Y-59130839D01*
X116995019Y-59054298D01*
X117176302Y-58942052D01*
X117333872Y-58798407D01*
X117462366Y-58628255D01*
X117557405Y-58437389D01*
X117615756Y-58232310D01*
X117635429Y-58020000D01*
X117864571Y-58020000D01*
X117884244Y-58232310D01*
X117942544Y-58437210D01*
X117942596Y-58437391D01*
X118037634Y-58628256D01*
X118166125Y-58798404D01*
X118323699Y-58942053D01*
X118455622Y-59023736D01*
X118504981Y-59054298D01*
X118626027Y-59101191D01*
X118703804Y-59131322D01*
X118913388Y-59170500D01*
X118913390Y-59170500D01*
X119126612Y-59170500D01*
X119336195Y-59131322D01*
X119337442Y-59130839D01*
X119535019Y-59054298D01*
X119716302Y-58942052D01*
X119873872Y-58798407D01*
X120002366Y-58628255D01*
X120097405Y-58437389D01*
X120155756Y-58232310D01*
X120175429Y-58020000D01*
X120404571Y-58020000D01*
X120424244Y-58232310D01*
X120482544Y-58437210D01*
X120482596Y-58437391D01*
X120577634Y-58628256D01*
X120706125Y-58798404D01*
X120863699Y-58942053D01*
X120995622Y-59023736D01*
X121044981Y-59054298D01*
X121166027Y-59101191D01*
X121243804Y-59131322D01*
X121453388Y-59170500D01*
X121453390Y-59170500D01*
X121666612Y-59170500D01*
X121876195Y-59131322D01*
X121877442Y-59130839D01*
X122075019Y-59054298D01*
X122256302Y-58942052D01*
X122413872Y-58798407D01*
X122542366Y-58628255D01*
X122637405Y-58437389D01*
X122683894Y-58274000D01*
X122976627Y-58274000D01*
X123023064Y-58437210D01*
X123118059Y-58627988D01*
X123246500Y-58798069D01*
X123404000Y-58941650D01*
X123585206Y-59053848D01*
X123783941Y-59130839D01*
X123845999Y-59142439D01*
X123846000Y-59142439D01*
X123846000Y-58453674D01*
X123957685Y-58504680D01*
X124064237Y-58520000D01*
X124135763Y-58520000D01*
X124242315Y-58504680D01*
X124354000Y-58453674D01*
X124354000Y-59142439D01*
X124416058Y-59130839D01*
X124614793Y-59053848D01*
X124795999Y-58941650D01*
X124953499Y-58798069D01*
X125081940Y-58627988D01*
X125176935Y-58437210D01*
X125223373Y-58274000D01*
X124531116Y-58274000D01*
X124559493Y-58229844D01*
X124600000Y-58091889D01*
X124600000Y-58020000D01*
X125484571Y-58020000D01*
X125504244Y-58232310D01*
X125562544Y-58437210D01*
X125562596Y-58437391D01*
X125657634Y-58628256D01*
X125786125Y-58798404D01*
X125943699Y-58942053D01*
X126075622Y-59023736D01*
X126124981Y-59054298D01*
X126246027Y-59101191D01*
X126323804Y-59131322D01*
X126533388Y-59170500D01*
X126533390Y-59170500D01*
X126746612Y-59170500D01*
X126956195Y-59131322D01*
X126957442Y-59130839D01*
X127155019Y-59054298D01*
X127336302Y-58942052D01*
X127493872Y-58798407D01*
X127622366Y-58628255D01*
X127717405Y-58437389D01*
X127775756Y-58232310D01*
X127795429Y-58020000D01*
X128024571Y-58020000D01*
X128044244Y-58232310D01*
X128102544Y-58437210D01*
X128102596Y-58437391D01*
X128197634Y-58628256D01*
X128326125Y-58798404D01*
X128483699Y-58942053D01*
X128615622Y-59023736D01*
X128664981Y-59054298D01*
X128786027Y-59101191D01*
X128863804Y-59131322D01*
X129073388Y-59170500D01*
X129073390Y-59170500D01*
X129286612Y-59170500D01*
X129496195Y-59131322D01*
X129497442Y-59130839D01*
X129695019Y-59054298D01*
X129876302Y-58942052D01*
X130033872Y-58798407D01*
X130162366Y-58628255D01*
X130257405Y-58437389D01*
X130315756Y-58232310D01*
X130335429Y-58020000D01*
X130564571Y-58020000D01*
X130584244Y-58232310D01*
X130642544Y-58437210D01*
X130642596Y-58437391D01*
X130737634Y-58628256D01*
X130866125Y-58798404D01*
X131023699Y-58942053D01*
X131155622Y-59023736D01*
X131204981Y-59054298D01*
X131326027Y-59101191D01*
X131403804Y-59131322D01*
X131613388Y-59170500D01*
X131613390Y-59170500D01*
X131826612Y-59170500D01*
X132036195Y-59131322D01*
X132037442Y-59130839D01*
X132235019Y-59054298D01*
X132416302Y-58942052D01*
X132573872Y-58798407D01*
X132702366Y-58628255D01*
X132797405Y-58437389D01*
X132855756Y-58232310D01*
X132875429Y-58020000D01*
X133104571Y-58020000D01*
X133124244Y-58232310D01*
X133182544Y-58437210D01*
X133182596Y-58437391D01*
X133277634Y-58628256D01*
X133406125Y-58798404D01*
X133563699Y-58942053D01*
X133695622Y-59023736D01*
X133744981Y-59054298D01*
X133866027Y-59101191D01*
X133943804Y-59131322D01*
X134153388Y-59170500D01*
X134153390Y-59170500D01*
X134366612Y-59170500D01*
X134576195Y-59131322D01*
X134577442Y-59130839D01*
X134775019Y-59054298D01*
X134956302Y-58942052D01*
X135113872Y-58798407D01*
X135242366Y-58628255D01*
X135337405Y-58437389D01*
X135395756Y-58232310D01*
X135415429Y-58020000D01*
X135644571Y-58020000D01*
X135664244Y-58232310D01*
X135722544Y-58437210D01*
X135722596Y-58437391D01*
X135817634Y-58628256D01*
X135946125Y-58798404D01*
X136103699Y-58942053D01*
X136235622Y-59023736D01*
X136284981Y-59054298D01*
X136406027Y-59101191D01*
X136483804Y-59131322D01*
X136693388Y-59170500D01*
X136693390Y-59170500D01*
X136906612Y-59170500D01*
X137116195Y-59131322D01*
X137117442Y-59130839D01*
X137315019Y-59054298D01*
X137496302Y-58942052D01*
X137653872Y-58798407D01*
X137782366Y-58628255D01*
X137877405Y-58437389D01*
X137935756Y-58232310D01*
X137955429Y-58020000D01*
X138184571Y-58020000D01*
X138204244Y-58232310D01*
X138262544Y-58437210D01*
X138262596Y-58437391D01*
X138357634Y-58628256D01*
X138486125Y-58798404D01*
X138643699Y-58942053D01*
X138775622Y-59023736D01*
X138824981Y-59054298D01*
X138946027Y-59101191D01*
X139023804Y-59131322D01*
X139233388Y-59170500D01*
X139233390Y-59170500D01*
X139446612Y-59170500D01*
X139656195Y-59131322D01*
X139657442Y-59130839D01*
X139855019Y-59054298D01*
X140036302Y-58942052D01*
X140193872Y-58798407D01*
X140322366Y-58628255D01*
X140417405Y-58437389D01*
X140463894Y-58274000D01*
X140756627Y-58274000D01*
X140803064Y-58437210D01*
X140898059Y-58627988D01*
X141026500Y-58798069D01*
X141184000Y-58941650D01*
X141365206Y-59053848D01*
X141563941Y-59130839D01*
X141626000Y-59142439D01*
X141626000Y-58453674D01*
X141737685Y-58504680D01*
X141844237Y-58520000D01*
X141915763Y-58520000D01*
X142022315Y-58504680D01*
X142134000Y-58453674D01*
X142134000Y-59142439D01*
X142196058Y-59130839D01*
X142394793Y-59053848D01*
X142575999Y-58941650D01*
X142733499Y-58798069D01*
X142861940Y-58627988D01*
X142956935Y-58437210D01*
X143003373Y-58274000D01*
X142311116Y-58274000D01*
X142339493Y-58229844D01*
X142380000Y-58091889D01*
X142380000Y-57948111D01*
X142339493Y-57810156D01*
X142311116Y-57766000D01*
X143003373Y-57766000D01*
X142956935Y-57602789D01*
X142861940Y-57412011D01*
X142733499Y-57241930D01*
X142575999Y-57098349D01*
X142394793Y-56986151D01*
X142196058Y-56909161D01*
X142134000Y-56897560D01*
X142134000Y-57586325D01*
X142022315Y-57535320D01*
X141915763Y-57520000D01*
X141844237Y-57520000D01*
X141737685Y-57535320D01*
X141626000Y-57586325D01*
X141626000Y-56897560D01*
X141563941Y-56909161D01*
X141365206Y-56986151D01*
X141184000Y-57098349D01*
X141026500Y-57241930D01*
X140898059Y-57412011D01*
X140803064Y-57602789D01*
X140756627Y-57766000D01*
X141448884Y-57766000D01*
X141420507Y-57810156D01*
X141380000Y-57948111D01*
X141380000Y-58091889D01*
X141420507Y-58229844D01*
X141448884Y-58274000D01*
X140756627Y-58274000D01*
X140463894Y-58274000D01*
X140475756Y-58232310D01*
X140495429Y-58020000D01*
X140475756Y-57807690D01*
X140417405Y-57602611D01*
X140322366Y-57411745D01*
X140322365Y-57411744D01*
X140322365Y-57411743D01*
X140193874Y-57241595D01*
X140036300Y-57097946D01*
X139855021Y-56985703D01*
X139855019Y-56985702D01*
X139812898Y-56969384D01*
X139656195Y-56908677D01*
X139446612Y-56869500D01*
X139446610Y-56869500D01*
X139233390Y-56869500D01*
X139233388Y-56869500D01*
X139023804Y-56908677D01*
X138824978Y-56985703D01*
X138643699Y-57097946D01*
X138486125Y-57241595D01*
X138357634Y-57411743D01*
X138262596Y-57602608D01*
X138262595Y-57602611D01*
X138238088Y-57688743D01*
X138204244Y-57807690D01*
X138187670Y-57986561D01*
X138184571Y-58020000D01*
X137955429Y-58020000D01*
X137935756Y-57807690D01*
X137877405Y-57602611D01*
X137782366Y-57411745D01*
X137782365Y-57411744D01*
X137782365Y-57411743D01*
X137653874Y-57241595D01*
X137496300Y-57097946D01*
X137315021Y-56985703D01*
X137315019Y-56985702D01*
X137272898Y-56969384D01*
X137116195Y-56908677D01*
X136906612Y-56869500D01*
X136906610Y-56869500D01*
X136693390Y-56869500D01*
X136693388Y-56869500D01*
X136483804Y-56908677D01*
X136284978Y-56985703D01*
X136103699Y-57097946D01*
X135946125Y-57241595D01*
X135817634Y-57411743D01*
X135722596Y-57602608D01*
X135722595Y-57602611D01*
X135698088Y-57688743D01*
X135664244Y-57807690D01*
X135647670Y-57986561D01*
X135644571Y-58020000D01*
X135415429Y-58020000D01*
X135395756Y-57807690D01*
X135337405Y-57602611D01*
X135242366Y-57411745D01*
X135242365Y-57411744D01*
X135242365Y-57411743D01*
X135113874Y-57241595D01*
X134956300Y-57097946D01*
X134775021Y-56985703D01*
X134775019Y-56985702D01*
X134732898Y-56969384D01*
X134576195Y-56908677D01*
X134366612Y-56869500D01*
X134366610Y-56869500D01*
X134153390Y-56869500D01*
X134153388Y-56869500D01*
X133943804Y-56908677D01*
X133744978Y-56985703D01*
X133563699Y-57097946D01*
X133406125Y-57241595D01*
X133277634Y-57411743D01*
X133182596Y-57602608D01*
X133182595Y-57602611D01*
X133124244Y-57807690D01*
X133104571Y-58020000D01*
X132875429Y-58020000D01*
X132855756Y-57807690D01*
X132797405Y-57602611D01*
X132702366Y-57411745D01*
X132702365Y-57411744D01*
X132702365Y-57411743D01*
X132573874Y-57241595D01*
X132416300Y-57097946D01*
X132235021Y-56985703D01*
X132235019Y-56985702D01*
X132192898Y-56969384D01*
X132036195Y-56908677D01*
X131826612Y-56869500D01*
X131826610Y-56869500D01*
X131613390Y-56869500D01*
X131613388Y-56869500D01*
X131403804Y-56908677D01*
X131204978Y-56985703D01*
X131023699Y-57097946D01*
X130866125Y-57241595D01*
X130737634Y-57411743D01*
X130642596Y-57602608D01*
X130642595Y-57602611D01*
X130584244Y-57807690D01*
X130564571Y-58020000D01*
X130335429Y-58020000D01*
X130315756Y-57807690D01*
X130257405Y-57602611D01*
X130162366Y-57411745D01*
X130162365Y-57411744D01*
X130162365Y-57411743D01*
X130033874Y-57241595D01*
X129876300Y-57097946D01*
X129695021Y-56985703D01*
X129695019Y-56985702D01*
X129652898Y-56969384D01*
X129496195Y-56908677D01*
X129286612Y-56869500D01*
X129286610Y-56869500D01*
X129073390Y-56869500D01*
X129073388Y-56869500D01*
X128863804Y-56908677D01*
X128664978Y-56985703D01*
X128483699Y-57097946D01*
X128326125Y-57241595D01*
X128197634Y-57411743D01*
X128102596Y-57602608D01*
X128102595Y-57602611D01*
X128044244Y-57807690D01*
X128024571Y-58020000D01*
X127795429Y-58020000D01*
X127775756Y-57807690D01*
X127717405Y-57602611D01*
X127622366Y-57411745D01*
X127622365Y-57411744D01*
X127622365Y-57411743D01*
X127493874Y-57241595D01*
X127336300Y-57097946D01*
X127155021Y-56985703D01*
X127155019Y-56985702D01*
X127112898Y-56969384D01*
X126956195Y-56908677D01*
X126746612Y-56869500D01*
X126746610Y-56869500D01*
X126533390Y-56869500D01*
X126533388Y-56869500D01*
X126323804Y-56908677D01*
X126124978Y-56985703D01*
X125943699Y-57097946D01*
X125786125Y-57241595D01*
X125657634Y-57411743D01*
X125562596Y-57602608D01*
X125562595Y-57602611D01*
X125538088Y-57688743D01*
X125504244Y-57807690D01*
X125487670Y-57986561D01*
X125484571Y-58020000D01*
X124600000Y-58020000D01*
X124600000Y-57948111D01*
X124559493Y-57810156D01*
X124531116Y-57766000D01*
X125223373Y-57766000D01*
X125176935Y-57602789D01*
X125081940Y-57412011D01*
X124953499Y-57241930D01*
X124795999Y-57098349D01*
X124614793Y-56986151D01*
X124416058Y-56909161D01*
X124353999Y-56897560D01*
X124353999Y-57586324D01*
X124242315Y-57535320D01*
X124135763Y-57520000D01*
X124064237Y-57520000D01*
X123957685Y-57535320D01*
X123846000Y-57586325D01*
X123846000Y-56897560D01*
X123783941Y-56909161D01*
X123585206Y-56986151D01*
X123404000Y-57098349D01*
X123246500Y-57241930D01*
X123118059Y-57412011D01*
X123023064Y-57602789D01*
X122976627Y-57766000D01*
X123668884Y-57766000D01*
X123640507Y-57810156D01*
X123600000Y-57948111D01*
X123600000Y-58091889D01*
X123640507Y-58229844D01*
X123668884Y-58274000D01*
X122976627Y-58274000D01*
X122683894Y-58274000D01*
X122695756Y-58232310D01*
X122715429Y-58020000D01*
X122695756Y-57807690D01*
X122637405Y-57602611D01*
X122542366Y-57411745D01*
X122542365Y-57411744D01*
X122542365Y-57411743D01*
X122413874Y-57241595D01*
X122256300Y-57097946D01*
X122075021Y-56985703D01*
X122075019Y-56985702D01*
X122032898Y-56969384D01*
X121876195Y-56908677D01*
X121666612Y-56869500D01*
X121666610Y-56869500D01*
X121453390Y-56869500D01*
X121453388Y-56869500D01*
X121243804Y-56908677D01*
X121044978Y-56985703D01*
X120863699Y-57097946D01*
X120706125Y-57241595D01*
X120577634Y-57411743D01*
X120482596Y-57602608D01*
X120482595Y-57602611D01*
X120424244Y-57807690D01*
X120404571Y-58020000D01*
X120175429Y-58020000D01*
X120155756Y-57807690D01*
X120097405Y-57602611D01*
X120002366Y-57411745D01*
X120002365Y-57411744D01*
X120002365Y-57411743D01*
X119873874Y-57241595D01*
X119716300Y-57097946D01*
X119535021Y-56985703D01*
X119535019Y-56985702D01*
X119492898Y-56969384D01*
X119336195Y-56908677D01*
X119126612Y-56869500D01*
X119126610Y-56869500D01*
X118913390Y-56869500D01*
X118913388Y-56869500D01*
X118703804Y-56908677D01*
X118504978Y-56985703D01*
X118323699Y-57097946D01*
X118166125Y-57241595D01*
X118037634Y-57411743D01*
X117942596Y-57602608D01*
X117942595Y-57602611D01*
X117884244Y-57807690D01*
X117864571Y-58020000D01*
X117635429Y-58020000D01*
X117615756Y-57807690D01*
X117557405Y-57602611D01*
X117462366Y-57411745D01*
X117462365Y-57411744D01*
X117462365Y-57411743D01*
X117333874Y-57241595D01*
X117176300Y-57097946D01*
X116995021Y-56985703D01*
X116995019Y-56985702D01*
X116952898Y-56969384D01*
X116796195Y-56908677D01*
X116586612Y-56869500D01*
X116586610Y-56869500D01*
X116373390Y-56869500D01*
X116373388Y-56869500D01*
X116163804Y-56908677D01*
X115964978Y-56985703D01*
X115783699Y-57097946D01*
X115626125Y-57241595D01*
X115497634Y-57411743D01*
X115402596Y-57602608D01*
X115402595Y-57602611D01*
X115378088Y-57688743D01*
X115344244Y-57807690D01*
X115327670Y-57986561D01*
X115324571Y-58020000D01*
X115095429Y-58020000D01*
X115075756Y-57807690D01*
X115017405Y-57602611D01*
X114922366Y-57411745D01*
X114922365Y-57411744D01*
X114922365Y-57411743D01*
X114793874Y-57241595D01*
X114636300Y-57097946D01*
X114455021Y-56985703D01*
X114455019Y-56985702D01*
X114412898Y-56969384D01*
X114256195Y-56908677D01*
X114046612Y-56869500D01*
X114046610Y-56869500D01*
X113833390Y-56869500D01*
X113833388Y-56869500D01*
X113623804Y-56908677D01*
X113424978Y-56985703D01*
X113243699Y-57097946D01*
X113086125Y-57241595D01*
X112957634Y-57411743D01*
X112862596Y-57602608D01*
X112862595Y-57602611D01*
X112838088Y-57688743D01*
X112804244Y-57807690D01*
X112787670Y-57986561D01*
X112784571Y-58020000D01*
X112555429Y-58020000D01*
X112535756Y-57807690D01*
X112477405Y-57602611D01*
X112382366Y-57411745D01*
X112382365Y-57411744D01*
X112382365Y-57411743D01*
X112253874Y-57241595D01*
X112096300Y-57097946D01*
X111915021Y-56985703D01*
X111915019Y-56985702D01*
X111872898Y-56969384D01*
X111716195Y-56908677D01*
X111506612Y-56869500D01*
X111506610Y-56869500D01*
X111293390Y-56869500D01*
X111293388Y-56869500D01*
X111083804Y-56908677D01*
X110884978Y-56985703D01*
X110703699Y-57097946D01*
X110546125Y-57241595D01*
X110417634Y-57411743D01*
X110322596Y-57602608D01*
X110322595Y-57602611D01*
X110264244Y-57807690D01*
X110244571Y-58020000D01*
X110015429Y-58020000D01*
X109995756Y-57807690D01*
X109937405Y-57602611D01*
X109842366Y-57411745D01*
X109842365Y-57411744D01*
X109842365Y-57411743D01*
X109713874Y-57241595D01*
X109556300Y-57097946D01*
X109375021Y-56985703D01*
X109375019Y-56985702D01*
X109332898Y-56969384D01*
X109176195Y-56908677D01*
X108966612Y-56869500D01*
X108966610Y-56869500D01*
X108753390Y-56869500D01*
X108753388Y-56869500D01*
X108543804Y-56908677D01*
X108344978Y-56985703D01*
X108163699Y-57097946D01*
X108006125Y-57241595D01*
X107877634Y-57411743D01*
X107782596Y-57602608D01*
X107782595Y-57602611D01*
X107724244Y-57807690D01*
X107704571Y-58020000D01*
X107475429Y-58020000D01*
X107455756Y-57807690D01*
X107397405Y-57602611D01*
X107302366Y-57411745D01*
X107302365Y-57411744D01*
X107302365Y-57411743D01*
X107173874Y-57241595D01*
X107016300Y-57097946D01*
X106835021Y-56985703D01*
X106835019Y-56985702D01*
X106792898Y-56969384D01*
X106636195Y-56908677D01*
X106426612Y-56869500D01*
X106426610Y-56869500D01*
X106213390Y-56869500D01*
X106213388Y-56869500D01*
X106003804Y-56908677D01*
X105804978Y-56985703D01*
X105623699Y-57097946D01*
X105466125Y-57241595D01*
X105337634Y-57411743D01*
X105242596Y-57602608D01*
X105242595Y-57602611D01*
X105184244Y-57807690D01*
X105164571Y-58020000D01*
X104280000Y-58020000D01*
X104280000Y-57948111D01*
X104239493Y-57810156D01*
X104211116Y-57766000D01*
X104903373Y-57766000D01*
X104856935Y-57602789D01*
X104761940Y-57412011D01*
X104633499Y-57241930D01*
X104475999Y-57098349D01*
X104294793Y-56986151D01*
X104096058Y-56909161D01*
X104034000Y-56897560D01*
X104034000Y-57586325D01*
X103922315Y-57535320D01*
X103815763Y-57520000D01*
X103744237Y-57520000D01*
X103637685Y-57535320D01*
X103526000Y-57586325D01*
X103526000Y-56897560D01*
X103463941Y-56909161D01*
X103265206Y-56986151D01*
X103084000Y-57098349D01*
X102926500Y-57241930D01*
X102798059Y-57412011D01*
X102703064Y-57602789D01*
X102656627Y-57766000D01*
X103348884Y-57766000D01*
X103320507Y-57810156D01*
X103280000Y-57948111D01*
X103280000Y-58091889D01*
X103320507Y-58229844D01*
X103348884Y-58274000D01*
X102656627Y-58274000D01*
X102363894Y-58274000D01*
X102375756Y-58232310D01*
X102395429Y-58020000D01*
X102375756Y-57807690D01*
X102317405Y-57602611D01*
X102222366Y-57411745D01*
X102222365Y-57411744D01*
X102222365Y-57411743D01*
X102093874Y-57241595D01*
X101936300Y-57097946D01*
X101755021Y-56985703D01*
X101755019Y-56985702D01*
X101712898Y-56969384D01*
X101556195Y-56908677D01*
X101346612Y-56869500D01*
X101346610Y-56869500D01*
X101133390Y-56869500D01*
X101133388Y-56869500D01*
X100923804Y-56908677D01*
X100724978Y-56985703D01*
X100543699Y-57097946D01*
X100386125Y-57241595D01*
X100257634Y-57411743D01*
X100162596Y-57602608D01*
X100162595Y-57602611D01*
X100138088Y-57688743D01*
X100104244Y-57807690D01*
X100087670Y-57986561D01*
X100084571Y-58020000D01*
X99855429Y-58020000D01*
X99835756Y-57807690D01*
X99777405Y-57602611D01*
X99682366Y-57411745D01*
X99682365Y-57411744D01*
X99682365Y-57411743D01*
X99553874Y-57241595D01*
X99396300Y-57097946D01*
X99215021Y-56985703D01*
X99215019Y-56985702D01*
X99172898Y-56969384D01*
X99016195Y-56908677D01*
X98806612Y-56869500D01*
X98806610Y-56869500D01*
X98593390Y-56869500D01*
X98593388Y-56869500D01*
X98383804Y-56908677D01*
X98184978Y-56985703D01*
X98003699Y-57097946D01*
X97846125Y-57241595D01*
X97717634Y-57411743D01*
X97622596Y-57602608D01*
X97622595Y-57602611D01*
X97564244Y-57807690D01*
X97544571Y-58020000D01*
X97315429Y-58020000D01*
X97295756Y-57807690D01*
X97237405Y-57602611D01*
X97142366Y-57411745D01*
X97142365Y-57411744D01*
X97142365Y-57411743D01*
X97013874Y-57241595D01*
X96856300Y-57097946D01*
X96675021Y-56985703D01*
X96675019Y-56985702D01*
X96632898Y-56969384D01*
X96476195Y-56908677D01*
X96266612Y-56869500D01*
X96266610Y-56869500D01*
X96053390Y-56869500D01*
X96053388Y-56869500D01*
X95843804Y-56908677D01*
X95644978Y-56985703D01*
X95463699Y-57097946D01*
X95306125Y-57241595D01*
X95177634Y-57411743D01*
X95082596Y-57602608D01*
X95082595Y-57602611D01*
X95024244Y-57807690D01*
X95004571Y-58020000D01*
X94770499Y-58020000D01*
X94770499Y-57125136D01*
X94767585Y-57100009D01*
X94722206Y-56997235D01*
X94642765Y-56917794D01*
X94642764Y-56917793D01*
X94539989Y-56872414D01*
X94517714Y-56869830D01*
X94517704Y-56869829D01*
X94514865Y-56869500D01*
X94512000Y-56869500D01*
X92727991Y-56869500D01*
X92727973Y-56869500D01*
X92725136Y-56869501D01*
X92722313Y-56869828D01*
X92722302Y-56869829D01*
X92700009Y-56872415D01*
X92597235Y-56917793D01*
X92517793Y-56997235D01*
X92472414Y-57100010D01*
X92469830Y-57122285D01*
X92469829Y-57122296D01*
X92469500Y-57125135D01*
X92469500Y-57127991D01*
X92469500Y-57127999D01*
X92469500Y-58912008D01*
X92469500Y-58912025D01*
X90288124Y-58912025D01*
X90510819Y-58737554D01*
X90737554Y-58510819D01*
X90935306Y-58258408D01*
X91101191Y-57984000D01*
X91232791Y-57691598D01*
X91328186Y-57385466D01*
X91385985Y-57070066D01*
X91405345Y-56750000D01*
X144094655Y-56750000D01*
X144094836Y-56752992D01*
X144103580Y-56897560D01*
X144114015Y-57070066D01*
X144114552Y-57072999D01*
X144114554Y-57073011D01*
X144145510Y-57241930D01*
X144171814Y-57385466D01*
X144172699Y-57388306D01*
X144172702Y-57388318D01*
X144266319Y-57688743D01*
X144267209Y-57691598D01*
X144398809Y-57984000D01*
X144400355Y-57986558D01*
X144400357Y-57986561D01*
X144563142Y-58255842D01*
X144563148Y-58255851D01*
X144564694Y-58258408D01*
X144566538Y-58260761D01*
X144566541Y-58260766D01*
X144576910Y-58274001D01*
X144762446Y-58510819D01*
X144989181Y-58737554D01*
X145066850Y-58798404D01*
X145219137Y-58917714D01*
X145241592Y-58935306D01*
X145244152Y-58936853D01*
X145244157Y-58936857D01*
X145418751Y-59042402D01*
X145516000Y-59101191D01*
X145808402Y-59232791D01*
X146114534Y-59328186D01*
X146429934Y-59385985D01*
X146750000Y-59405345D01*
X147070066Y-59385985D01*
X147385466Y-59328186D01*
X147691598Y-59232791D01*
X147984000Y-59101191D01*
X148258408Y-58935306D01*
X148510819Y-58737554D01*
X148737554Y-58510819D01*
X148935306Y-58258408D01*
X149101191Y-57984000D01*
X149232791Y-57691598D01*
X149328186Y-57385466D01*
X149385985Y-57070066D01*
X149405345Y-56750000D01*
X149385985Y-56429934D01*
X149328186Y-56114534D01*
X149232791Y-55808402D01*
X149101191Y-55516000D01*
X148985960Y-55325384D01*
X148936857Y-55244157D01*
X148936853Y-55244152D01*
X148935306Y-55241592D01*
X148923090Y-55226000D01*
X148795083Y-55062611D01*
X148737554Y-54989181D01*
X148510819Y-54762446D01*
X148258408Y-54564694D01*
X148255851Y-54563148D01*
X148255842Y-54563142D01*
X147986561Y-54400357D01*
X147986558Y-54400355D01*
X147984000Y-54398809D01*
X147918127Y-54369162D01*
X147694322Y-54268435D01*
X147691598Y-54267209D01*
X147688748Y-54266320D01*
X147688743Y-54266319D01*
X147388318Y-54172702D01*
X147388306Y-54172699D01*
X147385466Y-54171814D01*
X147382525Y-54171275D01*
X147073011Y-54114554D01*
X147072999Y-54114552D01*
X147070066Y-54114015D01*
X147067078Y-54113834D01*
X147067076Y-54113834D01*
X146752992Y-54094836D01*
X146750000Y-54094655D01*
X146747008Y-54094836D01*
X146432923Y-54113834D01*
X146432919Y-54113834D01*
X146429934Y-54114015D01*
X146427002Y-54114552D01*
X146426988Y-54114554D01*
X146117474Y-54171275D01*
X146117470Y-54171275D01*
X146114534Y-54171814D01*
X146111696Y-54172698D01*
X146111681Y-54172702D01*
X145811256Y-54266319D01*
X145811246Y-54266322D01*
X145808402Y-54267209D01*
X145805683Y-54268432D01*
X145805677Y-54268435D01*
X145518725Y-54397582D01*
X145518717Y-54397586D01*
X145516000Y-54398809D01*
X145513447Y-54400351D01*
X145513438Y-54400357D01*
X145244157Y-54563142D01*
X145244140Y-54563153D01*
X145241592Y-54564694D01*
X145239245Y-54566532D01*
X145239233Y-54566541D01*
X144991535Y-54760601D01*
X144991527Y-54760607D01*
X144989181Y-54762446D01*
X144987079Y-54764547D01*
X144987071Y-54764555D01*
X144764555Y-54987071D01*
X144764547Y-54987079D01*
X144762446Y-54989181D01*
X144760607Y-54991527D01*
X144760601Y-54991535D01*
X144566541Y-55239233D01*
X144566532Y-55239245D01*
X144564694Y-55241592D01*
X144563153Y-55244140D01*
X144563142Y-55244157D01*
X144400357Y-55513438D01*
X144400351Y-55513447D01*
X144398809Y-55516000D01*
X144397586Y-55518717D01*
X144397582Y-55518725D01*
X144300694Y-55734001D01*
X144267209Y-55808402D01*
X144266322Y-55811246D01*
X144266319Y-55811256D01*
X144172702Y-56111681D01*
X144172698Y-56111696D01*
X144171814Y-56114534D01*
X144171275Y-56117470D01*
X144171275Y-56117474D01*
X144114554Y-56426988D01*
X144114552Y-56427002D01*
X144114015Y-56429934D01*
X144113834Y-56432919D01*
X144113834Y-56432923D01*
X144101883Y-56630500D01*
X144094655Y-56750000D01*
X91405345Y-56750000D01*
X91385985Y-56429934D01*
X91328186Y-56114534D01*
X91232791Y-55808402D01*
X91101191Y-55516000D01*
X91079428Y-55480000D01*
X92464571Y-55480000D01*
X92484244Y-55692310D01*
X92542544Y-55897210D01*
X92542596Y-55897391D01*
X92637634Y-56088256D01*
X92766125Y-56258404D01*
X92923699Y-56402053D01*
X92973556Y-56432923D01*
X93104981Y-56514298D01*
X93261681Y-56575003D01*
X93303804Y-56591322D01*
X93513388Y-56630500D01*
X93513390Y-56630500D01*
X93726612Y-56630500D01*
X93936195Y-56591322D01*
X93937442Y-56590839D01*
X94135019Y-56514298D01*
X94316302Y-56402052D01*
X94473872Y-56258407D01*
X94602366Y-56088255D01*
X94697405Y-55897389D01*
X94755756Y-55692310D01*
X94775429Y-55480000D01*
X95004571Y-55480000D01*
X95024244Y-55692310D01*
X95082544Y-55897210D01*
X95082596Y-55897391D01*
X95177634Y-56088256D01*
X95306125Y-56258404D01*
X95463699Y-56402053D01*
X95513556Y-56432923D01*
X95644981Y-56514298D01*
X95801681Y-56575003D01*
X95843804Y-56591322D01*
X96053388Y-56630500D01*
X96053390Y-56630500D01*
X96266612Y-56630500D01*
X96476195Y-56591322D01*
X96477442Y-56590839D01*
X96675019Y-56514298D01*
X96856302Y-56402052D01*
X97013872Y-56258407D01*
X97142366Y-56088255D01*
X97237405Y-55897389D01*
X97283894Y-55734000D01*
X97576627Y-55734000D01*
X97623064Y-55897210D01*
X97718059Y-56087988D01*
X97846500Y-56258069D01*
X98004000Y-56401650D01*
X98185206Y-56513848D01*
X98383941Y-56590839D01*
X98445999Y-56602439D01*
X98446000Y-56602439D01*
X98446000Y-55913674D01*
X98557685Y-55964680D01*
X98664237Y-55980000D01*
X98735763Y-55980000D01*
X98842315Y-55964680D01*
X98953999Y-55913674D01*
X98954000Y-56602439D01*
X99016058Y-56590839D01*
X99214793Y-56513848D01*
X99395999Y-56401650D01*
X99553499Y-56258069D01*
X99681940Y-56087988D01*
X99776935Y-55897210D01*
X99823373Y-55734000D01*
X99131116Y-55734000D01*
X99159493Y-55689844D01*
X99200000Y-55551889D01*
X99200000Y-55480000D01*
X100084571Y-55480000D01*
X100104244Y-55692310D01*
X100162544Y-55897210D01*
X100162596Y-55897391D01*
X100257634Y-56088256D01*
X100386125Y-56258404D01*
X100543699Y-56402053D01*
X100593556Y-56432923D01*
X100724981Y-56514298D01*
X100881681Y-56575003D01*
X100923804Y-56591322D01*
X101133388Y-56630500D01*
X101133390Y-56630500D01*
X101346612Y-56630500D01*
X101556195Y-56591322D01*
X101557442Y-56590839D01*
X101755019Y-56514298D01*
X101936302Y-56402052D01*
X102093872Y-56258407D01*
X102222366Y-56088255D01*
X102317405Y-55897389D01*
X102375756Y-55692310D01*
X102395429Y-55480000D01*
X102624571Y-55480000D01*
X102644244Y-55692310D01*
X102702544Y-55897210D01*
X102702596Y-55897391D01*
X102797634Y-56088256D01*
X102926125Y-56258404D01*
X103083699Y-56402053D01*
X103133556Y-56432923D01*
X103264981Y-56514298D01*
X103421681Y-56575003D01*
X103463804Y-56591322D01*
X103673388Y-56630500D01*
X103673390Y-56630500D01*
X103886612Y-56630500D01*
X104096195Y-56591322D01*
X104097442Y-56590839D01*
X104295019Y-56514298D01*
X104476302Y-56402052D01*
X104633872Y-56258407D01*
X104762366Y-56088255D01*
X104857405Y-55897389D01*
X104915756Y-55692310D01*
X104935429Y-55480000D01*
X105164571Y-55480000D01*
X105184244Y-55692310D01*
X105242544Y-55897210D01*
X105242596Y-55897391D01*
X105337634Y-56088256D01*
X105466125Y-56258404D01*
X105623699Y-56402053D01*
X105673556Y-56432923D01*
X105804981Y-56514298D01*
X105961681Y-56575003D01*
X106003804Y-56591322D01*
X106213388Y-56630500D01*
X106213390Y-56630500D01*
X106426612Y-56630500D01*
X106636195Y-56591322D01*
X106637442Y-56590839D01*
X106835019Y-56514298D01*
X107016302Y-56402052D01*
X107173872Y-56258407D01*
X107302366Y-56088255D01*
X107397405Y-55897389D01*
X107443894Y-55734000D01*
X107736627Y-55734000D01*
X107783064Y-55897210D01*
X107878059Y-56087988D01*
X108006500Y-56258069D01*
X108164000Y-56401650D01*
X108345206Y-56513848D01*
X108543941Y-56590839D01*
X108605999Y-56602439D01*
X108606000Y-56602439D01*
X108606000Y-55913674D01*
X108717685Y-55964680D01*
X108824237Y-55980000D01*
X108895763Y-55980000D01*
X109002315Y-55964680D01*
X109114000Y-55913674D01*
X109114000Y-56602439D01*
X109176058Y-56590839D01*
X109374793Y-56513848D01*
X109555999Y-56401650D01*
X109713499Y-56258069D01*
X109841940Y-56087988D01*
X109936935Y-55897210D01*
X109983373Y-55734000D01*
X109291116Y-55734000D01*
X109319493Y-55689844D01*
X109360000Y-55551889D01*
X109360000Y-55480000D01*
X110244571Y-55480000D01*
X110264244Y-55692310D01*
X110322544Y-55897210D01*
X110322596Y-55897391D01*
X110417634Y-56088256D01*
X110546125Y-56258404D01*
X110703699Y-56402053D01*
X110753556Y-56432923D01*
X110884981Y-56514298D01*
X111041681Y-56575003D01*
X111083804Y-56591322D01*
X111293388Y-56630500D01*
X111293390Y-56630500D01*
X111506612Y-56630500D01*
X111716195Y-56591322D01*
X111717442Y-56590839D01*
X111915019Y-56514298D01*
X112096302Y-56402052D01*
X112253872Y-56258407D01*
X112382366Y-56088255D01*
X112477405Y-55897389D01*
X112535756Y-55692310D01*
X112555429Y-55480000D01*
X112784571Y-55480000D01*
X112804244Y-55692310D01*
X112862544Y-55897210D01*
X112862596Y-55897391D01*
X112957634Y-56088256D01*
X113086125Y-56258404D01*
X113243699Y-56402053D01*
X113293556Y-56432923D01*
X113424981Y-56514298D01*
X113581681Y-56575003D01*
X113623804Y-56591322D01*
X113833388Y-56630500D01*
X113833390Y-56630500D01*
X114046612Y-56630500D01*
X114256195Y-56591322D01*
X114257442Y-56590839D01*
X114455019Y-56514298D01*
X114636302Y-56402052D01*
X114793872Y-56258407D01*
X114922366Y-56088255D01*
X115017405Y-55897389D01*
X115063894Y-55734000D01*
X115356627Y-55734000D01*
X115403064Y-55897210D01*
X115498059Y-56087988D01*
X115626500Y-56258069D01*
X115784000Y-56401650D01*
X115965206Y-56513848D01*
X116163941Y-56590839D01*
X116225999Y-56602439D01*
X116226000Y-56602439D01*
X116226000Y-55913674D01*
X116337685Y-55964680D01*
X116444237Y-55980000D01*
X116515763Y-55980000D01*
X116622315Y-55964680D01*
X116734000Y-55913674D01*
X116734000Y-56602439D01*
X116796058Y-56590839D01*
X116994793Y-56513848D01*
X117175999Y-56401650D01*
X117333499Y-56258069D01*
X117461940Y-56087988D01*
X117556935Y-55897210D01*
X117603373Y-55734000D01*
X116911116Y-55734000D01*
X116939493Y-55689844D01*
X116980000Y-55551889D01*
X116980000Y-55480000D01*
X117864571Y-55480000D01*
X117884244Y-55692310D01*
X117942544Y-55897210D01*
X117942596Y-55897391D01*
X118037634Y-56088256D01*
X118166125Y-56258404D01*
X118323699Y-56402053D01*
X118373556Y-56432923D01*
X118504981Y-56514298D01*
X118661681Y-56575003D01*
X118703804Y-56591322D01*
X118913388Y-56630500D01*
X118913390Y-56630500D01*
X119126612Y-56630500D01*
X119336195Y-56591322D01*
X119337442Y-56590839D01*
X119535019Y-56514298D01*
X119716302Y-56402052D01*
X119873872Y-56258407D01*
X120002366Y-56088255D01*
X120097405Y-55897389D01*
X120155756Y-55692310D01*
X120175429Y-55480000D01*
X120404571Y-55480000D01*
X120424244Y-55692310D01*
X120482544Y-55897210D01*
X120482596Y-55897391D01*
X120577634Y-56088256D01*
X120706125Y-56258404D01*
X120863699Y-56402053D01*
X120913556Y-56432923D01*
X121044981Y-56514298D01*
X121201681Y-56575003D01*
X121243804Y-56591322D01*
X121453388Y-56630500D01*
X121453390Y-56630500D01*
X121666612Y-56630500D01*
X121876195Y-56591322D01*
X121877442Y-56590839D01*
X122075019Y-56514298D01*
X122256302Y-56402052D01*
X122413872Y-56258407D01*
X122542366Y-56088255D01*
X122637405Y-55897389D01*
X122695756Y-55692310D01*
X122715429Y-55480000D01*
X122944571Y-55480000D01*
X122964244Y-55692310D01*
X123022544Y-55897210D01*
X123022596Y-55897391D01*
X123117634Y-56088256D01*
X123246125Y-56258404D01*
X123403699Y-56402053D01*
X123453556Y-56432923D01*
X123584981Y-56514298D01*
X123741681Y-56575003D01*
X123783804Y-56591322D01*
X123993388Y-56630500D01*
X123993390Y-56630500D01*
X124206612Y-56630500D01*
X124416195Y-56591322D01*
X124417442Y-56590839D01*
X124615019Y-56514298D01*
X124796302Y-56402052D01*
X124953872Y-56258407D01*
X125082366Y-56088255D01*
X125177405Y-55897389D01*
X125235756Y-55692310D01*
X125255429Y-55480000D01*
X125484571Y-55480000D01*
X125504244Y-55692310D01*
X125562544Y-55897210D01*
X125562596Y-55897391D01*
X125657634Y-56088256D01*
X125786125Y-56258404D01*
X125943699Y-56402053D01*
X125993556Y-56432923D01*
X126124981Y-56514298D01*
X126281681Y-56575003D01*
X126323804Y-56591322D01*
X126533388Y-56630500D01*
X126533390Y-56630500D01*
X126746612Y-56630500D01*
X126956195Y-56591322D01*
X126957442Y-56590839D01*
X127155019Y-56514298D01*
X127336302Y-56402052D01*
X127493872Y-56258407D01*
X127622366Y-56088255D01*
X127717405Y-55897389D01*
X127763894Y-55734000D01*
X128056627Y-55734000D01*
X128103064Y-55897210D01*
X128198059Y-56087988D01*
X128326500Y-56258069D01*
X128484000Y-56401650D01*
X128665206Y-56513848D01*
X128863941Y-56590839D01*
X128925998Y-56602439D01*
X128925999Y-56602438D01*
X128925999Y-55913674D01*
X129037685Y-55964680D01*
X129144237Y-55980000D01*
X129215763Y-55980000D01*
X129322315Y-55964680D01*
X129434000Y-55913674D01*
X129434000Y-56602439D01*
X129496058Y-56590839D01*
X129694793Y-56513848D01*
X129875999Y-56401650D01*
X130033499Y-56258069D01*
X130161940Y-56087988D01*
X130256935Y-55897210D01*
X130303373Y-55734000D01*
X129611116Y-55734000D01*
X129639493Y-55689844D01*
X129680000Y-55551889D01*
X129680000Y-55480000D01*
X130564571Y-55480000D01*
X130584244Y-55692310D01*
X130642544Y-55897210D01*
X130642596Y-55897391D01*
X130737634Y-56088256D01*
X130866125Y-56258404D01*
X131023699Y-56402053D01*
X131073556Y-56432923D01*
X131204981Y-56514298D01*
X131361681Y-56575003D01*
X131403804Y-56591322D01*
X131613388Y-56630500D01*
X131613390Y-56630500D01*
X131826612Y-56630500D01*
X132036195Y-56591322D01*
X132037442Y-56590839D01*
X132235019Y-56514298D01*
X132416302Y-56402052D01*
X132573872Y-56258407D01*
X132702366Y-56088255D01*
X132797405Y-55897389D01*
X132843894Y-55734000D01*
X133136627Y-55734000D01*
X133183064Y-55897210D01*
X133278059Y-56087988D01*
X133406500Y-56258069D01*
X133564000Y-56401650D01*
X133745206Y-56513848D01*
X133943941Y-56590839D01*
X134005999Y-56602439D01*
X134006000Y-56602439D01*
X134006000Y-55913674D01*
X134117685Y-55964680D01*
X134224237Y-55980000D01*
X134295763Y-55980000D01*
X134402315Y-55964680D01*
X134514000Y-55913674D01*
X134514000Y-56602439D01*
X134576058Y-56590839D01*
X134774793Y-56513848D01*
X134955999Y-56401650D01*
X135113499Y-56258069D01*
X135241940Y-56087988D01*
X135336935Y-55897210D01*
X135383373Y-55734000D01*
X134691116Y-55734000D01*
X134719493Y-55689844D01*
X134760000Y-55551889D01*
X134760000Y-55480000D01*
X135644571Y-55480000D01*
X135664244Y-55692310D01*
X135722544Y-55897210D01*
X135722596Y-55897391D01*
X135817634Y-56088256D01*
X135946125Y-56258404D01*
X136103699Y-56402053D01*
X136153556Y-56432923D01*
X136284981Y-56514298D01*
X136441681Y-56575003D01*
X136483804Y-56591322D01*
X136693388Y-56630500D01*
X136693390Y-56630500D01*
X136906612Y-56630500D01*
X137116195Y-56591322D01*
X137117442Y-56590839D01*
X137315019Y-56514298D01*
X137496302Y-56402052D01*
X137653872Y-56258407D01*
X137782366Y-56088255D01*
X137877405Y-55897389D01*
X137935756Y-55692310D01*
X137955429Y-55480000D01*
X138184571Y-55480000D01*
X138204244Y-55692310D01*
X138262544Y-55897210D01*
X138262596Y-55897391D01*
X138357634Y-56088256D01*
X138486125Y-56258404D01*
X138643699Y-56402053D01*
X138693556Y-56432923D01*
X138824981Y-56514298D01*
X138981681Y-56575003D01*
X139023804Y-56591322D01*
X139233388Y-56630500D01*
X139233390Y-56630500D01*
X139446612Y-56630500D01*
X139656195Y-56591322D01*
X139657442Y-56590839D01*
X139855019Y-56514298D01*
X140036302Y-56402052D01*
X140193872Y-56258407D01*
X140322366Y-56088255D01*
X140417405Y-55897389D01*
X140475756Y-55692310D01*
X140495429Y-55480000D01*
X140724571Y-55480000D01*
X140744244Y-55692310D01*
X140802544Y-55897210D01*
X140802596Y-55897391D01*
X140897634Y-56088256D01*
X141026125Y-56258404D01*
X141183699Y-56402053D01*
X141233556Y-56432923D01*
X141364981Y-56514298D01*
X141521681Y-56575003D01*
X141563804Y-56591322D01*
X141773388Y-56630500D01*
X141773390Y-56630500D01*
X141986612Y-56630500D01*
X142196195Y-56591322D01*
X142197442Y-56590839D01*
X142395019Y-56514298D01*
X142576302Y-56402052D01*
X142733872Y-56258407D01*
X142862366Y-56088255D01*
X142957405Y-55897389D01*
X143015756Y-55692310D01*
X143035429Y-55480000D01*
X143015756Y-55267690D01*
X142957405Y-55062611D01*
X142862366Y-54871745D01*
X142862365Y-54871744D01*
X142862365Y-54871743D01*
X142733874Y-54701595D01*
X142576300Y-54557946D01*
X142395021Y-54445703D01*
X142395019Y-54445702D01*
X142352898Y-54429384D01*
X142196195Y-54368677D01*
X141986612Y-54329500D01*
X141986610Y-54329500D01*
X141773390Y-54329500D01*
X141773388Y-54329500D01*
X141563804Y-54368677D01*
X141364978Y-54445703D01*
X141183699Y-54557946D01*
X141026125Y-54701595D01*
X140897634Y-54871743D01*
X140802596Y-55062608D01*
X140802595Y-55062611D01*
X140744244Y-55267690D01*
X140724571Y-55480000D01*
X140495429Y-55480000D01*
X140475756Y-55267690D01*
X140417405Y-55062611D01*
X140322366Y-54871745D01*
X140322365Y-54871744D01*
X140322365Y-54871743D01*
X140193874Y-54701595D01*
X140036300Y-54557946D01*
X139855021Y-54445703D01*
X139855019Y-54445702D01*
X139812898Y-54429384D01*
X139656195Y-54368677D01*
X139446612Y-54329500D01*
X139446610Y-54329500D01*
X139233390Y-54329500D01*
X139233388Y-54329500D01*
X139023804Y-54368677D01*
X138824978Y-54445703D01*
X138643699Y-54557946D01*
X138486125Y-54701595D01*
X138357634Y-54871743D01*
X138262596Y-55062608D01*
X138262595Y-55062611D01*
X138204244Y-55267690D01*
X138184571Y-55480000D01*
X137955429Y-55480000D01*
X137935756Y-55267690D01*
X137877405Y-55062611D01*
X137782366Y-54871745D01*
X137782365Y-54871744D01*
X137782365Y-54871743D01*
X137653874Y-54701595D01*
X137496300Y-54557946D01*
X137315021Y-54445703D01*
X137315019Y-54445702D01*
X137272898Y-54429384D01*
X137116195Y-54368677D01*
X136906612Y-54329500D01*
X136906610Y-54329500D01*
X136693390Y-54329500D01*
X136693388Y-54329500D01*
X136483804Y-54368677D01*
X136284978Y-54445703D01*
X136103699Y-54557946D01*
X135946125Y-54701595D01*
X135817634Y-54871743D01*
X135722596Y-55062608D01*
X135722595Y-55062611D01*
X135664244Y-55267690D01*
X135644571Y-55480000D01*
X134760000Y-55480000D01*
X134760000Y-55408111D01*
X134719493Y-55270156D01*
X134691116Y-55226000D01*
X135383373Y-55226000D01*
X135336935Y-55062789D01*
X135241940Y-54872011D01*
X135113499Y-54701930D01*
X134955999Y-54558349D01*
X134774793Y-54446151D01*
X134576058Y-54369161D01*
X134514000Y-54357560D01*
X134514000Y-55046325D01*
X134402315Y-54995320D01*
X134295763Y-54980000D01*
X134224237Y-54980000D01*
X134117685Y-54995320D01*
X134006000Y-55046325D01*
X134006000Y-54357560D01*
X133943941Y-54369161D01*
X133745206Y-54446151D01*
X133564000Y-54558349D01*
X133406500Y-54701930D01*
X133278059Y-54872011D01*
X133183064Y-55062789D01*
X133136627Y-55226000D01*
X133828884Y-55226000D01*
X133800507Y-55270156D01*
X133760000Y-55408111D01*
X133760000Y-55551889D01*
X133800507Y-55689844D01*
X133828884Y-55734000D01*
X133136627Y-55734000D01*
X132843894Y-55734000D01*
X132855756Y-55692310D01*
X132875429Y-55480000D01*
X132855756Y-55267690D01*
X132797405Y-55062611D01*
X132702366Y-54871745D01*
X132702365Y-54871744D01*
X132702365Y-54871743D01*
X132573874Y-54701595D01*
X132416300Y-54557946D01*
X132235021Y-54445703D01*
X132235019Y-54445702D01*
X132192898Y-54429384D01*
X132036195Y-54368677D01*
X131826612Y-54329500D01*
X131826610Y-54329500D01*
X131613390Y-54329500D01*
X131613388Y-54329500D01*
X131403804Y-54368677D01*
X131204978Y-54445703D01*
X131023699Y-54557946D01*
X130866125Y-54701595D01*
X130737634Y-54871743D01*
X130642596Y-55062608D01*
X130642595Y-55062611D01*
X130584244Y-55267690D01*
X130564571Y-55480000D01*
X129680000Y-55480000D01*
X129680000Y-55408111D01*
X129639493Y-55270156D01*
X129611116Y-55226000D01*
X130303373Y-55226000D01*
X130256935Y-55062789D01*
X130161940Y-54872011D01*
X130033499Y-54701930D01*
X129875999Y-54558349D01*
X129694793Y-54446151D01*
X129496058Y-54369161D01*
X129434000Y-54357560D01*
X129434000Y-55046325D01*
X129322315Y-54995320D01*
X129215763Y-54980000D01*
X129144237Y-54980000D01*
X129037685Y-54995320D01*
X128925999Y-55046325D01*
X128925999Y-54357560D01*
X128863940Y-54369162D01*
X128665206Y-54446151D01*
X128484000Y-54558349D01*
X128326500Y-54701930D01*
X128198059Y-54872011D01*
X128103064Y-55062789D01*
X128056627Y-55226000D01*
X128748884Y-55226000D01*
X128720507Y-55270156D01*
X128680000Y-55408111D01*
X128680000Y-55551889D01*
X128720507Y-55689844D01*
X128748884Y-55734000D01*
X128056627Y-55734000D01*
X127763894Y-55734000D01*
X127775756Y-55692310D01*
X127795429Y-55480000D01*
X127775756Y-55267690D01*
X127717405Y-55062611D01*
X127622366Y-54871745D01*
X127622365Y-54871744D01*
X127622365Y-54871743D01*
X127493874Y-54701595D01*
X127336300Y-54557946D01*
X127155021Y-54445703D01*
X127155019Y-54445702D01*
X127112898Y-54429384D01*
X126956195Y-54368677D01*
X126746612Y-54329500D01*
X126746610Y-54329500D01*
X126533390Y-54329500D01*
X126533388Y-54329500D01*
X126323804Y-54368677D01*
X126124978Y-54445703D01*
X125943699Y-54557946D01*
X125786125Y-54701595D01*
X125657634Y-54871743D01*
X125562596Y-55062608D01*
X125562595Y-55062611D01*
X125504244Y-55267690D01*
X125484571Y-55480000D01*
X125255429Y-55480000D01*
X125235756Y-55267690D01*
X125177405Y-55062611D01*
X125082366Y-54871745D01*
X125082365Y-54871744D01*
X125082365Y-54871743D01*
X124953874Y-54701595D01*
X124796300Y-54557946D01*
X124615021Y-54445703D01*
X124615019Y-54445702D01*
X124572898Y-54429384D01*
X124416195Y-54368677D01*
X124206612Y-54329500D01*
X124206610Y-54329500D01*
X123993390Y-54329500D01*
X123993388Y-54329500D01*
X123783804Y-54368677D01*
X123584978Y-54445703D01*
X123403699Y-54557946D01*
X123246125Y-54701595D01*
X123117634Y-54871743D01*
X123022596Y-55062608D01*
X123022595Y-55062611D01*
X122964244Y-55267690D01*
X122944571Y-55480000D01*
X122715429Y-55480000D01*
X122695756Y-55267690D01*
X122637405Y-55062611D01*
X122542366Y-54871745D01*
X122542365Y-54871744D01*
X122542365Y-54871743D01*
X122413874Y-54701595D01*
X122256300Y-54557946D01*
X122075021Y-54445703D01*
X122075019Y-54445702D01*
X122032898Y-54429384D01*
X121876195Y-54368677D01*
X121666612Y-54329500D01*
X121666610Y-54329500D01*
X121453390Y-54329500D01*
X121453388Y-54329500D01*
X121243804Y-54368677D01*
X121044978Y-54445703D01*
X120863699Y-54557946D01*
X120706125Y-54701595D01*
X120577634Y-54871743D01*
X120482596Y-55062608D01*
X120482595Y-55062611D01*
X120424244Y-55267690D01*
X120404571Y-55480000D01*
X120175429Y-55480000D01*
X120155756Y-55267690D01*
X120097405Y-55062611D01*
X120002366Y-54871745D01*
X120002365Y-54871744D01*
X120002365Y-54871743D01*
X119873874Y-54701595D01*
X119716300Y-54557946D01*
X119535021Y-54445703D01*
X119535019Y-54445702D01*
X119492898Y-54429384D01*
X119336195Y-54368677D01*
X119126612Y-54329500D01*
X119126610Y-54329500D01*
X118913390Y-54329500D01*
X118913388Y-54329500D01*
X118703804Y-54368677D01*
X118504978Y-54445703D01*
X118323699Y-54557946D01*
X118166125Y-54701595D01*
X118037634Y-54871743D01*
X117942596Y-55062608D01*
X117942595Y-55062611D01*
X117884244Y-55267690D01*
X117864571Y-55480000D01*
X116980000Y-55480000D01*
X116980000Y-55408111D01*
X116939493Y-55270156D01*
X116911116Y-55226000D01*
X117603373Y-55226000D01*
X117556935Y-55062789D01*
X117461940Y-54872011D01*
X117333499Y-54701930D01*
X117175999Y-54558349D01*
X116994793Y-54446151D01*
X116796058Y-54369161D01*
X116734000Y-54357560D01*
X116734000Y-55046325D01*
X116622315Y-54995320D01*
X116515763Y-54980000D01*
X116444237Y-54980000D01*
X116337685Y-54995320D01*
X116225999Y-55046325D01*
X116225999Y-54357560D01*
X116163941Y-54369161D01*
X115965206Y-54446151D01*
X115784000Y-54558349D01*
X115626500Y-54701930D01*
X115498059Y-54872011D01*
X115403064Y-55062789D01*
X115356627Y-55226000D01*
X116048884Y-55226000D01*
X116020507Y-55270156D01*
X115980000Y-55408111D01*
X115980000Y-55551889D01*
X116020507Y-55689844D01*
X116048884Y-55734000D01*
X115356627Y-55734000D01*
X115063894Y-55734000D01*
X115075756Y-55692310D01*
X115095429Y-55480000D01*
X115075756Y-55267690D01*
X115017405Y-55062611D01*
X114922366Y-54871745D01*
X114922365Y-54871744D01*
X114922365Y-54871743D01*
X114793874Y-54701595D01*
X114636300Y-54557946D01*
X114455021Y-54445703D01*
X114455019Y-54445702D01*
X114412898Y-54429384D01*
X114256195Y-54368677D01*
X114046612Y-54329500D01*
X114046610Y-54329500D01*
X113833390Y-54329500D01*
X113833388Y-54329500D01*
X113623804Y-54368677D01*
X113424978Y-54445703D01*
X113243699Y-54557946D01*
X113086125Y-54701595D01*
X112957634Y-54871743D01*
X112862596Y-55062608D01*
X112862595Y-55062611D01*
X112804244Y-55267690D01*
X112784571Y-55480000D01*
X112555429Y-55480000D01*
X112535756Y-55267690D01*
X112477405Y-55062611D01*
X112382366Y-54871745D01*
X112382365Y-54871744D01*
X112382365Y-54871743D01*
X112253874Y-54701595D01*
X112096300Y-54557946D01*
X111915021Y-54445703D01*
X111915019Y-54445702D01*
X111872898Y-54429384D01*
X111716195Y-54368677D01*
X111506612Y-54329500D01*
X111506610Y-54329500D01*
X111293390Y-54329500D01*
X111293388Y-54329500D01*
X111083804Y-54368677D01*
X110884978Y-54445703D01*
X110703699Y-54557946D01*
X110546125Y-54701595D01*
X110417634Y-54871743D01*
X110322596Y-55062608D01*
X110322595Y-55062611D01*
X110264244Y-55267690D01*
X110244571Y-55480000D01*
X109360000Y-55480000D01*
X109360000Y-55408111D01*
X109319493Y-55270156D01*
X109291116Y-55226000D01*
X109983373Y-55226000D01*
X109936935Y-55062789D01*
X109841940Y-54872011D01*
X109713499Y-54701930D01*
X109555999Y-54558349D01*
X109374793Y-54446151D01*
X109176058Y-54369161D01*
X109114000Y-54357560D01*
X109114000Y-55046325D01*
X109002315Y-54995320D01*
X108895763Y-54980000D01*
X108824237Y-54980000D01*
X108717685Y-54995320D01*
X108606000Y-55046325D01*
X108606000Y-54357560D01*
X108543941Y-54369161D01*
X108345206Y-54446151D01*
X108164000Y-54558349D01*
X108006500Y-54701930D01*
X107878059Y-54872011D01*
X107783064Y-55062789D01*
X107736627Y-55226000D01*
X108428884Y-55226000D01*
X108400507Y-55270156D01*
X108360000Y-55408111D01*
X108360000Y-55551889D01*
X108400507Y-55689844D01*
X108428884Y-55734000D01*
X107736627Y-55734000D01*
X107443894Y-55734000D01*
X107455756Y-55692310D01*
X107475429Y-55480000D01*
X107455756Y-55267690D01*
X107397405Y-55062611D01*
X107302366Y-54871745D01*
X107302365Y-54871744D01*
X107302365Y-54871743D01*
X107173874Y-54701595D01*
X107016300Y-54557946D01*
X106835021Y-54445703D01*
X106835019Y-54445702D01*
X106792898Y-54429384D01*
X106636195Y-54368677D01*
X106426612Y-54329500D01*
X106426610Y-54329500D01*
X106213390Y-54329500D01*
X106213388Y-54329500D01*
X106003804Y-54368677D01*
X105804978Y-54445703D01*
X105623699Y-54557946D01*
X105466125Y-54701595D01*
X105337634Y-54871743D01*
X105242596Y-55062608D01*
X105242595Y-55062611D01*
X105184244Y-55267690D01*
X105164571Y-55480000D01*
X104935429Y-55480000D01*
X104915756Y-55267690D01*
X104857405Y-55062611D01*
X104762366Y-54871745D01*
X104762365Y-54871744D01*
X104762365Y-54871743D01*
X104633874Y-54701595D01*
X104476300Y-54557946D01*
X104295021Y-54445703D01*
X104295019Y-54445702D01*
X104252898Y-54429384D01*
X104096195Y-54368677D01*
X103886612Y-54329500D01*
X103886610Y-54329500D01*
X103673390Y-54329500D01*
X103673388Y-54329500D01*
X103463804Y-54368677D01*
X103264978Y-54445703D01*
X103083699Y-54557946D01*
X102926125Y-54701595D01*
X102797634Y-54871743D01*
X102702596Y-55062608D01*
X102702595Y-55062611D01*
X102644244Y-55267690D01*
X102624571Y-55480000D01*
X102395429Y-55480000D01*
X102375756Y-55267690D01*
X102317405Y-55062611D01*
X102222366Y-54871745D01*
X102222365Y-54871744D01*
X102222365Y-54871743D01*
X102093874Y-54701595D01*
X101936300Y-54557946D01*
X101755021Y-54445703D01*
X101755019Y-54445702D01*
X101712898Y-54429384D01*
X101556195Y-54368677D01*
X101346612Y-54329500D01*
X101346610Y-54329500D01*
X101133390Y-54329500D01*
X101133388Y-54329500D01*
X100923804Y-54368677D01*
X100724978Y-54445703D01*
X100543699Y-54557946D01*
X100386125Y-54701595D01*
X100257634Y-54871743D01*
X100162596Y-55062608D01*
X100162595Y-55062611D01*
X100104244Y-55267690D01*
X100084571Y-55480000D01*
X99200000Y-55480000D01*
X99200000Y-55408111D01*
X99159493Y-55270156D01*
X99131116Y-55226000D01*
X99823373Y-55226000D01*
X99776935Y-55062789D01*
X99681940Y-54872011D01*
X99553499Y-54701930D01*
X99395999Y-54558349D01*
X99214793Y-54446151D01*
X99016058Y-54369161D01*
X98954000Y-54357560D01*
X98954000Y-55046325D01*
X98842315Y-54995320D01*
X98735763Y-54980000D01*
X98664237Y-54980000D01*
X98557685Y-54995320D01*
X98446000Y-55046325D01*
X98446000Y-54357560D01*
X98383941Y-54369161D01*
X98185206Y-54446151D01*
X98004000Y-54558349D01*
X97846500Y-54701930D01*
X97718059Y-54872011D01*
X97623064Y-55062789D01*
X97576627Y-55226000D01*
X98268884Y-55226000D01*
X98240507Y-55270156D01*
X98200000Y-55408111D01*
X98200000Y-55551889D01*
X98240507Y-55689844D01*
X98268884Y-55734000D01*
X97576627Y-55734000D01*
X97283894Y-55734000D01*
X97295756Y-55692310D01*
X97315429Y-55480000D01*
X97295756Y-55267690D01*
X97237405Y-55062611D01*
X97142366Y-54871745D01*
X97142365Y-54871744D01*
X97142365Y-54871743D01*
X97013874Y-54701595D01*
X96856300Y-54557946D01*
X96675021Y-54445703D01*
X96675019Y-54445702D01*
X96632898Y-54429384D01*
X96476195Y-54368677D01*
X96266612Y-54329500D01*
X96266610Y-54329500D01*
X96053390Y-54329500D01*
X96053388Y-54329500D01*
X95843804Y-54368677D01*
X95644978Y-54445703D01*
X95463699Y-54557946D01*
X95306125Y-54701595D01*
X95177634Y-54871743D01*
X95082596Y-55062608D01*
X95082595Y-55062611D01*
X95024244Y-55267690D01*
X95004571Y-55480000D01*
X94775429Y-55480000D01*
X94755756Y-55267690D01*
X94697405Y-55062611D01*
X94602366Y-54871745D01*
X94602365Y-54871744D01*
X94602365Y-54871743D01*
X94473874Y-54701595D01*
X94316300Y-54557946D01*
X94135021Y-54445703D01*
X94135019Y-54445702D01*
X94092898Y-54429384D01*
X93936195Y-54368677D01*
X93726612Y-54329500D01*
X93726610Y-54329500D01*
X93513390Y-54329500D01*
X93513388Y-54329500D01*
X93303804Y-54368677D01*
X93104978Y-54445703D01*
X92923699Y-54557946D01*
X92766125Y-54701595D01*
X92637634Y-54871743D01*
X92542596Y-55062608D01*
X92542595Y-55062611D01*
X92484244Y-55267690D01*
X92464571Y-55480000D01*
X91079428Y-55480000D01*
X90985960Y-55325384D01*
X90936857Y-55244157D01*
X90936853Y-55244152D01*
X90935306Y-55241592D01*
X90923090Y-55226000D01*
X90795083Y-55062611D01*
X90737554Y-54989181D01*
X90510819Y-54762446D01*
X90258408Y-54564694D01*
X90255851Y-54563148D01*
X90255842Y-54563142D01*
X89986561Y-54400357D01*
X89986558Y-54400355D01*
X89984000Y-54398809D01*
X89918127Y-54369162D01*
X89694322Y-54268435D01*
X89691598Y-54267209D01*
X89688748Y-54266320D01*
X89688743Y-54266319D01*
X89388318Y-54172702D01*
X89388306Y-54172699D01*
X89385466Y-54171814D01*
X89382525Y-54171275D01*
X89073011Y-54114554D01*
X89072999Y-54114552D01*
X89070066Y-54114015D01*
X89067078Y-54113834D01*
X89067076Y-54113834D01*
X88752992Y-54094836D01*
X88750000Y-54094655D01*
X88747008Y-54094836D01*
X88432923Y-54113834D01*
X88432919Y-54113834D01*
X88429934Y-54114015D01*
X88427002Y-54114552D01*
X88426988Y-54114554D01*
X88117474Y-54171275D01*
X88117470Y-54171275D01*
X88114534Y-54171814D01*
X88111696Y-54172698D01*
X88111681Y-54172702D01*
X87811256Y-54266319D01*
X87811246Y-54266322D01*
X87808402Y-54267209D01*
X87805683Y-54268432D01*
X87805677Y-54268435D01*
X87518725Y-54397582D01*
X87518717Y-54397586D01*
X87516000Y-54398809D01*
X87513447Y-54400351D01*
X87513438Y-54400357D01*
X87244157Y-54563142D01*
X87244140Y-54563153D01*
X87241592Y-54564694D01*
X87239245Y-54566532D01*
X87239233Y-54566541D01*
X86991535Y-54760601D01*
X86991527Y-54760607D01*
X86989181Y-54762446D01*
X86987079Y-54764547D01*
X86987071Y-54764555D01*
X86764555Y-54987071D01*
X86764547Y-54987079D01*
X86762446Y-54989181D01*
X86760607Y-54991527D01*
X86760601Y-54991535D01*
X86566541Y-55239233D01*
X86566532Y-55239245D01*
X86564694Y-55241592D01*
X86563153Y-55244140D01*
X86563142Y-55244157D01*
X86400357Y-55513438D01*
X86400351Y-55513447D01*
X86398809Y-55516000D01*
X86397586Y-55518717D01*
X86397582Y-55518725D01*
X86300694Y-55734001D01*
X86267209Y-55808402D01*
X86266322Y-55811246D01*
X86266319Y-55811256D01*
X86172702Y-56111681D01*
X86172698Y-56111696D01*
X86171814Y-56114534D01*
X86171275Y-56117470D01*
X86171275Y-56117474D01*
X86114554Y-56426988D01*
X86114552Y-56427002D01*
X86114015Y-56429934D01*
X86113834Y-56432919D01*
X86113834Y-56432923D01*
X86101883Y-56630500D01*
X86094655Y-56750000D01*
X85450500Y-56750000D01*
X85450500Y-56252772D01*
X85450656Y-56247221D01*
X85451769Y-56227409D01*
X85467791Y-55942099D01*
X85469034Y-55931073D01*
X85519760Y-55632519D01*
X85522221Y-55621733D01*
X85606063Y-55330714D01*
X85609723Y-55320254D01*
X85725614Y-55040469D01*
X85730428Y-55030474D01*
X85758324Y-54980000D01*
X85876909Y-54765436D01*
X85882806Y-54756051D01*
X86058053Y-54509063D01*
X86064967Y-54500394D01*
X86266757Y-54274592D01*
X86274592Y-54266757D01*
X86500394Y-54064967D01*
X86509063Y-54058053D01*
X86756051Y-53882806D01*
X86765436Y-53876909D01*
X87030480Y-53730424D01*
X87040469Y-53725614D01*
X87320254Y-53609723D01*
X87330714Y-53606063D01*
X87621733Y-53522221D01*
X87632519Y-53519760D01*
X87931080Y-53469033D01*
X87942099Y-53467791D01*
X88247222Y-53450655D01*
X88252773Y-53450500D01*
X88289882Y-53450500D01*
X147210118Y-53450500D01*
X147247227Y-53450500D01*
X147252777Y-53450655D01*
G37*
%TD.AperFunction*%
%TD*%
M02*
