%TF.GenerationSoftware,KiCad,Pcbnew,7.0.2*%
%TF.CreationDate,2023-08-03T10:05:33+01:00*%
%TF.ProjectId,ElectriPi,456c6563-7472-4695-9069-2e6b69636164,rev?*%
%TF.SameCoordinates,Original*%
%TF.FileFunction,Legend,Bot*%
%TF.FilePolarity,Positive*%
%FSLAX46Y46*%
G04 Gerber Fmt 4.6, Leading zero omitted, Abs format (unit mm)*
G04 Created by KiCad (PCBNEW 7.0.2) date 2023-08-03 10:05:33*
%MOMM*%
%LPD*%
G01*
G04 APERTURE LIST*
G04 Aperture macros list*
%AMRoundRect*
0 Rectangle with rounded corners*
0 $1 Rounding radius*
0 $2 $3 $4 $5 $6 $7 $8 $9 X,Y pos of 4 corners*
0 Add a 4 corners polygon primitive as box body*
4,1,4,$2,$3,$4,$5,$6,$7,$8,$9,$2,$3,0*
0 Add four circle primitives for the rounded corners*
1,1,$1+$1,$2,$3*
1,1,$1+$1,$4,$5*
1,1,$1+$1,$6,$7*
1,1,$1+$1,$8,$9*
0 Add four rect primitives between the rounded corners*
20,1,$1+$1,$2,$3,$4,$5,0*
20,1,$1+$1,$4,$5,$6,$7,0*
20,1,$1+$1,$6,$7,$8,$9,0*
20,1,$1+$1,$8,$9,$2,$3,0*%
%AMFreePoly0*
4,1,19,0.550000,-0.750000,0.000000,-0.750000,0.000000,-0.744911,-0.071157,-0.744911,-0.207708,-0.704816,-0.327430,-0.627875,-0.420627,-0.520320,-0.479746,-0.390866,-0.500000,-0.250000,-0.500000,0.250000,-0.479746,0.390866,-0.420627,0.520320,-0.327430,0.627875,-0.207708,0.704816,-0.071157,0.744911,0.000000,0.744911,0.000000,0.750000,0.550000,0.750000,0.550000,-0.750000,0.550000,-0.750000,
$1*%
%AMFreePoly1*
4,1,19,0.000000,0.744911,0.071157,0.744911,0.207708,0.704816,0.327430,0.627875,0.420627,0.520320,0.479746,0.390866,0.500000,0.250000,0.500000,-0.250000,0.479746,-0.390866,0.420627,-0.520320,0.327430,-0.627875,0.207708,-0.704816,0.071157,-0.744911,0.000000,-0.744911,0.000000,-0.750000,-0.550000,-0.750000,-0.550000,0.750000,0.000000,0.750000,0.000000,0.744911,0.000000,0.744911,
$1*%
G04 Aperture macros list end*
%ADD10C,0.200000*%
%ADD11C,0.150000*%
%ADD12C,0.120000*%
%ADD13RoundRect,0.250000X0.750000X-0.600000X0.750000X0.600000X-0.750000X0.600000X-0.750000X-0.600000X0*%
%ADD14O,2.000000X1.700000*%
%ADD15C,4.700000*%
%ADD16RoundRect,0.250000X0.600000X0.750000X-0.600000X0.750000X-0.600000X-0.750000X0.600000X-0.750000X0*%
%ADD17O,1.700000X2.000000*%
%ADD18R,2.400000X2.400000*%
%ADD19C,2.400000*%
%ADD20C,7.000000*%
%ADD21C,1.500000*%
%ADD22R,1.700000X1.700000*%
%ADD23O,1.700000X1.700000*%
%ADD24FreePoly0,90.000000*%
%ADD25R,1.500000X1.000000*%
%ADD26FreePoly1,90.000000*%
G04 APERTURE END LIST*
D10*
X145382547Y-93926190D02*
X145382547Y-93492856D01*
X144701595Y-93307142D02*
X144701595Y-93926190D01*
X144701595Y-93926190D02*
X146001595Y-93926190D01*
X146001595Y-93926190D02*
X146001595Y-93307142D01*
X144701595Y-92564285D02*
X144763500Y-92688095D01*
X144763500Y-92688095D02*
X144887309Y-92750000D01*
X144887309Y-92750000D02*
X146001595Y-92750000D01*
X144763500Y-91573810D02*
X144701595Y-91697619D01*
X144701595Y-91697619D02*
X144701595Y-91945238D01*
X144701595Y-91945238D02*
X144763500Y-92069048D01*
X144763500Y-92069048D02*
X144887309Y-92130952D01*
X144887309Y-92130952D02*
X145382547Y-92130952D01*
X145382547Y-92130952D02*
X145506357Y-92069048D01*
X145506357Y-92069048D02*
X145568261Y-91945238D01*
X145568261Y-91945238D02*
X145568261Y-91697619D01*
X145568261Y-91697619D02*
X145506357Y-91573810D01*
X145506357Y-91573810D02*
X145382547Y-91511905D01*
X145382547Y-91511905D02*
X145258738Y-91511905D01*
X145258738Y-91511905D02*
X145134928Y-92130952D01*
X144763500Y-90397619D02*
X144701595Y-90521428D01*
X144701595Y-90521428D02*
X144701595Y-90769047D01*
X144701595Y-90769047D02*
X144763500Y-90892857D01*
X144763500Y-90892857D02*
X144825404Y-90954762D01*
X144825404Y-90954762D02*
X144949214Y-91016666D01*
X144949214Y-91016666D02*
X145320642Y-91016666D01*
X145320642Y-91016666D02*
X145444452Y-90954762D01*
X145444452Y-90954762D02*
X145506357Y-90892857D01*
X145506357Y-90892857D02*
X145568261Y-90769047D01*
X145568261Y-90769047D02*
X145568261Y-90521428D01*
X145568261Y-90521428D02*
X145506357Y-90397619D01*
X145568261Y-90026190D02*
X145568261Y-89530952D01*
X146001595Y-89840476D02*
X144887309Y-89840476D01*
X144887309Y-89840476D02*
X144763500Y-89778571D01*
X144763500Y-89778571D02*
X144701595Y-89654761D01*
X144701595Y-89654761D02*
X144701595Y-89530952D01*
X144701595Y-89097619D02*
X145568261Y-89097619D01*
X145320642Y-89097619D02*
X145444452Y-89035714D01*
X145444452Y-89035714D02*
X145506357Y-88973809D01*
X145506357Y-88973809D02*
X145568261Y-88850000D01*
X145568261Y-88850000D02*
X145568261Y-88726190D01*
X144701595Y-88292857D02*
X145568261Y-88292857D01*
X146001595Y-88292857D02*
X145939690Y-88354761D01*
X145939690Y-88354761D02*
X145877785Y-88292857D01*
X145877785Y-88292857D02*
X145939690Y-88230952D01*
X145939690Y-88230952D02*
X146001595Y-88292857D01*
X146001595Y-88292857D02*
X145877785Y-88292857D01*
X144701595Y-87673809D02*
X146001595Y-87673809D01*
X146001595Y-87673809D02*
X146001595Y-87178571D01*
X146001595Y-87178571D02*
X145939690Y-87054761D01*
X145939690Y-87054761D02*
X145877785Y-86992856D01*
X145877785Y-86992856D02*
X145753976Y-86930952D01*
X145753976Y-86930952D02*
X145568261Y-86930952D01*
X145568261Y-86930952D02*
X145444452Y-86992856D01*
X145444452Y-86992856D02*
X145382547Y-87054761D01*
X145382547Y-87054761D02*
X145320642Y-87178571D01*
X145320642Y-87178571D02*
X145320642Y-87673809D01*
X144701595Y-86373809D02*
X145568261Y-86373809D01*
X146001595Y-86373809D02*
X145939690Y-86435713D01*
X145939690Y-86435713D02*
X145877785Y-86373809D01*
X145877785Y-86373809D02*
X145939690Y-86311904D01*
X145939690Y-86311904D02*
X146001595Y-86373809D01*
X146001595Y-86373809D02*
X145877785Y-86373809D01*
X142595595Y-96216666D02*
X143895595Y-96216666D01*
X143400357Y-96216666D02*
X143462261Y-96092856D01*
X143462261Y-96092856D02*
X143462261Y-95845237D01*
X143462261Y-95845237D02*
X143400357Y-95721428D01*
X143400357Y-95721428D02*
X143338452Y-95659523D01*
X143338452Y-95659523D02*
X143214642Y-95597618D01*
X143214642Y-95597618D02*
X142843214Y-95597618D01*
X142843214Y-95597618D02*
X142719404Y-95659523D01*
X142719404Y-95659523D02*
X142657500Y-95721428D01*
X142657500Y-95721428D02*
X142595595Y-95845237D01*
X142595595Y-95845237D02*
X142595595Y-96092856D01*
X142595595Y-96092856D02*
X142657500Y-96216666D01*
X143462261Y-95164285D02*
X142595595Y-94854761D01*
X143462261Y-94545238D02*
X142595595Y-94854761D01*
X142595595Y-94854761D02*
X142286071Y-94978571D01*
X142286071Y-94978571D02*
X142224166Y-95040476D01*
X142224166Y-95040476D02*
X142162261Y-95164285D01*
X143895595Y-93245238D02*
X142595595Y-92811905D01*
X142595595Y-92811905D02*
X143895595Y-92378571D01*
X142657500Y-91450000D02*
X142595595Y-91573809D01*
X142595595Y-91573809D02*
X142595595Y-91821428D01*
X142595595Y-91821428D02*
X142657500Y-91945238D01*
X142657500Y-91945238D02*
X142781309Y-92007142D01*
X142781309Y-92007142D02*
X143276547Y-92007142D01*
X143276547Y-92007142D02*
X143400357Y-91945238D01*
X143400357Y-91945238D02*
X143462261Y-91821428D01*
X143462261Y-91821428D02*
X143462261Y-91573809D01*
X143462261Y-91573809D02*
X143400357Y-91450000D01*
X143400357Y-91450000D02*
X143276547Y-91388095D01*
X143276547Y-91388095D02*
X143152738Y-91388095D01*
X143152738Y-91388095D02*
X143028928Y-92007142D01*
X142657500Y-90273809D02*
X142595595Y-90397618D01*
X142595595Y-90397618D02*
X142595595Y-90645237D01*
X142595595Y-90645237D02*
X142657500Y-90769047D01*
X142657500Y-90769047D02*
X142719404Y-90830952D01*
X142719404Y-90830952D02*
X142843214Y-90892856D01*
X142843214Y-90892856D02*
X143214642Y-90892856D01*
X143214642Y-90892856D02*
X143338452Y-90830952D01*
X143338452Y-90830952D02*
X143400357Y-90769047D01*
X143400357Y-90769047D02*
X143462261Y-90645237D01*
X143462261Y-90645237D02*
X143462261Y-90397618D01*
X143462261Y-90397618D02*
X143400357Y-90273809D01*
X143462261Y-89902380D02*
X143462261Y-89407142D01*
X143895595Y-89716666D02*
X142781309Y-89716666D01*
X142781309Y-89716666D02*
X142657500Y-89654761D01*
X142657500Y-89654761D02*
X142595595Y-89530951D01*
X142595595Y-89530951D02*
X142595595Y-89407142D01*
X142595595Y-88788094D02*
X142657500Y-88911904D01*
X142657500Y-88911904D02*
X142719404Y-88973809D01*
X142719404Y-88973809D02*
X142843214Y-89035713D01*
X142843214Y-89035713D02*
X143214642Y-89035713D01*
X143214642Y-89035713D02*
X143338452Y-88973809D01*
X143338452Y-88973809D02*
X143400357Y-88911904D01*
X143400357Y-88911904D02*
X143462261Y-88788094D01*
X143462261Y-88788094D02*
X143462261Y-88602380D01*
X143462261Y-88602380D02*
X143400357Y-88478571D01*
X143400357Y-88478571D02*
X143338452Y-88416666D01*
X143338452Y-88416666D02*
X143214642Y-88354761D01*
X143214642Y-88354761D02*
X142843214Y-88354761D01*
X142843214Y-88354761D02*
X142719404Y-88416666D01*
X142719404Y-88416666D02*
X142657500Y-88478571D01*
X142657500Y-88478571D02*
X142595595Y-88602380D01*
X142595595Y-88602380D02*
X142595595Y-88788094D01*
X142595595Y-87797619D02*
X143462261Y-87797619D01*
X143214642Y-87797619D02*
X143338452Y-87735714D01*
X143338452Y-87735714D02*
X143400357Y-87673809D01*
X143400357Y-87673809D02*
X143462261Y-87550000D01*
X143462261Y-87550000D02*
X143462261Y-87426190D01*
X143895595Y-86126190D02*
X143895595Y-85321428D01*
X143895595Y-85321428D02*
X143400357Y-85754762D01*
X143400357Y-85754762D02*
X143400357Y-85569047D01*
X143400357Y-85569047D02*
X143338452Y-85445238D01*
X143338452Y-85445238D02*
X143276547Y-85383333D01*
X143276547Y-85383333D02*
X143152738Y-85321428D01*
X143152738Y-85321428D02*
X142843214Y-85321428D01*
X142843214Y-85321428D02*
X142719404Y-85383333D01*
X142719404Y-85383333D02*
X142657500Y-85445238D01*
X142657500Y-85445238D02*
X142595595Y-85569047D01*
X142595595Y-85569047D02*
X142595595Y-85940476D01*
X142595595Y-85940476D02*
X142657500Y-86064285D01*
X142657500Y-86064285D02*
X142719404Y-86126190D01*
X142595595Y-84764286D02*
X143895595Y-84764286D01*
X143895595Y-84764286D02*
X143895595Y-84454762D01*
X143895595Y-84454762D02*
X143833690Y-84269048D01*
X143833690Y-84269048D02*
X143709880Y-84145238D01*
X143709880Y-84145238D02*
X143586071Y-84083333D01*
X143586071Y-84083333D02*
X143338452Y-84021429D01*
X143338452Y-84021429D02*
X143152738Y-84021429D01*
X143152738Y-84021429D02*
X142905119Y-84083333D01*
X142905119Y-84083333D02*
X142781309Y-84145238D01*
X142781309Y-84145238D02*
X142657500Y-84269048D01*
X142657500Y-84269048D02*
X142595595Y-84454762D01*
X142595595Y-84454762D02*
X142595595Y-84764286D01*
D11*
X88422380Y-84576190D02*
X87708095Y-84576190D01*
X87708095Y-84576190D02*
X87565238Y-84623809D01*
X87565238Y-84623809D02*
X87470000Y-84719047D01*
X87470000Y-84719047D02*
X87422380Y-84861904D01*
X87422380Y-84861904D02*
X87422380Y-84957142D01*
X87422380Y-83623809D02*
X87422380Y-84099999D01*
X87422380Y-84099999D02*
X88422380Y-84099999D01*
X87517619Y-82719047D02*
X87470000Y-82766666D01*
X87470000Y-82766666D02*
X87422380Y-82909523D01*
X87422380Y-82909523D02*
X87422380Y-83004761D01*
X87422380Y-83004761D02*
X87470000Y-83147618D01*
X87470000Y-83147618D02*
X87565238Y-83242856D01*
X87565238Y-83242856D02*
X87660476Y-83290475D01*
X87660476Y-83290475D02*
X87850952Y-83338094D01*
X87850952Y-83338094D02*
X87993809Y-83338094D01*
X87993809Y-83338094D02*
X88184285Y-83290475D01*
X88184285Y-83290475D02*
X88279523Y-83242856D01*
X88279523Y-83242856D02*
X88374761Y-83147618D01*
X88374761Y-83147618D02*
X88422380Y-83004761D01*
X88422380Y-83004761D02*
X88422380Y-82909523D01*
X88422380Y-82909523D02*
X88374761Y-82766666D01*
X88374761Y-82766666D02*
X88327142Y-82719047D01*
X88422380Y-82004761D02*
X87708095Y-82004761D01*
X87708095Y-82004761D02*
X87565238Y-82052380D01*
X87565238Y-82052380D02*
X87470000Y-82147618D01*
X87470000Y-82147618D02*
X87422380Y-82290475D01*
X87422380Y-82290475D02*
X87422380Y-82385713D01*
X87422380Y-81052380D02*
X87422380Y-81528570D01*
X87422380Y-81528570D02*
X88422380Y-81528570D01*
X87517619Y-80147618D02*
X87470000Y-80195237D01*
X87470000Y-80195237D02*
X87422380Y-80338094D01*
X87422380Y-80338094D02*
X87422380Y-80433332D01*
X87422380Y-80433332D02*
X87470000Y-80576189D01*
X87470000Y-80576189D02*
X87565238Y-80671427D01*
X87565238Y-80671427D02*
X87660476Y-80719046D01*
X87660476Y-80719046D02*
X87850952Y-80766665D01*
X87850952Y-80766665D02*
X87993809Y-80766665D01*
X87993809Y-80766665D02*
X88184285Y-80719046D01*
X88184285Y-80719046D02*
X88279523Y-80671427D01*
X88279523Y-80671427D02*
X88374761Y-80576189D01*
X88374761Y-80576189D02*
X88422380Y-80433332D01*
X88422380Y-80433332D02*
X88422380Y-80338094D01*
X88422380Y-80338094D02*
X88374761Y-80195237D01*
X88374761Y-80195237D02*
X88327142Y-80147618D01*
X88422380Y-79433332D02*
X87708095Y-79433332D01*
X87708095Y-79433332D02*
X87565238Y-79480951D01*
X87565238Y-79480951D02*
X87470000Y-79576189D01*
X87470000Y-79576189D02*
X87422380Y-79719046D01*
X87422380Y-79719046D02*
X87422380Y-79814284D01*
X87422380Y-78480951D02*
X87422380Y-78957141D01*
X87422380Y-78957141D02*
X88422380Y-78957141D01*
X87517619Y-77576189D02*
X87470000Y-77623808D01*
X87470000Y-77623808D02*
X87422380Y-77766665D01*
X87422380Y-77766665D02*
X87422380Y-77861903D01*
X87422380Y-77861903D02*
X87470000Y-78004760D01*
X87470000Y-78004760D02*
X87565238Y-78099998D01*
X87565238Y-78099998D02*
X87660476Y-78147617D01*
X87660476Y-78147617D02*
X87850952Y-78195236D01*
X87850952Y-78195236D02*
X87993809Y-78195236D01*
X87993809Y-78195236D02*
X88184285Y-78147617D01*
X88184285Y-78147617D02*
X88279523Y-78099998D01*
X88279523Y-78099998D02*
X88374761Y-78004760D01*
X88374761Y-78004760D02*
X88422380Y-77861903D01*
X88422380Y-77861903D02*
X88422380Y-77766665D01*
X88422380Y-77766665D02*
X88374761Y-77623808D01*
X88374761Y-77623808D02*
X88327142Y-77576189D01*
X88422380Y-76861903D02*
X87708095Y-76861903D01*
X87708095Y-76861903D02*
X87565238Y-76909522D01*
X87565238Y-76909522D02*
X87470000Y-77004760D01*
X87470000Y-77004760D02*
X87422380Y-77147617D01*
X87422380Y-77147617D02*
X87422380Y-77242855D01*
X87422380Y-75909522D02*
X87422380Y-76385712D01*
X87422380Y-76385712D02*
X88422380Y-76385712D01*
X87517619Y-75004760D02*
X87470000Y-75052379D01*
X87470000Y-75052379D02*
X87422380Y-75195236D01*
X87422380Y-75195236D02*
X87422380Y-75290474D01*
X87422380Y-75290474D02*
X87470000Y-75433331D01*
X87470000Y-75433331D02*
X87565238Y-75528569D01*
X87565238Y-75528569D02*
X87660476Y-75576188D01*
X87660476Y-75576188D02*
X87850952Y-75623807D01*
X87850952Y-75623807D02*
X87993809Y-75623807D01*
X87993809Y-75623807D02*
X88184285Y-75576188D01*
X88184285Y-75576188D02*
X88279523Y-75528569D01*
X88279523Y-75528569D02*
X88374761Y-75433331D01*
X88374761Y-75433331D02*
X88422380Y-75290474D01*
X88422380Y-75290474D02*
X88422380Y-75195236D01*
X88422380Y-75195236D02*
X88374761Y-75052379D01*
X88374761Y-75052379D02*
X88327142Y-75004760D01*
X128537380Y-99023808D02*
X127537380Y-98690475D01*
X127537380Y-98690475D02*
X128537380Y-98357142D01*
X128442142Y-98071427D02*
X128489761Y-98023808D01*
X128489761Y-98023808D02*
X128537380Y-97928570D01*
X128537380Y-97928570D02*
X128537380Y-97690475D01*
X128537380Y-97690475D02*
X128489761Y-97595237D01*
X128489761Y-97595237D02*
X128442142Y-97547618D01*
X128442142Y-97547618D02*
X128346904Y-97499999D01*
X128346904Y-97499999D02*
X128251666Y-97499999D01*
X128251666Y-97499999D02*
X128108809Y-97547618D01*
X128108809Y-97547618D02*
X127537380Y-98119046D01*
X127537380Y-98119046D02*
X127537380Y-97499999D01*
X127632619Y-97071427D02*
X127585000Y-97023808D01*
X127585000Y-97023808D02*
X127537380Y-97071427D01*
X127537380Y-97071427D02*
X127585000Y-97119046D01*
X127585000Y-97119046D02*
X127632619Y-97071427D01*
X127632619Y-97071427D02*
X127537380Y-97071427D01*
X128537380Y-96404761D02*
X128537380Y-96309523D01*
X128537380Y-96309523D02*
X128489761Y-96214285D01*
X128489761Y-96214285D02*
X128442142Y-96166666D01*
X128442142Y-96166666D02*
X128346904Y-96119047D01*
X128346904Y-96119047D02*
X128156428Y-96071428D01*
X128156428Y-96071428D02*
X127918333Y-96071428D01*
X127918333Y-96071428D02*
X127727857Y-96119047D01*
X127727857Y-96119047D02*
X127632619Y-96166666D01*
X127632619Y-96166666D02*
X127585000Y-96214285D01*
X127585000Y-96214285D02*
X127537380Y-96309523D01*
X127537380Y-96309523D02*
X127537380Y-96404761D01*
X127537380Y-96404761D02*
X127585000Y-96499999D01*
X127585000Y-96499999D02*
X127632619Y-96547618D01*
X127632619Y-96547618D02*
X127727857Y-96595237D01*
X127727857Y-96595237D02*
X127918333Y-96642856D01*
X127918333Y-96642856D02*
X128156428Y-96642856D01*
X128156428Y-96642856D02*
X128346904Y-96595237D01*
X128346904Y-96595237D02*
X128442142Y-96547618D01*
X128442142Y-96547618D02*
X128489761Y-96499999D01*
X128489761Y-96499999D02*
X128537380Y-96404761D01*
X132011904Y-66663333D02*
X130488095Y-66663333D01*
X131249999Y-67425238D02*
X131249999Y-65901428D01*
X134537380Y-65940476D02*
X134537380Y-66416666D01*
X134537380Y-66416666D02*
X134061190Y-66464285D01*
X134061190Y-66464285D02*
X134108809Y-66416666D01*
X134108809Y-66416666D02*
X134156428Y-66321428D01*
X134156428Y-66321428D02*
X134156428Y-66083333D01*
X134156428Y-66083333D02*
X134108809Y-65988095D01*
X134108809Y-65988095D02*
X134061190Y-65940476D01*
X134061190Y-65940476D02*
X133965952Y-65892857D01*
X133965952Y-65892857D02*
X133727857Y-65892857D01*
X133727857Y-65892857D02*
X133632619Y-65940476D01*
X133632619Y-65940476D02*
X133585000Y-65988095D01*
X133585000Y-65988095D02*
X133537380Y-66083333D01*
X133537380Y-66083333D02*
X133537380Y-66321428D01*
X133537380Y-66321428D02*
X133585000Y-66416666D01*
X133585000Y-66416666D02*
X133632619Y-66464285D01*
X134537380Y-65607142D02*
X133537380Y-65273809D01*
X133537380Y-65273809D02*
X134537380Y-64940476D01*
X95011904Y-107663333D02*
X93488095Y-107663333D01*
X94249999Y-108425238D02*
X94249999Y-106901428D01*
X148863333Y-61438095D02*
X148863333Y-62961905D01*
X98511904Y-107663333D02*
X96988095Y-107663333D01*
X134537380Y-74083332D02*
X133537380Y-73749999D01*
X133537380Y-73749999D02*
X134537380Y-73416666D01*
X133632619Y-72511904D02*
X133585000Y-72559523D01*
X133585000Y-72559523D02*
X133537380Y-72702380D01*
X133537380Y-72702380D02*
X133537380Y-72797618D01*
X133537380Y-72797618D02*
X133585000Y-72940475D01*
X133585000Y-72940475D02*
X133680238Y-73035713D01*
X133680238Y-73035713D02*
X133775476Y-73083332D01*
X133775476Y-73083332D02*
X133965952Y-73130951D01*
X133965952Y-73130951D02*
X134108809Y-73130951D01*
X134108809Y-73130951D02*
X134299285Y-73083332D01*
X134299285Y-73083332D02*
X134394523Y-73035713D01*
X134394523Y-73035713D02*
X134489761Y-72940475D01*
X134489761Y-72940475D02*
X134537380Y-72797618D01*
X134537380Y-72797618D02*
X134537380Y-72702380D01*
X134537380Y-72702380D02*
X134489761Y-72559523D01*
X134489761Y-72559523D02*
X134442142Y-72511904D01*
X133632619Y-71511904D02*
X133585000Y-71559523D01*
X133585000Y-71559523D02*
X133537380Y-71702380D01*
X133537380Y-71702380D02*
X133537380Y-71797618D01*
X133537380Y-71797618D02*
X133585000Y-71940475D01*
X133585000Y-71940475D02*
X133680238Y-72035713D01*
X133680238Y-72035713D02*
X133775476Y-72083332D01*
X133775476Y-72083332D02*
X133965952Y-72130951D01*
X133965952Y-72130951D02*
X134108809Y-72130951D01*
X134108809Y-72130951D02*
X134299285Y-72083332D01*
X134299285Y-72083332D02*
X134394523Y-72035713D01*
X134394523Y-72035713D02*
X134489761Y-71940475D01*
X134489761Y-71940475D02*
X134537380Y-71797618D01*
X134537380Y-71797618D02*
X134537380Y-71702380D01*
X134537380Y-71702380D02*
X134489761Y-71559523D01*
X134489761Y-71559523D02*
X134442142Y-71511904D01*
X148763333Y-64038095D02*
X148763333Y-65561905D01*
X149525238Y-64800000D02*
X148001428Y-64800000D01*
X129511904Y-66663333D02*
X127988095Y-66663333D01*
X129312642Y-84900000D02*
X130212642Y-84900000D01*
X130212642Y-84900000D02*
X130212642Y-84685714D01*
X130212642Y-84685714D02*
X130169785Y-84557143D01*
X130169785Y-84557143D02*
X130084071Y-84471428D01*
X130084071Y-84471428D02*
X129998357Y-84428571D01*
X129998357Y-84428571D02*
X129826928Y-84385714D01*
X129826928Y-84385714D02*
X129698357Y-84385714D01*
X129698357Y-84385714D02*
X129526928Y-84428571D01*
X129526928Y-84428571D02*
X129441214Y-84471428D01*
X129441214Y-84471428D02*
X129355500Y-84557143D01*
X129355500Y-84557143D02*
X129312642Y-84685714D01*
X129312642Y-84685714D02*
X129312642Y-84900000D01*
X129355500Y-83657143D02*
X129312642Y-83742857D01*
X129312642Y-83742857D02*
X129312642Y-83914286D01*
X129312642Y-83914286D02*
X129355500Y-84000000D01*
X129355500Y-84000000D02*
X129441214Y-84042857D01*
X129441214Y-84042857D02*
X129784071Y-84042857D01*
X129784071Y-84042857D02*
X129869785Y-84000000D01*
X129869785Y-84000000D02*
X129912642Y-83914286D01*
X129912642Y-83914286D02*
X129912642Y-83742857D01*
X129912642Y-83742857D02*
X129869785Y-83657143D01*
X129869785Y-83657143D02*
X129784071Y-83614286D01*
X129784071Y-83614286D02*
X129698357Y-83614286D01*
X129698357Y-83614286D02*
X129612642Y-84042857D01*
X129355500Y-83271428D02*
X129312642Y-83185714D01*
X129312642Y-83185714D02*
X129312642Y-83014285D01*
X129312642Y-83014285D02*
X129355500Y-82928571D01*
X129355500Y-82928571D02*
X129441214Y-82885714D01*
X129441214Y-82885714D02*
X129484071Y-82885714D01*
X129484071Y-82885714D02*
X129569785Y-82928571D01*
X129569785Y-82928571D02*
X129612642Y-83014285D01*
X129612642Y-83014285D02*
X129612642Y-83142857D01*
X129612642Y-83142857D02*
X129655500Y-83228571D01*
X129655500Y-83228571D02*
X129741214Y-83271428D01*
X129741214Y-83271428D02*
X129784071Y-83271428D01*
X129784071Y-83271428D02*
X129869785Y-83228571D01*
X129869785Y-83228571D02*
X129912642Y-83142857D01*
X129912642Y-83142857D02*
X129912642Y-83014285D01*
X129912642Y-83014285D02*
X129869785Y-82928571D01*
X129312642Y-82500000D02*
X129912642Y-82500000D01*
X130212642Y-82500000D02*
X130169785Y-82542857D01*
X130169785Y-82542857D02*
X130126928Y-82500000D01*
X130126928Y-82500000D02*
X130169785Y-82457143D01*
X130169785Y-82457143D02*
X130212642Y-82500000D01*
X130212642Y-82500000D02*
X130126928Y-82500000D01*
X129912642Y-81685715D02*
X129184071Y-81685715D01*
X129184071Y-81685715D02*
X129098357Y-81728572D01*
X129098357Y-81728572D02*
X129055500Y-81771429D01*
X129055500Y-81771429D02*
X129012642Y-81857143D01*
X129012642Y-81857143D02*
X129012642Y-81985715D01*
X129012642Y-81985715D02*
X129055500Y-82071429D01*
X129355500Y-81685715D02*
X129312642Y-81771429D01*
X129312642Y-81771429D02*
X129312642Y-81942857D01*
X129312642Y-81942857D02*
X129355500Y-82028572D01*
X129355500Y-82028572D02*
X129398357Y-82071429D01*
X129398357Y-82071429D02*
X129484071Y-82114286D01*
X129484071Y-82114286D02*
X129741214Y-82114286D01*
X129741214Y-82114286D02*
X129826928Y-82071429D01*
X129826928Y-82071429D02*
X129869785Y-82028572D01*
X129869785Y-82028572D02*
X129912642Y-81942857D01*
X129912642Y-81942857D02*
X129912642Y-81771429D01*
X129912642Y-81771429D02*
X129869785Y-81685715D01*
X129912642Y-81257143D02*
X129312642Y-81257143D01*
X129826928Y-81257143D02*
X129869785Y-81214286D01*
X129869785Y-81214286D02*
X129912642Y-81128571D01*
X129912642Y-81128571D02*
X129912642Y-81000000D01*
X129912642Y-81000000D02*
X129869785Y-80914286D01*
X129869785Y-80914286D02*
X129784071Y-80871429D01*
X129784071Y-80871429D02*
X129312642Y-80871429D01*
X129355500Y-80100000D02*
X129312642Y-80185714D01*
X129312642Y-80185714D02*
X129312642Y-80357143D01*
X129312642Y-80357143D02*
X129355500Y-80442857D01*
X129355500Y-80442857D02*
X129441214Y-80485714D01*
X129441214Y-80485714D02*
X129784071Y-80485714D01*
X129784071Y-80485714D02*
X129869785Y-80442857D01*
X129869785Y-80442857D02*
X129912642Y-80357143D01*
X129912642Y-80357143D02*
X129912642Y-80185714D01*
X129912642Y-80185714D02*
X129869785Y-80100000D01*
X129869785Y-80100000D02*
X129784071Y-80057143D01*
X129784071Y-80057143D02*
X129698357Y-80057143D01*
X129698357Y-80057143D02*
X129612642Y-80485714D01*
X129312642Y-79285714D02*
X130212642Y-79285714D01*
X129355500Y-79285714D02*
X129312642Y-79371428D01*
X129312642Y-79371428D02*
X129312642Y-79542856D01*
X129312642Y-79542856D02*
X129355500Y-79628571D01*
X129355500Y-79628571D02*
X129398357Y-79671428D01*
X129398357Y-79671428D02*
X129484071Y-79714285D01*
X129484071Y-79714285D02*
X129741214Y-79714285D01*
X129741214Y-79714285D02*
X129826928Y-79671428D01*
X129826928Y-79671428D02*
X129869785Y-79628571D01*
X129869785Y-79628571D02*
X129912642Y-79542856D01*
X129912642Y-79542856D02*
X129912642Y-79371428D01*
X129912642Y-79371428D02*
X129869785Y-79285714D01*
X129312642Y-78171428D02*
X130212642Y-78171428D01*
X129869785Y-78171428D02*
X129912642Y-78085714D01*
X129912642Y-78085714D02*
X129912642Y-77914285D01*
X129912642Y-77914285D02*
X129869785Y-77828571D01*
X129869785Y-77828571D02*
X129826928Y-77785714D01*
X129826928Y-77785714D02*
X129741214Y-77742856D01*
X129741214Y-77742856D02*
X129484071Y-77742856D01*
X129484071Y-77742856D02*
X129398357Y-77785714D01*
X129398357Y-77785714D02*
X129355500Y-77828571D01*
X129355500Y-77828571D02*
X129312642Y-77914285D01*
X129312642Y-77914285D02*
X129312642Y-78085714D01*
X129312642Y-78085714D02*
X129355500Y-78171428D01*
X129912642Y-77442856D02*
X129312642Y-77228570D01*
X129912642Y-77014285D02*
X129312642Y-77228570D01*
X129312642Y-77228570D02*
X129098357Y-77314285D01*
X129098357Y-77314285D02*
X129055500Y-77357142D01*
X129055500Y-77357142D02*
X129012642Y-77442856D01*
X127897500Y-86700000D02*
X127854642Y-86571429D01*
X127854642Y-86571429D02*
X127854642Y-86357143D01*
X127854642Y-86357143D02*
X127897500Y-86271429D01*
X127897500Y-86271429D02*
X127940357Y-86228571D01*
X127940357Y-86228571D02*
X128026071Y-86185714D01*
X128026071Y-86185714D02*
X128111785Y-86185714D01*
X128111785Y-86185714D02*
X128197500Y-86228571D01*
X128197500Y-86228571D02*
X128240357Y-86271429D01*
X128240357Y-86271429D02*
X128283214Y-86357143D01*
X128283214Y-86357143D02*
X128326071Y-86528571D01*
X128326071Y-86528571D02*
X128368928Y-86614286D01*
X128368928Y-86614286D02*
X128411785Y-86657143D01*
X128411785Y-86657143D02*
X128497500Y-86700000D01*
X128497500Y-86700000D02*
X128583214Y-86700000D01*
X128583214Y-86700000D02*
X128668928Y-86657143D01*
X128668928Y-86657143D02*
X128711785Y-86614286D01*
X128711785Y-86614286D02*
X128754642Y-86528571D01*
X128754642Y-86528571D02*
X128754642Y-86314286D01*
X128754642Y-86314286D02*
X128711785Y-86185714D01*
X127854642Y-85800000D02*
X128454642Y-85800000D01*
X128283214Y-85800000D02*
X128368928Y-85757143D01*
X128368928Y-85757143D02*
X128411785Y-85714286D01*
X128411785Y-85714286D02*
X128454642Y-85628571D01*
X128454642Y-85628571D02*
X128454642Y-85542857D01*
X127897500Y-84900000D02*
X127854642Y-84985714D01*
X127854642Y-84985714D02*
X127854642Y-85157143D01*
X127854642Y-85157143D02*
X127897500Y-85242857D01*
X127897500Y-85242857D02*
X127983214Y-85285714D01*
X127983214Y-85285714D02*
X128326071Y-85285714D01*
X128326071Y-85285714D02*
X128411785Y-85242857D01*
X128411785Y-85242857D02*
X128454642Y-85157143D01*
X128454642Y-85157143D02*
X128454642Y-84985714D01*
X128454642Y-84985714D02*
X128411785Y-84900000D01*
X128411785Y-84900000D02*
X128326071Y-84857143D01*
X128326071Y-84857143D02*
X128240357Y-84857143D01*
X128240357Y-84857143D02*
X128154642Y-85285714D01*
X127897500Y-84128571D02*
X127854642Y-84214285D01*
X127854642Y-84214285D02*
X127854642Y-84385714D01*
X127854642Y-84385714D02*
X127897500Y-84471428D01*
X127897500Y-84471428D02*
X127983214Y-84514285D01*
X127983214Y-84514285D02*
X128326071Y-84514285D01*
X128326071Y-84514285D02*
X128411785Y-84471428D01*
X128411785Y-84471428D02*
X128454642Y-84385714D01*
X128454642Y-84385714D02*
X128454642Y-84214285D01*
X128454642Y-84214285D02*
X128411785Y-84128571D01*
X128411785Y-84128571D02*
X128326071Y-84085714D01*
X128326071Y-84085714D02*
X128240357Y-84085714D01*
X128240357Y-84085714D02*
X128154642Y-84514285D01*
X128454642Y-83699999D02*
X127854642Y-83699999D01*
X128368928Y-83699999D02*
X128411785Y-83657142D01*
X128411785Y-83657142D02*
X128454642Y-83571427D01*
X128454642Y-83571427D02*
X128454642Y-83442856D01*
X128454642Y-83442856D02*
X128411785Y-83357142D01*
X128411785Y-83357142D02*
X128326071Y-83314285D01*
X128326071Y-83314285D02*
X127854642Y-83314285D01*
X127854642Y-82885713D02*
X128454642Y-82885713D01*
X128754642Y-82885713D02*
X128711785Y-82928570D01*
X128711785Y-82928570D02*
X128668928Y-82885713D01*
X128668928Y-82885713D02*
X128711785Y-82842856D01*
X128711785Y-82842856D02*
X128754642Y-82885713D01*
X128754642Y-82885713D02*
X128668928Y-82885713D01*
X128454642Y-82542856D02*
X127854642Y-82328570D01*
X127854642Y-82328570D02*
X128454642Y-82114285D01*
X127854642Y-81385714D02*
X128326071Y-81385714D01*
X128326071Y-81385714D02*
X128411785Y-81428571D01*
X128411785Y-81428571D02*
X128454642Y-81514285D01*
X128454642Y-81514285D02*
X128454642Y-81685714D01*
X128454642Y-81685714D02*
X128411785Y-81771428D01*
X127897500Y-81385714D02*
X127854642Y-81471428D01*
X127854642Y-81471428D02*
X127854642Y-81685714D01*
X127854642Y-81685714D02*
X127897500Y-81771428D01*
X127897500Y-81771428D02*
X127983214Y-81814285D01*
X127983214Y-81814285D02*
X128068928Y-81814285D01*
X128068928Y-81814285D02*
X128154642Y-81771428D01*
X128154642Y-81771428D02*
X128197500Y-81685714D01*
X128197500Y-81685714D02*
X128197500Y-81471428D01*
X128197500Y-81471428D02*
X128240357Y-81385714D01*
X127897500Y-80999999D02*
X127854642Y-80914285D01*
X127854642Y-80914285D02*
X127854642Y-80742856D01*
X127854642Y-80742856D02*
X127897500Y-80657142D01*
X127897500Y-80657142D02*
X127983214Y-80614285D01*
X127983214Y-80614285D02*
X128026071Y-80614285D01*
X128026071Y-80614285D02*
X128111785Y-80657142D01*
X128111785Y-80657142D02*
X128154642Y-80742856D01*
X128154642Y-80742856D02*
X128154642Y-80871428D01*
X128154642Y-80871428D02*
X128197500Y-80957142D01*
X128197500Y-80957142D02*
X128283214Y-80999999D01*
X128283214Y-80999999D02*
X128326071Y-80999999D01*
X128326071Y-80999999D02*
X128411785Y-80957142D01*
X128411785Y-80957142D02*
X128454642Y-80871428D01*
X128454642Y-80871428D02*
X128454642Y-80742856D01*
X128454642Y-80742856D02*
X128411785Y-80657142D01*
X128326071Y-79542857D02*
X128326071Y-79242857D01*
X127854642Y-79114285D02*
X127854642Y-79542857D01*
X127854642Y-79542857D02*
X128754642Y-79542857D01*
X128754642Y-79542857D02*
X128754642Y-79114285D01*
X127854642Y-78342857D02*
X128326071Y-78342857D01*
X128326071Y-78342857D02*
X128411785Y-78385714D01*
X128411785Y-78385714D02*
X128454642Y-78471428D01*
X128454642Y-78471428D02*
X128454642Y-78642857D01*
X128454642Y-78642857D02*
X128411785Y-78728571D01*
X127897500Y-78342857D02*
X127854642Y-78428571D01*
X127854642Y-78428571D02*
X127854642Y-78642857D01*
X127854642Y-78642857D02*
X127897500Y-78728571D01*
X127897500Y-78728571D02*
X127983214Y-78771428D01*
X127983214Y-78771428D02*
X128068928Y-78771428D01*
X128068928Y-78771428D02*
X128154642Y-78728571D01*
X128154642Y-78728571D02*
X128197500Y-78642857D01*
X128197500Y-78642857D02*
X128197500Y-78428571D01*
X128197500Y-78428571D02*
X128240357Y-78342857D01*
X127854642Y-77528571D02*
X128754642Y-77528571D01*
X127897500Y-77528571D02*
X127854642Y-77614285D01*
X127854642Y-77614285D02*
X127854642Y-77785713D01*
X127854642Y-77785713D02*
X127897500Y-77871428D01*
X127897500Y-77871428D02*
X127940357Y-77914285D01*
X127940357Y-77914285D02*
X128026071Y-77957142D01*
X128026071Y-77957142D02*
X128283214Y-77957142D01*
X128283214Y-77957142D02*
X128368928Y-77914285D01*
X128368928Y-77914285D02*
X128411785Y-77871428D01*
X128411785Y-77871428D02*
X128454642Y-77785713D01*
X128454642Y-77785713D02*
X128454642Y-77614285D01*
X128454642Y-77614285D02*
X128411785Y-77528571D01*
X127854642Y-76714285D02*
X128326071Y-76714285D01*
X128326071Y-76714285D02*
X128411785Y-76757142D01*
X128411785Y-76757142D02*
X128454642Y-76842856D01*
X128454642Y-76842856D02*
X128454642Y-77014285D01*
X128454642Y-77014285D02*
X128411785Y-77099999D01*
X127897500Y-76714285D02*
X127854642Y-76799999D01*
X127854642Y-76799999D02*
X127854642Y-77014285D01*
X127854642Y-77014285D02*
X127897500Y-77099999D01*
X127897500Y-77099999D02*
X127983214Y-77142856D01*
X127983214Y-77142856D02*
X128068928Y-77142856D01*
X128068928Y-77142856D02*
X128154642Y-77099999D01*
X128154642Y-77099999D02*
X128197500Y-77014285D01*
X128197500Y-77014285D02*
X128197500Y-76799999D01*
X128197500Y-76799999D02*
X128240357Y-76714285D01*
X127854642Y-76285713D02*
X128454642Y-76285713D01*
X128283214Y-76285713D02*
X128368928Y-76242856D01*
X128368928Y-76242856D02*
X128411785Y-76199999D01*
X128411785Y-76199999D02*
X128454642Y-76114284D01*
X128454642Y-76114284D02*
X128454642Y-76028570D01*
X127854642Y-75342856D02*
X128326071Y-75342856D01*
X128326071Y-75342856D02*
X128411785Y-75385713D01*
X128411785Y-75385713D02*
X128454642Y-75471427D01*
X128454642Y-75471427D02*
X128454642Y-75642856D01*
X128454642Y-75642856D02*
X128411785Y-75728570D01*
X127897500Y-75342856D02*
X127854642Y-75428570D01*
X127854642Y-75428570D02*
X127854642Y-75642856D01*
X127854642Y-75642856D02*
X127897500Y-75728570D01*
X127897500Y-75728570D02*
X127983214Y-75771427D01*
X127983214Y-75771427D02*
X128068928Y-75771427D01*
X128068928Y-75771427D02*
X128154642Y-75728570D01*
X128154642Y-75728570D02*
X128197500Y-75642856D01*
X128197500Y-75642856D02*
X128197500Y-75428570D01*
X128197500Y-75428570D02*
X128240357Y-75342856D01*
D12*
%TO.C,TP5*%
X130950000Y-61500000D02*
G75*
G03*
X130950000Y-61500000I-950000J0D01*
G01*
%TO.C,J6*%
X143210000Y-54150000D02*
X143210000Y-59350000D01*
X92290000Y-54150000D02*
X143210000Y-54150000D01*
X92290000Y-54150000D02*
X92290000Y-56750000D01*
X94890000Y-56750000D02*
X94890000Y-59350000D01*
X92290000Y-56750000D02*
X94890000Y-56750000D01*
X92290000Y-58020000D02*
X92290000Y-59350000D01*
X94890000Y-59350000D02*
X143210000Y-59350000D01*
X92290000Y-59350000D02*
X93620000Y-59350000D01*
%TO.C,JP1*%
X133700000Y-71050000D02*
X134300000Y-71050000D01*
X132500000Y-70500000D02*
X132500000Y-69900000D01*
X135000000Y-70400000D02*
X135000000Y-67600000D01*
X132800000Y-70200000D02*
X132500000Y-70500000D01*
X132800000Y-70200000D02*
X132500000Y-69900000D01*
X133000000Y-67600000D02*
X133000000Y-70400000D01*
X134300000Y-66950000D02*
X133700000Y-66950000D01*
X133000000Y-70350000D02*
G75*
G03*
X133700000Y-71050000I699999J-1D01*
G01*
X134300000Y-71050000D02*
G75*
G03*
X135000000Y-70350000I1J699999D01*
G01*
X133700000Y-66950000D02*
G75*
G03*
X133000000Y-67650000I0J-700000D01*
G01*
X135000000Y-67650000D02*
G75*
G03*
X134300000Y-66950000I-700000J0D01*
G01*
%TO.C,TP4*%
X141700000Y-98000000D02*
G75*
G03*
X141700000Y-98000000I-950000J0D01*
G01*
%TO.C,TP1*%
X138450000Y-72500000D02*
G75*
G03*
X138450000Y-72500000I-950000J0D01*
G01*
%TO.C,G\u002A\u002A\u002A*%
G36*
X131655673Y-77625000D02*
G01*
X131343096Y-77625000D01*
X131343096Y-77312500D01*
X131655673Y-77312500D01*
X131655673Y-77625000D01*
G37*
G36*
X131655673Y-72937500D02*
G01*
X131343096Y-72937500D01*
X131343096Y-72625000D01*
X131655673Y-72625000D01*
X131655673Y-72937500D01*
G37*
G36*
X132905981Y-72937500D02*
G01*
X131968250Y-72937500D01*
X131968250Y-72625000D01*
X132905981Y-72625000D01*
X132905981Y-72937500D01*
G37*
G36*
X132593404Y-74187500D02*
G01*
X132905981Y-74187500D01*
X132905981Y-74500000D01*
X131343096Y-74500000D01*
X131343096Y-74187500D01*
X132280827Y-74187500D01*
X132280827Y-73875000D01*
X132593404Y-73875000D01*
X132593404Y-74187500D01*
G37*
G36*
X132905981Y-73562500D02*
G01*
X132280827Y-73562500D01*
X132280827Y-73875000D01*
X131968250Y-73875000D01*
X131968250Y-73562500D01*
X131343096Y-73562500D01*
X131343096Y-73250000D01*
X132905981Y-73250000D01*
X132905981Y-73562500D01*
G37*
G36*
X136656904Y-80750000D02*
G01*
X136969481Y-80750000D01*
X136969481Y-82625000D01*
X136656904Y-82625000D01*
X136656904Y-83562500D01*
X136344327Y-83562500D01*
X136344327Y-83875000D01*
X136131750Y-83875000D01*
X136131750Y-82412500D01*
X136444327Y-82412500D01*
X136444327Y-80125000D01*
X136656904Y-80125000D01*
X136656904Y-80750000D01*
G37*
G36*
X132280827Y-79187500D02*
G01*
X132593404Y-79187500D01*
X132593404Y-78562500D01*
X132905981Y-78562500D01*
X132905981Y-79500000D01*
X131968250Y-79500000D01*
X131968250Y-78875000D01*
X131655673Y-78875000D01*
X131655673Y-79500000D01*
X131343096Y-79500000D01*
X131343096Y-78562500D01*
X132280827Y-78562500D01*
X132280827Y-79187500D01*
G37*
G36*
X131655673Y-76687500D02*
G01*
X131968250Y-76687500D01*
X131968250Y-76375000D01*
X132280827Y-76375000D01*
X132280827Y-76687500D01*
X132593404Y-76687500D01*
X132593404Y-76062500D01*
X132905981Y-76062500D01*
X132905981Y-77000000D01*
X131343096Y-77000000D01*
X131343096Y-76062500D01*
X131655673Y-76062500D01*
X131655673Y-76687500D01*
G37*
G36*
X131655673Y-75437500D02*
G01*
X131968250Y-75437500D01*
X131968250Y-75125000D01*
X132280827Y-75125000D01*
X132280827Y-75437500D01*
X132593404Y-75437500D01*
X132593404Y-74812500D01*
X132905981Y-74812500D01*
X132905981Y-75750000D01*
X131343096Y-75750000D01*
X131343096Y-74812500D01*
X131655673Y-74812500D01*
X131655673Y-75437500D01*
G37*
G36*
X132593404Y-77625000D02*
G01*
X131968250Y-77625000D01*
X131968250Y-77937500D01*
X132593404Y-77937500D01*
X132593404Y-77625000D01*
X132905981Y-77625000D01*
X132905981Y-78250000D01*
X131968250Y-78250000D01*
X131343096Y-78250000D01*
X131343096Y-77937500D01*
X131655673Y-77937500D01*
X131655673Y-77625000D01*
X131968250Y-77625000D01*
X131968250Y-77312500D01*
X132593404Y-77312500D01*
X132593404Y-77625000D01*
G37*
G36*
X134994020Y-80337500D02*
G01*
X134681443Y-80337500D01*
X134681443Y-80650000D01*
X134368866Y-80650000D01*
X134368866Y-81900000D01*
X134056289Y-81900000D01*
X134056289Y-84187500D01*
X133843711Y-84187500D01*
X133843711Y-83875000D01*
X133631135Y-83875000D01*
X133631135Y-81787500D01*
X133943711Y-81787500D01*
X133943711Y-80537500D01*
X134256289Y-80537500D01*
X134256289Y-79812500D01*
X134468866Y-79812500D01*
X134468866Y-79500000D01*
X134994020Y-79500000D01*
X134994020Y-80337500D01*
G37*
G36*
X138977360Y-83509776D02*
G01*
X139005803Y-83520521D01*
X139049361Y-83538754D01*
X139103947Y-83562745D01*
X139165470Y-83590766D01*
X139186496Y-83600494D01*
X139250790Y-83630191D01*
X139330841Y-83667116D01*
X139422236Y-83709235D01*
X139520562Y-83754516D01*
X139621405Y-83800924D01*
X139720353Y-83846426D01*
X139775736Y-83871888D01*
X139868432Y-83914518D01*
X139956456Y-83955019D01*
X140036343Y-83991793D01*
X140104626Y-84023245D01*
X140157839Y-84047780D01*
X140192517Y-84063802D01*
X140206265Y-84070163D01*
X140248227Y-84089553D01*
X140307846Y-84117083D01*
X140382260Y-84151431D01*
X140468607Y-84191276D01*
X140564023Y-84235298D01*
X140665646Y-84282175D01*
X140770615Y-84330586D01*
X141251859Y-84552515D01*
X141251859Y-91808643D01*
X141164085Y-91863402D01*
X141134375Y-91881886D01*
X141084963Y-91912545D01*
X141022180Y-91951445D01*
X140949845Y-91996222D01*
X140871779Y-92044509D01*
X140791802Y-92093942D01*
X140790786Y-92094570D01*
X140703194Y-92148694D01*
X140601110Y-92211784D01*
X140490557Y-92280116D01*
X140377556Y-92349969D01*
X140268131Y-92417619D01*
X140168303Y-92479343D01*
X140133394Y-92500928D01*
X140044888Y-92555634D01*
X139958521Y-92608995D01*
X139877982Y-92658732D01*
X139806963Y-92702567D01*
X139749154Y-92738220D01*
X139708246Y-92763413D01*
X139704241Y-92765876D01*
X139620597Y-92817437D01*
X139555508Y-92857865D01*
X139506901Y-92888503D01*
X139472704Y-92910696D01*
X139450844Y-92925788D01*
X139439249Y-92935122D01*
X139435844Y-92940043D01*
X139445690Y-92948055D01*
X139473533Y-92966959D01*
X139516694Y-92995029D01*
X139572492Y-93030542D01*
X139638245Y-93071776D01*
X139711273Y-93117008D01*
X139765725Y-93150551D01*
X139865079Y-93211804D01*
X139973932Y-93278961D01*
X140085473Y-93347819D01*
X140192890Y-93414174D01*
X140289371Y-93473820D01*
X140370190Y-93523801D01*
X140477054Y-93589873D01*
X140592241Y-93661076D01*
X140709171Y-93733343D01*
X140821267Y-93802608D01*
X140921950Y-93864806D01*
X141251859Y-94068578D01*
X141251859Y-95168369D01*
X141251752Y-95354666D01*
X141251393Y-95540494D01*
X141250786Y-95706530D01*
X141249937Y-95852219D01*
X141248853Y-95977010D01*
X141247539Y-96080351D01*
X141246001Y-96161689D01*
X141244245Y-96220471D01*
X141242277Y-96256146D01*
X141240102Y-96268160D01*
X141239170Y-96267841D01*
X141222923Y-96258824D01*
X141188114Y-96238129D01*
X141136330Y-96206735D01*
X141069160Y-96165622D01*
X140988192Y-96115769D01*
X140895014Y-96058156D01*
X140791216Y-95993763D01*
X140718187Y-95948331D01*
X140678384Y-95923569D01*
X140558108Y-95848555D01*
X140431975Y-95769699D01*
X140314019Y-95695875D01*
X140180839Y-95612538D01*
X140050114Y-95530753D01*
X139924101Y-95451930D01*
X139805059Y-95377483D01*
X139695247Y-95308824D01*
X139596924Y-95247365D01*
X139512347Y-95194519D01*
X139443777Y-95151697D01*
X139393470Y-95120313D01*
X139368533Y-95104762D01*
X139290531Y-95056043D01*
X139213178Y-95007625D01*
X139141453Y-94962630D01*
X139080334Y-94924179D01*
X139034798Y-94895394D01*
X139013355Y-94881865D01*
X138970639Y-94855050D01*
X138910218Y-94817200D01*
X138833619Y-94769270D01*
X138742367Y-94712212D01*
X138637990Y-94646981D01*
X138522014Y-94574531D01*
X138395966Y-94495815D01*
X138261371Y-94411787D01*
X138119756Y-94323401D01*
X137972648Y-94231610D01*
X137821573Y-94137369D01*
X136724886Y-93453337D01*
X136724888Y-93132324D01*
X137243985Y-93132324D01*
X137325973Y-93184598D01*
X137330316Y-93187363D01*
X137365862Y-93209821D01*
X137418650Y-93242999D01*
X137485868Y-93285139D01*
X137564706Y-93334483D01*
X137652352Y-93389273D01*
X137745996Y-93447752D01*
X137842826Y-93508163D01*
X137940030Y-93568748D01*
X138034798Y-93627750D01*
X138067688Y-93648298D01*
X138123505Y-93683408D01*
X138174026Y-93715426D01*
X138180458Y-93719491D01*
X138207421Y-93736421D01*
X138252348Y-93764571D01*
X138313697Y-93802976D01*
X138389931Y-93850677D01*
X138479508Y-93906709D01*
X138580889Y-93970111D01*
X138692535Y-94039921D01*
X138812905Y-94115176D01*
X138940459Y-94194915D01*
X139073659Y-94278174D01*
X139210964Y-94363993D01*
X139350835Y-94451408D01*
X139491731Y-94539457D01*
X139632113Y-94627179D01*
X139770442Y-94713610D01*
X139905177Y-94797789D01*
X140034778Y-94878754D01*
X140157707Y-94955542D01*
X140272423Y-95027191D01*
X140377386Y-95092739D01*
X140471057Y-95151224D01*
X140551895Y-95201683D01*
X140618362Y-95243155D01*
X140668918Y-95274676D01*
X140702022Y-95295286D01*
X140716135Y-95304021D01*
X140718187Y-95304134D01*
X140721707Y-95296745D01*
X140724571Y-95277743D01*
X140726833Y-95245331D01*
X140728548Y-95197706D01*
X140729773Y-95133070D01*
X140730562Y-95049621D01*
X140730971Y-94945561D01*
X140731056Y-94819089D01*
X140730844Y-94325024D01*
X140564588Y-94223137D01*
X140538948Y-94207409D01*
X140464975Y-94161929D01*
X140373943Y-94105845D01*
X140268315Y-94040683D01*
X140150559Y-93967964D01*
X140023138Y-93889212D01*
X139888518Y-93805951D01*
X139749163Y-93719703D01*
X139607539Y-93631991D01*
X139466111Y-93544340D01*
X139431748Y-93523042D01*
X139346377Y-93470165D01*
X139247762Y-93409123D01*
X139140899Y-93343007D01*
X139030784Y-93274908D01*
X138922413Y-93207915D01*
X138820780Y-93145121D01*
X138815960Y-93142142D01*
X138730576Y-93088981D01*
X138652618Y-93039708D01*
X138584294Y-92995775D01*
X138527814Y-92958632D01*
X138485387Y-92929732D01*
X138459220Y-92910526D01*
X138451524Y-92902466D01*
X138452825Y-92901474D01*
X138470093Y-92890080D01*
X138503996Y-92868546D01*
X138551294Y-92838902D01*
X138608747Y-92803182D01*
X138673117Y-92763419D01*
X138708071Y-92741880D01*
X138788900Y-92692003D01*
X138881004Y-92635100D01*
X138978231Y-92574974D01*
X139074427Y-92515430D01*
X139163442Y-92460271D01*
X139171074Y-92455538D01*
X139242776Y-92411114D01*
X139330394Y-92356876D01*
X139431119Y-92294559D01*
X139542144Y-92225898D01*
X139660661Y-92152627D01*
X139783861Y-92076483D01*
X139908936Y-91999200D01*
X140033078Y-91922513D01*
X140153479Y-91848156D01*
X140267330Y-91777866D01*
X140371824Y-91713376D01*
X140464151Y-91656423D01*
X140541505Y-91608740D01*
X140601076Y-91572063D01*
X140731179Y-91492040D01*
X140731224Y-90997297D01*
X140731268Y-90502554D01*
X140704028Y-90520134D01*
X140701061Y-90522012D01*
X140679978Y-90535250D01*
X140640257Y-90560139D01*
X140583235Y-90595842D01*
X140510249Y-90641524D01*
X140422637Y-90696348D01*
X140321735Y-90759479D01*
X140208879Y-90830080D01*
X140085408Y-90907316D01*
X139952658Y-90990351D01*
X139811966Y-91078347D01*
X139664668Y-91170470D01*
X139512103Y-91265884D01*
X139355606Y-91363751D01*
X139196515Y-91463238D01*
X139036167Y-91563506D01*
X138875898Y-91663721D01*
X138717046Y-91763046D01*
X138560947Y-91860645D01*
X138408939Y-91955682D01*
X138262358Y-92047322D01*
X138122541Y-92134728D01*
X137990826Y-92217064D01*
X137868549Y-92293494D01*
X137757048Y-92363182D01*
X137657658Y-92425293D01*
X137571717Y-92478989D01*
X137500563Y-92523436D01*
X137445532Y-92557796D01*
X137407960Y-92581235D01*
X137256056Y-92675915D01*
X137250572Y-92679333D01*
X137247279Y-92905828D01*
X137243985Y-93132324D01*
X136724888Y-93132324D01*
X136724913Y-88991992D01*
X136724921Y-87623928D01*
X137244416Y-87623928D01*
X139315735Y-87623928D01*
X139185900Y-87372712D01*
X139177160Y-87355807D01*
X139133177Y-87270894D01*
X139087671Y-87183267D01*
X139043796Y-87098985D01*
X139004705Y-87024109D01*
X138973552Y-86964696D01*
X138960835Y-86940414D01*
X138933307Y-86886982D01*
X138911162Y-86842777D01*
X138896404Y-86811844D01*
X138891039Y-86798228D01*
X138883983Y-86796447D01*
X138855487Y-86794309D01*
X138807711Y-86792414D01*
X138743436Y-86790826D01*
X138665440Y-86789611D01*
X138576505Y-86788834D01*
X138479409Y-86788561D01*
X138067779Y-86788561D01*
X138067779Y-85376157D01*
X138137393Y-85345005D01*
X138139902Y-85343879D01*
X138171542Y-85329527D01*
X138221147Y-85306856D01*
X138285147Y-85277506D01*
X138359975Y-85243114D01*
X138442061Y-85205320D01*
X138527836Y-85165760D01*
X138540075Y-85160111D01*
X138624965Y-85120964D01*
X138705212Y-85084011D01*
X138777349Y-85050845D01*
X138837909Y-85023060D01*
X138883424Y-85002248D01*
X138910428Y-84990001D01*
X138972190Y-84962335D01*
X139424965Y-85170954D01*
X139466713Y-85190182D01*
X139562714Y-85234338D01*
X139651360Y-85275032D01*
X139730213Y-85311147D01*
X139796834Y-85341571D01*
X139848786Y-85365188D01*
X139883630Y-85380885D01*
X139898928Y-85387547D01*
X139901737Y-85389254D01*
X139904794Y-85393680D01*
X139907494Y-85401968D01*
X139909857Y-85415475D01*
X139911907Y-85435557D01*
X139913665Y-85463571D01*
X139915154Y-85500874D01*
X139916396Y-85548823D01*
X139917413Y-85608774D01*
X139918228Y-85682085D01*
X139918861Y-85770112D01*
X139919337Y-85874211D01*
X139919676Y-85995741D01*
X139919901Y-86136056D01*
X139920035Y-86296515D01*
X139920098Y-86478474D01*
X139920115Y-86683289D01*
X139920115Y-87971056D01*
X139212769Y-87979061D01*
X139140795Y-87979827D01*
X139002080Y-87981049D01*
X138864792Y-87981946D01*
X138732187Y-87982515D01*
X138607518Y-87982751D01*
X138494041Y-87982649D01*
X138395010Y-87982207D01*
X138313681Y-87981419D01*
X138253307Y-87980282D01*
X138001192Y-87973499D01*
X137250572Y-88321367D01*
X137247508Y-90255794D01*
X137247417Y-90315718D01*
X137247098Y-90581944D01*
X137246951Y-90829461D01*
X137246973Y-91057811D01*
X137247162Y-91266534D01*
X137247516Y-91455172D01*
X137248034Y-91623266D01*
X137248713Y-91770358D01*
X137249551Y-91895989D01*
X137250546Y-91999700D01*
X137251696Y-92081033D01*
X137252999Y-92139528D01*
X137254453Y-92174728D01*
X137256056Y-92186174D01*
X137257205Y-92185626D01*
X137274166Y-92175809D01*
X137308879Y-92154944D01*
X137359052Y-92124431D01*
X137422393Y-92085672D01*
X137496610Y-92040069D01*
X137579412Y-91989024D01*
X137668507Y-91933937D01*
X138069347Y-91685748D01*
X138054891Y-88834604D01*
X138600323Y-88834604D01*
X138603426Y-89735205D01*
X138606530Y-90635805D01*
X138987893Y-90397717D01*
X139369257Y-90159629D01*
X139372387Y-89497117D01*
X139375517Y-88834604D01*
X139920115Y-88834604D01*
X139920115Y-89676025D01*
X139920151Y-89773025D01*
X139920330Y-89908523D01*
X139920646Y-90035361D01*
X139921087Y-90151595D01*
X139921640Y-90255282D01*
X139922291Y-90344476D01*
X139923029Y-90417234D01*
X139923841Y-90471610D01*
X139924713Y-90505662D01*
X139925633Y-90517445D01*
X139926543Y-90517068D01*
X139942346Y-90507954D01*
X139975887Y-90487707D01*
X140024924Y-90457707D01*
X140087216Y-90419334D01*
X140160521Y-90373967D01*
X140242600Y-90322986D01*
X140331210Y-90267770D01*
X140731268Y-90018094D01*
X140731147Y-87449919D01*
X140731026Y-84881745D01*
X140231743Y-84652383D01*
X140214995Y-84644689D01*
X140091944Y-84588129D01*
X139960694Y-84527755D01*
X139826280Y-84465886D01*
X139693737Y-84404841D01*
X139568097Y-84346938D01*
X139454397Y-84294496D01*
X139357670Y-84249833D01*
X139289367Y-84218378D01*
X139205292Y-84179972D01*
X139129964Y-84145911D01*
X139066023Y-84117371D01*
X139016108Y-84095529D01*
X138982860Y-84081562D01*
X138968919Y-84076644D01*
X138961459Y-84078401D01*
X138934671Y-84088353D01*
X138894794Y-84105132D01*
X138847332Y-84126483D01*
X138829133Y-84134905D01*
X138768808Y-84162766D01*
X138709231Y-84190211D01*
X138661011Y-84212353D01*
X138636874Y-84223423D01*
X138599469Y-84240610D01*
X138548914Y-84263863D01*
X138484228Y-84293634D01*
X138404429Y-84330375D01*
X138308534Y-84374539D01*
X138195561Y-84426577D01*
X138064527Y-84486943D01*
X137914451Y-84556089D01*
X137744350Y-84634467D01*
X137553241Y-84722529D01*
X137250572Y-84862002D01*
X137244416Y-87623928D01*
X136724921Y-87623928D01*
X136724940Y-84530648D01*
X136969596Y-84419061D01*
X137020530Y-84395782D01*
X137091149Y-84363433D01*
X137179085Y-84323103D01*
X137281998Y-84275865D01*
X137397552Y-84222795D01*
X137523405Y-84164965D01*
X137657221Y-84103452D01*
X137796660Y-84039329D01*
X137939383Y-83973670D01*
X138083052Y-83907550D01*
X138125738Y-83887911D01*
X138260556Y-83826007D01*
X138388680Y-83767364D01*
X138508411Y-83712749D01*
X138618051Y-83662929D01*
X138715901Y-83618670D01*
X138800263Y-83580738D01*
X138869440Y-83549902D01*
X138921733Y-83526927D01*
X138955444Y-83512579D01*
X138968874Y-83507626D01*
X138977360Y-83509776D01*
G37*
%TO.C,TP6*%
X130950000Y-75000000D02*
G75*
G03*
X130950000Y-75000000I-950000J0D01*
G01*
%TO.C,TP2*%
X110950000Y-102000000D02*
G75*
G03*
X110950000Y-102000000I-950000J0D01*
G01*
%TO.C,TP3*%
X121950000Y-103000000D02*
G75*
G03*
X121950000Y-103000000I-950000J0D01*
G01*
%TD*%
%LPC*%
%TO.C,G\u002A\u002A\u002A*%
G36*
X131343096Y-82312500D02*
G01*
X131030519Y-82312500D01*
X131030519Y-81062500D01*
X131343096Y-81062500D01*
X131343096Y-82312500D01*
G37*
G36*
X134156289Y-80437500D02*
G01*
X133843711Y-80437500D01*
X133843711Y-81687500D01*
X133531135Y-81687500D01*
X133531135Y-83562500D01*
X132593404Y-83562500D01*
X132593404Y-83250000D01*
X132280827Y-83250000D01*
X132280827Y-82937500D01*
X131968250Y-82937500D01*
X131655673Y-82937500D01*
X131655673Y-82000000D01*
X131968250Y-82000000D01*
X132593404Y-82000000D01*
X132593404Y-82937500D01*
X133218558Y-82937500D01*
X133218558Y-82000000D01*
X132593404Y-82000000D01*
X132593404Y-81375000D01*
X133218558Y-81375000D01*
X133218558Y-80437500D01*
X132593404Y-80437500D01*
X132593404Y-81375000D01*
X131968250Y-81375000D01*
X131968250Y-82000000D01*
X131655673Y-82000000D01*
X131655673Y-80437500D01*
X132280827Y-80437500D01*
X132280827Y-80125000D01*
X132593404Y-80125000D01*
X132593404Y-79812500D01*
X134156289Y-79812500D01*
X134156289Y-80437500D01*
G37*
G36*
X136031750Y-79812500D02*
G01*
X136344327Y-79812500D01*
X136344327Y-82312500D01*
X136031750Y-82312500D01*
X136031750Y-83875000D01*
X135719173Y-83875000D01*
X135719173Y-84187500D01*
X134468866Y-84187500D01*
X134156289Y-84187500D01*
X134156289Y-83250000D01*
X134468866Y-83250000D01*
X134781443Y-83250000D01*
X134781443Y-82937500D01*
X135406597Y-82937500D01*
X135406597Y-83250000D01*
X135719173Y-83250000D01*
X135719173Y-82312500D01*
X135406597Y-82312500D01*
X135406597Y-82000000D01*
X136031750Y-82000000D01*
X136031750Y-81062500D01*
X135719173Y-81062500D01*
X135719173Y-81375000D01*
X135094020Y-81375000D01*
X135094020Y-81062500D01*
X134781443Y-81062500D01*
X134781443Y-82000000D01*
X135094020Y-82000000D01*
X135094020Y-82312500D01*
X134468866Y-82312500D01*
X134468866Y-83250000D01*
X134156289Y-83250000D01*
X134156289Y-82000000D01*
X134468866Y-82000000D01*
X134468866Y-80750000D01*
X134781443Y-80750000D01*
X134781443Y-80437500D01*
X135094020Y-80437500D01*
X135094020Y-79500000D01*
X136031750Y-79500000D01*
X136031750Y-79812500D01*
G37*
%TD*%
D13*
%TO.C,J8*%
X146200000Y-64900000D03*
D14*
X146200000Y-62400000D03*
%TD*%
D15*
%TO.C,H2*%
X88750000Y-56750000D03*
%TD*%
D16*
%TO.C,J2*%
X106250000Y-106250000D03*
D17*
X103750000Y-106250000D03*
%TD*%
D18*
%TO.C,J1*%
X94250000Y-105000000D03*
D19*
X97750000Y-105000000D03*
%TD*%
D16*
%TO.C,J3*%
X131250000Y-64350000D03*
D17*
X128750000Y-64350000D03*
%TD*%
D15*
%TO.C,H3*%
X146750000Y-56750000D03*
%TD*%
D20*
%TO.C,U2*%
X89500000Y-64500000D03*
X121500000Y-64500000D03*
X89500000Y-96500000D03*
X121500000Y-96500000D03*
%TD*%
D15*
%TO.C,H1*%
X146750000Y-105750000D03*
%TD*%
%TO.C,H4*%
X88750000Y-105750000D03*
%TD*%
D21*
%TO.C,TP5*%
X130000000Y-61500000D03*
%TD*%
D22*
%TO.C,J6*%
X93620000Y-58020000D03*
D23*
X93620000Y-55480000D03*
X96160000Y-58020000D03*
X96160000Y-55480000D03*
X98700000Y-58020000D03*
X98700000Y-55480000D03*
X101240000Y-58020000D03*
X101240000Y-55480000D03*
X103780000Y-58020000D03*
X103780000Y-55480000D03*
X106320000Y-58020000D03*
X106320000Y-55480000D03*
X108860000Y-58020000D03*
X108860000Y-55480000D03*
X111400000Y-58020000D03*
X111400000Y-55480000D03*
X113940000Y-58020000D03*
X113940000Y-55480000D03*
X116480000Y-58020000D03*
X116480000Y-55480000D03*
X119020000Y-58020000D03*
X119020000Y-55480000D03*
X121560000Y-58020000D03*
X121560000Y-55480000D03*
X124100000Y-58020000D03*
X124100000Y-55480000D03*
X126640000Y-58020000D03*
X126640000Y-55480000D03*
X129180000Y-58020000D03*
X129180000Y-55480000D03*
X131720000Y-58020000D03*
X131720000Y-55480000D03*
X134260000Y-58020000D03*
X134260000Y-55480000D03*
X136800000Y-58020000D03*
X136800000Y-55480000D03*
X139340000Y-58020000D03*
X139340000Y-55480000D03*
X141880000Y-58020000D03*
X141880000Y-55480000D03*
%TD*%
D24*
%TO.C,JP1*%
X134000000Y-70300000D03*
D25*
X134000000Y-69000000D03*
D26*
X134000000Y-67700000D03*
%TD*%
D21*
%TO.C,TP4*%
X140750000Y-98000000D03*
%TD*%
%TO.C,TP1*%
X137500000Y-72500000D03*
%TD*%
%TO.C,TP6*%
X130000000Y-75000000D03*
%TD*%
%TO.C,TP2*%
X110000000Y-102000000D03*
%TD*%
%TO.C,TP3*%
X121000000Y-103000000D03*
%TD*%
%LPD*%
M02*
